/* XPM */
static char * minus_xpm[] = {
"64 64 617 2",
"  	c None",
". 	c #8E3228",
"+ 	c #92352B",
"@ 	c #9E3C2F",
"# 	c #9E3C32",
"$ 	c #9F3D30",
"% 	c #9D3D31",
"& 	c #9F3F30",
"* 	c #A03E33",
"= 	c #A14032",
"- 	c #9F3D33",
"; 	c #9F3E32",
"> 	c #9F3F33",
", 	c #9E3E32",
"' 	c #A03F34",
") 	c #9B3D30",
"! 	c #A34134",
"~ 	c #A13E34",
"{ 	c #A03F32",
"] 	c #A13F33",
"^ 	c #A03E32",
"/ 	c #A24033",
"( 	c #9F3E31",
"_ 	c #9F3C32",
": 	c #9E3F31",
"< 	c #9F3D32",
"[ 	c #9E3F32",
"} 	c #9F3E33",
"| 	c #9C3D30",
"1 	c #9D3D30",
"2 	c #993B31",
"3 	c #9E3E31",
"4 	c #9E3C33",
"5 	c #9D3E33",
"6 	c #9F3D31",
"7 	c #9E3D32",
"8 	c #9D3C2F",
"9 	c #8A3029",
"0 	c #883028",
"a 	c #90322A",
"b 	c #92352A",
"c 	c #9E3E33",
"d 	c #A03D31",
"e 	c #9E3D31",
"f 	c #9F3F31",
"g 	c #A13F32",
"h 	c #A03D32",
"i 	c #A03D33",
"j 	c #9E4032",
"k 	c #9B3A30",
"l 	c #A34035",
"m 	c #A23E33",
"n 	c #A13F34",
"o 	c #A13D31",
"p 	c #A04031",
"q 	c #9E4033",
"r 	c #9D3E32",
"s 	c #9D3E30",
"t 	c #8B3126",
"u 	c #893128",
"v 	c #8B3128",
"w 	c #8D302A",
"x 	c #A04033",
"y 	c #A03E31",
"z 	c #892E28",
"A 	c #862B25",
"B 	c #862C25",
"C 	c #852C25",
"D 	c #862D24",
"E 	c #822B24",
"F 	c #832C24",
"G 	c #822C25",
"H 	c #822C23",
"I 	c #832B25",
"J 	c #832D25",
"K 	c #832C25",
"L 	c #822C24",
"M 	c #832D26",
"N 	c #842D24",
"O 	c #842C24",
"P 	c #842B25",
"Q 	c #852B25",
"R 	c #832C26",
"S 	c #822D26",
"T 	c #842B24",
"U 	c #842A25",
"V 	c #842C25",
"W 	c #822A23",
"X 	c #812C24",
"Y 	c #822B25",
"Z 	c #832D24",
"` 	c #822924",
" .	c #832B24",
"..	c #862E26",
"+.	c #892F27",
"@.	c #9F3F34",
"#.	c #8A3028",
"$.	c #863128",
"%.	c #893029",
"&.	c #9C392E",
"*.	c #892E26",
"=.	c #852D25",
"-.	c #802B23",
";.	c #812C25",
">.	c #802A23",
",.	c #7F2B24",
"'.	c #802B22",
").	c #802C23",
"!.	c #822A24",
"~.	c #7F2A23",
"{.	c #822B22",
"].	c #812B23",
"^.	c #832B23",
"/.	c #812C23",
"(.	c #822B23",
"_.	c #802A24",
":.	c #812A24",
"<.	c #812A23",
"[.	c #812C22",
"}.	c #7F2A22",
"|.	c #7F2B22",
"1.	c #7F2B23",
"2.	c #872F27",
"3.	c #8A2F26",
"4.	c #A24034",
"5.	c #893129",
"6.	c #8A3128",
"7.	c #91352B",
"8.	c #8E332A",
"9.	c #A34234",
"0.	c #A34136",
"a.	c #8E3229",
"b.	c #8E3128",
"c.	c #882F27",
"d.	c #8A3027",
"e.	c #8C3229",
"f.	c #A14033",
"g.	c #A03F35",
"h.	c #852E26",
"i.	c #843028",
"j.	c #90362B",
"k.	c #903429",
"l.	c #A24235",
"m.	c #A44133",
"n.	c #8D3228",
"o.	c #8D332B",
"p.	c #8A3228",
"q.	c #852F28",
"r.	c #873129",
"s.	c #8B3027",
"t.	c #A44134",
"u.	c #A24132",
"v.	c #842F25",
"w.	c #823128",
"x.	c #90352A",
"y.	c #96352B",
"z.	c #92342C",
"A.	c #8D3129",
"B.	c #8A332C",
"C.	c #8D3028",
"D.	c #913429",
"E.	c #92362A",
"F.	c #852C27",
"G.	c #832F28",
"H.	c #91352A",
"I.	c #90342A",
"J.	c #97382C",
"K.	c #96362D",
"L.	c #94382D",
"M.	c #94352A",
"N.	c #862D26",
"O.	c #852F27",
"P.	c #93372D",
"Q.	c #96382D",
"R.	c #95382D",
"S.	c #94352B",
"T.	c #842D25",
"U.	c #842F28",
"V.	c #93372E",
"W.	c #93362C",
"X.	c #9C3B2F",
"Y.	c #993A2E",
"Z.	c #993B2E",
"`.	c #9A382E",
" +	c #823028",
".+	c #96392E",
"++	c #95372C",
"@+	c #9E3E30",
"#+	c #9C3B30",
"$+	c #872E25",
"%+	c #853129",
"&+	c #94362B",
"*+	c #9A3A2C",
"=+	c #98392E",
"-+	c #993B2F",
";+	c #973A2D",
">+	c #813027",
",+	c #95382E",
"'+	c #93352C",
")+	c #9A3B2F",
"!+	c #9A392E",
"~+	c #9C3C30",
"{+	c #852F26",
"]+	c #833028",
"^+	c #95372D",
"/+	c #93362B",
"(+	c #9B3B30",
"_+	c #9B3B2E",
":+	c #9C3E30",
"<+	c #9D3A2F",
"[+	c #842E25",
"}+	c #812E29",
"|+	c #963A2E",
"1+	c #9B3C2E",
"2+	c #983A2D",
"3+	c #9A3D2F",
"4+	c #99392D",
"5+	c #812F28",
"6+	c #9B3B2F",
"7+	c #98392C",
"8+	c #993B30",
"9+	c #822F26",
"0+	c #94362D",
"a+	c #993A30",
"b+	c #9A3A2E",
"c+	c #9C3C2F",
"d+	c #832D27",
"e+	c #802F27",
"f+	c #97372E",
"g+	c #96362B",
"h+	c #973B2E",
"i+	c #97392D",
"j+	c #99382F",
"k+	c #7F2D26",
"l+	c #96382C",
"m+	c #92372B",
"n+	c #9A3A2D",
"o+	c #99382E",
"p+	c #9A3A2F",
"q+	c #7F2F27",
"r+	c #95392E",
"s+	c #94362C",
"t+	c #9B392E",
"u+	c #99392E",
"v+	c #832E25",
"w+	c #92362C",
"x+	c #96382E",
"y+	c #9A3C2E",
"z+	c #852D26",
"A+	c #953A2D",
"B+	c #94362A",
"C+	c #993B2D",
"D+	c #A74638",
"E+	c #A24335",
"F+	c #A34334",
"G+	c #A44337",
"H+	c #A54436",
"I+	c #9F3F32",
"J+	c #A14133",
"K+	c #A34435",
"L+	c #A44335",
"M+	c #A04134",
"N+	c #9F3E30",
"O+	c #A64335",
"P+	c #A54235",
"Q+	c #A44235",
"R+	c #A14132",
"S+	c #A04133",
"T+	c #A04034",
"U+	c #A54336",
"V+	c #A84436",
"W+	c #983A2F",
"X+	c #98382D",
"Y+	c #842D23",
"Z+	c #99392C",
"`+	c #A84538",
" @	c #A64435",
".@	c #A54236",
"+@	c #A64234",
"@@	c #A13D30",
"#@	c #A23F32",
"$@	c #A44034",
"%@	c #A54335",
"&@	c #A34033",
"*@	c #A54237",
"=@	c #A44234",
"-@	c #A94235",
";@	c #9A3B30",
">@	c #803026",
",@	c #97372D",
"'@	c #9B3A2E",
")@	c #9A3A30",
"!@	c #9B3A2F",
"~@	c #9B3C2F",
"{@	c #9C3C2E",
"]@	c #9E3D30",
"^@	c #9B3D2F",
"/@	c #9B3B2D",
"(@	c #983B2E",
"_@	c #98392D",
":@	c #99372C",
"<@	c #842C26",
"[@	c #842D26",
"}@	c #842E27",
"|@	c #933829",
"1@	c #96372E",
"2@	c #A84437",
"3@	c #9B3A2D",
"4@	c #9C3A2E",
"5@	c #9D3B2E",
"6@	c #9D3B2F",
"7@	c #9A3B2D",
"8@	c #9B3A2C",
"9@	c #9B392D",
"0@	c #993A2C",
"a@	c #9A392D",
"b@	c #9A382C",
"c@	c #99382D",
"d@	c #A03C2E",
"e@	c #983A2E",
"f@	c #802F26",
"g@	c #94382B",
"h@	c #97382D",
"i@	c #A74438",
"j@	c #993A2D",
"k@	c #9A3B2E",
"l@	c #9B372D",
"m@	c #993B2C",
"n@	c #9B392C",
"o@	c #98382B",
"p@	c #98372D",
"q@	c #97372C",
"r@	c #A23D31",
"s@	c #832925",
"t@	c #852D27",
"u@	c #7F2E26",
"v@	c #96372D",
"w@	c #A54337",
"x@	c #99382C",
"y@	c #98382E",
"z@	c #9C3A2D",
"A@	c #9E3C30",
"B@	c #9D3B30",
"C@	c #97392E",
"D@	c #98382C",
"E@	c #97382E",
"F@	c #97382B",
"G@	c #993C2F",
"H@	c #98392F",
"I@	c #822E26",
"J@	c #92332B",
"K@	c #A34235",
"L@	c #9B3C30",
"M@	c #99392F",
"N@	c #9A3A31",
"O@	c #9E3A2F",
"P@	c #98392B",
"Q@	c #983A2B",
"R@	c #993A2F",
"S@	c #A23E30",
"T@	c #842E26",
"U@	c #7F2D25",
"V@	c #94372B",
"W@	c #97362C",
"X@	c #96352D",
"Y@	c #99362D",
"Z@	c #9A382D",
"`@	c #97392C",
" #	c #96372C",
".#	c #99372D",
"+#	c #97372B",
"@#	c #9D3C30",
"##	c #7F2924",
"$#	c #96382B",
"%#	c #7F2F25",
"&#	c #93372C",
"*#	c #8F3429",
"=#	c #98372C",
"-#	c #A14135",
";#	c #98372B",
">#	c #96372B",
",#	c #97392B",
"'#	c #9A372D",
")#	c #98382A",
"!#	c #95352C",
"~#	c #97362B",
"{#	c #97362E",
"]#	c #9F3B30",
"^#	c #94382C",
"/#	c #832B26",
"(#	c #802E24",
"_#	c #8F342A",
":#	c #A14035",
"<#	c #96362C",
"[#	c #95372A",
"}#	c #95352B",
"|#	c #9B3A2B",
"1#	c #95362B",
"2#	c #95362C",
"3#	c #95352A",
"4#	c #A03C2F",
"5#	c #802924",
"6#	c #95392C",
"7#	c #802E25",
"8#	c #91372C",
"9#	c #903529",
"0#	c #96392C",
"a#	c #94372C",
"b#	c #95362A",
"c#	c #92342A",
"d#	c #963629",
"e#	c #95382C",
"f#	c #99362C",
"g#	c #95382B",
"h#	c #97372A",
"i#	c #95342B",
"j#	c #92342B",
"k#	c #94342B",
"l#	c #96372A",
"m#	c #9F3C2F",
"n#	c #7F2822",
"o#	c #7E2C26",
"p#	c #802922",
"q#	c #7F2922",
"r#	c #7F2722",
"s#	c #7E2822",
"t#	c #7E2921",
"u#	c #7E2821",
"v#	c #7F2A21",
"w#	c #7D2721",
"x#	c #7E2721",
"y#	c #7F2821",
"z#	c #7D2922",
"A#	c #7C2722",
"B#	c #7F2721",
"C#	c #7E2A21",
"D#	c #7D2822",
"E#	c #7E2922",
"F#	c #7D2921",
"G#	c #7C2822",
"H#	c #95372B",
"I#	c #802C25",
"J#	c #8F3428",
"K#	c #91352C",
"L#	c #7F2923",
"M#	c #7C2821",
"N#	c #7D2821",
"O#	c #7A2921",
"P#	c #7C2922",
"Q#	c #7B2823",
"R#	c #7E2823",
"S#	c #78261F",
"T#	c #7B2822",
"U#	c #7E2722",
"V#	c #7F2823",
"W#	c #7D2722",
"X#	c #7D2723",
"Y#	c #7B2722",
"Z#	c #97352D",
"`#	c #7D2E27",
" $	c #91362B",
".$	c #8F3229",
"+$	c #963A2C",
"@$	c #973A2E",
"#$	c #7E2F27",
"$$	c #91362C",
"%$	c #8E3329",
"&$	c #94352C",
"*$	c #7F2C24",
"=$	c #7D2D27",
"-$	c #8F3529",
";$	c #933529",
">$	c #93342B",
",$	c #7A2E26",
"'$	c #963A2D",
")$	c #802B24",
"!$	c #7E2B26",
"~$	c #8E342B",
"{$	c #92362B",
"]$	c #97392F",
"^$	c #7D2E26",
"/$	c #8D3329",
"($	c #93352B",
"_$	c #93372B",
":$	c #923429",
"<$	c #7B2C23",
"[$	c #93382B",
"}$	c #94382A",
"|$	c #7D2D24",
"1$	c #8A3126",
"2$	c #94332A",
"3$	c #91342B",
"4$	c #7D2C23",
"5$	c #7B2B25",
"6$	c #8D322A",
"7$	c #8B3026",
"8$	c #94372A",
"9$	c #7D2B23",
"0$	c #8C3128",
"a$	c #893027",
"b$	c #7E2A23",
"c$	c #7A2C23",
"d$	c #8A3227",
"e$	c #903428",
"f$	c #903329",
"g$	c #8D3229",
"h$	c #7C2924",
"i$	c #7A2C22",
"j$	c #882F26",
"k$	c #91332A",
"l$	c #8D3026",
"m$	c #7A2B25",
"n$	c #862C26",
"o$	c #8F3328",
"p$	c #8A2E28",
"q$	c #7A2721",
"r$	c #772A22",
"s$	c #883025",
"t$	c #90332A",
"u$	c #8C322C",
"v$	c #8C312A",
"w$	c #8C3228",
"x$	c #842E24",
"y$	c #772720",
"z$	c #772821",
"A$	c #77261F",
"B$	c #762421",
"C$	c #872D26",
"D$	c #8C3028",
"E$	c #93342A",
"F$	c #8E3328",
"G$	c #7D2A21",
"H$	c #752421",
"I$	c #732721",
"J$	c #792721",
"K$	c #762521",
"L$	c #8A3127",
"M$	c #91342A",
"N$	c #8E3429",
"O$	c #7A2522",
"P$	c #762620",
"Q$	c #722620",
"R$	c #7A2620",
"S$	c #762621",
"T$	c #93352A",
"U$	c #94362E",
"V$	c #94372D",
"W$	c #94342C",
"X$	c #92352C",
"Y$	c #92352D",
"Z$	c #8F3329",
"`$	c #762721",
" %	c #762822",
".%	c #762622",
"+%	c #75251F",
"@%	c #93362A",
"#%	c #93342C",
"$%	c #92372A",
"%%	c #923328",
"&%	c #7A2A22",
"*%	c #75261F",
"=%	c #772420",
"-%	c #782621",
";%	c #772521",
">%	c #782620",
",%	c #772520",
"'%	c #792620",
")%	c #782522",
"!%	c #762720",
"~%	c #782520",
"{%	c #782721",
"]%	c #782521",
"^%	c #772620",
"/%	c #79261F",
"(%	c #772721",
"_%	c #78251F",
":%	c #7A2421",
"<%	c #792622",
"[%	c #772621",
"}%	c #762520",
"|%	c #792520",
"1%	c #792722",
"2%	c #792720",
"3%	c #792621",
"4%	c #77251F",
"5%	c #77251E",
"6%	c #752720",
"7%	c #76271F",
"8%	c #76241F",
"9%	c #76251F",
"0%	c #752420",
"a%	c #74251F",
"b%	c #74241F",
"c%	c #73261F",
"d%	c #752520",
"e%	c #75251E",
"f%	c #75271E",
"g%	c #76261F",
"h%	c #75241F",
"i%	c #752620",
"j%	c #74271F",
"k%	c #76261E",
"l%	c #742520",
"m%	c #762420",
"n%	c #77271E",
"o%	c #75241E",
"p%	c #76261D",
"q%	c #77241F",
"r%	c #74241E",
"s%	c #72261F",
"t%	c #74251E",
"u%	c #77261E",
"v%	c #75261E",
"w%	c #73251F",
"x%	c #732620",
"y%	c #72251F",
"z%	c #742620",
"                                                                                                                                ",
"                                                                                                                                ",
"                                                                                                                                ",
"                                                                                                                                ",
"                                                                                                                                ",
"                . + @ # $ % # & * = - ; * ; > , ' ) ! ~ ; { ] ^ / ~ ( { _ : < [ [ } | 1 2 3 4 ( 5 6 _ 7 3 8 9 0                 ",
"                a b | c d e c ( > $ f ( g , h i j k l m ; h n o , ] ; p } q f , ; r 3 ; s ; : ; < % # 7 # # t u                 ",
"            v w x y z A B C D E F G H I F J K L M N O P Q K R O S C K O T U V F F T H F W X Y Z `  .N C ..+.x @.#.$.            ",
"            v %.e &.*.=.K E W -.;.-.>.,.'.-.).!.~.{.]. .^./.(._.:.!._.-.<.'.~.[.>.,.,.].}.|.1.~.].>.^.E 2.3.] 4.5.6.            ",
"        7.8.9.0.a.b.#.                                                                                  c.d.#.e.f.g.h.i.        ",
"        j.k.l.m.n.o.p.                                                                                  q.r.s.n.t.u.v.w.        ",
"        x.8.y.z.A.B.                                                                                        A.C.D.E.F.G.        ",
"        H.I.J.K.B.B.                                                                                        B.B.L.M.N.O.        ",
"        P.+ Q.Q.                                                                                                R.S.T.U.        ",
"        V.W.X.Y.                                                                                                Z.`.=. +        ",
"        .+++@+#+                                                                                                | Z.$+%+        ",
"        L.&+*+=+                                                                                                -+;+h.>+        ",
"        ,+'+)+!+                                                                                                [ ~+{+]+        ",
"        ^+/+(+_+                                                                                                :+<+[+}+        ",
"        |+^+1+2+                                                                                                3+4+C 5+        ",
"        R.W.6+7+                                                                                                8+.+O 9+        ",
"        R.0+a+b+                                                                                                c+_+d+e+        ",
"        f+g+h+i+                                                                                                8+j+V k+        ",
"        l+m+n+o+                                                                                                c+p+[+q+        ",
"        r+s+~+t+                                                                                                -+u+v+e+        ",
"        |+w+x+4+                                                                                                y+i+z+e+        ",
"        A+B+C+Y.            D+E+F+G+H+I+J+K+L+l.M+N+N+@.N+N+N+@.N+O+O+O+O+O+O+P+Q+R+9.I+S+E+T+U+V+:.            W+X+Y+5+        ",
"        ,+M.6+Z+            `+l  @.@+@@@#@V+/ 4.T+@.N+N+N+N+N+@.N+N+@.O+O+O+O+O+t.$@%@N+&@*@=@.@-@T.            ;@2+z+>@        ",
"        r+/+4+,@            `+'@)@p+#+!@b+~@{@_+_+(+]@'@X.^@X./@6+!+/@6+)+h+Y.b+6+!@/@b+(@_@=+:@y <@            Y.l+[@}@        ",
"        R.|@1@X+            2@3@c+6+c+_+4@5@6@7@n+&.1 b+b+8@b+'@C+9@0@_@a@b@4+n+8@c@4+*+9@3@_@f+d@ .            e@++v+f@        ",
"        g@E.=+h@            i@4@7@u+p+j@_+k@<+j@'@'@X.*+a@j@k@l@!+4+c@X+X+J.u+m@n@o@p@a@a@q@h@c@r@s@            ;+l+t@u@        ",
"        P.m+i+v@            w@x@!+y@'@j@#+z@=+X.4@Y.A@3@4+u+p+n+b@u+B@X.C@_@j@a@X+D@a@t+E@F@k@n+@@E             G@H@z+I@        ",
"        r+J@i+.+            K@k@Z.'@L@a@4+n+_+_+b+o+)+j@M@n+N@*+b+O@7@Y.y@P@D@C@X+c@X+X+Q@Z+e@R@S@H             .+&+T@U@        ",
"        V@D.W@X@            w@u+Y.a@C+Y@J.4+a@D@a@,@'@Z.4+j@Z@*+c@a@o@J.J.i+l+`@ #p@.#p@+#7+Y.n+@###            ,@$#L %#        ",
"        &#*#F@=#            -#F@R.;#o@>#q@_@o@X+X+J.c@Y.a@Z+b+*+,#_@J.'#)#!#~#p@>#,@$#{#>#J._@7+]#-.            J.^#/#(#        ",
"        V@_#n+;+            :#>#h@_@p+g+ #+#^+<#[#}#c@q@D@|#)#D@D@7+!+C@1#2#1#y.[#~#3#3#~#$#h@++4#5#            6#y@L 7#        ",
"        8#9#0#a#            f b#l+y@=+c#S.d#e#F@<#3#f#g#o@X+`@^+ #+#$#h#l+<#<#q@i#V@j#k#l#,#6#:@m#n#            X+X+ .o#        ",
"        E.I.E./+            p#p#q#r#s#s#t#u#v#w#u#<.u#<.s#s#s#<.u#u#<.t#u#x#y#y#z#r#A#u#B#C#D#E#F#G#            h@H#I#U@        ",
"        H.J#K#s+            L#G#~.M#N#O#P#s#Q#R#D#S#<.u#S#u#<.Q#u#S#Q#<.t#x#N#t#T#U#V#N#M#W#X#s#t#Y#            v@Z#L `#        ",
"         $.$+$&+                                                                                                @$P./.#$        ",
"        $$%$g@V@                                                                                                A+&$*$=$        ",
"        -$%$;$>$                                                                                                =#g#1.,$        ",
"        E.%$`@H#                                                                                                '$ #)$!$        ",
"        ~$8.s+{$                                                                                                ]$<#'.^$        ",
"        k./$H#($                                                                                                _$:$,.<$        ",
"        x.A.[$}$                                                                                                ^+&#|.|$        ",
"        /$1$2$3$                                                                                                l+($4$5$        ",
"        6$7$($E.                                                                                                8$:$F#9$        ",
"        0$a$c#b                                                                                                 M.:$b$c$        ",
"        d$N.e$f$                                                                                                D.g$h$i$        ",
"        j$T.k$%$                                                                                                *#l$w#m$        ",
"        n$T e$7.                                                                                                o$p$q$r$        ",
"        ].1.s$1$t$u$                                                                                        *#v$w$x$y$z$        ",
"        A$B$z+C$D$k$q@                                                                                  E$a.t$F$G$D#H$I$        ",
"        J$K$h.T.L$a$M$                                                                                  x.N$k.%$P#O$P$Q$        ",
"            R$S$a#++E$&+2#S.y.M.P.[#'+T$s+B+a#2#U$0+++++H#^+V$1#2#>#++V@a#W$X$w+W.S.M$V$+ j.b + Y$c#E.Z$S.H.z#P#`$ %            ",
"            .%+%/+'+_#j#&$S.@%+ S.s+a#+ #%B+;$i#w++ k#1#S.a#>$s+B+k#$%+ + {$b /+/+b 3$%%+ ($z.>$X$7.8.e.I.t$1.&%*%P$            ",
"                =%-%;%>%,%'%)%A$!%~%{%]%^%/%(%_%(%{%:%J$<%{%[%K$}%^%,%|%>%'%1%2%3%4%5%>%4%,%6%7%}%^%8%+%9%0%a%b%                ",
"                c%d%A$e%f%a%g%h%i%f%j%e%e%k%*%d%l%m%;%f%n%o%5%p%e%q%P$r%s%t%+%u%+%t%i%v%e%t%w%r%+%t%a%a%x%r%y%z%                ",
"                                                                                                                                ",
"                                                                                                                                ",
"                                                                                                                                ",
"                                                                                                                                ",
"                                                                                                                                "};
