/* XPM */
static char * minus_hover_xpm[] = {
"64 64 65 1",
" 	c None",
".	c #6A0D00",
"+	c #6F0E00",
"@	c #7B1000",
"#	c #7C1000",
"$	c #7D1000",
"%	c #7F1000",
"&	c #7E1000",
"*	c #811000",
"=	c #801000",
"-	c #831100",
";	c #790F00",
">	c #670D00",
",	c #660D00",
"'	c #6B0E00",
")	c #780F00",
"!	c #821000",
"~	c #680D00",
"{	c #640D00",
"]	c #600C00",
"^	c #610C00",
"/	c #620C00",
"(	c #5E0C00",
"_	c #5F0C00",
":	c #5D0C00",
"<	c #5C0C00",
"[	c #630C00",
"}	c #650D00",
"|	c #770F00",
"1	c #6C0E00",
"2	c #841100",
"3	c #690D00",
"4	c #700E00",
"5	c #6D0E00",
"6	c #630D00",
"7	c #6E0E00",
"8	c #710E00",
"9	c #740F00",
"0	c #720E00",
"a	c #730F00",
"b	c #750F00",
"c	c #7A0F00",
"d	c #760F00",
"e	c #7B0F00",
"f	c #730E00",
"g	c #8A1100",
"h	c #851100",
"i	c #861100",
"j	c #871100",
"k	c #881100",
"l	c #891100",
"m	c #5B0B00",
"n	c #5B0C00",
"o	c #5A0B00",
"p	c #590B00",
"q	c #580B00",
"r	c #550B00",
"s	c #570B00",
"t	c #6B0D00",
"u	c #560B00",
"v	c #520A00",
"w	c #530B00",
"x	c #540B00",
"y	c #530A00",
"z	c #510A00",
"                                                                ",
"                                                                ",
"                                                                ",
"                                                                ",
"                                                                ",
"        .+@#$##%&*$&&&%&=@-%&%=&*%&%#%$%%&##;&#&$$#$&@>,        ",
"        '+#&$$&&%$%&=&$$=)!%&$=&&=&=&=%&&$&&$&%&$##$##~~        ",
"      ~~*&{]^]/(]___]^]_^^]__]]]^]]]_(]]]__]:_(^<_^][}*%>,      ",
"      ~>$|{/](::_:<:::_:<((_(_(<::<:::<_<::(<::<(<((}}=*~~      ",
"    +12-.3>                                         }>>.*=[}    ",
"    452-.'3                                         {>>.-!6}    ",
"    71873.                                            3~74^6    ",
"    +590..                                            ..a4/{    ",
"    0+99                                                94^{    ",
"    08;|                                                )b/{    ",
"    b0&c                                                #)6,    ",
"    a8|d                                                )|[{    ",
"    94;|                                                %e{{    ",
"    f8;;                                                $;//    ",
"    dfc|                                                @d][    ",
"    98;d                                                ;b][    ",
"    98|)                                                e;^/    ",
"    a0)b                                                ;b]]    ",
"    98)b                                                e)//    ",
"    b8e|                                                )d//    ",
"    d49d                                                cb//    ",
"    d8)|      ghhij%!ih2!&&%&&&%&iiiiiih2!2%!h*ik:      |b^[    ",
"    94;d      l!jhh$=k***%&&&&&%&&%iiiii-!i&!h2hi^      ;|/6    ",
"    b8da      l)))c))cc;;;#);@;;;|;;;)|););))dd9&]      |9^/    ",
"    9fab      k)e;e;)cc;)|#))))))||ddbd))bd||)da#_      |0//    ",
"    a4d9      k);d)|;;;|));|d|;b|dbbb9d)|99dda9b&<      |9/^    ",
"    08bf      ib|b)|c)d;)|@)dd))bdc;dd|dbbd|99;)$(      cd//    ",
"    b5bb      2;))cdd);;)b;|d))|);;|bdbdbbbb|d||%_      b8/_    ",
"    0708      id|d)f9ddbda))d|b|bd999b9bf999ad|)@m      a9_/    ",
"    059a      !99a9fad9bb9b|dd)|bd999409fa90f9dde:      9a_^    ",
"    05)|      *f9d)0faf004bab)9bbd|d888800440990#n      bb_^    ",
"    87b0      %89bd7489904fa9bbffa9a900a+07+fbb9#o      bb_(    ",
"    4548      nnmpppop<qp:p:ppp:pp:opqooopqpp<pmop      90__    ",
"    +5+8      mp<pppopqopr:prp:qprq:oqpoqqoppqqpos      f8_]    ",
"    4td8                                                |0_/    ",
"    4'a0                                                d4(_    ",
"    7'+7                                                aa:_    ",
"    4'b0                                                df(:    ",
"    5184                                                d0:]    ",
"    5'04                                                07::    ",
"    73fa                                                f0:_    ",
"    '~77                                                94(<    ",
"    .>44                                                07o<    ",
"    3,7+                                                47<:    ",
"    3/51                                                7.o<    ",
"    }^5'                                                5~q<    ",
"    ^_5+                                                1}sp    ",
"    (:,~1.                                            53./us    ",
"    rv//>5a                                         7.1'mpvr    ",
"    sw[^~,7                                         755'orxy    ",
"      ux00788484004+880888000f088f000++48470+4+++7414+oous      ",
"      ry8457448+480++8++4++840788+8++4+88+75+477++1.51:oxx      ",
"        vrxrxrxrrxuxrruxuuxsuurwwrxxrrsurwwrwxrrwrvyyvvz        ",
"        yyryrvxvxrryyxxyyvxruvwxyvxzyvyxyvxxyvvzyvvvwzvx        ",
"                                                                ",
"                                                                ",
"                                                                ",
"                                                                ",
"                                                                "};
