/* XPM */
static char * plus_hover_xpm[] = {
"64 64 75 1",
" 	c None",
".	c #6A0800",
"+	c #6F0800",
"@	c #7B0900",
"#	c #7C0900",
"$	c #7D0900",
"%	c #7F0900",
"&	c #7E0900",
"*	c #810A00",
"=	c #800A00",
"-	c #830A00",
";	c #790900",
">	c #670800",
",	c #660800",
"'	c #6B0800",
")	c #780900",
"!	c #820A00",
"~	c #680800",
"{	c #640700",
"]	c #600700",
"^	c #610700",
"/	c #620700",
"(	c #5E0700",
"_	c #5F0700",
":	c #5D0700",
"<	c #5C0700",
"[	c #630700",
"}	c #650800",
"|	c #770900",
"1	c #650700",
"2	c #6C0800",
"3	c #840A00",
"4	c #690800",
"5	c #700800",
"6	c #6D0800",
"7	c #6E0800",
"8	c #710800",
"9	c #740900",
"0	c #720800",
"a	c #730900",
"b	c #8C0A00",
"c	c #850A00",
"d	c #860A00",
"e	c #870A00",
"f	c #570600",
"g	c #750900",
"h	c #720900",
"i	c #7A0900",
"j	c #900B00",
"k	c #560600",
"l	c #760900",
"m	c #590700",
"n	c #8D0A00",
"o	c #580700",
"p	c #8F0B00",
"q	c #520600",
"r	c #8A0A00",
"s	c #530600",
"t	c #890A00",
"u	c #510600",
"v	c #5B0700",
"w	c #5A0700",
"x	c #880A00",
"y	c #550600",
"z	c #570700",
"A	c #4F0600",
"B	c #4E0600",
"C	c #4B0600",
"D	c #4A0600",
"E	c #4A0500",
"F	c #490500",
"G	c #4C0600",
"H	c #4D0600",
"I	c #500600",
"J	c #540600",
"                                                                ",
"                                                                ",
"                                                                ",
"                                                                ",
"                                                                ",
"        .+@#$##%&*$&&&%&=@-%&%=&*%&%#%$%%&##;&#&$$#$&@>,        ",
"        '+#&$$&&%$%&=&$$=)!%&$=&&=&=&=%&&$&&$&%&$##$##~~        ",
"      ~~*&{]^]/(]___]^]_^^]__]]]^]]]_(]]]__]:_(^<_^][}*%>,      ",
"      ~>$|{/](::_:<:::_:<((_(_(<::<:::<_<::(<::<(<((1}=*~~      ",
"    +23-.4>                                         }>>.*=[}    ",
"    563-.'4                                         {>>.-![}    ",
"    72874.                                            4~75^[    ",
"    +690..                                            ..a5/{    ",
"    0+99                                                95^{    ",
"    08;|                  bcdecc!!-3*<f                 )g/{    ",
"    gh&i                  jc-3e3ecd!*:k                 #)[,    ",
"    a8|l                  j##$@;&i@i;_m                 )|[{    ",
"    95;|                  n#&=&&#i@@;(o                 %@{{    ",
"    a8;;                  p$@@@i$@i;i_q                 $;//    ",
"    lai|                  r)i%i@@$##):k                 @l][    ",
"    98;l                  b)@@;@$#;i9(q                 ;g][    ",
"    98|)                  rgi@$@i#;il:s                 @;^/    ",
"    a0)g                  t)|$;;#@)l|<u                 ;g]]    ",
"    98)g                  r;$i;#;i|@):q                 @)//    ",
"    g8@|                  n|;ii@i;))lvu                 )l//    ",
"    l59l                  e))@i)@;)l|vs                 ig//    ",
"    l8)|      rccde%!dc3!!r;)#;l;@g|;w<c3!3%!c*dx:      |g^[    ",
"    95;l      t!ecc$=x***%r|););;ii;;wvd-!d&!c3cd^      ;|/[    ",
"    g8la      t)))i))ii;;;#);@;;;|;;;)|););))ll9&]      |9^/    ",
"    9aag      x)@;@;)ii;)|#))))))||llgl))gl||)la#_      |h//    ",
"    a5l9      x);l)|;;;|));|l|;g|lggg9l)|99lla9g&<      |9/^    ",
"    08ga      dg|g)|i)l;)|@)ll))gli;ll|lggl|99;)$(      il//    ",
"    g6gg      3;))ill);;)g;|l))|);;|glglgggg|l||%_      g8/_    ",
"    0708      dl|l)a9llgla))l|g|gl999g9ga999al|)@v      a9_/    ",
"    069a      !99a9aal9gg9g|ll)|gl999509aa9ha9ll@:      9a_^    ",
"    06)|      *a9l)0aaa0h5gag)9ggl|l8888h055099h#v      gg_^    ",
"    87gh      %89gl7589905aa9ggaaa9a900a+07+agg9#w      gg_(    ",
"    5658      vvvmmmwm<om:0a0a9a9a55aowwwmomm<mvwm      9h__    ",
"    +6+8      vm<mmmwmowmy958g99ah808omwoowmmoomwz      a8_]    ",
"    5'l8                  38a)l0gaa5aos                 |0_/    ",
"    5'a0                  d09|llagha9wA                 l5(_    ",
"    7'+7                  cala9aga89gwB                 aa:_    ",
"    5'gh                  38ag808h088mC                 la(:    ",
"    6285                  35g98+0a9a8fA                 l0:]    ",
"    6'h5                  38ag85a8555fC                 07::    ",
"    74aa                  c800055550amu                 a0:_    ",
"    '~77                  !+058+58785oA                 95(<    ",
"    .>55                  =6+9878+7+7oA                 07w<    ",
"    4,7+                  &+887277777oB                 57<:    ",
"    4/62                  DCDEFCDFFFGkH                 7.w<    ",
"    }^6'                  owoomomyokokI                 6~o<    ",
"    ^_6+                                                21fm    ",
"    (:,~2.                                            64./kf    ",
"    yq//>6a                                         7.2'vmqy    ",
"    fs[^~,7                                         766'wyJs    ",
"      kJhh7885850h5+88h888hhhah88ah0h++5857h+5+++7525+wwkf      ",
"      ys8567558+58h++8++5++85h788+8++5+88+76+577++2.62:wJJ      ",
"        qyJyJyJyyJkJyykJkkJfkkyssyJJyyfkyssysJyysyqssqqu        ",
"        ssysyqJqJyyssJJssqJykqsJsqJusqsJsqJJsqqusqqqsuqJ        ",
"                                                                ",
"                                                                ",
"                                                                ",
"                                                                ",
"                                                                "};
