/* XPM */
static char *ak47[] = {
/* columns rows colors chars-per-pixel */
"128 128 77 1 ",
"  c #010100",
". c #080704",
"X c #070804",
"o c #0A0A06",
"O c #0E0E0B",
"+ c #100F0A",
"@ c #0F100A",
"# c #12120D",
"$ c #18170F",
"% c #1B1A0E",
"& c #151511",
"* c #181711",
"= c #171812",
"- c #1D1C12",
"; c #1F1E18",
": c #201F13",
"> c #201F19",
", c #232215",
"< c #282717",
"1 c #2A2817",
"2 c #24241A",
"3 c #28261A",
"4 c #2D2B1C",
"5 c #302E1D",
"6 c #33311E",
"7 c #282720",
"8 c #2E2D20",
"9 c #312F21",
"0 c #353423",
"q c #393725",
"w c #3A3926",
"e c #373528",
"r c #393728",
"t c #3C3A2A",
"y c #403E2D",
"u c #413F31",
"i c #43412F",
"p c #444232",
"a c #484635",
"s c #4B4836",
"d c #464438",
"f c #484638",
"g c #4E4C3B",
"h c #514E3D",
"j c #53503F",
"k c #514F40",
"l c #565442",
"z c #595745",
"x c #5B5946",
"c c #595748",
"v c #5D5B4A",
"b c #615E4D",
"n c #625F50",
"m c #63614E",
"M c #656352",
"N c #696654",
"B c #6B6956",
"V c #6B6959",
"C c #716E5C",
"Z c #72715E",
"A c #767462",
"S c #797664",
"D c #7B7965",
"F c #7E7B68",
"G c #817E6A",
"H c #85836E",
"J c #88856F",
"K c #878671",
"L c #898772",
"P c #8B8974",
"I c #8F8C78",
"U c #908C76",
"Y c #918E79",
"T c #94917C",
"R c #989580",
"E c #9E9B86",
"W c None",
/* pixels */
"WWWWWWWWWWWKLLRGKKLLKKKPKLKKPKPKLKLLKLKLKLLKKLLLLLKKKKPKLLKKLKKKKKKPKPKKPKKKKKKPLLKLKLKKKKKKKKKPKKKKLLLLLLKKLLLLLLLLGWWWWWWWWWWW",
"WWWWWWWWGLILLKGGKKLKKKKKPKKKKKPKKLLLKLKKLLLLLLKKKKKKKKKPKKKPPKKKKKPKKKKPKPKKLKLLKKKPKKKKPKKPKKPKKPKKLLLLLLLLLLLLLLLLLLPGWWWWWWWW",
"WWWWWWWKPPPILGGRGRKKKKKKKKKKKKKKKKLLKKKKKKHLLKKKLKKKKKKKKKLLKKKKKKKKKKKKKKKKKKLLKKLLKKKKKKKKKKKKKKKKKKKKKKLLKKKKPKLLLLLLPWWWWWWW",
"WWWWWHLLGPLGLRRGFAVVVVVVVVVVVVVVVVVVVVVVVNVVVVVVVVVVVVVVVVVVVVVVVVVVVVVVVVVVVVVVVVVVVVVVVVVVVVVVVVVVVVVVVVVVVVZFLPLLLLLLPLKWWWWW",
"WWWWHKLLLLLPPDnu7&OO###OO#O#O#OOOOOOOOO#@@OOOOOOOOOOOOOOOOOOOOOOOOOO##OOO#O#OO&OOOOOOOOOOO#OO##OO###OOO&OOOOO#&7tnSLPLLLLLLHWWWW",
"WWWWKLLLKIPSk2OX                                       X                                                         O2kAPPLLLLLHWWW",
"WWWLLLPLPKv3o                                                                                                      o2cKPLLLLKWWW",
"WWLLLLLPFg&                                                                                                          +dFPLLLLLWW",
"WWLPLGIGuO     WWWWWWWWWW            WWWWWWWWWWWWWWWWWWWWWWWWWWWWWWWWWWWWWWWWWWWWWWWWWWWWWWWWWWWWWWWWWWWWWWWWWWWW     OtGPGPPPWW",
"WLPLLIGkO   WWWWWWWWWWWWW  O&&O&##O  WWWWWWWWWWWWWWWWWWWWWWWWWWWWWWWWWWWWWWWWWWWWWWWWWWWWWWWWWWWWWWWWWWWWWWWWWWWWWWW   ouGILPGIW",
"WLLPPIc&   WWWWWWWWWWWWW  =vAVVVBCN%  WWWWWWWW       WWWWWWWWWWWWWWW  WWWWWWWWWWWWWWWWWWWWWWWWWWWWWWWWWWWWWWWWWWWWWWW   +lIPLLKW",
"JLLLLC;  WWWWWWWWWWWWWWW OcIIIIIUTYyX       W   O&O  WWWWWWWWWWWWWW          WWWWWWWWWWWWWWWWWWWWWWWWWWWWWWWWWWWWWWWWW   =VLLLLK",
"KLGUPu. WWWWWWWWWWWWWWW .yHILLLLLUINt,&@OX.    OnAb%   WWWW           ,-#X..       WWWWWWWWWWWWWWWWWWWWWWWWWWWWWWWWWWWW  .tKILGL",
"LLPPC> WWWWWWWWWWWWWWW  >GYULLLPPHHJJDACmhi4>##0KRI0o        X&#O    .tNVli07-&OoX.       WWWWWWWWWWWWWWWWWWWWWWWWWWW     &VLLLP",
"LLPYko WWWWWWWWWWWWWW  OnYYYPPULZbZHLITTTTIJGSVCKIIMa01%#OOX#pAZm3.   O0DRIJGSVvji0<=#@X..       WWWWWWWWWWWWWWWWWWWW  XO .dIPLL",
"LLPG8 WWWWWWWWWWWW     .8yyahzbh4iZHJFvgzbNAFKKLIIPIULHSCNvlgZYTTN3##O .7AYILLIILILFAVvgy0<&#OX.        WWWWWWWWWWWWW .tN*.3GILL",
"LLLA-WWWWWWWWWWWW  O$#@o@#oooO#<sSLLJb:$$++$&=>9ihzmVZFKLYYTTYYYILGSCN5  3AILLJLLUPJPUPPPJDSBxhi0,##OX..      WWWWWWW olK; &ZPLL",
"KLIV=WWWWWWWWWWW  =xDZMlga,  @9NJLLLJNhsy4:%&###XXOOO&-25tdlvMNVCFJPTEA* .0GLLLLLJLJJLPLILLLILPPJSCBxgy6:#OOX  WWWWWW OlF= &MPLK",
"JLPN-WWWWWWWWWW  &vIUUPPTJ5.,vHILLJLLJLPPJGGSSSn#        .Xo@@@&#,5qalv-  osHLLJHLPJJJJLLLLLJLPPPJLPLPPJDVmxj4. WWWWW olF& OnPLK",
"JPPBWWWWWWWWWW  #lLIJPJUTj@XgUULLLLJLPPLLLJJKPYG: $<>-&&##OOOOooXoo..o+   #pHLLLHNbbZLLJLLLLLJLJJLLJPLPPJLPIYD9. WWWW .uM# OmPPK",
"LPPBWWW        odKIJJLLJLg# &kHUJJLULLLILLLLLLUK5#mPKFAAVVVNmvlhgay$     &hGPJLPUh*#yUUULLLLLLPPPPPPPPJLLJLPUUS3  WW   o#  ONPPL",
"JPUb$XX..  ..X@wGILJLLJLLHl* +tFTGlhlxNBCZSDGGUUq#aCCCCCCADFGHLLJUPhX   ;bLIPJLPLC* #lVCVZADDGJLIPUUPPPPPIIJLLUC;    .&O   OMLLL",
"JPPNy60q0qqq6wsZILLKLLLLLLLb; .9Zm*#######&&>1qy% X#&&&&&&&-::,<16q%  o5CYUPPPJJLUy. ++&O&&&-,14qwpghlxxmNCGKLUYN;   0AM#  @mLLL",
"JJPGLLPPPPPPPPUPJJLJLLLLLLIYC0o %%@061:#$###O++$#oOooooooooooo.      OyDUPPZiyNJPLN01:*&&#&@######$#oO@O##2mLLJUIcO XpRF&  @NLLJ",
"JPPJPUPUPUPPPPPJJLJLLLPLLJJPUGp+  1JLHDDDDZCvzxjllzzljjjjgggjj6X    $kGYIGn4oogUPPPGHGGSAZCCCBNMmmvto@,:::4NLLLLPS;o#sTS*. OMLLK",
"JJJJJJJJPJLLPJLLLLLLPLLLLLLLLPHh#.6IIKLIDmVHPPPJPPPPPPPUPPPUUYD5#+O,bPUGGGzq.ogTPGGJHPPLLLHHUUILPITN;sHFDDGHJLLLJFjpaBPDs0#OvPLL",
"JJPPJPLLPJPJPLJJLLLLJLJLLLJJLHLLv>0JLKLD0@=hKPPLJJPJLPPPPJPPPUPZMmNCLPh<4BUG-OgTUn0115uSLJLLLLLLLPUN-jTPLLILLLLLPPPUUUPLIYs&mLLL",
"JPJPPJPJJLLLLLPLLLJPLLPLLLPLLLLUIBMHJJLm@ X,DPHPLLLLJJPLLLLJJPJJLILJULq.+bEP>XkTUb:+##3AULJLLJLLLLIN;jTPIIPPLUPUUUIIJHDDDFp-bLLL",
"JPJPLLLLPJPLLLLLLLPLLLLLLJLLLLJLPPLJJLPZ>XowHLHHPJLLLLJLLLLLLJLJLLJLLIyoo0bl+XgYPZbzbbNGLKKLPPLLLLIV-pDAVVNbvljgait051,-==o@bLLH",
"JJJPLLJPLLJPLLLPLLLLLLLLLPLLJLJLJJLJLJLJMysSJLLPLLLLLLLLLPLJJHJJLJJLLJbyr$OO OhYUPUUUUIPLLPUULHDDCVgOX&&##&OOOoXX...       @bLLL",
"JPPJLLPLLLLLLLJLLJLLLPPLLLLLLLULJJHJLLLLLIPLPHJHJPLJLLLJJJLLHjiybLLLLLLUUr.  XlTYPPGGSCNnxhhuq5:*&#o                      X@ZJLL",
"JJJLLLLLLLLPJPPLLPLLLLJJPJLLLUYJCbZJLJLLLLLLJLPPPPLLHJJPLLLPD46,qIYILGCSGe.  .0layq1>$#+++O...                  WWWWWWWWWWWWLLPH",
"PPJJLLLLLLLLJPLLLLLLJLJLPJPPGClr*-vYULLLJLJLLJLPPLJJJHGGHHGGB6Ng%wyyw4*&&.    .X...            X     WWWWWWWWWWWWWWWWWWWWWWWKLLL",
"JJJPLLLLLLLLJPLLLLJLLPLULGns5#X  .tLTLLLLJLLHzyqw00xIBq4111466ZZy666q$                    WWWWWWWWWWWWWWWWWWWWWWWWWWWWWWWWWWHLLJ",
"LPJPLLJLLLPLPJLJLLLLPJSnu<#o      o9zSIYLJLLG3. . otTN#  ..#zBGHJJLIUsX        WWWWWWWWWWWWWWWWWWWWWWWWWWWWWWWWWWWWWWWWWWWWWLLLL",
"LJJPLPPPLLLLJJPPLPLSby:+.           O,sVJILPLg$.  XtTm+    ,HPJJJPPYYho WWWWWWWWWWWWWWWWWWWWWWWWWWWWWWWWWWWWWWWWWWWWWWWWWWWWHLLL",
"JLLLLLPJLLLLPUUJClr*O.    WWW     .+. X*rmGUILN9. .wIMO    1GLLJJJPPYpX WWWWWWWWWWWWWWWWWWWWWWWWWWWWWWWWWWWWWWWWWWWWWWWWWWWWJLLL",
"JJLLJLJJLLPIJCjq#O.   WWWWWWWW    0Vd*X .#9lSIYZ# .qYN+    4HLLLJPJUUpX WWWWWWWWWWWWWWWWWWWWWWWWWWWWWWWWWWWWWWWWWWWWWWWWWWWWJLLL",
"PJLLLJPPLFNg5$oX   WWWWWWWWWWW   XhYIZs,O .O>kLG*  tTNO    qLPLLLLPPIt. WWWWWWWWWWWWWWWWWWWWWWWWWWWWWWWWWWWWWWWWWWWWWWWWWWWWJLLJ",
"JJLLPJDMp<@o   XWWWWWWWWWWWWWW   +MIILPSz4+  *AD* .tTMO   .iUPLLLLPPIq. WWWWWWWWWWWWWWWWWWWWWWWWWWWWWWWWWWWWWWWWWWWWWWWWWWWWJPJL",
"JLJDby>#X    WWWWWWWWWWWWWWWWW   $ZPPJPJUHb% +ZD& .tTbO   .iIULLJPJPPwX WWWWWWWWWWWWWWWWWWWWWWWWWWWWWWWWWWWWWWWWWWWWWWWWWWWWLLLL",
"JLLb;.    WWWWWWWWWWWWWWWWWWW    6PPLPJLLUUa*2ZD2O#hTxO   .tPPLPLJPPUw. WWWWWWWWWWWWWWWWWWWWWWWWWWWWWWWWWWWWWWWWWWWWWWWWWWWWLLLL",
"JPUzO  WWWWWWWWWWWWWWWWWWWWWW   ogPPLLLLLKHZVZKGVNBGTx@   .yUPZBFJLPL0  WWWWWWWWWWWWWWWWWWWWWWWWWWWWWWWWWWWWWWWWWWWWWWWWWWWWJLPL",
"JJImWWWWWWWWWWWWWWWWWWWWWWWWW   OmPLLLLLLHHUYYIPITUYTvO   .pYUi,ZPLPJ6  WWWWWWWWWWWWWWWWWWWWWWWWWWWWWWWWWWWWWWWWWWWWWWWWWWWWJLLJ",
"PJPJWWWWWWWWWWWWWWWWWWWWWWWWW   #VLLLLPLLKGlfsauppaas4.   .tTU5@ZILLH6. WWWWWWWWWWWWWWWWWWWWWWWWWWWWWWWWWWWWWWWWWWWWWWWWWWWWLLLL",
"JPLJWWWWWWWWWWWWWWWWWWWWWWWWW   4JPLJPJLLLA>....X.XoX     .tTU5#CILLH6  WWWWWWWWWWWWWWWWWWWWWWWWWWWWWWWWWWWWWWWWWWWWWWWWWWWWHLJL",
"JLLLWWWWWWWWWWWWWWWWWWWWWWWW   .iPPLLJLJJHV&               wTU5@VIJLLq. WWWWWWWWWWWWWWWWWWWWWWWWWWWWWWWWWWWWWWWWWWWWWWWWWWWWHLLJ",
"JLLHWWWWWWWWWWWWWWWWWWWWWWWW   OvJLLLLLLLPN+     WWWWW    .0UYq#MIJII0. WWWWWWWWWWWWWWWWWWWWWWWWWWWWWWWWWWWWWWWWWWWWWWWWWWWWHLPL",
"PJLJWWWWWWWWWWWWWWWWWWWWWWWW   #CLLLLLLLLIb# WWWWWWWWWW    5LTi#zLLIIq. WWWWWWWWWWWWWWWWWWWWWWWWWWWWWWWWWWWWWWWWWWWWWWWWWWWWPLLL",
"JPLJWWWWWWWWWWWWWWWWWWWWWWWW   3HJJLLLLJLIlo WWWWWWWWWW    4JYh:lPLLYy. WWWWWWWWWWWWWWWWWWWWWWWWWWWWWWWWWWWWWWWWWWWWWWWWWWWWLLLL",
"JJPJWWWWWWWWWWWWWWWWWWWWWWW   .yLPJLJLLLLUa. WWWWWWWWWW    <GLCzBJLIYaX WWWWWWWWWWWWWWWWWWWWWWWWWWWWWWWWWWWWWWWWWWWWWWWWWWWWHLLJ",
"JPJJWWWWWWWWWWWWWWWWWWWWWWW   XzULLLPLLLPIq. WWWWWWWWWW    :DJHJJJJPYgX WWWWWWWWWWWWWWWWWWWWWWWWWWWWWWWWWWWWWWWWWWWWWWWWWWWWLLLJ",
"LLPHWWWWWWWWWWWWWWWWWWWWWWW   #VULLLJLLJIJ4  WWWWWWWWWW    -SLJLJLLPUjX WWWWWWWWWWWWWWWWWWWWWWWWWWWWWWWWWWWWWWWWWWWWWWWWWWWWJLLL",
"LLKHWWWWWWWWWWWWWWWWWWWWWWW   ,DPLJJLPPLLD: WWWWWWWWWWW    #CJLLLKLLIlO WWWWWWWWWWWWWWWWWWWWWWWWWWWWWWWWWWWWWWWWWWWWWWWWWWWWHLPJ",
"JLPHWWWWWWWWWWWWWWWWWWWWWW   .qLPHLLLLLJLV# WWWWWWWWWWW    #BILJLLLLPv@ WWWWWWWWWWWWWWWWWWWWWWWWWWWWWWWWWWWWWWWWWWWWWWWWWWWWHLJP",
"LLPLWWWWWWWWWWWWWWWWWWWWWW   XlPPLJLLLJPPM# WWWWWWWWWWW    ObPLKLLLLPm# WWWWWWWWWWWWWWWWWWWWWWWWWWWWWWWWWWWWWWWWWWWWWWWWWWWWHPJL",
"JLLJWWWWWWWWWWWWWWWWWWWWWWX  #BILLHPLLLPPx@XWWWWWWWWWWW    XhUILLLLLUV# WWWWWWWWWWWWWWWWWWWWWWWWWWWWWWWWWWWWWWWWWWWWWWWWWWWWPLPL",
"LLLHWWWWWWWWWWWWWWWWWWWWWW   :DLJLLLKPJPUjo WWWWWWWWWWW    .yIPJJLLLID* WWWWWWWWWWWWWWWWWWWWWWWWWWWWWWWWWWWWWWWWWWWWWWWWWWWWKLPH",
"LLLJWWWWWWWWWWWWWWWWWWWWW    0JIJLLLLLJUIp. WWWWWWWWWWW     5LPJLLLLLG1  WWWWWWWWWWWWWWWWWWWWWWWWWWWWWWWWWWWWWWWWWWWWWWWWWWWHPPH",
"JLPHWWWWWWWWWWWWWWWWWWWWW   XgILJJLLLPJPLw  WWWWWWWWWWW     -DLLLLLLPPq. WWWWWWWWWWWWWWWWWWWWWWWWWWWWWWWWWWWWWWWWWWWWWWWWWWWHJPJ",
"JLLHWWWWWWWWWWWWWWWWWWWWW   ONYIPLLLLPLLH<  WWWWWWWWWWW     #VIJJLLLPUp. WWWWWWWWWWWWWWWWWWWWWWWWWWWWWWWWWWWWWWWWWWWWWWWWWWWKPPH",
"LLLJWWWWWWWWWWWWWWWWWWWWW   OvLIPLLLPJLPS& WWWWWWWWWWWWW    +nILLLLLLLho WWWWWWWWWWWWWWWWWWWWWWWWWWWWWWWWWWWWWWWWWWWWWWWWWWWHPPK",
"JLPJWWWWWWWWWWWWWWWWWWWWW    &tBHUPKHJLPV# WWWWWWWWWWWWW    XgYPLLLLLIb+ WWWWWWWWWWWWWWWWWWWWWWWWWWWWWWWWWWWWWWWWWWWWWWWWWWWLJLL",
"JPJJWWWWWWWWWWWWWWWWWWWW      .#wBHUPLLUN# WWWWWWWWWWWWW    .0LLLLLJLIC# WWWWWWWWWWWWWWWWWWWWWWWWWWWWWWWWWWWWWWWWWWWWWWWWWWWLLLL",
"LLLJWWWWWWWWWWWWWWWWWWWW        .#tBHIYYzO WWWWWWWWWWWWW     :DJJLLLPPD: WWWWWWWWWWWWWWWWWWWWWWWWWWWWWWWWWWWWWWWWWWWWWWWWWWWLLLL",
"KLLHWWWWWWWWWWWWWWWWWWWWW         .#rNIRgX WWWWWWWWWWWWW     #VILLLLJPPq. WWWWWWWWWWWWWWWWWWWWWWWWWWWWWWWWWWWWWWWWWWWWWWWWWWKLLL",
"LLLJWWWWWWWWWWWWWWWWWWWWWWW         .#tVr. WWWWWWWWWWWWWW    olIPLJLPPUjX WWWWWWWWWWWWWWWWWWWWWWWWWWWWWWWWWWWWWWWWWWWWWWWWWWJLLL",
"LLLJWWWWWWWWWWWWWWWWWWWWWWWWW         .#.  WWWWWWWWWWWWWW    .qLPJLLJJPm# WWWWWWWWWWWWWWWWWWWWWWWWWWWWWWWWWWWWWWWWWWWWWWWWWWJLLL",
"LLLJWWWWWWWWWWWWWWWWWWWWWWWWWWW           WWWWWWWWWWWWWWW     ;SJLLJPJPD;  WWWWWWWWWWWWWWWWWWWWWWWWWWWWWWWWWWWWWWWWWWWWWWWWWJLLL",
"LLLJWWWWWWWWWWWWWWWWWWWWWWWWWWWWW        WWWWWWWWWWWWWWWW     #mPLLLLLJJq. WWWWWWWWWWWWWWWWWWWWWWWWWWWWWWWWWWWWWWWWWWWWWWWWWJLLL",
"LLLJWWWWWWWWWWWWWWWWWWWWWWWWWWWWWWW  WWWWWWWWWWWWWWWWWWWW     XpUPLLLJPPxO WWWWWWWWWWWWWWWWWWWWWWWWWWWWWWWWWWWWWWWWWWWWWWWWWHLLJ",
"LLLHWWWWWWWWWWWWWWWWWWWWWWWWWWWWWWWWWWWWWWWWWWWWWWWWWWWWWW     2HPLJJPJPD-  WWWWWWWWWWWWWWWWWWWWWWWWWWWWWWWWWWWWWWWWWWWWWWWWJLLL",
"LLLHWWWWWWWWWWWWWWWWWWWWWWWWWWWWWWWWWWWWWWWWWWWWWWWWWWWWWW     #VILPLGLPLu. WWWWWWWWWWWWWWWWWWWWWWWWWWWWWWWWWWWWWWWWWWWWWWWWLLPL",
"JLLJWWWWWWWWWWWWWWWWWWWWWWWWWWWWWWWWWWWWWWWWWWWWWWWWWWWWWW     XhIUGGGGLPM# WWWWWWWWWWWWWWWWWWWWWWWWWWWWWWWWWWWWWWWWWWWWWWWWLLLL",
"LPJJWWWWWWWWWWWWWWWWWWWWWWWWWWWWWWWWWWWWWWWWWWWWWWWWWWWWWWW     4GILb9bPIK9  WWWWWWWWWWWWWWWWWWWWWWWWWWWWWWWWWWWWWWWWWWWWWWWLLLL",
"LLPJWWWWWWWWWWWWWWWWWWWWWWWWWWWWWWWWWWWWWWWWWWWWWWWWWWWWWWW     $nUUl3zUIUzO WWWWWWWWWWWWWWWWWWWWWWWWWWWWWWWWWWWWWWWWWWWWWWWHLLL",
"LLLHWWWWWWWWWWWWWWWWWWWWWWWWWWWWWWWWWWWWWWWWWWWWWWWWWWWWWWW     .yPPGNSLLLD;  WWWWWWWWWWWWWWWWWWWWWWWWWWWWWWWWWWWWWWWWWWWWWWHLLL",
"LLLHWWWWWWWWWWWWWWWWWWWWWWWWWWWWWWWWWWWWWWWWWWWWWWWWWWWWWWWW     >ALLLJLLLIp. WWWWWWWWWWWWWWWWWWWWWWWWWWWWWWWWWWWWWWWWWWWWWWJLLL",
"LLLLWWWWWWWWWWWWWWWWWWWWWWWWWWWWWWWWWWWWWWWWWWWWWWWWWWWWWWWW     +xULLKKLLLt. WWWWWWWWWWWWWWWWWWWWWWWWWWWWWWWWWWWWWWWWWWWWWWJLLJ",
"LJPLWWWWWWWWWWWWWWWWWWWWWWWWWWWWWWWWWWWWWWWWWWWWWWWWWWWWWWWW     .9GPLLLLUN& WWWWWWWWWWWWWWWWWWWWWWWWWWWWWWWWWWWWWWWWWWWWWWWLLPK",
"LJPJWWWWWWWWWWWWWWWWWWWWWWWWWWWWWWWWWWWWWWWWWWWWWWWWWWWWWWWWW     &VILLLPF8  WWWWWWWWWWWWWWWWWWWWWWWWWWWWWWWWWWWWWWWWWWWWWWWLPLL",
"JPLLJWWWWWWWWWWWWWWWWWWWWWWWWWWWWWWWWWWWWWWWWWWWWWWWWWWWWWWWW     .pLLLIPkO WWWWWWWWWWWWWWWWWWWWWWWWWWWWWWWWWWWWWWWWWWWWWWWWLPLL",
"JPLLLWWWWWWWWWWWWWWWWWWWWWWWWWWWWWWWWWWWWWWWWWWWWWWWWWWWWWWWW      -ZPLUZ-  WWWWWWWWWWWWWWWWWWWWWWWWWWWWWWWWWWWWWWWWWWWWWWWLPPLL",
"JLJPPWWWWWWWWWWWWWWWWWWWWWWWWWWWWWWWWWWWWWWWWWWWWWWWWWWWWWWWWW X   XkIUH0  WWWWWWWWWWWWWWWWWWWWWWWWWWWWWWWWWWWWWWWWWWWWWWWWPLLLL",
"JPLPJJWWWWWWWWWWWWWWWWWWWWWWWWWWWWWWWWWWWWWWWWWWWWWWWWWWWWWWWWXX    >GYc@ WWWWWWWWWWWWWWWWWWWWWWWWWWWWWWWWWWWWWWWWWWWWWWWWJLPLLL",
"JPLLLJHWWWWWWWWWWWWWWWWWWWWWWWWWWWWWWWWWWWWWWWWWWWWWWWWWWWWWWWWo    +zG>  WWWWWWWWWWWWWWWWWWWWWWWWWWWWWWWWWWWWWWWWWWWWWWWWLPLLLL",
"JPLPPLJWWWWWWWWWWWWWWWWWWWWWWWWWWWWWWWWWWWWWWWWWWWWWWWWWWWWWWWW@     *9. WWWWWWWWWWWWWWWWWWWWWWWWWWWWWWWWWWWWWWWWWWWWWWWWLLPLLLJ",
"JLLLLPLJWWWWWWWWWWWWWWWWWWWWWWWWWWWWWWWWWWWWWWWWWWWWWWWWWWWWWWWW        WWWWWWWWWWWWWWWWWWWWWWWWWWWWWWWWWWWWWWWWWWWWWWWWLLLLLLLL",
"KKKKKPPPKWWWWWWWWWWWWWWWWWWWWWWWWWWWWWWWWWWWWWWWWWWWWWWWWWWWWWWW        WWWWWWWWWWWWWWWWWWWWWWWWWWWWWWWWWWWWWWWWWWWWWWWKLLPKKILL",
"KKKFKKPKLLWWWWWWWWWWWWWWWWWWWWWWWWWWWWWWWWWWWWWWWWWWWWWWWWWWWWWWW  WWWWWWWWWWWWWWWWWWWWWWWWWWWWWWWWWWWWWWWWWWWWWWWWWWWKLLLPKKKKL",
"KKKRPKKKLLLHWWWWWWWWWWWWWWWWWWWWWWWWWWWWWWWWWWWWWWWWWWWWWWWWWWWWWWWWWWWWWWWWWWWWWWWWWWWWWWWWWWWWWWWWWWWWWWWWWWWWWWWWPKLLLLLKLKLL",
"KLKFRKFRLLLLKJWWWWWWWWWWWWWWWWWWWWWWWWWWWWWWWWWWWWWWWWWWWWWWWWWWWWWWWWWWWWWWWWWWWWWWWWWWWWWWWWWWWWWWWWWWWWWWWWWWWWKKKPLLLLPLLLLK",
"KPKKPKKKPLLLLLJKKHWWWWWWWWWWWWKHJHHHKKKKHKKKJKHHHKHKHHHHTKKHKKKKJHKKHHKKJHKHHKKKJJKHHHKKLHKHHHKHHHWWWWWWWWWWWWKKKKLLILLLLKLLKKKP",
"KKKLKKRFKPLLLLLLKLKLLLPLPPPLPKLLLLPPKPKLLLKPLLLLPKKLKPPPUPLLLPKKLLPKPLPPPLLIKKLLLLIKKLPPLLPLLPPPPLLLLLLLPLLLKKKLLLLLLLLLLLLKPKKK",
"KKPLKPKPKPLLLLLLPLLPLLPKLLLLPKKKIKLLPKPKLLPLLLLLKPPKPKPKKPLPLLLLLKPKKPKKLKKKPKLPLKPKLLKKLLPPLKPKLLPKPKLLLLPLLLLLLLLLLLKPKLKPPKPK",
"KKLLKPPKKKLLLPLLKKPLLLKLPLLLPKKLLKLLKPKPKKKLLPLLKPKPKPKPKKPLPLLLPLKPKKPKLLPKKPLLLKKPKPKPLLLKKKKPKLPKKPLLLLLLLLLLLLLPLKKLKKKKKLKK",
"KLLLKKLPKKIKKKKKKKKKKKKKKKIKKKKILLLLLLLPKPKKKKKKKKKKKKKKLLLLKLLLLLLLLLLLLLLKLLLLKKKIKIKKIKKKKKKKPKLLLPKKKKKIKKKKKKKKKKKKKKIKKKIK",
"KLKLLLLLKKKKKIKKKIKKIKKIKKKKKKKKLLLLLLLLPKKPKKIKKKKKKIKKLLLLKLLLLLLLLLLLLLLPPLLLKKKKKKKKKKKKIPKPPKLLPKLLKKKKIKKKIKKKKKKIKKKKKKKK",
"KLLLPLLLIKIKKKKIIKIKKKKKKKKKIKKILLLLLLLLKKKKIKKIIKKKKKKILLLLLLLLLLKLLLLLPKKKKLLKKKKKKKIKKKKIKKPLKKLLKKKPIKIKKIKIKKKKKIIKIKKKIKKK",
"KLLLKLLLKKKKKIKKKKKKIKKIIKIKKKKKLLLLLLLLKKKIKKKKKKKIKKKKHLLLPKLLLLKKLKLLKPLLKLKKKPIKKKKKKKKKIKLLPKLLKPKKKKKKKKKKKIKKKKKKKKIKKKKK",
"KKKIKKKKKKKKKKKKKKKKKKKKKKKKKKIKLLKLLLLLKIPKKPKKKKKKIKKKLLLHLLLLLLLLLLKKKKPKLLLLPKPKKKKKIKKIKLLLPKKKPLPKKKKKKKKKIKKKKKKKKKKKKIKK",
"KKKKKIKKKKKIKKIKIKIKIKKKIKKKKKKKKLLLLLLKKKKPKKIIKKIKKKKKLLLPLKLLLLLLKKLLKLKKLLLLKPPKKKIKKKKKLLLLKKPPKLPKKIIKKIKKKKIKKKKIKKIKKKKK",
"KKKKKKIKKIIKKKIKKKKKKKKKKKKKKKKKKLLLLLLLKIKKKKKKKIIIKIKKLLLPLLLLPKLLKKLLLLLLLPLLLLKKKKKKKKKKLLLLKKKKKKKKKKIKKKKIIKIKIKIKKIIKKIKK",
"KKKIKIKKKKKKKIKKKKKKKIKKKKIKKKIKLJLLLLJPKKKKPKKKKKKKKKKKLLLLLLLLKKKLKLPLLLLLLLLLLLLKIKKIKKKILLLLKIPKKKIKKKKKKIKKKKKKKKKKKKKKKKKK",
"KKPKKKIKKKKKIKKKLLLLLLLLKKIKKKKIPHPLJPJJPPJLPJLJKKIKPKPPLLLLLLLLKPKLKKPKLLPLLLLLLLLLLLLLLLLLLKLLKLLLKKKKKIKKKKKIKKIKKKKKKIKKKKIK",
"KKKKKKKKIKKIKKKKLLLLPLLLKIKKKKKKPJJPLLLLJJPJJPJPKKKKKKKLLLLLLPLLPKLLKPPKLLKLLLLLLPLLLLLLLLLLKLLLKLLLKKKIKKKKKIKKKKKKKIKKKKIKKKKK",
"KKPKIKKKKKKKKKKKLLLLKLLPKIKKKIKILLLKLLLLPJLPLLJJIKKKKKKPLLLLLLLLLLLLKPKPPLLLLLLPLLLLLLLKLLLLKLLLIKLLKIIKIKKKKKIKIKKKKIKIKKKKKKKK",
"KPKKKKKIKKIKKIKILPLLKPLLKKKKKKKKPHPPJPJPHPLJPLPLKKKKKKPKLLLLLLLLLLLLPKPKLLLLLLLLLLLLKKLLLLLLLLLLLKKKKKKKKKKIKKKKKKIKKKKKKIKKKKKI",
"KKLLLLLLKIKKIKKKLLLLPLLLLKKKKKKKKLLJPLHPPPPHLLLLKPPKPKKPLLPKPKLLLLLLKLLLLLPLPLKPLLPKPKPKKLLLLLKKLLIKKKIKKKIKKKIKKKKIKKKIKIKKKKKK",
"LLKLPKLLKKKKKKKKLLLLLLLLLKIKKIKKPLLPHLPPPHPPLLLLPKKKKKPKLLKKPKLLLLPLLLLLLLLLKLLKLLKKKKKKKKLLKLKKKKKKKIKKKIKKKIKKIKKKKKKKKKKKIKKK",
"LLLKKKLLKKKKKKKILLLLLLLLLLKIKKIKPKLPPLPHKPKPJPLLKPKPPPKPLPPPKKPLLPLLLLLLLLLLLLLPLLLLLKPPKPIKKLLIKKKKKKIKKKKKKKKKKKKKKIIKKKIKKKKK",
"VPLLKKLLIKKIKKKKLLLPLLLLLLKKKKIKJPLHPLPHPKPHPLLPPKPKKKPKLPPKPKKKLLPLLLLLLLLPLLKPKPPLLPLKKKKKLLLLKIKIKKKKKKKIKKIKKKIKKKKKKIKKKIKZ",
"dKKKKKKIPKKPLLLLKPKLPKLLLLPLLLPLLLLJPLPLLLJPJPLJLPLLLLPJLLLPLLLPLPLLLLLPLLLLPLLLPLLLJPLPLLJPKKKLKKKKKKKKKIKKKIKKKKKKKIKKKKIKKKIc",
";AIKKKKKKPKKKKLJPKLLLLLLLLLLLLLLLLLLLPLLLLLLPLLLLJLLLLLPLLLPLPLJLLLLLLLLLLLLKLLLLLLLLLLLJLJLIKKLKIKKKIKIKKKIKKKIKIKKKKKKIKKKKKAd",
"OcIKKKKKKLLLLLLLLLLLLLLLLLLLLLLLPLLLLLLLLLJPLLLLPJLLLLLLLLLJLLLLLLLLLLLLPLLLLLLLPJLLJLPLKKPKLLLLIKIKIKKKKKKKKKKKKKKIIKIKKIKKIIn7",
"X7KIKIKFLLLLLLLLLLLPPLLLLLLLLLLPPJLLLLJPLLLPLLLLLPLPPJLPPJLLPJLLPLLLPLLLLLLPLLLLLLLPPJLJPKPKLLPLKKKKKKKKKIKIKKKIIKKKKKKKKKIKKI7&",
"WOvRFKKRLLRHLLLJLLLLLLLPPLLLLLLLPLLLLLLLLLLLLLJPLLLLLLLJPLLLJPPLLLLLLLLLLLPLLLPLPJPJLLLLKKLLLLKLKKKKKKKKKIKKRFKKKKKKKIKKKKKKIn&W",
"WX;CRKKKLLKHLLLLLLLLLLLLLLLLPLLLLLLLJLLLJLLLJPPLLLLLLPLLLLLLLLLLLLLPLLLLLLLLLLLLLLLLLLLLPKPLLLKPIKIKKKIKKKKKKKKKIKKKKKKKKKKIA7OW",
"W  eFRKFKKKKLLLLLPLLLLLLLLLLLPLLLLLLPPLLPLJLPPLLLLPJLLLLLLJPPLLLLLLLLLPLPHLLLLLPLLPJJPLLKLLLLKPKKKKKKIIKKIIKKKKKKIKKKKKIKIRFuOOW",
"WW XtFRRKKKKLJLLLLKLLLLLLLLLLLLLLLLLLLPLLPPLLJLLLLLPLLLLLPLLJLLLLLLLLLLLLPLLLLLLLLLPPJLLKLLLLPKKKIKKKKKKKKKKKFRKKKKIKIKKIIFdOOWW",
"WW  OeAIPLKLLLLLJJLLPJLLLLPJPLJPLLLJPLLLPPPJLLLLJPUJPLLLLLLJPLLLJJLLLLLLLLLLLLPLLLLLLLJPKKRKPKKKIKKKKIKKKPKKKRFKRGGRLLKPIAtO  WW",
"WWW  X7nKULLLLJLJJLLJJLLJPJPJPPJLLLLLLPJLJJPJLLLPJJJJPPJLLLLLLPJPLLLJLLLLLLLLLLLLLLLJJPJKKFKPPKKKKKKKKKKPKPKKFRKGRGGLLIPV7X  WWW",
"WWWW   &tNKIILLLPPLLPLLLLLLJPHLLJLLLJLJLLLPJPLLLPPPPLLJLJLLLJLJLJPJLPLLLLLLHLLLLJLLLPLLPKKKKKKLKKKKIKKKKKKKKKKRKGRPPLGVt&XX WWWW",
"WWWWW    *tzVASGDDDDDDDDDDDDDDDDDDDDDDDDDDDZDDDDZDZFDDDDDDDDDDDDDDDDDDDDDDDDDDDDDDDDDDDZAAZZZZCAAZAAAAZAZZZAZZVAAAZck7&XOXXWWWWW",
"WWWWWW    .o#*,<:-%,--%----:,%:%--------%,%%------:-%%:%--------%,%%--------<%%%-----;;;==&&&&&&&-;;>&&&&&&&&&&;&;&OX     WWWWWW",
"WWWWWWW                     @oXX                    X                       @@Xo                    OOXO                 WWWWWWW",
"WWWWWWWWW                     XX                                              XX                      XX               WWWWWWWWW",
"WWWWWWWWWWW                                                                    X                     XXX            WWWWWWWWWWWW"
};
