/* XPM */
static char *bat[] = {
/* columns rows colors chars-per-pixel */
"128 128 66 1 ",
"  c #000000",
". c #080705",
"X c #070805",
"o c #0A0A06",
"O c #0E0F0C",
"+ c #100F0A",
"@ c #13120D",
"# c #19180E",
"$ c #151512",
"% c #181711",
"& c #1B1A14",
"* c #1F1E18",
"= c #201F17",
"- c #201F19",
"; c #222217",
": c #25241A",
"> c #28271B",
", c #2C2B1E",
"< c #312F1F",
"1 c #2D2C20",
"2 c #312F20",
"3 c #343223",
"4 c #383726",
"5 c #373528",
"6 c #393728",
"7 c #3C3A2B",
"8 c #403F2F",
"9 c #413F31",
"0 c #454334",
"q c #484635",
"w c #4D4A37",
"e c #464438",
"r c #494739",
"t c #4D4B3C",
"y c #504E3F",
"u c #52503F",
"i c #555343",
"p c #595746",
"a c #5B5947",
"s c #59574B",
"d c #5D5B4B",
"f c #615E4D",
"g c #625F50",
"h c #62604E",
"j c #646252",
"k c #696655",
"l c #6C6956",
"z c #6A6858",
"x c #716E5C",
"c c #71705F",
"v c #767361",
"b c #797663",
"n c #7C7A66",
"m c #7E7C69",
"M c #817E6A",
"N c #85846E",
"B c #88846F",
"V c #878672",
"C c #888772",
"Z c #8B8973",
"A c #8F8C78",
"S c #918D79",
"D c #95927D",
"F c #979480",
"G c #999681",
"H c None",
/* pixels */
"HHHHHHHHHHHCCCZCCMZZVVVVVCCCVCCBVVVCCCCVCVVVCCCCCBVCCVCCVVVCCVVCCCBCVVVCCCCCCVVCVVVVCCCCVCVCVVVVCCCCCCCVCCCBCCCBCBCBCHHHHHHHHHHH",
"HHHHHHHHMZACCCZMCZCCCCVCCCCVCCCCVCCCCCCVCCBVCCCCCCVVCCCCCCCVCCCCCVCCCCCCCCCVCCCCCCCCCCCVCCCCCCCCCCCCCCCCCCVCCCCCCCCCZMCBHHHHHHHH",
"HHHHHHHVMZCCCCCFCCMACVCCVVVVVVCCVVCCBVVVVVVCVVCCVVVVVVVVCVCCVVVVNVCCVVVCCVVVVVCVCVVCVVVVCNCCVVVCVVVVCNVVVVVVVCCCCCCCCZCCCHHHHHHH",
"HHHHHNCCZZZCCCZMMvzzzzzzzzzzzzzzzzzzzzzzzzzzzzzzzzzzzzzzzzzzzzzzzzzzzzzzzzzzzzzzzzzzzzzzzzzzzzzzzzzzzzzzzzzzzzcmCAZZCZCCCBBHHHHH",
"HHHHNBCCCCCCZnd91$OOOOOOOOOOOOOOOOOOOOOO+OOOOOOOOOOOOOOOOOOOOOOOOOOOOOOOOOOOOOOOOOOOOOOOOOOOOOOOOOOOOOOOOOOOO@@>8abZACCCCCBBHHHH",
"HHHHVCCZCZAbu:O.                                                                                                 O;ycCZCCCCCBHHH",
"HHHZCCZVCVf>o                                                                                                      o>aMZCCCCVHHH",
"HHMCZCCZMt@                                                                                                          @rMZCCCCBHH",
"HHCZCCCM9O     HHHHHHHHHHHHHHHHHHHHHHHHHHHHHHHHHHHHHHHHHHHHHHHHHHHHHHHHHHHHHHHHHHHHHHHHHHHHHHHHHHHHHHHHHHHHHHHHHH     O7MCCCCMHH",
"HCZZCAMiO       HHHHHHHHHHHHHHHHHHHHHHHHHHHHHHHHHHHHHHHHHHHHHHHHHHHHHHHHHHHHHHHHHHHHHHHHHHHHHHHHHHHHHHHHHHHHHHHHHHHH   o9MACCCZH",
"HCCZZAs@     oo  HHHHHHHHHHHHHHHHHHHHHHHHHHHHHHHHHHHHHHHHHHHHHHHHHHHHHHHHHHHHHHHHHHHHHHHHHHHHHHHHHHHHHHHHHHHHHHHHHHHHH  +iACCCCH",
"BCZCCx*    X>ato HHHHHHHHHHHHHHHHHHHHHHHHHHHHHHHHHHHHHHHHHHHHHHHHHHHHHHHHHHHHHHHHHHHHHHHHHHHHHHHHHHHHHHHHHHHHHHHHHHHHHH  &zCCCCC",
"BCZZM9.   .7nDN=  HHHHHHHHHHHHHHHHHHHHHHHHHHHHHHHHHHHHHHHHHHHHHHHHHHHHHHHHHHHHHHHHHHHHHHHHHHHHHHHHHHHHHHHHHHHHHHHHHHHHHH .9MZCMZ",
"CCZZv=   .4NDSB<  HHHHHHHHHHHHHHHHHHHHHHHHHHHHHHHHHHHHHHHHHHHHHHHHHHHHHHHHHHHHHHHHHHHHHHHHHHHHHHHHHHHHHHHHHHHHHHHHHHHHHHH +zZZCZ",
"BCZSy.   &nDSBBf@  HHHHHHHHHHHHHHHHHHHHHHHHHHHHHHHHHHHHHHHHHHHHHHHHHHHHHHHHHHHHHHHHHHHHHHHHHHHHHHHHHHHHHHHHHHHHHHHHHHHHHHH.qZACZ",
"CCZM1.H  5SSlwcZy$  HHHHHHHHHHHHHHHHHHHHHHHHHHHHHHHHHHHHHHHHHHHHHHHHHHHHHHHHHHHHHHHHHHHHHHHHHHHHHHHHHHHHHHHHHHHHHHHHHHHHHH.>MZCB",
"BCCv&H   +07$&zSAa&.  HHHHHHHHHHHHHHHHHHHHHHHHHHHHHHHHHHHHHHHHHHHHHHHHHHHHHHHHHHHHHHHHHHHHHHHHHHHHHHHHHHHHHHHHHHHHHHHHHHHHH@xCCC",
"BCAk$H    XX  &aADx6@   HHHHHHHHHHHHHHHHHHHHHHHHHHHHHHHHHHHHHHHHHHHHHHHHHHHHHHHHHHHHHHHHHHHHHHHHHHHHHHHHHHHHHHHHHHHHHHHHHHH@jACV",
"CZZk&H         @7xSCf>o   HHHHHHHHHHHHHHHHHHHHHHHHHHHHHHHHHHHHHHHHHHHHHHHHHHHHHHHHHHHHHHHHHHHHHHHHHHHHHHHHHHHHHHHHHHHHHHHHHHjZCC",
"BZAkHH          .&rnDNi;o   HHHHHHHHHHHHHHHHHHHHHHHHHHHHHHHHHHHHHHHHHHHHHHHHHHHHHHHHHHHHHHHHHHHHHHHHHHHHHHHHHHHHHHHHHHHHHHHHkZCB",
"BZZlHH            o;dADmt&X  HHHHHHHHHHHHHHHHHHHHHHHHHHHHHHHHHHHHHHHHHHHHHHHHHHHHHHHHHHHHHHHHHHHHHHHHHHHHHHHHHHHHHHHHHHHHHHHkZZB",
"BZZxHH              @7vDSv0%.  HHHHHHHHHHHHHHHHHHHHHHHHHHHHHHHHHHHHHHHHHHHHHHHHHHHHHHHHHHHHHHHHHHHHHHHHHHHHHHHHHHHHHHHHHHHHHlZZB",
"BZZxHHH              .&pCGAl6@   HHHHHHHHHHHHHHHHHHHHHHHHHHHHHHHHHHHHHHHHHHHHHHHHHHHHHHHHHHHHHHHHHHHHHHHHHHHHHHHHHHHHHHHHHHHcZZB",
"BZBMHHHHHHHHHH         O5lSDCh2@   HHHHHHHHHHHHHHHHHHHHHHHHHHHHHHHHHHHHHHHHHHHHHHHHHHHHHHHHHHHHHHHHHHHHHHHHHHHHHHHHHHHHHHHHHNBZB",
"BZBBHHHHHHHHHHH          &tNSSMa>o   HHHHHHHHHHHHHHHHHHHHHHHHHHHHHHHHHHHHHHHHHHHHHHHHHHHHHHHHHHHHHHHHHHHHHHHHHHHHHHHHHHHHHHHBCCV",
"BZBBHHHHHHHHHHHHH         o3lSSAbi=o   HHHHHHHHHHHHHHHHHHHHHHHHHHHHHHHHHHHHHHHHHHHHHHHHHHHHHHHHHHHHHHHHHHHHHHHHHHHHHHHHHHHHHVVBV",
"ZBZBHHHHHHHHHHHHHH          &aNSSAvr&X  HHHHHHHHHHHHHHHHHHHHHHHHHHHHHHHHHHHHHHHHHHHHHHHHHHHHHHHHHHHHHHHHHHHHHHHHHHHHHHHHHHHHVZZV",
"ZZZBHHHHHHHHHHHHHHH          @7cSAACl0$.  HHHHHHHHHHHHHHHHHHHHHHHHHHHHHHHHHHHHHHHHHHHHHHHHHHHHHHHHHHHHHHHHHHHHHHHHHHHHHHHHHHBBZV",
"CCCBHHHHHHHHHHHHHHHHH         .=fBSSACl6@   HHHHHHHHHHHHHHHHHHHHHHHHHHHHHHHHHHHHHHHHHHHHHHHHHHHHHHHHHHHHHHHHHHHHHHHHHHHHHHHHBVCV",
"VCCBHHHHHHHHHHHHHHHHHH          @0vSAAABf2+.  HHHHHHHHHHHHHHHHHHHHHHHHHHHHHHHHHHHHHHHHHHHHHHHHHHHHHHHHHHHHHHHHHHHHHHHHHHHHHHBCZV",
"BCCBHHHHHHHHHHHHHHHHHHH          .=fBZAZZNd<@   HHHHHHHHHHHHHHHHHHHHHHHHHHHHHHHHHHHHHHHHHHHHHHHHHHHHHHHHHHHHHHHHHHHHHHHHHHHHNBCN",
"BCCBHHHHHHHHHHHHHHHHHHHH           +8lCZZZZNa<@   HHHHHHHHHHHHHHHHHHHHHHHHHHHHHHHHHHHHHHHHHHHHHHHHHHHHHHHHHHHHHHHHHHHHHHHHHHVCZC",
"CCZBHHHHHHHHHHHHHHHHHHHHHHX         .&tnSACZABf2@.   HHHHHHHHHHHHHHHHHHHHHHHHHHHHHHHHHHHHHHHHHHHHHHHHHHHHHHHHHHHHHHHHHHHHHHHCCZV",
"BZCBHHHHHHHHHHHHHHHHHHHHHHH           o>dNAZCZABg6#.   HHHHHHHHHHHHHHHHHHHHHHHHHHHHHHHHHHHHHHHHHHHHHHHHHHHHHHHHHHHHHHHHHHHHHVCZN",
"ZBVVHHHHHHHHHHHHHHHHHHHHHHHH            @4zCZZCCZBl9&.   HHHHHHHHHHHHHHHHHHHHHHHHHHHHHHHHHHHHHHHHHHHHHHHHHHHHHHHHHHHHHHHHHHHBCZB",
"BZBNHHHHHHHHHHHHHHHHHHHHHHHHHH           .&rcSZBZZSClt&X  HHHHHHHHHHHHHHHHHHHHHHHHHHHHHHHHHHHHHHHHHHHHHHHHHHHHHHHHHHHHHHHHHHBCZB",
"CZBVHHHHHHHHHHHHHHHHHHHHHHHHHHH            o:pMZZBZZAAvq%.  HHHHHHHHHHHHHHHHHHHHHHHHHHHHHHHHHHHHHHHHHHHHHHHHHHHHHHHHHHHHHHHHNCBB",
"CBVNHHHHHHHHHHHHHHHHHHHHHHHHHHHH            .+<kBAZBBZSCz6@   HHHHHHHHHHHHHHHHHHHHHHHHHHHHHHHHHHHHHHHHHHHHHHHHHHHHHHHHHHHHHHCCZB",
"BZVVHHHHHHHHHHHHHHHHHHHHHHHHHHHHHH            .#8xCCCBZZABh,o  HHHHHHHHHHHHHHHHHHHHHHHHHHHHHHHHHHHHHHHHHHHHHHHHHHHHHHHHHHHHHNVZV",
"ZCBVHHHHHHHHHHHHHHHHHHHHHHHHHHHHHHH             .&ybAZBBCZSNi&X  HHHHHHHHHHHHHHHHHHHHHHHHHHHHHHHHHHHHHHHHHHHHHHHHHHHHHHHHHHHNZZV",
"ZZVBHHHHHHHHHHHHHHHHHHHHHHHHHHHHHHHH              o>hVAZZBZZAc0@   HHHHHHHHHHHHHHHHHHHHHHHHHHHHHHHHHHHHHHHHHHHHHHHHHHHHHHHHHZCCC",
"VBVBHHHHHHHHHHHHHHHHHHHHHHHHHHHHHHHHH               @0vAZZBZZSCf;o  HHHHHHHHHHHHHHHHHHHHHHHHHHHHHHHHHHHHHHHHHHHHHHHHHHHHHHHHCCCC",
"BZCVHHHHHHHHHHHHHHHHHHHHHHHHHHHHHHHHHHH              o>jBZBBBZASvq%   HHHHHHHHHHHHHHHHHHHHHHHHHHHHHHHHHHHHHHHHHHHHHHHHHHHHHHNZZB",
"BBCVHHHHHHHHHHHHHHHHHHHHHHHHHHHHHHHHHHHH               @0MSZCBBZCCk2+   HHHHHHHHHHHHHHHHHHHHHHHHHHHHHHHHHHHHHHHHHHHHHHHHHHHHNBZZ",
"ZCCNHHHHHHHHHHHHHHHHHHHHHHHHHHHHHHHHHHHHH               o<xSZBZCZZZNa*.  HHHHHHHHHHHHHHHHHHHHHHHHHHHHHHHHHHHHHHHHHHHHHHHHHHHBCZB",
"BZCVHHHHHHHHHHHHHHHHHHHHHHHHHHHHHHHHHHHHHH               .=fCACBBCBAAv0&.  HHHHHHHHHHHHHHHHHHHHHHHHHHHHHHHHHHHHHHHHHHHHHHHHHNCZV",
"BCCNHHHHHHHHHHHHHHHHHHHHHHHHHHHHHHHHHHHHHHH                @qvAABCCBZSCl9$.  HHHHHHHHHHHHHHHHHHHHHHHHHHHHHHHHHHHHHHHHHHHHHHHNVZV",
"ZZCNHHHHHHHHHHHHHHHHHHHHHHHHHHHHHHHHHHHHHHHH                o>kCABBCBCAACk4@   HHHHHHHHHHHHHHHHHHHHHHHHHHHHHHHHHHHHHHHHHHHHHNZZN",
"BZCNHHHHHHHHHHHHHHHHHHHHHHHHHHHHHHHHHHHHHHHHHH                &tMZZBCBCZZZBh<o   HHHHHHHHHHHHHHHHHHHHHHHHHHHHHHHHHHHHHHHHHHHZCCC",
"BCZNHHHHHHHHHHHHHHHHHHHHHHHHHHHHHHHHHHHHHHHHHHH                o<kAZCBBCBZZSNa>o   HHHHHHHHHHHHHHHHHHHHHHHHHHHHHHHHHHHHHHHHHCCZB",
"CBZNHHHHHHHHHHHHHHHHHHHHHHHHHHHHHHHHHHHHHHHHHHHH                 &iNAZBCZBZZZSby*X  HHHHHHHHHHHHHHHHHHHHHHHHHHHHHHHHHHHHHHHHNZZB",
"BZZNHHHHHHHHHHHHHHHHHHHHHHHHHHHHHHHHHHHHHHHHHHHHH                 +5lZACBZBBBZZZv0%.  HHHHHHHHHHHHHHHHHHHHHHHHHHHHHHHHHHHHHHNZZN",
"CCCNHHHHHHHHHHHHHHHHHHHHHHHHHHHHHHHHHHHHHHHHHHHHHHH                .&dCCBCZBCBZZSZl0@.  HHHHHHHHHHHHHHHHHHHHHHHHHHHHHHHHHHHHNCZN",
"BCZNHHHHHHHHHHHHHHHHHHHHHHHHHHHHHHHHHHHHHHHHHHHHHHHH                 @qnAZBCZBZBZZSBk6@.  HHHHHHHHHHHHHHHHHHHHHHHHHHHHHHHHHHNZZZ",
"CBCVHHHHHHHHHHHHHHHHHHHHHHHHHHHHHHHHHHHHHHHHHHHHHHHHHH                o,kZZBBCBZZBZZANh<+   HHHHHHHHHHHHHHHHHHHHHHHHHHHHHHHHNZVN",
"CZZCHHHHHHHHHHHHHHHHHHHHHHHHHHHHHHHHHHHHHHHHHHHHHHHHHHH                .&tmSZCBBCBCBCCZNa>o   HHHHHHHHHHHHHHHHHHHHHHHHHHHHHHNNZZ",
"BBZNHHHHHHHHHHHHHHHHHHHHHHHHHHHHHHHHHHHHHHHHHHHHHHHHHHHH                 o>hCZCCCCBBBZZSSvt*o  HHHHHHHHHHHHHHHHHHHHHHHHHHHHHZCZB",
"ZCZNHHHHHHHHHHHHHHHHHHHHHHHHHHHHHHHHHHHHHHHHHHHHHHHHHHHHHH                 $qvAZBCZCZBBBZZAv0%X  HHHHHHHHHHHHHHHHHHHHHHHHHHHCCZV",
"BZCNHHHHHHHHHHHHHHHHHHHHHHHHHHHHHHHHHHHHHHHHHHHHHHHHHHHHHHH                 o>hBAZCBZBZZBBZSCl0@   HHHHHHHHHHHHHHHHHHHHHHHHHNNZV",
"BCCNHHHHHHHHHHHHHHHHHHHHHHHHHHHHHHHHHHHHHHHHHHHHHHHHHHHHHHHHH                 @0vSZCBZBCBZCCZABh<+   HHHHHHHHHHHHHHHHHHHHHHHNZZV",
"ZCBNHHHHHHHHHHHHHHHHHHHHHHHHHHHHHHHHHHHHHHHHHHHHHHHHHHHHHHHHHH                 o>hCSZBBBCBZBBZZSNu*.   HHHHHHHHHHHHHHHHHHHHHBZZN",
"BCZBHHHHHHHHHHHHHHHHHHHHHHHHHHHHHHHHHHHHHHHHHHHHHHHHHHHHHHHHHHH                  @0cSZZBBZZZZCBZZScq&.   HHHHHHHHHHHHHHHHHHHNZZZ",
"BBZBHHHHHHHHHHHHHHHHHHHHHHHHHHHHHHHHHHHHHHHHHHHHHHHHHHHHHHHHHHHH                  X;aNSZVZBZZBBZBZSCz0$.  HHHHHHHHHHHHHHHHHHNZVV",
"ZZBBHHHHHHHHHHHHHHHHHHHHHHHHHHHHHHHHHHHHHHHHHHHHHHHHHHHHHHHHHHHHHH                  +7cSZBVBBCZBBZCCABk5@X XHHHHHHHHHHHHHHHHNZZN",
"CCCNHHHHHHHHHHHHHHHHHHHHHHHHHHHHHHHHHHHHHHHHHHHHHHHHHHHHHHHHHHHHHHH                  .*pMACCCCCCBZBCCZZBf<@   HHHHHHHHHHHHHHCCCB",
"VCCBHHHHHHHHHHHHHHHHHHHHHHHHHHHHHHHHHHHHHHHHHHHHHHHHHHHHHHHHHHHHHHHH                   @6xZABBBZBZZBBCCZANf<@   HHHHHHHHHHHHNCCC",
"BCCBHHHHHHHHHHHHHHHHHHHHHHHHHHHHHHHHHHHHHHHHHHHHHHHHHHHHHHHHHHHHHHHHHH                  .&iMACCCZCBZZCBCZZZNf<o  HHHHHHHHHHHVCBC",
"BCCBHHHHHHHHHHHHHHHHHHHHHHHHHHHHHHHHHHHHHHHHHHHHHHHHHHHHHHHHHHHHHHHHHHH                   +3lCZBBBnujBBCBBCZANa&. HHHHHHHHHHBCZB",
"CZZVHHHHHHHHHHHHHHHHHHHHHHHHHHHHHHHHHHHHHHHHHHHHHHHHHHHHHHHHHHHHHHHHHHHH                    &yMZZCMr,8xZAVVCZZAc2. HHHHHHHHHBCBC",
"ZBVNHHHHHHHHHHHHHHHHHHHHHHHHHHHHHHHHHHHHHHHHHHHHHHHHHHHHHHHHHHHHHHHHHHHHH                    O3zZZZMf>-imCCBBZZSn3. HHHHHHHHBCZB",
"BZZNHHHHHHHHHHHHHHHHHHHHHHHHHHHHHHHHHHHHHHHHHHHHHHHHHHHHHHHHHHHHHHHHHHHHHHH                    &yMZSZx0->jZBBBBZSv>  HHHHHHHNZZC",
"ZBVNHHHHHHHHHHHHHHHHHHHHHHHHHHHHHHHHHHHHHHHHHHHHHHHHHHHHHHHHHHHHHHHHHHHHHHHH                    o,kCZACj>;uNBBBBZAf@ HHHHHHHNCCC",
"BZBNHHHHHHHHHHHHHHHHHHHHHHHHHHHHHHHHHHHHHHHHHHHHHHHHHHHHHHHHHHHHHHHHHHHHHHHHH                    .@0xAASn6&8MZBBBZB4. HHHHHHCCBC",
"VZZBHHHHHHHHHHHHHHHHHHHHHHHHHHHHHHHHHHHHHHHHHHHHHHHHHHHHHHHHHHHHHHHHHHHHHHHHHHH                    .&tvSFN0#<MSBBCAhO HHHHHHCCZC",
"BCVNHHHHHHHHHHHHHHHHHHHHHHHHHHHHHHHHHHHHHHHHHHHHHHHHHHHHHHHHHHHHHHHHHHHHHHHHHHHH                     o;aBSN0#3MCZBZv& HHHHHHNCCC",
"ZZZNHHHHHHHHHHHHHHHHHHHHHHHHHHHHHHHHHHHHHHHHHHHHHHHHHHHHHHHHHHHHHHHHHHHHHHHHHHHHH                      @8MSM6#0CZCZB, HHHHHHNZCC",
"VZBNHHHHHHHHHHHHHHHHHHHHHHHHHHHHHHHHHHHHHHHHHHHHHHHHHHHHHHHHHHHHHHHHHHHHHHHHHHHHHH                      +ySAv<3NBCZZ3. HHHHHVZZN",
"BVZVHHHHHHHHHHHHHHHHHHHHHHHHHHHHHHHHHHHHHHHHHHHHHHHHHHHHHHHHHHHHHHHHHHHHHHHHHHHHHHHH                     =MZVvcBCBZA4X HHHHHNBCZ",
"BZZVHHHHHHHHHHHHHHHHHHHHHHHHHHHHHHHHHHHHHHHHHHHHHHHHHHHHHHHHHHHHHHHHHHHHHHHHHHHHHHHHH                    +hACBBBCCZC< XHHHHHBCCB",
"BZZBHHHHHHHHHHHHHHHHHHHHHHHHHHHHHHHHHHHHHHHHHHHHHHHHHHHHHHHHHHHHHHHHHHHHHHHHHHHHHHHHHH                   .6CCCCCCBCb= HHHHHHBCZC",
"ZVZNHHHHHHHHHHHHHHHHHHHHHHHHHHHHHHHHHHHHHHHHHHHHHHHHHHHHHHHHHHHHHHHHHHHHHHHHHHHHHHHHHHHH                  @kAVVCCZZg+ HHHHHHCCCC",
"BZZNBHHHHHHHHHHHHHHHHHHHHHHHHHHHHHHHHHHHHHHHHHHHHHHHHHHHHHHHHHHHHHHHHHHHHHHHHHHHHHHHHHHHH                 .5MZCCBZZ8. HHHHHHCZZB",
"NZZBVHHHHHHHHHHHHHHHHHHHHHHHHHHHHHHHHHHHHHHHHHHHHHHHHHHHHHHHHHHHHHHHHHHHHHHHHHHHHHHHHHHHHH                 +pZAVCSc=  HHHHHCZZCB",
"ZBZZZHHHHHHHHHHHHHHHHHHHHHHHHHHHHHHHHHHHHHHHHHHHHHHHHHHHHHHHHHHHHHHHHHHHHHHHHHHHHHHHHHHHHHHH                &zSASB6. HHHHHHCZZBC",
"NZCZBBHHHHHHHHHHHHHHHHHHHHHHHHHHHHHHHHHHHHHHHHHHHHHHHHHHHHHHHHHHHHHHHHHHHHHHHHHHHHHHHHHHHHHHH                ;cFBy+ HHHHHHBCCCCB",
"BBZCCBNHHHHHHHHHHHHHHHHHHHHHHHHHHHHHHHHHHHHHHHHHHHHHHHHHHHHHHHHHHHHHHHHHHHHHHHHHHHHHHHHHHHHHHH                -dq@  HHHHHHVCCZBC",
"ZBZCZBBHHHHHHHHHHHHHHHHHHHHHHHHHHHHHHHHHHHHHHHHHHHHHHHHHHHHHHHHHHHHHHHHHHHHHHHHHHHHHHHHHHHHHHHHX               O.  HHHHHHCCZBCCC",
"BCCZZCZBHHHHHHHHHHHHHHHHHHHHHHHHHHHHHHHHHHHHHHHHHHHHHHHHHHHHHHHHHHHHHHHHHHHHHHHHHHHHHHHHHHHHHHHHH                 HHHHHHBCZZZCZB",
"VCCCCZCCCHHHHHHHHHHHHHHHHHHHHHHHHHHHHHHHHHHHHHHHHHHHHHHHHHHHHHHHHHHHHHHHHHHHHHHHHHHHHHHHHHHHHHHHHH              HHHHHHHBCCZCCCBC",
"VCCCCCCCCCHHHHHHHHHHHHHHHHHHHHHHHHHHHHHHHHHHHHHHHHHHHHHHHHHHHHHHHHHHHHHHHHHHHHHHHHHHHHHHHHHHHHHHHHHH          HHHHHHHHCCCCCCBCCB",
"VVCCCCZZCBBVHHHHHHHHHHHHHHHHHHHHHHHHHHHHHHHHHHHHHHHHHHHHHHHHHHHHHHHHHHHHHHHHHHHHHHHHHHHHHHHHHHHHHHHHHHHHHHHHHHHHHHHHVVCCZCCCBVBZ",
"VCCZCZVZCCZBCBHHHHHHHHHHHHHHHHHHHHHHHHHHHHHHHHHHHHHHHHHHHHHHHHHHHHHHHHHHHHHHHHHHHHHHHHHHHHHHHHHHHHHHHHHHHHHHHHHHHHNVVZCZCBCBZVZB",
"NBCCCCCVCACCCBVVBBHHHHHHHHHHHHVCFmVVVVVVVVVVFVVVVVVVVVVVGFAVVVVVBNCVNNNNCNNNNNNVCVNNNNNVCVNNNNNNNBHHHHHHHHHHHHBBCVVVCZCBNZZVZCCC",
"VCCCCCCVCCCCCCBZCCCBCCCCCCCCCCVVVVCCVVVVVVVAFVVVVVVVVVVVGGVVVVVVCCCCZZVZZZZVCCCZZZCZZVVVZZCZZZZZCCCBCCCCCBCZCVVCCZZBCZCCZVVVVBCB",
"BCCCCCCCCCCCCCZCZCCCCCCCCCCCCCCCCmCCVVVVVVVVVVVVAVVAVVAVVAVAAVAVCCCCCCCCZZZZCCCCCCCCVZZZCCCCCZCCCCCCCCCCCZCCCCCCCCCCZVVZNZBZBZBZ",
"VCCVCCCCCCCCCCCCCCCCCCACCCCCCmFCCFCCVVFVVVVAVAVVVVVVVVVVVVVVVVVVCCCCVCCCVVVVCCCCCCZCZVVCCCCCCCCCCCCACCCCCZCCCCCCCCCCNZNNZNZVZBZB",
"VVCCCCCZVVVVVAVVVAVVAVVVVVVVVVVAVVVVVVAVVVAVVVVVVVVAVVVAVVVVVVVVVVVAAVVVVAVAAVVVCCCCVVCCCCVVCVCVCCCCCCCCVZVZVVZVVZVVVZNNNZNZZZNN",
"VBCCCCVVVVAVVVVAVVVVVVVVVAAVVVVVAVVAAVVVVVVVVAAVVVVVVVVVVAAVVAAVAVVVVVVVVVVVVVVVCCCCVAVVCCVVCVVVCCVZCCCCZVVVZBBVVVZVNZZZZZZZNZNZ",
"VZCCVVZVAVVVVVVVVVVAVVVVVAVVVVVVVVVVVVVVVVVAVVVVVVVAVVVVVVAVVAVVVVVVVVVAVVVVVVVACCCCCCCVVCCCCCVVVVVVCCCCZZBBVBBVVVVVVVZVNZNVZZZB",
"VBCCCZVVVVVVVAVVVVVVAVVAVVVVVVVAVVAVVVAVAVVVVVAVVAVVVAVVVVVVVVVVVVVAVVVVVVVAVVVVCCCCCCCCVCCCCCVVBZCCBBCCBZBBZVZZZZBVVZVZZVZZBBBZ",
"VCCCCCCCCCCACCCCAVVVVCVVVAVVVVVVVAVVVVVAVVVVAVVVVAVVVVVVAVVVVVVAAVVVVVVVAVVVVVVVCCCCCCCVCVCCVVCAZVZZCCBZNZBNVVZVBZBZVZZVZNNZZBBZ",
"VCCCCCCCCCCVCCCCVVVVCCVVVVVVAVVVVVVVVVVVVVVVVVAVVVVVVAAVVVVVVVVVVVVAAVVAVVAVAVAVCCCCCCAVVCVCVACVVZBBCCCCZVZZZZVVZVZVBVZVZZZZZBNB",
"VCCCCCCCVCCCCCVCVVVVCCCAVVAVVAVAVVVVVVVVVVVVVVVVVVAVVVVVVVVAAVVVVVVVVVVVAVVVVVVVVCCACCVCCVVCVCCCZNCCCCBZVZVVZVVZVZBZZVVVNNNZZNZN",
"VCCCCCCCACCCCCVAAVVAVCCVVVVVVVVVAVVAVVVAAVAVVAVVAVVVVAVVAVVVVVVVVVAVVVAVVVVVVAVVCCCVCCCCCCCCCCCCCZZBZZBZZBZZVZZVZVZVVZVVNZZZZZNZ",
"VCCCCCCCCCCCCCCCVVVVVAVVVAVVVVVVVVVAVVVVVVVVVVVVVVAVVVVVVVAVVVVVAVAVVVVAVVVVVVVVCAVVAVVVVVAVVVCCZBZVZNZZZZNZCVZVVCCCCCCCZZZVVZZV",
"NVCCVCCCCCCCCCCCVAVAVVVVVVVVVAVVVAVVVVVVVAVVVAVVVVVVVAAVVVVVVAVAVVVVVVVVVAAVVAAVVVVVVVVAVVVVVVCVBZNZZVZNNZNZVCVZVZCVCVCCNZVVZVVV",
"VCCCCCCCCCCCCCCCVAVVVVVAVAVAVVAVVVVAVVVVVVAVVAVAVVVAVVVVVVVVVVVVVVVVVVVVVVVAVAVVVVAVVVVVVAAVAVVVZBZZVZZZZBZNCCCCZVCCCVCCZZVVVVZV",
"VCCVCVZCCCCCCCCCVVVVVAVVVVVVVVVVVVVVVAVAVAVVVVVVAVVVVVAVVVAVVVAVVAVVVVAVVVVVVVVVVVVVVVAVVVVVVVVVVZZNZVVVVZNZCCCCVZCCCCCCZVVVVVVV",
"VVVVZVCCCCCCCCCCVVAVVVVVVVVAVAVVAVVVVVVVVVVAVVAVVVVVAVAVVAVVVAVVAVVVAVAVVVVVCVCCVVVVAVVVVVAVVVVVZNZZNZCVVZVVVZCCVCCCCCCCZVVVZVZV",
"VVVVVVCCCCCCCCCCVVVVVAVAAVVVVVAVVVVVAVVAVVVVVVVVAVVVVVVVVVVVVVAVVVVVVVVVAVVVACCVVVAVVVCVVVVVVVVVZZVVVNVCVVZVCCCCZVCCCZCCVVVVZZVV",
"NZVZVVCCCCCCCCCCVVVVVVAVVVVVVVVVVVVAVVVVAVVAVAAVVVVVVAVVVVVVVVAVVVVAVVVVVVVVVVVCAVAVVACCAVVAVAVVNVVVVVVCZZVZCCCCCCCCVVVZZZVZZVNZ",
"xZZNVZCCCCCCCCCCVVVAVVVVVVVAVAVVAVVVVVVVVVVVVVVVVVAVVVVVVAVAVVVVAVVVVVAVAVVAVVVVVVVVVCCCVVVVVVVAVZZVZVZCVVVVCCZCCCCCZVVVZVZVVZZl",
"iVVVACVVVVVVFVFCAVVVVVAVVAVVAVAVCCCCCCCCCCCCVVAVVAVAVVVVCCCCVCCCVVAVVVVVVVVVVVVVCAVCCCCCCCCCVVVVCCCCCCCCVVVVFCmFCCCCCCCCCAVVVCDe",
"$bVVVVVVVmFVmVmCVVVVVVVVVVVVVVVVVVCCCCCCCCCCVVVVVVVVVAVVCCCCACCCVVVVVVAVVVAVVAVVCCVCAVCCCCCCVVVVCCCCCCCCVVVVmCVCCCCCCCCCVVVAVCN*",
"OsFVVVCVCCVVVVVCAVAVVVVVVVVVVVVAAVCCCCCCCCACVAVVVVVVVVVVCCCCVVCCVVVAVVVAAVAVAVVACCCCVCCCCCCCVAAVCCCCCCVVCCNVVVCCVZCCCCCCVCCVCAg$",
"X1VAVVVCCCVVmFmFVVVVAVVAVVAVVVVVCCCCCCCCCVCCVVVVVVVAVVAVCCCCCVCCAVVVAVVVVVVVVVVVCCCCVVCCCCCCVVVVCCCCCCVACCFVVVCCVVZCCCCCCCAVCV3O",
"HOsFCCCCCCVCCCCCVVVVAVVVVVVVVVVVCCCCCCCCCVVVAVVAAVVVCCAVCCCCVVCCVVVVAVVVVVVVVAVVCCCCVVVVCCVVVAVVCAVVCAVVCCCCCCCmVZCCCCCCCCCCFgOH",
"HX*cCVCCCCCVCCCCVVVVVVVVVVAVAVVVCVCCCCCVVAVVVVVVVVVVCCVVCCCCVVCCVVVVVVVAVAVVVVVVCCCCVVVFACVVVVAVCCCVCCVVCCCCCCCFVVAVCCCCCCCAb:XH",
"H  5mFCCCCCCCCCCVVVVVVVVVVVVVAAVVVCCCCVVVVVVAVVVVVVVCCCCCCCCVVVFAVVVVAVVVAAVVVVVCCCCVVVVVCCAVVAVVVCACCCCCVCACCCCVVVVCCCCCCAM7XXH",
"HH X9mFCCCCCCCCCVAVVAVVAVVAVVVVVACCCCCVVVVAVVVAVVVAVCCCCCCCCVVVVVVVAVVVVVVVVVVAVCCCCVVVVVCVVVVVVVVVVCCCCCVVVCCCVVVAVCCCCZANqo HH",
"HH  o5vACCCCCCCCVmVVFVFVAVVVVAVVVFmCCFFmVVCCFCCCVAVVVVVVVCCVVFVVVVVVVVCCVAVVAVVVCCCFmVmVVVmFCCCCAVAVVAVVCCCCCVCCCCCCCCCZSn7o  HH",
"HHH  .1jCACCMCCCVFVVmVmVVVVVVVVVCCVCVmVVVmFVmCCCVVAVVAVAmFFmVmVVFVVVFmFVVVVVVVVACCCCCCFVVVVVFCCCVVVVVVVVCCCCVVCZMCCCCCACj1.  HHH",
"HHHH   $7kmAAACCVVVVVVFmVVVAVVVVVVCCVVVVVVVVVVCCVVVVVVVVVVCCVVVVmVVVmVFmVVVVVVVVVVCCVVVVVVVVmVCCVVVVVVVVVVCCVVVVAZACAMk7$   HHHH",
"HHHHH    O1edxbvbccccccvcccccccccccvcccccccccccvcccccccccccvcccccccccccvcccccccccccvcccccccccccvcccccccccccvccvbbbxfe>$X   HHHHH",
"HHHHHH     XO$$*$$$$$$$$$$$$5$$$$$$$$$$$$$$$$$$$$$$$$$$$$$$$$$$$$$$$$$$$$$$$5$$$$$$$$$$$$$$$$$$$$$$$$$$$$$$$$$&&$&$O.     HHHHHH",
"HHHHHHH         X           $$OO                    OOXX                    -$OO        X           OOXX                 HHHHHHH",
"HHHHHHHHH                    XOO                      XX                    XXOO                      XX               HHHHHHHHH",
"HHHHHHHHHHHH                 XXX                     XXX                     XXX                       X            HHHHHHHHHHHH"
};
