/* XPM */
static char *detonator[] = {
/* columns rows colors chars-per-pixel */
"128 128 72 1 ",
"  c #000000",
". c #080704",
"X c #070804",
"o c #0A0A06",
"O c #0E0E0C",
"+ c #100F05",
"@ c #100F0B",
"# c #13130D",
"$ c #18170D",
"% c #19190E",
"& c #151512",
"* c #181711",
"= c #1B1B14",
"- c #1F1F19",
"; c #211F16",
": c #201F18",
"> c #232216",
", c #25241A",
"< c #28261B",
"1 c #2C2A1D",
"2 c #312F1F",
"3 c #2D2C21",
"4 c #302E21",
"5 c #343223",
"6 c #383526",
"7 c #3A3826",
"8 c #373528",
"9 c #393729",
"0 c #3C3A2B",
"q c #413E2E",
"w c #413F31",
"e c #41402E",
"r c #454334",
"t c #494636",
"y c #4D4A36",
"u c #464438",
"i c #494738",
"p c #4D4B3B",
"a c #514E3E",
"s c #53513E",
"d c #514F40",
"f c #555343",
"g c #595746",
"h c #5B5946",
"j c #5A5748",
"k c #5D5B4B",
"l c #605E4C",
"z c #625F50",
"x c #63614E",
"c c #656351",
"v c #696655",
"b c #6C6956",
"n c #6A6758",
"m c #6A6958",
"M c #716E5C",
"N c #71705F",
"B c #767361",
"V c #797663",
"C c #7C7966",
"Z c #7E7C69",
"A c #807C67",
"S c #817E6A",
"D c #85836E",
"F c #88856F",
"G c #878672",
"H c #888772",
"J c #8B8974",
"K c #8F8C78",
"L c #908D77",
"P c #918E79",
"I c #93917C",
"U c None",
/* pixels */
"UUUUUUUUUUUGGGHHHSKGHGGHHHGGGHGHHHGGHHGHGHGHGGHHHGHHGGHHGHGHGHGHHHHGHGHGHHGGGHHGGHGGHHGHHHHHHGHGHHGGHHHGGGGGGJGHHHHHSSUUUUUUUUUU",
"UUUUUUUUSGKGHGKSHJHHHHHHHHGGHHHHGGHJHHGGHHHHHHHHHHGGHHGHGGHHHHHGGHHHHHHHGHHGHGGJHHHHHHGGHGHGHHHHGHGGGHJHJGJGHGGGHHGHGGJGUUUUUUUU",
"UUUUUUUGJJJKJGGJKHHSGGHHGGGGGGGGGGGGGGGGGGDHGGGGGGGGGGGGGGGGGGGGGGGGGGHHGGGGGGGGHGGHGGGGGGGGGGHHGGGGGGGGGGGGGGGJJHHHHHHHJUUUUUUU",
"UUUUUDHHSJJSKGJJZVnnmnnmmmmmmmmmmmmmmmmmmvmmmmmmmmmmmmmmmnnnmmmmmmmmmnnmmmmmmmmmmnmmmmmmmmmmnmnmmmmmmmmmnmmmmmBZHJHHHHHJJFDUUUUU",
"UUUUDFHHJHJJJCzw3&OOOOOOOOOOOOOOOOOOOOOOOOOOOOOOOOOOOOOOOOO&OO&OOOOOOOOOOOOOOOO&OOOOOOOOOOOOOOOOO&OOOOOOOOOOOO&3wkVJJHHHJHHDUUUU",
"UUUUHHJHJJJVd,OX                                                                                                .o,pBJJHHJFHDUUU",
"UUUJHJHHHGk<o                                                                                                      o,gDJGHHHHUUU",
"UUJSJJHJZp&                                                                                                          #uAJHHHHFUU",
"UUHHJSKSwO     UUUUUUUUUUUUUUUUUUUUUUUUUUUUUUUUUUUUUUUUUUUUUUUUUUUUUUUUUUUUUUUUUUUUUUUUUUUUUUUUUUUUUUUUUUUUUUUUUU     O0AJJSJSUU",
"UHHJJJSdO   UUUUUUUUUUUUUUUUUUUUUUUUUUUUUUUUUUUUUUUUUUUUUUUUUUUUUUUUUUUUUUUUUUUUUUUUUUUUUUUUUUUUUUUUUUUUUUUUUUUUUUUU   OwSJJJJKU",
"UGHJHKj&   UUUUUUUUUUUUUUUUUUUUUUUUUUUUUUUUUUUUUUUUUUUUUUUUUUUUUUUUUUUUUUUUUUUUUUUUUUUUUUUUUUUUUUUUUUUUUUUUUUUUUUUUUUU  @fKJHHGU",
"FGJHHM-  UUUUUUUUUUUUUUUUUUUUUUUUUUUUUUUUUUUUUUUUUUUUUUUUUUUUUUUUUUUUUUUUUUUUUUUUUUUUUUUUUUUUUUUUUUUUUUUUUUUUUUUUUUUUUU  *nJHHGG",
"FGJJSwo UUUUUUUUUUUUUUUUUUUUUUUUUUUUUUUUUUUUUUUUUUUUUUUUUUUUUUUUUUUUUUUUUUUUUUUUUUUUUUUUUUUUUUUUUUUUUUUUUUUUUUUUUUUUUUUU  0GJHHS",
"HHJJN: UUUUUUUUUUUUUUUUUUUUUUUUUUUUUUUUUUUUUUUUUUUUUUUUUUUUUUUUUUUUUUUUUUUUUUUUUUUUUUUUUUUUUUUUUUUUUUUUUUUUUUUUUUUUUUUUUU #mJHHJ",
"JGJPdo UUUUUUUUUUUUUUUUUUUUUUUUUUUUUUUUUUUUUUUUUUUUUUUUUUUUUUUUUUUUUUUUUUUUUUUUUUUUUUUUUUUUUUUUUUUUUUUUUUUUUUUUUUUUUUUUUUU.uJJJH",
"FHJS4 UUUUUUUUUUUUUUUUUUUUUUUUUUUUUUUUUUUUUUUUUUUUUUUUUUUUUUUUUUUUUUUUUUUUUUUUUUUUUUUUUUUUUUUUUUUUUUUUUUUUUUUUUUUUUUUUUUUU 3SJHH",
"HHHB=UUUUUUUUUUUUUUUUUUUUUUUUUUUUUUUUUUUUUUUUUUUUUUUUUUUUUU UUUUUUUUUUUUUUUUUUUUUUUUUUUUUUUUUUUUUUUUUUUUUUUUUUUUUUUUUUUUUUU#MJGH",
"JJJb*UUUUUUUUUUUUUUUUUUUUUUUUUUUUUUUUUUUUUUUUUUUUUUUUUUU  XX UUUUUUUUUUUUUUUUUUUUUUUUUUUUUUUUUUUUUUUUUUUUUUUUUUUUUUUUUUUUUU$bJHD",
"FJJv-UUUUUUUUUUUUUUUUUUUUUUUUUUUUUUUUUUUUUUUUUUUUUUUUU  O=tr# UUUUUUUUUUUUUUUUUUUUUUUUUUUUUUUUUUUUUUUUUUUUUUUUUUUUUUUUUUUX$qNFFH",
"FJJvUUUUUUUUUUUUUUUUUUUUUUUUUUUUUUUUUUUUUUUUUUUUUUU  o$2gVKJp$ UUUUUUUUUUUUUUUUUUUUUUUUUUUUUUUUUUUUUUUUUUUUUUUUUUUUUUUU.$9cSFHHH",
"FJJbUUUUUUUUUUUUUUUUUUUUUUUUUUUUUUUUUUUUUUUUUUUUU  o;ecFKJJKFp# UUUUUUUUUUUUUUUUUUUUUUUUUUUUUUUUUUUUUUUUUUUUUUUUUUUUU #2xDJJJHFJ",
"FJLbUUUUUUUUUUUUUUUUUUUUUUUUUUUUUUUUUUUUUUUUUUU X#1sNJJJHHHFJDt+ UUUUUUUUUUUUUUUUUUUUUUUUUUUUUUUUUUUUUUUUUUUUUUUUUU O1hDLJJJFFFF",
"FJJMUUUUUUUUUUUUUUUUUUUUUUUUUUUUUUUUUUUUUUUU  o=0xSJHHHFHHHFFJDtO UUUUUUUUUUUUUUUUUUUUUUUUUUUUUUUUUUUUUUUUUUUUUUU O,gCLJJJJASFFF",
"FJFAUUUUUUUUUUUUUUUUUUUUUUUUUUUUUUUUUUUUUU X#>pbFJHJHFHHFHHHGGJS0O UUUUUUUUUUUUUUUUUUUUUUUUUUUUUUUUUUUUUUUUUUUU o:aVJJJJJDs5xFFJ",
"FJHDUUUUUUUUUUUUUUUUUUUUUUUUUUUUUUUUUUU XX%7lCJLJHFHHHFHFJGHFJJJS0o UUUUUUUUUUUUUUUUUUUUUUUUUUUUUUUUUUUUUUUUU .=aBJJJJJDx2O#kJHF",
"FJHFUUUUUUUUUUUUUUUUUUUUUUUUUUUUUUUUU XO;pMGLFJLFHHHFHHHJHHHJFFFPS0o UUUUUUUUUUUUUUUUUUUUUUUUUUUUUUUUUUUUUUU.=rMJPLJJDl6+X ogHHF",
"FFJFUUUUUUUUUUUUUUUUUUUUUUUUUUUUUUUXo*7kVJLJFGFFHHHHHHHHHHJFFFJJJPS9. UUUUUUUUUUUUUUUUUUUUUUUUUUUUUUUUUUUU $0bFLLJLHn0#    #xJFH",
"FLFFUUUUUUUUUUUUUUUUUUUUUUUUUUUU XO>tbHJJJFGJFFFHHHHHHHHGJFJJFFFFJPZ5X UUUUUUUUUUUUUUUUUUUUUUUUUUUUUUUUU #qcFLLJJGbw*      UDJFH",
"HHHDUUUUUUUUUUUUUUUUUUUUUUUUUU X$5hVFLJJGGGFFJGFHHJFJHHHJGHHFJJFHFJPC2. UUUUUUUUUUUUUUUUUUUUUUUUUUUUUU #4cFLJJPHMw&.    XUUUIJHH",
"HHHGUUUUUUUUUUUUUUUUUUUUUUU  O-ucDLJJGGJGGJFHJJGHHHHFHFJFJHHJFJHHJFJLN1 UUUUUUUUUUUUUUUUUUUUUUUUUUUU @2hSLJJJJBi*.     UUUUUFHFF",
"HHHDUUUUUUUUUUUUUUUUUUUUU .#4gBHJJJFFFGFGGJFHFHHJFHHFJHHFJHJHHHHHFFHJJM< UUUUUUUUUUUUUUUUUUUUUUUUU o>gZLLJJLBp=o     UUUUUUUFFJF",
"FJHDUUUUUUUUUUUUUUUUUUU o=rcDPJHGJFGGJGJFJGJHHHJFJHHJHFJHHHFHHHHHJJFFJLM, UUUUUUUUUUUUUUUUUUUUUU o>aVLJJJLCf:.      UUUUUUUUFJJF",
"HHHFUUUUUUUUUUUUUUUUXX#1sNLJFJFHHHHFHHHHHHHJHHHFFFHJFHJJFFFJHHHHGJJHJHJLn3 UUUUUUUUUUUUUUUUUUU .=pVJJJJPDg<o      UUUUUUUUUUGHHF",
"FJHDUUUUUUUUUUUUUUXo%7xZLFJFHHHHHFHHHFHHFHHHHFHHFFHFHFFHFJJFHJFJHHFHFFHJKm: UUUUUUUUUUUUUUUU .=tBJJJJLSl1O      UUUUUUUUUUUUDHHH",
"HHHDUUUUUUUUUUU X#1ymGJFJFGFFHHHHHHHHJJHJHFFFFFDDFFFFHFHJFJFJFHHHHJGJFJFJKn: UUUUUUUUUUUUU X*rbJPJJJFz4@      UUUUUUUUUUUUUUFHHH",
"FHHHUUUUUUUUU o=7lCJKJJGGGJFHHHHJHJFHHHHHFJFDDNMbvbNFGHHGGJJFJHHFJFJGJFJGKPn: UUUUUUUUUUUX$0bHLJKKDx5#      UUUUUUUUUUUUUUUUFHHH",
"HJHDUUUUUU XO>pMHLJJJHHHHHHHHHFJHHHHHHHFJFDbsshhxxxNDHHHFJGGGFFHJHHHHFJFHHJPz- UUUUUUUU #2xDJPJPHn9#       UUUUUUUUUUUUUUUUUFHHH",
"FHHDUUUU X%6hVJKJHFFFFHJHHHHHHHHHHJFFFFHJbeesxbCDFDDDFHHFGGDFGHHFHFJHHHHHHHJJl* UUUUU #5kDJLKKHbw#X      UUUUUUUUUUUUUUUUUUUFHHF",
"HHHDUUU  1MFJHJHHFFFHHHFHHHHJHHHHFJJJFJDs5eMFFFFHFFHFFHHFGGVZJHHHHFHHHHHGJGGJJj$ UU +1lSLJLLHbw&.      UUUUUUUUUUUUUUUUUUUUUFFHH",
"FJHFUUUU >DLJHHHFHHJFJHJHHHHHHJHHHHFFLAt2sFLFFFFFHHFHHFHJFGbybJHHFHHJFJHHHGJHJJf# X1gALLJJJBp*.      UUUUUUUUUUUUUUUUUUUUUUUFJJF",
"HHHDUUUU OgKHHHFHHHHHHHFFFFJFJHJGGJHPZ5$fJJHHHHFFHHHHHHJHFHAq4VGFHFHHJHHJFHFHFJFtO%NIJLJJVp=o      UUUUUUUUUUUUUUUUUUUUUUUUUHHHH",
"FHHGUUUUU <DJHHHHHHHFFHJJJFJJFJFJJGJS0o-VJGGHHHHHHFHJHFJHHHHM:qGJFHFHHJFHHHJFJFJA0$aHLJZf>o      UUUUUUUUUUUUUUUUUUUUUUUUUUUDHHH",
"FHHDUUUUU #lJHFHHHHHJHHFFFFFFJFJFFJHpO#jGJJGFFFJHHHFFFHFSJGHF6:MFFHHHFFHJFJFHHFHPS6%tNj<o       UUUUUUUUUUUUUUUUUUUUUUUUUUUUFHJH",
"JHHDUUUUUU 5DJHHHHHHFJHHJJJHHGHHJHJn$oiZfbLJJHHFFJFJFJJFMbSHJd*lHHFHHHJHHHFHJFJFHPZ6#=o       UUUUUUUUUUUUUUUUUUUUUUUUUUUUUUFJFH",
"FHHFUUUUUU #bKHHJGHHGJGJFJJGHJFJHJSqX>SS>=kDJHHJJJJFJJHc1qSJJk-kJHFHHHJHJFHHJHHHHHPAqO      UUUUUUUUUUUUUUUUUUUUUUUUUUUUUUUUDHHH",
"FJHDUUUUUU X0DHFHGHHFJFJJFGJHHHFHJb#X7PA= #8lbCHJJDVblq#oqJJHf=cJFHHHHHHHHHJFHHFGHJPAr@   UUUUUUUUUUUUUUUUUUUUUUUUUUUUUUUUUUGHFG",
"HHHDUUUUUUU %bLHFJJGJGGFJFFJFJHFHGw. 2JS>  XO#>6q61;@@. oaPPH0*MHFFHHHHJJFJFHHFJHFHFJDro UUUUUUUUUUUUUUUUUUUUUUUUUUUUUUUUUUUFFJF",
"HHHDUUUUUUU otJJGFGGJFGJGGJGHHJFHM*  *ZH>      X.       ;MLPS-=ZJHFHHHHFHHHHHJHHJHFHFJSqOUUUUUUUUUUUUUUUUUUUUUUUUUUUUUUUUUUUFJFF",
"JHHFUUUUUUUU =BHHFFHHJFHHHHFJHJJJdo  @cP2              #fJPPk&rHHFHHGJGGJGFJJJGFFHHFHJPAq+UUUUUUUUUUUUUUUUUUUUUUUUUUUUUUUUUUJJFF",
"HHHDUUUUUUUU ofJJHHJHHJHJFHHHHFJH6.   4Zao            #pGPPM:#nLFHFHJFFJJFGGGGHHJGJFFFJIFq.UUUUUUUUUUUUUUUUUUUUUUUUUUUUUUUUUGGJF",
"FHHDUUUUUUUUU ,SJHFHHJFHJJHHHJFJA;    .>9o          X=gJPJv, *CJHFHHJGJFJJGJHHHJJGHJJFJPJfO UUUUUUUUUUUUUUUUUUUUUUUUUUUUUUUUGFFF",
"JHHFUUUUUUUUU OkJHHHHFHHFHHHHFJJM@      X          O3bPKVd*  :BJFJFHGGJGGFJGHHHGJFGGJLGn0#  UUUUUUUUUUUUUUUUUUUUUUUUUUUUUUUUGGJJ",
"HGGGUUUUUUUUU  5DJHFHHJFHHJHHHJJN&                Oqcmzr=o  $gDHFGGFJGJGGJJJHHHHHHHJJBr&   UUUUUUUUUUUUUUUUUUUUUUUUUUUUUUUUUGFFF",
"HJGDUUUUUUUUUU #xJFHJFHHHHFHHHHJC=                .$$Oo.   *kHHHFJJJGJJFGGFFHHFHHHLAf=.    UUUUUUUUUUUUUUUUUUUUUUUUUUUUUUUUUGGJH",
"HHHGUUUUUUUUUU X0FJFHFJFHJHFHHFJH6                        &lHJHFFFFFFGJGJJFJFFHJJGx1O      UUUUUUUUUUUUUUUUUUUUUUUUUUUUUUUUUDHHH",
"HHJDUUUUUUUUUUU *bJJHJHHFJHJHHFJLyo                      OgJJHFHFJJJJGGJFGJFFJLJb9#        UUUUUUUUUUUUUUUUUUUUUUUUUUUUUUUUUDHHH",
"FJHDUUUUUUUUUUU .rHJHFHHJHHJJJFJJjo                     X0DJHHFHHHHHJHJHFJGFJLNt&X        XUUUUUUUUUUUUUUUUUUUUUUUUUUUUUUUUUJJHF",
"HHHFUUUUUUUUUUUU =BJHFHHFHHFFHFJJc@                     =NPHFHHHJFJHFHFHFGJKSf=o           UUUUUUUUUUUUUUUUUUUUUUUUUUUUUUUUUGFHH",
"HFHDUUUUUUUUUUUU oaJHHHHHHHJHHJFJM&                    +gLJHFHHHHHFHHFHFJLDl1OX           XUUUUUUUUUUUUUUUUUUUUUUUUUUUUUUUUUDHHH",
"FJHDUUUUUUUUUUUUU ,CJHFFHHHHHJFJJV=                   o7SJHFHHHFFHJHFJJHJb8#              UUUUUUUUUUUUUUUUUUUUUUUUUUUUUUUUUUHHHH",
"JHHFUUUUUUUUUUUUU @hPJHHHHHHHJJFHJy@      X XXXoo.XoO%qNJJHFHHJHJJFFHJLBi*X               UUUUUUUUUUUUUUUUUUUUUUUUUUUUUUUUUUFHHH",
"FHHDUUUUUUUUUUUUU  1DJFHHHHHHFFJHJSw@  o$>277qtyptralMDKHHFHHHHFFHHJJSf>o                 UUUUUUUUUUUUUUUUUUUUUUUUUUUUUUUUUUDHHH",
"FJHFUUUUUUUUUUUUUU #xJHFFFJHHHHFHFJSp>>aNAHJHKKPLLLLHGHHHFHHHHFJHJJSx2O                   UUUUUUUUUUUUUUUUUUUUUUUUUUUUUUUUUUFHJH",
"FJFFUUUUUUUUUUUUUU .9GJHHHFHJFFJHJHJHZZDHHHJJJJJJJJJHHGGHHHFJFJFHJb0#                     UUUUUUUUUUUUUUUUUUUUUUUUUUUUUUUUUUFHJF",
"HHHDUUUUUUUUUUUUUUU *bJHHHHFHJFJFFFHHJFHHHHFFFJFHHHFFHFJGJFHFHJKBp*.                     UUUUUUUUUUUUUUUUUUUUUUUUUUUUUUUUUUUGHHH",
"HHHDUUUUUUUUUUUUUUU orJHFFHHHHHHJJJFHFHHFFHFHHFFFFHFHFJJFFJHJJDg;o                      UUUUUUUUUUUUUUUUUUUUUUUUUUUUUUUUUUUUDHHH",
"HHHDUUUUUUUUUUUUUUUU =BHHFHJHHHHJFFHFHFHHHFJJHHHHHHJHHHFHHJJFl4O                      UUUUUUUUUUUUUUUUUUUUUUUUUUUUUUUUUUUUUUFHHH",
"HJHGUUUUUUUUUUUUUUUU opJJHFHHHHHHJJHHHHHHHHHHHHHHHHHJFHHJHHMw#                      UUUUUUUUUUUUUUUUUUUUUUUUUUUUUUUUUUUUUUUUFHHH",
"FHHFUUUUUUUUUUUUUUUUU >CJFHHHHHJHHHJHHHFHJHHHHFHHJFHJGHJJVy*.                      UUUUUUUUUUUUUUUUUUUUUUUUUUUUUUUUUUUUUUUUUDHHH",
"HJHDUUUUUUUUUUUUUUUUU OgPJHFHHHHHHJFJHHJHHHHJHJHHHJHGJJAj;o                     XUUUUUUUUUUUUUUUUUUUUUUUUUUUUUUUUUUUUUUUUUUUFHHH",
"HHHDUUUUUUUUUUUUUUUUU  1DJFHHHHHJHFJFHFJHJHHHHHHFFFJJGl5@                      UUUUUUUUUUUUUUUUUUUUUUUUUUUUUUUUUUUUUUUUUUUUUFJFH",
"JHHDUUUUUUUUUUUUUUUUUU +xJHHHHHHFHHGJHHHHHHHHHFHJJJFMw$                       UUUUUUUUUUUUUUUUUUUUUUUUUUUUUUUUUUUUUUUUUUUUUUDJFH",
"FHHFUUUUUUUUUUUUUUUUUU .9GJGHHFHJGJGFGJGHJHJFHGHJLCp*.                      UUUUUUUUUUUUUUUUUUUUUUUUUUUUUUUUUUUUUUUUUUUUUUUUGHHH",
"FJFFUUUUUUUUUUUUUUUUUUU *bJJFHHHJFGJJGJFHFHFFHJJSg,o                      UUUUUUUUUUUUUUUUUUUUUUUUUUUUUUUUUUUUUUUUUUUUUUUUUUGHHH",
"HHHFUUUUUUUUUUUUUUUUUUU .rJJHFHHFJFFGGGJHJFHJPJv4#                       UUUUUUUUUUUUUUUUUUUUUUUUUUUUUUUUUUUUUUUUUUUUUUUUUUUDJHH",
"FJJDUUUUUUUUUUUUUUUUUUUU *BJGHFHFFJJJJFGHFJJJNw$                       UUUUUUUUUUUUUUUUUUUUUUUUUUUUUUUUUUUUUUUUUUUUUUUUUUUUUDHJH",
"FHHHUUUUUUUUUUUUUUUUUUUU oaJHHHHFFJHJFFJHJPVp=.                      UUUUUUUUUUUUUUUUUUUUUUUUUUUUUUUUUUUUUUUUUUUUUUUUUUUUUUUDHJH",
"HHHDUUUUUUUUUUUUUUUUUUUU  :BJFHHJGGGGFFJJDk<o                       UUUUUUUUUUUUUUUUUUUUUUUUUUUUUUUUUUUUUUUUUUUUUUUUUUUUUUUUDHHH",
"FJHGUUUUUUUUUUUUUUUUUUUUU ofLHHHJFHGJHLJb8#                       UUUUUUUUUUUUUUUUUUUUUUUUUUUUUUUUUUUUUUUUUUUUUUUUUUUUUUUUUUFFJF",
"FHHHUUUUUUUUUUUUUUUUUUUUU  <DJHHGJJJHHBe*                       UUUUUUUUUUUUUUUUUUUUUUUUUUUUUUUUUUUUUUUUUUUUUUUUUUUUUUUUUUUUJFJF",
"JFJFUUUUUUUUUUUUUUUUUUUUUU #kJJHGGJPZp=.                       UUUUUUUUUUUUUUUUUUUUUUUUUUUUUUUUUUUUUUUUUUUUUUUUUUUUUUUUUUUUUHHHH",
"FHHHDUUUUUUUUUUUUUUUUUUUUU  5GJHJJDl,o                       UUUUUUUUUUUUUUUUUUUUUUUUUUUUUUUUUUUUUUUUUUUUUUUUUUUUUUUUUUUUUUUHHHH",
"JFHHDUUUUUUUUUUUUUUUUUUUUUU &bIPHb7+                       UUUUUUUUUUUUUUUUUUUUUUUUUUUUUUUUUUUUUUUUUUUUUUUUUUUUUUUUUUUUUUUUGHJHJ",
"FHFJHUUUUUUUUUUUUUUUUUUUUUU .0KVr&X                       UUUUUUUUUUUUUUUUUUUUUUUUUUUUUUUUUUUUUUUUUUUUUUUUUUUUUUUUUUUUUUUUUJJHHH",
"FJHJFFUUUUUUUUUUUUUUUUUUUUUU #r=X                   XXXXUUUUUUUUUUUUUUUUUUUUUUUUUUUUUUUUUUUUUUUUUUUUUUUUUUUUUUUUUUUUUUUUUUGHHJHH",
"FFGJJGGUUUUUUUUUUUUUUUUUUUUU  .                     XXUUUUUUUUUUUUUUUUUUUUUUUUUUUUUUUUUUUUUUUUUUUUUUUUUUUUUUUUUUUUUUUUUUUUGGHHFH",
"JFJHFFFUUUUUUUUUUUUUUUUUUUUUU                        UUUUUUUUUUUUUUUUUUUUUUUUUUUUUUUUUUUUUUUUUUUUUUUUUUUUUUUUUUUUUUUUUUUUHJJJJJF",
"FJGHJJFGUUUUUUUUUUUUUUUUUUUUUU                     UUUUUUUUUUUUUUUUUUUUUUUUUUUUUUUUUUUUUUUUUUUUUUUUUUUUUUUUUUUUUUUUUUUUUDHFJJFFF",
"GGHHGJJGHUUUUUUUUUUUUUUUUUUUUU                  +UUUUUUUUUUUUUUUUUUUUUUUUUUUUUUUUUUUUUUUUUUUUUUUUUUUUUUUUUUUUUUUUUUUUUUGHHJHHHHH",
"GHHHJGJHHHUUUUUUUUUUUUUUUUUUUUU                 UUUUUUUUUUUUUUUUUUUUUUUUUUUUUUUUUUUUUUUUUUUUUUUUUUUUUUUUUUUUUUUUUUUUUUGGHJHHHHHH",
"GGHHGJJJHHHDUUUUUUUUUUUUUUUUUUUU              UUUUUUUUUUUUUUUUUUUUUUUUUUUUUUUUUUUUUUUUUUUUUUUUUUUUUUUUUUUUUUUUUUUUUUHGGGJHHHHHHG",
"GGHHHHHHHHHHHDUUUUUUUUUUUUUUUUUUUoXX.oXXo.XoUUUUUUUUUUUUUUUUUUUUUUUUUUUUUUUUUUUUUUUUUUUUUUUUUUUUUUUUUUUUUUUUUUUUUUGGHHGJHHHJHHGH",
"GGGJGGHHHJHHHFHDDDUUUUUUUUUUUUDDBftttrttttphZLIJGGDDDDDDLGGDGGGGDDGGDGGGHDGGGGDDGGGDDDGGFGGDDDGDGDUUUUUUUUUUUUDGGGHHGJJJHHHHGHGH",
"GGGGGGHHHHHHHHHHHHHHHHHHHHHHHJHHHHDDGGDDDFFFHHHHHFFGHHHHLHGGGKGGHHHHGGHHJHHHGGJGJFGJGGGGJJGJJGGJHHHHHHHHHHHHHHGHHHHHJJGGHHHHHHFG",
"GGGJGKGGHJHHHJHHHHHHHHJHJHHHHHGJJGHHHHHHFHHHHJHHJFFFHHHHHHHHHHKHHGJJHHHHHHHHJJGJJJGHJGJJJGGGGGJGHHHHHJHHHJHHHHHHHJHHHJHGGHGHGJJG",
"GGHHGGJGJHHHHHJHJHHHHHHJHHHHHGJGGJHHJHHHHHJHHHHHFHFHHHHHHHHHGGGHHJGGHHHHHHHHGGJGJGJGGJGGGJJGHJGJHHHHJHHHHHHHHHHHHHHHHGGHGGGHGFFG",
"GGHHHHHHGGGGGGGGGGGGGGGKGGGGGKGGHHHHHHHHHHGGHHHFFHHHHHHHHHHHKGHHGGGGGGGKGGGGGGKGGGGGGGKGGGGGKGGGHHGJGGHHGGGGGGGGKGGGGGGGGGGGGGKG",
"GHHHHHHHGGKGKGGGKGGKKGGGGGGGGGGGHHHHHHHHGGGGHHHHHHHHHHHHHHHHGGHHGGKGGGGGKGKGGGGGGGGKKGGGGKGGGGGGHHHHGHHHKGKGKGGGGGKGGGGKKGKGGGGG",
"GHHHHHGHGKKGGGKGGKGGGGGGGGGGGKKGHHHHHHHHHHHHHHGHHHHHHHHHHHHHGGGGKGGGKGGGGGKGKGGGKGGGGGGGKGGKGGGGHHHHHHHHGGGGGGGGGGGGGGGGGGKGGGGG",
"GHHHGGHHGGGGGGGGGGGGGGKGKGKGGGGGHHHHHHHHJHHHHHHHHHHHHHHHHHHHHKGGGGKGGGGGGGGGGGKGGGGGKGGGGGGGKGGGHHHHHHHHGKGGGGKGGKGGKGGGGGGGKGGG",
"GGGJHGJGGGGGGGGGGKGGKGKGGGGGGGGKHGGHHHHHHHGGGGHHHHHHHHHHHHGGHHHHGGGGGGGKGGGGGGKGGGGGGGGKGGGGKGGKGGGGHGGJGGKGGKGGGGGGGGGKKGKGGGGG",
"GGJGHHHHGGKGKGKGGGGGGGGGGKGGGGGGHHGHGHHHHHGGHHHHHHHHHHHHHHHHHHHHGKGKGKGGGKGGGGGGGKKGKGGGGKGGGGGGGKGGKGHGGGGGGGGKKGGKKGGGGGGGGGGG",
"GGJGKHHHKGGGGGKGGGGGGGKGGGGGGGGGHHHHHHHHHJGJHHHGHHHHHHHHHHHHHHHHGGGGGGGGKGGKGKKGGGGGGGGGGGGKGGGGGGGGHHHHKGKGGKGGGKGGGGGGGGGGGGGG",
"GGGGGHHHGGGKGGGGGKGKGGGGGGGKGGKGHHHHHGFHJJJGHHHHGHHGHHHHHHHHHHHHGGKGGGKGGGGGGGGGGGKGGKGGKGGGKGGKKGKHHHHHGGGGGGGGGGGGGGGKGGKGGGGK",
"GGGHHHHHHHHHGGGGGGGGGKGGKGKGGKGGHHHHHHFFGGJHHHHHHHGGHHHHHHHHHHJHGGGGKGGGGGKGGGGGGGGKGGKGGGGGKGGGGGGKKGGGGGGGGGGGKGKGGKGGKGKGGKGG",
"GGGJHHHHHHHHKGKGGKGGGGGKGGGGGGGGHHHHHFHHJJGGJHHHHHHHHHHHHHHHHHHHKGGGGGGKGGGGKGKGGKGGGGGGKGGGGGGGGGGGGGGGGKGGGGKGGGGGGGGGGGGGGGGG",
"GHGHHHHHHHHHGGGKGKGKGGGGGKGGGGKGHHFHHFHHGFJHHHHHHHHHHHHHHHHHHHHHGGGGGGGGKGGKGGKGGGGGKGGKGGGGGGGKGGGGGGGGGKKGKGGGGGGGGGKGGKGGGGGG",
"HHHHHHHHHHHHGGGGGGGGGKGGGGGGGGGGHHHHHHHJJJHHHHHGHHHHHHJHHHHHHHHHGGGKGGKGGGGGGGGGGGKGGGGGGGKGGKGGKGGKGKGKGGGGGGGKKGGKGGGGGGGGGKGG",
"GGJGGGHHHHKGGGGGGGGGGGGGKGGGGGGGHHJHJHHHGGGJJGGGHJJHHHHHHHHHHHHHGGKGGGGGGGGGGGGKGGGKGGKGKGGGKGGKGGGKGGGGGGGKGGGGGGGGGKGGGGGGGGGG",
"GGGGHJHHGKGGKGGGGKGGGGGKGGGGGKGGHFFHFHHHFJJFGJJGHHHHHHHHHHFHHHGGGGGGKGGKGGGGKGGGGGGGGGGGGGGKGGGGGGGGGGGGGKGGGGGGGGGKGGGGGGKGGKGG",
"HGGGHGHHGGGGGGGGGGGGGKGGGGGGGGKGHJHHHHHHJGGJGGGGHHHHJHHHHFFFHJGJGGGGGGGGGKKGGGGGKGGGKGGKGGKGGGGGKGGGKGGKGKGGGGGKGGGGKGGKKGKGGGGG",
"mJJGHHHGGGKGGGKGGGKGGGGGKGKGGGGGHFJHHJHHGJFGJGJKJHHJGHHHHHHHJHGGKGGKGGKGGGGGGGKGGGGGGGGGGGGGGGGKGGKGGGGGGGGGGKGGGGKGGGGGGGGGGGGN",
"uKKGKGGGKGGGHHHHGKGGGGGGGGGGGGGGGGGKGGGGGGKGGKGGJGJGHHGGHGHHGGGGGGGGGGGGGGGGGGGGKGGGGKGGGGGGGKGGKGGKGKGGGGKGGGHHKGGKKGGKGGGGKGIu",
"&VGGGGGGGGGGHHHHGGGGGGKGGGKGGGKGGGGGGGGKGGGGGGGGGGGJHGGKHHHHGGKGGGKGKGGKKGKGGKGGGGGGGGGKGGGKGGGGGGGGGGGKGGGGGKHHGGGGGGGGGGGGGGG8",
"OjKGGGGGGGGGKGHHGGGGGGGGKGGGGGGGGGGGGGGGGJGGGGGGGGJGJGGGHHHHGGKGGGGGGGGGGGGGGGGKGGGKGKGGGGGGGGGGGGGGGGGGGKGGGKHHGGGGGGGGGGGGGIz-",
"X3GKGGGGKGKGGGHHGGKGKGGGGGGGKGGGGKGGKGGGHHHHKGGGGGGGGJGGHGHGGGGGGKGGGKGGGGKGGGGGKGGGGGGGGKKGGKGKKGGKGGGKGGKGGGHHGGGGKGGGGKGKKG3&",
"UOzKGGGKGGGKHHHGGGGGGKKGGKGGGGGKKGGGGGGGHHGGGKGGJGGGGGKGGHHHGGGGGKKGGGGGGGGGKGGGGKGGGKGKGKGGGGGGGGGGGKGGGGKGGGGHKGKGGGGKHHHHKn&U",
"UX-NKKGGGGGGHHHHGGGGGGGGGGGGGGGGGGGKGKGGHHGGGGGKJGGJGGGGHHHHKGGGGGGGGGKGGGKGGGGGGGGGGGGHGGKGGGGGGGKGGGGGGGGGGKHHGGGGGGGGHHHIN-OU",
"U X8ZKKGGKGGHHHHKGGGGGKGGGIGGGGGGGGGGKGKHHHGGKGGKGGGKGHHHGHHGGHHGKGGKGKGKGKGGKKGGGGGGGGHGGGGGGGKKGGGGGGGGKGKGHKHGGGGGGKGHHKZ0XOU",
"UU  wZKGGGGGHHHHGGGKGGGGGKGGGGGKGKGGGGGGHHGKGGGGGGHGHHHGHGJHGKHGGGGGGGGGGGGGGGGGGKGGGKHHGKGGGKGGGGGGGGKGGGGGGGGHKGKGKGGGKKZuOXUU",
"UU  O8BKJGGSJJJHGHHHHHHHGGGGGGGGHHHHHHKGHHHHHHGGGGGGGGGGGGHHHHHHHGHHHHGGGKKGGKGGHHHHHHHGHHHHHHGGGGKGGGGGHHHHGHHHJJJKJGGJKV0O  UU",
"UUU  X3zGKHJGGGHHHGGHHHHKGGGGKKGHHHHHHGHHHHHHGGKGGGKKGGKGKHHHHHHHHHHHHGKGGGGGGGGHHHHHHHHHHHHHHGKKGGGGGGKHHHHHHHHJJSSGJKJn-o  UUU",
"UUUU   &0nZKKKSGHGGGGGGGGGGGGGGGHGGGHGGGGGGGHGHGGGGGGGGGGGGHGGGGGGGGHGGGGGGGGGGGGGGHHGGGGGGGGGHGGGGGGGGGGGHHGGHHSKJJJSn0&XX UUUU",
"UUUUU    O3ujNCVVBNNNNNBNNNNNNNNNNNBNNNNNNNNNNNBNNNNNNNNNNNBNNNNNNNNNNNBGNNNNNNNNNNBNNNNNNNNNNNBNNNNNNNNNNNBNNNVVVNzw3&XXX UUUUU",
"UUUUUU     XO&&-&&&&&&&&&&&&-&&&&&&&&&&&&&&&&&&&&&&&&&&&&&&&&&&&&&&&&&&&&&&&u--&&&&&&&&&&&&&&&&&&&&&&&&&&&&&&&&-&-&Oo     UUUUUU",
"UUUUUUU                     &OXO        X           XX          XX          -&&&        XX X        OOXO                 UUUUUUU",
"UUUUUUUUU                     X                                             XXOO                      XX               UUUUUUUUU",
"UUUUUUUUUUUU                                                              XXXXOO                                    UUUUUUUUUUUU"
};
