/* XPM */
static char *fist[] = {
/* columns rows colors chars-per-pixel */
"128 128 73 1 ",
"  c #000000",
". c #080704",
"X c #070804",
"o c #0A0A06",
"O c #0D0E0B",
"+ c #100F0B",
"@ c #0F100C",
"# c #12120D",
"$ c #18170F",
"% c #1C1B0F",
"& c #151512",
"* c #181711",
"= c #1B1B13",
"- c #1F1E18",
"; c #201F13",
": c #201F19",
"> c #242315",
", c #282616",
"< c #25241A",
"1 c #28271B",
"2 c #2C2A1C",
"3 c #312F1D",
"4 c #32301F",
"5 c #2D2C21",
"6 c #302F22",
"7 c #343224",
"8 c #383626",
"9 c #3A3927",
"0 c #373528",
"q c #383728",
"w c #3D3B2C",
"e c #3F3E30",
"r c #403E2D",
"t c #413F31",
"y c #44422E",
"u c #454333",
"i c #494636",
"p c #4B4835",
"a c #464538",
"s c #484738",
"d c #4D4B3B",
"f c #504E3D",
"g c #53513F",
"h c #504E40",
"j c #555342",
"k c #585645",
"l c #5A5847",
"z c #5D5B4A",
"x c #605E4D",
"c c #625F50",
"v c #63604F",
"b c #656352",
"n c #696655",
"m c #6C6956",
"M c #6A6959",
"N c #716E5C",
"B c #72705F",
"V c #767361",
"C c #797664",
"Z c #7C7A66",
"A c #7E7C68",
"S c #817E6A",
"D c #85836F",
"F c #88856F",
"G c #878672",
"H c #888772",
"J c #8B8974",
"K c #8F8C78",
"L c #918E79",
"P c #94917D",
"I c #979480",
"U c #999581",
"Y c None",
/* pixels */
"YYYYYYYYYYYGGGJJGISGGGGGHHHHHHHGHHGHGGGGGGHHGHHHHGGGHHHHGGGJGGGHHHHHGGGJGHGGHHHHHHGHGGGGGGGHGHGHHHGGHGHHGGGHHHHHHHHGHYYYYYYYYYYY",
"YYYYYYYYSSKJJGSSJSGGGGGJGGGGGHHHGGHHGGGGGGHHGGHGHHGGHGGHGGGGGJGGHHHHGGGGGGGGHHHHGGHHGHGGGHHHGGHHHGGGHHGHGGGGHHGGHGHHJSJSYYYYYYYY",
"YYYYYYYGJJJKGSIIISGGGGGGGHHGGGGGGGHHGGGGGGDHGGHHGGGGGGGGGGGGGGGGGGHHGGGGGGGGGGHHGGHHGGGGGGGGGGHHGGGGGGGGGGHHGHJJJHGGHHHHJYYYYYYY",
"YYYYYDHHKSJSJJSJAVMMMMMMMMMMMnMMMMMMMMMMnMMmMMMMMMnMMMMMMMMMMMMMMnMMMMMMMMMMMMMMMMMMMMMMMMMMMMMMMMnMMMMMMMMMnMBAHJHJHHHHJGDYYYYY",
"YYYYDFHHHHJJJZzt<&@@@@@@@@@@O@@O@@@@@@@@@@OO@@@@@@@@O@@O@@@@@@@@OO@@@@@@@@@@O@@OO@@@O@OOOOO@@@@@@@@@O@@OO@@@@#&1txZJJGHHJHHFYYYY",
"YYYYGHHJHJJCh1OX                                                                                                .o>fVJJHHHFHFYYY",
"YYYKHHJGJGx1o                                                                                                      X<lGJHHHHHYYY",
"YYSHHHHJAd&                                                                                                          +uSJJHHHDYY",
"YYJJHHJStO     YYYYYYYYYYYYYYYYYYYYYYYYYYYYYYYYYYYYYYYYYYYYYYYYYYYYYYYYYYYYYYYYYYYYYYYYYYYYYYYYYYYYYYYYYYYYYYYYYY     oeZJHSKSYY",
"YJGJHKShO   YYYYYYYYYYYYYYYYYYYYYYYYYYYYYYYYYYYYYYYYYYYYYYYYYYYYYYYYYYYYYYYYYYYYYYYYYYYYYYYYYYYYYYYYYYYYYYYYYYYYYYYY   otSJHJJKY",
"YHHJJKz#   YYYYYYYYYYYYYYYYYYYYYYYYYYYYYYYYYYYYYYYYYYYYYYYYYYYYYYYYYYYYYYYYYYYYYYYYYYYYYYYYYYYYYYYYYYYYYYYYYYYYYYYYYYY  +kKJGJHY",
"FHHHJM-  YYYYYYYYYYYYYYYYYYYYYYYYYYYYYYYYYYYYYYYYYYYYYYYYYYYYYYYYYYYYYYYYYYYYYYYYYYYYYYYYYYYYYYYYYYYYYYYYYYYYYYYYYYYYYY  *MHHHGG",
"FGHJSt. YYYYYYYYYYYYYYYYYYYYYYYYYYYYYYYYYYYYYYYYYYYYYYYYYYYYYYYYYYY        YYYYYYYYYYYYYYYYYYYYYYYYYYYYYYYYYYYYYYYYYYYYY .wGHHHS",
"HHHKB: YYYYYYYYYYYYYYYYYYYYYYYYYYYYYYYYYYYYYYYYYYYYYYYYYYYYYYYYYYY  XO$OOoX  YYYYYYYYYYYYYYYYYYYYYYYYYYYYYYYYYYYYYYYYYYYY +MJHHJ",
"FHJLfo YYYYYYYYYYYYYYYYYYYYYYYYYYYYYYYYYYYYYYYYYYYYYYYYYYYYYYYYY   #enVMbke@  YYYYYYYYYYYYYYYYYYYYYYYYYYYYYYYYYYYYYYYYYYYYoiHKHH",
"HHJS6.YYYYYYYYYYYYYYYYYYYYYYYYYYYYYYYYYYYYYYYYYYYYYYYYYYYYYYYYY  .1bGJJJGJHc&  YYYYYYYYYYYYYYYYYYYYYYYYYYYYYYYYYYYYYYYYYYY 1SKGH",
"HJJV=YYYYYYYYYYYYYYYYYYYYYYYYYYYYYYYYYYYYYYYYYYYYYYYYYYYYYYYYY  XwCJKFHHJJKKx$  YYYYYYYYYYYYYYYYYYYYYYYYYYYYYYYYYYYYYYYYYYY&MKHH",
"FHJm&YYYYYYYYYYYYYYYYYYYYYYYYYYYYYYYYYYYYYYYYYYYYYYYYYYYYYYYYY .rSJJFHHFFHFKKk+  YYYYYYYYYYYYYYYYYYYYYYYYYYYYYYYYYYYYYYYYYY#bJHG",
"FJJn-YYYYYYYYYYYYYYYYYYYYYYYYYYYYYYYYYYYYYYY               YY  1ZKHFFHHHHFJFJHu. YYYYYYYYYYYYYYYYYYYYYYYYYYYYYYYYYYYYYYYYYYYvJHH",
"FJJnYYYYYYYYYYYYYYYYYYYYYYYYYYYYYYYYYYYY     XoooOOOOO@oXX    XrKJHHJFJHJHFFHJZ1  YYYYYYYYYYYYYYYYYYYYYYYYYYYYYYYYYYYYYYYYYYnJHH",
"FJJmYYYYYYYYYYYYYYYYYYYYYYYYYYYYYYYYY XXXX#,9aglbbbbnbbzha8#  XpLJFJFHJHJJFJGKLjX YYYYYYYYYYYYYYYYYYYYYYYYYYYYYYYYYYYYYYYYYYnJFF",
"FJJNYYYYYYYYYYYYYYYYYYYYYYYYYYYYYYY  XX%wlMDFFHJJHHJKHFJJJHbO #bJJFHJFHHFHFHHJLdo YYYYYYYYYYYYYYYYYYYYYYYYYYYYYYYYYYYYYYYYYYmJJJ",
"FJJNYYYYYYYYYYYYYYYYYYYYYYYYYYYYY   @3gBDHHJJJJJFGHHFFFHHJKV& >SJFHFHHHHFJJHGJZ:  YYYYYYYYYYYYYYYYYYYYYYYYYYYYYYYYYYYYYYYYYYBHJF",
"FJFSYYYYYYYYYYYYYYYYYYYYYYYYYYYY  o5xDJJHHHFHHFFHHFHHFHDHHKV&.sKJJHFFHHHHHHHJJho   YYYYYYYYYYYYYYYYYYYYYYYYYYYYYYYYYYYYYYYYYDFJF",
"FJFFYYYYYYYYYYYYYYYYYYYYYYYYYYY X@pZJKJFHHJFHFFHHHHFJHHHHJKN##NJFHHFGGGHHJFHKM= oX  YYYYYYYYYYYYYYYYYYYYYYYYYYYYYYYYYYYYYYYYDHHF",
"FJFFYYYYYYYYYYYYYYYYYYYYYYYYYY  %zHJHHFHFFFHHJHHHHHHHHHHFJKN#2FJHHFHHHGGGFJJS7 Ofe. YYYYYYYYYYYYYYYYYYYYYYYYYYYYYYYYYYYYYYYYGHHH",
"JFJFYYYYYYYYYYYYYYYYYYYYYYYYYY OgJJFHGFHHJFJHHHHFHHHHHHHFFJx*fJJvyyxZJKHGGJJho -AV&  YYYYYYYYYYYYYYYYYYYYYYYYYYYYYYYYYYYYYYYFJHF",
"FJFFYYYYYYYYYYYYYYYYYYYYYYYYY  &VJJJHHHHHHJFJHHHHHFJHHHHJFJr$mHJmy2>5pVJHJLm= XtLKwX YYYYYYYYYYYYYYYYYYYYYYYYYYYYYYYYYYYYYYYDHJF",
"HHHDYYYYYYYYYYYYYYYYYYYYYYYYY  2DJJDFHFHHHHFHHHHFJDJFHHFFJJ3%SFSDDDv4>,pSPS5  -VLLn+  YYYYYYYYYYYYYYYYYYYYYYYYYYYYYYYYYYYYYYFHJH",
"HHHDYYYYYYYYYYYYYYYYYYYYYYYYY  7JJDJJHJHHHFJHHHHGFJFHFJJHHS:4FSxBFJJDm3+6niX ohKJKS1  YYYYYYYYYYYYYYYYYYYYYYYYYYYYYYYYYYYYYYDHHF",
"FJHFYYYYYYYYYYYYYYYYYYYYYYYYY X7JJHFHHHHHHJFHHJGFFFHFHHHGGN;pKNpDFFFJLm#.#X  OzIJJKu. YYYYYYYYYYYYYYYYYYYYYYYYYYYYYYYYYYYYYYDHHH",
"FJJFYYYYYYYYYYYYYYYYYYYYYYYYY  4HJFHJFHHHHHHFGFFJHJHJFHHJLk=kLm6nJJFJLl+      5CJJJx+  YYYYYYYYYYYYYYYYYYYYYYYYYYYYYYYYYYYYYDHHF",
"FHHFYYYYYYYYYYYYYYYYYYYYYYYYY  ,DJHHHHFFHHHHJKKJJPLLLJDSSB,@jPSw5kSLLV-       OhJJHm#  YYYYYYYYYYYYYYYYYYYYYYYYYYYYYYYYYYYYYGHHF",
"HJHFYYYYYYYYYYYYYYYYYYYYYYYYY  ,ZHHFFHKKJDAZVMnzggpr9932,$XX3DLSs57jb2         <ZJJZ<  YYYYYYYYYYYYYYYYYYYYYYYYYYYYYYYYYYYYYDHHH",
"HHHDYYYYYYYYYYYYYYYYYYYYYYYYY  =BFFDZBMjr1===$*&$++ooooX    OfJPKNu21X         OxKKJwX  YYYYYYYYYYYYYYYYYYYYYYYYYYYYYYYYYYYYFFFH",
"HHHDYYYYYYYYYYYYYYYYYYYYYYYYY  OmJJBd71;$#@&$,27433,,,,>>$@  +iZLIKSf#         X0JKKd.  YYYYYYYYYYYYYYYYYYYYYYYYYYYYYYYYYYYYFJJF",
"HHHFYYYYYYYYYYYYYYYYYYYYYYYYY  OnJHSngjznMBBZDDDJFFSZSDZCBb=  X:acNz<X          *NJJko  YYYYYYYYYYYYYYYYYYYYYYYYYYYYYYYYYYYYFHFH",
"FHHFYYYYYYYYYYYYYYYYYYYYYYYYY  =BJHFDFFJKFHJHKKJJJFJHFFJHKPpX   .+&+   X        +xJKcO  YYYYYYYYYYYYYYYYYYYYYYYYYYYYYYYYYYYYHHHF",
"HHHFYYYYYYYYYYYYYYYYYYYYYYYY  +jFHFFFFJHFHFHHHFFFHHHHHFJFJLv#         &u#       opLLn+   YYYYYYYYYYYYYYYYYYYYYYYYYYYYYYYYYYYHHHH",
"HHHFYYYYYYYYYYYYYYYYYYYYYYY  XuDJHHHFHFHFHHHFFHHHHHHFHHFJFKn#  OX    ohD>       .3KPN#   YYYYYYYYYYYYYYYYYYYYYYYYYYYYYYYYYYYFHHH",
"HHHFYYYYYYYYYYYYYYYYYYYYYYY  2SJFHHHFGFDHHFJJHHHFHHFHHHHHHLN# ,nt&o  1DF,        +jHC&   YYYYYYYYYYYYYYYYYYYYYYYYYYYYYYYYYYYHHHF",
"HHHFYYYYYYYYYYYYYYYYYYYYYY  #nKJHHFHHGJJHHHHFJJFHJJHHHHJHHLM#XwLJMl2$lPS>         #wio    YYYYYYYYYYYYYYYYYYYYYYYYYYYYYYYYYYFJHH",
"HHHFYYYYYYYYYYYYYYYYYYYYYY XwHKFHFHHHHFJHHHFHHFJJFJFFFHFFJKbOojPLJJxrCKC=          XX       YYYYYYYYYYYYYYYYYYYYYYYYYYYYYYYYFHHH",
"HHHFYYYYYYYYYYYYYYYYYYYYY  +xKJFFHHHHHFHHHHHHHJHFJFHHJHHFJKkoX6MKLJDSJLm#                         XYYYYYYYYYYYYYYYYYYYYYYYYYFHHH",
"FHHFYYYYYYYYYYYYYYYYYYYYY  #NJGGJJFJJJDJHHJFHJFJJJHHHJHHHJKtX+#;dNSJLLLfX                 XXX           YYYYYYYYYYYYYYYYYYYYHHFF",
"HHHFYYYYYYYYYYYYYYYYYYYYY  OcKJGFJHFJJJHHJJJFFJHFHFHFFHJFJS;#xh&o$>wfxj$                 X8kw,>%$#@oX                      >NJFF",
"HHHFYYYYYYYYYYYYYYYYYYYYY  X0SJHFJHHHHFHHHFFHHJHHFHFHFGHHJn#2JLb1o .o+o                  XpPKZZCVmbjw>@oX                 X$mJJJ",
"HHHFYYYYYYYYYYYYYYYYYYYYY   osGJHFHHJFFHHFFFHHHFHHKKJJGHKKw+iIUUSu.                      X7JKHFJHHKJFZmki72%#@@@OOOOOoOO@@@2NJFJ",
"HFJDYYYYYYYYYYYYYYYYYYYYYY   #fHJFFHHFHHDDFHJJAVSDVbmVADHx$ >znxj5.                       <ZFJFHFJJJJJJJLDSZNNmvbbvzlllxxbmNSFGF",
"FFGDYYYYYYYYYYYYYYYYYYYYYYY   &xJHHHHJJFDVxzku1=22=##=>22#   O#+oX                        =VKFHFJFDDDJJJJJDDHJJJJJKJFJJJJJJJJFFH",
"JJJDYYYYYYYYYYYYYYYYYYYYYYYY   2DJHFJFFHJC6#+X                                            #nKJFJJFJJJDDJJDDJDJJJHJHHFJFJFFFJFFFF",
"FJJDYYYYYYYYYYYYYYYYYYYYYYYY   #mHFHHHJFHHx>#>$+OOO#&@#####=61+  $3,=#+.                  ojKJHFDJDJDJJDJJJDJDDJFFHHJFJFJJHJHJHH",
"HHHDYYYYYYYYYYYYYYYYYYYYYYYYY  OvJHFFGGHHHFBNSBbvvbmMMMMmMNCFSj+XrHSCNxr#                 X7JJHHJDJFDJJFDJJDDJJDJHHHHHHJJFHFHJFF",
"HHHDYYYYYYYYYYYYYYYYYYYYYYYYY  OvJJJJGHHHFHJFJFJJJKKJGHHFFFJJLS2X7JJJFJJdo    XX           -APHHJJJFJDDJJDJJHHDJJFHHHHFJFHHJHHFH",
"HFHGYYYYYYYYYYYYYYYYYYYYYYYYY  OvJHFGHHHHHFHFJFJHHJHFHHHFJFFFJKrX;ZJFHKPcO  X$wu$XX        XuVNZJJJJJJJJJDDDHJHHJFHFHHHHJHHHJFHH",
"HJJHYYYYYYYYYYYYYYYYYYYYYYYYY  OvLHHHHHHHHHHHFJFHHFHHHFHHJJHJJKgo>ZHJJLS7  XwNFndke#        o&*<9ygvNZJJJJJJDHHHFJHJHHHHHHFJHHHH",
"FHHHYYYYYYYYYYYYYYYYYYYYYYYYY  olPJGFHHHHHHHJHFHHHHFHHHHHHHJHJKjo,SJJKZwX  =SLJSFLJl+          X$@o#$>9ignZGGGDJDHJJJDDJHHJFJFFF",
"FJJDYYYYYYYYYYYYYYYYYYYYYYYYY   ,ZPJHHHFHHFHFHHHHHHHHHHFJFFHHJKio;xNpr>.   5SJHJFKLm#          XX@XXX o$>,3yvGJDJJDDJJJDJFHHDJFJ",
"FFHDYYYYYYYYYYYYYYYYYYYYYYYYYY  o9ZJHFHHHHJHJHJHHJFJFHJHHJJFHKA:=jBB3o    ;MKFGGHJS7        X@%%%%%@@$4zvgyyvHDHDJDJDJJJJHHHHHHH",
"FHHDYYYYYYYYYYYYYYYYYYYYYYYYYY  XoyDJHHHHFJHHHFFFFHFHHFFFFHHJJs<nPLZ8.   X2bnSGGJJjo       @7mCZZZBBNBAKJJDDDDHHDJJJDJJDFJFJHHFH",
"JJHDYYYYYYYYYYYYYYYYYYYYYYYYYYY XX@pDJGHJFJHHFFJHHDDHHHHHJJJSh;tZmu=o     .#1nJGJS<      X=lSJHHJFFJKJHJJJDJDDJDJJDJJJDJJJJDHFFF",
"HJJFYYYYYYYYYYYYYYYYYYYYYYYYYYYX   #pDJJFHFHFHFJJJDjNJJHJLJn2+o61+. o;+    oiCFGJxO     #wMJHJHHFJFFHGHHDJJDJJDJDJJHDJJDDDJJJJFF",
"FFFFYYYYYYYYYYYYYYYYYYYYYYYYYYYY    #jGJJFHJJDBvmFD1:bSNvkr&   .  .&fSk2o  +xLJJD7X   o2vFKJJFJFJJFFHHHHJDDJJDJDJDDJDJJJJJDJFJJF",
"HHFJYYYYYYYYYYYYYYYYYYYYYYYYYYYYY    &lJJFHFFD9#$49o #<$+O.       *cKJJDt. +gPJHM#  X-fZPJFHFGFJFJFHHHHHJDJDJJJDJJDJJJDDJDJFJFJF",
"HHHDYYYYYYYYYYYYYYYYYYYYYYYYYYYYYY    *bJJFHJS1   X              ozLKFJLB$ odLKJd. #dZLJKGGHFJJJHFJHFHFJHFJJFHJHFHHJJFHFHHFHHFFJ",
"HHHDYYYYYYYYYYYYYYYYYYYYYYYYYYYYYYY   osJJHFGGj=###=;;#ooOOOO$,;X&CIJFJKS> okKLS< X6VASHJGJFHFFFFHFHJHFJJFHHFJFJJHJFHHHJFJJHJFFF",
"HJHFYYYYYYYYYYYYYYYYYYYYYYYYYYYYYYYY  OzJJFHGHDBmNNCZCNxjlzlxNFn#OhnJSSDj+ +nLLko  X&=19kNFJFJFFHFHJHJHHHHFHJHHHFHFJJHJHHHHHJJFF",
"JFHDYYYYYYYYYYYYYYYYYYYYYYYYYYYYYYYY  +NJFJFJFJJKJFHHHKJHJJJJKLV& #uB927+  *VLS:       Xo*wxZFFFFHFJHHFJHHJJHHFJJHHHFHHHJHJFFJHJ",
"FHJFYYYYYYYYYYYYYYYYYYYYYYYYYYYYYYYY  OnKKFHFHFJHFHFJFHHHJJHHJLnO X%=o X   -SLdo    XX X. o$%2rgDHFHHHHHHJFHFJHJJFHHJHHHJHJHJFFF",
"FJFDYYYYYYYYYYYYYYYYYYYYYYYYYYYYYYYY  XwFLJFJFJFHHHHGSFGHHJFHLJtX          7LV*    X7yw99994>,4fBFHJHHHHHFHHHHHFHJFJHHHHHHFHFJHF",
"FHJFYYYYYYYYYYYYYYYYYYYYYYYYYYYYYYYYY  orNJKJFHHHFHFZxBFHHFJKSd#          okJeX    &ZPPLLLKJDFFFFJHHJHHHHJHJHJHHHHHHHHHHFJJFJFHH",
"HHHDYYYYYYYYYYYYYYYYYYYYYYYYYYYYYYYYY   X=fCKJJHFJFJV6lHJJJFn9O           #lhO     XwzmZKPKJKKJJFFFHFFHHJFHHHFHFFJJFHHHHHHHHHJHF",
"HHHFYYYYYYYYYYYYYYYYYYYYYYYYYYYYYYYYYY    X<kSJHJJHJA<tJISMq&.             $X       XX#-8dzNFKKHJJJHHHHHFJFJFJHJHJHHHHHHHHHJHFFJ",
"HHHFYYYYYYYYYYYYYYYYYYYYYYYYYYYYYYYYYY      #7xVFPJLG13DN0&                             XXo*9kmVFFKJJJHHJJJFHFFHFFHFFHHHHHFHFHFF",
"HHJFYYYYYYYYYYYYYYYYYYYYYYYYYYYYYYYYYYY      XO=7gvNM1+6&o                                  XX#=27yglnBDJKJJHHHFJJJKJJJJHHJJHFFF",
"HHFFYYYYYYYYYYYYYYYYYYYYYYYYYYYYYYYYYYYYY       XXO#+X                                           XXoo+=19fhlbmCZSJJKKJJJHJLJDFFJ",
"HHHFYYYYYYYYYYYYYYYYYYYYYYYYYYYYYYYYYYYYYY                                                               .oO+#=>28ryddfffddjVDFF",
"HHHFYYYYYYYYYYYYYYYYYYYYYYYYYYYYYYYYYYYYYYYY                                  YYYY                               XX.XXXoXXX,VJFF",
"HHHFYYYYYYYYYYYYYYYYYYYYYYYYYYYYYYYYYYYYYYYYY                               YYYYYYYYY                                   XXX>ZJFF",
"FHJFYYYYYYYYYYYYYYYYYYYYYYYYYYYYYYYYYYYYYYYYYYY                            YYYYYYYYYYYYYYY                               XX,DHFJ",
"HJHFYYYYYYYYYYYYYYYYYYYYYYYYYYYYYYYYYYYYYYYYYYYYOOO                     X YYYYYYYYYYYYYYYYYYYYX                           X9JJFF",
"HFHFFYYYYYYYYYYYYYYYYYYYYYYYYYYYYYYYYYYYYYYYYYYYYYXX                    YYYYYYYYYYYYYYYYYYYYYYYYYYYYY                     OjPHHF",
"HFJHFYYYYYYYYYYYYYYYYYYYYYYYYYYYYYYYYYYYYYYYYYYYYYYYYYYYYYYYYYYYYYYYYYYYYYYYYYYYYYYYYYYYYYYYYYYYYYYYYYYYYYYYY             <ZKHFH",
"JFJHJYYYYYYYYYYYYYYYYYYYYYYYYYYYYYYYYYYYYYYYYYYYYYYYYYYYYYYYYYYYYYYYYYYYYYYYYYYYYYYYYYYYYYYYYYYYYYYYYYYYYYYYYYYYYYYY     OjJJHHH",
"FFHFJHYYYYYYYYYYYYYYYYYYYYYYYYYYYYYYYYYYYYYYYYYYYYYYYYYYYYYYYYYYYYYYYYYYYYYYYYYYYYYYYYYYYYYYYYYYYYYYYYYYYYYYYYYYYYYYYYYYYYDHJHHF",
"FJJHFHDYYYYYYYYYYYYYYYYYYYYYYYYYYYYYYYYYYYYYYYYYYYYYYYYYYYYYYYYYYYYYYYYYYYYYYYYYYYYYYYYYYYYYYYYYYYYYYYYYYYYYYYYYYYYYYYYYYYHHHFFH",
"FJJHFJJYYYYYYYYYYYYYYYYYYYYYYYYYYYYYYYYYYYYYYYYYYYYYYYYYYYYYYYYYYYYYYYYYYYYYYYYYYYYYYYYYYYYYYYYYYYYYYYYYYYYYYYYYYYYYYYYYYJJJHHJF",
"HFHHJFHFYYYYYYYYYYYYYYYYYYYYYYYYYYYYYYYYYYYYYYYYYYYYYYYYYYYYYYYYYYYYYYYYYYYYYYYYYYYYYYYYYYYYYYYYYYYYYYYYYYYYYYYYYYYYYYYYFHJHHHHJ",
"GJGJGJJGHYYYYYYYYYYYYYYYYYYYYYYYYYYYYYYYYYYYYYYYYYYYYYYYYYYYYYYYYYYYYYYYYYYYYYYYYYYYYYYYYYYYYYYYYYYYYYYYYYYYYYYYYYYYYYYGHJJHHHHH",
"GGGGJGJJHHYYYYYYYYYYYYYYYYYYYYYYYYYYYYYYYYYYYYYYYYYYYYYYYYYYYYYYYYYYYYYYYYYYYYYYYYYYYYYYYYYYYYYYYYYYYYYYYYYYYYYYYYYYYYHGHHHHHHHH",
"GGGJGGJJHFFFYYYYYYYYYYYYYYYYYYYYYYYYYYYYYYYYYYYYYYYYYYYYYYYYYYYYYYYYYYYYYYYYYYYYYYYYYYYYYYYYYYYYYYYYYYYYYYYYYYYYYYYYHHHJJHHHGGHF",
"GGGGJGGJHHJFHFYYYYYYYYYYYYYYYYYYYYYYYYYYYYYYYYYYYYYYYYYYYYYYYYYYYYYYYYYYYYYYYYYYYYYYYYYYYYYYYYYYYYYYYYYYYYYYYYYYYYDDHHHHHHHHHHFH",
"GHHGJGGGHHHJHFHFDDYYYYYYYYYYYYDDDDDDGGDDDDDGGGDDGGGGGGGGUKGGGGGGDDGDDDGGFDGDGDGDFDGDDGGDHDGDDGGDDDYYYYYYYYYYYYDFHFHFHKHHGGGGHHHH",
"GGGJGGGJHJHHHHJHHHHHHHHHJHFJHHHHHHHHHHGHHHGGHHHGKGGGGGGGIIGGGKGGHHHHHHHHHHHKGGGJJHHHHHJJJHHJHHHJHHHHHHHHHHHHHHHHHHHJHHGHJGGJHGHG",
"GGGHGGHHHHHHHHHHHHHHHHHJHHJHHHHHHHHHJHJHJHHJGJHHGKGKGGGGGGGGGGKGHJHJHHHHHHHHJJGGHHHHHHHHHHHHHHHHHHHHJHHHHHHHHHHHHHHHHHHHHHGGHHHH",
"GGHHGGHHHHHJHHHHHJHHHHHHJHHHJHHJHHHHHHHHGJHHJHJHGGGGGGGKGGKGGGGGJHHHHHHHHHHHGGJGHHHJHHHHHHHHHHHHHHJHHHHHJHHHHHHJHHHHGHGHGHGHGHHG",
"DHHHHHHHGGKGGGGGGGGGGGGGGGGGGGGGGGGKGGGGGGGGKGGGGKGKGGKGGKGGGKGGGGGGGGKGGGGGGKGGKGGKGGKGGGKGGKGGHHHHHHHHGKGGGGGGGGGGGGGGGGGKGGGG",
"FHHHHHHHGGGGGGGGGKGGKGGKKGGGGGGGGKGGGGGGKGKGGGGGGGGGGGGGGGGGGGKGKGGGGGGGGGKGGGGKGGGGKGGGGGGGGGGGHHHHHHHHGGGGGKGGKGGGGGGKGGGGGGGG",
"FHHHHJGHGGGKKGGGGGGGGGGGGGGGGGGKGGGGGGGKGKGGGGGGGGGGGGGKGGGGGKGGGGGKKGGGGKGGGGGGGGGGGGGGKGGGGGGGHHHHHHHHGGGGGGGGGGGGGGGGKGGGGGKG",
"FHHHHGHHKGGGGGGKKGGKGKGGGGKGGGGGGGKGKGGGGGGGKGGKGGGKGGGGGKGGGGGGGGGGGGKGGGGKGGGGKGGKGGGGGGKGGKGGHHHHJHHHKGGKGGGKKGGKGKGGGGKGGGGG",
"GGGGHHHHGGKGGJGJGGGGGKGKGGGGGGGGGGGGKKGGGGGGKGGGGGGGGGGGGGGGGGGGGGGGGGKGGGGGGGGKGGKGGGGKGGGGGGGGGKGGHHHIGKGGGGKGGGGGGGGGGGGGGKGG",
"GJGJHHHHGGGGGGGGGGGGGGGGGGKGKGGGGKGGGGGGKGGGGGGGGGKGKGGGGGGKGGKGGKGGGGGGGKKGKGGGGGGGGGGGGGGGGKKGGGGKHGGGGGGGGGGGGGKGKGKGGGKGGGGG",
"GGGGGGHJKGGGGKJGKGGGGGKGKGKGGKKGGGGGGGGGGGGGGGKGGGKGGKKGGKKGGKGGGGGGGGGGKGGGGGKGGGGGGKKGGKKGGGKGGGGGGGGGGGGGGKGGGGGGGGKGKGGGGGGG",
"GHGJGJGGGGGGGGGGGGKGGGGGGGGGGGGGGGGKGGGGGGGGGKGGGGGGGGGGGGGGGGKGGGGKKGGGGGGGGGGGGGKGGGGGGGGGGGGGKGGGGGGGGKGGGGKGGKGGGGGGGGKGGGGG",
"GGHHJHHHHHHHGJGJGJJGGGGGGGGGKGGGGGKGGGGGGGKGGGGGKGGGGGGGGGKGGGGGKGGGGGGGGGKGGGGGGGGGKGGGGGGGGGGGGGGKGGGGKGGGGKGGGGGGGGGGGKKGGGGG",
"GGGHHHHHHHHHGJGGGGGJKGGGGGGGGGGGGGGGGGGKGGGGGKGGGGGKGGGKGGGGKGGGGGGGKGGGGGGGGGGGGKGGGGGGGGKGGGGKGGGGGKGGGGGKGGGGGKGGGGKGGGGGGGGG",
"GHHHHHHHGHHHJGGGJGJJGGGGKGGGGKKGGGGGKGGGKGGGGGGGGKGGKGGKGGGGGGKGGGGKGGGKKGGKKGGGGGGGGGKGKGGGGGGGGGGGGGGKGKGGGGGGGGKGKGGGGKGGGGGG",
"GGHHHHHHKHHGGJGGGGGGGGKGGGGGGGGGKGGGGKGGGGGGGKGKGGGGGGGGGGGGGGGGGKGGGGGGGGGGGGGKGGGKKGGGGGGKKGGGGGKGGGGGGGGGKGGGKGGGGGGKGGGGGGGK",
"GGJGGGHHGGGGGGGGGGJGKGGGGGGGGGGGGGGGGGGGGKGGGKGGGGGKGGGGGIGGGGGGKGGGKGGGGKGGGGGGGGGGGGKGGKGGGGGGGGGGGGGGGGKGGGKGGGGGGGGGGGKGGGGG",
"GGHGJGHHGGGKKGGGGJGJGGGGGKGGGGGGGGKGKGGGGGGGGGGGKGGGGGGKGGKGGKGKGGGGGGGGGGGGGKGGGGKGGGGGGGGGGKGGKGGGGKGKKGGGGGGGGGGKGKGGKGGGKGGG",
"JGGHGGHHGGGGGGGKGGJGGGKGGGGGGGGKKGGGGGGKGKKGKGGGGGKGGGGGGGGGGKGGGGGGGGKGGGGGGGKGKGGGGGGGKGGGGGGGGGGGGKGGGGKGGGGGGGGGGGGKGGGGGGGG",
"mJHGGGHHGKGGGGGGGGGJGGGGGGGKGGGGGGGGGGGGGGGGGGGKGGGGGKGGGGGGGGGGGGGGIGGGKGGGGKGGGGKGGGKGGGGGKGKGGGGKGGGGGGGGGKGGGGGGGGGGGGKGGGGB",
"eIGGGKGGIGGGGAGGGGGGJGGGJGGGGGKGGGGGGGGGKGGGGGGGGKGGGGGKGGGGGGGGKGGGGGGGGGGGGGGGGGKGGGGKGGGKGGKGGIGGDIGHHHHGGGGGKGGGGGGKGGGGGGKa",
"&CGGGGGGGGGGGIGGGJGJGGGJJJGGGGGGGGKGGGGGGGGKKGGGGGGKGGGGGGKGGGGIGGKGGKKGGGGKGKKGGGGGGGGGGGGGGGGGGGGGGHHHHHHHJGGGGGGGGKGGGGGGKGG-",
"OzIGGGGGGGAGIAGGGJGJJGJGGGGGGGGGGKKGKGGKGGGGGGGKGGGGKGGGGGGGGGGGGGGGGGGGKGGGGGGGGGGGKGGGGGGGGKGKGGGGGGGGHHGGGGGGGGKGGGGGGGGKGKb&",
" 5AIGGGGGGIGGGAIGGJGGGGGGJGJGGGKGGGGGGGGGKGGGGGGKGGGGGGGGKKGGGGGKGGGGGKGGGGGGKGGKGGKGGKGGGKGGGGGGGGGGGGGHHGGJGGAGGGGGGKGGKGGKG0O",
"Y@cIAGGGGGGGGGIGGGGJGGGGGGGGKGGKGGGGGGIGGGGGKGGGGGGGGGGGGGKGGGGGGGGKGGKGGGGGGGGGGKGGGGIGGGGGGGGGGGGGGGGGHHHHGIAIKGGGGGKGSIISKb&Y",
"Y -BIGIAGGGGAIAGGGGGGJJGGGKGGGGGGGGGGGGGGKGGGGGGGGGGGGKGGGGGGGGGGGGGGGGGGKGGGKGGGGGGGGGGGKKGKGGGGGGKGGGGHHHHAIGGGGKGKGGGISAIC-OY",
"Y  6AIIGGGGGGGGJJJGJGGGJGGGGGGGGIGGGGGGGGGGGGGGGGGGGKGGGGGGKIDAIKGGGGGGGGKGGGIGGGGGGGGGGGGKGGGGGGGGGGGHHHHHHGGIGGKGGGKGGASIA0XXY",
"YY OeAGGGGGKAIGGGGGGGJJGKGGKGGGKGGGGGGGAGGGKKGGKKGGKGGGGKGGGGGGGGGKGGKGGGGGGGGGGKGGGGGGAGGGGGGKGGGKGIHHHHHHHGGSGGGGGGGGGGIAaOXYY",
"YY  o0VKJHHGHGJJGGGGGJGGGGGGGGKGIAGAGGGIAIGAAIAIGGKGGGGKAGGGGGAGIGGAGAAIGGIGGGGGGIAIAGGIAIGGAIAIKGGGGGGGGGGGJGGJSJJKHHHHIVeO  YY",
"YYY  X5bGKJHSHSJJJGGGGGHKGGGGGGGGGGIAIGGGGGIGGGGGGGGGGGGIGGGAIIGAGGIGIGGGGGGGGGGAIGGGGGGGGGAGGGGGGGGKGGKGGJGGJGGKKSSHHKGM:o  YYY",
"YYYY   &ecAJKKSGGGGGGGGGGGGGGGGGGGGGGGGGGGGGGGGGGGGGGGGGGGGGGGGGGGGGGGGGGGGGGGGGGGGGGGGGGGGIGGGGGGGGGGGGGGHGGGGGJSJJJSMe&   YYYY",
"YYYYY    @5acNZCCVBBBBBVBBBBBBBBBBBVBBBBBBBBBBBVBBBBBBBBBBBVBBBBBBBBBBBVBBBBBBBBBBBVBBBBBBBBBBBVBBBBBBBBBBBVBBVCCABct5&X   YYYYY",
"YYYYYY     o@&&-&&&&&&&&&&&&-&&&&&&&&&&&&&&&&&&&&&&&&&&&&&&&&&&&&&&&&&&&&&&&0-&&&&&&&&&&&&&&&&&&&&&&&&&&&&&&&&&-&-&Oo     YYYYYY",
"YYYYYYY                     @OXX                    OOXO                    -&&&                    XX X                 YYYYYYY",
"YYYYYYYYY                                             X                     XX&O                                       YYYYYYYYY",
"YYYYYYYYYYYY                                                               XXOOO                                    YYYYYYYYYYYY"
};
