/* XPM */
static char *flame[] = {
/* columns rows colors chars-per-pixel */
"128 128 74 1 ",
"  c #000000",
". c #080705",
"X c #070805",
"o c #0A0A05",
"O c #0E0E0B",
"+ c #100F06",
"@ c #100F0B",
"# c #0F100C",
"$ c #111007",
"% c #13120D",
"& c #181709",
"* c #1A190D",
"= c #141411",
"- c #181710",
"; c #1B1A14",
": c #1F1E19",
"> c #211F16",
", c #201F19",
"< c #242316",
"1 c #282717",
"2 c #24231A",
"3 c #28271A",
"4 c #2C2B1C",
"5 c #302F1F",
"6 c #2E2C21",
"7 c #302F20",
"8 c #343323",
"9 c #383626",
"0 c #3A3827",
"q c #373528",
"w c #383628",
"e c #3D3B2C",
"r c #403E2E",
"t c #403F31",
"y c #42412E",
"u c #444233",
"i c #484736",
"p c #4B4937",
"a c #464438",
"s c #484738",
"d c #4D4B3B",
"f c #514F3E",
"g c #53503F",
"h c #555342",
"j c #595746",
"k c #5B5947",
"l c #5A5748",
"z c #5D5B4A",
"x c #615E4D",
"c c #625F50",
"v c #63614E",
"b c #656252",
"n c #696755",
"m c #6C6956",
"M c #6A6758",
"N c #6B6A59",
"B c #716E5C",
"V c #72705E",
"C c #767361",
"Z c #797664",
"A c #7C7A66",
"S c #7F7C68",
"D c #817E6A",
"F c #85846F",
"G c #88856F",
"H c #878672",
"J c #898772",
"K c #8B8974",
"L c #8F8C78",
"P c #908E77",
"I c #918E79",
"U c #95927D",
"Y c #999682",
"T c None",
/* pixels */
"TTTTTTTTTTTHHHHHHHHKHJJJJJHJJJHJJJHJJHHHJJHJJJHJJHHJJHJHHHKKHHHHHHJJHKHKHHHHHKHHJJJHJJJJJJJJKHHHKHHHHHHJHHHJHJHJJJJHDTTTTTTTTTTT",
"TTTTTTTTDHKKKHKDHKHHHHJJJJHHHJJJJJJJJJHHJJHJJHJJJJHHJJJJHHHHHKKHJJKHJJHJJHHHHHKHJHJJJJJHJJJJHHKHHHHHKHHKKHHJJJJJJJJJJJKDTTTTTTTT",
"TTTTTTTHDLKHHHHYKHDLHHHHHHHHHHHHHJHHHHHHHHHHHHHHHHHHHHJHHHHHHHHHHHHHHHHHHHHHHHHHHHHHHHHHHHJHHHHHHHHHHHHHHHHHHHHKKKJJJJJJKTTTTTTT",
"TTTTTFJJKKHKLHLDDCNMMNMMMMMNMMNNMMMMMMNMMMNNMMNNMMNMMMMNNMMNNNMMMMMMMMMNNNNMNMNNMNMMMMMMMMMNMNNMNNMMMMNNMMMNNNVSJKJJJJJJKJHTTTTT",
"TTTTFHJJKHHHKAxt6=##########O###O###O#OO######OO################OO##########O###O###O#OO#O##########O###OO##O@*2ezZKKJJJJJJFTTTT",
"TTTTHJJJJKLZh2OX                                                                                                .O2dZKKJJJJJFTTT",
"TTTJJJKJKHz3o                                                                                                      o<lFKJJJJHTTT",
"TTJJJJJKDd%                                                                                                          %uDKJJJJJTT",
"TTJJKJKStO     TTTTTTTTTTTTTTTTTTTTTTTTTTTTTTTTTTTTTTTTTTTTTTTTTTTTTTTTTTTTTTTTTTTTTTTTTTTTTTTTTTTTTTTTTTTTTTTTTT     OeDJDLKDTT",
"TJJKJKDhO   TTTTTTTTTTTTTTTTTTTTTTTTTTTTTTTTTTTTTTTTTTTTTTTTTTTTTTTTTTTTTTTTTTTTTTTTTTTTTTTTTTTTTTTTTTTTTTTTTTTTTTTT   otDLHHKKT",
"TJKKKLl=   TTTTTTTTTTTTTTTTTTTTTTTTTTTTTTTTTTTTTTTTTTTTTTTTTTTTTTTTTTTTTTTTTTTTTTTTTTTTTTTTTTTTTTTTTTTTTTTTTTTTT TTTTT  @hKKJJHT",
"GJJJJB:  TTTTTTTTTTTTTTTTTTTTTTTTTTTTTTTTTTTTTTTTTTTTTTTTTTTTTTTTTTTTTTTTTTTTTTTTTTTTTTTTTTTTTTTTTTTTTTTTTT  ;sqO  TTTT .=MKJJJK",
"GJJKDt. TTTTTTTTTTTTTTTTTTTTTTTTTTTTTTTTTTTTTTTTTTTTTTTTTTTTTTTTTTTTTTTTTTTTTTTTTTTTTTTTTTTTTTTTTTTTTTTTTT  :bIFh=   TTT .eHKJDK",
"JJKKC, TTTTTTTTTTTTTTTTTTTTTTTTTTTTTTTTTTTTTTTTTTTTTTTTTTTTTTTTTTTTTTTTTTTTTTTTTTTTTTTTTTTTTTTTTTTTTTTTTT  :MLIKKx:  TTTT %NKJJK",
"JJKIho TTTTTTTTTTTTTTTTTTTTTTTTTTTTTTTTTTTTTTTTTTTTTTTTTTTTTTTTTTTTTTTTTTTTTTTTTTTTTTTTTTTTTTTTTTTTTTTTT  :MYLHJKLc;  TTTT.aKKJJ",
"JJKD6 TTTTTTTTTTTTTTTTTTTTTTTTTTTTTTTTTTTTTTTTTTTTTTTTTTTTTTTTTTTTTTTTTTTTTTTTTTTTTTTTTTTTTTTTTTTTTTTTT  6MLKHHJKKKjO  TTT 6DKJJ",
"JJJC:TTTTTTTTTTTTTTTTTTTTTTTTTTTTTTTTTTTTTTTTTTTTTTTTTTTTTTTTTTTTTTTTTTTTTTTTTTTTTTTTTTTTTTTTTTTTTTTTT  3BPPJJJJJJID<  TTTT%NKJJ",
"JJKM=TTTTTTTTTTTTTTTTTTTTTTTTTTTTTTTTTTTTTTTTTTTTTTTTTTTTTTTTTTTTTTTTTTTTTTTTTTTTTTTTTTTTTTTTTTTTTTTT X4BJFGKJJJJKDdO   TTT%bLJH",
"GPKM:TTTTTTTTTTTTTTTTTTTTTTTTTTTTTTTTTTTTTTTTTTTTTTTTTTTTTTTTTTTTTTTTTTTTTTTTTTT    TTTTTTTTTTTTTTT  o0APFmvFKKKIAu@   TTTTTbKJJ",
"GGKMTTTTTTTTTTTTTTTTTTTTTTTTTTTTTTTTTTTTTTTTTTTTTTTTTTTTTTTTTTTTTTTTTTTTT            TTTTTTTTTTT     5DUPJm55pbFBqO   TTTTTTbKJJ",
"GJJmTTTTTTTTTTTTTTTTTTTTTTTTTTTTTTTTTTTTTTTTTTTTTTTTTTTTTTTTTTTTTTTTT      o=42%      TTTTTTT        4hbmCZroo%<*X   TTTTTTTmKKG",
"GPKBTTTTTTTTTTTTTTTTTTTTTTTTTTTTTTTTTTTTTTTTTTTTTTTTTTTTTTTTTTTTTTT     o%1gVJGzO      TTTT          XoO@--o        TTTTTTTTmKKJ",
"GGKVTTTTTTTTTTTTTTTTTTTTTTTTTTTTTTTTTTTTTTTTTTT XO    TTTTTTTTTT      #6amGUUJZdo                                  TTTTTTTTTBJKJ",
"KGGDTTTTTTTTTTTTTTTTTTTTTTTTTTTTTTTTTTTTTTTTTT O5g5o     TTTTT     o;wcSUUJmd4=O                                  TTTTTTTTTTDJJG",
"GKGGTTTTTTTTTTTTTTTTTTTTTTTTTTTTTTTTTTTTTTTTT -hFID7o            %5jVKYKBf5%o                                   TTTTTTTTTTTTGJJJ",
"KGGGTTTTTTTTTTTTTTTTTTTTTTTTTTTTTTTTTTTTTTTT ;cKPKPBr<;%@oX     ;MGUIAxq-.                            TTTTTTTTTTTTTTTTTTTTTTHJJJ",
"KGKGTTTTTTTTTTTTTTTTTTTTTTTTTTTTTTTTTTTTTTT =xPKGGJKJSZBxjw@    %dCNp>o.                          TTTTTTTTTTTTTTTTTTTTTTTTTTGJJJ",
"GKKGTTTTTTTTTTTTTTTTTTTTTTTTTTTTTTTTTTTTTT XuKPGJJJJKJGGLIKx=    O%%.                           TTTTTTTTTTTTTTTTTTTTTTTTTTTTGJJJ",
"JJHGTTTTTTTTTTTTTTTTTTTTTTTTTTTTTTTTTTTTTT OxUKJKGGJGJJJJKPPto      XXX                       TTTTTTTTTTTTTTTTTTTTTTTTTTTTTTGJJJ",
"JHHGTTTTTTTTTTTTTTTTTTTTTTTTTTTTTTTTTTTTT  OfDJJGJJJJJKGJGJPx@   XO<8ry01*o                 TTTTTTTTTTTTTTTTTTTTTTTTTTTTTTTTGJJF",
"JJJGTTTTTTTTTTTTTTTTTTTTTTTTTTTT            %fGJJJKGJJGGJJJJB%  %yvAKUPKANf>o             TTTTTTTTTTTTTTTTTTTTTTTTTTTTTTTTTTFJJJ",
"JJJGTTTTTTTTTTTTTTTTTTTTTTTT    XO%%X    *;%2vKJGKKVNGKGJJJJC-.3nJKJVxmJKIKZf;X          TTTTTTTTTTTTTTTTTTTTTTTTTTTTTTTTTTTFJJJ",
"JJJGTTTTTTTTTTTTTTTTTTTTT    +%3yxVA0X  OkDVAJKKJLB5:fFJJFJJD59ZPPKFr$2VGJJPKBq+         TTTTTTTTTTTTTTTTTTTTTTTTTTTTTTTTTTTHJJG",
"JKJGTTTTTTTTTTTTTTTTTT   oO;0jBFIUYYzO  XuLUIIIKAj:  $sDJJJGDBDPJJJF8o2VPJGGJKDu%          TTTTTTTTTTTTTTTTTTTTTTTTTTTTTTTTTFJJJ",
"JJJGTTTTTTTTTTTTTTT   o%<uxZJIUIPDnp<    @rzbclt<O    ;NPJJGGKJJGJJGMdxGJGJJJJKFj=          TTTTTTTTTTTTTTTTTTTTTTTTTTTTTTTTJJJJ",
"JJJGTTTTTTTTTTTTT   o;txAKKKPIDbr>@.      XO@@Oo      OkIKJJJJGJGJGJKKKJJGGJJJGPKx:          TTTTTTTTTTTTTTTTTTTTTTTTTTTTTTTGJJJ",
"JJJFTTTTTTTTTTTTT  %dZKKJKKKVg1%.                      :BPJJGJJGJJJGGKJGJJJJKGGKKIm2           TTTTTTTTTTTTTTTTTTTTTTTTTTTTTGJJJ",
"GJJGTTTTTTTTTTTTT .uIUKJJGZp;+                         X5DJJJJJJJJJJJGGJGJJKJJKGJKPV8O          TTTTTTTTTTTTTTTTTTTTTTTTTTTTGJJF",
"JJJGTTTTTTTTTTTTT .iULJJJA8O                            .rDJGGJJJJJGJJKGGJJJJJKGGJJIAu$           TTTTTTTTTTTTTTTTTTTTTTTTTTFJJJ",
"JJJGTTTTTTTTTTTT  .fUKJJKm%                              -BJJJJJJJKJJGKJKJJJJJJJJJJJKFh=           TTTTTTTTTTTTTTTTTTTTTTTTTJJJF",
"JJJGTTTTTTTTT     oaILJJLb%                              ;VPGJKGJJKGJJJJJJJJJJJKJJGJGPGx:           TTTTTTTTTTTTTTTTTTTTTTTTJJJJ",
"GJJGTTTTTT         -xGIKLbO                              1GKJJGKKGJJJKKJGPJJJJJKJJKGKKPPM,X           TTTTTTTTTTTTTTTTTTTTTTJJJJ",
"JKJKTTTT            %uNKUN%                             .0LKJJKGGJKJJGGJJGJGGGJGGJJKJGFLIA8X           TTTTTTTTTTTTTTTTTTTTTGJJJ",
"JGJFTT               o-uVM%                             .yPKGJGJKGJJJKJJJGKJPGJJJJJJJJGFKJjO             TTTTTTTTTTTTTTTTTTTJJGJ",
"GGKx%                  X%4X                             ouPJDGJJKJGKKJJKJKGKJGJJKJJJJGJDg5*               TTTTTTTTTTTTTTTTTTFJJG",
"KJPgo                                                   X0VjBFJGJJJJJJJGJJJJJKJGGJJKJJGDr+     .X          TTTTTTTTTTTTTTTTTJJJJ",
"GPPfO                                                    @17AJGJJJJJJJJKKJGKKJJKJJJJJGGFVu-   @dto           TTTTTTTTTTTTTTTJKGJ",
"GGJfo                                                     +pPKJJJJJGKJJJJJJJJJJJJKGKJKJGJFx7-;fIN@            TTTTTTTTTTTTTTFGJJ",
"GKKfo            **                                       ObUJJJJJJKJJJJJJKGJKJJKJJKGJGJGKKDBBIPuX            TTTTTTTTTTTTTTHJJJ",
"KGKf+           oyz%                                      ouHKGJGKJGJJKJGKJJJJJJJJJJKJKJJKGKKDxwO              TTTTTTTTTTTTTJJJJ",
"GKKfO           opLrX                                      $aDKGGJJJJJJJJJJJJJKGGJGKJJJJJGKGKB6.               TTTTTTTTTTTTTJJJJ",
"KKPfO           ofUZ2                                       OrDPKJGJJJJJJJKJJKJJKJJJJJKGJJJGHHz;                TTTTTTTTTTTTFGJJ",
"GKKfo       TTT @lIIM:                               TTT     oeAPKJJJJJJJJJJJGJJJJKJGKKJJJGKGKIB4               TTTTTTTTTTTTFJJG",
"JKKhO     TTTTT @nKIKb:                           TTTTTT      .5VKKJGJJJGJKJJKGKJGJJJJGJJJJJKGIIlO              TTTTTTTTTTTTFJKK",
"GKKfO   TTTTTTT %BKKKLM3X                       TTTTTTTT       X1nIKJGJJJGJJJGJJJKKJJJJJJJJJGKIN:                TTTTTTTTTTTFJJJ",
"JKKho  TTTTTTTT ;AKJJKIA3            o*;X      TTTTTTTTTT        >cKKJJGJJJJJJJKJJJJJJJKKJGKKPB2                 TTTTTTTTTTTFJJJ",
"JKKgO TTTTTTTTT 1FJGGGPJ8           ;dAzO     TTTTTTTTTTTTT       ;lJKJJJJKJGJJJJJJJKGKGJJHJLN2                 XTTTTTTTTTTTJJJJ",
"JKPg%TTTTTTTTTTXeKKJKJKA>          ;BIYb@   TTTTTTTTTTTTTTT        %pDIJGJJJJGJJJJJJJKGKJJHPC3                   TTTTTTTTTTTJJJJ",
"GKPxTTTTTTTTTT opIKJJGKB%          4JUYvO   TTTTTTTTTTTTTTT         OeAPKJGGJGJJGJJJJJJKGJJDq                    TTTTTTTTTTTJJJJ",
"GGKBTTTTTTTTTT OkPJGJJKz@         X0LUDuo   TTTTTTTTTTTTTT           .qCKKJKJJJJJJJGJJJGJKJao                    TTTTTTTTTTTFJJJ",
"KGKGTTTTTTTTTT %bKJJJKPpo         X8Nf2o   TTTTTTTTTTTTTTT         X  X3nUKJGGJJGJJPJJJJKIx%                     TTTTTTTTTTTFJJJ",
"GKGGTTTTTTTTTT %BJGKKKJ0.          o%o    TTTTTTTTTTTTTTTT        o7%   :nUJJJJJJKJJKJJJKZ,                     TTTTTTTTTTTTJJKF",
"GKGGTTTTTTTTTT 4DKJGGKD<                 TTTTTTTTTTTTTTTTT        @MgO   :nLKJGJJGJJGGHJJa.    X*+              TTTTTTTTTTTTFKJG",
"KGKGTTTTTTTTTToyKKJJJLB%               TTTTTTTTTTTTTTTTTTTT       Ohz%    >vGKJGGKGJGKHPm-     *eO              TTTTTTTTTTTTFJJJ",
"JJHGTTTTTTTTT OjPJJGKKx@             TTTTTTTTTTTTTTTTTTTTTTT     oo*3X     =dFKJJJGJJGJDw.    Odeo              TTTTTTTTTTTTHJJJ",
"JHHGTTTTTTTTT $bJJJJKPpo           TTTTTTTTTTTTTTTTTTTTTTTTTT   oa0o        %uDPJFJJGKPc&     :b:              TTTTTTTTTTTTTFJJJ",
"JJJGTTTTTTTTT ;AKJJHKH5           TTTTTTTTTTTTTTTTTTTTTTTTTTTT  %mzO         o7lkZJJJKGwX    osN=              TTTTTTTTTTTTTGJJJ",
"JJJGTTTTTTTTT 8JJGJJKC;           TTTTTTTTTTTTTTTTTTTTTTTTTTTT  %zz@           O%hPKJKZ-     %Mb%             TTTTTTTTTTTTTTGJJJ",
"JJJGTTTTTTTT odILGJJKb@           TTTTTTTTTTTTTTTTTTTTTTTTTTTT  X61o    TT       ;BKKJkO     =Zv@             TTTTTTTTTTTTTTGJJJ",
"JJJGTTTTTTTT OvKGJJJPfO           TTTTTTTTTTTTTTTTTTTTTTTTTTTTX&XX      TTTT     XqDUPrX     =Ngo            TTTTTTTTTTTTTTTGGJJ",
"FJJGTTTTTTTT ;VGJJJPJ0X          TTTTTTTTTTTTTTTTTTTTTTTTTTTT =z1      TTTTTT     orFP1X     X3%            TTTTTTTTTTTTTTTTFJJJ",
"JJJGTTTTTTTT 4GKGGJGZ:           TTTTTTTTTTTTTTTTTTTTTTTTTTTT <Hi.    TTTTTTTT     oex;                    TTTTTTTTTTTTTTTTTFJJJ",
"GJKFTTTTTTT ouLKJJJLc@           TTTTTTTTTTTTTTTTTTTTTTTTTTT  -n8     TTTTTTTTTT    XO                     TTTTTTTTTTTTTTTTTHJJJ",
"GJJFTTTTTTT OzKKGJJPp.           TTTTTTTTTTTTTTTTTTTTTTTTTT  XX<o    TTTTTTTTTTTT                         TTTTTTTTTTTTTTTTTTHJJJ",
"GKGGTTTTTTT %BKJJJPF7            TTTTTTTTTTTTTTTTTTTTTTTTTT %u$      TTTTTTTTTTTTT                       TTTTTTTTTTTTTTTTTTTJJJJ",
"KJJGTTTTTTT 1FKGJGFB-            TTTTTTTTTTTTTTTTTTTTTTTTT  4Aq     TTTTTTTTTTTTTTTT                    TTTTTTTTTTTTTTTTTTTTJJJJ",
"GJJFTTTTTT ouJKJJJKz@           TTTTTTTTTTTTTTTTTTTTTTTTT   ;n8     TTTTTTTTTTTTTTTTT                  TTTTTTTTTTTTTTTTTTTTTGJJF",
"GJJJTTTTTT @kPJGJJJr.           TTTTTTTTTTTTTTTTTTTTTTTTT   X<o    TTTTTTTTTTTTTTTTTTT               TTTTTTTTTTTTTTTTTTTTTTTGJJJ",
"JKJJTTTTTT *BGJJJJZ>            TTTTTTTTTTTTTTTTTTTTTTTT          TTTTTTTTTTTTTTTTTTTTTTT      X   TTTTTTTTTTTTTTTTTTTTTTTTTJJJJ",
"JGJJTTTTTT 5JJGJJPv%            TTTTTTTTTTTTTTTTTTTTTTT           TTTTTTTTTTTTTTTTTTTTTTTTTTTTTTTTTTTTTTTTTTTTTTTTTTTTTTTTTTJJJJ",
"JGJGTTTTT ogLKJJKKuo            TTTTTTTTTTTTTTTTTTTTTTT          TTTTTTTTTTTTTTTTTTTTTTTTTTTTTTTTTTTTTTTTTTTTTTTTTTTTTTTTTTTJKJJ",
"GKJJGTTTT %mLJJJKA,            TTTTTTTTTTTTTTTTTTTTTTT           TTTTTTTTTTTTTTTTTTTTTTTTTTTTTTTTTTTTTTTTTTTTTTTTTTTTTTTTTTTJJJJ",
"GJKJJTTTT ;APJJGKb%            TTTTTTTTTTTTTTTTTTTTTT           TTTTTTTTTTTTTTTTTTTTTTTTTTTTTTTTTTTTTTTTTTTTTTTTTTTTTTTTTTTHJKJJ",
"JGKJJTTTT OgGKKKKtX            TTTTTTTTTTTTTTTTTTTTTT          TTTTTTTTTTTTTTTTTTTTTTTTTTTTTTTTTTTTTTTTTTTTTTTTTTTTTTTTTTTTJJJJJ",
"GKJKGJTTTT %fDIUZ:            TTTTTTTTTTTTTTTTTTTTTT           TTTTTTTTTTTTTTTTTTTTTTTTTTTTTTTTTTTTTTTTTTTTTTTTTTTTTTTTTTTJJKJJJ",
"GGJJGJFTTTT O0NBwX         TTTTTTTTTTTTTTTTTTTTTTTT           TTTTTTTTTTTTTTTTTTTTTTTTTTTTTTTTTTTTTTTTTTTTTTTTTTTTTTTTTTTTJJJJJJ",
"KGKJKJFTTTTT X%%X      TTTTTTTTTTTTTTTTTTTTTTTTTTT           TTTTTTTTTTTTTTTTTTTTTTTTTTTTTTTTTTTTTTTTTTTTTTTTTTTTTTTTTTTTJJKJJJJ",
"JJJJKKJJTTTTT      TTTTTTTTTTTTTTTTTTTTTTTTTTTTTT            TTTTTTTTTTTTTTTTTTTTTTTTTTTTTTTTTTTTTTTTTTTTTTTTTTTTTTTTTTTJJJJJJJJ",
"HKHKHKKHJTTTTTTTTTTTTTTTTTTTTTTTTTTTTTTTTTTTTTTT         XX+TTTTTTTTTTTTTTTTTTTTTTTTTTTTTTTTTTTTTTTTTTTTTTTTTTTTTTTTTTTHJJKJJJJH",
"JHHHKHKHJJTTTTTTTTTTTTTTTTTTTTTTTTTTTTTTTTTTTTT          XXTTTTTTTTTTTTTTTTTTTTTTTTTTTTTTTTTTTTTTTTTTTTTTTTTTTTTTTTTTTHHKJJHJJHH",
"JJHKHHKHJJGGTTTTTTTTTTTTTTTTTTTTTTTTTTTTTTTTTT            TTTTTTTTTTTTTTTTTTTTTTTTTTTTTTTTTTTTTTTTTTTTTTTTTTTTTTTTTTHHHKJJJKHJHJ",
"JHHHHLKHJJJJHFTTTTTTTTTTTTTTTTTTTTTTTTTTTTTTTooooooooooXo;TTTTTTTTTTTTTTTTTTTTTTTTTTTTTTTTTTTTTTTTTTTTTTTTTTTTTTTTHHHKKKJJJJJJJJ",
"HHJJHHKKHKJJJJGHJFTTTTTTTTTTTTJFJJFFFFFJGGVvgspppiipiippgVPJHFFFGFHHFFHHHJHHHFHFJHHFFFFFJHFFFFHFFFTTTTTTTTTTTTFFHHJJKKKHJJJHJJJJ",
"HHHKKHHHHJJJJJJJHJHJJJJJJKKJJJJJJJJJJPJJGKKPIPLLPPPPPPPPPPKJJJHHJHJJJHJJJJJJJHHKJJKKJHJJJJKKJJJJJJHHJJJJHJJJJHHHJJJJHKHHJJJJJJJJ",
"FJJKJHJJHJHJJKJJJJJKJJJJJJJJJJJJJJJJJJJJKJJKKJKLPJJPJPPKKJJJKHKHJHKJHJJJJJJJJKHJJJJJJKHKKJJJJJKHJJJJJKHJHJJJHJHKHKJJHHKHHJHJHJHJ",
"JHHHKJJJJJJJJJJJKHKJJJKJKJJJKJJJJJJJJJJJJJJJJJJJJJJJJJJGJJGJJJJJKKJJJJJJJJJJJJKJJJJJKHJJKJJJJJJKJKJJKHKJKJKKJJKKHHKJKHHHHHHJJJHJ",
"GGJFJJJJKHHKHHHHKHHKJKFJJJHJHJHJHLHLHHHHHHHHKHKFHHHHKGKGJJJJGKHHHHLHHHHHHLHHHHHHHLHHHHHHLHHLHHHHJJHKHHHHHLHHHHHHHHHHHHHLHHHHHHHH",
"GJJGJJJJHHHHHKGHHKHHJJJJJJJJJJJJHHHHHHHHLHHHHHHKHKKHGKHKJJGJJHHJHHHHHLHHHHHHHHHLHHHHHLHHHHHHLHHHJJHHKKHKHHHHHLHLLHHHLHHHHHLHLHHH",
"GJJJJJJJHKHHHHKKHHHKFKGKJJJJJJJJHHKHLHHLHHHHKHKHKHKHKGKGKGKJJJJJHHHHHHLHHLHLLHHHHHLHHHLHHHHHHHHLJKHKHHKHHHHHHHLHHHHHHHHHHLHHHLHH",
"JJJJJHJJHHKKHKHHKHHHKGKHJJJJJJJJHHHHHHHHKHHPHKHKHHHKFKHKGKFGJJJJLHHHLHHHHHHHHHHHHHHHHHHHHHHLHHHHJJHHYHKHLHHLHHHHLHHLHHLHHHHHHHHH",
"HJJJJHJJHKHHHHHHHHHHHHGHKHJJJJJJHKHKJJJJHKHHKHKHHKHKKKHKGKGKJJJJHHHHHHLHHHHHHHLHHHLHLHHHHHLHHHHHHHHHHHHHHHLHHLHLHHHHLHHHLHHHHHLH",
"HJHJJJHHHKHHHHKHHKKHHHKHHKJHJJHHJJKHJHHJKHKHHKKHHGKGKFKHKGKGJJGGHHHLHHHHHHHHHHHHHHHHHHHHHHHHLHLHHLHHHHHHHHHHHHHHHHHHHHHLHHHHHHHH",
"HJJJJJHJHKHJHHHKKHKHKHKGKHJHHHHKJHJJJJJJHHHKHHHHKHHKKGHHJJGJGJGKHHHHHHLHHHLHHHHHHHHHHHHHLHHLHHHHHHLHHLHHHHHHHHHHHHHLHHHHHHHLLHHH",
"HJJJJJJJKHKJHHKHHKHKHKHKJJJJPHHHJHJJJJJJHKHHKHHKGKKHHKHKJJJJGJKGHHHHHHHHHHHHHHHHHHLHHLHHHHHHHLHHLHHHHHHHHLHHHLHHLHHHLHHHHHHHHHHH",
"HHJJHKHHHHHHJJJKGKKKKGJJJJJJJJKJJJJJJJGJJKJJJJKJKGKHGJJJJJJKGKKKHHHHHHHPHHHLHHLHHHHHHHLHLHHLHHHHHHHHLHHHLHHHHHHHLHHLHHHHLHHHLHHH",
"HHJJHKKHHHPHJJKKKJGGGJGKJKJJJJJJGKJJJJJJGGJGKJGGGKJJKJKGGKGGKGGGHLHHHHHHHLHHHHHHLHLHHHHHHHHHHHLHHHHLHHHHHHHLHHLHHHHHLHHLHHHHHHHH",
"HHJJKHKHHKHKJJJJGKJJKGJGJJJJJJJGJGGJJJJJJKGKGJKJJJJJJJJJKJKJJJKGHHHLHKHKHHHHLHHHHHLHHHHHHHHHHHHHHHHHHHHHHHHHLHHLHHHHHHHHHHHHHHHH",
"HHJJHHHKHHHHJJJJKGJJJKJJJJJJJKJJJJKJJJJJJJJJKJJJJJJJGKJJGJJJJJJGHLHHKHKHHHHHHHHHHHHHHHLHLHHHHLHHHHLHHHLHHHLHHHHHLHHLHHHHLHLHHHLH",
"HHHHJJHJHHHHPKKHKJJKJJJJJKGKJJJJKGJGJJKJJJGJKGJGKJJKGJJKJJJJKJJKHHHHHHHKHLHLHHHHHLHHHHHHHHHLHHHHLHHHHLHHLHHLHHHHHLHHHHLHHLHHHLHH",
"JHJJJJJJHHHHKHHHFKKFJGKJJJJJJKKGJJJKKJGJJKGKJJJKJJJJKJJJJKGKJJJJPHKHKHHHHHHHHHLHHHHLHLHHHLHHHLHHHHHLHHHHHHHHHHHLHHHHHHHHHHHLHHHH",
"JGJJJJJHPHHHHHKHKHJJJKJJJJJJJJJJJJJGJJKGJKJJJJJGJJJJJJJJJGKJJJJJHHHKHKHPHHHHHHHHHHHHLHHLHHHLLHHLHHHHHHHLHHHHHHHHHHHLHHHHHHHHHHHH",
"mKJJJJJJHHHHKHHHKGJKJGKJGKJJKGKJJKJKJJJJJJJJJKJKKGKJJJKGJJJJKGJKKHKHKHHHHHLHLHHHLHHHHHHHHHHHHHHHLHHHHLHHLHHLHLHHHHHHLHHHHLHHLHHV",
"tHHHHHHHKHKHHHLHFJKFKFKKJKFKKKFKJKJJJGJKGKJJJKJJKJJKJJJJJJKJJGJJHKHKKHKHKGKHKGHHHJJJHJHHKHKHLHHLHHHHHHHHHLHHHLHHHHHHLHHHHHHHLHUa",
";VYHHHHHHHHHKHHHKJJKJKKFKFKKFKFKJGJJJKJJJJJJJJJJGJJJKGKGJJGJJKJJKHJHHKGKKHHKHKGKJJHJJJKHHKKHHHHHHLHHHHLHHHHHHHHHLHHLHHHLHHHHHHHq",
"OlYSHHYSHHKHHHHHJKJKKFJKJKFFKKKFJKKJJJJJGKKGKGKJJJJJJJJKKJGJKJKJJJJJKHHHHKGHKHKGJJJJJJJHHHHHHHHHHLHLHHHHHHHLHHYSHHHHHHHHLHHHHLc:",
"X6AYSYSSJJHHHHHHFGKFJJJJKFKKFFKKJJJJKGKJJJJJJJGJJKGKJJJJJJKJJJJJJJJJHKHKKHKGHKHHJJJJJJJJLKHKHHLHHHHHHLHLHLHHHLHHHHLHHLHHHHLHHHqO",
"T=zYSHHYJJJJKHHHKFJJKHJJKJFKKKKFJJJJJJJJJKJKGJJJGKJJGJJJJJJJJJJGJJHHKHHHHKHGGKHKJJJJKHHJHHHHHHHHHLHHHHHHHLHHSHHHHHLHHHHLHHHHUM=T",
"T :NYHHHJJSYHHYSHHJHFKJJFJKJKFKKKGKGJJKJJJJJKJKJJJJJKJKJKGJKKJJKJJHPHKHKKHKKKHKGJJJGHJJJHHHLLHHLHHHHLHHHHHHHYHHHLHHHHLHHHHHYZ:OT",
"T  qSYYHHHHHKHKHHHJHKJJKKJKJFKFKJJKJKJJJJGJGJJKJJJKGJJJJJJJJJJJJJPHHKHKHGKKHKHHKJJJJHHJJHHHHHHLHLHLHHHHHHHHHHHSYHHHHHLHHHHYStXOT",
"TT .eAHHHSYHHHKHKHHKJJJFKJFKKHKHJJJJJJJJJKJKJJGJJKJJJKJGKGKJJJJJJJHHHKHKKHGKHKHGJJJJHJJGHLHHHHHHHHHHHLHLLHHHHHHHHHLHHHHHLLSaXXTT",
"TT  OqCLKHJHHHHKHJJHHKKJFKJJJJJJJJJJJJJJJJJJJJJJJJJJJJJJJJJJJJJJJJJJJJJJGHKHKKHHHKHJJJJJHHSYHHHJHHHHHHHHJJJJJJHHDKHHHHHKLZeO  TT",
"TTT  X6cHLKHHHHLJJHHHHHJKFHJJJJJJJJJJKJJJJJJKJJJGKJJJJKJJJJKKJJJJJJJKJJJHKHKHHHKKHKHJJJJHHHHYSYHLHHHHLHHHHJJSYSYLKHHHKLKM,.  TTT",
"TTTT   =ebSLLLHDJHHHHHHHHHHHHFJFJGGJJJJGJGJJGGJJGJJFGFGJJJGJGJJJJJJJGGJJGGGFGFGGHHHHGJGJHHHHSHHHHHHHHHHHHHHHHHHHHLLHLDMe=XX TTTT",
"TTTTT    O6azBZZZCVVVVVCVVVVVVVVVNNNBmNVmBNVNBNNBmBBBBBBNBNNBNmVmBNVNBNNBBBBBBBBBBNBNBNBVNNVVNVVVVVVVVVCVVCCVVVZCZVct6=.XX TTTTT",
"TTTTTT     .#=;:;;=======-=-&*====%=%===%%%-=%====%=%%====%=%==%%%===%====%=&%%%============;==;=;=;:==========:=:=Oo     TTTTTT",
"TTTTTTT                     +XXX                                            XXXX                    OOXO                 TTTTTTT",
"TTTTTTTTT                     X                                                                       XX               TTTTTTTTT",
"TTTTTTTTTTTT                                                                                           X            TTTTTTTTTTTT"
};
