/* XPM */
static char *grenade[] = {
/* columns rows colors chars-per-pixel */
"128 128 73 1 ",
"  c #000000",
". c #080704",
"X c #070804",
"o c #0A0A06",
"O c #0E0E0B",
"+ c #100F0B",
"@ c #0F100C",
"# c #13120D",
"$ c #18170F",
"% c #1B1A0F",
"& c #151512",
"* c #181712",
"= c #1B1A14",
"- c #1F1E19",
"; c #201F15",
": c #201E18",
"> c #232216",
", c #282617",
"< c #25241A",
"1 c #28271A",
"2 c #2C2B1C",
"3 c #312F1E",
"4 c #2C2B21",
"5 c #302E20",
"6 c #343223",
"7 c #393625",
"8 c #3A3825",
"9 c #373528",
"0 c #393628",
"q c #3C3A2B",
"w c #403E2E",
"e c #413F31",
"r c #42402F",
"t c #444233",
"y c #494636",
"u c #4A4837",
"i c #464438",
"p c #494739",
"a c #4C4B3B",
"s c #514E3E",
"d c #53503E",
"f c #545343",
"g c #595645",
"h c #5B5847",
"j c #595749",
"k c #5D5B4B",
"l c #615E4D",
"z c #625F50",
"x c #63614F",
"c c #646252",
"v c #696655",
"b c #6C6956",
"n c #696758",
"m c #6A6959",
"M c #716E5D",
"N c #71705F",
"B c #767361",
"V c #797663",
"C c #7C7966",
"Z c #7E7C69",
"A c #817E6A",
"S c #85846F",
"D c #88846F",
"F c #878672",
"G c #888772",
"H c #8B8974",
"J c #8F8C78",
"K c #908D77",
"L c #918E79",
"P c #94917D",
"I c #979480",
"U c #999581",
"Y c None",
/* pixels */
"YYYYYYYYYYYFFGJGGGGGFFFFGGGGGDGGGDHDGDGGGGDGDGGSGGFGGFGGGGGGGFGGGFFFGGFGGGGGGGGGGGFGGGGFGFGGFGFGGGGGFGGGFFGGFGGGGGGDAYYYYYYYYYYY",
"YYYYYYYYAGHHGGJAAHGGGGGFGGGGGGGGDDDHGGGDGGGDGGGGGGGFGGGGGGGFGGGGGGGFGGGGFGGFFGGGGGGGGGGGGGGGGGGGGGGGGGGGHGGGGGGGGGGGHHHAYYYYYYYY",
"YYYYYYYFAHGJGGAHGGGGGGGGFFFGDGGGGHDGGDHDHDHDGDGFFFFFFGFFGFGGFFGGFFGGGGGGFFFFFFFFGGGGFGFFFFFFGGGGFFFFFGFFFFFGFSGGHGGGAHFFHYYYYYYY",
"YYYYYSGGJJAAJGJHABnnnnnnmmmmSGDGGGHHGDGGDHHDFCmnvmmnnnnmmnnnnnnnnmvvnnnnnnnmmmmmnnnnnnnnnnmmnnnmnnnnnnnmnnnmmmNZHHGHHFHHHFFYYYYY",
"YYYYSFFGHGJJJCke4&OO@@@@@#;xDGDGDGGGGGLHGDHHHx=#@@OO@@@OO@@@@OOO@@@@O@O@@@@OO@@@O@@@@OOO@@@@@@OO@O@@@@@@OO@OO#*<whVHHGFHGGDSYYYY",
"YYYYFGGGGHGVs<OX         X6NDGGDHGDDClsbSHDDKh+                                                                 .+<aBHHFGGGGDYYY",
"YYYHAHHHGFl1o            >NGGDGDDGDAw#o:xGGDKb#                                                                    o<gSHGGGGGYYY",
"YYAHJHHHZa#             #xKGGGDGGGGl$   ,ZGGDS2                                                                      #iAHGGGGDYY",
"YYGGGGJZeO     YYY     oaGHGGGGGGHKl+   ;AHDHHl+  YYYYYYYYYYYYYYYYYYYYYYYYYYYYYYYYYYYYYYYYYYYYYYYYYYYYYYYYYYYYYYY     OqAGHJAAYY",
"YGGHHHAfO   YYYYYY     1ZHDGGGGGDGHN,. +yAHDAHB*  YYYYYYYYYYYYYYYYYYYYYYYYYYYYYYYYYYYYYYYYYYYYYYYYYYYYYYYYYYYYYYYYYY   oeALAJFHY",
"YHGHHJj&   YYYYYYY    #lHGGGGGGGDGHGbq3uVHDHHHs+   YYYYYYYYYYYYYYYYYYYYYYYYYYYYYYYYYYYYYYYYYYYYYYYYYYYYYYYYYYYYYYYYYYY  +fJHHGHY",
"DHHGGN=  YYYYYYYY     6SHGGGGGGDGGDGKHDDHDHHHAs*   YYYYYYYYYYYYYYYYYYYYYYYYYYYYYYYYYYYYYYYYYYYYYYYYYYYYYYYYYYYYYYYYYYYY  =mHFFGF",
"DFHAHe. YYYYYYYYY    #cLHDGDGGGDGGGKAMVKHHHAHHAz&  YYYYYYYYYYYYYYYYYYYYYYYYYYYYYYYYYYYYYYYYYYYYYYYYYYYYYYYYYYYYYYYYYYYYY .wAHFFA",
"HFHHM: YYYYYYYYYY   X0HPHGGGDGGHGHHMw$3VHHHHHALK0   YYYYYYYYYYYYYYYYYYYYYYYYYYYYYYYYYYYYYYYYYYYYYYYYYYYYYYYYYYYYYYYYYYYYY #MHHHH",
"DHHKf. YYYYYYYYYY   .tvdslCHDGDHHDg:. .5APHVsgHKk#  YYYYYYYYYYYYYYYYYYYYYYYYYYYYYYYYYYYYYYYYYYYYYYYYYYYYYYYYYYYYYYYYYYYYYY.pHHHH",
"HFHA4.YYYYYYYYYY     O##=>6NKDGKVw#    .,de:1lAHAqX   YYYYYYYYYYYYYYYYYYYYYYYYYYYYYYYYYYYYYYYYYYYYYYYYYYYYYYYYYYYYYYYYYYYY 2AHFF",
"GGGB=YYYYYYYYYYY      +qzj;4BJLM4o       o#0mHGHLV<    YYYYYYYYYYYYYYYYYYYYYYYYYYYYYYYYYYYYYYYYYYYYYYYYYYYYYYYYYYYYYYYYYYYY&mHGG",
"DGHm&YYYYYYYYYYY     #jFLLp*fLN<         X7SLHGHHLfo     YYYYYYYYYYYYYYYYYYYYYYYYYYYYYYYYYYYYYYYYYYYYYYYYYYYYYYYYYYYYYYYYYY#vHGF",
"DKHb=YYYYYYYYYYY    #jHKHLz#4n4           &kHHGGGLm&        YYYYYYYYYYYYYYYYYYYYYYYYYYYYYYYYYYYYYYYYYYYYYYYYYYYYYYYYYYYYYYYYxHGG",
"DDHvYYYYYYYYYYY    XpLKFFHk+ #.            =zLHGKPzO   oOX    YYYYYYYYYYYYYYYYYYYYYYYYYYYYYYYYYYYYYYYYYYYYYYYYYYYYYYYYYYYYYYvHGG",
"DDKbYYYYYYYYYYY    XtAGHGJpo                =cLLDh=   &fmtO     YYYYYYYYYYYYYYYYYYYYYYYYYYYYYYYYYYYYYYYYYYYYYYYYYYYYYYYYYYYYvHHD",
"GKKbYYYYYYYYYYY     o<sFPS<                  =hme#   +gLPG3  XX  YYYYYYYYYYYYYYYYYYYYYYYYYYYYYYYYYYYYYYYYYYYYYYYYYYYYYYYYYYYbHHD",
"DHGMYYYYYYYYYYY     XX#pGfO   Y               O&.   .eDKKH6X#qw;o  YYYYYYYYYYYYYYYYYYYYYYYYYYYYYYYYYYYYYYYYYYYYYYYYYYYYYYYYYMDHG",
"DHDAYYYYYYYYYYY    opf&O3+   YY                    oeAHGHb$#xKHNi&  YYYYYYYYYYYYYYYYYYYYYYYYYYYYYYYYYYYYYYYYYYYYYYYYYYYYYYYYSGGG",
"DHHSYYYYYYYYYYY    1GPw.    YY                     6SHGHA6o8GKHHHc-  YYYYYYYYYYYYYYYYYYYYYYYYYYYYYYYYYYYYYYYYYYYYYYYYYYYYYYYDGGD",
"DHDDYYYYYYYYYYY   .tPUuo    YY                    XePLLGuo%bKGGGJLm2X  YYYYYYYYYYYYYYYYYYYYYYYYYYYYYYYYYYYYYYYYYYYYYYYYYYYYYFGGG",
"HHDDYYYYYYYYYY    .gKF3    YY                      =lSBe++dHGFFGGHLC6X  YYYYYYYYYYYYYYYYYYYYYYYYYYYYYYYYYYYYYYYYYYYYYYYYYYYYDGGG",
"DHDDYYYYYYYYYY    +bLN=    YY                       #;*.orSHGFDDGGHLV6X  YYYYYYYYYYYYYYYYYYYYYYYYYYYYYYYYYYYYYYYYYYYYYYYYYYYSGGF",
"GGGSYYYYYYYYYY    #VPl+   YY                           O8CHDDDGGDGHHLN1   YYYYYYYYYYYYYYYYYYYYYYYYYYYYYYYYYYYYYYYYYYYYYYYYYYSGGG",
"GGGFYYYYYYYYYY    >SPu.   YY                          #aZHHDDDHGGGDDKLM<   YYYYYYYYYYYYYYYYYYYYYYYYYYYYYYYYYYYYYYYYYYYYYYYYYDGGG",
"GGHSYYYYYYYYYY    6HPwX  YYY                        O2cGHGGDGGGGGGGGDHKb=  YYYYYYYYYYYYYYYYYYYYYYYYYYYYYYYYYYYYYYYYYYYYYYYYYFDGD",
"GGGDYYYYYYYYYY   .yLH3   YY                        *dAKHGDGGGHGDHGDHDDHPk&  YYYYYYYYYYYYYYYYYYYYYYYYYYYYYYYYYYYYYYYYYYYYYYYYDDHH",
"DHGDYYYYYYYYYYX  ofPS;  YYY                       >cHHGDGGGGHHDDHFHFHDHHGe.  YYYYYYYYYYYYYYYYYYYYYYYYYYYYYYYYYYYYYYYYYYYYYYYGGGG",
"DHGDYYYYYYYYYY   ojPV&  YYY                      &mPLGGDGGGGGGHHDHDHFHDHKV:  YYYYYYYYYYYYYYYYYYYYYYYYYYYYYYYYYYYYYYYYYYYYYYYFGGF",
"GGGDYYYYYYYYYY   oxPm#  YY                      XwHKGGGGGGDGGGHHFHHFHDDDHLh+   YYYYYYYYYYYYYYYYYYYYYYYYYYYYYYYYYYYYYYYYYYYYYDHGH",
"GDDDYYYYYYYYYY   OcPc#  YY                      OkJHGDDGGGGGDHDGHFDHFHHFGHS3    YYYYYYYYYYYYYYYYYYYYYYYYYYYYYYYYYYYYYYYYYYYYSDHD",
"GGHSYYYYYYYYYY   OmPfO YYY                      #vHGGDGHGDHDGGDGHHFHHDFHGHA,    YYYYYYYYYYYYYYYYYYYYYYYYYYYYYYYYYYYYYYYYYYYYDDGG",
"HHDSYYYYYYYYYY   @mPso YYY                      +cHHGHDDGGGGHHHHDFFDFHHDGLg+    YYYYYYYYYYYYYYYYYYYYYYYYYYYYYYYYYYYYYYYYYYYYSDGG",
"DDDDYYYYYYYYYY   OmPt. YY      X                OlHHDGGHGGHHDHDGHFHHHFFHHV;      YYYYYYYYYYYYYYYYYYYYYYYYYYYYYYYYYYYYYYYYYYYDGGG",
"HHDDYYYYYYYYYY   @MH6X YY     o4o               oyHHDHGGGGDGGGGGFDHFHFHHHao ;>X  YYYYYYYYYYYYYYYYYYYYYYYYYYYYYYYYYYYYYYYYYYYDGGG",
"GGGDYYYYYYYYYY   OmH4  YY     7C1                =VHGGGGGHHDDGDHHHGGGDHKM= #xl+  YYYYYYYYYYYYYYYYYYYYYYYYYYYYYYYYYYYYYYYYYYYGGHD",
"GGGSYYYYYYYYYY   ONH2  YY    ogK6                ofHGGGDDDGGHGHHDDHDHDKD6X 7GZ=   YYYYYYYYYYYYYYYYYYYYYYYYYYYYYYYYYYYYYYYYYYDHGH",
"DDGSYYYYYYYYYY   OmG1  YY    #mK8X                -VGGGGHGGGGDDDGDGGGHGfO =NPHq.  YYYYYYYYYYYYYYYYYYYYYYYYYYYYYYYYYYYYYYYYYYDGGG",
"DHGSYYYYYYYYYY   &mA>  YY    =AKw                 XtGHGDHDHDGHGDGGGDHKb= #kLHKgo  YYYYYYYYYYYYYYYYYYYYYYYYYYYYYYYYYYYYYYYYYYDGGG",
"HDHDYYYYYYYYYY   OmZ=  YY    6GPr.                 &kJHGGGGDGGGKGGGHLM:.otFHHHb#  YYYYYYYYYYYYYYYYYYYYYYYYYYYYYYYYYYYYYYYYYYSGGG",
"GGGSYYYYYYYYYY   OmS>  YY   XqPPuo                  -vPHGGHDGGHDGFHLM< .8SGSDHV=  YYYYYYYYYYYYYYYYYYYYYYYYYYYYYYYYYYYYYYYYYYSGGG",
"GGHSYYYYYYYYYY   OzS<  Y    ouPPso                   =lDKDGDDGGGHGLN1 .0ZHGDGHA1  YYYYYYYYYYYYYYYYYYYYYYYYYYYYYYYYYYYYYYYYYYSGHG",
"GGFFYYYYYYYYYY   ofS<       odLLfO                    %uNKHHGGGHHHc: o0AKGDGDHD6X YYYYYYYYYYYYYYYYYYYYYYYYYYYYYYYYYYYYYYYYYYDGHD",
"DGDDYYYYYYYYYY   oaF2       ofKLl+                     o>fCHLHKHBy* #rAKGDFFGHH8X YYYYYYYYYYYYYYYYYYYYYYYYYYYYYYYYYYYYYYYYYYHHGS",
"HGDDYYYYYYYYYY   XwG6       ofKLv#   oO                  O1ugksw;. =dSGDDGFGGHH8X YYYYYYYYYYYYYYYYYYYYYYYYYYYYYYYYYYYYYYYYYYDHGG",
"DDGDYYYYYYYYYY   X6F8       odHHM=  Ofk&                   oOOoX o3bHHGGGSGGDHG7  YYYYYYYYYYYYYYYYYYYYYYYYYYYYYYYYYYYYYYYYYYDGGG",
"GHGDYYYYYYYYYY    ,SwX      oaHJD3  >GP0X                       .8ALHGDDGGGGDDS2X YYYYYYYYYYYYYYYYYYYYYYYYYYYYYYYYYYYYYYYYYYDGGG",
"GDHSYYYYYYYYYY    &Bu.      XuLLKto 3HPdo                        ,CLGDDGHGGHHDS,  YYYYYYYYYYYYYYYYYYYYYYYYYYYYYYYYYYYYYYYYYYSGGG",
"DGHSYYYYYYYYYY    Ocg+      XrHHHl+X6HPM=                     o  .6AHGGDDGGDHGN;  YYYYYYYYYYYYYYYYYYYYYYYYYYYYYYYYYYYYYYYYYYSGHG",
"HDHSYYYYYYYYYY    odv& YY    8HJGC< 6KPH2                    #s;  OsHGGGGHGGDDM#  YYYYYYYYYYYYYYYYYYYYYYYYYYYYYYYYYYYYYYYYYYSFHD",
"DHHDYYYYYYYYYYY    5v= YYY   6GPLPd+2CNh%                   X0Lso  =bHDGDDGHDDl+  YYYYYYYYYYYYYYYYYYYYYYYYYYYYYYYYYYYYYYYYYYDHFF",
"GDGSYYYYYYYYYYY    #f= YYY   %vmclwoX=#O                  >,+tPc#   2AHDDGGHHHrX  YYYYYYYYYYYYYYYYYYYYYYYYYYYYYYYYYYYYYYYYYYHGGG",
"GHHSYYYYYYYYYYY    X>O YYY    ###+.                      #cc=tLA1   .sHGGGDHHC>  YYYYYYYYYYYYYYYYYYYYYYYYYYYYYYYYYYYYYYYYYYYGGGG",
"DDGSYYYYYYYYYYY        YYYY                              =Zx=sHLh+  .2GHDDHHGl@ XYYYYYYYYYYYYYYYYYYYYYYYYYYYYYYYYYYYYYYYYYYYSGHG",
"HHHSYYYYYYYYYYY        YYYY                              3Hk=fGHm#  .tHGDHDHS0  XYYYYYYYYYYYYYYYYYYYYYYYYYYYYYYYYYYYYYYYYYYYSGHD",
"SHGSYYYYYYYYYYYX        YYYY                            XrLl-gJJlo  ;MGGFGGKm#  YYYYYYYYYYYYYYYYYYYYYYYYYYYYYYYYYYYYYYYYYYYYDGHG",
"DHGDYYYYYYYYYYYY        YYYY                            .aIv:gLG0X +fKGGDGHS0X  YYYYYYYYYYYYYYYYYYYYYYYYYYYYYYYYYYYYYYYYYYYYSHHS",
"DGGDYYYYYYYYYYYY        YYYYY                           XqPB-yHz# owDGDGGGHl#  YYYYYYYYYYYYYYYYYYYYYYYYYYYYYYYYYYYYYYYYYYYYYFFFF",
"GGGSYYYYYYYYYYYY        YYYYY                            &cn&#q* #yCKGGDGHZ1   YYYYYYYYYYYYYYYYYYYYYYYYYYYYYYYYYYYYYYYYYYYYYDHFF",
"GGGSYYYYYYYYYYYY        YYYYYY        XO&O                +&ooo ofHHGDGDHHao  YYYYYYYYYYYYYYYYYYYYYYYYYYYYYYYYYYYYYYYYYYYYYYGGGG",
"GGGSYYYYYYYYYYYY        YYYYYY      #2wgmf=              X=5yu7.#mPHGGGKKl&   YYYYYYYYYYYYYYYYYYYYYYYYYYYYYYYYYYYYYYYYYYYYYYDHGG",
"GHGSYYYYYYYYYYYYY       YYYYYYY    osGPKLJc:             2AHLPF1ofLHGGJLz=.  YYYYYYYYYYYYYYYYYYYYYYYYYYYYYYYYYYYYYYYYYYYYYYYDGGG",
"HDGSYYYYYYYYYYYYY        YYYYYYY    =lHLHHLN2o           1SPLPL8.&fBVVmf=   YYYYYYYYYYYYYYYYYYYYYYYYYYYYYYYYYYYYYYYYYYYYYYYYDGGG",
"GDHGYYYYYYYYYYYYY        YYYYYYYY    *fSHGHLVw+          .6vSPH6  o&==#o   YYYYYYYYYYYYYYYYYYYYYYYYYYYYYYYYYYYYYYYYYYYYYYYYYDGGG",
"GDGSYYYYYYYYYYYYY        YYYYYYYYY    #aSLHGLSk1O         X#6fa#           YYYYYYYYYYYYYYYYYYYYYYYYYYYYYYYYYYYYYYYYYYYYYYYYYSGGG",
"GGGDYYYYYYYYYYYYYY       YYYYYYYYYY    +eVLKKLKVg2#          oo           YYYYYYYYYYYYYYYYYYYYYYYYYYYYYYYYYYYYYYYYYYYYYYYYYYSDHD",
"DGFDYYYYYYYYYYYYYY        YYYYYYYYYY    .<hVHHLKLSl6#X                   YYYYYYYYYYYYYYYYYYYYYYYYYYYYYYYYYYYYYYYYYYYYYYYYYYYDHFH",
"GGDDYYYYYYYYYYYYYY        YYYYYYYYYYY     O>umSLLLLGbw.                YYYYYYYYYYYYYYYYYYYYYYYYYYYYYYYYYYYYYYYYYYYYYYYYYYYYYHGGG",
"DHHDYYYYYYYYYYYYYY        YYYYYYYYYYYYY     o#2acVGKPV=               YYYYYYYYYYYYYYYYYYYYYYYYYYYYYYYYYYYYYYYYYYYYYYYYYYYYYYGHGG",
"GGHDYYYYYYYYYYYYYYY       YYYYYYYYYYYYYYY      o+=38w1.             YYYYYYYYYYYYYYYYYYYYYYYYYYYYYYYYYYYYYYYYYYYYYYYYYYYYYYYYGGGG",
"HDHDYYYYYYYYYYYYYYY        YYYYYYYYYYYYYYYY        XX             YYYYYYYYYYYYYYYYYYYYYYYYYYYYYYYYYYYYYYYYYYYYYYYYYYYYYYYYYYDGGG",
"DGGGYYYYYYYYYYYYYYY        YYYYYYYYYYYYYYYYYYY              XXXYYYYYYYYYYYYYYYYYYYYYYYYYYYYYYYYYYYYYYYYYYYYYYYYYYYYYYYYYYYYYSGGG",
"DGGSYYYYYYYYYYYYYYYY       YYYYYYYYYYYYYYYYYYYYYYY      XX YYYYYYYYYYYYYYYYYYYYYYYYYYYYYYYYYYYYYYYYYYYYYYYYYYYYYYYYYYYYYYYYYSGGG",
"GHFFYYYYYYYYYYYYYYYY       YYYYYYYYYYYYYYYYYYYYYYYYYYYYYYYYYYYYYYYYYYYYYYYYYYYYYYYYYYYYYYYYYYYYYYYYYYYYYYYYYYYYYYYYYYYYYYYYYSGGD",
"DDHGYYYYYYYYYYYYYYYY        YYYYYYYYYYYYYYYYYYYYYYYYYYYYYYYYYYYYYYYYYYYYYYYYYYYYYYYYYYYYYYYYYYYYYYYYYYYYYYYYYYYYYYYYYYYYYYYYDHHG",
"HHDDYYYYYYYYYYYYYYYYY       YYYYYYYYYYYYYYYYYYYYYYYYYYYYYYYYYYYYYYYYYYYYYYYYYYYYYYYYYYYYYYYYYYYYYYYYYYYYYYYYYYYYYYYYYYYYYYYYHHDG",
"HDGGFYYYYYYYYYYYYYYYY       YYYYYYYYYYYYYYYYYYYYYYYYYYYYYYYYYYYYYYYYYYYYYYYYYYYYYYYYYYYYYYYYYYYYYYYYYYYYYYYYYYYYYYYYYYYYYYYYHHHD",
"HHGGFYYYYYYYYYYYYYYYYY      YYYYYYYYYYYYYYYYYYYYYYYYYYYYYYYYYYYYYYYYYYYYYYYYYYYYYYYYYYYYYYYYYYYYYYYYYYYYYYYYYYYYYYYYYYYYYYYSHHHS",
"DDHHHYYYYYYYYYYYYYYYYY       YYYYYYYYYYYYYYYYYYYYYYYYYYYYYYYYYYYYYYYYYYYYYYYYYYYYYYYYYYYYYYYYYYYYYYYYYYYYYYYYYYYYYYYYYYYYYYKGHGH",
"DHGHDDYYYYYYYYYYYYYYYYY      YYYYYYYYYYYYYYYYYYYYYYYYYYYYYYYYYYYYYYYYYYYYYYYYYYYYYYYYYYYYYYYYYYYYYYYYYYYYYYYYYYYYYYYYYYYYYDGHHSH",
"SHHDGGSYYYYYYYYYYYYYYYY      YYYYYYYYYYYYYYYYYYYYYYYYYYYYYYYYYYYYYYYYYYYYYYYYYYYYYYYYYYYYYYYYYYYYYYYYYYYYYYYYYYYYYYYYYYYYYGGGDGG",
"DDHHHGDYYYYYYYYYYYYYYYYY      YYYYYYYYYYYYYYYYYYYYYYYYYYYYYYYYYYYYYYYYYYYYYYYYYYYYYYYYYYYYYYYYYYYYYYYYYYYYYYYYYYYYYYYYYYYHGHGGGG",
"HDDDGHGDYYYYYYYYYYYYYYYY      YYYYYYYYYYYYYYYYYYYYYYYYYYYYYYYYYYYYYYYYYYYYYYYYYYYYYYYYYYYYYYYYYYYYYYYYYYYYYYYYYYYYYYYYYYDHHGGGSG",
"FFGGGHHGGYYYYYYYYYYYYYYYY     YYYYYYYYYYYYYYYYYYYYYYYYYYYYYYYYYYYYYYYYYYYYYYYYYYYYYYYYYYYYYYYYYYYYYYYYYYYYYYYYYYYYYYYYYFGGGGGGGH",
"FGGGJGGGGGYYYYYYYYYYYYYYYY    YYYYYYYYYYYYYYYYYYYYYYYYYYYYYYYYYYYYYYYYYYYYYYYYYYYYYYYYYYYYYYYYYYYYYYYYYYYYYYYYYYYYYYYYGGDHGGGGGG",
"FFGGFGGHGGGSYYYYYYYYYYYYYYY  YYYYYYYYYYYYYYYYYYYYYYYYYYYYYYYYYYYYYYYYYYYYYYYYYYYYYYYYYYYYYYYYYYYYYYYYYYYYYYYYYYYYYYYGFGHHGGGGGGS",
"FFGGGGGGGGGGGSYYYYYYYYYYYYYYYYYYYYYYYYYYYYYYYYYYYYYYYYYYYYYYYYYYYYYYYYYYYYYYYYYYYYYYYYYYYYYYYYYYYYYYYYYYYYYYYYYYYYFDDGGHGGGGGGGH",
"FGGGGGGGHGHHGGDFSSYYYYYYYYYYYYSSFFSSFSSFSSSFSFSSFFFFFFFFKFFFFFFFSSSFSSFFFFGFFSSSDSSSSSSFDGSSSSSSSSYYYYYYYYYYYYSFGFFFGGHGGFFFGGGG",
"FGGGGGGGGGGGGGGGGGGGGGGGGGGGGGGGGGGGGGGGGGGHGGGGFHFFFFFGKHFFGGFFGGGGGGGGGDGGHSGHHHGHGGGGGHGHHGGGGGGGGHFHGGGHGFFGGHGGGGGGGFGFGGGG",
"SGGGGGGFGFGGGGGGGGGGGGHGHGGGGGGHGGGGHGGHGGGGHGGGGGFHHFGGHHHHHGHGGHGHGGGGGGGGGGGHHHGGGHGHHHGGGGGGGGGGGHGGHGGGGGGGGGHGGGGGGGFHGHFS",
"SGGGGGGGGGGGGGGGHGGGGGGHGGGGHGHGGGGGGGGGHGGGGHGGFHFFHFFFFFFFGGGGGHHFGGGGGGHGGGGGGGGGGGGGGGGGGGGHGGHGGGGGGGGGGGGGHGGGGGGGGGFFGHSG",
"GGFGGGGGFFFJFFFFFFJFFGGGFGFJFJFFGGGFGGGFGFGGGGGGGGGGGGGGFFFFFFGGFFFFFFFFFFFFFFFJFFJFJFFFFFFFFFFFGGGGGGGGFFJFFFFFFJFFFFFFFFFFJFFF",
"SDGGGGGGFJFFFFJFFFFFFHGGGGFFFFFFGGHHGGGGGGGGGGGGGGGGGGGGHFHFFFGGFFJFFFFJFFJFJFFFJFFFFFFJFFJFFJFFGGGGGGGGFFFFFJFFFFFFFFFJFJFFFFFF",
"GGGGGGGGFFGFFFFFFFFFHFFHGGFGJFJFGGGGGGGGGGGGGGGGGGHGGGGGHHGFHGGGFJFFJFFFFJFFFFFFFFFFFFFFFFFFFJFFGGGGGGGGJFFFFFFJFFFJFFFFFFFFFFJF",
"GGFGGGGGFFJFFJFFFJFFFFHFGGGGFFFFGGGGGGFGGGFGFGGGGGFGGGGGHGGFFHGGFFJFFFFFFFFJFFFJFFJFFFFFJFJFFFJFGGGGGGGGFFFFFJFFFFFFJFFFFFJFJFFF",
"FFFFGGGGGGGFGGFHFFGGGGHFGGGFFFFFGGGGGGGGGGGGGGGGGFGGGGGGHFFFHFFHFJFFFFFFFJFFJFFFJFFFFJFJFFJFJFFFGGGGGGGGFFFJFFFFFJFJFFFJJFFFFFFF",
"FFHHGGGGGGGJGGFFGGGFGGGFGGGGFFFFDGGGGHSDFHGHGGGGFFFGGGGGHFFHHFHFFFFFJFFJFFFFFFFFFFFFFFFFFFFFFFFFGGGGGGGGFJFFFFFJFFFFFFFFFFFFFFFF",
"FFGFGGGHGGGGGGFFGGGGFFHHGGGFFFGGGGGSSGHHHFGGGGFGGFFFFJGGHHFFFHHFFFFFFFFFJFJFFFFFFJJFFFFFJFJFJFFJGGGGFFIFFFFFJFFFFJFFFFFFFFFFJFFF",
"FFGGGGGGGGGGGGGFGGGGFFFFGGGGGFFJGGGGGGDHFHGGFGHFGGGFFGGGFFHHFFSHJFFJFFJFFFFFJFFFFFFFJFFFFFFFFFFFGGFFFFFFFFJFFFFFFFFFJFFJJFFFFFJF",
"GSGGHGGGGGHFGFGFHHHSSHFFGGHFFGGGGGGGHGGDFFFFFFFFGGGGGFGFHFFFSHSSFFFFJFFFFJFFFFFJFFJFFFJFFFJFFFFFGGGGFFFFFGGGFFFFFFFFFFJFFFJFFFFF",
"GGGGFFFHFGGGGGGGSSHHHFHFGGFHGGGGHGHDGDHDFFJFFFJFGGGGGGFFFHGHHSHHFFFFFFFJFFFFFJFFFJFFFFFFFFFFFFFFGGGGFFJFFFGGFFJFJFFFFFFFFFFFFFFF",
"SGSHFHFFFFGFGGGGHHHSHSHFGGGGFFGGHGHGHHGGFFJFGGFFGGGGGGHGHGGGHHSHFFFJFFFFJFJFFFFFFJFFFFFFFFFFJFFJGGGGFFFFGGGGFFFFFFFJFJFFJFJFFFFJ",
"GGGGGFGFGHFHGGGGHSHSHHFHGGGGFFHGGGGGDGDHFJGGGGJFGGGGGGGGGGGHSHHFFFFFFFJFFFFFFFJFFFFFFJFFJFFFFFFFGGGGJFFFFGFGJFFJFFFFFFJFFFFFFFFF",
"SGSGHGFHGGGGGGGGHHSHFHFFHFFFHHFHGGGGGGGGFGGGFFJFGGGGGGGGGDHHDHDHFFFFFFFFFFJFFFFJFFFFFFFFFFFFJFFJGGGJFFFFJFJFFFFFFFFFFFFFFJFFJFFF",
"GGHDGGFHGGGGGGGGSHSHHFHHFHFHFFFHGFGGGGGGFGGGFJFFHHGFGGGGGHDHDHGGFJFFJFFJFFFFJFFFJFFJFFFJFJFJFFFFGGFFFFJFFFFFFFFJFJFFFFJFFFFFFFFF",
"SSDHGSHFGGGGGGGGHSHHFFFFFHFFHFFFFFFHGHFGFFGGFFFFHFFFGGGGGGDDHDHHFFFFFFFFFFFFFFFFFFFFFJFFFFFFFFFFGGGFFFFFFFFFFJFFJFFJFJJFFFFJFFJF",
"MSDGGGHFGGGHGGGGSHHSFHFHFFFFFHHHFFFFGHGGFGFGFFFFFHHFGGGGSHDDGGGFFFJFFJFFFJFFJFFFFFFFFFFFFFFJFFFFGGGJFJFFJFJFFFFFFFFFFFFFFFFFFFFN",
"fFFFFFFFFFIZGZGGHFFFGGGGGFFFHGGGFFJFFFFFFFFFJFFFFFFFFFFFFFJFGFFJFFFFFFFFFFJFFJFFFFFFFFFFJFFJJFFJFJFFJGFJJFFJFFFFFFFFFFFFJFFFJFFi",
"4VIFFFFFIFZIGIGGSHFHGGGGGGGGFGGGFFFFJFFFFJJFFFFJJFFFFFJFFFFFJFFFJFFFFFJFJFFFFFFFFFJFFFFFFFFFFFFFFFFFFFFGFFFFFFIFFJFFFFFFFFFFFJZ4",
"OzIAFFFFZFZZFIGGHFFHGGGHGGGFJGGGJFJFFFFJFFFFFFFFFFFJJFFFFJFFFFFFJFJFJFFFFFJFJFFJFJFFJFFFJFFFJFFFFJJFFFGGFFFFFFFFFFFFFFJFFFFFFJn&",
" 9ZIFFIFFFIFFZGGFHFFGGGFGGHFFGGGFFFFFFFFFFJFJFFFFFFFFFFJFFJFFFFJFFFFFFFFFFFFFFFFFFJFFFFJFFFFFFFJFFFFFFGGGFFFFFFFFFJFFFFFJFFJGF9O",
" &zJZFFFFFFIGGGGFHHGGGFHFFFFFGGGGGGFFFFFJFFFJFJFFFFFJFFFFFJFFFFFFFFFJFFJIFFFFFJFFGGFFFFFFFFFFFFFFFFFFFFGGFFFIZFZFJJFFFFFZIAGJn&Y",
"Y -NIFFFFFFFGGGGFFFFGGFFJFFJFFGGGGJFFFIFFFFFFFFFJFJFFFFFFFFFFFFFFFFFFFFFFFFJFFFFGGGJFFFFJFJFFFFFJFFFFJFGGJFFFFFIFFFFFFFJAAIGZ-XY",
"Y .9ZIGFFFFFGGGGHHFFGGGGFFFFJGGGGGGFFFFFJFFFFJFFJFFFFFJGGGGGFFFFJFJFFFFFFFFFFFFFGGFFFFFFFJFFFFJFFFJFFFFFFJJFIZIGFFFFFFFFIAICqo Y",
"YY XeZIFFFFFGGGFFFFFGGGGFFFFFGGGGGGFFFZIFFJFFFFFFFFFFFFFGGGGFFIFFFFFFJFJFFFFFJFFGGGFJFIFFFFFFFFFJFFFFFJFFFFFFFZGFJJFJFFFAIZfo YY",
"YY  o9BLGFFFFHJFHHFFGGGGFJFJFFFJFFIFIZFFFZFFFFFHFFFFFFFFZFFFFFFFFFZIZIZIFFFFFFFFFFIFFIFFFZFFIFIFFFFJFFJFFFHHHFGGHAJGGGGHIBqO. YY",
"YYY  X4zFJGFFFAJFFFFFGGGFFFFFFFFZIZFFFFFFIFFIZIFFFFFFJFFIFIZFFZIFFFFFFFFFFFIFFFFZIZFFZFFFIFFZFZFFFFFFFFFFFFHHFGGJJAFJHHGn4o  YYY",
"YYYY   #qzZGHHFFFFFFGGFFFFFFFFFFFFFHFFFFFFFFZFHFFFJFFJFFFFZIFFFFFFFFFFHFFFFFFFFFFFFHFFFFFFFFFFIZFFFFFJFFFFGFFFFGAHHJGAvq&   YYYY",
"YYYY    .+<tknMBBBNNNNNBNNNNNNNNNNNBNNNNNNNNNNNBNNNNNNNNNNNBNNNNNNNNNNNBNNNNNNNNNNNBNNNNNNNNNNNBNNNNNNNNNNNBNNNVBZMze4&X   YYYYY",
"YYYYYY     Xo@@=&&&&&&&&&&&&-&&&&&&&&&&&&&&&&&&&&&&&&&&&&&&&&&&&&&&&&&&&&&&&i-&&&&&&&&&&&&&&&&&&&&&&&&&&&&&&&&&=&=&Oo     YYYYYY",
"YYYYYYY         .. .        @OXX                    OOOO        X           -&&&        X           OOXO        .        YYYYYYY",
"YYYYYYYYY                     X                       XX                    XXOO                      XX               YYYYYYYYY",
"YYYYYYYYYYY                                            X                    XOOO                                    YYYYYYYYYYYY"
};
