/* XPM */
static char *m16[] = {
/* columns rows colors chars-per-pixel */
"128 128 73 1 ",
"  c #000000",
". c #080705",
"X c #0A0A06",
"o c #0D0E0B",
"O c #100F0B",
"+ c #0F100C",
"@ c #12120D",
"# c #18170E",
"$ c #1A190E",
"% c #151511",
"& c #181711",
"* c #171811",
"= c #1B1B13",
"- c #1F1E19",
"; c #201F14",
": c #201F19",
"> c #232216",
", c #282617",
"< c #24231A",
"1 c #28271B",
"2 c #2D2B1C",
"3 c #302E1E",
"4 c #282620",
"5 c #2D2C21",
"6 c #302F21",
"7 c #343323",
"8 c #393725",
"9 c #3A3827",
"0 c #373628",
"q c #393728",
"w c #3D3B2B",
"e c #413E2E",
"r c #403F31",
"t c #42402F",
"y c #454332",
"u c #484636",
"i c #4B4936",
"p c #484638",
"a c #4D4B3A",
"s c #514E3E",
"d c #53503F",
"f c #555342",
"g c #595645",
"h c #5A5847",
"j c #5A5749",
"k c #5D5B4A",
"l c #615E4D",
"z c #625F50",
"x c #63614F",
"c c #656352",
"v c #696654",
"b c #6C6956",
"n c #6C6A59",
"m c #716E5C",
"M c #72705F",
"N c #767361",
"B c #797664",
"V c #7C7A66",
"C c #7E7C69",
"Z c #817E6B",
"A c #85836E",
"S c #88856F",
"D c #878672",
"F c #888772",
"G c #8B8974",
"H c #8F8C78",
"J c #908D77",
"K c #918E79",
"L c #94917D",
"P c #979480",
"I c #999682",
"U c #9D9A85",
"Y c None",
/* pixels */
"YYYYYYYYYYYDDDFFFZGFDDDFDGFDDFFDDDDDDDFDDFDFSFSFAGDGADFFFFFSFFDDSSFFDDDGDFDDDDDDDDDDDDDGDFFFDFDFFFDDFDFFDDDFDFFFFFFDZYYYYYYYYYYY",
"YYYYYYYYZFHFFFHZFFFFDDDDDDFDFFFFDDDDGDFDFFFFFFGFFDFFGFFDFFSFGSDGGDFFDDDDDGDDDGGDDDDGDGDDDDFFDDFFFFDDFFDFDDFFFFFFFFFFFFGZYYYYYYYY",
"YYYYYYYDZHGFFFFHPZFFDDDDDDDDDDDDDDDDDDDDFGFDSFAFFFFFAGAAAAFFAGSSDDFFDDDDDDDADDDDDDDDDDDDDDDFDDDDFDDDDDDDDDDDDDDFGFDDZHFFGYYYYYYY",
"YYYYYAFFGHZFGFFFCMnnnvnnnnnvnvnnnnnnnvnvnnnnbbMZDSFSGFGANmnnmnnmnvnnvnnnnnnnvnnnvnnnnnnvnnnnMnvnnnvnnvnnnnvnnnNVFGGFFFFFGDDYYYYY",
"YYYYASFFFFFGGVly4%oo++++++++o+++o++++O@@%@%&1ycZFFFGFSFSc>%%@%%%++oo++++++++o+++++++++oooo+%%%@o++++o+++oo++o@&1rjBGGGFFFFSSYYYY",
"YYYYFFGFFHHNf,o                         .+*0gMAFFGGGZBAFC5       .                                               O>sNGGFFFFFSYYY",
"YYYFFFFFFDk1X                        .O>rcBDGFGGJZms21lGKm=                                                        X>gDGFFFFFYYY",
"YYFFFFFGZa@                       .o>ylVHHGHGGVxi2#X  1ZKKj@                                                         &sZGFFFFSYY",
"YYFFFFGCro     YYYYYYYYYYYYY   XO>ucVGKJLKFBkt>@.     XpGKFw. YYYYYYYYYYYYYYYYYYYYYYYYYYYYYYYYYYYYYYYYYYYYYYYYYY      OuZGZGFFYY",
"YFFGFHZfo   YYYYYYYYYYYYYY  o@,ucVGKGKKFmgq=o          &bKKN: YYYYYYYYYYYYYYYYYYYYYYYYYYYYYYYYYYYYYYYYYYYYYYYYYYYYY    @sDHFGFFY",
"YFFGGHj@   YYYYYYYYYYYY o+:wgnCHKGHGVca3&X              2ZKKlO YYYYYYYYYYYYYYYYYYYYYYYYYYYYYYYYYYYYYYYYYYYYYYYYYYYYYY   %jHFFFFY",
"SFGFFm-  YYYYYY . Y X@=7fzVFLLKLFBly>O.                 .sGKFe. YYYYYYYYYYYYYYYYYYYYYYYYYYYYYYYYYYYYYYYYYY YYYYYYYYYYY   &bFDDFF",
"SFFGZr. YYYYY  $9=@2ylmDKJGLLFMfw&O.       YYY.          &lGKV:  YYYYYYYYYYYYYYYYYYYYYYYYYYYYYYY         ..  YYYYYYYYYY   eZGFFF",
"SFGGM; YYYYY   0AmbZJGGJKGZba2#X       YYYYYYYY       .Xo:hSJKl#  YYYYYYYYYYYYYYYYYYYY      ... ..XXX@+*-,8>  YYYYYYYYYY  %nFFFF",
"FFGKf. YYYY    &cKJGGJFBxy1@X      YYYYYYYYYYYY.   X+&0acVZDFGFrX YYYYYYYYYYY      .  ..XX+@@$>20yagkcnmBAGB2  YYYYYYYYYY XpGGFS",
"FFGZ5.YYYYY     2ZJAmg9;OX     YYYYYYYYYYYYYYY.X@&7icBFHGFFFFFGZ4          ..oo+@@@=,79ysgkvmBVAGHHHHHHDSGHHM,  YYYYYYYYYY 2ZGSF",
"FFFN=YYYYYY     @bKz;X.     YYYYYYYYYYYYY  X@;3avBAHGGGGDDGSDGGHv-XXo+@@*;,8tadkcmMBCFJGGGGGGSFFGGGGGFSGSFFJKfX  YYYYYYYYYY@mGFF",
"FGGn&YYYYYYY    XgPkO   YYYYYYYYYYYYY  X@=3dvMFJGSGGGSFSGGFSSSSGDkuafkcnBVAGJJGGGGSFFGGGGGGDSSFFFDFSSFSSFFSFJcO  YYYYYYYYYY@cGFD",
"SFGv=YYYYYYY    .rKN& YYYYYYYYYYY .X@=3axBSJJFGFSGSGAFFFDSGDGSDSFSJJGGHHGDGGGGSSGFFFFFSFDSSDSGSDFFSGFSDDSFFFHzO  YYYYYYYYYYYxGGD",
"SGGvYYYYYYYY     6JG9.YYYYYYY  XO;3ilMSJGGGGFFFFSSGASGFGGGSDDGGSFFGGGGGSGSAGSGSGDFFFFFSFGDGDGSGDFFGSFGDGFFFFFm#  YYYYYYYYYYYcGGD",
"SFGbYYYYYYYY     ;ZKlX YY .X@*3alMSKGFGFSGGSFSSGGDSDGGGKJJJGSFSGSSGSSAASDSFSSGSSSGSSFSGFSGDFGGGSFFFGGGDGJSGSFB;  YYYYYYYYYYYvGGS",
"SJGmYYYYYYYY     @mLC; X+*3axmAHGFGGFFSFSSSSSGGSSGDVcgssatavGGFSGGSFFZcMFGAGSSGGGSGGFSGSGSSGASSGFFFFSASSSSSGSZ,  YYYYYYYYYYYnGGS",
"SSGmYYYYYYYY     OkJGf7ukMAGGSGGSFSGSFSDGSGGGGFFSSSx-XX.X.XwGGGSGSFFFZi5nHSSGGGSGSFFFFFFGDDGGGGSFFFFDGGGGSGSGF7. YYYYYYYYYYYMGSG",
"SGSZYYYYYYY    XO:lFGDSFGSGGGAGSFSFFZMZZDDDSFSFFGGGk+  ..XX7AGSSAGFFFFV16AGDDDFFGSGSFFGSDGSDGAGSFFFGFGAAGGGSGJe. YYYYYYYYYYYASSD",
"SGSSYYYY   Xo@2ylmZSSFGGGDDDDGDSSSFSM36ZGFGSFFFFSGGn>@=,8eslZSSGGGFGFFGz:fFGFFSFSGSGFFFSGSGFFSGFFGFFSFFFSFFSJKaX.YYYYYYYYYYYAFGA",
"SSGmY. XO#2ulMZJGSSSGFSSGSDGSSDGFFFGZ&OmGSSFFFSFGSSVxvBSGKJGSSSSGASAFFHZ,<ZHFFFSSSGSFFFGSGFFFFFFFSGFGFGSGFGSFJsO .YYYYYYYYYYDFGF",
"GGJh=#3ylbZGGSGGSSGGSZZSAGDGSDSSSGFGZ3OlKGFGGZZFDSSDGGSGGGGFFSFJSAGAFFGD1%NKGFGGFDSSFSFFSGSGFFFGFFSFFFFFSFFSSFlO  YYYYYYYYYYDSDD",
"SSSmkmZJFFFGGGGGFAcs8,9MGASSSGGGFSFGKeOuKZBbfgZDSDCASGSDGSFSGSFSGGGHHDNyX.pVAGGJFJJGFFGFFSFSFFSSSGGSGSGFGFFGFJzO  YYYYYYYYYYDGSD",
"SGSZSFFJFFJJKZbbGZ1X. oaJGGGHGHGZZZGGsXOe,$@@6ZDGGayCGGSFFFSFFFFGFVbs2>=. X=,8yahcmBAFGGGGGSGGGGFFFFSSSFFFSFFGm@  YYYYYYYYYYAGSF",
"SSFFFFSFFJSms3$eGZ;  X-dJHFZmhi7:sGGHlO.OO#;9lDFLZ>X7MJGFFGGGJFBhe>@@>pl=     XX++@=,8yahxnBZFGGGGFGGGGGFFGSFFV&  YYYYYYYYYYDSGD",
"SSSFFFJSmf7&X  1DJ7 .wNVcst,@o...7FGFm0qfvNZKLGZc3  .-hSJGFBcs6&O@o@0NLC&       X.    XXO@@=,9yshcbMAGGGGFFFFJZ>  YYYYYYYYYYDSSS",
"SGFDSNh7&O    .1ZKdX ,e>@X      .1ZGFGZKKKFZbhe>@     @yche;OOO@>whmAKKb@       ..            XXO+#;,9tshlmNZJG7  YYYYYYYYYYDFGS",
"GSSGh>o.   X+>tcSFcO         .o&0hAABmvkft2&@X  ..     XO@o@&0sbZFFDFGGjo                       .     XXoo%=29a;  YYYYYYYYYYDFGS",
"SGGGwX.  +>txBGJGc7.      X&>ekmnhe2=@ooX.   XO-qa$    X@>tlBFJGZFFDDGJfX                                     X   YYYYYYYYYYAFGA",
"GSGGuO@,ixVGGGGGGc#   .O&7snMbg0=@        +#,yxBJPr. @8fbVGKKJFFGSFHGJKuX                                         YYYYYYYYYYDGGD",
"SSGScacCGHSGFSFSFN&   2xCABf7@o      .X@=9fMAGGFGFe.&cGKKFFANAGGGGGNNJD3                                          YYYYYYYYYYDSSD",
"SSGSGGGGJGFSSFSFGG0  XwAvw-X       @@3axBFJJGGGFFl#.eGKFFFZw;aFKGNf:rmyX YYYYY                                     YYYYYYYYYASGD",
"SSSGDGSDSSFFFFGFGPlo  X>@     .X@>thMSHGGFFFSSFFFlO.rFGFSFm& o7ue;X.@:X  YYYYYYYYY                                 YYYYYYYYYAGSD",
"SSGSSSDGSFGSFJGZncwX    .   +@3acVGGHGGGSFFGFFFGGV> #fSFFJm%   X..O1us@   YYYYYYYYYYYY                             YYYYYYYYYSFGS",
"GGSSGGSSFJFBcde,&oX     .+>thmSJGFFGSGSSSSJFVblbJLfX.3DJFJmO   .@evZZl@   YYYYYYYYYYYYYYYYYYYYYYYYYYYYYYYYYYYYYYYYYYYYYYYYYYSFFS",
"SSFFGGCnlu8=@X.         7bZFFFGGFFFFSFFFSmde,#O:mUD; 9JFFHvo  &wmGZj1%     YYYYYYYYYYYYYYYYYYYYYYYYYYYYYYYYYYYYYYYYYYYYYYYYYFSGS",
"GSSBde,@OX             @bKFGGGGGJJAZSFSGZeO.    >zn5XeJJHKv% ozHZf,X  o&X   YYYYYYYYYYYYYYYYYYYYYYYYYYYYYYYYYYYYYYYYYYYYYYYYDGSF",
"SGKg$  .               >ZJFJJFVmlu8sAFFKm&       o%. ,cBFKco +kf:O   XaVpX   YYYYYYYYYYYYYYYYYYYYYYYYYYYYYYYYYYYYYYYYYYYYYYYSFGS",
"SGKso@&                yKDNcs9,&OX >ZGGKsX           .@;6w>.  oX     ojIZ<.  YYYYYYYYYYYYYYYYYYYYYYYYYYYYYYYYYYYYYYYYYYYYYYYSFFF",
"SGGf5kv@               6s6&OX      &VGCv;      X&56.     .            -nIc%   YYYYYYYYYYYYYYYYYYYYYYYYYYYYYYYYYYYYYYYYYYYYYYDGFD",
"GSSVNb0.               ..          Xpy<@    X&7sbNaX                   <BKpX   YYYYYYYYYYYYYYYYYYYYYYYYYYYYYYYYYYYYYYYYYYYYYDSFD",
"GSSMw&                              XX   X@6fNZBf1o                     0HD1    YYYYYYYYYYYYYYYYYYYYYYYYYYYYYYYYYYYYYYYYYYYYDFFF",
"SGJd@                                  O,amFDbw=X                       XfKv&   YYYYYYYYYYYYYYYYYYYYYYYYYYYYYYYYYYYYYYYYYYYYSFFD",
"SGGdX                                 wcAKVf5@    YYYY     .             &vKa.   YYYYYYYYYYYYYYYYYYYYYYYYYYYYYYYYYYYYYYYYYYYFFFS",
"SGGdX.                               @nKMu=X  X.  YYYYY  X,,>o            :VD4    YYYYYYYYYYYYYYYYYYYYYYYYYYYYYYYYYYYYYYYYYYSGFF",
"SGGsX                      Xo        X77@. .X,swX  YYY   2AGGfX            7Dn%    YYYYYYYYYYYYYYYYYYYYYYYYYYYYYYYYYYYYYYYYYSFFF",
"SGJdX                    X2sh,           .X2hVLgo   Y    ,nBVjo            XpFpX   YYYYYYYYYYYYYYYYYYYYYYYYYYYYYYYYYYYYYYYYYSFFF",
"SGGso                    2AILho         .#gAJGJko X       @&&o              %zZ5    YYYYYYYYYYYYYYYYYYYYYYYYYYYYYYYYYYYYYYYYSFFF",
"GGGso          . YYYY    @gBf> @@@-,@   XyKJGGGM-+y=    Y                    :mfo    YYYYYYYYYYYYYYYYYYYYYYYYYYYYYYYYYYYYYYYDFFF",
"SGGdX        YYYYYYYYY    o@X @knnCZk=  .tLGSSSSj4vc@ YYYY                    %&      YYYYYYYYYYYYYYYYYYYYYYYYYYYYYYYYYYYYYYSFFS",
"SGKfo   YYYYYYYYYYYYYYY       @nLGFGHz= .9GGDGGSN5xA> YYYYY                           YYYYYYYYYYYYYYYYYYYYYYYYYYYYYYYYYYYYYYSFFF",
"SGGbYYYYYYYYYYYYYYYYYYYY       5CHFFGHl&.3GGSGDDm3lA> YYYYYY                          YYYYYYYYYYYYYYYYYYYYYYYYYYYYYYYYYYYYYYGFFF",
"SGGSYYYYYYYYYYYYYYYYYYYYY      .wDGFFHHrX2ZGDSGDM7xZ> YYYYYYY                         YYYYYYYYYYYYYYYYYYYYYYYYYYYYYYYYYYYYYYDFFF",
"SGSSYYYYYYYYYYYYYYYYYYYYYY      OjFFFFKgO,ZSDSDGZhMZ> YYYYYYYY                      YYYYYYYYYYYYYYYYYYYYYYYYYYYYYYYYYYYYYYYYSFFF",
"SSSSYYYYYYYYYYYYYYYYYYYYYYY      ;mDFFHgO;ZGDDGSASSB; YYYYYYYY                     YYYYYYYYYYYYYYYYYYYYYYYYYYYYYYYYYYYYYYYYYSFFF",
"GSSDYYYYYYYYYYYYYYYYYYYYYYYY     OkGFGGgX$VFSFDSSSSZ; YYYYYYYY                  ..YYYYYYYYYYYYYYYYYYYYYYYYYYYYYYYYYYYYYYYYYYSFFF",
"SGSSYYYYYYYYYYYYYYYYYYYYYYYY     OzHFFJsO$BFSFGSSFGM; YYYYYYYYY                 .YYYYYYYYYYYYYYYYYYYYYYYYYYYYYYYYYYYYYYYYYYYSFFF",
"SGSDYYYYYYYYYYYYYYYYYYYYYYYY     OcGFGJfO@mFFSGFFGFZ; YYYYYYYYY                YYYYYYYYYYYYYYYYYYYYYYYYYYYYYYYYYYYYYYYYYYYYYSFFF",
"GSFDYYYYYYYYYYYYYYYYYYYYYYYY     @vHFGJgX@mJSFSGFSFV; YYYYYYYYYY              YYYYYYYYYYYYYYYYYYYYYYYYYYYYYYYYYYYYYYYYYYYYYYSFFF",
"GFGAYYYYYYYYYYYYYYYYYYYYYYYY     @vJFGHg+%mJGSDGFFSV; YYYYYYYYYYY            YYYYYYYYYYYYYYYYYYYYYYYYYYYYYYYYYYYYYYYYYYYYYYYFDGD",
"AFFAYYYYYYYYYYYYYYYYYYYYYYYY     ocGFFGfX+nJSDDSSFGV; YYYYYYYYYYYY          YYYYYYYYYYYYYYYYYYYYYYYYYYYYYYYYYYYYYYYYYYYYYYYYDGSD",
"GDFAYYYYYYYYYYYYYYYYYYYYYYYY     @xGFFGh++vJGDDDGFFB= YYYYYYYYYYYYY       YYYYYYYYYYYYYYYYYYYYYYYYYYYYYYYYYYYYYYYYYYYYYYYYYYSFGS",
"DGGAYYYYYYYYYYYYYYYYYYYYYYYY     oxGGSGk++xGGSGGFSFm@ YYYYYYYYYYYYYY     YYYYYYYYYYYYYYYYYYYYYYYYYYYYYYYYYYYYYYYYYYYYYYYYYYYSFFS",
"SSGAYYYYYYYYYYYYYYYYYYYYYYYY     oxGFFGkookGAGDSSJJco YYYYYYYYYYYYYYY   YYYYYYYYYYYYYYYYYYYYYYYYYYYYYYYYYYYYYYYYYYYYYYYYYYYYSFFF",
"SGDDYYYYYYYYYYYYYYYYYYYYYYYY     okGFDGkookGGDDSSMZfo YYYYYYYYYYYYYYYY YYYYYYYYYYYYYYYYYYYYYYYYYYYYYYYYYYYYYYYYYYYYYYYYYYYYYDSFF",
"DGSDYYYYYYYYYYYYYYYYYYYYYYYY     okGFGFz+XgGGAFGJie3. YYYYYYYYYYYYYYYYYYYYYYYYYYYYYYYYYYYYYYYYYYYYYYYYYYYYYYYYYYYYYYYYYYYYYYSFFF",
"GSDDYYYYYYYYYYYYYYYYYYYYYYYY     okGGFGc+.fHGGAHJtO.  YYYYYYYYYYYYYYYYYYYYYYYYYYYYYYYYYYYYYYYYYYYYYYYYYYYYYYYYYYYYYYYYYYYYYYSFFF",
"SDFDYYYYYYYYYYYYYYYYYYYYYYYY     ohGGFGcoXaKGFFGJy.   YYYYYYYYYYYYYYYYYYYYYYYYYYYYYYYYYYYYYYYYYYYYYYYYYYYYYYYYYYYYYYYYYYYYYYFFSF",
"SGGSYYYYYYYYYYYYYYYYYYYYYYYY     XgHGFGvoXiKGDFGKyX   YYYYYYYYYYYYYYYYYYYYYYYYYYYYYYYYYYYYYYYYYYYYYYYYYYYYYYYYYYYYYYYYYYYYYYFGFF",
"GGSSYYYYYYYYYYYYYYYYYYYYYYYY     ofGGFHv+XyJGAGHKuX   YYYYYYYYYYYYYYYYYYYYYYYYYYYYYYYYYYYYYYYYYYYYYYYYYYYYYYYYYYYYYYYYYYYYYYSFFF",
"SSSSYYYYYYYYYYYYYYYYYYYYYYYY     XaGGFGv@XtJGGFGKuX   YYYYYYYYYYYYYYYYYYYYYYYYYYYYYYYYYYYYYYYYYYYYYYYYYYYYYYYYYYYYYYYYYYYYYYSFFF",
"DDDSYYYYYYYYYYYYYYYYYYYYYYYY     XsGFFJc@ wGGSGGKuX   YYYYYYYYYYYYYYYYYYYYYYYYYYYYYYYYYYYYYYYYYYYYYYYYYYYYYYYYYYYYYYYYYYYYYYDFFF",
"SGDSYYYYYYYYYYYYYYYYYYYYYYYY     XsKGFKb@X8GGFFGKuX   YYYYYYYYYYYYYYYYYYYYYYYYYYYYYYYYYYYYYYYYYYYYYYYYYYYYYYYYYYYYYYYYYYYYYYDSFF",
"GSDDYYYYYYYYYYYYYYYYYYYYYYYY     XaKGFKb@ 2AGFFGKaX   YYYYYYYYYYYYYYYYYYYYYYYYYYYYYYYYYYYYYYYYYYYYYYYYYYYYYYYYYYYYYYYYYYYYYYFFFF",
"SGGGYYYYYYYYYYYYYYYYYYYYYYYY     XaKGGKm@ 2AGSGGKaX   YYYYYYYYYYYYYYYYYYYYYYYYYYYYYYYYYYYYYYYYYYYYYYYYYYYYYYYYYYYYYYYYYYYYYYFFFF",
"FFFSYYYYYYYYYYYYYYYYYYYYYYYY     XyHGGJM@ ,CADSGKuX   YYYYYYYYYYYYYYYYYYYYYYYYYYYYYYYYYYYYYYYYYYYYYYYYYYYYYYYYYYYYYYYYYYYYYYGGSF",
"FFFFDYYYYYYYYYYYYYYYYYYYYYYY     XyHGGJM& >VGDDGFd;X  YYYYYYYYYYYYYYYYYYYYYYYYYYYYYYYYYYYYYYYYYYYYYYYYYYYYYYYYYYYYYYYYYYYYYYFGGS",
"FFFSDYYYYYYYYYYYYYYYYYYYYYYY     XtJHSHn@ -VSGSSDZNiX YYYYYYYYYYYYYYYYYYYYYYYYYYYYYYYYYYYYYYYYYYYYYYYYYYYYYYYYYYYYYYYYYYYYYSFGFS",
"SFGFGYYYYYYYYYYYYYYYYYYYYYYY     .tJGSGM= &BGSGSFGKlO YYYYYYYYYYYYYYYYYYYYYYYYYYYYYYYYYYYYYYYYYYYYYYYYYYYYYYYYYYYYYYYYYYYYYGGGDG",
"SGFGSSYYYYYYYYYYYYYYYYYYYYYY      wHGSSAaX%mDDSGFFJlo YYYYYYYYYYYYYYYYYYYYYYYYYYYYYYYYYYYYYYYYYYYYYYYYYYYYYYYYYYYYYYYYYYYYSFFGDD",
"SSFFGSSYYYYYYYYYYYYYYYYYYYYY     .9JJGGHA=%mJDSSFFGk+ YYYYYYYYYYYYYYYYYYYYYYYYYYYYYYYYYYYYYYYYYYYYYYYYYYYYYYYYYYYYYYYYYYYYFGFSDF",
"FSGGGFSYYYYYYYYYYYYYYYYYYYYY      0GLGGHH1*mJFSFDFLc+ YYYYYYYYYYYYYYYYYYYYYYYYYYYYYYYYYYYYYYYYYYYYYYYYYYYYYYYYYYYYYYYYYYYGFFFFFF",
"SGFFFSFSYYYYYYYYYYYYYYYYYYYY      Xtadhxx$+fNmmmnNCfo YYYYYYYYYYYYYYYYYYYYYYYYYYYYYYYYYYYYYYYYYYYYYYYYYYYYYYYYYYYYYYYYYYSSGFFFDF",
"DDDDGFGDFYYYYYYYYYYYYYYYYYYY        XXoo+. o%@%%+%*X  YYYYYYYYYYYYYYYYYYYYYYYYYYYYYYYYYYYYYYYYYYYYYYYYYYYYYYYYYYYYYYYYYDFGFFFFFD",
"DGDGDDGGDGYYYYYYYYYYYYYYYYYYYY                  ...   YYYYYYYYYYYYYYYYYYYYYYYYYYYYYYYYYYYYYYYYYYYYYYYYYYYYYYYYYYYYYYYYFFFGFFFFDG",
"DDDDDGDGGGDSYYYYYYYYYYYYYYYYYYY.      .         XXX+YYYYYYYYYYYYYYYYYYYYYYYYYYYYYYYYYYYYYYYYYYYYYYYYYYYYYYYYYYYYYYYYFFDFGFFDFFDF",
"DFGDDDDDFSDDDAYYYYYYYYYYYYYYYYYXXXXXXXXXX..XXXXXXX+$YYYYYYYYYYYYYYYYYYYYYYYYYYYYYYYYYYYYYYYYYYYYYYYYYYYYYYYYYYYYYYAAFFGFFFFFFFDF",
"DFFFDDDHFFFGGFAFAAYYYYYYYYYYYAnauuuuuuuuuuuuuuuuiiihAJFALDDDSAFFAAADAADDDDDDDADDDDDAADDDSDDAADDDAAYYYYYYYYYYYYADFDDDFGGFFDFDFFFD",
"DDGDHDDFFFFFGAGFDGFFGAGFGDSGFFGJHKKKJJKKJJJJHKLHJJJGFFDGJJDDFFFAFGFFFFFFGSFFGDGGGSFFGSFDGGFGFDFGFFFFGDSGDDGDGDDDFGDGFFFFFFFGFFDD",
"DFDDDDDGFFFFFDFFFFDGDFGDDGGFGFGGGGHGGJGGHGGGHGGGJFJFFFFDGSFFFSDSFGDGFFFFFFFFDDGFFFFGDFFGFFFFGGDFFFFFFFFFFFFFDFFFDGGDFFFFDFDDFFDF",
"DFFFDGDFFFDFFFDGFDFFDGDGFFFFFFFSSDDFGSGDFFGSDDDGFFSFSFSFFGFFSSJSGDDFFFFFFFFFDGDDFFFFGDFFDFFFDDGDFFFFHFFFFFGFFGGFFFFDFFFFDDDFFFFF",
"AGFFFFFFDHDDDDDDDDDDHDDHDDHDDHDDFDDFFFFFFFFFSSFFFFFSGFFSFSJFFFDJDDDDHDHDDDDDDDHDDDDHDDDDHDDHDDDDFFFFFFFFDDDDDDDDHDDDDDDDDDDHDDHD",
"DFSFFFFFDDDDHDHDDHDDDDDDDDDDDDDDFDFFFFFFFFFFGGGSGFFFFFGSFFSFJSDDDDHDDDDDDHDHHDDDDDDDHDHDDDDDDDHDFFGFFFFFHDDHDDDDDDHDDDHDDDDDDDDD",
"DDDDFFFFDHHDDDDDDDHDDDDDDDDDDHHDFFFFFFFFFFFFFFFFFFGFSFFGFFFFSFSDDHDDDDDDDDDDDDDDHDDDDDDDDDDDDDHDFFFFFFFFDDDDHDDDHDDDDDHDHDDDHDDD",
"DDSGFFFFDDDDDDHDDDDDHDDDDDHDDDDDFDFFFFFFGFFFFFFSFFSFGFFFSJSFFSDDDDDHDDHDDHDDHDDDDDDHDDHDHDDDDHDDFFFFFFFFDHDDDDDHDDDDDDDDDDDHDDDD",
"FFFFFFFFDDDDDHDDDHHDDDDHDDDHDDDDFFDFDDDDFFFFFFGSFFFFFGFFFSJFFFFFDDDDHDDDDDDHDHDDDHDDDDDDDDDHDDDDDDDDFFFFDDDDDHDDDDDDHDDDDDHDDDDD",
"FDFFFFDFDDHDDDDHDDDDDHDDDDDDDDDDFFDFDHDHFFFFGGGFGFFFFSSFFFSFFFFFDHDHDDDDDDDDDDDDDDDDHDDDDDDDHDDHDHDHFFFFDDHDDDDHDDDDDDHDHDDDHDDD",
"SSFFGDFFDDDDDDDDDDHDDHDDHDDDDDDDFFFFFFDDFFFFGSSFFFFFFFGFFFFFFFFFDHDDDDDDDDDDDDDDDDDDDDDDDDDDDDDDDDDDFFFFHDHDDHDDDDDHHDDDDDDDDDDD",
"SFDDDGFFDDHDDHDDDDDDDDDDDDDHDDDHFFFFFFDDFFFFSGFFFFFFFGSFFFFFSFFFDDDDDHDDHDHDHDDHDDHDDHDHDDHDHDDHDHDDHFFFDDDDDDDDHDDDDDHDDDDDHDDD",
"SFFFFDFFFFDGDDDDHDHDHDDHHDDDDDHDDDDDDDDDDDHDDDDDGFGFFSSFFFFSFFFFDDDHDDDHDDDHDDDDHDDDHDDHDHDDHDDDDDDHDDDDDHDDDDDHHDDDDDDHHDDDDHDD",
"FSFFDFFDFFFDDDDHDDDDDDDDDDHDDDDDHDDDDDHDDDDDHDHDSSFSFFJFSFSJFFFFDDDDDDDDHDDDDDDDDDDDDDDDDDDDDDDDDDDDDDDHDDDDDHDDDDDDDDDDDDDDDDDD",
"SSFSFFFFFFFFDHDDDDDDDDDDDDDDDDDDDDHDHDDDDHDDDDDDSGGSFFFFGSSFFDDDHDDDDDDDDDDDDDDHDDDDDDDDDDDDDDDHDDDDDHHDHDDHDDDDDDDHHDDDDDDHDDDD",
"FFSFFFFFFFFFDDDHDDHDDDDDDHDDDDHDDDDDDDDDDDDDDDDDFFFFFFFFGFFFFDGDDDHDDDHDDHDDDDDHHDDHDDDHDDDDHDDDDHDDDDDDDDDDDDDHHDDDDDDHHDDDDDHD",
"SFFFFFFFFFFFFFFFDDDDDDDDDDDDHDDDDDDDDDDDDDDDDDDHFFFFFFFFSGGSGSDGDDDDDDDDDDDHDHDDDDHDHDDHHDDHHDDHDDDDDHDDDDHDDDDDDDHDDHDDDHDDHDDD",
"GFFFFFFDFFFFFFDFHDDHDDDHDHDDDDDHHDDHDDHDDHHDDHDDFFFFFFFFGSSGGFDDDDHDHDDDDHDDDDDDHDDDDDDDDDDDDDDDDHDDDDHDHDDDDDDDDDDDDDDDDDDHDDDD",
"SSSFFFFFFFFFFFFDDDDDDHDHDHDDDDDDDDDDHDHDDHDDDDHDFFFGFFSFSSGSFDDGDDHDDHHDDDHDDHHDDDHDDHDDDDDDDDDDDDDHDDHDDDDDHDDDDDHDDDDDDDDDDDDD",
"bGFFFFFFFFFFFFFHDDDHDDDDDDHDDDHDDDHDDDDDDDDDDDDDFFFFFFSFFSSFFFDDDDDDDDDDDDDDDDDDDDDDDDDDDHDDHDDHDHDDDDDDDDDHDDHDHDDDHDDDDHDDHDDM",
"rHDDDDDDDDDDDDDDDDDDDDDDDDDHDDHDHDDDDHDDHDDDDDDDDDDDDDDHHDDDDDDDHDHDDDHDDDDPDDDDDHDDDHDDDDDHDDDDDDDDDDHDHDDDDDDDDDHDDDHDHDDDDDHp",
"-BDDDDDDDDDDPDDCHDDHDDDHDHDDDDDDDDDDDDDDDDDHDHHDDDHDDDDDDDDDDDDHDDDDDDDDDHDDDDDDDDDDDDDHHDDDHDDDHDDHHDDDDDDHDDDDDDDDDDDDDDDDDHD4",
"ojPDHDFFDDPDCDDPDDDDDHDDDHDDDDDHDDHFDHDHDDDDDDHDHDDHHDDDDDHDHDDDHDDHDDDDDDDDDDDPDDDHDDHDDDDDDDDDDDDDDDHDDDFFFFDDDDDHDHDDDDDDDPn-",
".4ZPDDDFFFDDDDCPDDDDDDDHDDDDHDDDDDDDDDDDDHDDDDDDDDDDDDDHHDDDDDDDDDDDDDPDDDHDDDDDHDDDDDDDHDDHDDHDDDDDHDDDDDFFFFPDDDDDDDHDHDDHHD4%",
"YozPFFFDFDDDDDPDHDHDDDDDDDDDDDDDDDDFDDDDDHDDHDDDDDDDDHDDDDHDDDFDDDDHDDDDDDDDDDDDDHDDDDDDDDDDDHHDDDDDDDDDDDDDPCDDDHDDDHDDDDDDHz%Y",
"Y.-nFDFDHDDDCPCDDDDDHDDDDDHDDDHDDHDDDDDDDDDDDDDDDDDHDDDDDDDDDHHDDDDDDDDHDHDDDDDDFDDDFDDDDDDDDDDDDHHDDDHDHDDHDDDDDDHDDDHDDDDPN4oY",
"Y  0CPFFDDDDFFFZDDHDDDHDDDHDDHDDDDHFFFDDDDDHDDDHDHDDDDDDDDDDFFFDDDDDDDDDDDHDDDPDFFDHHDDDHDDDDDDDDDDDDHDDDDDDDDCPDDHDDHDDDDPC0.oY",
"YY .rCPFDDDHFFFPDDDDDDDDDDDDDDDDDDDFFFDDDHDDHDDDDDDDHDDDHDDHFFFDHDDHHDDDPDDDDDDDFDDDDDDDDDDDHDDHDHDDDDDHDDHDCPDDDDDDDDDDDPCr..YY",
"YY  o0NPGDDFFFGZDDPDDCDCHDDHDHDDCDDCDDPDDDDCDCDCDDHDDHDDDDPDDDDDDDDCDCDCDDDDHDDDCDDDDDDDDDPDDCDCDHDDDDDDFFFFFPCDFFFFFDDHPNwo  YY",
"YYY  .:zDHFFDFFHPDCDDPDPDDDDDDDDPDDPDDDDPDDPDPDPDHDDDDDDCPCDPDDDPDDPDPDPDDDHDDDHPDPCDDPDDDCDDPDPDDDDDHDDFFFFDCPFFHZDFDHGz4.  YYY",
"YYYY   %wvCHFGFZCDDDDDDDDDDDDDDDDDCPDDDDADDDDDFDDDDDDDDDDDDFCDDDADDDDDFDDHDDDDDDDDDFDDDDDDDDDDDDDDDDDHDDDDDDDDDDFGHFGZvw%   YYYY",
"YYYYY    +4pzmBNBMMMMMNNMMMMMMMMMMMNMMMMMnMMMMMNMMMMMMMMMMNNMMMMMnMMMMMNMMMMMMMMNMMNMMMMMMMMMMNNMMMMMMMMMMMNMMNBNBmzp4%... YYYYY",
"YYYYYY     .+%%-%%%%%%%%%%%%0%-%%%%%%%%%%%%%%%%%%%%%-%%%%%%%%%%%%%%%%%%%%%%%r---%%%%%%%%%%%%%%%%%%%%-%%%%%%%%%%=%-%oX     YYYYYY",
"YYYYYYY         .  .        -%oo                .   oo.o           .    .   4-%%        .. .        oo..                 YYYYYYY",
"YYYYYYYYY                     ..                      ..                    ..%o                      ..               YYYYYYYYY",
"YYYYYYYYYYY                   ..                       .                    .ooo                       .            YYYYYYYYYYYY"
};
