/* XPM */
static char *molotov[] = {
/* columns rows colors chars-per-pixel */
"128 128 74 1 ",
"  c #000000",
". c #080704",
"X c #070805",
"o c #0A0A05",
"O c #0E0E0B",
"+ c #100F0B",
"@ c #141407",
"# c #12120D",
"$ c #18170E",
"% c #1B1A0E",
"& c #151512",
"* c #181711",
"= c #1B1A14",
"- c #1E1E19",
"; c #201F16",
": c #201F19",
"> c #242214",
", c #25241B",
"< c #28271B",
"1 c #2C2B1C",
"2 c #302F1E",
"3 c #282720",
"4 c #2D2B21",
"5 c #302E22",
"6 c #343223",
"7 c #383626",
"8 c #353329",
"9 c #393729",
"0 c #3C3B2C",
"q c #3F3D31",
"w c #403F2E",
"e c #403F31",
"r c #454333",
"t c #484635",
"y c #4C4937",
"u c #464438",
"i c #484639",
"p c #4D4B3B",
"a c #504E3E",
"s c #52503F",
"d c #514F41",
"f c #555343",
"g c #585645",
"h c #5C5947",
"j c #5A5748",
"k c #5D5B4B",
"l c #605E4E",
"z c #615F50",
"x c #63614E",
"c c #656352",
"v c #696655",
"b c #6C6956",
"n c #686659",
"m c #6A6958",
"M c #716E5C",
"N c #71705F",
"B c #726F60",
"V c #767361",
"C c #797664",
"Z c #7C7A65",
"A c #7F7C69",
"S c #817E6A",
"D c #85846F",
"F c #88856F",
"G c #878672",
"H c #888772",
"J c #8B8974",
"K c #8F8C78",
"L c #918E7A",
"P c #94917D",
"I c #979480",
"U c #999581",
"Y c #9B9884",
"T c None",
/* pixels */
"TTTTTTTTTTTGGHJHHKHHHHHGGGHGGHGGHHGHHGHGGGGHHHHHHGHHHGHGHHHHHGGGHHGJHHHHHGHHGHHGHHHHHHHGGGGHHHHHHGHHGHGGHHGFHHHHHFHFSTTTTTTTTTTT",
"TTTTTTTTSHKHHHKSHSHHHHHHGHHHHHHHHHHHHHHHHHHHHHHHHHGGHHHHHHHHHHHHHGHGHHHHHHGGHHHHHHHHHHHHHHHHHHHHHHGHHHHHHHHHHHHHHHHHHHJSTTTTTTTT",
"TTTTTTTGHHJHHHHJJHHSHHHHGHGDGDHHHHHHGDGDGDGGHHHHHDGGGGGGHHHHGHHHGDGGHHHHHGGGGGGGHGHHGDHDGDHHHGHHHDGGGDGGGGGHGFHHJHHHHHHHJTTTTTTT",
"TTTTTDHHJKSHHHJJSBBmnnnnbmmmmmmmnmnnmmmmmmmbnmnmmmmmmmmmmnmnnnnnmmmbnmnmmmmvmmmmmnnnmmmmmmmmnmnmmmmmmmmmmnmmmmNAHJJJHHHHJHFTTTTT",
"TTTTDFHHHHHJJZke,*OO++++OOOOOOOOOO++OOOOOOOOOOOOOOOOOOOO++OOOOOOOOOOOOOOOOOOOOOOOO++OOOOOOOOOOOOOOOOOOOOOOOOO+$<wkCJJJHHJHFDTTTT",
"TTTTGHJJHKJCd<O.                                                                                                .o>pVJJHHHFJFTTT",
"TTTJHHGHJGk<o                                                                                                      o,jDJJGHHHTTT",
"TTSHJHHJSp#                                                                                                          #uAJHHHHFTT",
"TTJJHHJSeO     TTTTTTTTTTTTTTTTTTTTTTTTTTTTTTTTTTTTTTTTTTTTTTTTTTTTTTTTTTTTTTTTTTTTTTTTTTTTTTTTTTTTTTTTTTTTTTTTT      oqSHHHHHTT",
"TJHJHKSdO   TTTTTTTTTTTTTTTTTTTTTTTTTTTTTTTTTTTTTTTTTTTTTTTTTTTTTTTTTTTTTTTTTTTTTTTTTTTTTTTTTTTTTTTTTTTTTTTTTTTTTTT    oeSKHHHHT",
"THHJJKj&   TTTTTTTTTTTTTTTTTTTTTTTTTTTTTTTTTTTTTTTTTTTTTTTTTTTTTTTTTTTTTTTTTTTTTTTTTTTTTTTTTTTTTTTTTTTTTTTTTTTTTTTTTT   +dKJGHJT",
"FHJHHM-  TTTTTTTTTTTTTTTTTTTTTTTTTTTTTTTTTTTTTTTTTTTTTTTTTTTTTTTTTTTTTTTTTTTTTTTTTTTTTTTTTTTTTTTTTTTTTTTTTTTTTTTTTTTTT   =mHJHHF",
"FHSKJe. TTTTTTTTTTTTTTTTTTTTTTTTTTTTTTTTTTTTTTTTTTTTTTTTTTTTTTTTTTTTTTTTTTTTTTTTTTTTTTTTTTTTTTTTTTTTTTTTTTT       TTTTT  .0GJGHF",
"FHJKM; TTTTTTTTTTTTTTTTTTTTTTTTTTTTTTTTTTTTTTTTTTTTTTTTTTTTTTTTTTTTTTTTTTTTTTTTTTTTTTTTTTTTTTTTTTTTTTTTTTT    .    TTTTTT #bJHFH",
"HHJLao TTTTTTTTTTTTTTTTTTTTTTTTTTTTTTTTTTTTTTTTTTTTTTTTTTTTTTTTTTTTTTTTTTTTTTTTTTTTTTTTTTTTTTTTTTTTTTTTTT   O=0wo  TTTTTTT.yJJHH",
"FHJS5 TTTTTTTTTTTTTTTTTTTTTTTTTTTTTTTTTTTTTTTTTTTTTTTTTTTTTTTTTTTTTTTTTTTTTTTTTTTTTTTTTTTTTTTTTTTTTTTTTT  #rcVHN$  TTTTTTT 1SJHF",
"FHJV=TTTTTTTTTTTTTTTTTTTTTTTTTTTTTTTTTTTTTTTTTTTTTTTTTTTTTTTTTTTTTTTTTTTTTTTTTTTTTTTTTTTTTTTTTTTTTTTTTT  %sFLJPN$  TTTTTTTT$MJHH",
"FJJm&TTTTTTTTTTTTTTTTTTTTTTTTTTTTTTTTTTTTTTTTTTTTTTTTTTTTTTTTTTTTTTTTTTTTTTTTTTTTTTTTTTTTTTTTTTTTTTTTT  =sJJFFJN$  TTTTTTTT#cJHH",
"JJJm-TTTTTTTTTTTTTTTTTTTTTTTTTTTTTTTTTTTTTTTTTTTTTTTTTTTTTTTTTTTTTTTTTTTTTTTTTTTTTTTTTTTTTTTTTTTTTTTT  =xJJJJFJN$  TTTTTTTTTxJJH",
"FFJvTTTTTTTTTTTTTTTTTTTTTTTTTTTTTTTTTTTTTTTTTTTTTTTTTTTTTTTTTTTTTTTTTTTTTTTTTTTTTTTTTTTTTTTTTTTTTTTT  &zKJJFJFJN%  TTTTTTTTTcJHF",
"FJJbTTTTTTTTTTTTTTTTTTTTTTTTTTTTTTTTTTTTTTTTTTTTTTTTTTTTTTTTTTTTTTTTTTTTTTTTTTTTTTTTTTTTTTTTTTTTTTT  =zKJHFHFJJD>  TTTTTTTTTbJJF",
"JJJMTTTTTTTTTTTTTTTTTTTTTTTTTTTTTTTTTTTTTTTTTTTTTTTTTTTTTTTTTTTTTTTTTTTTTTTTTTTTTTTTTTTTTTTTTTTTTT  =cPJFFFFFFJN>  TTTTTTTTTbJJJ",
"FFJMTTTTTTTTTTTTTTTTTTTTTTTTTTTTTTTTTTTTTTTTTTTTTTTTTTTTTTTTTTTTTTTTTTTTTTTTTTTTTTTTTTTTTTTTTTTTT  =cLDNFFHHFJJD>  TTTTTTTTTNJJF",
"JJFSTTTTTTTTTTTTTTTTTTTTTTTTTTTTTTTTTTTTTTTTTTTTTTTTTTTTTTTTTTTTTTTTTTTTTTTTTTTTTTTTTTTTTTTTTTTT  &cPv4sJJFHFJJN> TTTTTTTTTTSHFF",
"FJFFTTTTTTTTTTTTTTTTTTTTTTTTTTTTTTTTTTTTTTTTTTTTTTTTTTTTTTTTTTTTTTTTTTTTTTTTTTTTTTTTTTTTTTTTTTT  &zUN:,mLFFHHHJS> TTTTTTTTTTFHHF",
"JFFFTTTTTTTTTTTTTTTTTTTTTTTTTTTTTTTTTTTTTTTTTTTTTTTTTTTTTTTTTTTTTTTTTTTTTTTTTTTTTTTTTTTTTTTTTT  &kLV:=zKHHFHHFJZ> TTTTTTTTTTGHFH",
"FJJFTTTTTTTTTTTTTTTTTTTTTTTTTTTTTTTTTTTTTTTTTTTTTTTTTTTTTTTTTTTTTTTTTTTTTTTTTTTTTTTTTTTTTTTTT  &kLC,&dKJFHFHHHJZ>.TTTTTTTTTTGHHH",
"JFFFTTTTTTTTTTTTTTTTTTTTTTTTTTTTTTTTTTTTTTTTTTTTTTTTTTTTTTTTTTTTTTTTTTTTTTTTTTTTTTTTTTTTTTTT  &jPG8 1SKJFHHHFJJZ>  TTTTTTTTTGFJG",
"HHHFTTTTTTTTTTTTTTTTTTTTTTTTTTTTTTTTTTTTTTTTTTTTTTTTTTTTTTTTTTTTTTTTTTTTTTTTTTTTTTTTTTTTTTT  =zPJuo =CKHFHFFHHJZ>  TTTTTTTTTFHHG",
"FHGFTTTTTTTTTTTTTTTTTTTTTTTTTTTTTTTTTTTTTTTTTTTTTTTTTTTTTTTTTTTTTTTTTTTTTTTTTTTTTTTTTTTTTT  &cKIz$  odJHHHHFFFJD2  TTTTTTTTTFFJG",
"HHHFTTTTTTTTTTTTTTTTTTTTTTTTTTTTTTTTTTTTTTTTTTTTTTTTTTTTTTTTTTTTTTTTTTTTTTTTTTTTTTTTTTTTT  &cLIN:+7% ,AHJFgtCFKF2. TTTTTTTTTDHFJ",
"FHHFTTTTTTTTTTTTTTTTTTTTTTTTTTTTTTTTTTTTTTTTTTTTTTTTTTTTTTTTTTTTTTTTTTTTTTTTTTTTTTTTTTTT  =zKIV,.9Fgo+jLJk$$hPKD2  TTTTTTTTTDHJD",
"JHHFTTTTTTTTTTTTTTTTTTTTTTTTTTTTTTTTTTTTTTTTTTTTTTTTTTTTTTTTTTTTTTTTTTTTTTTTTTTTTTTTTTT  =zLLS7 :NPS< 5LJ7  0JLS<  TTTTTTTTTHHFF",
"FJFFTTTTTTTTTTTTTTTTTTTTTTTTTTTTTTTTTTTTTTTTTTTTTTTTTTTTTTTTTTTTTTTTTTTTTTTTTTTTTTTTTT  -cLLGto$xPKJhO$cPdO =bLZ>  TTTTTTTTTGHHH",
"FHHFTTTTTTTTTTTTTTTTTTTTTTTTTTTTTTTTTTTTTTTTTTTTTTTTTTTTTTTTTTTTTTTTTTTTTTTTTTTTTTTTT  ;nLLLk+orHJFJS2.6HF7. 3CA% TTTTTTTTTTFHFH",
"HHHFTTTTTTTTTTTTTTTTTTTTTTTTTTTTTTTTTTTTTTTTTTTTTTTTTTTTTTTTTTTTTTTTTTTTTTTTTTTTTTTT  ;bLJJb= <SHFFFKm$#kPC5#<bM+ TTTTTTTTTTFHJF",
"FHHFTTTTTTTTTTTTTTTTTTTTTTTTTTTTTTTTTTTTTTTTTTTTTTTTTTTTTTTTTTTTTTTTTTTTTTTTTTTTTTT .<MPLJC, *mJFFGHJH7.,SLSMCb6  TTTTTTTTTTFHHF",
"HHHFTTTTTTTTTTTTTTTTTTTTTTTTTTTTTTTTTTTTTTTTTTTTTTTTTTTTTTTTTTTTTTTTTTTTTTTTTTTTTT o6NKJJGw.oaJHHHHKNt+ oaIPAg:  TTTTTTTTTTTFHJG",
"FFHFTTTTTTTTTTTTTTTTTTTTTTTTTTTTTTTTTTTTTTTTTTTTTTTTTTTTTTTTTTTTTTTTTTTTTTTTTTTTT .0SKHHJl+ 7DJHHJDk>. .$0h0-O   TTTTTTTTTTTDJJG",
"JHHFTTTTTTTTTTTTTTTTTTTTTTTTTTTTTTTTTTTTTTTTTTTTTTTTTTTTTTTTTTTTTTTTTTTTTTTTTTTTT 1SLJHJB: *CPJJLN0# .:fMk4O   TTTTTTTTTTTTTDFJG",
"GHHFTTTTTTTTTTTTTTTTTTTTTTTTTTTTTTTTTTTTTTTTTTTTTTTTTTTTTTTTTTTTTTTTTTTTTTTTTTTT osPJFJFe. +yVJHl:. =aVJJGl:  TTTTTTTTTTTTTTHHHF",
"FHHFTTTTTTTTTTTTTTTTTTTTTTTTTTTTTTTTTTTTTTTTTTTTTTTTTTTTTTTTTTTTTTTTTTTTTTTTTTT  *cLJFJZ= +oO=76+ $rBHJLLM6o TTTTTTTTTTTTTTTFHJH",
"FHHFTTTTTTTTTTTTTTTTTTTTTTTTTTTTTTTTTTTTTTTTTTTTTTTTTTTTTTTTTTTTTTTTTTT    TTT  OrDJJFJC>#fy#   .<lHLJJJk-. TTTTTTTTTTTTTTTTDJJG",
"HFHFTTTTTTTTTTTTTTTTTTTTTTTTTTTTTTTTTTTTTTTTTTTTTTTTTTTTTTTTTTTTTTTTTT  .+o    o0SFFFFLJw$lKa*o$tCKJJJDg* TTTTTTTTTTTTTTTTTTDGJG",
"HHHFTTTTTTTTTTTTTTTTTTTTTTTTTTTTTTTTTTTTTTTTTTTTTTTTTTTTTTTTTTTTTTTTT  owlf+  owSJHGJJPS<oyPJbalFHJJLSr# TTTTTTTTTTTTTTTTTTTDJJG",
"FJFGTTTTTTTTTTTTTTTTTTTTTTTTTTTTTTTTTTTTTTTTTTTTTTTTTTTTTTTTTTTTTTTT   -DPL0 .6SKHJJLFx<. <SKGJHJFJJb2o TTTTTTTTTTTTTTTTTTTTGFFG",
"FFJGTTTTTTTTTTTTTTTTTTTTTTTTTTTTTTTTTTTTTTTTTTTTTTTTTTTTTTTTTTTT       =SLLfO.wLPKJVg2#   +lLJHHHJKc:. TTTTTTTTTTTTTTTTTTTTTDHJF",
"JJGDTTTTTTTTTTTTTTTTTTTTTTTTTTTTTTTTTTTTTTTTTTTTTTTTTTTTTTTT   .O$>00o #cKLM# *vJMr;+  O*; ,SJHHJJl*  TTTTTTTTTTTTTTTTTTTTTTFHJF",
"JJHDTTTTTTTTTTTTTTTTTTTTTTTTTTTTTTTTTTTTTTTTTTTTTTTTTTT    oO$>rfmZJZ* oaLPD1  *5*o  #<gNkOorGJJHf$XTTTTTTTTTTTTTTTTTTTTTTTTHGJG",
"FGHDTTTTTTTTTTTTTTTTTTTTTTTTTTTTTTTTTTTTTTTTTTTTTT    .O#=6ylbDHHKJLH1  2HLLfo      1sxs2$ o4AKSy# TTTTTTTTTTTTTTTTTTTTTTTTTGJJG",
"FJHDTTTTTTTTTTTTTTTTTTTTTTTTTTTTTTTTTTTTTTTTTT    Xo#>0sbCFLJFJJJJFJLto $MLJZ<     o27=$O$1pbKZ9O TTTTTTTTTTTTTTTTTTTTTTTTTTDFFF",
"FJHDTTTTTTTTTTTTTTTTTTTTTTTTTTTTTTTTTTTTT     oO#1rfbZFKJHJJHHHFFHFJJv# .iJPLw      . O7gbDPLM<. TTTTTTTTTTTTTTTTTTTTTTTTTTTGJHH",
"JHHDTTTTTTTTTTTTTTTTTTTTTTTTTTTTTTTTTT  X o#;6pkbAJJJJJJHHFFHFFJFFFHJF6  -ZYb*        ,VPPKKk-  TTTTTTTTTTTTTTTTTTTTTTTTTTTTDJHF",
"DHHDTTTTTTTTTTTTTTTTTTTTTTTTTTTTTTT    O%7pkMHLLJJFJHHGGFHHHJHHHJHHFKPhO .9k-         .3cACf&  TTTTTTTTTTTTTTTTTTTTTTTTTTTTTDJJF",
"JFHGTTTTTTTTTTTTTTTTTTTTTTTTTTTTT   X#7hNLM6<wcDJJDHHHFJHFHHFHJFFFJKFc0.   O            #=*o  TTTTTTTTTTTTTTTTTTTTTTTTTTTTTTDFFJ",
"GJJGTTTTTTTTTTTTTTTTTTTTTTTTTTT   o;tbFJJLb2@X@2bLJHFHHGHJHFFJHJJLFx9$.                      TTTTTTTTTTTTTTTTTTTTTTTTTTTTTTTDJJF",
"FJGDTTTTTTTTTTTTTTTTTTTTTTTTT   #1sVJLJJJJDDx2XX>MKHHFHHJJFHJJJLFx6$             TTTTTTTTT TTTTTTTTTTTTTTTTTTTTTTTTTTTTTTTTTHHHH",
"JFJDTTTTTTTTTTTTTTTTTTTTTTT   #7kDLJJJFFFFGJLSwo 1AJHFJFFFFJJJCh5#  O            TTTTTTTTTTTTTTTTTTTTTTTTTTTTTTTTTTTTTTTTTTTHHJF",
"JDHDTTTTTTTTTTTTTTTTTTTTT   @7xFJJJFJDHDHHFFJLDw.ogKJHHFJJLJVd<+  #2p#          TTTTTTTTTTTTTTTTTTTTTTTTTTTTTTTTTTTTTTTTTTTTDJJF",
"FJJDTTTTTTTTTTTTTTTTTTT   #7kDKJJHFHDHHJFFHJFFLN=X1DJFJHJHbr=o  #6xbuO    TTTTTTTTTTTTTTTTTTTTTTTTTTTTTTTTTTTTTTTTTTTTTTTTTTDDJJ",
"JDJDTTTTTTTTTTTTTTTTT   #6xDFJHFFHFJGGHHJHFJFHJLtX$MPHLAl6$.  o<xNl,o   TTTTTTTTTTTTTTTTTTTTTTTTTTTTTTTTTTTTTTTTTTTTTTTTTTTTDHJD",
"FJJDTTTTTTTTTTTTTTT   O1kAJJHFHFFHHJGJJFHHHHFJJLM$ogPAh1+     5bc5+    TTTTTTTTTTTTTTTTTTTTTTTTTTTTTTTTTTTTTTTTTTTTTTTTTTTTTFJFJ",
"FJJDTTTTTTTTTTTTT   O1hDKJHHFHFJHJJFJJFGFJFHJFJJG1.1a<O   +=o @<#     TTTTTTTTTTTTTTTTTTTTTTTTTTTTTTTTTTTTTTTTTTTTTTTTTTTTTTDJJF",
"JFGDTTTTTTTTTTTT  o>fDKJHFHFHFJFHFFJGFJJJFFJFJFJKr. o    odV>       TTTTTTTTTTTTTTTTTTTTTTTTTTTTTTTTTTTTTTTTTTTTTTTTTTTTTTTTFHHF",
"GHGDTTTTTTTTT   .*yNKJHFFHFJJFHHHHJJFJHHHJJFHHJJPyo   .o Odd#      TTTTTTTTTTTTTTTTTTTTTTTTTTTTTTTTTTTTTTTTTTTTTTTTTTTTTTTTTHJHH",
"HHHFTTTTTTT    #wMKJKGFHFFFGFHJHHJFFJJFHFFHHHHHJK0   #0j& OO      TTTTTTTTTTTTTTTTTTTTTTTTTTTTTTTTTTTTTTTTTTTTTTTTTTTTTTTTTTHHHH",
"FHHFTTTTTTT  o1cJLJFSFFDGFGFFJHFFJHHHHFJJHHHJHHJD<  4cLA&        TTTTTTTTTTTTTTTTTTTTTTTTTTTTTTTTTTTTTTTTTTTTTTTTTTTTTTTTTTTDFJF",
"HHHFTTTTTT   1CKFFFSrhFHDVZSFFFHFHHJFHHHHHFJHHHLb# $ZYLpo     XTTTTTTTTTTTTTTTTTTTTTTTTTTTTTTTTTTTTTTTTTTTTTTTTTTTTTTTTTTTTTDJJF",
"FFJFTTTTTT  oyPHt7MF<=CJFr2MHHFGFFJHFJHJFJFJHGJJ0. >GZu+    XXTTTTTTTTTTTTTTTTTTTTTTTTTTTTTTTTTTTTTTTTTTTTTTTTTTTTTTTTTTTTTTFHJF",
"HJHFTTTTTT   9JJ4.eJaoyLLtowGJHFHHHHHJJFJHJFJJLz#  ;d-.     OTTTTTTTTTTTTTTTTTTTTTTTTTTTTTTTTTTTTTTTTTTTTTTTTTTTTTTTTTTTTTTTDJFJ",
"FGHFTTTTTT   >SPao&VS;@MPN%+kKJFHFFJHFFHHJFHKKB,    o      TTTTTTTTTTTTTTTTTTTTTTTTTTTTTTTTTTTTTTTTTTTTTTTTTTTTTTTTTTTTTTTTTFHJF",
"FGHFTTTTTT   OvPC: eKgo>SPso$bKHFHFHHHJJFFJJLV<           TTTTTTTTTTTTTTTTTTTTTTTTTTTTTTTTTTTTTTTTTTTTTTTTTTTTTTTTTTTTTTTTTTFHHF",
"HJGDTTTTTT    eKLuo+cJ5.8GG7*dJJFHFJHFHJHHJKb,          OTTTTTTTTTTTTTTTTTTTTTTTTTTTTTTTTTTTTTTTTTTTTTTTTTTTTTTTTTTTTTTTTTTTHHHH",
"FJJFTTTTTT    *mPC: :ZZ:.dJSbVFGFHHHFJFFHLSk=          TTTTTTTTTTTTTTTTTTTTTTTTTTTTTTTTTTTTTTTTTTTTTTTTTTTTTTTTTTTTTTTTTTTTTHJJH",
"FJJDTTTTTT    .0JPa. 8Gl#+dILFFFHFJHFFJJJV9#          TTTTTTTTTTTTTTTTTTTTTTTTTTTTTTTTTTTTTTTTTTTTTTTTTTTTTTTTTTTTTTTTTTTTTTDHJF",
"JFGGTTTTT      OlLS5 opJio#zLJFGFHHFJJLSf-.         TTTTTTTTTTTTTTTTTTTTTTTTTTTTTTTTTTTTTTTTTTTTTTTTTTTTTTTTTTTTTTTTTTTTTTTTDJJF",
"FJFGTTTTT       *vIC, &zKqX=bKJHHFJJLDh<O         TTTTTTTTTTTTTTTTTTTTTTTTTTTTTTTTTTTTTTTTTTTTTTTTTTTTTTTTTTTTTTTTTTTTTTTTTTGHHF",
"FFHFTTTTT        <CYv= &nG8X>MLJJJLDh2O         TTTTTTTTTTTTTTTTTTTTTTTTTTTTTTTTTTTTTTTTTTTTTTTTTTTTTTTTTTTTTTTTTTTTTTTTTTTTDHJJ",
"HJHGTTTTTT   @7@ .1ZIz= =nS8.>mLLSh1+         TTTTTTTTTTTTTTTTTTTTTTTTTTTTTTTTTTTTTTTTTTTTTTTTTTTTTTTTTTTTTTTTTTTTTTTTTTTTTTDHFF",
"HFJFTTTTTT   %NyO  <MIk- =cc& -kf<O         TTTTTTTTTTTTTTTTTTTTTTTTTTTTTTTTTTTTTTTTTTTTTTTTTTTTTTTTTTTTTTTTTTTTTTTTTTTTTTTTHHJH",
"JFJGTTTTTTT  OhJu+  :cKm* #<.  oo         TTTTTTTTTTTTTTTTTTTTTTTTTTTTTTTTTTTTTTTTTTTTTTTTTTTTTTTTTTTTTTTTTTTTTTTTTTTTTTTTTTJJJG",
"FJFGFTTTTTT   -VLf$  #iM5               TTTTTTTTTTTTTTTTTTTTTTTTTTTTTTTTTTTTTTTTTTTTTTTTTTTTTTTTTTTTTTTTTTTTTTTTTTTTTTTTTTTTHJHH",
"JFJGGTTTTTTT   8SPc,o o#.             TTTTTTTTTTTTTTTTTTTTTTTTTTTTTTTTTTTTTTTTTTTTTTTTTTTTTTTTTTTTTTTTTTTTTTTTTTTTTTTTTTTTTHHJHH",
"FJFJHTTTTTTTT   1bIDu$              TTTTTTTTTTTTTTTTTTTTTTTTTTTTTTTTTTTTTTTTTTTTTTTTTTTTTTTTTTTTTTTTTTTTTTTTTTTTTTTTTTTTTTTJJJFH",
"FJDJFDTTTTTTTT   *fSLc<           TTTTTTTTTTTTTTTTTTTTTTTTTTTTTTTTTTTTTTTTTTTTTTTTTTTTTTTTTTTTTTTTTTTTTTTTTTTTTTTTTTTTTTTTDHJJDH",
"DJJGFJGTTTTTTTT   o:fbpO        TTTTTTTTTTTTTTTTTTTTTTTTTTTTTTTTTTTTTTTTTTTTTTTTTTTTTTTTTTTTTTTTTTTTTTTTTTTTTTTTTTTTTTTTTTFHHHHF",
"GJFJJJDTTTTTTTTT    oOO       TTTTTTTTTTTTTTTTTTTTTTTTTTTTTTTTTTTTTTTTTTTTTTTTTTTTTTTTTTTTTTTTTTTTTTTTTTTTTTTTTTTTTTTTTTTJHJHJHF",
"DJJGJFFFTTTTTTTTT           TTTTTTTTTTTTTTTTTTTTTTTTTTTTTTTTTTTTTTTTTTTTTTTTTTTTTTTTTTTTTTTTTTTTTTTTTTTTTTTTTTTTTTTTTTTTGJHJHJFH",
"GFHHFJJHHTTTTTTTTTT        TTTTTTTTTTTTTTTTTTTTTTTTTTTTTTTTTTTTTTTTTTTTTTTTTTTTTTTTTTTTTTTTTTTTTTTTTTTTTTTTTTTTTTTTTTTTGGJHHHHHH",
"FJFHFFJFHHTTTTTTTTTTT    TTTTTTTTTTTTTTTTTTTTTTTTTTTTTTTTTTTTTTTTTTTTTTTTTTTTTTTTTTTTTTTTTTTTTTTTTTTTTTTTTTTTTTTTTTTTTHHGJHHHHHH",
"FHFJJHHJHFFFTTTTTTTTTTTTTTTTTTTTTTTTTTTTTTTTTTTTTTTTTTTTTTTTTTTTTTTTTTTTTTTTTTTTTTTTTTTTTTTTTTTTTTTTTTTTTTTTTTTTTTTTHGHHJJHHHHHH",
"HFHFJFFHHJHFGFTTTTTTTTTTTTTTTTTTTTTTTTTTTTTTTTTTTTTTTTTTTTTTTTTTTTTTTTTTTTTTTTTTTTTTTTTTTTTTTTTTTTTTTTTTTTTTTTTTTTDGGHHJGGHHHHHF",
"FHFHHFJHHGJHHFHFFFTTTTTJFTTTTTFFGGDDGDDDDFDGFFDDGGGGGGGGYKGGGGGGFDGDDDDGGGGDGDDDHGDDDDDDHGDDDDGDDDTTTTTTTTTTTTDGHGFJHHHHHGGHHHFH",
"FFFHHJFHHJGJHHHHHFHFHFHHHHHHJHGHHHJGHHHHHHHGHHHHGKGGGGGGYYKGGGGGHHHHHHGHHHHJJHJJJHJJHJHJJJJJHJHHHHHJJHHJHFJHHGGHHHFHHHHHHGGHHHHF",
"FJHJJFHHHHHHHHHHHHHHHJHJHHHHHJHHHHGJHJHHHHHJHHHHGGGGGGGGGGGGGGGGHHJGHHJHHHHHGHHHHHHHGJHHHHHHHHHHHHHHHHHHHHHHHHHHHHJHHHHHGHHHHHFJ",
"FFFHHHHHGGHHJHHHHHJJHHHHJHHHHHHHHHHHHHJJHHHHJJHHGKGGKGGKGKGGGGGGHHHJHHHJHHHHGJHHHHHHJGHGHHHHHGHHHJHHHHHJJHHHHHHJHHHHHHHHGHHHHHFF",
"FJHHFHJFGGGGJGHHHHHHHHHHHHHHHHHHGGGGKGGGGGGGGKGGKGKGGKGGGGGGGGGIGGGGGGGGGGGGGGGGGKGKGGGGKGKGGGGGHHHHHHHHGGGGGGGGKGGKGGGGGKGGGGKG",
"DHFJJHHHJGJGGJHGHHHHHHHHHHHHHHHHKGGGGGKGGKKGGGGGGGGGGGGGGGGKGGGGGKGGGGGKGKGGGKGGGGGGGKGGGGGGGKGGHHHGHHHHGKKGGGGGGGGGGGKGGGKGGGGG",
"JFJHHFFJJGGHGJGGHHHHHHHHHHHHHHHHGGGGGGKGGGGGGGGGGGGGGGGGGKGKGGGGGGGGKGGGGGKGGKKGGGGGGGGGGGGGGGKGHHHJHHHHGGGGKGGKGGGGKGGKGGGGGGGG",
"DFFJHJHHJGGGJGGJHHHHHHHHHHHHHHHHGKGGGGGGGKGGGGKGKGKGGGGKGGGGIGGGKGKGGGGGKGGGGGGGGKGGKGKGKGGGKGGGHHHHHHHHGGKGGGGGKGGGGGGGGKGGGGGG",
"FFJDJFJHHGGHHHHHHHHHHHHHHHHHHGGHGGGKGGGGGGGGGGGGGGGGKGGKGGKGGGGGGGGIKGGKGGGKGKGGGKGGGGKGGGGKGGGGHHHHHHHHGGGGGKGGGGKGGGGGGGGGGGGG",
"FFFJFJHHHHGGHHHHHHHHHHHHHHHHHHHHGKGGGGGKGKKGGGGGGGKGGGGGGKGGGGGGGGGGGGGGGGGGGGGGGGGGGGGGGGGGGKKGHHHHHHHHGKGKGGGGGGGGGGGKGKGGKGGG",
"FHDJJFFJHHHHHHHHHHHHHHHHHHHHHHHHGGGKKGGGGGGGKGGKGGGGGGGGGGGGGIGKGGGGGGGGGGGGGGGGGGKGGKGGGGGGGGGGHHHHHHHHGGGKGGKGKGGGGGGGGKKGKGGG",
"HHJFHJHHHHHHHHHHHHHHHHHHHHHHHHHHGGGGGGGGGKGGGGGGKGGKGGGKGGGGGGGGGGGGGKGGKGGKGKGKGKGGGGKGGKGGGKGGHHHHHHHHGGGGGGGKGGKGKGGGGGGGGGGG",
"FHHHJGGGJJGJHHHHHHHHGGKGHHHHHHHHGGGGGGKGGGKGHHGKGGKGGGKGGGKGGGGKIGGGGGGGGGGGGGGGGGGGKGGGGGGGGGGKHHHHHHHHHGHHHHHHGGGKGGKGGGKGGGGG",
"HFFFGJGGGGGGHHHHHHHHHGGGHHHHHHHHGGGKGGGGKGGGHGGHGGGGGGGGGGGGGKGGGGIGGGGGGGGKGGGGKGGGGGKGGGKGGGGGHHHHHHHHKGHHHHHHKGGGKGGGGKGGGGKG",
"FFJHJGGHGJJGHHHHHKHHHHGGHHHHHHHHGKGGKGGGGGKGHHHHGGGGKGGKGGGGGGGGGGGGGGGGGKGKGGGGGGGGGGGGKGGGKGGGHHHHHHHHGKHGHHHHGGGGGGGGGKGGKGGG",
"FFJFGHGHGGGJHHHHGGHHHHGKHHHHHHHHGGGKGGKGGGHHHHHHKGGKGGGGGGGKGGKGGGGGGIGGGGGGKGGKGGGKGKGGGGGGGGKGHHHHHHHHGHHHHHHHGGGKGGGGGGGGGGGG",
"JFJDJGHHJGHHHHHHHHHHHHHHGKGGHHHHGGGGGGKGKGGKGGGGGGGGGKGGKGIGGGKGGGGGGGGGGKGGKGGKGGGKGGGGGHHGGGGGHKHHHHHHGGHHHHHHGGGGGGGKHHHHGGGG",
"FFDJDJHGGJHHHHHHHHHHHHHHGGGKHHHHKGGGKGGGGGGGKGGGGGGGGGGKGGGGGGGGGGGIGGGGGGGGGGGGGGGGKGKGGGHKGKGGHGHGHHHHHHHHHHHHGKKGGGGGHHHHGGGG",
"DDFFJGJJGGJHHHHHGGHHHHHHGGHHHHHHGGGGGGGGGGGGGGGGKGGKGGGGGKGGGGKGGGGGGGGGKGGKGGGGKGGGKGGGKGGKGGGGHHKGHHHHHHHHHHHHGGGGGKKHHHGHGGHH",
"bJJGGJGGJGGHHHHHHHGHHHHHHHHHHHHHGKGKGGKGGGGGGKGGGGGGGKGGGGGGGGGGGGGGGGGIGGGGGGGKGGGGGGGGGGGHHHKGGHGGHHHHHHHHHHHHGKGGGGGHHHGGKGGN",
"qGGGGGGGAIGAHHHHKGGKKGGGGGKGGGGGKGGHHHHHHHHHGGGGGGGKHHHHHHHKHHHHGGIGGGKGGKGGIGGGHHHHHHHHKHHHGGKGHHHHHHHHGGIGHHHHGGGGGKGGGKGGGGIu",
"-BIGGGGGGGGIIHHHGGGGGGGGGKGGGKGGHHHHHHHHHHHHKHGKGGGGHHHHGHHHHHHHGGGGGKGGGGGGGGGGHHHHHHHHHHHHGGGGHHHHHHHGGDDGHHHHKGGGGGGGGGGGKGG3",
"OjIGGGGGGGGGAGHHGGGGGGGGGKGGGGGKHHHHHHHHHGHHGGKGKGHHHHHHGHHHHHHHGGGGGGGGGKGGGGGGHHHHHHHHHHHHGKKGHHHHHHHKGGGGHIHHGGKGGKKGGGKKGKn-",
"X3AGIGAIGGGAIGHHGGGKGGKGGGGGGGGGHHHHHHHHHGGKGGGGGGHHHHGGKHHHHHHHKGGGGGKGGGGGKGKGHHHHHHHHHHGHGGGGGKHHHHHHHGGGGDHHGGGGGGGGGGGGHG8O",
"TOzKGGGGGGGGHHHHGGGGGGGGGGGGGGGGHHHHHHHHKGHHHHGGGHKGGHHGGGHHHHHHGGGGGGKGGGGGGGGGHHHHHHHHHHGGHGGGHHHKHHHHHHHHHHHHGKGGKGGGISHSKz&T",
"T -BIAGGGIGGHHHHGGKGGKGGGGKGKGGKHHHHHHHHGGHHHHGGGGGGHHGKGGHHHHHHGGGGGIGGGGGIGGGKHHHHHHHHHHKHKHGGHHGGHHHHHHHHHHHHGGGGGGGGAISIC3XT",
"T  8AIHHHGGGHHHHGGGGGKGKKGKGGGGGHHHHHHHHGHHHKGGKHHGGHHHHHHHHHGGHGGGKGGGGGGGGKGGGHHHHHHHHHHHHGGGKGGGGHHHHHHHHHHHHGGGGGGGKSIIA8XXT",
"TT oqAIHGGGGHHHHGGKGGGGGGGGGGGKGHHHHHHHGHHHHGGGGHGHHGHHHHHHHHHHHKGGGGGGGGIGGGGGGHHHHHHHHHHHHGGGGGKGGHHHHHHHHHHHHGKKGGKGGAISuOXTT",
"TT  o8VKJGGHHHHHHHHHHHHHGGGGGGIGHHHHHHHHHHHHGHHHHHKGGGGKHHHHHHHHHHHHHHHHGGIGGGGGHHHHGHHHHHHHHHHHGGGGGKGGHHHHHHHHHHHHHGGJIBqo  TT",
"TTT  .,cGKHHSHHHGGHHHHHHKGGGGGGGHHHGHHHGHHHHHHHHHHGGGGGGHHHHHHGHHHHHHHHHGGGGGGGGHHHHHHHHHHHHGHHHKGGGGGGGHJHHHHHHHHHGHJKJn3X  TTT",
"TTTT   &0cAJKKSHHGGGGGHHGGGGGGGGHGHHGGGHHGGGGGGGGHKGGGGGGGHHGHHGGGGGHHHHGGGGGGGGGGHHGGGHGGHGGGGGGGGGGHGGJHGHHHHHHHJKHSvq&   TTTT",
"TTTTT   .#3ulBCCCBBBBBBBNNNNNNNNNNNBBBBBBBBBBBVBBBBBBBBBNBBBBBBBBBBBBBBBnBBBBBBBNNNBBBBBBBBBBBVBBBBBBBBBmNNBBBNCCCMlu3#.   TTTTT",
"TTTTTT     XO&&==&&&&&&&&&&&8&&&&&&&&&&&&&&&&&&&&&&&-&&&&&&&&&&&&&&&&&&&&&&&u-&&&&&&&&&&&&&&&&&&&&&&-&&&&&&&&&&=*=*+o     TTTTTT",
"TTTTTTT                     &&XO                    OXXX                    -&OO                    OXXX                 TTTTTTT",
"TTTTTTTTT                     XX                      XX                    XXOO                      XX               TTTTTTTTT",
"TTTTTTTTTTT                    X                                            XXXO                                    TTTTTTTTTTTT"
};
