/* XPM */
static char *pistol[] = {
/* columns rows colors chars-per-pixel */
"128 128 72 1 ",
"  c #000000",
". c #080705",
"X c #070805",
"o c #0A0A06",
"O c #0E0E0B",
"+ c #100F0B",
"@ c #13120D",
"# c #18170E",
"$ c #19180F",
"% c #151512",
"& c #181711",
"* c #1B1A14",
"= c #1E1D19",
"- c #201F15",
"; c #201F19",
": c #232217",
"> c #282617",
", c #24231A",
"< c #28271B",
"1 c #2C2A1D",
"2 c #32311F",
"3 c #2C2B22",
"4 c #302F21",
"5 c #343224",
"6 c #383626",
"7 c #373528",
"8 c #393729",
"9 c #3C3A2B",
"0 c #3F3E30",
"q c #403E2D",
"w c #403E31",
"e c #41402E",
"r c #444234",
"t c #484636",
"y c #4B4837",
"u c #464438",
"i c #494738",
"p c #4D4B3B",
"a c #514E3E",
"s c #53513F",
"d c #514F40",
"f c #545242",
"g c #595645",
"h c #5B5946",
"j c #5D5B4B",
"k c #615E4D",
"l c #625F50",
"z c #63604E",
"x c #646251",
"c c #696655",
"v c #6B6956",
"b c #6A6958",
"n c #716E5C",
"m c #72705F",
"M c #767361",
"N c #797663",
"B c #7C7966",
"V c #7E7C69",
"C c #807C67",
"Z c #817E6A",
"A c #85846E",
"S c #88856F",
"D c #878672",
"F c #888772",
"G c #8B8974",
"H c #8F8C78",
"J c #908D77",
"K c #918E79",
"L c #94917D",
"P c #979480",
"I c #989581",
"U c None",
/* pixels */
"UUUUUUUUUUUDDFFZHHFFDDDDFFFFAFFFDDDFDDFSFFFSDDDFFDFFFDFAFFDFFFFFDDDDFFDFFFDFDFFDFFDDDDFFFFSFFFDDFDFDFFFDDDFDFFFFFSFFZUUUUUUUUUUU",
"UUUUUUUUZFGGFFGGGZFFFFDFFFFDFFFFFFFFFFFDFFFFFFFFFFFDFFFFFFFFFFFDFFFFFFFFFDDDFFFFFFFFFFFDFFFFFFFFFFDDFFFFFDFFFFFFFFFFFFGZUUUUUUUU",
"UUUUUUUDFFFFFFFHGFFZFDFFDDDDADFDDDFGDDDDDADDDDDFFDDDDDFFFDFFDDDDDDFDFDFFDDDDDDDDFDFFDDDDDDDDFDFFDDDDDDDDDDFFDDFFGFSFFFDFGUUUUUUU",
"UUUUUAFFFFGFGGGZZNbbbbbbbbbbbbbbbbbbbbbbbbbbbbbbbbbbcbbbbbbbbbbbbbbbbbbbbbbbbbbbbbbbbbbbbbbbbbbbbbbbbbbbbbbbvbmVGGFGFFFFGDDUUUUU",
"UUUUASFFFFFFGBjw3%OOOOOOOOOOOOOOOOOOOOOOOOOOOOOOOOOOOOOOOOOOOOOOOOOOOOOOOOOOOOOOOOOOOOOOOOOOOOOOOOOOOOOOOOOOO@%<qjBGGGFFGFSAUUUU",
"UUUUDFFGDHHMd<OX                             X                                                                  .o:pMGGFFFSGSUUU",
"UUUGFFGDGDj<o                                                                                                      o:gDGFGFFFUUU",
"UUZFFFFGZp@                                                                                                          @uBGDFFFSUU",
"UUGGFFFZwO     UUUUUUUUUUUUUUUUUUUUUUUUUUUUUUUUUUUUUUUUUUUUUUUUUUUUUUUUUUUUUUUUUUUUUUUUUUUUUUUUUUUUUUUUUUUUUUUUUU     owCGZGGZUU",
"UGFGFHZdO   UUUUUUUUUUUUUUUUUUUUUUUUUUUUUUUUUUUUUUUUUUUUUUUUUUUUUUUUUUUUUUUUUUUUUUUUUUUUUUUUUUUUUUUUUUUUUUUUUUUUUUUU   owZHFGFHU",
"UFFGGHj@   UUUUUUUUUUUUUUUUUUUUUUUUUUUUUUUUUUUUUUUUUUUUUUUUUUUUUUUUUUUUUUUUUUUUUUUUUUUUUUUUUUUUUUUUUUUUUUUUUUUUUUUUUUU  +gHFFFFU",
"SFFFFn=  UUUUUUUUUUUUUUUUUUUUUUUUUUU.@@O.   UUUUUUUUUUUUUUUUUUUUUUUUUUUUUUUUUUUUUUUUUUUUUUUUUUUUUUUUUUUUUUUUUUUUUUUUUUU  &bFFFFD",
"SFGZHw. UUUUUUUUUUUUUUUUUUUUUUUUUUUo5xxj5@.  UUUUUUUUUUUUUUUUUUUUUUUUUUUUUUUUUUUUUUUUUUUUUUUUUUUUUUUUUUUUUUUUUUUUUUUUUUU  9ZGFFZ",
"SFGGn- UUUUUUUUUUUUUUUUUUUUUUUUUUU.5BKHHAz1.   UUUUUUUUUUUUUUUUUUUUUUUUUUUUUUUUUUUUUUUUUUUUUUUUUUUUUUUUUUUUUUUUUUUUUUUUUU %nFFGG",
"FFGKdo UUUUUUUUUUUUUUUUUUUUUUUUUU 1BKGGGKPjO     UUUUUUUUUUUUUUUUUUUUUUUUUUUUUUUUUUUUUUUUUUUUUUUUUUUUUUUUUUUUUUUUUUUUUUUUUoiGGFF",
"FFGZ3.UUUUUUUUUUUUUUUUUUUUUUUUUU <nKGFAAKb, o1%X  UUUUUUUUUUUUUUUUUUUUUUUUUUUUUUUUUUUUUUUUUUUUUUUUUUUUUUUUUUUUUUUUUUUUUUUU <ZGFF",
"DGFM*UUUUUUUUUUUUUUUUUUUUUUUU   ;nGHGGkqg- orAMq@   UUUUUUUUUUUUUUUUUUUUUUUUUUUUUUUUUUUUUUUUUUUUUUUUUUUUUUUUUUUUUUUUUUUUUUU@bGGF",
"SFGv%UUUUUUUUUUUUUUUUUU X@@@@o %kHGZGHcq#..qZLKFv4O   UUUUUUUUUUUUUUUUUUUUUUUUUUUUUUUUUUUUUUUUUUUUUUUUUUUUUUUUUUUUUUUUUUUUU%cGGD",
"GGGv*UUUUUUUUUUUUUUUUUUX1xxxct*pFHHZlvC4. 2CIFhymZg=o   UUUUUUUUUUUUUUUUUUUUUUUUUUUUUUUUUUUUUUUUUUUUUUUUUUUUUUUUUUUUUUUUUUUUxGFD",
"SSGvUUUUUUUUUUUUUUUUUUU :BLLKzaFHFFZ3&;o >BLKh%o*sGBi%.   UUUUUUUUUUUUUUUUUUUUUUUUUUUUUUUUUUUUUUUUUUUUUUUUUUUUUUUUUUUUUUUUUUxGFD",
"SGGvUUUUUUUUUUUUUUUUUUUUoiKLSmcnZGFZg*  ;nPKl&  $pFLGv9@    UUUUUUUUUUUUUUUUUUUUUUUUUUUUUUUUUUUUUUUUUUUUUUUUUUUUUUUUUUUUUUUUvGGS",
"SGGnUUUUUUUUUUUUUUUUUUUU @ap6-@*fFGGKn<:nKKl= o1vSGFGHAk1O   UUUUUUUUUUUUUUUUUUUUUUUUUUUUUUUUUUUUUUUUUUUUUUUUUUUUUUUUUUUUUUUvGGS",
"SJGnUUUUUUUUUUUUUUUUUUUUU oo.   &jHGGGmmJGb; %pCGGSSSFGHZf*o   UUUUUUUUUUUUUUUUUUUUUUUUUUUUUUUUUUUUUUUUUUUUUUUUUUUUUUUUUUUUUmFGS",
"SSSCUUUUUUUUUUUUUUUUUUUUUU       &kHGDFGJM< :vGGFSSSFFFGGGMt#X   UUUUUUUUUUUUUUUUUUUUUUUUUUUUUUUUUUUUUUUUUUUUUUUUUUUUUUUUUUUZFSF",
"SGSAUUUUUUUUUUUUUUUUUUUUUUUU      *lHGSFFMq@<MKFSASSFSFSSHKSv8+    UUUUUUUUUUUUUUUUUUUUUUUUUUUUUUUUUUUUUUUUUUUUUUUUUUUUUUUUUSFFS",
"SGFSUUUUUUUUUUUUUUUUUUUUUUUU OO.   *lHJSFDZj:<hAFSADDFSFFFSHHAz1O    UUUUUUUUUUUUUUUUUUUUUUUUUUUUUUUUUUUUUUUUUUUUUUUUUUUUUUUDFSF",
"SJSAUUUUUUUUUUUUUUUUUUUUUU o>zb5o   *lGAZGGGM9-8NGFAASFFFSSFSFJAf*X    UUUUUUUUUUUUUUUUUUUUUUUUUUUUUUUUUUUUUUUUUUUUUUUUUUUUUSSFF",
"GSGSUUUUUUUUUUUUUUUUUUUUU.%tNHLZt@   %31qnGGKGg**hAFAASFSFFSGSFJHMr%.   UUUUUUUUUUUUUUUUUUUUUUUUUUUUUUUUUUUUUUUUUUUUUUUUUUUUSSGG",
"FFFAUUUUUUUUUUUUUUUUUUU o1cSGGGGGg*   . .4ZLABAn1*9BFAAAFFFFFSGSGHFv8+    UUUUUUUUUUUUUUUUUUUUUUUUUUUUUUUUUUUUUUUUUUUUUUUUUUDFFF",
"FFFAUUUUUUUUUUUUUUUUU .#pCHHSFFSGGv<.   oeFS9<xKAa&*zDFAASSFFFSFGGGJAk<o    UUUUUUUUUUUUUUUUUUUUUUUUUUUUUUUUUUUUUUUUUUUUUUUUSFFS",
"GSFAUUUUUUUUUUUUUUUU +2vGGGSFSSFSGHN5. .yGZq@<nFFFc-#rBFSAAFSGFSDFFFGJNa*X    UUUUUUUUUUUUUUUUUUUUUUUUUUUUUUUUUUUUUUUUUUUUUUAFFF",
"SGFAUUUUUUUUUUUUUU .$sAGHSFFSFSFFGFHm@ OjC6#1NGSAFGBt&-xFSAASSDGFDFSGGGGmr%.    UUUUUUUUUUUUUUUUUUUUUUUUUUUUUUUUUUUUUUUUUUUUAFFF",
"SFSSUUUUUUUUUUUU  +8nJGGFSFFGDSFGGFGC1  +*o>BKGSSSFFFx-*yCFDSSDDSGFSSGGGJSc5@     UUUUUUUUUUUUUUUUUUUUUUUUUUUUUUUUUUUUUUUUUUDFFS",
"FGFSUUUUUUUUUUU .-gAKGSFSFGSFDFCknGFGn1.   1BKGFSFSSFFBw&:xFGZADGFFFFFSSSHHAh>o    UUUUUUUUUUUUUUUUUUUUUUUUUUUUUUUUUUUUUUUUUAFFS",
"SFFSUUUUUUUUU  @wmJGFFSSSGSFGGn5#4CGGJN6o  o1bJGFSFSFSFDx*&yCDSSSSFFFFSFFSFHHBp*X    UUUUUUUUUUUUUUUUUUUUUUUUUUUUUUUUUUUUUUUSGFF",
"SFFSUUUUUUU  X:kSKGSFSFFFSGGGJv* owSGGLZ>    *gSGSFFFSSFGNq#>xDGDSSSSGFFGFSSHFHmr@     UUUUUUUUUUUUUUUUUUUUUUUUUUUUUUUUUUUUUSFFS",
"FFSSUUUUUU  @rmHGGSSGSGDFGHblDKf+ #kKLAa@     @tZKFFSFSSDFZk&&aCJFADFFFFGSFSSGHKFc4O     UUUUUUUUUUUUUUUUUUUUUUUUUUUUUUUUUUUSFGS",
"SFSAUUUU  o>zAFFFDDGSDSGJSh*&kIGto ;CCq+       o5nKGFFSFDDFGn7*4mJSAASSFSGFFFSSSGGZg,o     UUUUUUUUUUUUUUUUUUUUUUUUUUUUUUUUUAFFS",
"FFFAUU   *pBHHSFDSGFGSGKM9+  *bIZ5..11o          ,xGGSFFDSDSDZk;>sAGSASSFFFGGSSGSGGKMy&X     UUUUUUUUUUUUUUUUUUUUUUUUUUUUUUUSFFF",
"GSFA&  O2cSHSFSFGDSDGJDk-.    <BLC>    .o         %pZKGFFSSDSFJn9-2mJFSSSFFFFFFSFFSFGGbw@     UUUUUUUUUUUUUUUUUUUUUUUUUUUUUUSGFF",
"SSSh+X*sAFHSSSFFFFDGKMw@    O .9DLto  @rf*         O5mKGGGGJFSFJAf*-gAGFDDFSFFFFFSSHSHHSk4+     UUUUUUUUUUUUUUUUUUUUUUUUUUUUFFFF",
"SHJs$5vGGFFSGSGSFGJDk;.   .:g1XOrt%  @pSKc#         .;xGKJGSSGGFFJn4*9mKGDAFSFGFFGFSSSSFGAh:o     UUUUUUUUUUUUUUUUUUUUUUUUUUAFGG",
"GSHchZHGSFSFGFSFGKNt#    +9MLN, XX  @fFKLZ:           %rat95qbGGFGKAs,,kDGFDFSGSSSFSSGGSGGKmi&.     UUUUUUUUUUUUUUUUUUUUUUUUSFSF",
"GSFSFFGSFSFFSFFJFx:o    &fALKLm3    1GLKM5.  U         ... ..*fmBBVDHb4,0MHFSFSFFGFGFSGGSSGGFb8@      UUUUUUUUUUUUUUUUUUUUUUSSGF",
"SGSSFFSSFFFFSHKNr@    o>vHKFxzKN,   :BLm<.  UUU               O&:*-1fAAh<3jDSGSFSFGFGFGSFSFGGJSk5+      UUUUUUUUUUUUUUUUUUUUSFFF",
"SSFSSFFFFSFFFSx>o    @rBLLAa&&jIb,  .1s=   UUUUU                    o1jDB9<wmFGFSFSFSFFFFSSFSGGJZf:o     UUUUUUUUUUUUUUUUUUUAFFS",
"SSFSFSGFSGGGNt%     *jFKLm5O  %kPm=   o   UUUUUUUU                    @5bDx31zDFFSFSSFFGSFGSDGSGFHmy&.     UUUUUUUUUUUUUUUUUSFFS",
"SSGFFFSSSGDx>o    o5nLLFh=     &lPm=     UUUUUUUUU                      &wNBe3yCGGSSGFFSGFFFFSSGFHGGv8@      UUUUUUUUUUUUUUUSFFS",
"SFSGDSSGGBi%     @pZLKNr@       %lKb*   UUUUUUUUU                        X,jVj*1cFGFDDFFFGFFFFSSFSGGHAz1O      UUUUUUUUUUUUUDFFS",
"SSGSSGGGv1o    .:kGKGz<X         &xKb*  UUUUUUUU o                       +O@4r@.-yBGGFFFSFGFFGGFGFSFSSHZf*o      UUUUUUUUUUUAFFF",
"FGSSGJZs&     @8mKKAa%          UU=lHl* UUUUUUUX<i#                     @gk3Xo.&7-4vGGFFSGSFGSFFSFFFGSHHGNr%.      UUUUUUUUUSGGS",
"SGSGGv2o     &gALLv5o          UUUU=lGl* UUUU o5BG8     UUUUUUU          1bB1.*nHk*=dCGGSSFSSFGSGFSGSGSSGKFv8@.      UUUUUUUSFFS",
"GSSZs*     o4vKLDg*.         UUUUUUU*jGl*    @iAKg@   UUUUUUUUUUU         *fs5hKKKao+5vGGFFSFSFGSSFFSFFGFFGJAk1o      UUUUUUSFFF",
"SFGk$     @tZKKM9@          UUUUUUUUU*gHn8*%=fKHf@   UUUUUUUUUUUUU         O>hGKJJk+  *aNGHGFFSFFGFGFGFSFSFFGHAs-o     UUUUUAFGF",
"SFJfO    &kGLJx;X          UUUUUUUUUUU%fHKBmVKAq+   UUUUUUUUUUUUUUU          *dVKKa%X  o-pnFGGGSSSSSFFSGFSSGSGGKMr%    UUUUUSFSS",
"GFFsO    7KIAa%           UUUUUUUUUUUUU@9xbMbh<.   UUUUUUUUUUUUUUUUU          o5vGnh9@X  o&8kCHHGFGFSGSFFGFSGFSGKFv9o  UUUUUAFFF",
"SGGsO    *Nm5o          UUUUUUUUUUUUUUUUXO@%@O    UUUUUUUUUUUUUUUUUUUU         .&iBIGxt1@  .@1pnSJHFGSSSGSFGFSGSSHLB>  UUUUUFFFF",
"FGFsOX7O X1&.          UUUUUUUUUUUUUUUUUU  UUUUUUUUUUUUUUUUUUUUUUUUUUUU          o1vKKGAh<o   o@2smAKKHFSFFSFGSGSHAtO  UUUUUSFFF",
"SGJsO@b5              UUUUUUUUUUUUUUUUUUUUUUUUUUUUUUUUUUUUUUUUUUUUUUUUUU           %pAKKGZa*.    O%2snSKGFFSSSFSHApO   UUUUUSFFS",
"FGGsOotro            UUUUUUUUUUUUUUUUUUUUUUUUUUUUUUUUUUUUUUUUUUUUUUUUUUUUU          O5vKKGGMr@.     o#5gnSGFGFFGAp@    UUUUUAFGS",
"SGJs+ oO           UUUUUUUUUUUUUUUUUUUUUUUUUUUUUUUUUUUUUUUUUUUUUUUUUUUUUUUU          .=kDGGKSk6#.     .o%6gmFHGAp@     UUUUUSFFF",
"SGJs+             UUUUUUUUUUUUUUUUUUUUUUUUUUUUUUUUUUUUUUUUUUUUUUUUUUUUUUUUUU           @tBKGGJSv6@       .o&8hMp@       UUUUSFGS",
"SGJsO            UUUUUUUUUUUUUUUUUUUUUUUUUUUUUUUUUUUUUUUUUUUUUUUUUUUUUUUUUUUUU          o5bGGGGGAj4O        .O@o        UUUUDGSG",
"SGJsO           UUUUUUUUUUUUUUUUUUUUUUUUUUUUUUUUUUUUUUUUUUUUUUUUUUUUUUUUUUUUUUU           &fZKGFGHZp*.        .         UUUUADGD",
"SSKm*         UUUUUUUUUUUUUUUUUUUUUUUUUUUUUUUUUUUUUUUUUUUUUUUUUUUUUUUUUUUUUUUUUU           +5mKGFGGGn9+     *8q#        UUUUDFFF",
"SGGJUU       UUUUUUUUUUUUUUUUUUUUUUUUUUUUUUUUUUUUUUUUUUUUUUUUUUUUUUUUUUUUUUUUUUUUUUU        .*gAKGGGKSg;.  %mPHwX       UUUUAFFS",
"GSGKUUU     UUUUUUUUUUUUUUUUUUUUUUUUUUUUUUUUUUUUUUUUUUUUUUUUUUUUUUUUUUUUUUUUUUUUUUUUUU        @9nJGGGGKn9O +gjr@        UUUUSFFS",
"GSFFUUUU   UUUUUUUUUUUUUUUUUUUUUUUUUUUUUUUUUUUUUUUUUUUUUUUUUUUUUUUUUUUUUUUUUUUUUUUUUUUU        .;jZKGFGKZp% oOX         UUUUSFFS",
"SSGSUUUUUUUUUUUUUUUUUUUUUUUUUUUUUUUUUUUUUUUUUUUUUUUUUUUUUUUUUUUUUUUUUUUUUUUUUUUUUUUUUUUU         +qMKGFFGFk;            UUUUSFSF",
"SGSSUUUUUUUUUUUUUUUUUUUUUUUUUUUUUUUUUUUUUUUUUUUUUUUUUUUUUUUUUUUUUUUUUUUUUUUUUUUUUUUUUUUUUU        .>kFGFFGKn@          UUUUUFFFS",
"SFFSUUUUUUUUUUUUUUUUUUUUUUUUUUUUUUUUUUUUUUUUUUUUUUUUUUUUUUUUUUUUUUUUUUUUUUUUUUUUUUUUUUUUUUU         &wCGGHGfO         UUUUUUSFFG",
"FFFAUUUUUUUUUUUUUUUUUUUUUUUUUUUUUUUUUUUUUUUUUUUUUUUUUUUUUUUUUUUUUUUUUUUUUUUUUUUUUUUUUUUUUUUU         .1vKLj%         UUUUUUUSFGF",
"FGSSUUUUUUUUUUUUUUUUUUUUUUUUUUUUUUUUUUUUUUUUUUUUUUUUUUUUUUUUUUUUUUUUUUUUUUUUUUUUUUUUUUUUUUUUU          *gx=       UUUUUUUUUUFFSF",
"SSFAUUUUUUUUUUUUUUUUUUUUUUUUUUUUUUUUUUUUUUUUUUUUUUUUUUUUUUUUUUUUUUUUUUUUUUUUUUUUUUUUUUUUUUUUUU          oO       UUUUUUUUUUUDFFS",
"GGFSUUUUUUUUUUUUUUUUUUUUUUUUUUUUUUUUUUUUUUUUUUUUUUUUUUUUUUUUUUUUUUUUUUUUUUUUUUUUUUUUUUUUUUUUUUUU                UUUUUUUUUUUUSFFF",
"SFFSUUUUUUUUUUUUUUUUUUUUUUUUUUUUUUUUUUUUUUUUUUUUUUUUUUUUUUUUUUUUUUUUUUUUUUUUUUUUUUUUUUUUUUUUUUUUU              UUUUUUUUUUUUUSFGG",
"FFFSUUUUUUUUUUUUUUUUUUUUUUUUUUUUUUUUUUUUUUUUUUUUUUUUUUUUUUUUUUUUUUUUUUUUUUUUUUUUUUUUUUUUUUUUUUUUUU            UUUUUUUUUUUUUUAFFS",
"SFFSUUUUUUUUUUUUUUUUUUUUUUUUUUUUUUUUUUUUUUUUUUUUUUUUUUUUUUUUUUUUUUUUUUUUUUUUUUUUUUUUUUUUUUUUUUUUUUU          UUUUUUUUUUUUUUUAFFF",
"GGFSUUUUUUUUUUUUUUUUUUUUUUUUUUUUUUUUUUUUUUUUUUUUUUUUUUUUUUUUUUUUUUUUUUUUUUUUUUUUUUUUUUUUUUUUUUUUUUUU        UUUUUUUUUUUUUUUUSFGF",
"SSFGUUUUUUUUUUUUUUUUUUUUUUUUUUUUUUUUUUUUUUUUUUUUUUUUUUUUUUUUUUUUUUUUUUUUUUUUUUUUUUUUUUUUUUUUUUUUUUUUUU     UUUUUUUUUUUUUUUUUFFFF",
"FSGSUUUUUUUUUUUUUUUUUUUUUUUUUUUUUUUUUUUUUUUUUUUUUUUUUUUUUUUUUUUUUUUUUUUUUUUUUUUUUUUUUUUUUUUUUUUUUUUUUUUUUUUUUUUUUUUUUUUUUUUUFHSS",
"GSFFSUUUUUUUUUUUUUUUUUUUUUUUUUUUUUUUUUUUUUUUUUUUUUUUUUUUUUUUUUUUUUUUUUUUUUUUUUUUUUUUUUUUUUUUUUUUUUUUUUUUUUUUUUUUUUUUUUUUUUUUFFFF",
"SGFFFUUUUUUUUUUUUUUUUUUUUUUUUUUUUUUUUUUUUUUUUUUUUUUUUUUUUUUUUUUUUUUUUUUUUUUUUUUUUUUUUUUUUUUUUUUUUUUUUUUUUUUUUUUUUUUUUUUUUUUFFFFS",
"FSGSGUUUUUUUUUUUUUUUUUUUUUUUUUUUUUUUUUUUUUUUUUUUUUUUUUUUUUUUUUUUUUUUUUUUUUUUUUUUUUUUUUUUUUUUUUUUUUUUUUUUUUUUUUUUUUUUUUUUUUUFFFGF",
"SFFGSSUUUUUUUUUUUUUUUUUUUUUUUUUUUUUUUUUUUUUUUUUUUUUUUUUUUUUUUUUUUUUUUUUUUUUUUUUUUUUUUUUUUUUUUUUUUUUUUUUUUUUUUUUUUUUUUUUUUUSFHGSF",
"SGFFFSDUUUUUUUUUUUUUUUUUUUUUUUUUUUUUUUUUUUUUUUUUUUUUUUUUUUUUUUUUUUUUUUUUUUUUUUUUUUUUUUUUUUUUUUUUUUUUUUUUUUUUUUUUUUUUUUUUUUSFGSFF",
"SFFGGFSUUUUUUUUUUUUUUUUUUUUUUUUUUUUUUUUUUUUUUUUUUUUUUUUUUUUUUUUUUUUUUUUUUUUUUUUUUUUUUUUUUUUUUUUUUUUUUUUUUUUUUUUUUUUUUUUUUFFGFFSF",
"SSFFGSFSUUUUUUUUUUUUUUUUUUUUUUUUUUUUUUUUUUUUUUUUUUUUUUUUUUUUUUUUUUUUUUUUUUUUUUUUUUUUUUUUUUUUUUUUUUUUUUUUUUUUUUUUUUUUUUUUSFGFFFFS",
"DFFFDGGGFUUUUUUUUUUUUUUUUUUUUUUUUUUUUUUUUUUUUUUUUUUUUUUUUUUUUUUUUUUUUUUUUUUUUUUUUUUUUUUUUUUUUUUUUUUUUUUUUUUUUUUUUUUUUUUDFFFFFFFF",
"DFFFFDGFFFUUUUUUUUUUUUUUUUUUUUUUUUUUUUUUUUUUUUUUUUUUUUUUUUUUUUUUUUUUUUUUUUUUUUUUUUUUUUUUUUUUUUUUUUUUUUUUUUUUUUUUUUUUUUFFFFFFFFFF",
"DDGDDFFFFGSAUUUUUUUUUUUUUUUUUUUUUUUUUUUUUUUUUUUUUUUUUUUUUUUUUUUUUUUUUUUUUUUUUUUUUUUUUUUUUUUUUUUUUUUUUUUUUUUUUUUUUUUUFFFFHFFFFFFF",
"DFFFFFFFFFGSFAUUUUUUUUUUUUUUUUUUUUUUUUUUUUUUUUUUUUUUUUUUUUUUUUUUUUUUUUUUUUUUUUUUUUUUUUUUUUUUUUUUUUUUUUUUUUUUUUUUUUSAFFFGGSFFFFFF",
"DFFFFFFFGFFFFSSFSAUUUUUUUUUUUUDDPVVDDDDDDDDDPDDDDDDDDDDDIPHDDDDDAAAAADADFADDAADAFDAAAADDFDDAAAAAAFUUUUUUUUUUUUASFSFFFFFFFFFDFDSF",
"AFFFFFFFFGFDFFFFFFFFFDFFGFFGDDFFDPPDFFDDDDDHPFDDDHDDDDDDIPHDDDDDFFFFFFFFFFGGDDDGFFFFDFFFFFFFFFFFFFFFFFFFGSFFFSSGFFGFFFFFFDFGFFFS",
"SSFDFFFFFGFGFFFFFFFFFFFGFFGFPVPDPDVDDFFFDDFFFFFFDDDDDDDDDDDDPDDDFFFGFFFFFFFFGGFFFGFFFFGFFGFFFGFFFFFFFFFFFHFFFFFFFFFFFFFFDFDFFFSD",
"FFFFFFFFFDGFFFFFFFFGFFFFFGFFDDVDVVPDHFFFDDFFFFFFHDDHDDHDDHDDDDDDFGGFFFFFFFFFDFFFGFFGFFFGGFFFFFFGFFGFFFFFFFFFFFFFFFFFFFFFDDDFFFFS",
"SFDFFFDFFFFFFFFFFFFFDDDDDDFFDFFFDDDDDDDDDDDDHDDHDDDDDDDDDDDPDDDDDDDDDDHDDPDDDDHDDDDDDDDDHFDDFFDDFFDFFFFFDDDFFFFDHDDDDDDDHDDDHDDD",
"SSFFFFFFFFFFHFFFFFFFHDDHFFFDFFFFHDDHDHDDDHHDDDDDDDHDHDDHDDDDDDDPDDHDDDDDDDDDHDDDHDDHDDHDDFDHFFFDFFGFFFFFDHDFFFDDDDDDDDDDDDDHDDDD",
"FFFFFFFFFFFFDFDFFFFFDDDDFFFFFFFFDDDDDDDHDDDDHDDDDHDDDHDDDDDDDDDDHDHDDHDDDDHDDDDDDDDDDHDDDDFFFFHDFFFFFFFFDDDDFFFHHDDDDHDHDDDDDDDD",
"AFFFFFFFFFFFFFFFFFFFHDDDFFFFFFFFHDDHDDDDDHDDDDDDDDDDDDDDDPDDDDDDDDDDDDDHDDDDDDDDHDDDDDHDDDFFFFDDFFFFGFFFDDHDFFFFDDDHDDDDHDDDDDDH",
"FFFFFFFGFFFFDHFFFFFFFFDDDDHFFFFFDDDDDDDDDHHDDDHDDDDDDHDDDDDDDDDDDHDDDHDDDPDDDDPDDDHDDDHDDDDDDDDDFFFFFFFFFFFHHDDDDDDDDHDDDHFFDDDD",
"DFFFFFFFFFFFDHFFFFFFFFDDDDDFFFFFDHDDDDDHDDDDDDDDDDPDDDDDDPDDPDDDDDDDDDDDDDDDDDDDDDDDDDDDDHHDHDDHFFFFFFFFFFFFDDDHDDDDDDDDDFFFDHDD",
"DFFFFFFFFFDHDDFFFFFFFDDHFFFFFFFDDDDHHDDDDHDDHDDDDDDDDDDDDDDDDDDDDDDDDDDDDDDDDDDDDDDDDHDHDDDDDDHDFFFFFFFFFFDDDDFFHDDHDDDDDDFFFFDD",
"DDFFFFFFDDDDDDFFFFFFFHDFFFFFFFFFDDDDDDDDDDDDDDHDDDDDDPDDDDDDDDDPDDDPDDDPDDDDHDDDDDDHDDDDDHDDDDDDFFFFFFFFFFDDHDFFDDDDHDDHDHFFFFDD",
"DDDDFFFFFFFFFFFFDDDDHDDHFFFHDDDHDDHDDHHDFFFFDDHFDDDDDDDDDDDDDDDDDDDDDDDDDDDDDDHDDHDDHDDHDDDDDDDDFFFFFFFFFFFFFFFFDDDDFFFFDDDHDDDD",
"DDFFFFFFFFFFFFFFDPDDDDDDFFFFDDDDDDDDDDDDFFFFHDDFHDHDDDHDDHHDDDDDDDDDPDDDDDHDDHDDDDDDDDDDDDDHDHDDFFFFFFFFFFFFFFFFDHDDFFFFDHDDDDFD",
"DDFFFFGDFFFFFFFFDDHDDDDDFFFFDDDDDHDHDHDDFFFFDDDDDDDDDDDPHDDDDDDDDDDDDDDDDHDDDHDDDHDHDDDDDHHFDDDHFFFFFFDDHFFFFFFFHDDHFHFFDDHDFFFF",
"DFFFFFDDFFFFFFFFDDDDDDDDFFFFDDHDDDDFDDDDFFFFDDDHDHDDDDDDDDDDDDPDPDDDDDDDDDDHDDDDDDDDDDHDDDDFDDDDFFFFFFDHDFFFFFFFDDFDDDFFDDDDFFFD",
"DFDDDDFGFFFFFFFFDDDDDDDHDDDDHDDHFFFFHDHDFHDDFFFDDDDHDDDDDDDDDDDDPDDDPDDDDDDDDDDDDDDDHDDHFFFFDHDDFFFFFFFFHDFFFFFFDDDDDDFFFFFFFFDD",
"DDGSGDDFFFFFFFFFDHDHHDDDHDHDDDDDFFFFDDDDFFDDFDFDHDDDHDDDDDDPDDDDDDDDDDDDHDDDDDDDDDDHDDDDFFFFDDDDFFFFFFFFDDFFFFFFHDDDDDDDDFFFFDFF",
"ASSGDDDGFFFFFFFFDDDDDDHDDDHDDDDDFFDDDDDDDDHDDDDDDDDDDDDDDDDDDDDDDDDDDDDDDDDDHDPDHDDDDHDDFFDDDDHDFFFFFFFFDDDDFFFFDDHDFHHFDDFFFDDF",
"mSSSSDGDFFFFFFFFHDDDDDDDDDDDDHDDFFFDHDDHDDDDDHDDDDDHDDDHDHDDDPDDDDDDDPDDDHDHDDDDDDDDDDDDFFDHDDDFFFFFFFFFDHDDFFFFHDDDDDDFFDFFFFDm",
"dPPDDDFFDDPDPDPDDDDHDDDDPDDDDDPDHDDFFFFFFFFFFFDDFFFFFFFFFFFFFDFFDDDDDDDDDDPDDDDDFFFDFFFFFFFFFFDFFFFFFFFFFFDDDDPFDHDDDDDDPDDDDHHu",
"3VDDFFFFDDVDVDVDDDDDDDDDDDHDDDDDFFFFFFFFFFFFDDHDFFFFFFFFFFFFFHFFDDDPDDDDDPDDDDDDFFHDFFFFFFFFHFFFFFFFFFFFFFFDDDVFDDDDDDDDDDDDHDD3",
"ObFDFFFFFFDDDDPVDDDDDDDDDDDDDDDDFFFFFFFFHFFFFHFFFFFFFFDFFFFFFFFFDDDDPDDDDDDDDDDDFFFFFFFFFFFFFFFFFFFFFFFFFFDDPAFFDDHDDDDDDDDDDPb=",
".0DPFDDDFFDDVPFFDDDHDDPDDDDDDDDDFFFFFFFFDFFFFFFFFFFFFFDDFFFFFFFFDDDDDDDDDDDDDDDPFFFFFFFFFFFFFFFFHFFFFFFDFFDDDDFVDDDDPDDDDDHDFD3%",
" %bHVDDDFFFFFFFFDDDDDHDDDDDDHDDHFFFFFFDVFFFFFFFFFDHDFFFDFFFFFFFFDDPDDDDDDDDDDDDDFFFFDDPDFHFFFFFFDFHDDFFDFFFHFFFPDDDHDDDDFDDDHb%U",
"U 3MPDDDFFFDFFFFDDDDDDDDDDHDDDDDDDFFFDDPFDFFFFFFFFDDFFFHFFFFFFFFDPDDDDDDDDDDDDDDFFFFDDADDDFDFFFFDDDDDDHDFFDDFFFFDHDDDDDDFDDPN=OU",
"U  9VPFFFFFFFFFGDDDDDDDDDHHDDDDDHDFFFFDDFDDFFFFFDHDDFFFFFFFFFFDVDDDDDDDDDDDPDDDDFFFFDDDDFFHDFFFFFFDFFHFFFFDDFFFFDHDHDDDHFFPV0XOU",
"UU o0VPFFFFFFFFGDPDDDHDHDDDDDDHDFFFFFFDDHDDFFFFFDDDDFFFFFFFFDDDPDDDDDDDPDDDDDDDPFFFFDDDVFFDDFFFFFFFFFFFFFFFFFFFFDDDDHDDDFHVuXXUU",
"UU  o7MHGFFFFFZHFFFFFFFFDDDDDDDDDFFFFFDDFFFFFFFFDFFDHDDHFFFFFFDDDDFFFFFFDDDDDDDDFFFFFFFPDDPFFFFFFFFFFFFFFFFFFFFFGFFFFDFGPM0.  UU",
"UUU  X,xFHFFFFFFDFFFFFFFDDDPDDDDFFFFFFVPFFFFFFFFFFFFDDDDFFFFPFDDDVPFFFFFDPDPDDPDFFFFFFDFDDVFFFFFFFFFFFFFFFFFFFFFFHZFFFHGb;.  UUU",
"UUUU   %0xZFFGZFDFDDFDFFDDDDDDDDDDDFFFDDDDDDFFDDDDDDDDDDDDDFVDDDDDDDFFDDDDDDDDDDDDFFFFFDDDDDFFFDFDDDDDFDDDDFDDFFZHHFGZxw%XX UUUU",
"UUUUU    O3uknBNNmmmmmmmmmmmmmmmmmmMmmmmmmmmmmmMmmmmmmmmmmmMmmmmmmmmmmmMmmmmmmmmmmmmmmmmmmmmmmmMmmmmmmmmmmmMmmmNNNmlw3%X.. UUUUU",
"UUUUUU     XO%%*%%%%%%%%%%%%0%%%%%%%%%%%%%%%%%%%%%%%=%%%%%%%%%%%%%%%%%%%%%%%u===%%%%%%%%%%%%%%%%%%%%=%%%%%%%%%%***%O.     UUUUUU",
"UUUUUUU         XX          =%OO        X           OOOO        X           ==%%        XX          OOXX                 UUUUUUU",
"UUUUUUUUU                   X.OO                      XX                    XXOO                      X.               UUUUUUUUU",
"UUUUUUUUUUUU                X.XO                     XX.                  XX.XOO                      X.            UUUUUUUUUUUU"
};
