/* XPM */
static char *radar_don[] = {
/* columns rows colors chars-per-pixel */
"64 64 100 2 ",
"   c #020607",
".  c #080805",
"X  c #0C0C09",
"o  c #14140D",
"O  c #050F11",
"+  c #080F10",
"@  c #071012",
"#  c #0D1514",
"$  c #00151C",
"%  c #0D1D1E",
"&  c #121510",
"*  c #121916",
"=  c #1B1A12",
"-  c #101F1F",
";  c #16221E",
":  c #1B211B",
">  c #222116",
",  c #25251A",
"<  c #2D2B1E",
"1  c #061C22",
"2  c #0A1D21",
"3  c #00212D",
"4  c #002735",
"5  c #002D3B",
"6  c #2B2C20",
"7  c #333121",
"8  c #3D3C29",
"9  c #403F2C",
"0  c #41402C",
"q  c #494731",
"w  c #4D4C35",
"e  c #514F37",
"r  c #555239",
"t  c #59563B",
"y  c #5D5A3F",
"u  c #003242",
"i  c #003548",
"p  c #003A4E",
"a  c #003E53",
"s  c #004157",
"d  c #00435A",
"f  c #004961",
"g  c #004E68",
"h  c #00526F",
"j  c #005673",
"k  c #005977",
"l  c #005D7D",
"z  c #625F41",
"x  c #646143",
"c  c #696646",
"v  c #6E6B4A",
"b  c #716E4C",
"n  c #7B7752",
"m  c #7B7852",
"M  c #817E57",
"N  c #89865C",
"B  c #8E8A5F",
"V  c #8F8B60",
"C  c #918E62",
"Z  c #999567",
"A  c #9B9769",
"S  c #9D996A",
"D  c #A19C6C",
"F  c #A6A270",
"G  c #AAA572",
"H  c #AEA975",
"J  c #B3AF79",
"K  c #B5B079",
"L  c #BAB47D",
"P  c #006284",
"I  c #00678A",
"U  c #00698C",
"Y  c #007197",
"T  c #00749B",
"R  c #007AA4",
"E  c #007FAA",
"W  c #0080AB",
"Q  c #0086B4",
"!  c #0089B6",
"~  c #008BBB",
"^  c #008FC0",
"/  c #0092C3",
"(  c #BFBA80",
")  c #C3BE83",
"_  c #C6C185",
"`  c #C8C387",
"'  c #CAC488",
"]  c #D2CC8D",
"[  c #DBD593",
"{  c #DED896",
"}  c #E0DA97",
"|  c #E2DC98",
" . c #EAE39D",
".. c #EEE8A0",
"X. c #F3ECA3",
"o. c #F7F0A6",
"O. c #F9F2A7",
"+. c #FCF5AA",
"@. c #FFF8AC",
"#. c None",
/* pixels */
"#.#.#.#.#.#.#.#.#.#.#.#.#.#.#.#.#.#.#.#.#.#.#.#.#.#.#.#.#.#.#.#.#.#.#.#.#.#.#.#.#.#.#.#.#.#.#.#.#.#.#.#.#.#.#.#.#.#.#.#.#.#.#.#.",
"#.#.#.#./ / / / / / / / / / / / / / / / / / / / / / / / / / / / / / / / / / / / / / / / / / / / / / / / / / / / / / / / #.#.#.#.",
"#.#./ / / / / / / / / / / / / / / / / / / / / / / / / / / / / / / / / / / / / / / / / / / / / / / / / / / / / / / / / / / / #.#.",
"#.#./ / / / / / / / / / / / / / / / / / / / / / / / / / / / / / / / / / / / / / / / / / / / / / / / / / / / / / / / / / / / #.#.",
"#.#./ / / / / / / / / / / / / / / / / / / / / / / / / / / / / / / / / / / / / / / / / / / / / / / / / / / / / / / / / / / / / #.",
"#./ / / / / ~ ! Q Q Q Q ! Q Q ! Q Q Q Q Q ! Q Q Q ! Q Q Q Q Q ~ ~ ~ ~ ~ / / / / / / / / / / / / / / / / / / / / / / / / / / / #.",
"#./ / / / ~ 5 , < < < < < < < < < < < < < < < < < < < < < < , , ; 2 3 5 d j U W / / / / / / / / / / / / / / / / / / / / / / / #.",
"#./ / / / ~ 1 L | } | } | } } } | | } } } } | | | } } | } | } { [ ] ) A c 7 O $ 5 P ~ / / / / / / / / / / / / / / / / / / / / #.",
"#./ / / / ~ 1 ] +.+.@.@.@.@.@.@.@.@.@.@.@.@.@.@.@.@.@.@.@.@.@.@.@.@.@.@.@.@...G r > @ f R / / / / / / / / / / / / / / / / / / #.",
"#./ / / / ~ 1 ] @.@.@.@.@.@.@.@.@.@.@.@.@.@.@.@.@.@.@.@.@.@.@.@.@.@.@.@.@.@.@.@.+.{ D w 1 d W / / / / / / / / / / / / / / / / #.",
"#./ / / / ~ 1 ] @.@.@.@.@.@.@.@.@.@.@.@.@.@.@.@.@.@.@.@.@.@.@.@.@.@.@.@.@.@.@.@.@.@.@.o.K = $ T / / / / / / / / / / / / / / / #.",
"#./ / / / ! 1 ] @.@.@.@.@.@.@.@.@.@.@.@.@.@.@.@.@.@.@.@.@.@.@.@.@.@.@.@.@.@.@.@.@.@.@.@.+.X.v * k ~ / / / / / / / / / / / / / #.",
"#./ / / / ~ 1 ] @.@.@.@.@.@.@.@.@.@.@.@.@.@.@.@.@.@.@.@.@.@.@.@.@.@.@.@.@.@.@.@.@.@.@.@.@.+.X.G * f / / / / / / / / / / / / / #.",
"#./ / / / ~ 1 ] @.@.@.@.@.@.@.@.@.@.@.@.@.@.@.@.@.@.@.@.@.@.@.@.@.@.@.@.@.@.@.@.@.@.@.@.@.@.@.@._ & j ^ / / / / / / / / / / / #.",
"#./ / / / ~ 1 ] @.@.@.@.@.@.@.@.@.@.@.@.@.@.@.@.@.@.@.@.@.@.@.@.@.@.@.@.@.@.@.@.@.@.@.@.@.@.@.@.+.F X l / / / / / / / / / / / #.",
"#./ / / / ~ 1 ] @.@.@.@.@.@.@.@.@.@.@.@.@.@.@.@.@.@.@.@.@.@.@.@.@.@.@.@.@.@.@.@.@.@.@.@.@.@.@.@.+.O.C $ E / / / / / / / / / / #.",
"#./ / / / ~ 2 ] @.@.@.@.@.@.@.@.@.@.@.@.@.@.@.@.@.@.@.@.@.@.@.@.@.@.@.@.@.@.@.@.@.@.@.@.@.@.@.@.@.@.+.e p / / / / / / / / / / #.",
"#./ / / / ~ 1 ] @.@.@.@.@.@.@.@.@.@.@.@.@.@.@.@.@.@.@.@.@.@.@.@.@.@.@.@.@.@.@.@.@.@.@.@.@.@.@.@.@.@.@._ - T / / / / / / / / / #.",
"#./ / / / ~ 1 ] @.@.@.@.@.@.@.@.@.@.@.@.@.@.@.@.@.@.@.@.@.@.@.@.@.@.@.@.@.@.@.@.@.@.@.@.@.@.@.@.@.@.@.O.y 1 / / / / / / / / / #.",
"#./ / / / ~ 1 ] @.@.@.@.@.@.@.@.@.@.@.@.@.@.@.8 * - % ; - ; < r V ' O.@.@.@.@.@.@.@.@.@.@.@.@.@.@.@.@.@._   U / / / / / / / / #.",
"#./ / / / ~ 1 ] @.@.@.@.@.@.@.@.@.@.@.@.@.@.@.7 s Y T T T Y I k 5 ; t | @.@.@.@.@.@.@.@.@.@.@.@.@.@.@.@.O.0 s ~ / / / / / / / #.",
"#./ / / / ~ 1 ] @.@.@.@.@.@.@.@.@.@.@.@.@.@.@.7 h / / / / / / / / T $ 7 { @.@.@.@.@.@.@.@.@.@.@.@.@.@.@.@.K 3 Q / / / / / / / #.",
"#./ / / / ~ 1 ] @.@.@.@.@.@.@.@.@.@.@.@.@.@.@.7 g ~ / / / / / / / / ~ i e @.@.@.@.@.@.@.@.@.@.@.@.@.@.@.@...; R / / / / / / / #.",
"#./ / / / ~ 1 ] @.@.@.@.@.@.@.@.@.@.@.@.@.@.@.7 h / / / / / / / / / / R 1 D @.@.@.@.@.@.@.@.@.@.@.@.@.@.@.o.q j / / / / / / / #.",
"#./ / / / ~ 1 ] +.@.@.@.@.@.@.@.@.@.@.@.@.@.@.7 g / / / / / / / / / / / f o X.@.@.@.@.@.@.@.@.@.@.@.@.@.@.O.m p / / / / / / / #.",
"#./ / / / ~ 1 ] @.@.@.@.@.@.@.@.@.@.@.@.@.@.@.7 g / / / / / / / / / / / R . ( @.@.@.@.@.@.@.@.@.@.@.@.@.@.@.Z 1 / / / / / / / #.",
"#./ / / / ~ 1 ] @.@.@.@.@.@.@.@.@.@.@.@.@.@.@.7 g / / / / / / / / / / / /   N +.@.@.@.@.@.@.@.@.@.@.@.@.@.@.K o / / / / / / / #.",
"#./ / / / ~ 1 ] @.@.@.@.@.@.@.@.@.@.@.@.@.@.@.7 g / / / / / / / / / / / / p v @.@.@.@.@.@.@.@.@.@.@.@.@.@.@.) o Q / / / / / / #.",
"#./ / / / ~ 1 ] @.@.@.@.@.@.@.@.@.@.@.@.@.@.@.7 g / / / / / / / / / / / / s v @.@.@.@.@.@.@.@.@.@.@.@.@.@.@.] = Y / / / / / / #.",
"#./ / / / ~ 1 ] @.@.@.@.@.@.@.@.@.@.@.@.@.@.@.7 g / / / / / / / / / / / / d x O.@.@.@.@.@.@.@.@.@.@.@.@.@.@.| > U / / / / / / #.",
"#./ / / / ~ 1 ] @.@.@.@.@.@.@.@.@.@.@.@.@.@.@.7 g / / / / / / / / / / / / d x O.@.@.@.@.@.@.@.@.@.@.@.@.@.@. ., P / / / / / / #.",
"#./ / / / ~ 2 ] @.@.@.@.@.@.@.@.@.@.@.@.@.@.@.7 g / / / / / / / / / / / / d z O.@.@.@.@.@.@.@.@.@.@.@.@.@.+..., l / / / / / / #.",
"#./ / / / ~ 1 ] @.@.@.@.@.@.@.@.@.@.@.@.@.@.@.7 h / / / / / / / / / / / / d x O.@.@.@.@.@.@.@.@.@.@.@.@.@.@. ., l / / / / / / #.",
"#./ / / / ~ 2 ] @.@.@.@.@.@.@.@.@.@.@.@.@.@.@.7 h / / / / / / / / / / / / d x O.@.@.@.@.@.@.@.@.@.@.@.@.@.@. ., P / / / / / / #.",
"#./ / / / ~ 1 ] @.@.@.@.@.@.@.@.@.@.@.@.@.@.@.7 g / / / / / / / / / / / / d x O.@.@.@.@.@.@.@.@.@.@.@.@.@.@.| , I / / / / / / #.",
"#./ / / / ~ 1 ] @.@.@.@.@.@.@.@.@.@.@.@.@.@.@.7 g / / / / / / / / / / / / s v +.@.@.@.@.@.@.@.@.@.@.@.@.@.@.] = T / / / / / / #.",
"#./ / / / ~ 1 ] @.@.@.@.@.@.@.@.@.@.@.@.@.@.@.7 g / / / / / / / / / / / / p b @.@.@.@.@.@.@.@.@.@.@.@.@.@.@.) o Q / / / / / / #.",
"#./ / / / ~ 1 ] @.@.@.@.@.@.@.@.@.@.@.@.@.@.@.7 g / / / / / / / / / / / /   M @.@.@.@.@.@.@.@.@.@.@.@.@.@.@.J # / / / / / / / #.",
"#./ / / / ~ % ] @.@.@.@.@.@.@.@.@.@.@.@.@.@.@.7 g / / / / / / / / / / / R . ( @.@.@.@.@.@.@.@.@.@.@.@.@.@.@.Z 1 / / / / / / / #.",
"#./ / / / ~ $ ] @.@.@.@.@.@.@.@.@.@.@.@.@.@.@.7 g / / / / / / / / / / / f o X.@.@.@.@.@.@.@.@.@.@.@.@.@.@.+.m p / / / / / / / #.",
"#./ / / / ~ 1 ] @.@.@.@.@.@.@.@.@.@.@.@.@.@.@.7 g / / / / / / / / / / E 1 S @.@.@.@.@.@.@.@.@.@.@.@.@.@.+.o.q j / / / / / / / #.",
"#./ / / / ~ 1 ] @.@.@.@.@.@.@.@.@.@.@.@.@.@.@.7 g / / / / / / / / / ~ i w @.@.@.@.@.@.@.@.@.@.@.@.@.@.@.@.X.; R / / / / / / / #.",
"#./ / / / ~ 1 ] @.@.@.@.@.@.@.@.@.@.@.@.@.@.@.7 h / / / / / / / ^ R $ 7 { @.@.@.@.@.@.@.@.@.@.@.@.@.@.@.@.J 3 Q / / / / / / / #.",
"#./ / / / ~ 1 ] @.@.@.@.@.@.@.@.@.@.@.@.@.@.@.7 s T T T T T I k 5 ; r | @.@.@.@.@.@.@.@.@.@.@.@.@.@.@.@.+.0 s ~ / / / / / / / #.",
"#./ / / / ~ 1 ] @.@.@.@.@.@.@.@.@.@.@.@.@.@.@.8 # % % % - 3 , r N ` O.@.@.@.@.@.@.@.@.@.@.@.@.@.@.@.@.@._   U / / / / / / / / #.",
"#./ / / / ~ 1 ] @.@.@.@.@.@.@.@.@.@.@.@.@.@.@.@.@.@.@.@.@.@.@.@.@.+.@.@.@.@.@.@.@.@.@.@.@.@.@.@.@.@.@.O.y 1 / / / / / / / / / #.",
"#./ / / / ~ 1 ] @.@.@.@.@.@.@.@.@.@.@.@.@.@.@.@.@.@.@.@.@.@.@.@.@.@.@.@.@.@.@.@.@.@.@.@.@.@.@.@.@.@.@._ : Y / / / / / / / / / #.",
"#./ / / / ~ 2 ] @.@.@.@.@.@.@.@.@.@.@.@.@.@.@.@.@.@.@.@.@.@.@.@.@.@.@.@.@.@.@.@.@.@.@.@.@.@.@.@.@.@.@.r p / / / / / / / / / / #.",
"#./ / / / ~ 1 ] @.@.@.@.@.@.@.@.@.@.@.@.@.@.@.@.@.@.@.@.@.@.@.@.@.@.@.@.@.@.@.@.@.@.@.@.@.@.@.@.@.O.C $ R / / / / / / / / / / #.",
"#./ / / / ~ 1 ] @.@.@.@.@.@.@.@.@.@.@.@.@.@.@.@.@.@.@.@.@.@.@.@.@.@.@.@.@.@.@.@.@.@.@.@.@.@.@.@.+.G X k / / / / / / / / / / / #.",
"#./ / / / ~ 1 ] @.@.@.@.@.@.@.@.@.@.@.@.@.@.@.@.@.@.@.@.@.@.@.@.@.@.@.@.@.@.@.@.@.@.@.@.@.@.+.@._ = j / / / / / / / / / / / / #.",
"#./ / / / ~ 2 ] @.@.@.@.@.@.@.@.@.@.@.@.@.@.@.@.@.@.@.@.@.@.@.@.@.@.@.@.@.@.@.@.@.@.@.@.@.+.X.G * f ~ / / / / / / / / / / / / #.",
"#./ / / / ~ 1 ] @.@.@.@.@.@.@.@.@.@.@.@.@.@.@.@.@.@.@.@.@.@.@.@.@.@.@.@.@.@.@.@.@.@.@.@.@.X.b * k ~ / / / / / / / / / / / / / #.",
"#./ / / / ~ 1 ] @.@.@.@.@.@.@.@.@.@.@.@.@.@.@.@.@.@.@.@.@.@.@.@.@.@.@.@.@.@.@.@.@.@.@.o.L = $ T / / / / / / / / / / / / / / / #.",
"#./ / / / ~ 1 ] @.@.@.@.@.@.@.@.@.@.@.@.@.@.@.@.@.@.@.@.@.@.@.@.@.@.@.@.@.@.@.@.+.} D w 2 d W / / / / / / / / / / / / / / / / #.",
"#./ / / / ~ 1 ] @.@.@.@.@.@.@.@.@.@.@.@.@.@.@.@.@.@.@.@.@.@.@.@.@.@.@.@.@.@.X.H y > @ f R / / / / / / / / / / / / / / / / / / #.",
"#./ / / / ~ 1 L | | | |  .| | | | | | | | | | | | | | | | | | { [ ] _ D v 8 O $ 4 k ~ / / / / / / / / / / / / / / / / / / / / #.",
"#./ / / / ~ 5 , 7 < < < < < < 7 < < 7 < 7 6 < < 7 < 7 6 6 6 < , ; % 3 5 s j I R / / / / / / / / / / / / / / / / / / / / / / / #.",
"#./ / / / / ~ Q Q Q Q Q Q Q Q Q Q Q Q Q Q Q Q Q Q Q Q Q Q Q Q ! ! ~ ~ ~ ^ / / / / / / / / / / / / / / / / / / / / / / / / / / #.",
"#.#./ / / / / / / / / / / / / / / / / / / / / / / / / / / / / / / / / / / / / / / / / / / / / / / / / / / / / / / / / / / / #.#.",
"#.#./ / / / / / / / / / / / / / / / / / / / / / / / / / / / / / / / / / / / / / / / / / / / / / / / / / / / / / / / / / / / #.#.",
"#.#.#./ / / / / / / / / / / / / / / / / / / / / / / / ^ / / / / / / / / / / / / / / / / / / / / / / / / / / / / / / / / / #.#.#.",
"#.#.#.#.#.#.#.#.#.#.#.#.#.#.#.#.#.#.#.#.#.#.#.#.#.#.#.#.#.#.#.#.#.#.#.#.#.#.#.#.#.#.#.#.#.#.#.#.#.#.#.#.#.#.#.#.#.#.#.#.#.#.#.#.",
"#.#.#.#.#.#.#.#.#.#.#.#.#.#.#.#.#.#.#.#.#.#.#.#.#.#.#.#.#.#.#.#.#.#.#.#.#.#.#.#.#.#.#.#.#.#.#.#.#.#.#.#.#.#.#.#.#.#.#.#.#.#.#.#."
};
