/* XPM */
static char *radar_liz[] = {
/* columns rows colors chars-per-pixel */
"64 64 230 2 ",
"   c black",
".  c #000100",
"X  c #010101",
"o  c #010201",
"O  c #000301",
"+  c #010202",
"@  c #020202",
"#  c #020302",
"$  c gray1",
"%  c #000401",
"&  c #010502",
"*  c #020402",
"=  c #020403",
"-  c #030403",
";  c #020503",
":  c #030603",
">  c #020703",
",  c #030404",
"<  c #030604",
"1  c #040404",
"2  c #040505",
"3  c gray2",
"4  c #040705",
"5  c #060606",
"6  c #070707",
"7  c #010803",
"8  c #010903",
"9  c #030804",
"0  c #030905",
"q  c #010B04",
"w  c #020A04",
"e  c #020B04",
"r  c #040905",
"t  c #050906",
"y  c #050A06",
"u  c #040B06",
"i  c #030C05",
"p  c #020D05",
"a  c #030F06",
"s  c #040C06",
"d  c #040D06",
"f  c #050D07",
"g  c #060C07",
"h  c #040E07",
"j  c #050E07",
"k  c #040F07",
"l  c #060E08",
"z  c gray3",
"x  c #090909",
"c  c gray4",
"v  c #0B0B0B",
"b  c #0C0C0C",
"n  c gray5",
"m  c #0E0E0E",
"M  c gray6",
"N  c #031006",
"B  c #041107",
"V  c #041307",
"C  c #071009",
"Z  c #061109",
"A  c #041308",
"S  c #051309",
"D  c #061209",
"F  c #071209",
"G  c #031408",
"H  c #041408",
"J  c #041508",
"K  c #051709",
"L  c #07160B",
"P  c #08160B",
"I  c #05180A",
"U  c #071B0C",
"Y  c #071C0C",
"T  c #061D0C",
"R  c #09180C",
"E  c #09190C",
"W  c #081A0C",
"Q  c #081A0D",
"!  c #091C0D",
"~  c #081D0D",
"^  c #0A1C0F",
"/  c #0A1E0F",
"(  c #0A1F0F",
")  c #101010",
"_  c #111111",
"`  c gray7",
"'  c #131313",
"]  c gray8",
"[  c #151515",
"{  c #161616",
"}  c gray9",
"|  c #191919",
" . c gray10",
".. c #1D1D1D",
"X. c #07220E",
"o. c #09210F",
"O. c #08220E",
"+. c #08230F",
"@. c #09230F",
"#. c #08260F",
"$. c #0A2110",
"%. c #0B2111",
"&. c #0A2310",
"*. c #0B2311",
"=. c #092510",
"-. c #0A2411",
";. c #082710",
":. c #0A2611",
">. c #0A2711",
",. c #0B2412",
"<. c #0E2714",
"1. c #092911",
"2. c #0A2912",
"3. c #092B12",
"4. c #0C2813",
"5. c #0C2913",
"6. c #0A2D13",
"7. c #0A2F13",
"8. c #0C2A14",
"9. c #0B2E14",
"0. c #0B2F14",
"q. c #0C2E15",
"w. c #0C2F15",
"e. c #0B3214",
"r. c #0B3215",
"t. c #0B3315",
"y. c #0D3116",
"u. c #0E3016",
"i. c #0C3216",
"p. c #0D3216",
"a. c #0F3317",
"s. c #0C3416",
"d. c #0C3617",
"f. c #0D3717",
"g. c #0E3218",
"h. c #0F3518",
"j. c #0D3718",
"k. c #0F3619",
"l. c #0D3818",
"z. c #0D3918",
"x. c #0D3A18",
"c. c #0E3A19",
"v. c #0F3D1A",
"b. c #0E3F1A",
"n. c #10381A",
"m. c #11381B",
"M. c #103A1B",
"N. c #103B1B",
"B. c #113F1C",
"V. c #133E1D",
"C. c gray13",
"Z. c #0F401B",
"A. c #0F421C",
"S. c #10401C",
"D. c #10421C",
"F. c #12411E",
"G. c #13411E",
"H. c #12431E",
"J. c #10441C",
"K. c #10451D",
"L. c #10461D",
"P. c #10471D",
"I. c #12481F",
"U. c #134720",
"Y. c #144720",
"T. c #134820",
"R. c #124920",
"E. c #134921",
"W. c #144B21",
"Q. c #114C20",
"!. c #124C20",
"~. c #134D21",
"^. c #144C22",
"/. c #154D23",
"(. c #144F23",
"). c #135223",
"_. c #135423",
"`. c #155024",
"'. c #155124",
"]. c #155425",
"[. c #155525",
"{. c #155625",
"}. c #145725",
"|. c #155725",
" X c #175626",
".X c #155826",
"XX c #175827",
"oX c #165927",
"OX c #175927",
"+X c #165A27",
"@X c #165B27",
"#X c #165C27",
"$X c #165D27",
"%X c #175B28",
"&X c #175C28",
"*X c #175D28",
"=X c #165F28",
"-X c #175E29",
";X c #175F29",
":X c #185A28",
">X c #195C29",
",X c #185D29",
"<X c #185E29",
"1X c #185F29",
"2X c #185F2A",
"3X c #176029",
"4X c #176129",
"5X c #176229",
"6X c #17622A",
"7X c #17642A",
"8X c #18602A",
"9X c #18612A",
"0X c #19612A",
"qX c #19602B",
"wX c #18622A",
"eX c #18632A",
"rX c #19632A",
"tX c #19622B",
"yX c #18632B",
"uX c #19632B",
"iX c #18642A",
"pX c #18642B",
"aX c #19642B",
"sX c #18652B",
"dX c #19652B",
"fX c #19632C",
"gX c #19642C",
"hX c #19652C",
"jX c #19662C",
"kX c None",
/* pixels */
"kXkXkXkXkXkXkXkXkXkXkXkXkXkXkXkXkXkXkXkXkXkXkXkXkXkXkXkXkXkXkXkXkXkXkXkXkXkXkXkXkXkXkXkXkXkXkXkXkXkXkXkXkXkXkXkXkXkXkXkXkXkXkXkX",
"kXkXkXkXkXkXkXkXkXkXkXkXkXkXkXkXkXkXkXkXkXkXkXkXkXkXkXkXkXkXkXkXkXkXkXkXkXkXkXkXkXkXkXkXkXkXkXkXkXkXkXkXkXkXkXkXkXkXkXkXkXkXkXkX",
"kXkXkXkXkXkX                                                                                                      kXkXkXkXkXkXkX",
"kXkXkXkX                                                                                                                kXkXkXkX",
"kXkXkX      H 3.e.f.f.f.j.f.f.f.f.f.f.f.f.f.j.j.f.f.f.f.f.f.f.f.f.f.f.f.f.f.f.f.f.f.f.f.f.f.f.f.f.f.f.f.f.f.f.e.3.N     kXkXkXkX",
"kXkXkX    e.iXjXjXjXjXjXjXjXjXjXjXjXjXjXjXjXjXjXjXjXjXjXjXjXjXjXjXjXjXjXjXjXjXjXjXjXjXjXjXjXjXjXjXjXjXjXjXjXjXjXjX6XX.    kXkXkX",
"kXkX    V iXjXjXjXjXjXjXjXjXjXjXjXjXjXjXjXjXjXjXjXjXjXjXjXjXjXjXjXjXjXjXjXjXjXjXjXjXjXjXjXjXjXjXjXjXjXjXjXjXjXjXjXjX&X8   kXkXkX",
"kXkX    6.jXjXjXjXjXjXjXjXjXjXjXjXjXjXjXjXjXjXjXjXjXjXjXjXjXjXjXjXjXjXjXjXjXjXjXjXjXjXjXjXjXjXjXjXjXjXjXjXjXjXjXjXjXjXT     kXkX",
"kXkX    c.jXjXjXjXjXjXjXjXjXjXjXjXjXjXjXjXjXjXjXjXjXjXjXjXjXjXjXjXjXjXjXjXjXjXjXjXjXjXjXjXjXjXjXjXjXjXjXjXjXjXjXjXjXjX6.    kXkX",
"kXkX    S.jXjXjXjXjXjXjXjXjXjXjXjXjXjXjXjXjXjXjXjXjXjXjXjXjXjXjXjXjXjXjXjXjXjXjXjXjXjXjXjXjXjXjXjXjXjXjXjXjXjXjXjXjXjXu.    kXkX",
"kXkX    P.jXjXjXjXjXjXjXjXjXjX&X:XjXjXjXjXjXjXjXjXjXjXjXjXjXjXjXjXjXjXjXjXjXjXjXjXjXjXjXjXjXjXjXjXjXjXjXjXjXjXjXjXjXjXf.    kXkX",
"kXkX    P.jXjXjXjXjXjXjXjX%X5.<   6 ( N.'.qXjXjXjXjXjXjXjXjXjXjXjXjXjXjXjXjXjXjXjXjXjXjXjXjXjXjXjXjXjXjXjXjXjXjXjXjXjXj.    kXkX",
"kXkX    P.jXjXjXjXjXjXjX:XQ       1   3 l ( M.&XjXjXjXjXjXjXjXjXjXjXjXjXjXjXjXjXjXjXjXjXjXjXjXjXjXjXjXjXjXjXjXjXjXjXiXc.    kXkX",
"kXkX    P.jXjXjXjXjXjX2X%.          1     $   3 u.:XiXjXjXjXjXjXjXjXjXjXjXjXjXjXjXjXjXjXjXjXjXjXjXjXjXjXjXjXjXjXjXjXjXc.    kXkX",
"kXkX    P.jXjXjXjXjXqX5.<     $ $ 1 3 c 3 3 <     l u.'.8XjXjXjXjXjXjXjXjXjXjXjXjXjXjXjXjXjXjXjXjXjXjXjXjXjXjXjXjXjXjXx.    kXkX",
"kXkX    P.jXjXjXjXjXG.    $       3 [ ..] c c M M 6   l g.jXjXjXjXjXjXjXjXjXjXjXjXjXjXjXjXjXjXjXjXjXjXjXjXjXjXjXjXjXiXc.    kXkX",
"kXkX    I.jXjXjXjXiXC   $   $   - m } [ v 3 3 c c 3 3 3   P ^.jXjXjXjXjXjXjXjXjXjXjXjXjXjXjXjXjXjXjXjXjXjXjXjXjXjXjXjXx.    kXkX",
"kXkX    P.jXjXjXjXiXQ   $         b M c - $     %       3   r k.qXjXjXjXjXjXjXjXjXjXjXjXjXjXjXjXjXjXjXjXjXjXjXjXjXjX7Xx.    kXkX",
"kXkX  % P.jXjXjXjXiX&XS       $ 6 - $ $                   3 1   %.6XjXjXjXjXjXjXjXjXjXjXjXjXjXjXjXjXjXjXjXjXjXjXjXjXjXc.    kXkX",
"kXkX    P.jXjXjXjXjXjX.X-.-   $ 3 3 $         q.T.u.i     3 3 3   o..XjXjXjXjXjXjXjXjXjXjXjXjXjXjXjXjXjXjXjXjXjXjXjXjXc.    kXkX",
"kXkX    P.jXjXjXjXjXjXjX8XS.k               P .XjXiX_.H     $ 3 3   Q  XjXjXjXjXjXjXjXjXjXjXjXjXjXjXjXjXjXjXjXjXjXjXjXx.    kXkX",
"kXkX  % P.jXjXjXjXjXjXjXjXiX#X3.            ! 8XjXjXjX).k     3 c 3   P :XjXjXjXjXjXjXjXjXjXjXjXjXjXjXjXjXjXjXjXjXjXjXx.    kXkX",
"kXkX    P.jXjXjXjXjXjXjXjXjXjX7X~.3.i     r T.iXjXjXjXiX_.H     1 c 6 $ %.:XjXjXjXjXjXjXjXjXjXjXjXjXjXjXjXjXjXjXjXjXjXx.    kXkX",
"kXkX    P.jXjXjXjXjXjXjXjXjXjXjXiX8X{.B.3.^.iXjXjXjXjXjXiX.XV     6 m 6   R :XjXjXjXjXjXjXjXjXjXjXjXjXjXjXjXjXjXjXjXjXx.    kXkX",
"kXkX    P.jXjXjXjXjXjXjXjXjXjXjXjXjXjXjXjXjXjXjXjXjXjXjXjXjXP.%   $ c m 3   -.2XjXjXjXjXjXjXjXjXjXjXjXjXjXjXjXjXjXjXjXx.    kXkX",
"kXkX    P.jXjXjXjXjXjXjXjXjXjXjXjXjXjXjXjXjXjXjXjXjXjXjXjXjX8Xu.      m ` 3 % g.jXjXjXjXjXjXjXjXjXjXjXjXjXjXjXjXjXjXjXx.    kXkX",
"kXkX  % P.jXjXjXjXjXjXjXjXjXjXjXjXjXjXjXjXjXiXjXjXjXjXjXjXjXjX8X<.      m [ 3 $ S.jXjXjXjXjXjXjXjXjXjXjXjXjXjXjXjXjXjXx.    kXkX",
"kXkX    P.jXjXjXjXjXjXjXjXjXjXjXjXjXjXjXjXjXjXjXjXjXjXjXjXjXiXjX2XW     3 ` ` 3 k '.jXjXjXjXjXjXjXjXjXjXjXjXjXjXjXjXjXx.    kXkX",
"kXkX    I.iXjXjXjXjXjXjXjXjXjXjXjXjXjXjXjXjXjXjXjXjXjXjXjXjXjXjXjX:XS     c [ M 1 ( 8XjXjXjXjXjXjXjXjXjXjXjXjXjXjXjXjXx.    kXkX",
"kXkX  % P.jXjXjXjXjXjXjXjXjXjXjXjXjXjXjXjXjXjXjXjXjXjXjXjXjXjXjXjXjX:Xw   1 `  .c   N.qXjXjXjXjXjXjXjXjXjXjXjXjXjXjXjXx.    kXkX",
"kXkX    P.jXjXjXjXjXjXjXjXjXjXjXjXjXjXjXjXjXjXjXjXjXjXjXjXjXjXjXjXjXjXT.w     ` [ r 3 ^.jXjXjXjXjXjXjXjXjXjXjXjXjXjXjXx.    kXkX",
"kXkX    P.jXjXjXjXjXjXjXjXjXjXjXjXjXjXjXjXjXjXjXjXjXjXjXjXjXjXjXjXjXjXiXG.    3 ` `   %.6XjXjXjXjXjXjXjXjXjXjXjXjXjXjXx.    kXkX",
"kXkX    P.jXjXjXjXjXjXjXjXjXjXjXjXjXjXjXjXjXjXjXjXjXjXjXjXjXjXjXjXjXjXjXqXk.    3 [ v 3 T.jXjXjXjXjXjXjXjXjXjXjXjXjXjXx.    kXkX",
"kXkX  % P.jXjXjXjXjXjXjXjXjXjXjXjXjXjXjXjXjXjXjXjXjXjXjXjXjXjXjXjXjXjXjXjXiXu.%   3 ` 3 ( jXjXjXjXjXjXjXjXjXjXjXjXjXiXx.    kXkX",
"kXkX    P.jXjXjXjXjXjXjXjXjXjXjXjXjXjXjXjXjXjXjXjXjXjXjXjXjXjXjXjXjXjXjXjXiX7Xo.    3 b $ E.jXjXjXjXjXjXjXjXjXjXjXjXjXc.    kXkX",
"kXkX    P.jXjXjXjXjXjXjXjXjXjXjXjXjXjXjXjXjXjXjXjXjXjXjXjXjXjXjXjXjXjXjXjXjXiX6XH     c 3 Q 8XjXjXjXjXjXjXjXjXjXjXjXjXc.    kXkX",
"kXkX    P.jXjXjXjXjXjXjXjXjXjXjXjXjXjXjXjXjXjXjXjXjXjXjXjXjXjXjXjXjXjXjXjXjXjXjX~.%   r c < '.jXjXjXjXjXjXjXjXjXjXjXjXx.    kXkX",
"kXkX    P.jXjXjXjXjXjXjXjXjXjXjXjXjXjXjXjXjXjXjXjXjXjXjXjXjXjXjXjXjXjXjXjXjXjXjX7X-.  3 [   u.jXjXjXjXjXjXjXjXjXjXjXjXx.    kXkX",
"kXkX  % P.jXjXjXjXjXjXjXjXjXjXjXjXjXjXjXjXjXjXjXjXjXjXjXjXjXjXjXjXjXjXjXjXjXjXjXiXu.  1 ` 6 ! 8XjXjXjXjXjXjXjXjXjXjXjXx.    kXkX",
"kXkX    I.jXjXjXjXjXjXjXjXjXjXjXjXjXjXjXjXjXjXjXjXjXjXjXjXjXjXjXjXjXjXjXjXjXjXjX&X%.  < 6 3 r  XjXjXjXjXjXjXjXjXjXjXjXx.    kXkX",
"kXkX    I.jXjXjXjXjXjXjXjXjXjXjXjXjXjXjXjXjXjXjXjXjXjXjXjXjXjXjXjXjXjXjXiX{.5.%.k     1 3 3   S.jXjXjXjXjXjXjXjXjXjXjXx.    kXkX",
"kXkX  % P.iXjXjXjXjXjXjXjXjXjXjXjXjXjXjXjXjXjXjXjXjXjXjXjXjXjXjXjXjXjXjXT.k           $ 3     ! jXjXjXjXjXjXjXjXjXjXjXx.    kXkX",
"kXkX    P.jXjXjXjXjXjXjXjXjXjXjXjXjXjXjXjXjXjXjXjXjXjXjXjXjXjXjXjXjXjXjXo.        1 1 3 3     3 qXjXjXjXjXjXjXjXjXjXjXx.    kXkX",
"kXkX    P.jXjXjXjXjXjXjXjXjXjXjXjXjXjXjXjXjXjXjXjXjXjXjXjXjXjXjXjXjXjXiX5.          3 3 c 3     P.jXjXjXjXjXjXjXjXjXjXx.    kXkX",
"kXkX    P.jXjXjXjXjXjXjXjXjXjXjXjXjXjXjXjXjXjXjXjXjXjXjXjXjXjXjXjXjXjXjXN.        3 3 v [ $   1 -.jXjXjXjXjXjXjXjXjXjXx.    kXkX",
"kXkX    P.jXjXjXjXjXjXjXjXjXjXjXjXjXjXjXjXjXjXjXjXjXjXjXjXjXjXjXjXjXjXjX{.    3   3 ` C. .3 1   S 2XjXjXjXjXjXjXjXjXjXx.    kXkX",
"kXkX  % P.jXjXjXjXjXjXjXjXjXjXjXjXjXjXjXjXjXjXjXjXjXjXjXjXjXjXjXjXjXjXjXiXS   3 m c [ m z 3   1 l /.jXjXjXjXjXjXjXjXjXx.    kXkX",
"kXkX    P.jXjXjXjXjXjXjXjXjXjXjXjXjXjXjXjXjXjXjXjXjXjXjXjXjXjXjXjXjXjXjXjXS.    M $ 3           r Y.jXjXjXjXjXjXjXjXjXx.    kXkX",
"kXkX    P.jXjXjXjXjXjXjXjXjXjXjXjXjXjXjXjXjXjXjXjXjXjXjXjXjXjXjXjXjXjXjXjX8XS   3 3             %.8XjXjXjXjXjXjXjXjXjXx.    kXkX",
"kXkX  % P.jXjXjXjXjXjXjXjXjXjXjXjXjXjXjXjXjXjXjXjXjXjXjXjXjXjXjXjXjXjXjXjXiXu.    -         % 0..XjXjXjXjXjXjXjXjXjXjXx.    kXkX",
"kXkX    A.jXjXjXjXjXjXjXjXjXjXjXjXjXjXjXjXjXjXjXjXjXjXjXjXjXjXjXjXjXjXjXjXiX.Xk           % 0.iXjXjXjXjXjXjXjXjXjXjXjXx.    kXkX",
"kXkX    I.jXjXjXjXjXjXjXjXjXjXjXjXjXjXjXjXjXjXjXjXjXjXjXjXjXjXjXjXjXjXjXjXjXiXc.        3 %.%XjXjXjXjXjXjXjXjXjXjXjXjXc.    kXkX",
"kXkX    P.jXjXjXjXjXjXjXjXjXjXjXjXjXjXjXjXjXjXjXjXjXjXjXjXjXjXjXjXjXjXjXjXjXjX8Xu.    r N.8XiXjXjXjXjXjXjXjXjXjXjXjXiXx.    kXkX",
"kXkX    A.jXjXjXjXjXjXjXjXjXjXjXjXjXjXjXjXjXjXjXjXjXjXjXjXjXjXjXjXjXjXjXjXjXjXjXiXT.E.qXjXiXjXjXjXjXjXjXjXjXjXjXjXjXjXx.    kXkX",
"kXkX    Z.jXjXjXjXjXjXjXjXjXjXjXjXjXjXjXjXjXjXjXjXjXjXjXjXjXjXjXjXjXjXjXjXjXjXjXjXjXjXjXjXjXjXjXjXjXjXjXjXjXjXjXjXjXjXu.    kXkX",
"kXkX    f.iXjXjXjXjXjXjXjXjXjXjXjXjXjXjXjXjXjXjXjXjXjXjXjXjXjXjXjXjXjXjXjXjXjXjXjXjXjXjXjXjXjXjXjXjXjXjXjXjXjXjXjXjXiX3.    kXkX",
"kXkX    ;.jXjXjXjXjXjXjXjXjXjXjXjXjXjXjXjXjXjXjXjXjXjXjXjXjXjXjXjXjXjXjXjXjXjXjXjXjXjXjXjXjXjXjXjXjXjXjXjXjXjXjXjXjXiXI     kXkX",
"kXkXkX  i #XjXjXjXjXjXjXjXjXjXjXjXjXjXjXjXjXjXjXjXjXjXjXjXjXjXjXjXjXjXjXjXjXjXjXjXjXjXjXjXjXjXjXjXjXjXjXjXjXjXjXjXjX).%   kXkXkX",
"kXkXkX    K _.iXjXjXjXjXjXjXjXjXiXjXjXjXjXiXjXiXjXjXiXjXjXjXiXjXjXjXjXjXjXiXjXjXiXjXjXjXjXiXjXiXjXjXiXjXjXjXjXjX7X~.8     kXkXkX",
"kXkXkXkX      i K J J J J J J J I H H H H I H I I H J J I H J I H H H H H J J I I H H H H I H I I H J I H H H H 8       kXkXkXkX",
"kXkXkXkXkX                                                                                                            kXkXkXkXkX",
"kXkXkXkXkXkXkXkXkXkXkXkXkXkXkXkXkXkXkXkXkXkXkXkXkXkXkXkXkXkXkXkXkXkXkXkXkXkXkXkXkXkXkXkXkXkXkXkXkXkXkXkXkXkXkXkXkXkXkXkXkXkXkXkX",
"kXkXkXkXkXkXkXkXkXkXkXkXkXkXkXkXkXkXkXkXkXkXkXkXkXkXkXkXkXkXkXkXkXkXkXkXkXkXkXkXkXkXkXkXkXkXkXkXkXkXkXkXkXkXkXkXkXkXkXkXkXkXkXkX",
"kXkXkXkXkXkXkXkXkXkXkXkXkXkXkXkXkXkXkXkXkXkXkXkXkXkXkXkXkXkXkXkXkXkXkXkXkXkXkXkXkXkXkXkXkXkXkXkXkXkXkXkXkXkXkXkXkXkXkXkXkXkXkXkX"
};
