/* XPM */
static char *radar_spray[] = {
/* columns rows colors chars-per-pixel */
"64 64 95 2 ",
"   c #343636",
".  c #393736",
"X  c #3E3937",
"o  c #353638",
"O  c #373838",
"+  c #393A3B",
"@  c #473D36",
"#  c #483D36",
"$  c #503D33",
"%  c #44413F",
"&  c #4F443E",
"*  c #564236",
"=  c #594336",
"-  c #54453D",
";  c #594439",
":  c #5C483B",
">  c #634533",
",  c #674837",
"<  c #694936",
"1  c #6B4C39",
"2  c #754A32",
"3  c #71513F",
"4  c #3E3F40",
"5  c #3F4141",
"6  c #434445",
"7  c #464748",
"8  c #474949",
"9  c #494B4C",
"0  c #524640",
"q  c #534E4C",
"w  c #4B4E50",
"e  c #4E5052",
"r  c #515455",
"t  c #535759",
"y  c #555A5C",
"u  c #595C5E",
"i  c #775847",
"p  c #7C5D4C",
"a  c #5C5E60",
"s  c #5D6162",
"d  c #636566",
"f  c #636668",
"g  c #65696B",
"h  c #96552F",
"j  c #8A5131",
"k  c #8B5B3F",
"l  c #955631",
"z  c #985731",
"x  c #935836",
"c  c #995A35",
"v  c #935A3A",
"b  c #9C5E39",
"n  c #AA5C2F",
"m  c #A05E37",
"M  c #AB5E33",
"N  c #B9612E",
"B  c #B56333",
"V  c #C2652F",
"C  c #C9672D",
"Z  c #D26B2F",
"A  c #DF6E2D",
"S  c #DF702F",
"D  c #CD6A30",
"F  c #E06E2D",
"G  c #E6712D",
"H  c #EB732D",
"J  c #E17231",
"K  c #EB7632",
"L  c #EB7936",
"P  c #EB7C3A",
"I  c #816452",
"U  c #8A6C5A",
"Y  c #EC8143",
"T  c #EE8C52",
"R  c #EE8F58",
"E  c #EF935F",
"W  c #EF9865",
"Q  c #EF9C6A",
"!  c #F09E6D",
"~  c #F19F70",
"^  c #F0A072",
"/  c #F1A87D",
"(  c #F2AD84",
")  c #F2AF88",
"_  c #F3B089",
"`  c #F4B692",
"'  c #F4BA97",
"]  c #F4BC9B",
"[  c #F6C6A9",
"{  c #F6C8AE",
"}  c #F7CBB2",
"|  c #F7CFB8",
" . c #F7D0B8",
".. c #F8D1BA",
"X. c None",
/* pixels */
"X.X.X.X.X.X.X.X.X.X.X.X.X.X.X.X.X.X.X.X.X.X.X.X.X.X.X.X.X.X.X.X.X.X.X.X.X.X.X.X.X.X.X.X.X.X.X.X.X.X.X.X.X.X.X.X.X.X.X.X.X.X.X.X.",
"X.X.X.X.H H H H H H H H H H H H H H H H H H H H H H H H H H H H H H H H H H H H H H H H H H H H H H H H H H H H H H H H H X.X.X.",
"X.X.H H H H H H H H H H H H H H H H H H H H H H H H H H H H H H H H H H H H H H H H H H H H H H H H H H H H H H H H H H H H X.X.",
"X.X.H H H H H H H K H H H H H H H H H H H H H H H H H H H H H H H H H H H H H H H H H H H H H H H H H H H H H H H H H H H H H X.",
"X.X.H H H H H H H E ) T H H H H H H H H H H H H H H H H H H H H H H H H H H H H H H H H H H H H H H H H H H H H H H H H H H H X.",
"X.H H H G H H H H ! |  .] T K H H H H H H H H H H H H H H H H H H H H H H H H H H H H H H H H H H H H H H H H H H H H H H H H X.",
"X.H H H G H H H H ! | .... .] ! Y K H H H H H H H H H H H H H H H H H H H H H H H H H H H H H H H H H H H H H H H H H H H H H X.",
"X.H H H H H H H H ! | .... . .| [ _ Y H H H H H H H H H H H H H H H H H H H H H H H H H H H H H H H H H H H H H H H H H H H H X.",
"X.H H H H H H H H ! | .............. .` T P H H H H H H H H G H F F A A A A A J J J J J S S A S F F H K H H H H H H H H H H H X.",
"X.G H H H H H H H ! | ..................} ' ! Y H H H H H H H M 1 > > > , i i p U U i i 1 , , , < z H H H H H H H H H H H H H X.",
"X.H H H G H H H H ! } ......................| } ( P H H H H H x O   o O 5 6 w y f f e 6 + + + + . 2 H H H H H H H H H H H H H X.",
"X.H H H H H H H H ! | ............................| ) T P H H x +   O O + 6 w a f f t 6 + + O + . 2 H H H H H H H H H H H H H X.",
"X.G H H H H H H H ! | ................................} ' ^ P x +     O 4 6 w u f f r 7 + + O + o 2 F H H H H H H H H H H H H X.",
"X.H H H H H H H H !  ................................. .| { W v O   O O 4 6 w u s f e 6 + + O + + 2 H H H H H H H H H H H H H X.",
"X.G H H H H H H H !  ...............................{ _ E K G x +     O 4 6 e a f f r 7 + + O + . 2 G H H H H H H H H H H H H X.",
"X.K H H H H H H H ~ | ..........................} ^ Y K H H H x +     O + 6 9 a f f e 7 + + + + + 2 G H H H H H H H H H H H H X.",
"X.H H H G H H H H ~ ......................} ] ~ K H H H H H H m ; $ * = : 6 9 t a a w 6 - $ ; ; * j H K H H H H H H H H H H H X.",
"X.G H H H H H H H ~ ..................{ / R P H H H H H H H H G H H F G G . . O o . . # V H H F G F H H H H H H H H K H H H H X.",
"X.K H H H H H H H ~ ..............{ ^ P H H H H H H H H H H H H H H H H H o O O O O . # V H H H H H H H H H H H H H H H H H H X.",
"X.H H H G H H H H ! ...... .{ ' W P H H H H H H H H H H H H H G H H H H K . O . O O . # V H H H H H H H H H H H H H H H H H H X.",
"X.H H H H H H H H ~ ....[ / T H H H H H H H H H H H H H H H H G H H H H K o o . O X . # V K H H H H H H H H H H H H H H H H H X.",
"X.H H H H H H H H ! { ^ K H H H H H H H H H H H H H H Z z z h j l l x c b 5 7 w r r r q k b z x l l x x l z C H H H H H H H H X.",
"X.H H H H H H H H Y L H H H H H H H H H H H H H H H K B @ O     O + + 6 6 9 w a d g g u 9 5 4 . . + o + . . M H H H H H H H H X.",
"X.G H H H H H H H H H H H H H H H H H H H H H H H H H B + O     O O + + 6 7 r a d g f u 9 6 4 + + + + + . . n H H H H H H H H X.",
"X.K H H H H H H H H H H H H H H H H H H H H H H H H ; +         O + + 6 8 e t s d g g t 9 6 4 + . + + + + O   N H H H H H H H X.",
"X.H H H H H H H H H H H H H H H H H H H H H H H H H - +         O + + 6 6 w t s d g f u 9 6 4 + + + o + + O   N H H H H H H H X.",
"X.G H H H H H H H H H H H H H H H H G H H H H H H H 0 +         + + 6 6 8 w t s d g f u 9 6 4 + + + + + + +   N H H H H H H H X.",
"X.G H H H H H H H H H H H H H H H H H H H H H H D - + O     o O + + 6 6 8 e y s d g g a e 7 % 4 o + + + + + O O > F H H H H H X.",
"X.H H H H H H H H H H H H H H H H H H H H H H H D % + O       O O 4 5 6 8 e y s d g g a w 7 6 + + o + + + + + o $ F H H H H H X.",
"X.G H H H H H H H H H H H H H H H H H H H H H H D % O O       O + 4 5 6 8 w y s d g g a e 7 4 4 + + + o + + + o $ H H H H H H X.",
"X.G H H H H H H H H H H H H H H H H H H H H H H D % O O       o + + 5 6 8 e y s d g g a e 7 5 4 + + + o + + . o $ F H H H H H X.",
"X.K H H H G H H H H H H H H H H H H H H H H H H D % + O         O 5 5 6 8 e y s d g g a e 7 6 + + o + + + + + o $ F H H H H H X.",
"X.K H H H H H H H H H H H H H H H H H H H H H H D % +         O + + 5 6 8 e y s d g g u r 7 6 + + O + + + + + o # A H H H H H X.",
"X.H H H H H H H H H H H H H H H H H H H H H H H D 6 + O       O O 5 5 7 8 e y s d g g s q 7 6 + O + O + + + + o $ A H H H H H X.",
"X.K H H K H H H H H H H H H H H H H H H H H H H D % O o     o O + 5 5 6 8 e y s d g g a e 7 6 + + + + O + + + o $ A H H H H H X.",
"X.H H H H H H H H H H H H H H H H H H H H H H H D % O         O + + 5 6 8 e y s d g g a e 6 6 + . O + + + + o o $ A H H H H H X.",
"X.H H H H H H H H H H H H H H H H H H H H H H H D % O           O 4 5 8 8 e y s d g g a e 7 6 4 + + + + + + + o $ F H H H H H X.",
"X.H H H H H H H H H H H H H H H H H H H H H H H D % O O         + 4 5 5 8 e y s d g g u e 7 5 + + + + + + + + o $ F H H H H H X.",
"X.H H K H H H H H H H H H H H H H H H H H H H H Z % O O       O O 4 5 8 8 w y s d g g a e 6 5 4 + + o . + + + o $ F H H H H H X.",
"X.H H H H H H H H H H H H H H H H K H H H H H H D 6 O O     o O O 4 5 5 8 e y s d g g a e 7 6 + o + + + + + + o $ F H H H H H X.",
"X.H H H H H H H H H H H H H H K H H H H H H H H D % O X       O + 4 4 5 8 e y s s g g s e 6 % 4 o + + . + + + o $ F H H H H H X.",
"X.H H H H H H H H H H H H H H H H H H H H H H H D % O O       O + 4 5 5 8 e y s g g g a e 7 6 + + + + + + + O o $ F H H H H H X.",
"X.K H H H H H H H H K H H H H H H H H H H H H H D % O           + 4 5 8 8 e y s s g g a e 7 6 + + o O + + 4 + o $ F H H H H H X.",
"X.H H H H H H H H H H H H H H H H H H H H H H H D 6 + O         + 5 5 5 8 e y s g g g a e 7 6 4 + + + + + + + o $ F H H H H H X.",
"X.G H H H H H H H H H H H H H K H H H H H H H H D % O O       O + + 5 5 8 e y s d g g a e 7 6 + + + o + + + + o $ F H H H H H X.",
"X.K H H H H H H H H H H H H H H H H H H H H H H D % O O     o O + 4 5 8 8 e y s d g g a e 7 5 4 o + o + + + + o $ F H H H H H X.",
"X.H H H H H H H H H H H H H H H H H H H H H K H D % O         O O + 5 5 8 e y s d g g a e 7 % 4 + + + + + + + . $ F H H H H H X.",
"X.G H H H H H H H H H H H H H H H H H H H H H H D 6 O         O + 4 5 8 8 e y s d g g a e 7 5 + + + + . + + + . $ F H H H H H X.",
"X.G H H K H H H H H H H H H H H H H H H H H H H Z % + X         + + 5 6 7 r y s d g g a e 7 5 4 o o + + + + + o # F H H H H H X.",
"X.K H H H H H H H H H H H H K H H H H H H H H H D 6 O O         + + 5 6 8 w y s d g g a e 7 5 + + + + o + 4 + o $ F H H H H H X.",
"X.G H H H H H H H H H H H H H H H K H H H H H H D % O O       O + 4 5 6 8 w y s d g g a e 7 5 4 + o + o + + + o $ F H H H H H X.",
"X.H H H H H H H H H H H H H H H H H H H H H H H D 6 O O     o O + 4 6 6 8 e y s d g g a e 7 6 4 + + + + + + O o $ F H H H H H X.",
"X.K H H H H H H H H H H H H H H H H H H H H H H D % + X       O + 4 4 7 9 e u s d g g a w 7 6 + o + + o + + + o $ F H H H H H X.",
"X.G K H H H H H H H H H H H H H H H H H H H H H D % O         O + + 5 6 7 e t s d g g a r 7 5 4 o + + + + + o o $ F H H H H H X.",
"X.G H H H H H H H H H H H H H H H H H H H H H H D % O O         + + 5 6 7 e u s d g g a w 7 4 4 + + + + + + + o $ F H H H H H X.",
"X.H H H H H H H H H H H H H H H H H H H H H H H D % + O         + 4 5 6 7 e t s d g g a w 7 5 4 + o + . + 4 + o $ F H H H H H X.",
"X.H H H H H H H H H H H H H H H H H H H H H H H D % O O     O O + + 5 6 8 e y s d g g a e 7 6 4 . + + + + + O o $ F H H H H H X.",
"X.H H H H H H H H H H H H H H H H H H H H H H K D % + O       O + 4 5 6 8 e y s d g g s q 7 5 4 + + O O + + + o $ F H H H H H X.",
"X.H H H H H H H H H H H H H H H H H H H H H H H D % O         O + 4 5 6 8 e y s d g g u e 7 6 @ + + + + + + + o $ F H H H H H X.",
"X.X.H H H H H H H K H H H H H H H H H H H H H H D 6 O         O + + 5 6 8 e y s d g g u e 7 4 + o + O + + 4 + o $ F H H H H H X.",
"X.X.H H H H H H H H H H H H H H H H H H H H H H D 7 X O       O O 4 5 6 8 e y s d g g u r 7 6 + + + + o + + O . $ F H H H H X.X.",
"X.X.X.G H H H K H H H K H H H H H H H H H H H H D 6 X O   O O O + 5 % 7 8 r y s d g g d e 6 6 4 + o + + + + + O $ F H H H H X.X.",
"X.X.X.X.X.X.X.X.X.X.X.X.X.X.X.X.X.X.X.X.X.X.X.X.X.X.X.X.X.X.X.X.X.X.X.X.X.X.X.X.X.X.X.X.X.X.X.X.X.X.X.X.X.X.X.X.X.X.X.X.X.X.X.X.",
"X.X.X.X.X.X.X.X.X.X.X.X.X.X.X.X.X.X.X.X.X.X.X.X.X.X.X.X.X.X.X.X.X.X.X.X.X.X.X.X.X.X.X.X.X.X.X.X.X.X.X.X.X.X.X.X.X.X.X.X.X.X.X.X."
};
