/* XPM */
static char *radar_bomb[] = {
/* columns rows colors chars-per-pixel */
"64 64 191 2 ",
"   c black",
".  c #010101",
"X  c #020202",
"o  c gray1",
"O  c #040404",
"+  c gray2",
"@  c #060606",
"#  c #070707",
"$  c gray3",
"%  c #090909",
"&  c gray4",
"*  c #0B0B0B",
"=  c #0C0C0C",
"-  c #0E0E0E",
";  c gray6",
":  c #101010",
">  c #111111",
",  c gray7",
"<  c #131313",
"1  c gray8",
"2  c #151515",
"3  c #161616",
"4  c gray9",
"5  c #181818",
"6  c #191919",
"7  c gray10",
"8  c #1B1B1B",
"9  c gray11",
"0  c #1D1D1D",
"q  c #1E1E1E",
"w  c gray12",
"e  c gray13",
"r  c #222222",
"t  c gray14",
"y  c #252525",
"u  c gray15",
"i  c #272727",
"p  c #282828",
"a  c gray16",
"s  c gray17",
"d  c #2C2C2C",
"f  c #2D2D2D",
"g  c gray18",
"h  c #2F2F2F",
"j  c gray19",
"k  c #313131",
"l  c #323232",
"z  c gray20",
"x  c #343434",
"c  c #353535",
"v  c gray21",
"b  c #373737",
"n  c gray22",
"m  c #393939",
"M  c #3A3A3A",
"N  c gray23",
"B  c #3C3C3C",
"V  c gray24",
"C  c #3F3F3F",
"Z  c gray25",
"A  c #414141",
"S  c gray26",
"D  c gray27",
"F  c #464646",
"G  c gray28",
"H  c #484848",
"J  c #4B4B4B",
"K  c #4C4C4C",
"L  c #4E4E4E",
"P  c gray31",
"I  c #505050",
"U  c #515151",
"Y  c gray32",
"T  c gray33",
"R  c #555555",
"E  c #565656",
"W  c gray34",
"Q  c #585858",
"!  c gray35",
"~  c #5A5A5A",
"^  c #5B5B5B",
"/  c gray36",
"(  c #5D5D5D",
")  c gray37",
"_  c #5F5F5F",
"`  c gray38",
"'  c #626262",
"]  c gray39",
"[  c #646464",
"{  c #656565",
"}  c gray40",
"|  c #676767",
" . c DimGray",
".. c #6A6A6A",
"X. c #6C6C6C",
"o. c #6D6D6D",
"O. c gray43",
"+. c #6F6F6F",
"@. c gray44",
"#. c #717171",
"$. c gray45",
"%. c gray46",
"&. c #767676",
"*. c #777777",
"=. c gray47",
"-. c #797979",
";. c gray48",
":. c #7B7B7B",
">. c #7C7C7C",
",. c #7E7E7E",
"<. c gray50",
"1. c #808080",
"2. c #818181",
"3. c gray51",
"4. c #838383",
"5. c #848484",
"6. c gray52",
"7. c #868686",
"8. c #868687",
"9. c gray53",
"0. c #888888",
"q. c gray54",
"w. c #8D8D8D",
"e. c #8E8E8E",
"r. c gray56",
"t. c #929292",
"y. c gray58",
"u. c #959595",
"i. c #979797",
"p. c #989898",
"a. c gray60",
"s. c #9D9D9D",
"d. c gray62",
"f. c gray64",
"g. c #A4A4A4",
"h. c gray66",
"j. c gray67",
"k. c #ACACAC",
"l. c #AEAEAE",
"z. c #AFAFAF",
"x. c #B1B1B1",
"c. c #B4B4B4",
"v. c #B7B7B7",
"b. c #B9B9B9",
"n. c gray73",
"m. c #BBBBBB",
"M. c #BCBCBC",
"N. c gray",
"B. c #C0C0C0",
"V. c gray76",
"C. c #C6C6C6",
"Z. c gray79",
"A. c #CACACA",
"S. c gray80",
"D. c #CDCDCD",
"F. c gray81",
"G. c #D0D0D0",
"H. c gray82",
"J. c #D2D2D2",
"K. c LightGray",
"L. c gray84",
"P. c #D7D7D7",
"I. c #D8D8D8",
"U. c gray86",
"Y. c gray87",
"T. c #DFDFDF",
"R. c #E4E4E4",
"E. c gray90",
"W. c #E6E6E6",
"Q. c #E7E7E7",
"!. c gray91",
"~. c #E9E9E9",
"^. c #EAEAEA",
"/. c #ECECEC",
"(. c gray93",
"). c #EEEEEE",
"_. c #EFEFEF",
"`. c gray94",
"'. c #F1F1F1",
"]. c gray95",
"[. c #F3F3F3",
"{. c gray96",
"}. c gray97",
"|. c #F9F9F9",
" X c gray98",
".X c #FBFBFB",
"XX c gray99",
"oX c #FDFDFD",
"OX c #FEFEFE",
"+X c white",
"@X c None",
/* pixels */
"@X@X@X@X@X@X@X@X@X@X@X@X@X@X@X@X@X@X@X@X@X@X@X@X@X@X@X@X@X@X@X@X@X@X@X@X@X@X@X@X@X@X@X@X@X@X@X@X@X@X@X@X@X@X@X@X@X@X@X@X@X@X@X@X",
"@X@X@X9.9.4.9.9.9.9.9.9.9.9.9.9.9.9.9.9.9.9.9.9.9.9.9.9.9.9.9.9.9.9.9.9.9.9.9.9.9.9.9.9.9.9.9.9.9.9.9.9.9.9.9.9.9.9.9.9.9.@X@X@X",
"@X@X9.9.9.9.9.9.9.9.9.9.9.9.9.9.9.9.9.9.9.9.9.9.9.9.9.9.9.9.9.9.9.9.9.9.9.9.9.9.9.9.9.9.9.9.9.9.9.9.9.9.9.9.9.9.9.9.9.9.9.9.@X@X",
"@X@X9.9.9.9.9.9.9.9.9.9.9.9.9.9.9.9.9.9.9.9.9.9.9.9.9.9.9.9.9.9.9.9.9.9.9.9.9.9.9.9.9.9.9.9.9.9.9.9.9.9.9.9.9.9.9.9.9.9.9.9.9.@X",
"@X9.9.9.9.9.9.9.9.9.9.9.9.9.9.9.9.9.9.9.9.9.9.9.9.9.9.9.9.9.9.9.9.9.9.9.9.9.9.9.9.9.9.9.9.9.9.9.9.9.9.9.9.9.9.9.9.9.9.9.9.9.9.@X",
"@X9.9.9.9.9.9.9.9.9.4.9.9.9.9.9.9.9.9.4.9.9.9.9.9.9.9.9.9.9.9.9.9.9.9.9.9.9.9.9.9.9.9.9.9.9.9.9.9.9.9.9.4.9.9.9.9.9.9.9.9.9.9.@X",
"@X9.9.9.9.9.9.9.9.9.9.9.9.9.9.9.9.9.9.9.9.9.9.9.9.@.I M r 1 = @ @ = 6 s B ^ :.9.9.9.9.9.9.9.9.9.9.9.9.9.9.9.9.9.9.9.9.9.9.9.9.@X",
"@X9.9.9.9.9.9.9.9.9.9.9.9.9.9.9.9.9.9.9.9.4...M =                             6 D *.9.9.9.9.9.9.9.9.9.9.9.9.9.9.9.9.9.9.9.9.9.@X",
"@X9.9.9.9.9.9.9.9.9.9.9.9.9.9.9.9.9.9.9.W 6                                         g X.9.9.9.9.9.9.9.9.9.9.9.9.9.9.9.9.9.9.9.@X",
"@X9.9.9.9.9.9.9.9.9.9.9.9.9.9.9.9.9.} 6                                                 g *.9.9.9.9.9.9.9.9.9.9.9.9.9.9.9.9.9.@X",
"@X9.9.9.9.9.9.9.9.9.9.9.9.9.9.9.>.c             $ k W X.@.X.W k $                         @ K 9.9.9.9.9.9.9.9.9.9.9.9.9.9.9.9.@X",
"@X9.9.9.9.9.9.9.9.9.9.9.9.9.9...<         = ..M.|.+X+X+X+X+X+X+X|.b.} =                       s >.9.9.9.9.9.9.9.9.9.9.9.9.9.9.@X",
"@X9.9.9.9.9.9.9.9.9.9.9.9.9.) @       < 9.].+X+X+X+X+X+X+X+X+X+X+X+X+X].9.=                     1 *.9.9.9.9.9.9.9.9.9.9.9.9.9.@X",
"@X9.9.9.9.9.9.9.9.9.9.9.9.W         W ^.+X+X+X+X+X+X+X+X+X+X+X+X+X+X+X+X+X^.W                     < @.9.9.9.9.9.9.9.9.9.9.9.9.@X",
"@X9.9.9.9.9.9.9.9.9.9.9.`         p.+X+X+X+X+X+X+X+X+X+X+X+X+X+X+X+X+X+X+X+X+Xt.@                   < *.9.9.9.9.9.9.9.9.9.9.9.@X",
"@X9.9.9.9.9.9.9.9.9.9.X.@     $ c.+X+X+X+X+X+X+X+X+X+XZ.s.l./.+X+X+X+X+X+X+X+X+Xc.@                   6 4.9.9.9.9.9.9.9.9.9.9.@X",
"@X9.9.9.9.9.9.9.9.9.>.<       l.+X+X+X+X+X+X+X+X+XK.M       = 0.|.+X+X+X+X+X+X+X+Xj.                    k 9.9.9.9.9.9.9.9.9.9.@X",
"@X9.9.9.9.9.9.9.9.9.k       4.+X+X+X+X+X+X+X+X+XC.<             ) +X+X+X+X+X+X+X+X+X4.                    ^ 9.9.9.9.9.9.9.9.9.@X",
"@X9.9.9.9.9.9.9.0.`       B +X+X+X+X+X+X+X+X+X^.1       M <       :.+X+X+X+X+X+X+X+X+Xc                   $ >.9.9.9.9.9.9.9.9.@X",
"@X9.9.9.9.9.9.9.9.1       K.+X+X+X+X+X+X+X+X+X@.    = b.+X/.Z       I.+X+X+X+X+X+X+X+XH.                    B 9.9.9.9.9.9.9.9.@X",
"@X9.9.9.9.9.9.9.W       ^ +X+X+X+X+X+X+X+X+X+Xu     j.+X+X+X}.r     0.+X+X+X+X+X+X+X+X+X^                   @ :.9.9.9.9.9.9.9.@X",
"@X9.9.9.9.9.9.9.1       D.+X+X+X+X+X+X+XM.` B @     |.+X+X+X+X..    X.+X+X+X+X+X+X+X+X+XZ.                    Z 9.9.9.9.9.9.9.@X",
"@X9.9.9.0.8.9.}       g +X+X+X+X+X+X|.}             f.+X+X+X/.r     e.+X+X+X+X+X+X+X+X+X+Xs                   $ 9.9.9.9.9.9.9.@X",
"@X9.9.9.9.8.8.c       >.+X+X+X+X+X|.I               $ c.+XW.M     @ W.+X+X+X+X+X+X+X+X+X+X:.                    ) 9.9.9.9.9.9.@X",
"@X9.9.9.9.9.9.=       M.+X+X+X+X+X:.      g p.>.=       s $       e.+X+X+X+X+X+X+X+X+X+X+Xv.                    k 9.9.9.9.9.9.@X",
"@X9.9.9.9.9.X.        ^.+X+X+X+XT.@     Z }.+X+XK.1             :.+X+X+X+X+X+X+X+X+X+X+X+XW.                    = 9.9.9.9.9.9.@X",
"@X9.9.9.0.9.P       $ +X+X+X+X+X9.    1 /.+X+X+X+Xs.        k l.+X+X+X+X+X+X+X+X+X+X+X+X+X+X@                     :.9.9.9.9.9.@X",
"@X9.9.9.8.0.c       9 +X+X+X+X+X}     ) +X+X+X+X+XH.    < ].+X+X+X+X+X+X+X+X+X+X+X+X+X+X+X+X1                     ) 9.9.9.9.9.@X",
"@X9.9.9.9.9.r       9 +X+X+X+X+X:.    u |.+X+X+X+X@.    s +X+X+X+X+X+X+X+X+X+X+X+X+X+X+X+X+X6                     K 9.9.9.9.9.@X",
"@X9.9.9.9.9.1       < +X+X+X+X+XD.      ` +X+X+Xt.      4.+X+X+X+X+X+X+X+X+X+X+X+X+X+X+X+X+X<                     B 9.9.9.9.9.@X",
"@X9.9.9.9.9.*         }.+X+X+X+X+X)       M e.K       u ].+X+X+X+X+X+X+X+X+X+X+X+X+X+X+X+X}.                      c 9.9.9.9.9.@X",
"@X9.9.9.9.9.$         H.+X+X+X+X+X].c               6 I.+X+X+X+X+X+X+X+X+X+X+X+X+X+X+X+X+XZ.                      g 9.9.9.9.9.@X",
"@X9.9.9.9.9.=         p.+X+X+X+X+X+X].K           c T.+X+X+X+X+X+X+X+X+X+X+X+X+X+X+X+X+X+Xy.                      c 9.9.9.9.9.@X",
"@X9.9.9.9.9.<         I +X+X+X+X+X+X+X+Xv.^ c I f.|.+X+X+X+X+X+X+X+X+X+X+X+X+X+X+X+X+X+X+XK                       M 9.9.9.9.9.@X",
"@X9.9.9.9.9.9         $ /.+X+X+X+X+X+X+X+X+X+X+X+X+X+X+X+X+X+X+X+X+X+X+X+X+X+X+X+X+X+X+X/.$                       D 9.9.9.9.9.@X",
"@X9.9.9.9.9.g           e.+X+X+X+X+X+X+X+X+X+X+X+X+X+X+X+X+X+X+X+X+X+X+X+X+X+X+X+X+X+X+X0.                        W 9.9.9.9.9.@X",
"@X9.9.9.9.9.D           6 }.+X+X+X+X+X+X+X+X+X+X+X+X+X+X+X+X+X+X+X+X+X+X+X+X+X+X+X+X+X].6                         X.9.9.9.9.9.@X",
"@X9.9.9.9.9.`             :.+X+X+X+X+X+X+X+X+X+X+X+X+X+X+X+X+X+X+X+X+X+X+X+X+X+X+X+X+X:.                        @ 9.9.9.9.9.9.@X",
"@X9.9.9.9.9.4.@           @ D.+X+X+X+X+X+X+X+X+X+X+X+X+X+X+X+X+X+X+X+X+X+X+X+X+X+X+XZ.@                         s 9.9.9.9.9.9.@X",
"@X9.9.9.9.9.9.u             r /.+X+X+X+X+X+X+X+X+X+X+X+X+X+X+X+X+X+X+X+X+X+X+X+X+X^.9                           K 9.9.9.9.9.9.@X",
"@X9.9.9.9.9.9.W               c /.+X+X+X+X+X+X+X+X+X+X+X+X+X+X+X+X+X+X+X+X+X+X+X/.k                             :.9.9.9.9.9.9.@X",
"@X9.9.9.9.9.9.4.$               k W.+X+X+X+X+X+X+X+X+X+X+X+X+X+X+X+X+X+X+X+X+XW.k                             s 9.9.9.9.9.9.9.@X",
"@X9.9.9.9.9.9.9.Z                 9 M.+X+X+X+X+X+X+X+X+X+X+X+X+X+X+X+X+X+X+XM.6                               ..9.9.9.9.9.9.9.@X",
"@X9.9.9.9.9.9.9.>.$                   ..^.+X+X+X+X+X+X+X+X+X+X+X+X+X+X+X^.}                                 u 0.9.9.9.9.9.9.9.@X",
"@X5.9.9.9.9.9.9.9.D                     $ X.H.+X+X+X+X+X+X+X+X+X+X+XH...$                                   X.0.9.9.9.9.9.9.9.@X",
"@X9.9.9.9.9.9.9.9.9.1                         u ..s.V.K.R.K.V.s...r                                       B 0.0.9.9.9.9.9.9.9.@X",
"@X8.9.9.9.9.9.9.9.9.X.@                                                                                 1 4.9.9.9.9.9.9.9.9.9.@X",
"@X8.9.9.9.9.9.9.9.9.9.K                                                                               @ @.9.9.9.9.9.9.9.9.9.9.@X",
"@X8.8.0.9.9.9.9.9.9.9.9.c                                                                             ` 9.9.9.9.9.9.9.9.9.9.9.@X",
"@X8.9.9.9.9.9.9.9.9.9.9.9.g                                                                         W 0.9.9.9.9.9.9.9.9.9.9.9.@X",
"@X9.9.9.9.9.9.9.9.9.9.9.9.9.c                                                                     ^ 9.9.9.9.9.9.9.9.9.9.9.9.9.@X",
"@X9.9.9.9.9.9.9.9.9.9.9.9.9.9.H                                                               $ } 9.9.9.9.9.9.9.9.9.9.9.9.9.9.@X",
"@X9.9.9.9.9.9.9.9.9.9.9.9.9.9.9.} =                                                         u *.0.9.9.9.9.9.9.9.9.9.9.9.9.9.9.@X",
"@X9.9.9.9.9.9.9.9.9.9.9.9.9.9.9.0.>.M                                                   = I 9.9.9.9.9.9.9.9.9.9.9.9.9.9.9.9.9.@X",
"@X9.9.9.9.9.9.9.4.9.9.9.9.4.9.9.9.9.0.X.g                                           $ Z >.9.9.9.9.9.9.9.9.9.4.9.9.4.9.9.9.9.9.@X",
"@X9.9.9.9.9.9.9.9.9.9.9.9.9.9.9.9.9.0.9.9.*.Z =                                 9 K 4.0.9.9.9.9.9.9.9.9.9.9.9.9.9.9.9.9.9.9.9.@X",
"@X9.9.9.9.9.9.9.9.9.9.9.9.9.9.9.9.9.9.9.9.9.9.9...D u $                 1 g I *.9.9.9.9.9.9.9.9.9.9.9.9.9.9.9.9.9.9.9.9.9.9.9.@X",
"@X9.9.9.9.9.9.9.9.9.9.9.9.9.9.9.9.9.9.9.9.9.9.9.9.9.0.9.4.@...` } ..*.4.9.9.9.9.9.9.9.9.9.9.9.9.9.9.9.9.9.9.9.9.9.9.9.9.9.9.9.@X",
"@X9.9.9.9.9.9.9.9.9.9.9.9.9.9.9.9.9.9.9.9.9.9.9.9.9.9.9.9.9.9.9.9.9.9.9.9.9.9.9.9.9.9.9.9.9.9.9.9.9.9.9.9.9.9.9.9.9.9.9.9.9.9.@X",
"@X@X9.9.9.9.9.9.9.9.9.9.9.9.9.9.9.9.9.9.9.9.9.9.9.9.9.9.9.9.9.9.9.9.9.9.9.9.9.9.9.9.9.9.9.9.9.9.9.9.9.9.9.9.9.9.9.9.9.9.9.9.9.@X",
"@X@X9.9.9.9.9.9.9.9.9.9.9.9.9.9.9.9.9.9.9.9.9.9.9.9.9.9.9.9.9.9.9.9.9.9.9.9.9.9.9.9.9.9.9.9.9.9.9.9.9.9.9.9.9.9.9.9.9.9.9.9.9.@X",
"@X@X@X9.9.9.9.9.9.9.9.9.9.9.9.9.9.9.9.9.9.9.9.9.9.9.9.9.9.9.9.9.9.9.9.9.9.9.9.9.9.9.9.9.9.9.9.9.9.9.9.9.9.9.9.9.9.9.9.9.9.9.@X@X",
"@X@X@X@X@X@X@X@X@X@X@X@X@X@X@X@X@X@X@X@X@X@X@X@X@X@X@X@X@X@X@X@X@X@X@X@X@X@X@X@X@X@X@X@X@X@X@X@X@X@X@X@X@X@X@X@X@X@X@X@X@X@X@X@X",
"@X@X@X@X@X@X@X@X@X@X@X@X@X@X@X@X@X@X@X@X@X@X@X@X@X@X@X@X@X@X@X@X@X@X@X@X@X@X@X@X@X@X@X@X@X@X@X@X@X@X@X@X@X@X@X@X@X@X@X@X@X@X@X@X"
};
