/* XPM */
static char *radar_kenji[] = {
/* columns rows colors chars-per-pixel */
"64 64 108 2 ",
"   c #020605",
".  c #000709",
"X  c #050A0B",
"o  c #0B0D0A",
"O  c #0F110D",
"+  c #11120C",
"@  c #050F11",
"#  c #021115",
"$  c #0D1513",
"%  c #00161E",
"&  c #0A1618",
"*  c #0B1819",
"=  c #121714",
"-  c #141A16",
";  c #1E1E16",
":  c #111C19",
">  c #1B211B",
",  c #222216",
"<  c #25251A",
"1  c #28271B",
"2  c #2D2B1E",
"3  c #021B23",
"4  c #011F29",
"5  c #00222D",
"6  c #092228",
"7  c #012633",
"8  c #012836",
"9  c #002B3A",
"0  c #232A21",
"q  c #292C20",
"w  c #312F20",
"e  c #323223",
"r  c #3B3927",
"t  c #37392A",
"y  c #3D3A29",
"u  c #413F2B",
"i  c #43422D",
"p  c #494731",
"a  c #4B4A34",
"s  c #525137",
"d  c #5C593E",
"f  c #013242",
"g  c #003749",
"h  c #003B4F",
"j  c #003F54",
"k  c #00445B",
"l  c #004A62",
"z  c #004F69",
"x  c #00516C",
"c  c #005673",
"v  c #005877",
"b  c #005D7D",
"n  c #605D40",
"m  c #646143",
"M  c #6C6949",
"N  c #706D4B",
"B  c #767450",
"V  c #797651",
"C  c #817E57",
"Z  c #87835A",
"A  c #8A865D",
"S  c #8F8B60",
"D  c #928D62",
"F  c #949063",
"G  c #9A9667",
"H  c #9A9668",
"J  c #9D996A",
"K  c #A19C6C",
"L  c #A6A16F",
"P  c #AAA572",
"I  c #AEA975",
"U  c #B0AC77",
"Y  c #B2AD78",
"T  c #B6B17A",
"R  c #BDB87F",
"E  c #006283",
"W  c #006689",
"Q  c #006B8F",
"!  c #006D92",
"~  c #00749B",
"^  c #007AA4",
"/  c #007EA9",
"(  c #0082AE",
")  c #0086B4",
"_  c #0088B6",
"`  c #008CBB",
"'  c #008FC0",
"]  c #0092C3",
"[  c #C2BD83",
"{  c #C9C487",
"}  c #CBC589",
"|  c #CFCA8C",
" . c #D2CC8D",
".. c #D6D090",
"X. c #DBD593",
"o. c #DED996",
"O. c #E1DA97",
"+. c #E3DC99",
"@. c #E7E09B",
"#. c #EBE49E",
"$. c #EEE7A0",
"%. c #EEE8A0",
"&. c #F3ECA3",
"*. c #F7F1A7",
"=. c #F8F1A7",
"-. c #FDF6AA",
";. c #FFF8AC",
":. c None",
/* pixels */
":.:.:.:.:.:.:.:.:.:.:.:.:.:.:.:.:.:.:.:.:.:.:.:.:.:.:.:.:.:.:.:.:.:.:.:.:.:.:.:.:.:.:.:.:.:.:.:.:.:.:.:.:.:.:.:.:.:.:.:.:.:.:.:.",
":.:.:.:.] ] ] ] ] ] ] ] ] ] ] ] ] ] ] ] ] ] ] ] ] ] ] ] ] ] ] ] ] ] ] ] ] ] ] ] ] ] ] ] ] ] ] ] ] ] ] ] ] ] ] ] ] ] ] ] :.:.:.:.",
":.:.] ] ] ] ] ] ] ] ] ] ] ] ] ] ] ] ] ] ] ] ] ] ] ] ] ] ] ] ] ] ] ] ] ] ] ] ] ] ] ] ] ] ] ] ] ] ] ] ] ] ] ] ] ] ] ] ] ] ] ] :.:.",
":.:.] ] ] ] ] ] ] ] ] ] ] ] ] ] ] ] ] ] ] ] ] ] ] ] ] ] ] ] ] ] ] ] ] ] ] ] ] ] ] ] ] ] ] ] ] ] ] ] ] ] ] ] ] ] ] ] ] ] ] ] :.:.",
":.:.] ] ] ] ] ] ] ] ] ] ] ] ] ] ` ] ] ` ] ] ] ] ] ] ] ] ] ] ] ] ] ] ] ] ] ] ] ] ` ] ] ] ] ] ] ` ] ] ] ] ] ] ] ] ] ] ] ] ] ] ] :.",
":.] ] ' ` ) ) ) ) ) ) ) _ _ ) ) ) ) _ _ _ _ ] ] ] ] ] ] ] ] ] ] ] ] ] ] ] ] ` ` ) ) _ _ _ _ _ _ _ _ ) ) ) _ ) ) ) ) ) ` ] ] ] :.",
":.] ] ) 7 1 2 2 2 2 2 2 2 2 2 2 2 2 2 2 2 X W ` ] ] ] ] ] ] ] ] ] ] ] ] ] ~ 6 q 2 2 2 2 2 2 2 1 2 2 1 2 2 2 2 2 2 2 1 3 ^ ] ] :.",
":.] ] ^ % { O.O.O.O.O.O.O.+.O.O.O.O.O.O.O.> z ] ] ] ] ] ] ] ] ] ] ] ] ] ( % m o.O.O.O.+.O.O.+.+.+.+.+.+.O.O.O.O.O.O.d 3 ^ ] ] :.",
":.] ] ^ % +.;.;.;.;.;.;.;.;.;.;.;.;.;.;.;.> l ` ] ] ] ] ] ] ] ] ] ] ] _ 9 w @.;.;.;.;.;.;.;.;.;.;.;.;.;.;.;.;.;.-.G X b ] ] ] :.",
":.] ] ^ 3 +.;.;.;.;.;.;.;.;.;.;.;.;.;.;.-., z ] ] ] ] ] ] ] ] ] ] ] ] k t o.;.;.;.;.;.;.;.;.;.;.;.;.;.;.;.;.;.;.T > v ] ] ] ] :.",
":.] ] ^ % +.;.;.;.;.;.;.;.;.;.;.;.;.;.;.;., k ] ] ] ] ] ] ] ] ] ] ` x ; { -.;.;.;.;.;.;.;.;.;.;.;.;.;.;.;.;.;.X.+ l ] ] ] ] ] :.",
":.] ] ^ % +.;.;.;.;.;.;.;.;.;.;.;.;.;.;.;.> k ] ] ] ] ] ] ] ] ] ` W o G ;.;.;.;.;.;.;.;.;.;.;.;.;.;.;.;.;.;...2 g _ ] ] ] ] ] :.",
":.] ] ^ % +.;.;.;.;.;.;.;.;.;.;.;.;.;.;.;., l ] ] ] ] ] ] ] ] ] ~ % D =.;.;.;.;.;.;.;.;.;.;.;.;.;.;.;.;.;.&.i f ) ] ] ] ] ] ] :.",
":.] ] ^ % +.;.;.;.;.;.;.;.;.;.;.;.;.;.;.;.> l ] ] ] ] ] ] ] ] ` % N =.;.;.;.;.;.;.;.;.;.;.;.;.;.;.;.;.;.=.p 5 ( ] ] ] ] ] ] ] :.",
":.] ] ^ % +.;.;.;.;.;.;.;.;.;.;.;.;.-.-.;.> l ] ] ] ] ] ] ] ( 9 i @.-.;.;.;.;.;.;.;.;.;.;.;.;.;.;.;.;.%.N % ~ ] ] ] ] ] ] ] ] :.",
":.] ] ^ % +.;.;.;.;.;.;.;.;.;.;.;.;.;.-.-.> z ] ] ] ] ] ] ` k , @.-.;.;.;.;.;.;.;.;.;.;.;.;.;.;.;.;.;.F & ~ ] ] ] ] ] ] ] ] ] :.",
":.] ] ^ % +.;.;.;.;.;.;.;.;.;.;.;.;.;.;.;.> l ] ] ] ] ] ` v >  .;.;.;.;.;.;.;.;.;.;.;.;.;.;.;.;.;.-.I # W ] ] ] ] ] ] ] ] ] ] :.",
":.] ] ^ % +.;.;.;.;.;.;.;.;.;.;.;.;.;.;.;.; l ] ] ] ] ] b o J -.;.;.;.;.;.;.;.;.;.;.;.;.;.;.;.;.-.Y + x ` ] ] ] ] ] ] ] ] ] ] :.",
":.] ] ^ 3 +.;.;.;.;.;.;.;.;.;.;.;.;.;.;.;.; l ] ] ] ] ~ # S -.;.;.;.;.;.;.;.;.;.;.;.;.;.;.;.;.;.X., l ` ] ] ] ] ] ] ] ] ] ] ] :.",
":.] ] ^ % +.;.;.;.;.;.;.;.;.;.;.;.;.;.;.;.; l ] ] ] _ 5 m ;.;.;.;.;.;.;.;.;.;.;.;.;.;.;.;.;.;.o.e h ` ] ] ] ] ] ] ] ] ] ] ] ] :.",
":.] ] ^ % +.;.;.;.;.;.;.;.;.;.;.;.;.;.;.;.> k ] ] _ 8 p @.;.;.;.;.;.;.;.;.;.;.;.;.;.;.;.;.;.+.i 8 ) ] ] ] ] ] ] ] ] ] ] ] ] ] :.",
":.] ] ^ % +.;.;.;.;.;.;.;.;.;.;.;.;.;.;.;.; l ] ` h o O.;.;.;.;.;.;.;.;.;.;.;.;.;.;.;.;.;.&.m % ` ] ] ] ] ] ] ] ] ] ] ] ] ] ] :.",
":.] ] ^ % +.;.;.;.;.;.;.;.;.;.;.;.;.;.;.;.> l ] c 1 { ;.;.;.;.;.;.;.;.;.;.;.;.;.;.;.;.;.*.B 3 ~ ] ] ] ] ] ] ] ] ] ] ] ] ] ] ] :.",
":.] ] ^ % +.;.;.;.;.;.;.;.;.;.;.;.;.;.;.;., l b O L -.;.;.;.;.;.;.;.;.;.;.;.;.;.;.;.;.-.Z X ! ] ] ] ] ] ] ] ] ] ] ] ] ] ] ] ] :.",
":.] ] ^ % +.;.;.;.;.;.;.;.;.;.;.;.;.;.;.-., 9 # V -.;.;.;.;.;.;.;.;.;.;.;.;.;.;.;.;.;.L = W ] ] ] ] ] ] ] ] ] ] ] ] ] ] ] ] ] :.",
":.] ] ^ % +.;.;.;.;.;.;.;.;.;.;.;.;.;.;.-.;   M =.;.;.;.;.;.;.;.;.;.;.;.;.;.;.;.;.;.[ > x ] ] ] ] ] ] ] ] ] ] ] ] ] ] ] ] ] ] :.",
":.] ] ^ % +.;.;.;.;.;.;.;.;.;.;.;.;.;.;.;.> i #.;.;.;.;.;.;.;.;.;.;.;.;.;.;.;.;.;...+ k ` ] ] ] ] ] ] ] ] ] ] ] ] ] ] ] ] ] ] :.",
":.] ] ^ 3 +.;.;.;.;.;.;.;.;.;.;.;.;.;.;.;.i ..;.;.;.;.;.;.;.;.;.;.;.;.;.;.;.;.;.&.s % ` ] ] ] ] ] ] ] ] ] ] ] ] ] ] ] ] ] ] ] :.",
":.] ] ^ 3 +.;.;.;.;.;.;.;.;.;.;.;.;.;.;.;...;.;.;.;.;.;.;.;.;.;.;.;.;.;.;.;.;.;.=.A # ^ ] ] ] ] ] ] ] ] ] ] ] ] ] ] ] ] ] ] ] :.",
":.] ] ^ % +.;.;.;.;.;.;.;.;.;.;.;.;.;.;.;.;.;.;.;.;.;.;.;.;.;.;.;.;.;.;.;.;.;.;.;.*., f ] ] ] ] ] ] ] ] ] ] ] ] ] ] ] ] ] ] ] :.",
":.] ] ^ % +.;.;.;.;.;.;.;.;.;.;.;.;.;.;.;.;.;.;.;.;.;.;.;.;.;.;.;.;.;.;.;.;.;.;.;.;. .* Q ] ] ] ] ] ] ] ] ] ] ] ] ] ] ] ] ] ] :.",
":.] ] ^ % +.;.;.;.;.;.;.;.;.;.;.;.;.;.;.;.;.;.;.;.;.;.;.;.;.;.;.;.;.;.;.;.;.;.;.;.;.;.Z 5 ] ] ] ] ] ] ] ] ] ] ] ] ] ] ] ] ] ] :.",
":.] ] ^ % +.;.;.;.;.;.;.;.;.;.;.;.;.;.;.;.;.;.;.;.;.;.;.;.;.;.;.;.;.;.;.;.;.;.;.;.;.;.X.e l ] ] ] ] ] ] ] ] ] ] ] ] ] ] ] ] ] :.",
":.] ] ^ % +.;.;.;.;.;.;.;.;.;.;.;.;.;.;.;.;.;.;.;.;.;.;.;.;.;.;.;.;.;.;.;.;.;.;.;.;.;.;.K . ! ] ] ] ] ] ] ] ] ] ] ] ] ] ] ] ] :.",
":.] ] ^ % @.;.;.;.;.;.;.;.;.;.;.;.;.;.;.;.;.;.;.;.;.;.;.;.;.;.;.;.;.;.;.;.;.;.;.;.;.;.;.-.a f ` ] ] ] ] ] ] ] ] ] ] ] ] ] ] ] :.",
":.] ] ^ % +.;.;.;.;.;.;.;.;.;.;.;.;.;.;.;.;.;.;.;.;.;.;.;.;.;.;.;.;.;.;.;.;.;.;.;.;.;.;.;.@.> E ] ] ] ] ] ] ] ] ] ] ] ] ] ] ] :.",
":.] ] ^ % @.;.;.;.;.;.;.;.;.;.;.;.;.;.;.;.;.;.;.;.;.;.;.;.;.;.;.;.;.;.;.;.;.;.;.;.;.;.;.;.;.S * ( ] ] ] ] ] ] ] ] ] ] ] ] ] ] :.",
":.] ] ^ # @.;.;.;.;.;.;.;.;.;.;.;.;.;.;.;.;.;.;.;.;.;.;.;.;.;.;.;.;.;.;.;.;.;.;.;.;.;.;.;.;.$.q g ] ] ] ] ] ] ] ] ] ] ] ] ] ] :.",
":.] ] ^ % +.;.;.;.;.;.;.;.;.;.;.;.;.;.;.;.;.;.;.;.;.;.;.;.@.#.;.;.;.;.;.;.;.;.;.;.;.;.;.;.;.;.R $ W ] ] ] ] ] ] ] ] ] ] ] ] ] :.",
":.] ] ^ % +.;.;.;.;.;.;.;.;.;.;.;.;.;.;.;.;.;.;.;.;.;.;. ., A ;.;.;.;.;.;.;.;.;.;.;.;.;.;.;.;.;.V 7 ` ] ] ] ] ] ] ] ] ] ] ] ] :.",
":.] ] ^ % +.;.;.;.;.;.;.;.;.;.;.;.;.;.;.;.;.;.;.;.;.;.I - 5 q o.;.;.;.;.;.;.;.;.;.;.;.;.;.;.;.;.+.w c ] ] ] ] ] ] ] ] ] ] ] ] :.",
":.] ] ^ % @.;.;.;.;.;.;.;.;.;.;.;.;.;.;.;.;.;.;.;.#.Z : z ` 9 V ;.;.;.;.;.;.;.;.;.;.;.;.;.;.;.;.-.J X ~ ] ] ] ] ] ] ] ] ] ] ] :.",
":.] ] ^ % +.;.;.;.;.;.;.;.;.;.;.;.;.;.;.;.;.;.;.&.d   ! ` ] W X | ;.;.;.;.;.;.;.;.;.;.;.;.;.;.;.;.-.y 8 ` ] ] ] ] ] ] ] ] ] ] :.",
":.] ] ^ % +.;.;.;.;.;.;.;.;.;.;.;.;.;.;.;.;.-.| a 5 ~ ] ] ] _ 9 a *.;.;.;.;.;.;.;.;.;.;.;.;.;.;.;.-.O.> E ] ] ] ] ] ] ] ] ] ] :.",
":.] ] ^ % +.;.;.;.;.;.;.;.;.;.;.;.;.;.;.;.;.Y 1 f ( ] ] ] ] ] ( O I ;.;.;.;.;.;.;.;.;.;.;.;.;.;.;.;.;.F 4 ` ] ] ] ] ] ] ] ] ] :.",
":.] ] ^ 3 +.;.;.;.;.;.;.;.;.;.;.;.;.;.;.;.P X k ] ] ] ] ] ] ] ] l i &.;.;.;.;.;.;.;.;.;.;.;.;.;.;.;.;.@.r g ` ] ] ] ] ] ] ] ] :.",
":.] ] ^ % +.;.;.;.;.;.;.;.;.;.;.;.;.;.;.;., h ` ] ] ] ] ] ] ] ] ( 3 L ;.;.;.;.;.;.;.;.;.;.;.;.;.;.;.;.;.U . W ] ] ] ] ] ] ] ] :.",
":.] ] ^ % +.;.;.;.;.;.;.;.;.;.;.;.;.;.;.;.> l ] ] ] ] ] ] ] ] ] ' z O o.;.;.;.;.;.;.;.;.;.;.;.;.;.;.;.;.-.M 8 ) ] ] ] ] ] ] ] :.",
":.] ] ^ % +.;.;.;.;.;.;.;.;.;.;.;.;.;.;.;.; l ] ] ] ] ] ] ] ] ] ] _ # M =.;.;.;.;.;.;.;.;.;.;.;.;.;.;.;.;.&.2 v ] ] ] ] ] ] ] :.",
":.] ] ^ % +.;.;.;.;.;.;.;.;.;.;.;.;.;.;.;.; l ] ] ] ] ] ] ] ] ] ] ] ! > | ;.;.;.;.;.;.;.;.;.;.;.;.;.;.;.;.-.J * ^ ] ] ] ] ] ] :.",
":.] ] ^ % +.;.;.;.;.;.;.;.;.;.;.;.;.;.;.;.; k ] ] ] ] ] ] ] ] ] ] ] ] f m ;.;.;.;.;.;.;.;.;.;.;.;.;.;.;.;.;.&.u 7 ` ] ] ] ] ] :.",
":.] ] ^ % +.;.;.;.;.;.;.;.;.;.;.;.;.;.;.;.; l ] ] ] ] ] ] ] ] ] ] ] ] ~ # { ;.;.;.;.;.;.;.;.;.;.;.;.;.;.;.;.;. .= b ] ] ] ] ] :.",
":.] ] ^ % +.;.;.;.;.;.;.;.;.;.;.;.;.;.;.;.; l ] ] ] ] ] ] ] ] ] ] ] ] ` h 2 $.;.;.;.;.;.;.;.;.;.;.;.;.;.;.;.;.-.S 4 ` ] ] ] ] :.",
":.] ] ^ 3 +.;.;.;.;.;.;.;.;.;.;.;.;.;.;.;.> l ] ] ] ] ] ] ] ] ] ] ] ] ] (   S -.;.;.;.;.;.;.;.;.;.;.;.;.;.;.;.;.#.u k ` ] ] ] :.",
":.] ] ^ % +.;.;.;.;.;.;.;.;.;.;.;.;.;.;.;.; l ] ] ] ] ] ] ] ] ] ] ] ] ] ] v e +.;.;.;.;.;.;.;.;.;.;.;.;.;.;.;.;.-.P X Q ] ] ] :.",
":.] ] ^ % +.;.;.;.;.;.;.;.;.;.;.;.;.;.;.;.> l ] ] ] ] ] ] ] ] ] ] ] ] ] ] ` 8 Z ;.;.;.;.;.;.;.;.;.;.;.;.;.;.;.;.;.=.d 7 ) ] ] :.",
":.] ] ^ % } +.+.+.@.+.+.+.@.+.+.+.+.+.+.+.; l ] ] ] ] ] ] ] ] ] ] ] ] ] ] ] E X  .+.+.+.+.+.+.+.+.+.+.+.+.+.+.+.+.+...= E ] ] :.",
":.' ] ) 7 2 w q q 2 w 2 2 q 2 w 2 2 w 2 2 X E ] ] ] ] ] ] ] ] ] ] ] ] ] ] ] ` 9 ; 2 w 2 w w 2 2 w q 2 w 2 w 2 w w 2 2 $ b ] ] :.",
":.] ] ' ` ) ) ) _ ) ) ) ) ) ) ) ) ) ) ) ) _ ' ] ] ] ] ] ] ] ] ] ] ] ] ] ] ] ] ` ) ) ) ) ) ) ) ) ) ) ) ) ) ) ) ) ) ) ) _ ] ] ] :.",
":.:.] ] ] ' ] ] ] ] ] ] ] ] ] ] ] ] ] ] ] ] ] ] ] ] ] ] ] ] ] ] ] ] ] ] ] ] ] ] ] ] ] ] ] ] ] ] ] ] ] ] ] ] ] ] ] ] ] ] ] ] :.:.",
":.:.] ] ] ] ] ] ] ] ] ] ] ] ] ] ] ] ] ] ] ] ] ] ] ] ] ] ] ] ] ] ] ] ] ] ] ] ] ] ] ] ] ] ] ] ] ] ] ] ] ] ] ] ] ] ] ] ] ] ] ] :.:.",
":.:.:.] ] ] ] ] ] ] ] ] ] ] ] ] ] ] ] ] ] ] ] ] ] ] ] ] ] ] ] ] ] ] ] ] ] ] ] ] ] ] ] ] ] ] ] ] ] ] ] ' ] ] ] ] ] ] ] ] ] :.:.:.",
":.:.:.:.:.:.:.:.:.:.:.:.:.:.:.:.:.:.:.:.:.:.:.:.:.:.:.:.:.:.:.:.:.:.:.:.:.:.:.:.:.:.:.:.:.:.:.:.:.:.:.:.:.:.:.:.:.:.:.:.:.:.:.:.",
":.:.:.:.:.:.:.:.:.:.:.:.:.:.:.:.:.:.:.:.:.:.:.:.:.:.:.:.:.:.:.:.:.:.:.:.:.:.:.:.:.:.:.:.:.:.:.:.:.:.:.:.:.:.:.:.:.:.:.:.:.:.:.:."
};
