/* XPM */
static char *radar_tony[] = {
/* columns rows colors chars-per-pixel */
"64 64 55 1 ",
"  c #000507",
". c #000C11",
"X c #001016",
"o c #001219",
"O c #011921",
"+ c #021A21",
"@ c #011D25",
"# c #011D26",
"$ c #002430",
"% c #002531",
"& c #002633",
"* c #002735",
"= c #002B3A",
"- c #002C3C",
"; c #002E3E",
": c #333122",
"> c #383726",
", c #3C3B29",
"< c #43412C",
"1 c #4D4A33",
"2 c #003040",
"3 c #003446",
"4 c #003648",
"5 c #003D52",
"6 c #004158",
"7 c #004258",
"8 c #004F6A",
"9 c #005977",
"0 c #656243",
"q c #676345",
"w c #726F4C",
"e c #7E7B55",
"r c #827F57",
"t c #969265",
"y c #979265",
"u c #007298",
"i c #007299",
"p c #00759C",
"a c #0078A1",
"s c #007DA8",
"d c #008DBC",
"f c #008FC0",
"g c #0090C0",
"h c #0090C1",
"j c #0091C2",
"k c #0091C3",
"l c #0092C2",
"z c #0092C3",
"x c #0091C4",
"c c #0092C4",
"v c #C6C085",
"b c #D3CE8E",
"n c #E7E19B",
"m c #FFF8AC",
"M c None",
/* pixels */
"MMMMMMMMMMMMMMMMMMMMMMMMMMMMMMMMMMMMMMMMMMMMMMMMMMMMMMMMMMMMMMMM",
"MMMMjcjjzczzzzzzzzzzzzzzzzzzzzzzzzzzzzzzzzzzzzzzzzzzzzzzcjjzMMMM",
"MMjjzzzzzzzzzzzzzzzzzzzzzzzzzzzzzzzzzzzzzzzzzzzzzzzzzzzzzzzczjMM",
"MMjczzzzzzzzzzzzzzzzzzzzzzzzzzzzzzzzzzzzzzzzzzzzzzzzzzzzzzzzzzMM",
"MMzzzzjzzzzzzzzzzzzzzzzzzzzzzzzzzzzzzzzzzzzzzzzzzzzzzzzzzzzzzccM",
"Mjzzzp%#################################################&ijczzjM",
"Mjczz=>eeeeeeeeeeeeeeeeeeeeeeeeeeeeeeeeeeeeeeeeeeeeeeeee:7dczzcM",
"Mjjcz%wmmmmmmmmmmmmmmmmmmmmmmmmmmmmmmmmmmmmmmmmmmmmmmmmmq5jzzcjM",
"Mzzzz%wmmmmmmmmmmmmmmmmmmmmmmmmmmmmmmmmmmmmmmmmmmmmmmmmmq5dcczzM",
"Mjzzz%wmmmmmmmmmmmmmmmmmmmmmmmmmmmmmmmmmmmmmmmmmmmmmmmmmq5jzzzzM",
"Mzzzz%wmmmmmmmmmmmmmmmmmmmmmmmmmmmmmmmmmmmmmmmmmmmmmmmmmq5dzzzjM",
"Mjzzz%wmmmmmmmmmmmmmmmmmmmmmmmmmmmmmmmmmmmmmmmmmmmmmmmmmq5jczzzM",
"Mzzzz%wmmmmmmmmmmmmmmmmmmmmmmmmmmmmmmmmmmmmmmmmmmmmmmmmmq5jzzzjM",
"Mzzzz%wmmmmmmmmmmmmmmmmmmmmmmmmmmmmmmmmmmmmmmmmmmmmmmmmmq5dczzjM",
"Mzzzz%wmmmmmmmmmmmmmmmmmmmmmmmmmmmmmmmmmmmmmmmmmmmmmmmmmq5dczzjM",
"Mzzzz%wmmmmmmmmmmmmmmmmmmmmmmmmmmmmmmmmmmmmmmmmmmmmmmmmmq5jzzzjM",
"Mzzzz%wmmmmmmmmmmmmmmmmmmmmmmmmmmmmmmmmmmmmmmmmmmmmmmmmmq5dcczjM",
"Mzzzz%wmmmmmmmmmmmmmmmmmmmmmmmmmmmmmmmmmmmmmmmmmmmmmmmmmq5jzzzjM",
"Mzzzz%wmmmmmmmmmmmmmmmmmmmmmmmmmmmmmmmmmmmmmmmmmmmmmmmmmq5jczzjM",
"Mzzzz-<ttttttttttttttttnmmmmmmmmmmmmmmmbtttttttttttttttt,7dczzjM",
"Mzzzzi322222222222222;.vmmmmmmmmmmmmmmmy *222222222222224ijzzzjM",
"Mzzzzzzzzzzzzzzzzzzzzd&vmmmmmmmmmmmmmmmtXazzzzzzcczzzzzzzzzzzzjM",
"Mzzzzzzzzzzzzzzzzzzzzd&vmmmmmmmmmmmmmmmyXazzzzzzzzzzzzzzzzzzzzjM",
"Mzzzzzzzzzzzzzzzzzzzzd&vmmmmmmmmmmmmmmmtXazzzzzzzzzzzzzzzzzzzzjM",
"Mzzzzzzzzzzzzzzzzzzzzd&vmmmmmmmmmmmmmmmtXazzzzzzzzzzzzzzzzzzzzjM",
"Mzzzzzzzzzzzzzzzzzzzzd&vmmmmmmmmmmmmmmmyXazzzzzzzzzzzzzzzzzzzzjM",
"Mzzzzzzzzzzzzzzzzzzzzd&vmmmmmmmmmmmmmmmtXazzzzzzzzzzzzzzzzzzzzjM",
"Mzzzzzzzzzzzzzzzzzzzzd&vmmmmmmmmmmmmmmmyXazzzzzzzzzzzzzzzzzzzzjM",
"Mzzzzzzzzzzzzzzzzzzzzd&vmmmmmmmmmmmmmmmtXazzzzzzzzzzzzzzzzzzzzjM",
"Mzzzzzzzzzzzzzzzzzzzzd&vmmmmmmmmmmmmmmmyXazzzzzzzzzzzzzzzzzzzzjM",
"Mzzzzzzzzzzzzzzzzzzzzd&vmmmmmmmmmmmmmmmtXazzzzzzzzzzzzzzzzzzzzjM",
"Mzzzzzzzzzzzzzzzzzzzzd&vmmmmmmmmmmmmmmmyXazzzzzzzzzzzzzzzzzzzzjM",
"Mzzzzzzzzzzzzzzzzzzzzd&vmmmmmmmmmmmmmmmtXazzzzzzzzzzzzzzzzzzzzjM",
"Mzzzzzzzzzzzzzzzzzzzzd&vmmmmmmmmmmmmmmmyXazzzzzzzzzzzzzzzzzzzzjM",
"Mzzzzzzzzzzzzzzzzzzzzd&vmmmmmmmmmmmmmmmtXazzzzzzzzzzzzzzzzzzzzjM",
"Mzzzzzzzzzzzzzzzzzzzzd&vmmmmmmmmmmmmmmmyXazzzzzzzzzzzzzzzzzzzzjM",
"Mzzzzzzzzzzzzzzzzzzzzd&vmmmmmmmmmmmmmmmtXazzzzzzzzzzzzzzzzzzzzjM",
"Mzzzzzzzzzzzzzzzzzzzzd&vmmmmmmmmmmmmmmmyXazzzzzzzzzzzzzzzzzzzzjM",
"Mzzzzzzzzzzzzzzzzzzzzd&vmmmmmmmmmmmmmmmtXazzzzzzzzzzzzzzzzzzzzjM",
"Mzzzzzzzzzzzzzzzzzzzzd&vmmmmmmmmmmmmmmmyXazzzzzzzzzzzzzzzzzzzzjM",
"Mzzzzzzzzzzzzzzzzzzzzd&vmmmmmmmmmmmmmmmyXazzzzzzzzzzzzzzzzzzzzjM",
"Mzzzzzzzzzzzzzzzzzzzzd&vmmmmmmmmmmmmmmmtXazzzzzzzzzzzzzzzzzzzzjM",
"Mzzzzzzzzzzzzzzzzzzzzd&vmmmmmmmmmmmmmmmyXazzzzzzzzzzzzzzzzzzzzjM",
"Mzzzzzzzzzzzzzzzzzzzzd&vmmmmmmmmmmmmmmmyXazzzzzzzzzzzzzzzzzzzzjM",
"Mzzzzzzzzzzzzzzzzzzzzd&vmmmmmmmmmmmmmmmtXazzzzzzzzzzzzzzzzzzzzjM",
"Mzzzzzzzzzzzzzzzzzzzzd&vmmmmmmmmmmmmmmmyXazzzzzzzzzzzzzzzzzzzzjM",
"Mzzzzzzzzzzzzzzzzzzzzd&vmmmmmmmmmmmmmmmyXazzzzzzzzzzzzzzzzzzzzjM",
"Mzzzzzzzzzzzzzzzzzzzzd&vmmmmmmmmmmmmmmmtXazzzzzzzzzzzzzzzzzzzzjM",
"Mzzzzzzzzzzzzzzzzzzzzd&vmmmmmmmmmmmmmmmyXazzzzzzzzzzzzzzzzzzzzjM",
"Mzzzzzzzzzzzzzzzzzzzzd&vmmmmmmmmmmmmmmmyXazzzzzzzzzzzzzzzzzzzzjM",
"Mzzzzzzzzzzzzzzzzzzzzd&vmmmmmmmmmmmmmmmtXazzzzzzzzzzzzzzzzzzzzjM",
"Mzzzzzzzzzzzzzzzzzzzzd&vmmmmmmmmmmmmmmmyXazzzzzzzzzzzzzzzzzzzzjM",
"Mzzzzzzzzzzzzzzzzzzzzd&vmmmmmmmmmmmmmmmyXazzzzzzzzzzzzzzzzzzzzzM",
"Mzzzzzzzzzzzzzzzzzzzzd&vmmmmmmmmmmmmmmmtXazzzzzzzzzzzzzzzzzzzzzM",
"Mzzzzzzzzzzzzzzzzzzzzd&vmmmmmmmmmmmmmmmyXazzzzzzzzzzzzzzzzzzzzjM",
"Mjzzzzzzzzzzzzzzzzzzzd&vmmmmmmmmmmmmmmmyXazzzzzzzzzzzzzzzzzzzcjM",
"Mjzzzzzzzzzzzzzzzzzzzd&vmmmmmmmmmmmmmmmtXazzzzzzzzzzzzzzzzzzzzjM",
"Mjzzzzzzzzzzzzzzzzzzzd*0eeeteeeteteteee1oszzzzzzzzzzzzzzzzzzzzzM",
"Mcczzzzzzzzzzzzzzzzzzj9#o+++o+++oo#+++o+8jzzzzzzzzzzzzzzzzzzzzzM",
"MMjzzzzzzzzzzzzzzzzzzzzzzzzzzzzzjjzzzzcczzzzzzzzzzzzzzzzzzzzzzMM",
"MMjzzzzzzzzzzzzzzzzzzzzzzzzzzzzzzzzzzzzzzzzzzzzzzzzzzzzzzzzzzjMM",
"MMMjzzzzjjjjjjjjjjjjjjjjzzjjjjjjjjjjzzjzjjjjjjjjjjjjjjjjzzzzzMMM",
"MMMMMMMMMMMMMMMMMMMMMMMMMMMMMMMMMMMMMMMMMMMMMMMMMMMMMMMMMMMMMMMM",
"MMMMMMMMMMMMMMMMMMMMMMMMMMMMMMMMMMMMMMMMMMMMMMMMMMMMMMMMMMMMMMMM"
};
