/* XPM */
static char *radar_asuka[] = {
/* columns rows colors chars-per-pixel */
"64 64 117 2 ",
"   c #060705",
".  c #080705",
"X  c #060807",
"o  c #090906",
"O  c #000609",
"+  c #03090B",
"@  c #0B0E0C",
"#  c #14140E",
"$  c #000E13",
"%  c #031014",
"&  c #0A1313",
"*  c #02141A",
"=  c #03191F",
"-  c #0C1B1C",
";  c #161711",
":  c #181710",
">  c #161A15",
",  c #1B1B13",
"<  c #131E1D",
"1  c #16201D",
"2  c #19231F",
"3  c #212117",
"4  c #242419",
"5  c #28271B",
"6  c #2B2B1D",
"7  c #021B24",
"8  c #091E22",
"9  c #001E29",
"0  c #042027",
"q  c #01212C",
"w  c #002532",
"e  c #002836",
"r  c #002C3B",
"t  c #252920",
"y  c #2D2E21",
"u  c #343323",
"i  c #3C3B29",
"p  c #403E2B",
"a  c #44422D",
"s  c #464530",
"d  c #4B4933",
"f  c #545239",
"g  c #59573C",
"h  c #5B593D",
"j  c #002F40",
"k  c #003547",
"l  c #003649",
"z  c #00394D",
"x  c #003E53",
"c  c #004156",
"v  c #00435A",
"b  c #004A64",
"n  c #004F69",
"m  c #00526D",
"M  c #005572",
"N  c #005876",
"B  c #005D7D",
"V  c #605E41",
"C  c #656244",
"Z  c #696646",
"A  c #6E6B4A",
"S  c #716E4C",
"D  c #76724F",
"F  c #777450",
"G  c #7A7652",
"H  c #7D7A54",
"J  c #817D56",
"K  c #86835A",
"L  c #88845B",
"P  c #8E8A5F",
"I  c #8F8B60",
"U  c #928E62",
"Y  c #969265",
"T  c #9A9668",
"R  c #9E996A",
"E  c #A29D6D",
"W  c #A7A371",
"Q  c #ABA673",
"!  c #AEAA75",
"~  c #B3AE78",
"^  c #B7B27B",
"/  c #BAB57D",
"(  c #BDB87F",
")  c #006182",
"_  c #006789",
"`  c #006A8D",
"'  c #006E93",
"]  c #007096",
"[  c #00749B",
"{  c #007AA4",
"}  c #007FA9",
"|  c #0081AD",
" . c #0086B3",
".. c #0088B6",
"X. c #008BBA",
"o. c #008FC0",
"O. c #0092C3",
"+. c #BFB980",
"@. c #C3BD83",
"#. c #C6C185",
"$. c #C9C387",
"%. c #CBC689",
"&. c #CFCA8C",
"*. c #D2CC8D",
"=. c #D7D291",
"-. c #DAD493",
";. c #E1DB97",
":. c #E4DD9A",
">. c #EAE49E",
",. c #EDE6A0",
"<. c #EFE9A1",
"1. c #F2EBA3",
"2. c #F7F0A6",
"3. c #F8F2A7",
"4. c #FDF6AB",
"5. c #FFF8AC",
"6. c None",
/* pixels */
"6.6.6.6.6.6.6.6.6.6.6.6.6.6.6.6.6.6.6.6.6.6.6.6.6.6.6.6.6.6.6.6.6.6.6.6.6.6.6.6.6.6.6.6.6.6.6.6.6.6.6.6.6.6.6.6.6.6.6.6.6.6.6.6.",
"6.6.6.6.O.O.O.O.O.O.O.O.O.O.O.O.O.O.O.O.O.O.O.O.O.O.O.O.O.O.O.O.O.O.O.O.O.O.O.O.O.O.O.O.O.O.O.O.O.O.O.O.O.O.O.O.O.O.O.O.6.6.6.6.",
"6.6.O.O.O.O.O.O.O.O.O.O.O.O.O.O.O.O.O.O.O.O.O.O.O.O.O.O.O.O.O.O.O.O.O.O.O.O.O.O.O.O.O.O.O.O.O.O.O.O.O.O.O.O.O.O.O.O.O.O.O.O.6.6.",
"6.6.O.O.O.O.O.O.O.O.O.O.O.O.O.O.O.O.O.O.O.O.O.O.O.O.O.O.O.O.O.O.O.O.O.O.O.O.O.O.O.O.O.O.O.O.O.O.O.O.O.O.O.O.O.O.O.O.O.O.O.O.6.6.",
"6.6.O.O.O.O.O.O.O.O.O.O.O.O.O.O.O.O.O.O.O.O.O.O.O.O.O.O.O.O.O.O.O.O.O.O.O.O.O.O.O.O.O.O.O.O.O.O.O.O.O.O.O.O.O.O.O.O.O.O.O.O.O.6.",
"6.O.O.O.O.O.O.O.O.O.O.O.O.O.O.O.O.O.O.O.O.O.[ _ _ ` _ _ _ _ _ _ _ _ _ _ _ _ _ _ _ ] X.O.O.O.O.O.O.O.O.O.O.O.O.O.O.O.O.O.O.O.O.6.",
"6.O.O.O.O.O.O.O.O.O.O.O.O.O.O.O.O.O.O.O.O._ ; i a p p p a p p p a p p p p p a p p , z O.O.O.O.O.O.O.O.O.O.O.O.O.O.O.O.O.O.O.O.6.",
"6.O.O.O.O.O.O.O.O.O.O.O.O.O.O.O.O.O.O.O.O.q Z >.>.>.>.>.>.>.>.>.>.>.>.>.>.>.>.>.>.T +  .O.O.O.O.O.O.O.O.O.O.O.O.O.O.O.O.O.O.O.6.",
"6.O.O.O.O.O.O.O.O.O.O.O.O.O.O.O.O.O.O.O.{ o ^ 5.5.5.5.5.5.5.5.5.5.5.5.5.5.5.5.5.5.>.# M O.O.O.O.O.O.O.O.O.O.O.O.O.O.O.O.O.O.O.6.",
"6.O.O.O.O.O.O.O.O.O.O.O.O.O.O.O.O.O.O.O.v 3 1.5.5.5.5.5.5.5.5.5.5.5.5.5.5.5.5.5.5.5.V e X.O.O.O.O.O.O.O.O.O.O.O.O.O.O.O.O.O.O.6.",
"6.O.O.O.O.O.O.O.O.O.O.O.O.O.O.O.O.O.O.| q J 5.5.5.5.5.5.5.5.5.5.5.5.5.5.5.5.5.5.5.5.:.* { O.O.O.O.O.O.O.O.O.O.O.O.O.O.O.O.O.O.6.",
"6.O.O.O.O.O.O.O.O.O.O.O.O.O.O.O.O.O.O.] - 1.5.5.5.5.5.5.5.5.5.5.5.5.5.5.5.5.5.5.5.5.5.i N O.O.O.O.O.O.O.O.O.O.O.O.O.O.O.O.O.O.6.",
"6.O.O.O.O.O.O.O.O.O.O.O.O.O.O.O.O.O.O.b g 5.5.5.5.5.5.5.5.5.5.5.5.5.5.5.5.5.5.5.5.5.5.Y w O.O.O.O.O.O.O.O.O.O.O.O.O.O.O.O.O.O.6.",
"6.O.O.O.O.O.O.O.O.O.O.O.O.O.O.O.O.O.O.7 Q 5.5.5.5.5.5.5.5.5.5.5.5.5.5.5.5.5.5.5.5.5.5.*.3 | O.O.O.O.O.O.O.O.O.O.O.O.O.O.O.O.O.6.",
"6.O.O.O.O.O.O.O.O.O.O.O.O.O.O.O.O.O.] 5 -.5.5.5.5.5.5.5.5.5.5.5.5.5.5.5.5.5.5.5.5.5.5.<.a x O.O.O.O.O.O.O.O.O.O.O.O.O.O.O.O.O.6.",
"6.O.O.O.O.O.O.O.O.O.O.O.O.O.O.O.O.O.e f 3.5.5.5.5.5.5.5.5.5.5.5.5.5.5.5.5.5.5.5.5.5.5.5.I +  .O.O.O.O.O.O.O.O.O.O.O.O.O.O.O.O.6.",
"6.O.O.O.O.O.O.O.O.O.O.O.O.O.O.O.O.| O W 5.5.5.5.5.5.5.5.5.5.5.5.5.5.5.5.5.5.5.5.5.5.5.5.:.o ) O.O.O.O.O.O.O.O.O.O.O.O.O.O.O.O.6.",
"6.O.O.O.O.O.O.O.O.O.O.O.O.O.O.O.O.M ; 1.5.5.5.5.5.5.5.5.5.5.5.5.5.5.5.5.5.5.5.5.5.5.5.5.5.f l X.O.O.O.O.O.O.O.O.O.O.O.O.O.O.O.6.",
"6.O.O.O.O.O.O.O.O.O.O.O.O.O.O.O.X.r D 5.5.5.5.5.5.5.5.5.5.5.5.5.5.5.5.5.5.5.5.5.5.5.5.5.5.*.7 | O.O.O.O.O.O.O.O.O.O.O.O.O.O.O.6.",
"6.O.O.O.O.O.O.O.O.O.O.O.O.O.O.O.{ - ;.5.5.5.5.5.5.5.5.5.5.5.5.5.5.5.5.5.5.5.5.5.5.5.5.5.5.1.u _ O.O.O.O.O.O.O.O.O.O.O.O.O.O.O.6.",
"6.O.O.O.O.O.O.O.O.O.O.O.O.O.O.O.m d 2.5.5.5.5.5.5.5.5.5.5.5.5.;.5.5.5.5.5.5.5.5.5.5.5.5.5.5.G e O.O.O.O.O.O.O.O.O.O.O.O.O.O.O.6.",
"6.O.O.O.O.O.O.O.O.O.O.O.O.O.O.X.7 P 5.5.5.5.5.5.5.5.5.5.5.5.5.F / 5.5.5.5.5.5.5.5.5.5.5.5.5.( # X.O.O.O.O.O.O.O.O.O.O.O.O.O.O.6.",
"6.O.O.O.O.O.O.O.O.O.O.O.O.O.O.[ , %.5.5.5.5.5.5.5.5.5.5.5.5.1.6 A 5.5.5.5.5.5.5.5.5.5.5.5.5.>.y b O.O.O.O.O.O.O.O.O.O.O.O.O.O.6.",
"6.O.O.O.O.O.O.O.O.O.O.O.O.O.O.k i 3.5.5.5.5.5.5.5.5.5.5.5.5.%.: 6 1.5.5.5.5.5.5.5.5.5.5.5.5.5.H 9  .O.O.O.O.O.O.O.O.O.O.O.O.O.6.",
"6.O.O.O.O.O.O.O.O.O.O.O.O.O.| * R 5.5.5.5.5.5.5.5.5.5.5.5.5.I = # @.5.5.5.5.5.5.5.5.5.5.5.5.5.:.& ' O.O.O.O.O.O.O.O.O.O.O.O.O.6.",
"6.O.O.O.O.O.O.O.O.O.O.O.O.O.) > 1.5.5.5.5.5.5.5.5.5.5.5.5.4.C v 0 T 5.5.5.5.5.5.5.5.5.5.5.5.5.5.d v O.O.O.O.O.O.O.O.O.O.O.O.O.6.",
"6.O.O.O.O.O.O.O.O.O.O.O.O.X.z Z 5.5.5.5.5.5.5.5.5.5.5.5.5.1.5 [ c g 2.5.5.5.5.5.5.5.5.5.5.5.5.5.^ 9 X.O.O.O.O.O.O.O.O.O.O.O.O.6.",
"6.O.O.O.O.O.O.O.O.O.O.O.O. .8 #.5.5.5.5.5.5.5.5.5.5.5.5.5.%.9 | [ y 1.5.5.5.5.5.5.5.5.5.5.5.5.5.;.6 [ O.O.O.O.O.O.O.O.O.O.O.O.6.",
"6.O.O.O.O.O.O.O.O.O.O.O.O.` i >.5.5.5.5.5.5.5.5.5.5.5.5.5.A l X.} 7 $.4.5.5.5.5.5.5.5.5.5.5.5.5.3.h k O.O.O.O.O.O.O.O.O.O.O.O.6.",
"6.O.O.O.O.O.O.O.O.O.O.O.O.0 D 5.5.5.5.5.5.5.5.5.5.5.5.5.4.  m O.o.z S 4.5.5.5.5.5.5.5.5.5.5.5.5.5.Q . | O.O.O.O.O.O.O.O.O.O.O.6.",
"6.O.O.O.O.O.O.O.O.O.O.O.[ o ( 5.5.5.5.5.5.5.5.5.5.5.5.5.+.O [ O.O.m ; 4.5.5.5.5.5.5.5.5.5.5.5.5.5.>.: n O.O.O.O.O.O.O.O.O.O.O.6.",
"6.O.O.O.O.O.O.O.O.O.O.O.c 5 2.5.5.5.5.5.5.5.5.5.5.5.5.5.A % X.O.o.[ O ^ 5.5.5.5.5.5.5.5.5.5.5.5.5.5.Z e X.O.O.O.O.O.O.O.O.O.O.6.",
"6.O.O.O.O.O.O.O.O.O.O. .9 U 5.5.5.5.5.5.5.5.5.5.5.5.4.1.a n O.O.O.O.$ H 5.5.5.5.5.5.5.5.5.5.5.5.5.5.:.= [ O.O.O.O.O.O.O.O.O.O.6.",
"6.O.O.O.O.O.O.O.O.O.O.' < 1.5.5.5.5.5.5.5.5.5.5.5.5.5.&., | O.O.O.O.c p 1.4.5.5.5.5.5.5.5.5.5.5.5.5.4.s M O.O.O.O.O.O.O.O.O.O.6.",
"6.O.O.O.O.O.O.O.O.O.O.v C 5.5.5.5.5.5.5.5.5.5.5.5.5.5.~ w O.O.O.O.O.X.5 =.5.5.5.5.5.5.5.5.5.5.5.5.5.4.R w O.O.O.O.O.O.O.O.O.O.6.",
"6.O.O.O.O.O.O.O.O.O.X.8 ! 5.5.5.5.5.5.5.5.5.5.5.5.5.5.Z c O.O.O.O.O.O.= ! 5.5.5.5.5.5.5.5.5.5.5.5.5.4.*.3 } O.O.O.O.O.O.O.O.O.6.",
"6.O.O.O.O.O.O.O.O.O._ 6 -.5.5.5.5.5.5.5.5.5.5.5.5.5.5.2 ` O.O.O.O.O.O.v A 4.5.5.5.5.5.5.5.5.5.5.5.5.5.1.s z O.O.O.O.O.O.O.O.O.6.",
"6.O.O.O.O.O.O.O.O.O.q h 5.5.5.5.5.5.5.5.5.5.5.5.5.5.%.+ z c c c v c c j 6 4.5.5.5.5.5.5.5.5.5.5.5.5.5.5.Y +  .O.O.O.O.O.O.O.O.6.",
"6.O.O.O.O.O.O.O.O.{ O ~ 5.5.5.5.5.5.5.5.5.5.5.5.5.5.+.A A A A A S A A A S 4.5.5.5.5.5.5.5.5.5.5.5.5.5.5.:.@ B o.O.O.O.O.O.O.O.6.",
"6.O.O.O.O.O.O.O.o.n : 3.5.5.5.5.5.5.5.5.5.5.5.5.5.5.5.5.5.5.5.5.5.4.5.5.5.5.5.5.5.5.5.5.5.5.5.5.5.5.5.5.4.h l X.O.O.O.O.O.O.O.6.",
"6.O.O.O.O.O.O.O. .r K 5.5.5.5.5.5.5.5.5.5.5.5.5.5.5.5.5.5.5.5.5.5.5.5.5.5.5.5.5.5.5.5.5.5.5.5.5.5.5.5.5.5.*.7 } O.O.O.O.O.O.O.6.",
"6.O.O.O.O.O.O.O.{ < :.4.5.5.5.5.5.5.5.5.5.5.5.5.5.5.5.5.5.5.5.5.5.5.5.5.5.5.5.5.5.5.5.5.5.5.5.5.5.5.5.5.5.1.i ) O.O.O.O.O.O.O.6.",
"6.O.O.O.O.O.O.O.b f 3.5.5.5.5.5.5.5.5.5.5.5.5.5.5.5.5.5.5.5.5.5.5.5.5.5.5.5.5.5.5.5.5.5.5.5.5.5.5.5.5.5.5.5.H e O.O.O.O.O.O.O.6.",
"6.O.O.O.O.O.O.O.7 Y 5.5.5.5.5.5.5.5.5.5.5.5.5.5.5.5.5.5.5.5.5.5.5.5.5.5.5.5.5.5.5.5.5.5.5.5.5.5.5.5.5.5.5.5.+.# } O.O.O.O.O.O.6.",
"6.O.O.O.O.O.O.` , *.5.5.5.5.5.5.5.5.5.5.5.5.5.5.5.5.5.5.5.5.5.5.5.5.5.5.5.5.5.5.5.5.5.5.5.5.5.5.5.5.5.5.5.5.1.u c O.O.O.O.O.O.6.",
"6.O.O.O.O.O.X.k a 5.5.5.5.5.5.5.5.5.5.5.5.5.5.5.5.5.5.5.5.5.5.5.5.5.5.5.5.5.5.5.5.5.5.5.5.5.5.5.5.5.5.5.5.5.5.L 7 X.O.O.O.O.O.6.",
"6.O.O.O.O.O.} * ! 4.5.5.5.5.5.5.5.5.5.5.5.5.5.5.5.5.5.5.5.5.5.5.5.5.5.5.5.5.5.5.5.5.5.5.5.5.5.5.5.5.5.5.5.5.5.:.& _ O.O.O.O.O.6.",
"6.O.O.O.O.O.N > 2.5.5.5.5.5.5.5.5.5.5.5.5.5.5.5.5.5.5.5.5.5.5.5.5.5.5.5.5.5.5.5.5.5.5.5.5.5.5.5.5.5.5.5.5.5.5.4.f c X.O.O.O.O.6.",
"6.O.O.O.O.X.z G 5.5.5.5.5.5.5.5.5.5.5.5.5.5.5.5.5.5.5.5.5.5.5.5.5.5.5.5.5.5.5.5.5.5.5.5.5.5.5.5.5.5.5.5.5.5.5.5.^ 0 X.O.O.O.O.6.",
"6.O.O.O.O. .< %.5.5.5.5.5.5.5.5.5.5.5.5.5.5.1.( ~ ~ ~ ~ ~ ~ ~ ~ ~ ~ ~ ~ ~ ~ ~ ~ #.5.5.5.5.5.5.5.5.5.5.5.5.5.5.5.:.y ' O.O.O.O.6.",
"6.O.O.O.O.N p >.5.5.5.5.5.5.5.5.5.5.5.5.5.4.#.,   o   . o o o o o   o     .     u 3.5.5.5.5.5.5.5.5.5.5.5.5.5.5.3.C r O.O.O.O.6.",
"6.O.O.O.X.7 H 5.5.5.5.5.5.5.5.5.5.5.5.5.5.5.P 9  . . . . . . . . . . . . . . .[ # @.5.5.5.5.5.5.5.5.5.5.5.5.5.5.5.! o } O.O.O.6.",
"6.O.O.O.' o @.5.5.5.5.5.5.5.5.5.5.5.5.5.5.3.g m O.O.O.O.O.O.O.O.O.O.O.O.O.O.O.O.0 T 5.5.5.5.5.5.5.5.5.5.5.5.5.5.5.,.: b O.O.O.6.",
"6.O.O.O.z 6 4.5.5.5.5.5.5.5.5.5.5.5.5.5.5.1., [ O.O.O.O.O.O.O.O.O.O.O.O.O.O.O.O.v h 3.5.5.5.5.5.5.5.5.5.5.5.5.5.5.5.D w  .O.O.6.",
"6.O.O.| 9 E 5.5.5.5.5.5.5.5.5.5.5.5.5.5.5./ q | O.O.O.O.O.O.O.O.O.O.O.O.O.O.O.O.[ 5 1.5.5.5.5.5.5.5.5.5.5.5.5.5.5.5.;.- [ O.O.6.",
"6.O.O.` 2 3.5.5.5.5.5.5.5.5.5.5.5.5.5.5.4.g z O.O.O.O.O.O.O.O.O.O.O.O.O.O.O.O.O.| 9 @.5.5.5.5.5.5.5.5.5.5.5.5.5.5.5.5.d m O.O.6.",
"6.O.O.v f -.-.-.-.-.-.-.-.-.-.-.-.-.-.-.=.+ N O.O.O.O.O.O.O.O.O.O.O.O.O.O.O.O.O.X.z C -.-.-.-.-.-.-.-.-.-.-.-.-.-.-.-.K w O.O.6.",
"6.O.O.N - 2 2 2 2 2 2 2 2 2 2 2 2 2 2 2 1 q | O.O.O.O.O.O.O.O.O.O.O.O.O.O.O.O.O.O.) = 2 2 2 2 2 2 2 2 2 2 2 2 2 2 2 2 < x O.O.6.",
"6.O.O.X.X.X.X.X. .X.X.X.X.X.X. .X. .X. .X.X.O.O.O.O.O.O.O.O.O.O.O.O.O.O.O.O.O.O.O.O.X. .X. .X.X.X.X.X.X.X. .X.X.X.X. .X.X.O.O.6.",
"6.6.O.O.O.O.O.O.O.O.O.O.O.O.O.O.O.O.O.O.O.O.O.O.O.O.O.O.O.O.O.O.O.O.O.O.O.O.O.O.O.O.O.O.O.O.O.O.O.O.O.O.O.O.O.O.O.O.O.O.O.O.6.6.",
"6.6.O.O.O.O.O.O.O.O.O.O.O.O.O.O.O.O.O.O.O.O.O.O.O.O.O.O.O.O.O.O.O.O.O.O.O.O.O.O.O.O.O.O.O.O.O.O.O.O.O.O.O.O.O.O.O.O.O.O.O.O.6.6.",
"6.6.6.O.O.O.O.O.O.O.O.O.O.O.O.O.O.O.O.O.O.O.O.O.O.O.o.O.O.O.O.O.O.O.O.O.O.O.O.O.O.O.O.O.O.O.O.O.o.O.O.O.O.O.O.O.O.O.O.O.O.6.6.6.",
"6.6.6.6.6.6.6.6.6.6.6.6.6.6.6.6.6.6.6.6.6.6.6.6.6.6.6.6.6.6.6.6.6.6.6.6.6.6.6.6.6.6.6.6.6.6.6.6.6.6.6.6.6.6.6.6.6.6.6.6.6.6.6.6.",
"6.6.6.6.6.6.6.6.6.6.6.6.6.6.6.6.6.6.6.6.6.6.6.6.6.6.6.6.6.6.6.6.6.6.6.6.6.6.6.6.6.6.6.6.6.6.6.6.6.6.6.6.6.6.6.6.6.6.6.6.6.6.6.6."
};
