/* XPM */
static char *radar_el[] = {
/* columns rows colors chars-per-pixel */
"64 64 230 2 ",
"   c black",
".  c #000001",
"X  c #000101",
"o  c #010101",
"O  c #000102",
"+  c #000202",
"@  c #000203",
"#  c #020202",
"$  c #020203",
"%  c #020303",
"&  c gray1",
"*  c #000204",
"=  c #000304",
"-  c #010304",
";  c #020304",
":  c #000405",
">  c #010405",
",  c #030404",
"<  c #030405",
"1  c #020505",
"2  c #000407",
"3  c #000507",
"4  c #020406",
"5  c #020506",
"6  c #010607",
"7  c #040404",
"8  c gray2",
"9  c #060606",
"0  c #070707",
"q  c #010508",
"w  c #000608",
"e  c #010608",
"r  c #000609",
"t  c #020608",
"y  c #030608",
"u  c #030708",
"i  c #030709",
"p  c #00060A",
"a  c #00070A",
"s  c #00080B",
"d  c #02080B",
"f  c #00080C",
"g  c #00090D",
"h  c #02090C",
"j  c #00090E",
"k  c #000A0F",
"l  c #020A0E",
"z  c #040A0E",
"x  c gray3",
"c  c #090909",
"v  c gray4",
"b  c #0B0B0B",
"n  c #0C0C0C",
"m  c gray5",
"M  c #0E0E0E",
"N  c gray6",
"B  c #000B10",
"V  c #000B11",
"C  c #020B10",
"Z  c #010C10",
"A  c #020C11",
"S  c #000C12",
"D  c #000C13",
"F  c #000D13",
"G  c #030D12",
"H  c #020E13",
"J  c #040D12",
"K  c #000D15",
"L  c #010E14",
"P  c #000E15",
"I  c #010E15",
"U  c #030F14",
"Y  c #030F15",
"T  c #000E16",
"R  c #000F16",
"E  c #000F17",
"W  c #000F18",
"Q  c #031015",
"!  c #011017",
"~  c #021016",
"^  c #021017",
"/  c #001018",
"(  c #011118",
")  c #001019",
"_  c #021118",
"`  c #011219",
"'  c #00111A",
"]  c #03131B",
"[  c #00131C",
"{  c #02141C",
"}  c #00151E",
"|  c #03161F",
" . c #04151E",
".. c #04171F",
"X. c #101010",
"o. c #111111",
"O. c gray7",
"+. c #131313",
"@. c gray8",
"#. c #151515",
"$. c #161616",
"%. c gray9",
"&. c #191919",
"*. c #1B1B1B",
"=. c gray11",
"-. c #1D1D1D",
";. c #001520",
":. c #011620",
">. c #001621",
",. c #001721",
"<. c #001722",
"1. c #021821",
"2. c #001823",
"3. c #001824",
"4. c #001924",
"5. c #001925",
"6. c #001A25",
"7. c #001A27",
"8. c #041B25",
"9. c #001C29",
"0. c #021D29",
"q. c #001D2B",
"w. c #001E2C",
"e. c #00202F",
"r. c #05222F",
"t. c #002130",
"y. c #012131",
"u. c #032231",
"i. c #022332",
"p. c #042433",
"a. c #002334",
"s. c #032434",
"d. c #022738",
"f. c #00273A",
"g. c #00283B",
"h. c #03293A",
"j. c #042839",
"k. c #00293C",
"l. c #012A3C",
"z. c #002A3D",
"x. c #022A3C",
"c. c #022B3D",
"v. c #002A3E",
"b. c #002B3E",
"n. c #002C40",
"m. c #002D41",
"M. c #022C40",
"N. c #022E42",
"B. c #043043",
"V. c #013045",
"C. c #033146",
"Z. c #023147",
"A. c #033147",
"S. c #003249",
"D. c #00334A",
"F. c #01334A",
"G. c #00334B",
"H. c #02344A",
"J. c #02344B",
"K. c #01344C",
"L. c #00354D",
"P. c #00354E",
"I. c #01354E",
"U. c #02364E",
"Y. c #02374F",
"T. c #03374F",
"R. c #003751",
"E. c #013851",
"W. c #013953",
"Q. c #023953",
"!. c #003954",
"~. c #003A54",
"^. c #013A54",
"/. c #033B54",
"(. c #023B55",
"). c #003B56",
"_. c #003A57",
"`. c #023B56",
"'. c #013D58",
"]. c #003C59",
"[. c #013E59",
"{. c #003D5A",
"}. c #013E5A",
"|. c #003E5B",
" X c #003F5B",
".X c #013F5B",
"XX c #023F5A",
"oX c #023F5B",
"OX c #003E5C",
"+X c #003F5C",
"@X c #003F5D",
"#X c #01415E",
"$X c #00415F",
"%X c #01425F",
"&X c #004160",
"*X c #014260",
"=X c #014361",
"-X c #024361",
";X c #014362",
":X c #014563",
">X c #004464",
",X c #004564",
"<X c #004565",
"1X c #004666",
"2X c #004667",
"3X c #004767",
"4X c #004768",
"5X c #014868",
"6X c #004869",
"7X c #024969",
"8X c #00486A",
"9X c #00496A",
"0X c #01496A",
"qX c #00496B",
"wX c #004A6B",
"eX c #004A6C",
"rX c #014A6C",
"tX c #004A6D",
"yX c #004B6D",
"uX c #014B6D",
"iX c #004B6E",
"pX c #004C6E",
"aX c #014D6F",
"sX c #004D70",
"dX c #004D71",
"fX c #004E71",
"gX c #004E72",
"hX c #004F72",
"jX c #004F73",
"kX c None",
/* pixels */
"kXkXkXkXkXkXkXkXkXkXkXkXkXkXkXkXkXkXkXkXkXkXkXkXkXkXkXkXkXkXkXkXkXkXkXkXkXkXkXkXkXkXkXkXkXkXkXkXkXkXkXkXkXkXkXkXkXkXkXkXkXkXkXkX",
"kXkXkXkXkXkXkXkXkXkXkXkXkXkXkXkXkXkXkXkXkXkXkXkXkXkXkXkXkXkXkXkXkXkXkXkXkXkXkXkXkXkXkXkXkXkXkXkXkXkXkXkXkXkXkXkXkXkXkXkXkXkXkXkX",
"kXkXkXkXkXkXkXkXkXkXkXkXkXkXkXkXkXkXkXkXkXkXkXkXkXkXkXkXkXkXkXkXkXkXkXkXkXkXkXkXkXkXkXkXkXkXkXkXkXkXkXkXkXkXkXkXkXkXkXkXkXkXkXkX",
"kXkXkXkXkX                                                                                                          kXkXkXkXkXkX",
"kXkXkXkX        s V V V S V V V S V V S V S V S V V S V V V S V V S V S V S V V S V V S V S V S V V S V V V V i         kXkXkXkX",
"kXkXkXkX  * z.iXgXjXjXjXjXjXjXjXjXjXgXjXgXjXgXjXjXgXjXjXjXgXjXjXgXjXgXjXgXjXjXgXjXjXgXjXgXjXgXjXjXgXjXjXjXgXjXjX8Xa.    kXkXkXkX",
"kXkXkX    z.gXjXjXjXjXjXjXjXjXjXjXjXjXjXjXjXjXjXjXjXjXjXjXjXjXjXjXjXjXjXjXjXjXjXjXjXjXjXjXjXjXjXjXjXjXjXjXjXjXjXjXgX9.    kXkXkX",
"kXkXkX    iXgXjXjXjXjXjXjXjXjXjXjXjXjXjXjXjXjXjXjXjXjXjXjXjXjXjXjXjXjXjXjXjXjXjXjXjXjXjXjXjXjXjXjXjXjXjXjXjXjXjXjXgX@X    kXkXkX",
"kXkXkX  L jXjXjXjXjXjXjXjXjXjXjXjXjXjXjXjXjXjXjXjXjXjXjXjXjXjXjXjXjXjXjXjXjXjXjXjXjXjXjXjXjXjXjXjXjXjXjXjXjXjXjXjXjXgX    kXkXkX",
"kXkXkX  [ jXjXjXjXjXjXjXjXjXjXjXjXjXjXjXjXjXjXjXjXjXjXjXjXjXjXjXjXjXjXjXjXjXjXjXjXjXjXjXjXjXjXjXjXjXjXjXjXjXjXjXjXjXgXf   kXkXkX",
"kXkXkX  ;.jXjXjXjXjXjXjXjXgXjXjXjXjXjXjXjXjXjXjXjXjXjXjXjXjXjXjXjXjXjXjXjXjXjXjXjXjXjXjXjXjXjXjXjXjXjXjXjXjXjXjXjXjXjXL   kXkXkX",
"kXkXkX  3.jXjXjXjXjXjXjXjXgXgX:XE./.#X8XgXjXjXjXjXjXjXjXjXjXjXjXjXjXjXjXjXjXjXjXjXjXjXjXjXjXjXjXjXjXjXjXjXjXjXjXjXjXjXL   kXkXkX",
"kXkXkX  6.gXjXjXjXjXjXjXjXgXU.Q 7 x L 1.h.#XgXgXjXjXjXjXjXjXjXjXjXjXjXjXjXjXjXjXjXjXjXjXjXjXjXjXjXjXjXjXjXjXjXjXjXjXjXW   kXkXkX",
"kXkXkX  6.jXjXjXjXjXjXjXgX#Xi   &     * & 7 1./.uXgXgXjXjXjXjXjXjXjXjXjXjXjXjXjXjXjXjXjXjXjXjXjXjXjXjXjXjXjXjXjXjXjXjXL   kXkXkX",
"kXkXkX  6.gXjXjXjXjXjXgXXXz             &     5 ] c.:XgXgXjXjXjXjXjXjXjXjXjXjXjXjXjXjXjXjXjXjXjXjXjXjXjXjXjXjXjXjXjXjX/   kXkXkX",
"kXkXkX  6.jXjXjXjXjXgXXXS       & 7 7 m m 7 7 7 7 7 S c.iXjXjXjXjXjXjXjXjXjXjXjXjXjXjXjXjXjXjXjXjXjXjXjXjXjXjXjXjXjXgXW   kXkXkX",
"kXkXkX  6.jXjXjXjXjXjXp.      & & & m -.&.m x m O.x 7 & Q `.uXgXjXjXjXjXjXjXjXjXjXjXjXjXjXjXjXjXjXjXjXjXjXjXjXjXjXjXjXW   kXkXkX",
"kXkXkX  6.gXjXjXjXjXgXQ       & & 7 @.@.n 7 7 7 x 7 5 &   5 p.8XjXjXjXjXjXjXjXjXjXjXjXjXjXjXjXjXjXjXjXjXjXjXjXjXjXjXjXW   kXkXkX",
"kXkXkX  6.jXjXjXjXjXgXd.7     *     x x 7               5 7 & Q :XjXjXjXjXjXjXjXjXjXjXjXjXjXjXjXjXjXjXjXjXjXjXjXjXjXjXW   kXkXkX",
"kXkXkX  6.jXjXjXjXjXjX8Xy.5     7 0 7         5 | / *     7 7   J E.gXjXjXjXjXjXjXjXjXjXjXjXjXjXjXjXjXjXjXjXjXjXjXjXjXW   kXkXkX",
"kXkXkX  3.jXjXjXjXjXjXgXiXU.D       5         c.iX2XG.i   5 7 7   z G.jXjXjXjXjXjXjXjXjXjXjXjXjXjXjXjXjXjXjXjXjXjXjXjXW   kXkXkX",
"kXkXkX  6.jXjXjXjXjXjXjXgXgX2X6.*             #XjXjXgXU.5     7 x   & C.jXjXjXjXjXjXjXjXjXjXjXjXjXjXjXjXjXjXjXjXjXjXjXW   kXkXkX",
"kXkXkX  3.jXjXjXjXjXjXjXgXjXjXgXE.6.*       | 3XjXjXgXgXG.i     0 c 7 s H.jXjXjXjXjXjXjXjXjXjXjXjXjXjXjXjXjXjXjXjXjXjXW   kXkXkX",
"kXkX    6.jXjXjXjXjXjXjXjXjXjXjXgXiXXXy.i s XXgXjXjXgXjXgX_.i   & x b 7 s /.jXjXjXjXjXjXjXjXjXjXjXjXjXjXjXjXjXjXjXjXjXW   kXkXkX",
"kXkX    3.jXjXjXjXjXjXjXjXjXjXjXgXjXjXgXgXgXgXjXjXjXjXjXjXgXc.    7 n n & x XXgXjXjXjXjXjXjXjXjXjXjXjXjXjXjXjXjXjXjXjXW   kXkXkX",
"kXkX    7.jXjXjXjXjXjXjXjXjXjXjXgXjXjXjXjXjXgXjXjXjXjXjXjXjX8X1.    7 m b   Q *XjXjXjXjXjXjXjXjXjXjXjXjXjXjXjXjXjXjXjXW   kXkXkX",
"kXkX    3.jXjXjXjXjXjXjXjXjXjXjXjXjXjXjXjXjXjXgXgXjXjXjXjXjXgXuXJ     c +.n   1.jXjXjXjXjXjXjXjXjXjXjXjXjXjXjXjXjXjXjXW   kXkXkX",
"kXkX    6.jXjXjXjXjXjXjXjXjXjXjXjXjXjXjXjXjXjXjXjXjXjXjXjXjXgXgX:XS   & b %.b   p.uXjXjXjXjXjXjXjXjXjXjXjXjXjXjXjXjXjXW   kXkXkX",
"kXkX    6.jXjXjXjXjXjXjXjXjXjXjXjXjXjXjXjXjXjXjXjXjXjXjXjXjXjXjXgX/.*   & m %.0 i G.gXjXjXjXjXjXjXjXjXjXjXjXjXjXjXjXjXW   kXkXkX",
"kXkX    6.jXjXjXjXjXjXjXjXjXjXjXjXjXjXjXjXjXjXjXjXjXjXjXjXjXjXjXjXjX/.    & &.@.& U 8XjXjXjXjXjXjXjXjXjXjXjXjXjXjXjXjXW   kXkXkX",
"kXkX    6.jXjXjXjXjXjXjXjXjXjXjXjXjXjXjXjXjXjXjXjXjXjXjXjXjXjXjXjXjXjXC.5   x @.X.& r.gXjXjXjXjXjXjXjXjXjXjXjXjXjXjXjXW   kXkXkX",
"kXkX    3.jXjXjXjXjXjXjXjXjXjXjXjXjXjXjXjXjXjXjXjXjXjXjXjXjXjXjXjXjXgXiXy.    x @.b 7 R.jXjXjXjXjXjXjXjXjXjXjXjXjXjXjXW   kXkXkX",
"kXkX    3.jXjXjXjXjXjXjXjXjXjXjXjXjXjXjXjXjXjXjXjXjXjXjXjXjXjXjXjXjXjXjXgX6.  * x @.7 | 8XjXjXjXjXjXjXjXjXjXjXjXjXjXjX/   kXkXkX",
"kXkX    6.jXjXjXjXjXjXjXjXjXjXjXjXjXjXjXjXjXjXjXjXjXjXjXjXjXjXjXjXjXjXjXgXuXw.    x O.i U.jXjXjXjXjXjXjXjXjXjXjXjXjXgXW   kXkXkX",
"kXkX    3.jXjXjXjXjXjXjXjXjXjXjXjXjXjXjXjXjXjXjXjXjXjXjXjXjXjXjXjXjXjXjXjXgX4XS     n x 8.jXjXjXjXjXjXjXjXjXjXjXjXjXjXW   kXkXkX",
"kXkX    6.jXjXjXjXjXjXjXjXjXjXjXjXjXjXjXjXjXjXjXjXjXjXjXjXjXjXjXjXjXjXjXjXjXjX*Xi     x 5 *XjXjXjXjXjXjXjXjXjXjXjXjXjX/   kXkXkX",
"kXkX    6.jXjXjXjXjXjXjXjXjXjXjXjXjXjXjXjXjXjXjXjXjXjXjXjXjXjXjXjXjXjXjXjXjXjXgXd.    x 0 9.gXgXjXjXjXjXjXjXjXjXjXjXjXW   kXkXkX",
"kXkX    6.jXjXjXjXjXjXjXjXjXjXjXjXjXjXjXjXjXjXjXjXjXjXjXjXjXjXjXjXjXjXjXjXjXjXjX2XQ * O.O.5 3XgXjXjXjXjXjXjXjXjXjXjXjXW   kXkXkX",
"kXkX    6.jXjXjXjXjXjXjXjXjXjXjXjXjXjXjXjXjXjXjXjXjXjXjXjXjXjXjXjXjXjXjXjXjXjXjX3XQ   c m - G.gXjXjXjXjXjXjXjXjXjXjXjXW   kXkXkX",
"kXkX    6.jXjXjXjXjXjXjXjXjXjXjXjXjXjXjXjXjXjXjXjXjXjXjXjXjXjXjXjXjXjXjXjXgX8X8Xx.5   7 0   y.gXjXjXjXjXjXjXjXjXjXjXjXW   kXkXkX",
"kXkX    6.jXjXjXjXjXjXjXjXjXjXjXjXjXjXjXjXjXjXjXjXjXjXjXjXjXjXjXjXjXjXgX2Xu.        7 7 7   / 8XjXjXjXjXjXjXjXjXjXjXjXW   kXkXkX",
"kXkXkX  6.jXjXjXjXjXjXjXjXjXjXjXjXjXjXjXjXjXjXjXjXjXjXjXjXjXjXjXjXjXjXgXw.          7 7 7   x *XjXjXjXjXjXjXjXjXjXjXjXW   kXkXkX",
"kXkXkX  6.jXjXjXjXjXjXjXjXjXjXjXjXjXjXjXjXjXjXjXjXjXjXjXjXjXjXjXjXjXjXuX;.        & & 7 7 &   B.jXjXjXjXjXjXjXjXjXjXjXW   kXkXkX",
"kXkXkX  3.jXjXjXjXjXjXjXjXjXjXjXjXjXjXjXjXjXjXjXjXjXjXjXjXjXjXjXjXjXjXjX6.        7 7 m x   5 1.gXjXjXjXjXjXjXjXjXjXjXW   kXkXkX",
"kXkXkX  6.jXjXjXjXjXjXjXjXjXjXjXjXjXjXjXjXjXjXjXjXjXjXjXjXjXjXjXjXjXjXgXz.    7 & x O.=.m   * 7 iXgXjXjXjXjXjXjXjXjXjXW   kXkXkX",
"kXkXkX  3.jXjXjXjXjXjXjXjXjXjXjXjXjXjXjXjXjXjXjXjXjXjXjXjXjXjXjXjXjXjXjXXX    m   &.-.+.x &   7 U.gXjXjXjXjXjXjXjXjXjXW   kXkXkX",
"kXkXkX  7.jXjXjXjXjXjXjXjXjXjXjXjXjXjXjXjXjXjXjXjXjXjXjXjXjXjXjXjXjXjXjXgXS   x m 7 0 7 &   & 7 h.jXjXjXjXjXjXjXjXjXjXW   kXkXkX",
"kXkXkX  3.jXjXjXjXjXjXjXjXjXjXjXjXjXjXjXjXjXjXjXjXjXjXjXjXjXjXjXjXjXjXjXgXG.    x &           7 XXjXjXjXjXjXjXjXjXjXjXW   kXkXkX",
"kXkXkX  3.jXjXjXjXjXjXjXjXjXjXjXjXjXjXjXjXjXjXjXjXjXjXjXjXjXjXjXjXjXjXjXjXiXQ               g G.jXjXjXjXjXjXjXjXjXjXjXW   kXkXkX",
"kXkXkX  6.jXjXjXjXjXjXjXjXjXjXjXjXjXjXjXjXjXjXjXjXjXjXjXjXjXjXjXjXjXjXjXjXgXm.5           i E.gXjXjXjXjXjXjXjXjXjXjXjXW   kXkXkX",
"kXkXkX  6.gXjXjXjXjXjXjXjXjXjXjXjXjXjXjXjXjXjXjXjXjXjXjXjXjXjXjXjXjXjXjXjXgX8XL 7       5 B.gXjXjXjXjXjXjXjXjXjXjXjXjXW   kXkXkX",
"kXkXkX  3.jXjXjXjXjXjXjXjXjXjXjXjXjXjXjXjXjXjXjXjXjXjXjXjXjXjXjXjXjXjXjXjXjXgX@XS   * / /.jXjXjXjXjXjXjXjXjXjXjXjXjXjXL   kXkXkX",
"kXkXkX  3.jXjXjXjXjXjXjXjXjXjXjXjXjXjXjXjXjXjXjXjXjXjXjXjXjXjXjXjXjXjXjXjXjXjXgX#XB.E.*XgXgXjXjXjXjXjXjXjXjXjXjXjXjXjXL   kXkXkX",
"kXkXkX  ;.jXjXjXjXjXjXjXjXjXjXjXjXjXjXjXjXjXjXjXjXjXjXjXjXjXjXjXjXjXjXjXjXjXjXjXjXjXjXjXjXjXjXjXjXjXjXjXjXjXjXjXjXjXjXS   kXkXkX",
"kXkXkX  / jXjXjXjXjXjXjXjXjXjXjXjXjXjXjXjXjXjXjXjXjXjXjXjXjXjXjXjXjXjXjXjXjXjXjXjXjXjXjXjXjXjXjXjXjXjXjXjXjXjXjXjXjXgXi   kXkXkX",
"kXkXkX  V gXjXjXjXjXjXjXjXjXjXjXjXjXjXjXjXjXjXjXjXjXjXjXjXjXjXjXjXjXjXjXjXjXjXjXjXjXjXjXjXjXjXjXjXjXjXjXjXjXjXjXjXjXiX    kXkXkX",
"kXkXkX    >XjXjXjXjXjXjXjXjXjXjXjXjXjXjXjXjXjXjXjXjXjXgXjXjXjXjXjXjXjXjXjXjXjXjXjXjXjXjXjXjXjXjXjXjXjXgXjXjXjXjXjXgXR.    kXkXkX",
"kXkXkX    6.iXgXjXjXjXjXjXjXjXjXjXjXjXjXjXjXjXgXjXjXjXgXjXjXjXgXjXjXjXgXjXjXjXjXjXjXjXjXjXjXjXgXjXjXjXgXjXjXjXgXgX4X/     kXkXkX",
"kXkXkXkX    / m./.@X@XXX@XXX@XXXXXXX@XXX@XXX@XXX#XXXXX@X#XXX@XXX@XXXXX@XXXXX#XXXXXXX@XXX@XXX@XXX#XXXXX@X@XXXXX/.g.L     kXkXkXkX",
"kXkXkXkX                                                                                                                kXkXkXkX",
"kXkXkXkXkXkX                                                                                                        kXkXkXkXkXkX",
"kXkXkXkXkXkXkXkXkXkXkXkXkXkXkXkXkXkXkXkXkXkXkXkXkXkXkXkXkXkXkXkXkXkXkXkXkXkXkXkXkXkXkXkXkXkXkXkXkXkXkXkXkXkXkXkXkXkXkXkXkXkXkXkX",
"kXkXkXkXkXkXkXkXkXkXkXkXkXkXkXkXkXkXkXkXkXkXkXkXkXkXkXkXkXkXkXkXkXkXkXkXkXkXkXkXkXkXkXkXkXkXkXkXkXkXkXkXkXkXkXkXkXkXkXkXkXkXkXkX",
"kXkXkXkXkXkXkXkXkXkXkXkXkXkXkXkXkXkXkXkXkXkXkXkXkXkXkXkXkXkXkXkXkXkXkXkXkXkXkXkXkXkXkXkXkXkXkXkXkXkXkXkXkXkXkXkXkXkXkXkXkXkXkXkX"
};
