/* XPM */
static char *radar_luigi[] = {
/* columns rows colors chars-per-pixel */
"64 64 55 1 ",
"  c #090F0E",
". c #0F100C",
"X c #081618",
"o c #1F1E15",
"O c #202016",
"+ c #222218",
"@ c #27251A",
"# c #28271B",
"$ c #2B2A1D",
"% c #2C2A1D",
"& c #2E2D1F",
"* c #071D22",
"= c #091D22",
"- c #091E22",
"; c #002431",
": c #002D3C",
"> c #012D3C",
", c #514F36",
"< c #5B593D",
"1 c #00374B",
"2 c #00394C",
"3 c #004C67",
"4 c #615F41",
"5 c #9E996A",
"6 c #A6A270",
"7 c #A8A371",
"8 c #B8B37C",
"9 c #BCB77F",
"0 c #006B90",
"q c #006C91",
"w c #006F95",
"e c #0082AD",
"r c #0086B3",
"t c #0086B4",
"y c #0087B4",
"u c #0087B5",
"i c #0089B7",
"p c #0089B8",
"a c #008BBA",
"s c #008DBC",
"d c #008FBF",
"f c #0090C1",
"g c #0091C2",
"h c #0091C3",
"j c #0092C2",
"k c #0092C3",
"l c #0091C4",
"z c #0092C4",
"x c #C3BD83",
"c c #D1CC8D",
"v c #DBD593",
"b c #E2DB98",
"n c #E3DD99",
"m c #FFF8AC",
"M c None",
/* pixels */
"MMMMMMMMMMMMMMMMMMMMMMMMMMMMMMMMMMMMMMMMMMMMMMMMMMMMMMMMMMMMMMMM",
"MMMMgzggkzkkkkkkkkkkkkkkkkkkkkkkkkkkkkkkkkkkkkkkkkkkkkkkzggkMMMM",
"MMggkkkkkkkkkkkkkkkkkkkkkkkkkkkkkkkkkkkkkkkkkkkkkkkkkkkkkkkzkgMM",
"MMgzkkkkkkkkkkkkkkkkkkkkkkkkkkkkkkkkkkkkkkkkkkkkkkkkkkkkkkkkkkMM",
"MMkkkkkkkkggkggkggkkggggkkggkkkkkkkkkkkkkkkkkkkkkkkkkkkkkkkkkzzM",
"MgkkkkkkgsyyiyyiyyyyiyiyyiydkkkkkkkkkkkkkkkkkkkkkkkkkkkkkkkkkkgM",
"Mgzkkkkks2O%%%%%%%%%%%$%%%.3gkkkkkkkkkkkkkkkkkkkkkkkkkkkkkkkkkzM",
"Mggzkkkkr;6bbbbbbbbbbbbnbb,:gkkkkkkkkkkkkkkkkkkkkkkkkkkkkkkkkzgM",
"Mkkkkkkkr;9mmmmmmmmmmmmmmm<:gkkkkkkkkkkkkkkkkkkkkkkkkkkkkkkkkkkM",
"Mgkkkkkkr;9mmmmmmmmmmmmmmm<:gkkkkkkkkkkkkkkkkkkkkkkkkkkkkkkkkkkM",
"Mkkkkkkkr;9mmmmmmmmmmmmmmm<:gkkkkkkkkkkkkkkkkkkkkkkkkkkkkkkkkkgM",
"Mgkkkkkkr;9mmmmmmmmmmmmmmm<:gkkkkkkkkkkkkkkkkkkkkkkkkkkkkkkkkkkM",
"Mkkkkkkkr;9mmmmmmmmmmmmmmm<:gkkkkkkkkkkkkkkkkkkkkkkkkkkkkkkkkkgM",
"Mkkkkkkkr;9mmmmmmmmmmmmmmm<:gkkkkkkkkkkkkkkkkkkkkkkkkkkkkkkkkkgM",
"Mkkkkkkgr;9mmmmmmmmmmmmmmm<:gkkkkkkkkkkkkkkkkkkkkkkkkkkkkkkkkkgM",
"Mkkkkkkgr;9mmmmmmmmmmmmmmm<:gkkkkkkkkkkkkkkkkkkkkkkkkkkkkkkkkkgM",
"Mkkkkkkkr;9mmmmmmmmmmmmmmm<:gkkkkkkkkkkkkkkkkkkkkkkkkkkkkkkkkkgM",
"Mkkkkkkkr;9mmmmmmmmmmmmmmm<:gkkkkkkkkkkkkkkkkkkkkkkkkkkkkkkkkkgM",
"Mkkkkkkkr;9mmmmmmmmmmmmmmm<:gkkkkkkkkkkkkkkkkkkkkkkkkkkkkkkkkkgM",
"Mkkkkkkkr;9mmmmmmmmmmmmmmm<:gkkkkkkkkkkkkkkkkkkkkkkkkkkkkkkkkkgM",
"Mkkkkkkkr;9mmmmmmmmmmmmmmm<:gkkkkkkkkkkkkkkkkkkkkkkkkkkkkkkkkkgM",
"Mkkkkkkkr;9mmmmmmmmmmmmmmm<:gkkkkkkkkkkkkkkkkkkkkkkkkkkkkkkkkkgM",
"Mkkkkkkkr;9mmmmmmmmmmmmmmm<:gkkkkkkkkkkkkkkkkkkkkkkkkkkkkkkkkkgM",
"Mkkkkkkkr;9mmmmmmmmmmmmmmm<:gkkkkkkkkkkkkkkkkkkkkkkkkkkkkkkkkkgM",
"Mkkkkkkky;9mmmmmmmmmmmmmmm<:gkkkkkkkkkkkkkkkkkkkkkkkkkkkkkkkkkgM",
"Mkkkkkkkr;9mmmmmmmmmmmmmmm<:gkkkkkkkkkkkkkkkkkkkkkkkkkkkkkkkkkgM",
"Mkkkkkkkr;9mmmmmmmmmmmmmmm<:gkkkkkkkkkkkkkkkkkkkkkkkkkkkkkkkkkgM",
"Mkkkkkkkr;9mmmmmmmmmmmmmmm<:gkkkkkkkkkkkkkkkkkkkkkkkkkkkkkkkkkgM",
"Mkkkkkkkr;9mmmmmmmmmmmmmmm<:ggkkkkkkkkkkkkkkkkkkkkkkkkkkkkkkkkgM",
"Mkkkkkkkr;9mmmmmmmmmmmmmmm<:gkkkkkkkkkkkkkkkkkkkkkkkkkkkkkkkkkgM",
"Mkkkkkkkr;9mmmmmmmmmmmmmmm<:gkkkkkkkkkkkkkkkkkkkkkkkkkkkkkkkkkgM",
"Mkkkkkkkr;9mmmmmmmmmmmmmmm<:gkkkkkkkkkkkkkkkkkkkkkkkkkkkkkkkkkgM",
"Mkkkkkkkr;9mmmmmmmmmmmmmmm<:gkkkkkkkkkkkkkkkkkkkkkkkkkkkkkkkkkgM",
"Mkkkkkkkr;9mmmmmmmmmmmmmmm<:gkkkkkkkkkkkkkkkkkkkkkkkkkkkkkkkkkgM",
"Mkkkkkkkr;9mmmmmmmmmmmmmmm<:gkkkkkkkkkkkkkkkkkkkkkkkkkkkkkkkkkgM",
"Mkkkkkkkr;9mmmmmmmmmmmmmmm<:gkkkkkkkkkkkkkkkkkkkkkkkkkkkkkkkkkgM",
"Mkkkkkkkr;9mmmmmmmmmmmmmmm<:gkkkkkkkkkkkkkkkkkkkkkkkkkkkkkkkkkgM",
"Mkkkkkkkr;9mmmmmmmmmmmmmmm<:gkkkkkkkkkkkkkkkkkkkkkkkkkkkkkkkkkgM",
"Mkkkkkkkr;9mmmmmmmmmmmmmmm<:gkkkkkkkkkkkkkkkkkkkkkkkkkkkkkkkkkgM",
"Mkkkkkkgr;9mmmmmmmmmmmmmmm<:gkkkkkkkkkkkkkkkkkkkkkkkkkkkkkkkkkgM",
"Mkkkkkkkr;9mmmmmmmmmmmmmmm<:gzzkkkkkkkkkkkkkkkkkkkkkkkkkkkkkkkgM",
"Mkkkkkkkr;9mmmmmmmmmmmmmmm<:gzgzkkkkkkkkkkkkkkkkkkkkkkkkkkkkkkgM",
"Mkkkkkkkr;9mmmmmmmmmmmmmmm<:ggzgkkkkkkkkkkkkkkkkkkgzkkkkkkkkkkgM",
"Mkkkkkkkr;9mmmmmmmmmmmmmmm4.------------------------:ikkkkkkkkgM",
"Mkkkkkkkr;9mmmmmmmmmmmmmmmc8888888888888888888888885owgkkkkkkkgM",
"Mkkkkkkkr;9mmmmmmmmmmmmmmmmmmmmmmmmmmmmmmmmmmmmmmmmv$0kkkkkkkkgM",
"Mkkkkkkkr;9mmmmmmmmmmmmmmmmmmmmmmmmmmmmmmmmmmmmmmmmv$0kkkkkkkkgM",
"Mkkkkkkky;9mmmmmmmmmmmmmmmmmmmmmmmmmmmmmmmmmmmmmmmmv$qkkkkkkkkgM",
"Mkkkkkkky;9mmmmmmmmmmmmmmmmmmmmmmmmmmmmmmmmmmmmmmmmv$0gkkkkkkkgM",
"Mkkkkkkkr;9mmmmmmmmmmmmmmmmmmmmmmmmmmmmmmmmmmmmmmmmv$0kkkkkkkkgM",
"Mkkkkkkkr;9mmmmmmmmmmmmmmmmmmmmmmmmmmmmmmmmmmmmmmmmv$0kkkkkkkkgM",
"Mkkkkkkkr;9mmmmmmmmmmmmmmmmmmmmmmmmmmmmmmmmmmmmmmmmv$qkkkkkkkkgM",
"Mkkkkkkkr;9mmmmmmmmmmmmmmmmmmmmmmmmmmmmmmmmmmmmmmmmv$qkkkkkkkkkM",
"Mkkkkkkkr;9mmmmmmmmmmmmmmmmmmmmmmmmmmmmmmmmmmmmmmmmv$0kkkkkkkkkM",
"Mkkkkkkkr;9mmmmmmmmmmmmmmmmmmmmmmmmmmmmmmmmmmmmmmmmv$0gkkkkkkkgM",
"Mgkkkkkkr;9mmmmmmmmmmmmmmmmmmmmmmmmmmmmmmmmmmmmmmmmv$0kkkkkkkzgM",
"Mgkkkkkkr;7nnnnnnnnnnnnnnnnnnnnnnnnnnnnnnnnnnnnnnnnx@qkkkkkkkkgM",
"Mgkkkkkkp2+&&&&&&&&&&&&&&&&&&&&&&&&&&&&&&&&&&&&&&&&#XekkkkkkkkkM",
"MzzkkkkkgsirrittirrirtttttttrrirtirtrittirrirtttrrirpgkkkkkkkkkM",
"MMgkkkkkgzgggkzggggkgzgzzgzgzgkkgzgggkzggggkgzgzzgkkkkkkkkkkkkMM",
"MMgkkkkkkkkkggzkkkkkkkkkkkkkkkkkkkkkggzkkkkkkkkkgzgzkkkkkkkkkgMM",
"MMMgkkkkggggggggggggggggggggggggggggggggggggggggggggggggkkkkkMMM",
"MMMMMMMMMMMMMMMMMMMMMMMMMMMMMMMMMMMMMMMMMMMMMMMMMMMMMMMMMMMMMMMM",
"MMMMMMMMMMMMMMMMMMMMMMMMMMMMMMMMMMMMMMMMMMMMMMMMMMMMMMMMMMMMMMMM"
};
