/* XPM */
static char *radar_ray[] = {
/* columns rows colors chars-per-pixel */
"64 64 102 2 ",
"   c #020505",
".  c #060807",
"X  c #050B0C",
"o  c #090B08",
"O  c #15150F",
"+  c #000C11",
"@  c #011116",
"#  c #0E1616",
"$  c #02141B",
"%  c #0A1618",
"&  c #0D1C1E",
"*  c #141610",
"=  c #151814",
"-  c #1B1D15",
";  c #1A1E18",
":  c #19221E",
">  c #24251B",
",  c #2D2B1E",
"<  c #021A21",
"1  c #001F29",
"2  c #02242F",
"3  c #002632",
"4  c #002937",
"5  c #002C3B",
"6  c #2C2E21",
"7  c #2C3025",
"8  c #343324",
"9  c #3A3727",
"0  c #3E3C29",
"q  c #413F2B",
"w  c #42402C",
"e  c #474732",
"r  c #4D4B33",
"t  c #515036",
"y  c #555339",
"u  c #5C593D",
"i  c #003445",
"p  c #003649",
"a  c #003A4E",
"s  c #003D52",
"d  c #004156",
"f  c #00445B",
"g  c #004C66",
"h  c #004E68",
"j  c #00516D",
"k  c #005773",
"l  c #005D7D",
"z  c #615E41",
"x  c #646143",
"c  c #6D6B49",
"v  c #76724F",
"b  c #797652",
"n  c #7E7B55",
"m  c #86825A",
"M  c #89855C",
"N  c #8C885E",
"B  c #8F8B60",
"V  c #938E63",
"C  c #989466",
"Z  c #9B9768",
"A  c #9D9869",
"S  c #A19D6D",
"D  c #A6A16F",
"F  c #A6A170",
"G  c #ABA673",
"H  c #AFAA76",
"J  c #B1AC77",
"K  c #BAB57D",
"L  c #BEB97F",
"P  c #006284",
"I  c #00678B",
"U  c #006A8E",
"Y  c #006E93",
"T  c #007096",
"R  c #00759C",
"E  c #007BA5",
"W  c #007DA8",
"Q  c #0082AE",
"!  c #0086B4",
"~  c #0088B6",
"^  c #008DBC",
"/  c #008FC0",
"(  c #0092C3",
")  c #C1BB82",
"_  c #C7C186",
"`  c #C9C487",
"'  c #CCC689",
"]  c #D1CB8C",
"[  c #D7D191",
"{  c #DBD493",
"}  c #DFD896",
"|  c #E0DA97",
" . c #E3DC99",
".. c #EDE79F",
"X. c #EDE6A0",
"o. c #EEE8A0",
"O. c #F3ECA3",
"+. c #F6F0A6",
"@. c #F8F1A7",
"#. c #FDF6AA",
"$. c #FFF8AC",
"%. c None",
/* pixels */
"%.%.%.%.%.%.%.%.%.%.%.%.%.%.%.%.%.%.%.%.%.%.%.%.%.%.%.%.%.%.%.%.%.%.%.%.%.%.%.%.%.%.%.%.%.%.%.%.%.%.%.%.%.%.%.%.%.%.%.%.%.%.%.%.",
"%.%.%.%.( ( ( ( ( ( ( ( ( ( ( ( ( ( ( ( ( ( ( ( ( ( ( ( ( ( ( ( ( ( ( ( ( ( ( ( ( ( ( ( ( ( ( ( ( ( ( ( ( ( ( ( ( ( ( ( %.%.%.%.",
"%.%.( ( ( ( ( ( ( ( ( ( ( ( ( ( ( ( ( ( ( ( ( ( ( ( ( ( ( ( ( ( ( ( ( ( ( ( ( ( ( ( ( ( ( ( ( ( ( ( ( ( ( ( ( ( ( ( ( ( ( ( %.%.",
"%.%.( ( ( ( ( ( ( ( ( ( ( ( ( ( ( ( ( ( ( ( ( ( ( ( ( ( ( ( ( ( ( ( ( ( ( ( ( ( ( ( ( ( ( ( ( ( ( ( ( ( ( ( ( ( ( ( ( ( ( ( %.%.",
"%.%.( ( ( ( ( ( ( ( ( ( ( ( ( ( ^ ( ( ( ( ( ( ( ( ( ( ( ( ( ( ( ( ( ( ( ( ( ( ( ( ( ( ( ( ( ( ( ( ( ( ( ( ( ( ( ( ( ( ( ( ( ( %.",
"%.( ( ( ( ^ ! ! ! ! ! ! ~ ~ ! ! ! ! ~ ! ! ! ! ! ~ ~ ! ! ! ! ! ! ! ! ! ! ~ ~ ~ ~ ^ ^ ^ ( ( ( ( ( ( ( ( ( ( ( ( ( ( ( ( ( ( ( ( %.",
"%.( ( ( ( s = , , , , , , , , , , , , , , , , , , , , , , , , , , , , , , , > : < 5 d l W ( ( ( ( ( ( ( ( ( ( ( ( ( ( ( ( ( ( %.",
"%.( ( ( ( < b  .| |  .| |  .| |  . .| | | |  .| |  .| |  .| |  .| | | | |  .| { ' D x : @ p E ( ( ( ( ( ( ( ( ( ( ( ( ( ( ( ( %.",
"%.( ( ( ( < M $.$.$.$.$.$.$.$.$.$.$.$.$.$.$.$.$.$.$.$.$.$.$.$.$.$.$.$.$.$.$.$.$.$.$.$.O.F 8 # h ! ( ( ( ( ( ( ( ( ( ( ( ( ( ( %.",
"%.( ( ( ( < M $.$.$.$.$.$.$.$.$.$.$.$.$.$.$.$.$.$.$.$.$.$.$.$.$.$.$.$.$.$.$.$.$.$.$.$.$.$.+.G 9 2 Y ( ( ( ( ( ( ( ( ( ( ( ( ( %.",
"%.( ( ( ( < M $.$.$.$.$.$.$.$.$.$.$.$.$.$.$.$.$.$.$.$.$.$.$.$.$.$.$.$.$.$.$.$.$.$.$.$.$.$.$.$.O.x + T ( ( ( ( ( ( ( ( ( ( ( ( %.",
"%.( ( ( ( < M $.$.$.$.$.$.$.$.$.$.$.$.$.$.$.$.$.$.$.$.$.$.$.$.$.$.$.$.$.$.$.$.$.$.$.$.$.$.$.$.$.+.b X Y ( ( ( ( ( ( ( ( ( ( ( %.",
"%.( ( ( ( < M $.$.$.$.$.$.$.$.$.$.$.$.$.$.$.$.$.$.$.$.$.$.$.$.$.$.$.$.$.$.$.$.$.$.$.$.$.$.$.$.$.$.O.b < E ( ( ( ( ( ( ( ( ( ( %.",
"%.( ( ( ( < M $.$.$.$.$.$.$.$.$.$.$.$.$.$.$.$.$.$.$.$.$.$.$.$.$.$.$.$.$.$.$.$.$.$.$.$.$.$.$.$.$.$.$.$.e s ( ( ( ( ( ( ( ( ( ( %.",
"%.( ( ( ( < M $.$.$.$.$.$.$.$.$.$.$.$.$.$.$.$.$.$.$.$.$.$.$.$.$.$.$.$.$.$.$.$.$.$.$.$.$.$.$.$.$.$.$.$.) ; T ( ( ( ( ( ( ( ( ( %.",
"%.( ( ( ( < M $.$.$.$.$.$.$.$.$.$.$.$.$.$.$.$.$.$.$.$.$.$.$.$.$.$.$.$.$.$.$.$.$.$.$.$.$.$.$.$.$.$.$.$.#.z 3 ( ( ( ( ( ( ( ( ( %.",
"%.( ( ( ( < M $.$.$.$.$.$.$.$.$.$.$.$.$.$.$.$.$.$.$.$.$.$.$.$.$.$.$.$.$.$.$.$.$.$.$.$.$.$.$.$.$.$.$.$.$.L   Y ( ( ( ( ( ( ( ( %.",
"%.( ( ( ( < M $.$.$.$.$.$.$.$.$.$.$.$.$.$.$.$.$.$.$.$.$.$.$.$.#.$.$.$.$.$.$.$.$.$.$.$.$.$.$.$.$.$.$.$.$.@.> h ( ( ( ( ( ( ( ( %.",
"%.( ( ( ( < M $.$.$.$.$.$.$.$.$.$.$.$.$.$.$.K z z z z x z z z z z v G #.$.$.$.$.$.$.$.$.$.$.$.$.$.$.$.$.$.c i ~ ( ( ( ( ( ( ( %.",
"%.( ( ( ( < M $.$.$.$.$.$.$.$.$.$.$.$.$.$.$.B @ 5 5 5 5 5 5 5 5 5 5 < 0 ] $.$.$.$.$.$.$.$.$.$.$.$.$.$.$.$.L 3 ! ( ( ( ( ( ( ( %.",
"%.( ( ( ( < M $.$.$.$.$.$.$.$.$.$.$.$.$.$.$.B p ( ( ^ ( ( ^ ( ( ( ^ W i w $.$.$.$.$.$.$.$.$.$.$.$.$.$.$.$.| < Q ( ( ( ( ( ( ( %.",
"%.( ( ( ( < M $.$.$.$.$.$.$.$.$.$.$.$.$.$.$.B p ( ( ( ( ( ( ( ( ( ( ( W $ K $.$.$.$.$.$.$.$.$.$.$.$.$.$.#.O.@ E ( ( ( ( ( ( ( %.",
"%.( ( ( ( < M $.$.$.$.$.$.$.$.$.$.$.$.$.$.$.B p ( ( ( ( ( ( ( ( ( ( ( ^ 5 m $.$.$.$.$.$.$.$.$.$.$.$.$.$.$.O.% W ( ( ( ( ( ( ( %.",
"%.( ( ( ( < M $.$.$.$.$.$.$.$.$.$.$.$.$.$.$.B p ( ( ( ( ( ( ( ( ( ( ( ( 5 M $.$.$.$.$.$.$.$.$.$.$.$.$.$.$...+ W ( ( ( ( ( ( ( %.",
"%.( ( ( ( < N $.$.$.$.$.$.$.$.$.$.$.$.$.$.$.B p ( ( ( ( ( ( ( ( ( ( ( E @ H $.$.$.$.$.$.$.$.$.$.$.$.$.$.$.[ 1 Q ( ( ( ( ( ( ( %.",
"%.( ( ( ( < M $.$.$.$.$.$.$.$.$.$.$.$.$.$.$.B p ( ( ( ( ( ( ( ( ( ( ! a e #.$.$.$.$.$.$.$.$.$.$.$.$.$.$.$.Z 4 ! ( ( ( ( ( ( ( %.",
"%.( ( ( ( < M $.$.$.$.$.$.$.$.$.$.$.$.$.$.$.N 1 h h h h g g h g h p X 6 { $.$.$.$.$.$.$.$.$.$.$.$.$.$.$.$.t d ( ( ( ( ( ( ( ( %.",
"%.( ( ( ( < M $.$.$.$.$.$.$.$.$.$.$.$.$.$.#.J r r r r r r r r r r r B  .$.$.$.$.$.$.$.$.$.$.$.$.$.$.$.$. .  l ( ( ( ( ( ( ( ( %.",
"%.( ( ( ( < M $.$.$.$.$.$.$.$.$.$.$.$.$.$.$.#.#.#.#.#.#.#.#.#.#.#.#.$.$.$.$.$.$.$.$.$.$.$.$.$.$.$.$.$.$.m + ! ( ( ( ( ( ( ( ( %.",
"%.( ( ( ( < M $.$.$.$.$.$.$.$.$.$.$.$.$.$.$.$.$.#.#.$.$.$.#.$.$.$.$.$.$.$.$.$.$.$.$.$.$.$.$.$.$.$.$.$.} 8 j ( ( ( ( ( ( ( ( ( %.",
"%.( ( ( ( < N $.$.$.$.$.$.$.$.$.$.$.$.$.$.$.$.$.#.$.$.$.$.$.$.$.$.$.$.$.$.$.$.$.$.$.$.$.$.$.$.$.$.$.$.m 2 ^ ( ( ( ( ( ( ( ( ( %.",
"%.( ( ( ( < M $.$.$.$.$.$.$.$.$.$.$.$.$.$.$.$.$.$.$.$.$.$.$.$.$.$.$.$.$.$.$.$.$.$.$.$.$.$.$.$.$.$.$.K # I ( ( ( ( ( ( ( ( ( ( %.",
"%.( ( ( ( < M $.$.$.$.$.$.$.$.$.$.$.$.$.$.$.$.$.$.$.$.$.$.$.$.$.$.$.$.$.$.$.$.$.$.$.$.$.$.$.$.$.#.K o f ( ( ( ( ( ( ( ( ( ( ( %.",
"%.( ( ( ( < M $.$.$.$.$.$.$.$.$.$.$.$.$.$.$.$.$.$.$.$.$.$.$.$.$.$.$.$.$.$.$.$.$.$.$.$.$.$.$.$.#.D > f ~ ( ( ( ( ( ( ( ( ( ( ( %.",
"%.( ( ( ( < M $.$.$.$.$.$.$.$.$.$.$.$.$.$.$.$.$.$.$.$.$.$.$.$.$.$.$.$.$.$.$.$.$.$.$.$.$.$.$.O.x X j ( ( ( ( ( ( ( ( ( ( ( ( ( %.",
"%.( ( ( ( < M $.$.$.$.$.$.$.$.$.$.$.$.$.$.$.$.$.$.$.$.$.$.$.$.$.$.$.$.$.$.$.$.$.$.$.$.#.{ S 7 2 P ( ( ( ( ( ( ( ( ( ( ( ( ( ( %.",
"%.( ( ( ( < N $.$.$.$.$.$.$.$.$.$.$.$.$.$.$.$.$.$.$.$.$.$.$.$.$.$.$.$.$.$.$.$.$.$.$.$.#.m   j Q ( ( ( ( ( ( ( ( ( ( ( ( ( ( ( %.",
"%.( ( ( ( < M $.$.$.$.$.$.$.$.$.$.$.$.$.$.$.$.$.$.$.$.$.$.$.$.$.$.$.$.$.$.$.$.$.$.$.$.$. .. k ( ( ( ( ( ( ( ( ( ( ( ( ( ( ( ( %.",
"%.( ( ( ( < M $.$.$.$.$.$.$.$.$.$.$.$.$.$.$. .) ) ) ) L } $.$.$.$.$.$.$.$.$.$.$.$.$.$.$.#.V 2 ! ( ( ( ( ( ( ( ( ( ( ( ( ( ( ( %.",
"%.( ( ( ( < M $.$.$.$.$.$.$.$.$.$.$.$.$.$.$.Z O O * O O r $.$.$.$.$.$.$.$.$.$.$.$.$.$.$.#.O.8 l ( ( ( ( ( ( ( ( ( ( ( ( ( ( ( %.",
"%.( ( ( ( < N $.$.$.$.$.$.$.$.$.$.$.$.$.$.$.N p ( ( ( E @ ) $.$.$.$.$.$.$.$.$.$.$.$.$.$.$.#.V $ ~ ( ( ( ( ( ( ( ( ( ( ( ( ( ( %.",
"%.( ( ( ( < M $.$.$.$.$.$.$.$.$.$.$.$.$.$.$.B p ( ( ( ^ a 8 O.#.$.$.$.$.$.$.$.$.$.$.$.$.$.$. ., f ( ( ( ( ( ( ( ( ( ( ( ( ( ( %.",
"%.( ( ( ( < M $.$.$.$.$.$.$.$.$.$.$.$.$.$.$.B p ( ( ( ( E . G #.$.$.$.$.$.$.$.$.$.$.$.$.$.$.#.A @ E ( ( ( ( ( ( ( ( ( ( ( ( ( %.",
"%.( ( ( ( < M $.$.$.$.$.$.$.$.$.$.$.$.$.$.$.B p ( ( ( ( ( a y O.$.$.$.$.$.$.$.$.$.$.$.$.$.$.$.#.8 g ( ( ( ( ( ( ( ( ( ( ( ( ( %.",
"%.( ( ( ( < M $.$.$.$.$.$.$.$.$.$.$.$.$.$.$.B p ( ( ( ( ( Q & ` $.$.$.$.$.$.$.$.$.$.$.$.$.$.$.$.K & ! ( ( ( ( ( ( ( ( ( ( ( ( %.",
"%.( ( ( ( < M $.$.$.$.$.$.$.$.$.$.$.$.$.$.$.B p ( ( ( ( ( ( d t #.$.$.$.$.$.$.$.$.$.$.$.$.$.$.$.o.r a / ( ( ( ( ( ( ( ( ( ( ( %.",
"%.( ( ( ( < M $.$.$.$.$.$.$.$.$.$.$.$.$.$.$.B p ( ( ( ( ( ( Y + ` $.$.$.$.$.$.$.$.$.$.$.$.$.$.$.#.G o Y ( ( ( ( ( ( ( ( ( ( ( %.",
"%.( ( ( ( < M $.$.$.$.$.$.$.$.$.$.$.$.$.$.$.B p ( ( ( ( ( ( ^ i q #.$.$.$.$.$.$.$.$.$.$.$.$.$.$.$.O.q i ^ ( ( ( ( ( ( ( ( ( ( %.",
"%.( ( ( ( < N $.$.$.$.$.$.$.$.$.$.$.$.$.$.$.B p ( ( ( ( ( ( ( E * K $.$.$.$.$.$.$.$.$.$.$.$.$.$.$.$.[ % Y ( ( ( ( ( ( ( ( ( ( %.",
"%.( ( ( ( < M $.$.$.$.$.$.$.$.$.$.$.$.$.$.$.B p ( ( ( ( ( ( ( ( i x #.$.$.$.$.$.$.$.$.$.$.$.$.$.$.$.$.c i ( ( ( ( ( ( ( ( ( ( %.",
"%.( ( ( ( < M $.$.$.$.$.$.$.$.$.$.$.$.$.$.$.B p ( ( ( ( ( ( ( ( R + ..$.$.$.$.$.$.$.$.$.$.$.$.$.$.$.$.` - R ( ( ( ( ( ( ( ( ( %.",
"%.( ( ( ( < M $.$.$.$.$.$.$.$.$.$.$.$.$.$.$.B p ( ( ( ( ( ( ( ( ~ i y #.$.$.$.$.$.$.$.$.$.$.$.$.$.$.$.#.x 1 ~ ( ( ( ( ( ( ( ( %.",
"%.( ( ( ( < M $.$.$.$.$.$.$.$.$.$.$.$.$.$.$.B p ( ( ( ( ( ( ( ( ( P X _ $.$.$.$.$.$.$.$.$.$.$.$.$.$.$.$.[ X k ( ( ( ( ( ( ( ( %.",
"%.( ( ( ( < M $.$.$.$.$.$.$.$.$.$.$.$.$.$.$.B p ( ( ( ( ( ( ( ( ( ( < y #.$.$.$.$.$.$.$.$.$.$.$.$.$.$.$.#.n 3 ! ( ( ( ( ( ( ( %.",
"%.( ( ( ( < N $.$.$.$.$.$.$.$.$.$.$.$.$.$.$.B p ( ( ( ( ( ( ( ( ( ( Y ; ' $.$.$.$.$.$.$.$.$.$.$.$.$.$.$.$...6 P ( ( ( ( ( ( ( %.",
"%.( ( ( ( < M $.$.$.$.$.$.$.$.$.$.$.$.$.$.$.V p ( ( ( ( ( ( ( ( ( ( ( 5 n $.$.$.$.$.$.$.$.$.$.$.$.$.$.$.$.#.N $ ^ ( ( ( ( ( ( %.",
"%.( ( ( ( < n  . . . ...|  . . . . . . . . .n p ( ( ( ( ( ( ( ( ( ( ( Y = |  . . . . .|  . .|  . . . . . . .) - k ( ( ( ( ( ( %.",
"%.( ( ( ( a - , 6 , , , , , 6 6 , , 8 , , , - j ( ( ( ( ( ( ( ( ( ( ( ~ 5 > , 8 , , 8 , , , 8 , 8 , , , 8 , , o k ( ( ( ( ( ( %.",
"%.( ( ( ( ^ ~ ! ! ! ! ~ ! ! ! ! ! ! ! ! ! ! ~ ^ ( ( ( ( ( ( ( ( ( ( ( ( ^ ! ! ! ! ! ! ! ~ ! ! ! ! ! ! ! ! ! ! ! / ( ( ( ( ( ( %.",
"%.%.( ( ( ( ( ( ( ( ( ( ( ( ( ( ( ( ( ( ( ( ( ( ( ( ( ( ( ( ( ( ( ( ( ( ( ( ( ( ( ( ( ( ( ( ( ( ( ( ( ( ( ( ( ( ( ( ( ( ( ( %.%.",
"%.%.( ( ( ( ( ( ( ( ( ( ( ( ( ( ( ( ( ( ( ( ( ( ( ( ( ( ( ( ( ( ( ( ( ( ( ( ( ( ( ( ( ( ( ( ( ( ( ( ( ( ( ( ( ( ( ( ( ( ( ( %.%.",
"%.%.%.( ( ( ( ( ( ( ( ( ( ( ( ^ ( ( ( ( ( ( ( ( ( ( ( ( ( ( ( ( ( ( ( ( ( ( / ( ( ( ( ( ( ( ( ( ( ( ( / ( ( ( ( ( ( ( ( ( %.%.%.",
"%.%.%.%.%.%.%.%.%.%.%.%.%.%.%.%.%.%.%.%.%.%.%.%.%.%.%.%.%.%.%.%.%.%.%.%.%.%.%.%.%.%.%.%.%.%.%.%.%.%.%.%.%.%.%.%.%.%.%.%.%.%.%.%.",
"%.%.%.%.%.%.%.%.%.%.%.%.%.%.%.%.%.%.%.%.%.%.%.%.%.%.%.%.%.%.%.%.%.%.%.%.%.%.%.%.%.%.%.%.%.%.%.%.%.%.%.%.%.%.%.%.%.%.%.%.%.%.%.%."
};
