/* XPM */
static char *radar_eight[] = {
/* columns rows colors chars-per-pixel */
"64 64 238 2 ",
"   c #090907",
".  c #090A07",
"X  c #060C0D",
"o  c #050D0E",
"O  c #0C0C08",
"+  c #0D0C08",
"@  c #0E0E09",
"#  c #0F0E0A",
"$  c #0F0F0A",
"%  c #161610",
"&  c #1A1A12",
"*  c #1C1B12",
"=  c #1B1E17",
"-  c #1F1F15",
";  c #121A18",
":  c #161D19",
">  c #121C1C",
",  c #201F15",
"<  c #242317",
"1  c #212219",
"2  c #24251A",
"3  c #041F27",
"4  c #042029",
"5  c #1C2620",
"6  c #1A2724",
"7  c #012430",
"8  c #012531",
"9  c #002532",
"0  c #012734",
"q  c #012735",
"w  c #032833",
"e  c #032834",
"r  c #002A38",
"t  c #002A39",
"y  c #2A3026",
"u  c #2F3327",
"i  c #2F382E",
"p  c #2F392E",
"a  c #373625",
"s  c #3B3927",
"d  c #2F3930",
"f  c #413F2C",
"g  c #2F4037",
"h  c #3D4433",
"j  c #324239",
"k  c #354339",
"l  c #364439",
"z  c #46442F",
"x  c #494731",
"c  c #4A4831",
"v  c #4B4932",
"b  c #4C4F3A",
"n  c #51543E",
"m  c #55573E",
"M  c #56573F",
"N  c #5C5A3E",
"B  c #003244",
"V  c #043849",
"C  c #013A4E",
"Z  c #043B4C",
"A  c #093A48",
"S  c #013C50",
"D  c #043F51",
"F  c #17424A",
"G  c #17444C",
"H  c #004359",
"J  c #044458",
"K  c #00475F",
"L  c #06495D",
"P  c #06495E",
"I  c #194D57",
"U  c #1A4D56",
"Y  c #1B4D56",
"T  c #154D59",
"R  c #264341",
"E  c #244445",
"W  c #244546",
"Q  c #23484B",
"!  c #22494C",
"~  c #304740",
"^  c #214B50",
"/  c #004861",
"(  c #034A61",
")  c #004963",
"_  c #004B64",
"`  c #004D66",
"'  c #004C67",
"]  c #004D67",
"[  c #00506B",
"{  c #00516D",
"}  c #02526C",
"|  c #00536F",
" . c #005470",
".. c #005877",
"X. c #005B79",
"o. c #005B7A",
"O. c #005C7C",
"+. c #415042",
"@. c #615F42",
"#. c #636043",
"$. c #636143",
"%. c #646143",
"&. c #656244",
"*. c #666345",
"=. c #666445",
"-. c #676445",
";. c #686B4E",
":. c #726F4C",
">. c #74714E",
",. c #7A7652",
"<. c #7D7B55",
"1. c #7D7B56",
"2. c #7E7E59",
"3. c #84835C",
"4. c #86855D",
"5. c #8F8D62",
"6. c #999567",
"7. c #9A9667",
"8. c #A39E6D",
"9. c #A49F6E",
"0. c #A5A06F",
"q. c #A6A270",
"w. c #A7A270",
"e. c #ADA874",
"r. c #AFAA75",
"t. c #AFAB76",
"y. c #B0AB76",
"u. c #B0AC77",
"i. c #B1AC77",
"p. c #B2AD77",
"a. c #B4AF78",
"s. c #B4AF79",
"d. c #005F80",
"f. c #006081",
"g. c #006183",
"h. c #006384",
"j. c #006385",
"k. c #006486",
"l. c #006588",
"z. c #00678A",
"x. c #00688B",
"c. c #00698C",
"v. c #007096",
"b. c #007299",
"n. c #00749C",
"m. c #00759C",
"M. c #00759D",
"N. c #00769E",
"B. c #0078A1",
"V. c #007AA4",
"C. c #007CA6",
"Z. c #0081AD",
"A. c #0083AF",
"S. c #0084B1",
"D. c #0085B1",
"F. c #0085B2",
"G. c #0085B3",
"H. c #0087B4",
"J. c #0087B5",
"K. c #0088B6",
"L. c #0089B7",
"P. c #008AB9",
"I. c #008BBA",
"U. c #008BBB",
"Y. c #008CBB",
"T. c #008CBC",
"R. c #008DBC",
"E. c #008DBD",
"W. c #008EBE",
"Q. c #008FBF",
"!. c #008FC0",
"~. c #0090C0",
"^. c #0090C1",
"/. c #0091C1",
"(. c #0091C2",
"). c #0091C3",
"_. c #0092C2",
"`. c #0092C3",
"'. c #0091C4",
"]. c #0092C4",
"[. c #C0BB81",
"{. c #C4BF84",
"}. c #C5BF84",
"|. c #C6C085",
" X c #C7C186",
".X c #C8C287",
"XX c #CAC488",
"oX c #CCC68A",
"OX c #CFC98B",
"+X c #D0CA8C",
"@X c #D1CC8D",
"#X c #D2CC8E",
"$X c #D3CE8F",
"%X c #D4CE8E",
"&X c #D4CE8F",
"*X c #D5CF8F",
"=X c #D6D090",
"-X c #DBD593",
";X c #DBD594",
":X c #DED895",
">X c #DED896",
",X c #DFD896",
"<X c #DFD996",
"1X c #E1DB98",
"2X c #E2DC98",
"3X c #E2DC99",
"4X c #E3DD99",
"5X c #E5DF9A",
"6X c #E6DF9B",
"7X c #E6E09B",
"8X c #E7E09B",
"9X c #E7E19C",
"0X c #EBE59E",
"qX c #EDE6A0",
"wX c #EDE7A0",
"eX c #F0E9A1",
"rX c #F0EAA2",
"tX c #F1EBA2",
"yX c #F2EBA3",
"uX c #F3EDA4",
"iX c #F4EDA4",
"pX c #F4EDA5",
"aX c #F5EEA5",
"sX c #F7F0A7",
"dX c #F8F1A7",
"fX c #F9F2A7",
"gX c #F9F2A8",
"hX c #F9F3A8",
"jX c #FAF3A8",
"kX c #FBF4A9",
"lX c #FBF5A9",
"zX c #FCF5A9",
"xX c #FCF5AA",
"cX c #FDF6AA",
"vX c #FDF6AB",
"bX c #FEF7AB",
"nX c #FFF8AC",
"mX c None",
/* pixels */
"mXmXmXmXmXmXmXmXmXmXmXmXmXmXmXmXmXmXmXmXmXmXmXmXmXmXmXmXmXmXmXmXmXmXmXmXmXmXmXmXmXmXmXmXmXmXmXmXmXmXmXmXmXmXmXmXmXmXmXmXmXmXmXmX",
"mXmXmXmX(.].(.(.`.].`.`.`.`.`.`.`.`.`.`.`.`.`.`.`.`.`.`.`.`.`.`.`.`.`.`.`.`.`.`.`.`.`.`.`.`.`.`.`.`.`.`.`.`.`.`.].(.(.`.mXmXmXmX",
"mXmX(.(.`.`.`.`.`.`.`.`.`.`.`.`.(.].(.].`.`.`.`.`.`.`.`.`.`.`.`.`.`.`.`.`.`.`.`.`.`.`.(.`.`.`.`.`.`.`.`.`.`.`.`.`.`.`.].`.(.mXmX",
"mXmX(.].`.`.`.`.`.`.`.`.`.`.`.`.].(.].].`.`.`.`.`.`.`.`.`.`.`.`.`.`.`.`.`.`.`.`.`.`.`.(.`.`.`.`.`.`.`.`.`.`.`.`.`.`.`.`.`.`.mXmX",
"mXmX`.`.`.`.`.`.`.`.`.`.`.`.`.`.(.S.h.{ { { { { { { { { { { { { { { { { { { { { { { O.m.Q.].`.`.`.`.`.`.`.`.`.`.`.`.`.`.`.].].mX",
"mX(.`.`.`.`.`.`.`.`.`.`.`.`.(.R.( o O $ $ $ $ $ $ $ $ $ $ $ $ $ $ $ $ $ $ $ $ $ $ $ @   8 B.(.`.`.`.`.`.`.`.`.`.`.`.`.`.`.`.(.mX",
"mX(.].`.`.`.`.`.`.`.(.].(.(.B.e v 9.4XdXkXkXkXkXkXkXkXkXkXkXkXkXkXkXkXkXkXkXkXkXkXhXtX|.>.: | R.`.`.`.`.`.`.`.`.`.`.`.`.`.`.].mX",
"mX(.(.].`.`.`.`.`.`.].(.].Y.e 1.0XcXnXnXnXnXnXnXnXnXnXnXnXnXnXnXnXnXnXnXnXnXnXnXnXnXnXnXsXOXy O.`.`.`.`.`.`.`.`.`.`.`.`.`.].(.mX",
"mX`.`.`.`.`.`.`.`.`.`.`.Q.C &.iXnXnXnXnXnXnXnXnXnXnXnXnXnXnXnXnXnXnXnXnXnXnXnXnXnXnXnXnXnXnX[.= N.(.`.`.`.`.`.`.`.`.`.`.`.`.`.mX",
"mX(.`.`.`.`.`.`.`.`.(.(.z.2 <XnXnXnXnXnXnXnXnXnXnXnXnXnXnXnXnXnXnXnXnXnXnXnXnXnXnXnXnXnXnXnXcX6.8 K.`.`.`.`.`.`.`.`.`.`.`.`.`.mX",
"mX`.`.`.`.`.`.`.`.`.`.Y.e p.nXnXnXnXnXnXnXnXnXnXnXnXnXnXnXnXnXnXnXnXnXnXnXnXnXnXnXnXnXnXnXnXnXkXh h.(.(.`.`.`.`.`.`.`.`.`.`.(.mX",
"mX(.`.`.`.`.`.`.`.`.`.N.j cXnXnXnXnXnXnXnXnXnXnXnXnXnXnXnXnXnXnXnXnXnXnXnXnXnXnXnXnXnXnXnXnXnXnXu.J (.`.`.`.`.`.`.`.`.`.`.`.`.mX",
"mX`.`.`.`.`.`.`.`.`.(.f.4.nXnXnXnXnXnXnXnXnXnXnXnXnXnXnXnXnXnXnXnXnXnXnXnXnXnXnXnXnXnXnXnXnXnXnX<XR Y.(.`.`.`.`.`.`.`.`.`.`.(.mX",
"mX`.`.`.`.`.`.`.`.].(.P s.nXnXnXnXnXnXnXnXnXnXnXnXnXnXnXnXnXnXnXnXnXnXnXnXnXnXnXnXnXnXnXnXnXnXnXrXb K.].`.`.`.`.`.`.`.`.`.`.(.mX",
"mX`.`.`.`.`.`.`.`.`.(.Y XXnXnXnXnXnXnXnXnXnXnXnXnXnXnXnXnXnXnXnXnXnXnXnXnXnXnXnXnXnXnXnXnXnXnXnXdX&.H.(.`.`.`.`.`.`.`.`.`.`.(.mX",
"mX`.`.`.`.`.`.`.`.`.].! #XnXnXnXnXnXnXnXnXnXnXnXnXnXnXnXnXnXnXnXnXnXnXnXnXnXnXnXnXnXnXnXnXnXnXnXcX-.D.].`.`.`.`.`.`.`.`.`.`.(.mX",
"mX`.`.`.`.`.`.`.`.`.`.W %XnXnXnXnXnXnXkX0X9X5X9X9X9X9X9X5X8X9X5X9X9X9X9X9X9X9X9X9XaXnXnXnXnXnXnXkX-.D.(.`.`.`.`.`.`.`.`.`.`.(.mX",
"mX`.`.`.`.`.`.`.`.`.`.W %XnXnXnXnXnXnX5XN a a a a a a a a a a s a a a a a a a a s u.nXnXnXnXnXnXkX-.D.(.`.`.`.`.`.`.`.`.`.`.(.mX",
"mX`.`.`.`.`.`.`.`.`.(.E %XnXnXnXnXnXnX<Xp Z.Z.Z.Z.Z.Z.Z.Z.Z.Z.Z.Z.Z.Z.Z.Z.Z.Z.Z.V 7.nXnXnXnXnXnXkX-.D.].`.`.`.`.`.`.`.`.`.`.(.mX",
"mX`.`.`.`.`.`.`.`.(.(.W %XnXnXnXnXnXnX<Xd (.].(.`.`.`.`.(.(.(.`.(.(.(.(.(.(.`.`.D 7.nXnXnXnXnXnXkX-.D.(.`.`.`.`.`.`.`.`.`.`.(.mX",
"mX`.`.`.`.`.`.`.`.`.`.W =XnXnXnXnXnXnX<Xd (.].(.`.`.`.`.`.`.`.].(.`.`.`.].`.`.`.D 7.nXnXnXnXnXnXkX-.S.(.].(.`.`.`.`.`.`.`.`.(.mX",
"mX`.`.`.`.`.`.`.`.`.`.W #XnXnXnXnXnXnX<Xd ].(.].`.`.`.`.`.`.`.(.(.`.`.`.(.].`.`.D 7.nXnXnXnXnXnXkX-.D.].(.].`.`.`.`.`.`.`.`.(.mX",
"mX`.`.`.`.`.`.`.`.`.(.W =XnXnXnXnXnXnX<Xd `.].`.`.`.`.`.`.`.(.].`.`.`.`.].(.].].D 7.nXnXnXnXnXnXkX-.S.(.].`.`.`.`.`.`.`.`.`.(.mX",
"mX`.`.`.`.`.`.`.].(.].W #XnXnXnXnXnXnX<Xd `.`.`.`.`.`.`.`.`.].(.`.`.`.`.(.].(.].D 7.nXnXnXnXnXnXkX-.S.].(.].`.`.`.`.`.`.`.`.(.mX",
"mX`.`.`.`.`.`.`.`.`.`.W @XnXnXnXnXnXnX>Xi ].(.(.(.(.(.].(.].(.(.`.`.`.`.`.`.`.`.D 7.nXnXnXnXnXnXkX-.D.`.`.`.`.`.`.`.`.`.`.`.(.mX",
"mX`.`.`.`.`.`.`.`.`.(.W =XnXnXnXnXnXnX>Xu K / K / K K K K K ( K K K K K K K K K 3 7.nXnXnXnXnXnXkX-.D.`.`.`.`.`.`.`.`.`.`.`.(.mX",
"mX`.`.`.`.`.`.`.`.`.(.W @XnXnXnXnXnXnX<Xz % % % % % % % % % % % % % % % % % % % & 8.nXnXnXnXnXnXkX-.D.`.`.`.`.`.`.`.`.`.`.`.(.mX",
"mX`.`.`.`.`.`.`.`.`.(.! @XnXnXnXnXnXnXnXnXnXnXnXnXnXnXnXnXnXnXnXnXnXnXnXnXnXnXnXnXnXnXnXnXnXnXnXkX$.K.`.`.`.`.`.`.`.`.`.`.`.(.mX",
"mX`.`.`.`.`.`.`.`.`.(.I XXnXnXnXnXnXnXnXnXnXnXnXnXnXnXnXnXnXnXnXnXnXnXnXnXnXnXnXnXnXnXnXnXnXnXnXtX@.H.!.`.`.`.`.`.`.`.`.`.`.(.mX",
"mX`.`.`.`.`.`.`.`.`.(.( r.nXnXnXnXnXnXnXnXnXnXnXnXnXnXnXnXnXnXnXnXnXnXnXnXnXnXnXnXnXnXnXnXnXnXnX6Xk P.].`.`.`.`.`.`.`.`.`.`.(.mX",
"mX`.`.`.`.`.`.`.`.`.`.h.2.nXnXnXnXnXnXnXnXnXnXnXnXnXnXnXnXnXnXnXnXnXnXnXnXnXnXnXnXnXnXnXnXnXnXnX=XF R.].`.`.`.`.`.`.`.`.`.`.(.mX",
"mX`.`.`.`.`.`.`.`.`.`.N.+.nXnXnXnXnXnXnXnXnXnXnXnXnXnXnXnXnXnXnXnXnXnXnXnXnXnXnXnXnXnXnXnXnXnXnXr._ (.].`.`.`.`.`.`.`.`.`.`.(.mX",
"mX`.`.`.`.`.`.`.`.].(.x.;.nXnXnXnXnXnXnXnXnXnXnXnXnXnXnXnXnXnXnXnXnXnXnXnXnXnXnXnXnXnXnXnXnXnXnXOXA Q.`.`.`.`.`.`.`.`.`.`.`.(.mX",
"mX`.`.`.`.`.`.`.`.(.].{ 0.nXnXnXnXnXnXnXnXnXnXnXnXnXnXnXnXnXnXnXnXnXnXnXnXnXnXnXnXnXnXnXnXnXnXnX7Xj Y.`.`.`.`.`.`.`.`.`.`.`.(.mX",
"mX`.`.`.`.`.`.`.`.`.].T {.nXnXnXnXnXnXnXnXnXnXnXnXnXnXnXnXnXnXnXnXnXnXnXnXnXnXnXnXnXnXnXnXnXnXnXtXn L.`.`.`.`.`.`.`.`.`.`.`.(.mX",
"mX`.`.`.`.`.`.`.`.`.].^ +XnXnXnXnXnXnXnXnXnXnXnXnXnXnXnXnXnXnXnXnXnXnXnXnXnXnXnXnXnXnXnXnXnXnXnXhX$.H.`.`.`.`.`.`.`.`.`.`.`.(.mX",
"mX`.`.`.`.`.`.`.`.`.`.W @XnXnXnXnXnXnXnXnXnXnXnXnXnXnXnXnXnXnXnXnXnXnXnXnXnXnXnXcXcXnXnXnXnXnXnXhX-.D.].(.].`.`.`.`.`.`.`.`.(.mX",
"mX`.`.`.`.`.`.`.`.`.(.W =XnXnXnXnXnXnX4Xv - - - - - - - - - - - - - - - - - - - < 0.nXnXnXnXnXnXhX-.D.`.`.`.`.`.`.`.`.`.`.`.(.mX",
"mX`.`.`.`.`.`.`.`.`.`.W =XnXnXnXnXnXnX<Xu H H H H H H H H H H H H H H H H H H H 3 6.nXnXnXnXnXnXcX-.D.(.`.`.`.`.`.`.`.`.`.`.(.mX",
"mX`.`.`.`.`.`.`.`.(.(.W @XnXnXnXnXnXcX<Xp `.`.`.`.`.`.`.`.`.`.`.`.`.`.`.`.`.`.`.J 7.nXnXnXnXnXnXhX-.D.(.`.`.`.`.`.`.`.`.`.`.(.mX",
"mX`.`.`.`.`.`.`.`.`.`.W %XnXnXnXnXnXnX<Xd ].(.].`.`.`.`.`.`.`.`.`.`.`.`.`.`.`.`.J 7.nXnXnXnXnXnXcX-.D.(.`.`.`.`.`.`.`.`.`.`.(.mX",
"mX`.`.`.`.`.`.`.`.`.`.W %XnXnXnXnXnXnX;Xd ].].(.`.`.`.`.`.`.`.`.`.`.`.`.`.`.`.`.Z 6.nXnXnXnXnXnXkX-.D.].`.`.`.`.`.`.`.`.`.`.(.mX",
"mX`.`.`.`.`.`.`.`.`.(.E %XnXnXnXnXnXnX<Xd `.`.`.`.`.`.`.`.`.`.`.`.`.`.`.`.`.`.`.J 7.nXnXnXnXnXnXkX-.D.(.`.`.`.`.`.`.`.`.`.`.(.mX",
"mX`.`.`.`.`.`.`.`.(.(.W =XnXnXnXnXnXnX<Xd `.`.`.`.`.`.`.`.`.`.`.`.`.`.`.`.`.`.`.Z 7.nXnXnXnXnXnXkX-.D.`.`.`.`.`.`.`.`.`.`.`.(.mX",
"mX`.`.`.`.`.`.`.`.`.`.W @XnXnXnXnXnXnX<Xd (.`.`.`.`.`.`.`.`.`.`.`.`.(.`.`.`.`.`.J 6.nXnXnXnXnXnXkX-.S.(.`.`.`.`.`.`.`.`.`.`.(.mX",
"mX`.`.`.`.`.`.`.`.`.`.W =XnXnXnXnXnXnX<Xp K.H.H.H.H.H.H.H.H.H.H.H.K.H.H.H.H.H.H.V 6.nXnXnXnXnXnXkX-.D.].`.`.`.`.`.`.`.`.`.`.(.mX",
"mX`.`.`.`.`.`.`.(.].(.W @XnXnXnXnXnXnX2Xz * * * * * * * * * * * * * * * * * * * < 0.nXnXnXnXnXnXkX-.S.(.`.`.`.`.`.`.`.`.`.`.(.mX",
"mX`.`.`.`.`.`.`.].(.].W %XnXnXnXnXnXnXhX2X-X-X-X-X-X-X-X-X-X-X-X-X-X-X-X-X-X-X-X-X0XnXnXnXnXnXnXkX-.D.].`.`.`.`.`.`.`.`.`.`.(.mX",
"mX`.`.`.`.`.`.`.`.`.`.! @XnXnXnXnXnXnXnXnXnXnXnXnXnXnXnXnXnXnXnXnXnXnXnXnXnXnXnXnXnXnXnXnXnXnXnXkX$.K.].`.`.`.`.`.`.`.`.`.`.(.mX",
"mX`.`.`.`.`.`.`.`.`.`.Y XXnXnXnXnXnXnXnXnXnXnXnXnXnXnXnXnXnXnXnXnXnXnXnXnXnXnXnXnXnXnXnXnXnXnXnXtXm P.(.`.`.`.`.`.`.`.`.`.`.(.mX",
"mX`.`.`.`.`.`.`.`.`.`.P a.nXnXnXnXnXnXnXnXnXnXnXnXnXnXnXnXnXnXnXnXnXnXnXnXnXnXnXnXnXnXnXnXnXnXnX9Xl P.(.`.`.`.`.`.`.`.`.`.`.(.mX",
"mX`.`.`.`.`.`.`.`.`.`.f.4.nXnXnXnXnXnXnXnXnXnXnXnXnXnXnXnXnXnXnXnXnXnXnXnXnXnXnXnXnXnXnXnXnXnXnX=XG R.(.`.`.`.`.`.`.`.`.`.`.(.mX",
"mX`.`.`.`.`.`.`.`.].(.N.g kXnXnXnXnXnXnXnXnXnXnXnXnXnXnXnXnXnXnXnXnXnXnXnXnXnXnXnXnXnXnXnXnXnXnX5.' (.`.`.`.`.`.`.`.`.`.`.`.`.mX",
"mX`.`.`.`.`.`.`.`.(.].R.r r.cXnXnXnXnXnXnXnXnXnXnXnXnXnXnXnXnXnXnXnXnXnXnXnXnXnXnXnXnXnXnXnXnXsX6 v.`.`.`.`.`.`.`.`.`.`.`.`.`.mX",
"mX`.`.`.`.`.`.`.`.`.].(.z.1 <XnXnXnXnXnXnXnXnXnXnXnXnXnXnXnXnXnXnXnXnXnXnXnXnXnXnXnXnXnXnXnXhX,.B R.].].`.`.`.`.`.`.`.`.`.`.(.mX",
"mX(.`.`.`.`.`.`.`.`.].].R.S $.uXnXnXnXnXnXnXnXnXnXnXnXnXnXnXnXnXnXnXnXnXnXnXnXnXnXnXnXnXnXcXp.> Z.].].(.`.`.`.`.`.`.`.`.`.].(.mX",
"mX(.`.`.`.`.`.`.`.`.`.`.`.R.e 1.wXcXnXnXnXnXnXnXnXnXnXnXnXnXnXnXnXnXnXnXnXnXnXnXnXnXnXnXhX|.5 x.`.`.`.`.`.`.`.`.`.`.`.`.`.`.(.mX",
"mX(.`.`.`.`.`.`.`.`.`.`.`.(.B.w v 0.9XkXcXkXhXnXkXkXkXnXkXkXkXnXkXcXhXcXnXhXhXnXcXzXtX.X>.; O.Q.`.`.`.`.`.`.`.`.`.`.`.`.`.`.`.mX",
"mX].].`.`.`.`.`.`.`.`.`.(.].(.R.( o $ $ $ $ $ $ $ $ $ $ $ $ $ $ $ $ $ $ $ $ $ $ $ $ @   4 C.(.`.`.`.`.`.`.`.`.`.`.`.`.`.`.`.`.mX",
"mXmX(.`.`.`.`.`.`.`.`.`.].(.].(.(.Z.f.[ ' ' ' ' ` ` ` ` ` ` ` ' ' ' ' ' ` ` ` ' ' ' ..m.(.(.(.].`.`.`.`.`.`.`.`.`.`.`.`.`.`.mXmX",
"mXmX(.`.`.`.`.`.`.`.`.`.`.`.`.`.`.`.`.`.`.`.`.`.].`.`.`.`.`.`.`.`.`.`.`.`.`.`.`.`.`.`.`.`.`.`.`.`.`.`.`.`.`.`.`.`.`.`.`.`.(.mXmX",
"mXmXmX(.`.`.`.`.(.(.(.(.(.(.(.(.(.(.(.(.(.(.(.(.`.(.(.(.(.(.(.(.(.(.(.(.`.Q.`.`.(.(.(.(.(.(.(.(.(.(.(.(.(.(.(.(.`.`.`.`.`.mXmXmX",
"mXmXmXmXmXmXmXmXmXmXmXmXmXmXmXmXmXmXmXmXmXmXmXmXmXmXmXmXmXmXmXmXmXmXmXmXmXmXmXmXmXmXmXmXmXmXmXmXmXmXmXmXmXmXmXmXmXmXmXmXmXmXmXmX",
"mXmXmXmXmXmXmXmXmXmXmXmXmXmXmXmXmXmXmXmXmXmXmXmXmXmXmXmXmXmXmXmXmXmXmXmXmXmXmXmXmXmXmXmXmXmXmXmXmXmXmXmXmXmXmXmXmXmXmXmXmXmXmXmX"
};
