/* XPM */
static char *radar_sal[] = {
/* columns rows colors chars-per-pixel */
"64 64 123 2 ",
"   c #050605",
".  c #090906",
"X  c #000709",
"o  c #030A0B",
"O  c #090C0A",
"+  c #0E120F",
"@  c #000D11",
"#  c #011016",
"$  c #0C1413",
"%  c #01141B",
"&  c #02181F",
"*  c #0D1B1C",
"=  c #131712",
"-  c #161A15",
";  c #1A1C14",
":  c #121E1D",
">  c #181E19",
",  c #1E231C",
"<  c #232319",
"1  c #28271B",
"2  c #25281E",
"3  c #2B2A1D",
"4  c #011B23",
"5  c #0F1F20",
"6  c #011F29",
"7  c #01222D",
"8  c #082228",
"9  c #002531",
"0  c #002937",
"q  c #002C3B",
"w  c #2F2E20",
"e  c #333223",
"r  c #383725",
"t  c #3A3927",
"y  c #3D3C29",
"u  c #413F2C",
"i  c #43422D",
"p  c #4D4B34",
"a  c #504E36",
"s  c #525037",
"d  c #555339",
"f  c #59573C",
"g  c #5B593D",
"h  c #003244",
"j  c #003649",
"k  c #00394D",
"l  c #003D52",
"z  c #004157",
"x  c #00445B",
"c  c #004760",
"v  c #004A63",
"b  c #004F6A",
"n  c #00526D",
"m  c #005572",
"M  c #005876",
"N  c #005C7C",
"B  c #5F5D40",
"V  c #615E41",
"C  c #646243",
"Z  c #696646",
"A  c #6E6A4A",
"S  c #716E4C",
"D  c #75724E",
"F  c #777450",
"G  c #7A7652",
"H  c #7E7A55",
"J  c #827E57",
"K  c #837F58",
"L  c #85825A",
"P  c #8A865D",
"I  c #8C885D",
"U  c #8F8B60",
"Y  c #918D62",
"T  c #959164",
"R  c #999567",
"E  c #9B9769",
"W  c #9E9A6A",
"Q  c #A29E6D",
"!  c #A5A16F",
"~  c #A7A371",
"^  c #AAA673",
"/  c #AEA975",
"(  c #B1AC77",
")  c #B3AE79",
"_  c #B4B07A",
"`  c #BBB57E",
"'  c #BDB87F",
"]  c #005F80",
"[  c #006283",
"{  c #006689",
"}  c #006A8D",
"|  c #006D92",
" . c #007196",
".. c #00749B",
"X. c #0077A0",
"o. c #007AA4",
"O. c #007EA9",
"+. c #0081AD",
"@. c #0085B2",
"#. c #0089B7",
"$. c #008CBB",
"%. c #0092C3",
"&. c #BFBA81",
"*. c #C2BD82",
"=. c #C6C186",
"-. c #C9C387",
";. c #CCC689",
":. c #CEC98B",
">. c #D3CE8E",
",. c #D6D191",
"<. c #DBD593",
"1. c #DED895",
"2. c #E3DD99",
"3. c #E7E19B",
"4. c #EBE49E",
"5. c #EDE7A0",
"6. c #EFE8A1",
"7. c #F3ECA4",
"8. c #F7F0A6",
"9. c #F8F1A7",
"0. c #FCF5AA",
"q. c #FFF8AC",
"w. c None",
/* pixels */
"w.w.w.w.w.w.w.w.w.w.w.w.w.w.w.w.w.w.w.w.w.w.w.w.w.w.w.w.w.w.w.w.w.w.w.w.w.w.w.w.w.w.w.w.w.w.w.w.w.w.w.w.w.w.w.w.w.w.w.w.w.w.w.w.",
"w.w.w.w.%.%.%.%.%.%.%.%.%.%.%.%.%.%.%.%.%.%.%.%.%.%.%.%.%.%.%.%.%.%.%.%.%.%.%.%.%.%.%.%.%.%.%.%.%.%.%.%.%.%.%.%.%.%.%.%.w.w.w.w.",
"w.w.%.%.%.%.%.%.%.%.%.%.%.%.%.%.%.%.%.%.%.%.%.%.%.%.%.%.%.%.%.%.%.%.%.%.%.%.%.%.%.%.%.%.%.%.%.%.%.%.%.%.%.%.%.%.%.%.%.%.%.%.w.w.",
"w.w.%.%.%.%.%.%.%.%.%.%.%.%.%.%.%.%.%.%.%.%.%.%.%.%.%.%.%.%.%.%.%.%.%.%.%.%.%.%.%.%.%.%.%.%.%.%.%.%.%.%.%.%.%.%.%.%.%.%.%.%.w.w.",
"w.w.%.%.%.%.%.%.%.%.%.%.%.%.%.%.%.%.%.%.%.%.%.%.%.%.$.@.o.X...X.o.#.$.%.%.%.%.%.%.%.%.%.%.%.%.%.%.%.%.%.%.%.%.%.%.%.%.%.%.%.%.w.",
"w.%.%.%.%.%.%.%.%.%.%.%.%.%.%.%.%.%.%.%.$.@.[ z 9 %     . O . . . . o & h n ..$.$.%.%.%.%.%.%.%.%.%.%.%.%.%.%.%.%.%.%.%.%.%.%.w.",
"w.%.%.%.%.%.%.%.%.%.%.%.%.%.%.%.$.o.N k 8 < i g G Y ! ) ' =.=.*.` / W P A s e * q b | $.%.%.%.%.%.%.%.%.%.%.%.%.%.%.%.%.%.%.%.w.",
"w.%.%.%.%.%.%.%.%.%.%.%.%.%.%.O.k # ; D *.1.4.8.0.q.q.q.q.q.q.q.q.q.q.0.0.7.2.,.W i o 9 [ %.%.%.%.%.%.%.%.%.%.%.%.%.%.%.%.%.%.w.",
"w.%.%.%.%.%.%.%.%.%.%.%.%.+.x $ t / 0.q.q.q.q.q.q.q.q.q.q.q.q.q.q.q.q.q.q.q.q.q.q.q.<.C ; 7  .$.%.%.%.%.%.%.%.%.%.%.%.%.%.%.%.w.",
"w.%.%.%.%.%.%.%.%.%.%.%.[ 7 i / 7.q.q.q.q.q.q.q.q.q.q.q.q.q.q.q.q.q.q.q.q.q.q.q.q.q.q.0.;.A * v $.%.%.%.%.%.%.%.%.%.%.%.%.%.%.w.",
"w.%.%.%.%.%.%.%.%.%.%.N X G 7.0.q.q.q.q.q.q.q.q.q.q.q.q.q.q.q.q.q.q.q.q.q.q.q.q.q.q.q.q.q.0.` = q #.%.%.%.%.%.%.%.%.%.%.%.%.%.w.",
"w.%.%.%.%.%.%.%.%.%.N - R q.q.q.q.q.q.q.q.q.q.q.q.q.q.q.q.q.q.q.q.q.q.q.q.q.q.q.q.q.q.q.q.q.0.:.e h $.%.%.%.%.%.%.%.%.%.%.%.%.w.",
"w.%.%.%.%.%.%.%.%.[ X R 9.q.q.q.q.q.q.q.q.q.q.q.q.q.q.q.q.q.q.q.q.q.q.q.q.q.q.q.q.q.q.q.q.q.q.q.>.e l %.%.%.%.%.%.%.%.%.%.%.%.w.",
"w.%.%.%.%.%.%.%.+.7 G q.q.q.q.q.q.q.q.q.q.q.q.q.q.q.q.q.q.q.q.q.q.q.q.q.q.q.q.q.q.q.q.q.q.q.q.q.q.` . N %.%.%.%.%.%.%.%.%.%.%.w.",
"w.%.%.%.%.%.%.%.v i 7.q.q.q.q.q.q.q.q.q.q.q.q.q.q.q.q.q.q.q.q.q.q.q.q.q.q.q.q.q.q.q.q.q.q.q.q.q.q.q.H 4 +.%.%.%.%.%.%.%.%.%.%.w.",
"w.%.%.%.%.%.%.@.$ ~ q.q.q.q.q.q.q.q.q.q.q.q.q.q.q.q.q.q.q.q.q.q.q.q.q.q.q.q.q.q.q.q.q.q.q.q.q.q.q.q.7.e [ %.%.%.%.%.%.%.%.%.%.w.",
"w.%.%.%.%.%.%.b 3 4.q.q.q.q.q.q.q.q.q.q.q.q.q.q.q.q.q.0.4.3.3.3.3.9.0.q.q.q.q.q.q.q.q.q.q.q.q.q.q.q.q.Y q %.%.%.%.%.%.%.%.%.%.w.",
"w.%.%.%.%.%.$.7 A q.q.q.q.q.q.q.q.q.q.q.q.q.q.q.q.7.~ Z i t t t u V W 6.q.q.q.q.q.q.q.q.q.q.q.q.q.q.q.-.; $.%.%.%.%.%.%.%.%.%.w.",
"w.%.%.%.%.%.o.# ` q.q.q.q.q.q.q.q.q.q.q.q.q.q.q.6.d   h [ X.+.o.| j   p 5.q.q.q.q.q.q.q.q.q.q.q.q.q.q.2.e [ %.%.%.%.%.%.%.%.%.w.",
"w.%.%.%.%.%.| @ 5.q.q.q.q.q.q.q.q.q.q.q.q.q.q.q.Y 7 X.%.%.%.%.%.%.%.X.9 A q.q.q.q.q.q.q.q.q.q.q.q.q.q.8.i v %.%.%.%.%.%.%.%.%.w.",
"w.%.%.%.%.%.[ $ 0.q.q.q.q.q.q.q.q.q.q.q.q.q.q.q.Z v %.%.%.%.%.%.%.%.%.| * 5.q.q.q.0.q.q.q.q.q.q.q.q.q.0.p h %.%.%.%.%.%.%.%.%.w.",
"w.%.%.%.%.%.] , q.q.q.q.q.q.q.q.q.q.q.q.q.q.q.q.W % ..$.%.%.%.%.%.%.%.+.4 Y 0.9.0.0.9.0.0.9.9.0.0.9.q.9.f 9 %.%.%.%.%.%.%.%.%.w.",
"w.%.%.%.%.%.N , q.q.q.q.q.q.q.q.q.q.q.q.q.q.q.q.7.G - h N ..$.%.%.%.%.$.q y S S S S S S S S S S S S S S 3 h %.%.%.%.%.%.%.%.%.w.",
"w.%.%.%.%.%.[ = q.q.q.q.q.q.q.q.q.q.q.q.q.q.q.q.q.9.,.H > @ 4 j N o.%.%. .k k k k k k k k k k k k k k k x O.%.%.%.%.%.%.%.%.%.w.",
"w.%.%.%.%.%.| X 7.q.q.q.q.q.q.q.q.q.q.q.q.q.q.q.q.q.q.q.0.:.K t 3 = + 9 x ..o.@.%.%.%.%.%.%.%.%.%.%.%.%.%.%.%.%.%.%.%.%.%.%.%.w.",
"w.%.%.%.%.%.X.# ;.q.q.q.q.q.q.q.q.q.q.q.q.q.q.q.q.q.q.q.q.q.q.0.4.=.( I B y * 7 l N O.%.%.%.%.%.%.%.%.%.%.%.%.%.%.%.%.%.%.%.%.w.",
"w.%.%.%.%.%.$.4 L q.q.q.q.q.q.q.q.q.q.q.q.q.q.q.q.q.q.q.q.q.q.q.q.q.q.0.9.7.5.~ f O X 9 | %.%.%.%.%.%.%.%.%.%.%.%.%.%.%.%.%.%.w.",
"w.%.%.%.%.%.%.x e 6.q.q.q.q.q.q.q.q.q.q.q.q.q.q.q.q.q.q.q.q.q.q.q.q.q.q.q.q.q.q.q.6.~ g 3 4 n O.%.%.%.%.%.%.%.%.%.%.%.%.%.%.%.w.",
"w.%.%.%.%.%.%.+.$ / q.q.q.q.q.q.q.q.q.q.q.q.q.q.q.q.q.q.q.q.q.q.q.q.q.q.q.q.q.q.q.q.q.9.<.~ e 4 M $.%.%.%.%.%.%.%.%.%.%.%.%.%.w.",
"w.%.%.%.%.%.%.%.x p 7.q.q.q.q.q.q.q.q.q.q.q.q.q.q.q.q.q.q.q.q.q.q.q.q.q.q.q.q.q.q.q.q.q.q.q.9.L . l $.%.%.%.%.%.%.%.%.%.%.%.%.w.",
"w.%.%.%.%.%.%.%.+.4 L 0.q.q.q.q.q.q.q.q.q.q.q.q.q.q.q.q.q.q.q.q.q.q.q.q.q.q.q.q.q.q.q.q.q.q.q.0.*.y 0 X.%.%.%.%.%.%.%.%.%.%.%.w.",
"w.%.%.%.%.%.%.%.%.] O U q.q.q.q.q.q.q.q.q.q.q.q.q.q.q.q.q.q.q.q.q.q.q.q.q.q.q.q.q.q.q.q.q.q.q.q.0.2.r 0 @.%.%.%.%.%.%.%.%.%.%.w.",
"w.%.%.%.%.%.%.%.%.%.m $ W 8.q.q.q.q.q.q.q.q.q.q.q.q.q.q.q.q.q.q.q.q.q.q.q.q.q.q.q.q.q.q.q.q.q.q.q.q.8.e x %.%.%.%.%.%.%.%.%.%.w.",
"w.%.%.%.%.%.%.%.%.%.%.N * V <.0.q.q.q.q.q.q.q.q.q.q.q.q.q.q.q.q.q.q.q.q.q.q.q.q.q.q.q.q.q.q.q.q.q.q.q.' ,  .%.%.%.%.%.%.%.%.%.w.",
"w.%.%.%.%.%.%.%.%.%.%.%.X.% ; Q q.q.0.q.q.q.q.q.q.q.q.q.q.q.q.q.q.q.q.q.q.q.q.q.q.q.q.q.q.q.q.q.q.q.q.0.V % %.%.%.%.%.%.%.%.%.w.",
"w.%.%.%.%.%.%.%.%.%.%.%.%.%.v 4 e Y >.7.q.q.q.q.q.q.q.q.q.q.q.q.q.q.q.q.q.q.q.q.q.q.q.q.q.q.q.q.q.q.q.q.:.X } %.%.%.%.%.%.%.%.w.",
"w.%.%.%.%.%.%.%.%.%.%.%.%.%.%.O.N 9 < i P ;.0.0.q.q.q.q.q.q.q.q.q.q.q.q.q.q.q.q.q.q.q.q.q.q.q.q.q.q.q.q.0.r x %.%.%.%.%.%.%.%.w.",
"w.%.%.%.%.%.%.%.%.%.%.%.%.%.%.%.%.%.+.l @ X ; Z *.6.8.9.0.0.q.q.q.q.q.q.q.q.q.q.q.q.q.q.q.q.q.q.q.q.q.q.q.L q $.%.%.%.%.%.%.%.w.",
"w.%.%.%.%.%.O. . . . . . . . . . . . . .| v j h 7 * y g P Q =.7.q.q.q.q.q.q.q.q.q.q.q.q.q.q.q.q.q.q.q.q.q.-.7 @.%.%.%.%.%.%.%.w.",
"w.%.%.%.%.$.7 @ @ @ @ @ @ @ @ @ @ @ @ @ @ @ # | +.o.X.x h . ; 3 d ) 0.q.q.q.q.q.q.q.q.q.q.q.q.q.q.q.q.q.q.1.4 +.%.%.%.%.%.%.%.w.",
"w.%.%.%.%.$., <.q.q.q.q.q.q.q.q.q.q.q.q.q.8.s N %.%.%.%.%.%.o.M 7 # ; Y 4.q.q.q.q.q.q.q.q.q.q.q.q.q.q.q.q.3.# O.%.%.%.%.%.%.%.w.",
"w.%.%.%.%.$., <.q.q.q.q.q.q.q.q.q.q.q.q.q.0.C x %.%.%.%.%.%.%.%.%.O.M 7 p 0.q.q.q.q.q.q.q.q.q.q.q.q.q.q.q.3.4 +.%.%.%.%.%.%.%.w.",
"w.%.%.%.%.$.8 ,.q.q.q.q.q.q.q.q.q.q.q.q.q.0.Y 7 %.%.%.%.%.%.%.%.%.%.%.X.& ! q.q.q.q.q.q.q.q.q.q.q.q.q.q.q.<.6 @.%.%.%.%.%.%.%.w.",
"w.%.%.%.%.$.4 *.q.q.q.q.q.q.q.q.q.q.q.q.q.q.=.; N $.%.%.%.%.%.%.%.%.%.+.4 Q q.q.q.q.q.q.q.q.q.q.q.q.q.q.q.) 9 #.%.%.%.%.%.%.%.w.",
"w.%.%.%.%.$.h Q q.q.q.q.q.q.q.q.q.q.q.q.q.q.9.W @ z  .$.%.%.%.%.%.#.[ h 2 4.q.q.q.q.q.q.q.q.q.q.q.q.q.q.0.G h $.%.%.%.%.%.%.%.w.",
"w.%.%.%.%.$.z g q.q.q.q.q.q.q.q.q.q.q.q.q.q.q.q.` w . .   @ % X   . . y 1.q.q.q.q.q.q.q.q.q.q.q.q.q.q.q.0.e x %.%.%.%.%.%.%.%.w.",
"w.%.%.%.%.%.[ ; 7.q.q.q.q.q.q.q.q.q.q.q.q.q.q.q.q.7.*.( U K J K T _ :.q.q.q.q.q.q.q.q.q.q.q.q.q.q.q.q.q.<.X { %.%.%.%.%.%.%.%.w.",
"w.%.%.%.%.%.o.# ^ q.q.q.q.q.q.q.q.q.q.q.q.q.q.q.q.q.q.q.q.q.q.q.0.q.q.q.q.q.q.q.q.q.q.q.q.q.q.q.q.q.q.q.K o $.%.%.%.%.%.%.%.%.w.",
"w.%.%.%.%.%.%.k t 7.q.q.q.q.q.q.q.q.q.q.q.q.q.q.q.q.q.q.q.q.q.q.q.q.q.q.q.q.q.q.q.q.q.q.q.q.q.q.q.q.q.2.e b %.%.%.%.%.%.%.%.%.w.",
"w.%.%.%.%.%.%.+.$ ! q.q.q.q.q.q.q.q.q.q.q.q.q.q.q.q.q.q.q.q.q.q.q.q.q.q.q.q.q.q.q.q.q.q.q.q.q.q.q.q.q.Y 8 $.%.%.%.%.%.%.%.%.%.w.",
"w.%.%.%.%.%.%.%.m 3 7.q.q.q.q.q.q.q.q.q.q.q.q.q.q.q.q.q.q.q.q.q.q.q.q.q.q.q.q.q.q.q.q.q.q.q.q.q.q.q.3.= [ %.%.%.%.%.%.%.%.%.%.w.",
"w.%.%.%.%.%.%.%.@.q p 3.q.q.q.q.q.q.q.q.q.q.q.q.q.q.q.q.q.q.q.q.q.q.q.q.q.q.q.q.q.q.q.q.q.q.q.q.q.<.3 j $.%.%.%.%.%.%.%.%.%.%.w.",
"w.%.%.%.%.%.%.%.%.X.& d 2.q.q.q.q.q.q.q.q.q.q.q.q.q.q.q.q.q.q.q.q.q.q.q.q.q.q.q.q.q.q.q.q.q.q.q.2.i 9 +.%.%.%.%.%.%.%.%.%.%.%.w.",
"w.%.%.%.%.%.%.%.%.%.#.4 y 4.0.q.q.q.q.q.q.q.q.q.q.q.q.q.q.q.q.q.q.q.q.q.q.q.q.q.q.q.q.q.q.q.0.<.< 9 $.%.%.%.%.%.%.%.%.%.%.%.%.w.",
"w.%.%.%.%.%.%.%.%.%.%.O.h ; I 2.q.q.q.q.q.q.q.q.q.q.q.q.q.q.q.q.q.q.q.q.q.q.q.q.q.q.q.q.0.2.L - l O.%.%.%.%.%.%.%.%.%.%.%.%.%.w.",
"w.%.%.%.%.%.%.%.%.%.%.%.$.[ 4 < K 2.q.q.q.q.q.q.q.q.q.q.q.q.q.q.q.q.q.q.q.q.q.q.q.q.q.5.I 1 4 { $.%.%.%.%.%.%.%.%.%.%.%.%.%.%.w.",
"w.%.%.%.%.%.%.%.%.%.%.%.%.%.#.n 4 $ p Q >.2.5.9.q.q.q.q.q.q.q.q.q.q.q.q.q.0.9.3.1.&.C = 4 v #.%.%.%.%.%.%.%.%.%.%.%.%.%.%.%.%.w.",
"w.%.%.%.%.%.%.%.%.%.%.%.%.%.%.%.#.[ x q : w p C D Y Q / ) *.=.;.=.&._ ^ R G V i < 8 l ] @.%.%.%.%.%.%.%.%.%.%.%.%.%.%.%.%.%.%.w.",
"w.%.%.%.%.%.%.%.%.%.%.%.%.%.%.%.%.%.%.$.$.X.N l 7 #       . . . . .     @ 7 z ] @.$.$.%.%.%.%.%.%.%.%.%.%.%.%.%.%.%.%.%.%.%.%.w.",
"w.w.%.%.%.%.%.%.%.%.%.%.%.%.%.%.%.%.%.%.%.%.%.%.%.%.%.$.O.X... ...X.+.$.%.%.%.%.%.%.%.%.%.%.%.%.%.%.%.%.%.%.%.%.%.%.%.%.%.%.w.w.",
"w.w.%.%.%.%.%.%.%.%.%.%.%.%.%.%.%.%.%.%.%.%.%.%.%.%.%.%.%.%.%.%.%.%.%.%.%.%.%.%.%.%.%.%.%.%.%.%.%.%.%.%.%.%.%.%.%.%.%.%.%.%.w.w.",
"w.w.w.%.%.%.%.%.%.%.%.%.%.%.%.%.%.%.%.%.%.%.%.%.%.%.%.%.%.%.%.%.%.%.%.%.%.%.%.%.%.%.%.%.%.%.%.%.%.%.%.%.%.%.%.%.%.%.%.%.%.w.w.w.",
"w.w.w.w.w.w.w.w.w.w.w.w.w.w.w.w.w.w.w.w.w.w.w.w.w.w.w.w.w.w.w.w.w.w.w.w.w.w.w.w.w.w.w.w.w.w.w.w.w.w.w.w.w.w.w.w.w.w.w.w.w.w.w.w.",
"w.w.w.w.w.w.w.w.w.w.w.w.w.w.w.w.w.w.w.w.w.w.w.w.w.w.w.w.w.w.w.w.w.w.w.w.w.w.w.w.w.w.w.w.w.w.w.w.w.w.w.w.w.w.w.w.w.w.w.w.w.w.w.w."
};
