/* XPM */
static char *radar_joey[] = {
/* columns rows colors chars-per-pixel */
"64 64 222 2 ",
"   c #000506",
".  c #000507",
"X  c #090806",
"o  c #0A0A07",
"O  c #00080B",
"+  c #04090A",
"@  c #070C0B",
"#  c #090C0A",
"$  c #000E13",
"%  c #061113",
"&  c #0E1311",
"*  c #0E1412",
"=  c #00141B",
"-  c #02151B",
";  c #00151C",
":  c #081719",
">  c #0B1818",
",  c #0C191A",
"<  c #081B1F",
"1  c #171811",
"2  c #1C1B13",
"3  c #1F1F15",
"4  c #1A201B",
"5  c #1B211B",
"6  c #1E2019",
"7  c #18211D",
"8  c #1C231D",
"9  c #212118",
"0  c #21241B",
"q  c #24241A",
"w  c #23261C",
"e  c #011B23",
"r  c #001A24",
"t  c #011E27",
"y  c #071E24",
"u  c #0E1E20",
"i  c #001E29",
"p  c #01212B",
"a  c #00222D",
"s  c #00232F",
"d  c #04232C",
"f  c #002634",
"g  c #002836",
"h  c #002936",
"j  c #002937",
"k  c #002B39",
"l  c #002B3A",
"z  c #002C3B",
"x  c #002D3C",
"c  c #002E3D",
"v  c #2B2C20",
"b  c #313021",
"n  c #333222",
"m  c #353323",
"M  c #323426",
"N  c #393726",
"B  c #3C3C29",
"V  c #40402D",
"C  c #41412D",
"Z  c #42402C",
"A  c #42412D",
"S  c #46442F",
"D  c #444532",
"F  c #4B4932",
"G  c #4B4933",
"H  c #4F4D35",
"J  c #504E36",
"K  c #525037",
"L  c #565339",
"P  c #56533A",
"I  c #5B583C",
"U  c #5C593E",
"Y  c #002F40",
"T  c #003040",
"R  c #013040",
"E  c #003041",
"W  c #003142",
"Q  c #003244",
"!  c #003547",
"~  c #00384B",
"^  c #003A4E",
"/  c #003A4F",
"(  c #003C50",
")  c #003D53",
"_  c #003E54",
"`  c #003F55",
"'  c #004359",
"]  c #00445B",
"[  c #00475F",
"{  c #004962",
"}  c #004A64",
"|  c #004B64",
" . c #004B65",
".. c #004D67",
"X. c #004F69",
"o. c #004F6A",
"O. c #00536F",
"+. c #005571",
"@. c #005572",
"#. c #005673",
"$. c #005876",
"%. c #005977",
"&. c #005A79",
"*. c #005B7A",
"=. c #005C7B",
"-. c #005E7E",
";. c #5F5D40",
":. c #626042",
">. c #676445",
",. c #686546",
"<. c #696546",
"1. c #6A6747",
"2. c #6C6948",
"3. c #6C6949",
"4. c #6E6B4A",
"5. c #706D4B",
"6. c #726E4C",
"7. c #74714E",
"8. c #777350",
"9. c #787551",
"0. c #7A7652",
"q. c #7E7A55",
"w. c #7E7B55",
"e. c #847F58",
"r. c #8A865D",
"t. c #908C61",
"y. c #928E62",
"u. c #959165",
"i. c #969165",
"p. c #989366",
"a. c #9F9A6B",
"s. c #A09C6C",
"d. c #A19D6C",
"f. c #A8A471",
"g. c #AAA672",
"h. c #ADA874",
"j. c #B0AB76",
"k. c #B3AE79",
"l. c #BDB77F",
"z. c #006182",
"x. c #00678A",
"c. c #006B8F",
"v. c #006B90",
"b. c #006C91",
"n. c #006D93",
"m. c #006E93",
"M. c #006F94",
"N. c #00739A",
"B. c #00739B",
"V. c #00759C",
"C. c #00779F",
"Z. c #0078A1",
"A. c #007AA3",
"S. c #007DA7",
"D. c #0084B1",
"F. c #0085B2",
"G. c #0086B3",
"H. c #0088B6",
"J. c #0089B7",
"K. c #0089B8",
"L. c #008AB9",
"P. c #008BB9",
"I. c #008BBA",
"U. c #008CBB",
"Y. c #008CBC",
"T. c #008DBC",
"R. c #008DBD",
"E. c #008EBE",
"W. c #008FBF",
"Q. c #008FC0",
"!. c #0090C0",
"~. c #0090C1",
"^. c #0091C2",
"/. c #0091C3",
"(. c #0092C2",
"). c #0092C3",
"_. c #0091C4",
"`. c #0092C4",
"'. c #C1BB82",
"]. c #C2BC82",
"[. c #C5C085",
"{. c #C6C085",
"}. c #C7C286",
"|. c #C8C287",
" X c #C9C487",
".X c #CAC487",
"XX c #CAC488",
"oX c #CAC588",
"OX c #CEC88A",
"+X c #D0CA8C",
"@X c #D1CB8C",
"#X c #D1CB8D",
"$X c #D4CE8F",
"%X c #D6D090",
"&X c #D9D492",
"*X c #DAD493",
"=X c #DBD594",
"-X c #DED895",
";X c #DED896",
":X c #E5DE9A",
">X c #E5DF9A",
",X c #E6E09B",
"<X c #E7E19C",
"1X c #ECE69F",
"2X c #EFE9A1",
"3X c #F0EAA2",
"4X c #F1EBA2",
"5X c #F2EBA3",
"6X c #F4EDA4",
"7X c #F5EEA5",
"8X c #F5EFA5",
"9X c #F6EFA6",
"0X c #F8F1A7",
"qX c #F8F2A7",
"wX c #FAF3A8",
"eX c #FBF4A9",
"rX c #FCF5AA",
"tX c #FDF6AA",
"yX c #FDF6AB",
"uX c #FEF7AB",
"iX c #FFF8AC",
"pX c None",
/* pixels */
"pXpXpXpXpXpXpXpXpXpXpXpXpXpXpXpXpXpXpXpXpXpXpXpXpXpXpXpXpXpXpXpXpXpXpXpXpXpXpXpXpXpXpXpXpXpXpXpXpXpXpXpXpXpXpXpXpXpXpXpXpXpXpXpX",
"pXpXpXpX^.`.^.^.).`.).).).).).).).).).).).).).).).).).).).).).).).).).).).).).).).).).).).).).).).).).).).).).).`.^.^.).pXpXpXpX",
"pXpX^.^.).).).).).).).).).).).).).).).).).).).).).).).).).).).).).).).).).).).).).).^.`.).).).).).).).).).).).).).).).`.).^.pXpX",
"pXpX^.`.).).).).).).).).).).).).).).).).).).).).).).).).).).).).).).).).).).).).`.^.`.^.).).).).).).).).).).).).).).).).).).pXpX",
"pXpX).).).).).).).).).).).).).).).).).).).).).).).).).).).).).).^.`.`.^.).^.^.).`.`.^.`.^.^.^.^.).).^.^.`.^.).).).).).).).`.`.pX",
"pX^.).).).).).).).).).).).).).).).).).).).).).).).).).).).).).).`.^.E.] W W W W W Y W Y W W W W W W W Q z.`.).).).).).).).).^.pX",
"pX^.`.).).).).).).).).).).).).).).).).).).).).).).).).).).).).).).).$.2 >.2.2.2.3.3.3.3.2.2.3.3.2.2.2.P > `.).).).).).).).).`.pX",
"pX^.^.`.).).).).).).).).).).).).).).).).).).).).).).).).).).).).).)...A 3XyXyXyXyXyXyXuXuXuXyXuXyXyXuXXX5 ^.).).).).).).).`.^.pX",
"pX).).).).).).).).).).).).).).).).).).).).).).).).).).).).).).).).)...A 5XiXiXiXiXiXiXiXiXiXiXiXiXiXiXoX5 ).).).).).).).).).).pX",
"pX^.).).).).).).).).).).).).).).).).).).).).).).).).).).).).).).).)...A 5XiXiXiXiXiXiXiXiXiXiXiXiXiXiXoX5 ).).).).).).).).).).pX",
"pX).).).).).).).).).).).).).).).).).).).).).).).).).).).).).).).).)...A 5XiXiXiXiXiXiXiXiXiXiXiXiXiXiXXX5 ).).).).).).).).).^.pX",
"pX^.).).).).).).).).).).).).).).).).).).).).).).).).).).).).).).).)...A 5XiXiXiXiXiXiXiXiXiXiXiXiXiXiXXX5 ).).).).).).).).).).pX",
"pX).).).).).).).).).).).).).).).).).).).).).).).).).).).).).).).).)...A 5XiXiXiXiXiXiXiXiXiXiXiXiXiXiXoX5 ).).).).).).).).).^.pX",
"pX).).).).).).).).).).).).).).).).).).).).).).).).).).).).).).).).)...A 5XiXiXiXiXiXiXiXiXiXiXiXiXiXiXoX5 ).).).).).).).).).^.pX",
"pX).).).).).).).).).).).).).).).).).).).).).).).).).).).).).).).).)...A 5XiXiXiXiXiXiXiXiXiXiXiXiXiXiXoX5 ).).).).).).).).).^.pX",
"pX).).).).).).).).).).).).).).).).).).).).).).).).).).).).).).).).)...A 5XiXiXiXiXiXiXiXiXiXiXiXiXiXiXoX5 ).).).).).).).).).^.pX",
"pX).).).).).).).).).).).).).).).).).).).).).).).).).).).).).).).).)...A 5XiXiXiXiXiXiXiXiXiXiXiXiXiXiXoX5 ).).).).).).).).).^.pX",
"pX).).).).).).).).).).).).).).).).).).).).).).).).).).).).).).).).)...A 5XiXiXiXiXiXiXiXiXiXiXiXiXiXiXoX5 ).).).).).).).).).^.pX",
"pX).).).).).).).).).).).).).).).).).).).).).).).).).).).).).).).).)...A 5XiXiXiXiXiXiXiXiXiXiXiXiXiXiXoX5 ).).).).).).).).).^.pX",
"pX).).).).).).).).).).).).).).).).).).).).).).).).).).).).).).).).).X.A 5XiXiXiXiXiXiXiXiXiXiXiXiXiXiXoX5 ).).).).).).).).).^.pX",
"pX).).).).).).).).).).).).).).).).).).).).).).).).).).).).).).).).)...A 5XiXiXiXiXiXiXiXiXiXiXiXiXiXiXoX8 ).).).).).).).).).^.pX",
"pX).).).).).).).).).).).).).).).).).).).).).).).).).).).).).).).).)...A 5XiXiXiXiXiXiXiXiXiXiXiXiXiXiXoX5 ).).).).).).).).).^.pX",
"pX).).).).).).).).).).).).).).).).).).).).).).).).).).).).).).).).)...A 5XiXiXiXiXiXiXiXiXiXiXiXiXiXiXoX5 ).).).).).).).).).^.pX",
"pX).).).).).).).).).).).).).).).).).).).).).).).).).).).).).).).).)...A 5XiXiXiXiXiXiXiXiXiXiXiXiXiXiXoX5 ).).).).).).).).).^.pX",
"pX).).).).).).).).).).).).).).).).).).).).).).).).).).).).).).).).)...A 5XuXiXiXiXiXiXiXiXiXiXiXiXiXiXoX5 ).).).).).).).).).^.pX",
"pX).).).).).).).).).).).).).).).).).).).).).).).).).).).).).).).).)...A 5XuXiXiXiXiXiXiXiXiXiXiXiXiXiXoX5 ).).).).).).).).).^.pX",
"pX).).).).).).).).).).).).).).).).).).).).).).).).).).).).).).).).)...A 5XiXiXiXiXiXiXiXiXiXiXiXiXiXiXXX5 ).).).).).).).).).^.pX",
"pX).).).).).).).).).).).).).).).).).).).).).).).).).).).).).).).).)...A 5XiXiXiXiXiXiXiXiXiXiXiXiXiXiXXX5 ).).).).).).).).).^.pX",
"pX).).).).).).).).).).).).).).).).).).).).).).).).).).).).).).).).)...A 5XiXiXiXiXiXiXiXiXiXiXiXiXiXiXoX5 ).).).).).).).).).^.pX",
"pX).).).).).).).).).).).).).).).).).).).).).).).).).).).).).).).).)...A 5XiXiXiXiXiXiXiXiXiXiXiXiXiXiXoX5 ).).).).).).).).).^.pX",
"pX).).).).).).).).).).).).).).).).).).).).).).).).).).).).).).).).)...A 5XiXiXiXiXiXiXiXiXiXiXiXiXiXiXoX5 ).).).).).).).).).^.pX",
"pX).).).).).).).).).).).).).).).).).).).).).).).).).).).).).).).).).X.A 5XiXiXiXiXiXiXiXiXiXiXiXiXiXiXoX5 ).).).).).).).).).^.pX",
"pX).).).).).).).).).).).).).).).).).).).).).).).).).).).).).).).).)...A 5XuXiXiXiXiXiXiXiXiXiXiXiXiXiXXX5 ).).).).).).).).).^.pX",
"pX).).).).).).).).).).).).).).).).).).).).).).).).).).).).).).).).)...A 5XuXiXiXiXiXiXiXiXiXiXiXiXiXiXXX5 ).).).).).).).).).^.pX",
"pX).).).).).).).).).).).).).^.`.).).).).).).).).).).).).).).).).).)...A 5XiXiXiXiXiXiXiXiXiXiXiXiXiXiXXX5 ).).).).).).).).).^.pX",
"pX).).).).).).).).).).).).).`.^.).).).).).).).^.).).).).).).).).).)...A 5XiXiXiXiXiXiXiXiXiXiXiXiXiXiXXX5 ).).).).).).).).).^.pX",
"pX).).).).).).).).).).).^.^.^.^.).^.^.).^.).).^.).^.^.^.).).).).).)...A 5XiXiXiXiXiXiXiXiXiXiXiXiXiXiXoX8 ).).).).).).).).).^.pX",
"pX).).).).).).).^.b.' _ _ _ _ _ _ _ _ _ _ _ _ _ _ ' F.^.).).).).).)...A 5XiXiXiXiXiXiXiXiXiXiXiXiXiXiXoX5 ).).).).).).).).).^.pX",
"pX).).).).).^.^.J.k F 5.5.5.5.5.5.5.5.5.5.5.5.5.4.b / ).).).).).).)...A 5XiXiXiXiXiXiXiXiXiXiXiXiXiXiXoX5 ).).).).).).).).).^.pX",
"pX).).).).).`.^.J.j g.yXiXiXiXiXiXuXuXuXiXiXiXuXuX7.~ ).).).).).).)...S 8XiXiXiXiXiXiXiXiXiXiXiXiXiXiXXX5 ^.).).).).).).).).^.pX",
"pX).).).).).).).J.k s.iXiXiXiXiXiXiXiXiXiXiXiXiXiX8.c ^.`.^.).).).)...H iXiXiXiXiXiXiXiXiXiXiXiXiXiXuX X7 ).).).).).).).).).^.pX",
"pX).).).).).).).P.c e.iXiXiXiXiXiXiXiXiXiXiXiXiXiXu.+ E.).`.).^.).).c K iXiXiXiXiXiXiXiXiXiXiXiXiXiXiXl.d ).).).).).).).).).^.pX",
"pX).).).).).).).^./ 1.uXiXiXiXiXiXiXiXiXiXiXiXiXiX'.X b.).^.).^.^.F.O a.iXiXiXiXiXiXiXiXiXiXiXiXiXiXuXh.y W.).).).).).).).).^.pX",
"pX).).).).).).).^.[ B uXiXiXiXiXiXiXiXiXiXiXiXiXiXiXK a M.J.E.U.Z./ q ,XiXiXiXiXiXiXiXiXiXiXiXiXiXiXuXp.! ^.).).).).).).).).^.pX",
"pX).).).).).).).).*.# 8XiXiXiXiXiXiXiXiXiXiXiXiXiXiX2X>.> s j f - D @XiXiXiXiXiXiXiXiXiXiXiXiXiXiXiXiX:.| ^.).).).).).).).).^.pX",
"pX).).).).).).).^.V.  '.iXiXiXiXiXiXiXiXiXiXiXiXiXiXyXiX-Xu.r.y.|.uXiXiXiXiXiXiXiXiXiXiXiXiXiXiXiXiXuXM x.).).).).).).).).).^.pX",
"pX).).).).).).).).U.; 8.uXiXiXiXiXiXiXiXiXiXiXiXiXiXiXiXiXiXiXiXiXiXiXiXiXiXiXiXiXiXiXiXiXiXiXiXiXiX@X- Z.^.).).).).).).).).^.pX",
"pX).).).).).).).^.^.O.N ,XiXiXiXiXiXiXiXiXiXiXiXiXiXiXiXiXiXiXiXiXiXiXiXiXiXiXiXiXiXiXiXiXiXiXiXiXuXI k E.).).).).).).).).).^.pX",
"pX).).).).).).).).).U., j.iXiXiXiXiXiXiXiXiXiXiXiXiXiXiXiXiXiXiXiXiXiXiXiXiXiXiXiXiXiXiXiXiXiXiXuX@Xo -.).).).).).).).).).).^.pX",
"pX).).).).).).).).).^...A qXiXiXiXiXiXiXiXiXiXiXiXiXiXiXiXiXiXiXiXiXiXiXiXiXiXiXiXiXiXiXiXiXiXiX8X1.p U.).).).).).).).).).).^.pX",
"pX).).).).).).).).).).S.e w.uXiXiXiXiXiXiXiXiXiXiXiXiXiXiXiXiXiXiXiXiXiXiXiXiXiXiXiXiXiXiXiXiXiX{.& Z.`.).).).).).).).).).).^.pX",
"pX).).).).).).).).).).).*.@ g.eXiXiXiXiXiXiXiXiXiXiXiXiXiXiXiXiXiXiXiXiXiXiXiXiXiXiXiXiXiXiXuX%Xq { ^.`.).).).).).).).).).).^.pX",
"pX).).).).).).).).).).).E.O.6 k.uXuXuXiXiXiXiXiXiXiXiXiXiXiXiXiXiXiXiXiXiXiXiXiXiXiXiXiXiXiXOXm W F.).).).).).).).).).).).).).pX",
"pX).).).).).).).).).).).^.^.|   d.wXuXiXiXiXiXiXiXiXiXiXiXiXiXiXiXiXiXiXiXiXiXiXiXiXiXuXeX%X6 k ^.).).).).).).).).).).).).).).pX",
"pX).).).).).).).).).).).^.`.E.#.y U {.yXiXiXiXiXiXiXiXiXiXiXiXiXiXiXiXiXiXiXiXiXuXuXuX&X0.& ] J.).).).).).).).).).).).).).).^.pX",
"pX^.).).).).).).).).).).`.^.^.E.Z.c 1 L  XuXuXyXiXiXiXiXiXiXiXiXiXiXiXiXiXiXiXuXuX&X7.6 d b.U.).).).).).).).).).).).).).).`.^.pX",
"pX^.).).).).).).).).).).).).).).).).c.j $ w e.l.&X>X3X8XeXyXuXuXuXeXeX5X,X-X Xu.Z % e $.U.^.).).).).).).).).).).).).).).).).^.pX",
"pX^.).).).).).).).).).).).).).).).).).E.N.$./ y 8 m F U >.2.4.5.3.1.U J N w p c O.b.J.^.`.^.).).).).).).).).).).).).).).).).).pX",
"pX`.`.).).).).).).).).).).).).).).).).).(.(.!.T.J.V.*.| _ c j j c / [ #.b.J.J.U.^.).).).).).).).).).).).).).).).).).).).).).).pX",
"pXpX^.).).).).).).).).).).).).).).).).).(.(.(.`.`.^.).).).`.).).).).).).).).).).).).).).).).).).).).).).).).).).).).).).).).pXpX",
"pXpX^.).).).).).).).).).).).).).).).).).).).).).^.`.^.`.).).).).).).).).).).).).).).).).).).).).).).).).).).).).).).).).).^.pXpX",
"pXpXpX^.).).).).^.^.^.^.^.^.^.^.^.^.^.^.^.^.^.^.^.^.^.^.^.^.^.^.^.^.^.^.).^.^.^.^.^.^.^.^.^.^.^.^.^.^.^.^.^.^.^.).).).).).pXpXpX",
"pXpXpXpXpXpXpXpXpXpXpXpXpXpXpXpXpXpXpXpXpXpXpXpXpXpXpXpXpXpXpXpXpXpXpXpXpXpXpXpXpXpXpXpXpXpXpXpXpXpXpXpXpXpXpXpXpXpXpXpXpXpXpXpX",
"pXpXpXpXpXpXpXpXpXpXpXpXpXpXpXpXpXpXpXpXpXpXpXpXpXpXpXpXpXpXpXpXpXpXpXpXpXpXpXpXpXpXpXpXpXpXpXpXpXpXpXpXpXpXpXpXpXpXpXpXpXpXpXpX"
};
