/* XPM */
static char *radar_weapon[] = {
/* columns rows colors chars-per-pixel */
"64 64 139 2 ",
"   c #040404",
".  c gray2",
"X  c #060606",
"o  c #070707",
"O  c gray3",
"+  c #090909",
"@  c gray4",
"#  c #0B0B0B",
"$  c #0C0C0C",
"%  c gray5",
"&  c #0E0E0E",
"*  c gray6",
"=  c #101010",
"-  c #111111",
";  c gray7",
":  c #131313",
">  c gray8",
",  c #151515",
"<  c #161616",
"1  c gray9",
"2  c #181818",
"3  c #191919",
"4  c gray10",
"5  c #1B1B1B",
"6  c gray11",
"7  c #1D1D1D",
"8  c #1E1E1E",
"9  c gray12",
"0  c #202020",
"q  c gray13",
"w  c #222222",
"e  c #232323",
"r  c gray14",
"t  c #252525",
"y  c gray15",
"u  c #272727",
"i  c #282828",
"p  c gray16",
"a  c #29292A",
"s  c #2A2A2A",
"d  c gray17",
"f  c #2C2C2C",
"g  c #2D2D2D",
"h  c gray18",
"j  c #2F2F2F",
"k  c gray19",
"l  c #313131",
"z  c #323232",
"x  c gray20",
"c  c #343434",
"v  c #353535",
"b  c gray21",
"n  c #373737",
"m  c gray22",
"M  c #393939",
"N  c #3A3A3A",
"B  c gray23",
"V  c #3C3C3C",
"C  c gray24",
"Z  c #3E3E3E",
"A  c #3F3F3F",
"S  c gray25",
"D  c #414141",
"F  c gray26",
"G  c #434343",
"H  c #444444",
"J  c gray27",
"K  c #464646",
"L  c gray28",
"P  c #484848",
"I  c #494949",
"U  c gray29",
"Y  c #4B4B4B",
"T  c #4C4C4C",
"R  c gray30",
"E  c #4E4E4E",
"W  c gray31",
"Q  c #505050",
"!  c #515151",
"~  c gray32",
"^  c #535353",
"/  c gray33",
"(  c #555555",
")  c #565656",
"_  c gray34",
"`  c gray35",
"'  c #5A5A5A",
"]  c gray36",
"[  c #5D5D5D",
"{  c gray37",
"}  c #5F5F5F",
"|  c #606060",
" . c gray38",
".. c #626262",
"X. c gray39",
"o. c #646464",
"O. c #656565",
"+. c gray40",
"@. c #676767",
"#. c #686868",
"$. c DimGray",
"%. c #6A6A6A",
"&. c gray42",
"*. c #6D6D6D",
"=. c gray43",
"-. c #6F6F6F",
";. c gray44",
":. c #717171",
">. c #727272",
",. c gray45",
"<. c #747474",
"1. c gray46",
"2. c #767676",
"3. c #797979",
"4. c gray48",
"5. c #7B7B7B",
"6. c #7C7C7C",
"7. c gray49",
"8. c #7E7E7E",
"9. c gray50",
"0. c #808080",
"q. c #818181",
"w. c gray51",
"e. c #838383",
"r. c #848484",
"t. c gray52",
"y. c #868686",
"u. c #868687",
"i. c gray53",
"p. c #8B8B8B",
"a. c gray55",
"s. c gray60",
"d. c #9D9D9D",
"f. c gray65",
"g. c #ACACAC",
"h. c gray68",
"j. c #AEAEAE",
"k. c gray71",
"l. c None",
/* pixels */
"l.l.l.l.l.l.l.l.l.l.l.l.l.l.l.l.l.l.l.l.l.l.l.l.l.l.l.l.l.l.l.l.l.l.l.l.l.l.l.l.l.l.l.l.l.l.l.l.l.l.l.l.l.l.l.l.l.l.l.l.l.l.l.l.",
"l.l.l.i.i.i.i.i.i.i.i.i.i.i.i.i.i.i.i.i.i.i.i.i.i.i.i.i.i.i.i.i.i.i.i.i.i.i.i.i.i.i.i.i.i.i.i.i.i.i.i.i.i.i.i.i.i.i.i.i.i.l.l.l.",
"l.l.i.i.i.i.i.i.i.i.i.i.i.i.i.i.i.i.i.i.i.i.i.i.i.i.i.i.i.i.i.i.i.i.i.i.i.i.i.i.i.i.i.i.i.i.i.i.i.i.i.i.i.i.i.i.i.i.i.i.i.i.l.l.",
"l.l.i.i.i.i.i.i.i.i.i.i.i.i.i.i.i.i.i.i.i.i.i.i.i.i.i.i.i.i.i.i.i.i.i.i.i.i.i.i.i.i.i.i.i.i.i.i.i.i.i.i.i.i.i.i.i.i.i.i.i.i.i.l.",
"l.i.i.i.i.i.i.i.i.i.i.i.i.i.i.i.i.i.i.i.i.i.i.p.i.i.i.i.i.i.i.i.i.i.i.i.i.i.i.i.i.i.i.i.i.i.i.i.i.i.i.i.i.i.i.i.i.i.i.i.i.i.i.l.",
"l.i.i.i.i.i.i.i.i.i.i.i.i.i.i.i.i.i.i.i.i.i.i.u.i.i.i.p.i.i.i.i.i.i.i.i.i.i.i.i.i.p.i.i.i.i.i.i.i.i.i.i.i.i.i.i.i.i.i.i.i.i.i.l.",
"l.i.i.i.i.i. .B V V B B B V B B V B V D D D D D D D J D V D D D D D D D D V D D G D D D V V V V B B B B B B x x i e J { i.i.i.l.",
"l.i.i.i.i.i.x % 4 % + + + + + + % + + % > > 4 > > > 4 > % % % % % ; ; ; ; ; % % % % % % + # + + + + + o o o o + o + 7 Q i.i.i.l.",
"l.i.i.i.i.i.h o o o o o o o o + + + + + + + + + + + + + o o + + + + + + + o + o + o o o o o o o o     o o o o + o o % I p.i.i.l.",
"l.i.i.i.i.p.V r > ; > > 4 4 4 4 i v x x x v v B B V V B v v x v v v B B v v x v v x h i i r r r r e 7 e e 7 e i h i r V i.i.i.l.",
"l.i.i.i.i.i.B 4 + + + % + % % + r v h x h v B V D V B V B D V V V B v B B D D V V x 7 e 7 e 7 7 7 4 7 4 > > > 4 > 7 h Q i.i.i.l.",
"l.i.i.i.i.i.x > + + + + + + + + 9 i r r u r i i x v x h h v x h h x h h x x x h i r 4 4 4 > 4 4 4 > > > > ; > ; > > 4 D i.i.i.l.",
"l.i.i.i.i.i.h > + + + o + + + + 7 i r r r r r r i h h i h i h u i h h h h i i r 9 9 7 7 > > 4 > 4 > > > > ; ; > ; > > v i.i.i.l.",
"l.i.i.i.i.i.h 7 + + o + + + + + 7 i r h r r i u h x h h h h r e i h h j h d r 7 7 7 4 4 4 4 > 4 > 4 > 4 > ; 4 > 4 7 ; J i.i.i.l.",
"l.i.i.i.i.i.e 4 % + + + + + + + 7 i u r e r r r i h i i r u e 7 i i d r r r e 4 7 7 7 4 > > 4 4 > 4 4 4 ; o + + + o o @.i.i.i.l.",
"l.i.i.i.i.i.7 h % + + + % + + + e x h i i h h i h x h r i i e 7 i h i i d i 7 4 4 > 4 > > > > > 4 > ; o   o o o   o o %.i.i.i.l.",
"l.i.i.i.i.e.2 r % + % + % % % % x J V V x v B h v B v x h e e e x v x x h 7 e e 4 4 4 4 4 4 4 7 7 > ; o o + % % % + + %.i.i.i.l.",
"l.i.i.i.i.3.r e 7 9 e e e e r r 4 4 V I J R Q D Y @.*.@.@.*.) B J  .%. .%.%.I v 4 % % % % % % % > V ) h 4 D R I J i % 2.i.i.i.l.",
"l.i.i.i.u.&.> ; v L J D J I I J 4 % ; 4 e R W 7 D s.k.h.g.p.D e R d.h.h.f.2.h 7 ; % % % % % % % 7 > 7 ; + ; ; ; ; > ; 3.i.i.i.l.",
"l.i.i.i.u.` # 7 + % % % ; 4 ; % + ; ; ; ; i )  .%.a.e.Q V B r r ) 7.,.I V v 4 ; % + % % % % ; % % o o o o o o o o o 4 i.i.i.i.l.",
"l.i.i.i.u. .4 + o o o o o o o o o o o o ; B Q *.` h i h r % + 7 h r i h 7 + o o o o   o o o o o o o + + + + + + % > ` i.i.i.i.l.",
"l.i.i.i.p.i.i.R > % o o   o o + + % + o o o o + % 7 7 > > % + o % 7 e 4 o o o o o o o o + + % ; J ,.3.3.7.3.7.7.e.e.i.i.i.i.i.l.",
"l.i.i.i.i.i.i.f + + + + o o o + o o o + o o o + % > % o o o + o   o o o + { *.*.*.,.,.,.2.3.7.e.i.i.i.i.p.i.i.i.i.i.i.i.i.i.i.l.",
"l.i.i.i.i.i.i.e o o o o o o o + + o o > % o + + ; + o o r @.*.@.J % o o V i.p.i.i.i.i.i.i.i.i.i.i.i.i.i.i.i.i.i.i.i.i.i.i.i.i.l.",
"l.i.i.i.i.i.i.*.V ; o o o o + o o o o o o o o % + o o 4 { i.i.i.i. .; h 7.i.i.i.i.i.i.i.i.i.i.i.i.i.i.i.i.i.i.i.i.i.i.i.i.i.i.l.",
"l.i.i.i.i.i.i.i.i.2.> o + o o o + o o o   o + % % o + x e.i.i.i.i.i.V ) p.i.i.i.i.i.i.i.i.i.i.i.i.i.i.i.i.i.i.i.i.i.i.i.i.i.i.l.",
"l.i.i.i.i.i.i.i.i.i.@.+ + + o o o o o   o o % % % o ; D i.i.i.i.i.i.@.R i.i.i.i.i.i.i.i.i.i.i.i.i.i.i.i.i.i.i.i.i.i.i.i.i.i.i.l.",
"l.i.i.i.i.i.i.i.i.i.i.r o + o o o   o   o + % % > + ; R i.i.i.i.i.i.2.I i.i.i.i.i.i.i.i.i.i.i.i.i.i.i.i.i.i.i.i.i.i.i.i.i.i.i.l.",
"l.i.i.i.i.i.i.i.i.i.u.v + + o o o       o o % % 2 + ; J i.i.i.i.i.i.,.) i.i.i.i.i.i.i.i.i.i.i.i.i.i.i.i.i.i.i.i.i.i.i.i.i.i.i.l.",
"l.i.i.i.i.i.i.i.i.i.u.G + + o o   o o o o + % + % + ; B i.i.i.i.i.i. .@.i.i.i.i.i.i.i.i.i.i.i.i.i.i.i.i.i.i.i.i.i.i.i.i.i.i.i.l.",
"l.i.i.i.i.i.i.i.i.i.i.D # # + o   o o   o + % % + + ; i i.i.i.i.i.i.R e.i.i.i.i.i.i.i.i.i.i.i.i.i.i.i.i.i.i.i.i.i.i.i.i.i.i.i.l.",
"l.i.i.i.i.i.i.i.i.i.i.B + + o o o       o + % % + # % 4 3.i.i.i.i.3.R i.i.i.i.i.i.i.i.i.i.i.i.i.i.i.i.i.i.i.i.i.i.i.i.i.i.i.i.l.",
"l.i.i.i.i.i.i.i.i.i.i.e + o o   o     o + % % + + + + 4 ) i.i.i.7.I e.i.i.i.i.i.i.i.i.i.i.i.i.i.i.i.i.i.i.i.i.i.i.i.i.i.i.i.i.l.",
"l.i.i.i.i.i.i.i.i.i.3.% + o o     o     o % % ; % + % 4 i { { J I 7.i.i.i.i.i.i.i.i.i.i.i.i.i.i.i.i.i.i.i.i.i.i.i.i.i.i.i.i.i.l.",
"l.i.i.i.i.i.i.i.i.i.` % + + o     o o   + % % % x `  . . .@.*.e.i.i.i.i.i.i.i.i.i.i.i.i.i.i.i.i.i.i.i.i.i.i.i.i.i.i.i.e.i.i.i.l.",
"l.i.i.i.i.i.i.i.i.i.v + + o o   o   o o + % + h e.p.i.i.i.i.i.i.p.i.i.i.i.i.i.i.i.i.i.i.i.i.i.i.i.i.i.i.i.i.i.i.i.i.i.i.i.i.i.l.",
"l.i.i.i.i.i.i.i.i.7.4 ; o o     o o     + % + @.i.i.i.i.i.i.i.i.i.i.i.i.i.i.i.i.i.i.i.i.i.i.i.i.i.i.i.i.i.i.i.i.i.i.i.i.i.i.i.l.",
"l.i.i.i.i.i.i.i.i.,.> % o o o     o o   + % > e.i.i.i.i.i.i.i.i.i.i.i.i.i.i.i.i.i.i.i.i.i.i.i.i.i.i.i.i.i.i.i.i.i.i.i.i.i.i.i.l.",
"l.i.i.i.i.i.i.i.i.e.4 + o     o o o   o + % x i.i.i.i.i.i.i.i.i.i.i.i.i.i.i.i.i.i.i.i.i.i.i.i.i.i.i.i.i.i.i.i.i.i.i.i.i.i.i.i.l.",
"l.i.i.i.i.i.i.i.i.e.% + o o           o % + R i.i.i.i.i.i.i.i.i.i.i.i.i.i.i.i.i.i.i.i.i.i.i.i.i.i.i.i.i.i.i.i.i.i.i.i.i.i.i.i.l.",
"l.i.i.i.i.i.i.i.i.*.+ o o   o o o   o o % + %.p.i.i.i.i.i.i.i.i.i.i.i.i.i.i.i.i.i.i.i.i.i.i.i.i.i.i.i.i.i.i.i.i.i.i.i.i.i.i.i.l.",
"l.i.i.i.i.i.i.i.p.Q + o   o   o o   o + % ; 7.i.i.i.i.i.i.i.i.i.i.i.i.i.i.i.i.i.i.i.i.i.i.i.i.i.i.i.i.i.i.i.i.i.i.i.i.i.i.i.i.l.",
"l.i.i.i.i.i.i.i.i.i o o   o o o o o   + ; 7 i.i.i.i.i.i.i.i.i.i.i.i.i.i.i.i.i.i.i.i.i.i.i.i.i.i.i.i.i.i.i.i.i.i.i.i.i.e.i.i.i.l.",
"l.i.i.i.i.i.i.i.e.% o o + + o         + % v i.i.i.i.i.i.i.i.i.i.i.i.i.i.i.i.i.i.i.i.i.i.i.i.i.i.i.i.i.i.i.i.i.i.i.i.i.i.i.i.i.l.",
"l.i.i.i.i.i.i.i. .+ o o % o o   o   o % + Q i.i.i.i.i.i.i.i.i.i.i.i.i.i.i.i.i.i.i.i.i.i.i.i.i.i.i.i.i.i.i.i.i.i.i.i.i.i.i.i.i.l.",
"l.i.i.i.i.i.i.i.V o o o o o o o o   o % + %.i.i.i.i.i.i.i.i.i.i.i.i.i.i.i.i.i.i.i.i.i.i.i.i.i.i.i.i.i.i.i.i.i.i.i.i.i.i.i.i.i.l.",
"l.i.i.i.i.i.i.i.r + o   o o   o   o o ; % 3.i.i.i.i.i.i.i.i.i.i.i.i.i.i.i.i.i.i.i.i.i.i.i.i.i.i.i.i.i.i.i.i.i.i.i.i.i.i.i.i.i.l.",
"l.i.i.i.i.i.i.6.%   o o     o o   o o ; 4 i.i.i.i.i.i.i.i.i.i.i.i.i.i.i.i.i.i.i.i.i.i.i.i.i.i.i.i.i.i.i.i.i.i.i.i.i.i.i.i.i.i.l.",
"l.i.i.i.i.i.i. .+ o o   o o o o o o o % x i.i.i.i.i.i.i.i.i.i.i.i.i.i.i.i.i.i.i.i.i.i.i.i.i.i.i.i.i.i.i.i.i.i.i.i.i.i.i.i.i.i.l.",
"l.i.i.i.i.i.i.D o o   o           o + + I i.i.i.i.i.i.i.i.i.i.i.i.i.i.i.i.i.i.i.i.i.i.i.i.i.i.i.i.i.i.i.i.i.i.i.i.i.i.i.i.i.i.l.",
"l.i.i.e.i.i.p.r o             o o   % + { i.i.i.i.i.i.i.i.i.i.i.i.i.i.i.i.i.i.i.i.i.i.i.i.i.i.i.i.i.i.i.i.i.i.i.i.i.i.e.i.i.i.l.",
"l.i.i.i.i.i.i.> o o o   o o     o o % + ,.i.i.i.i.i.i.i.i.i.i.i.i.i.i.i.i.i.i.i.i.i.i.i.i.i.i.i.i.i.i.i.i.i.i.i.i.i.i.i.i.i.i.l.",
"l.i.i.i.i.i.i.% o   o     o   o   o + % e.i.i.i.i.i.i.i.i.i.i.i.i.i.i.i.i.i.i.i.i.i.i.i.i.i.i.i.i.i.i.i.i.i.i.i.i.i.i.e.i.i.i.l.",
"l.i.i.i.i.i.i.; o o     + o     o o + e i.i.i.i.i.i.i.i.i.i.i.i.i.i.i.i.i.i.i.i.i.i.i.i.i.i.i.i.i.i.i.i.i.i.i.i.i.i.i.i.i.i.i.l.",
"l.i.i.i.i.i.i.7 o o     > +   o o + + v i.i.i.i.i.i.i.i.i.i.i.i.i.i.i.i.i.i.i.i.i.i.i.i.i.i.i.i.i.i.i.i.i.i.i.i.i.i.i.i.i.i.i.l.",
"l.i.i.i.i.i.i.B e ; o o o       o + % D i.i.i.i.i.i.i.i.i.i.i.i.i.i.i.i.i.i.i.i.i.i.i.i.i.i.i.i.i.i.i.i.i.i.i.i.i.i.i.i.i.i.i.l.",
"l.i.i.i.i.i.i.i.i.i.7.` v > + o o % + J i.i.i.i.i.i.i.i.i.i.i.i.i.i.i.i.i.i.i.i.i.i.i.i.i.i.i.i.i.i.i.i.i.i.i.i.i.i.i.i.i.i.i.l.",
"l.i.i.i.i.i.i.i.i.i.i.i.p.i.3.,.@.{ D D i.i.i.i.i.i.i.i.i.i.i.i.i.i.i.i.i.i.i.i.i.i.i.i.i.i.i.i.i.i.i.i.i.i.i.i.i.i.i.i.i.i.i.l.",
"l.i.i.e.i.i.i.i.i.i.i.i.i.i.i.i.i.i.i.i.i.i.i.i.i.i.i.i.i.i.i.i.i.i.i.i.i.i.i.i.i.i.i.i.i.i.i.i.i.i.i.i.i.i.i.i.i.i.i.i.i.i.i.l.",
"l.l.i.i.i.i.i.i.i.i.i.i.i.i.i.i.i.i.i.i.i.i.i.i.i.i.i.i.i.i.i.i.i.i.i.i.i.i.i.i.i.i.i.i.i.i.i.i.i.i.i.i.i.i.i.i.i.i.i.i.i.i.i.l.",
"l.l.i.i.i.i.i.i.i.i.i.i.i.i.i.i.i.i.i.i.i.i.i.i.i.i.i.i.i.i.i.i.i.i.i.i.i.i.i.i.i.i.i.i.i.i.i.i.i.i.i.i.i.i.i.i.i.i.i.i.i.i.i.l.",
"l.l.l.i.i.i.i.i.i.i.i.i.i.i.i.i.i.i.i.i.i.i.i.i.i.i.i.i.i.i.i.i.i.i.i.i.i.i.i.i.i.i.i.i.i.i.i.i.i.i.i.i.i.i.i.i.i.i.i.i.i.i.l.l.",
"l.l.l.l.l.l.l.l.l.l.l.l.l.l.l.l.l.l.l.l.l.l.l.l.l.l.l.l.l.l.l.l.l.l.l.l.l.l.l.l.l.l.l.l.l.l.l.l.l.l.l.l.l.l.l.l.l.l.l.l.l.l.l.l.",
"l.l.l.l.l.l.l.l.l.l.l.l.l.l.l.l.l.l.l.l.l.l.l.l.l.l.l.l.l.l.l.l.l.l.l.l.l.l.l.l.l.l.l.l.l.l.l.l.l.l.l.l.l.l.l.l.l.l.l.l.l.l.l.l."
};
