/* XPM */
static char *radar_cat[] = {
/* columns rows colors chars-per-pixel */
"64 64 122 2 ",
"   c #060705",
".  c #080705",
"X  c #090906",
"o  c #000608",
"O  c #020A0D",
"+  c #0E0F0A",
"@  c #100F0A",
"#  c #0F100C",
"$  c #13130D",
"%  c #030E12",
"&  c #021115",
"*  c #0F1411",
"=  c #02151B",
"-  c #091719",
";  c #04181E",
":  c #0B1B1D",
">  c #161610",
",  c #181610",
"<  c #141915",
"1  c #181B15",
"2  c #141E1B",
"3  c #16211E",
"4  c #1E241C",
"5  c #232217",
"6  c #24261C",
"7  c #25281E",
"8  c #2B2B1E",
"9  c #011A23",
"0  c #0A1D21",
"q  c #001E2A",
"w  c #062027",
"e  c #01212C",
"r  c #132120",
"t  c #002632",
"y  c #002836",
"u  c #002E3E",
"i  c #262B21",
"p  c #2D2D21",
"a  c #343223",
"s  c #3B3927",
"d  c #3D3C2A",
"f  c #413F2B",
"g  c #44422E",
"h  c #484630",
"j  c #4C4B34",
"k  c #514F36",
"l  c #555339",
"z  c #58553B",
"x  c #5D5A3E",
"c  c #003244",
"v  c #00374A",
"b  c #00394D",
"n  c #003E52",
"m  c #004156",
"M  c #00455D",
"N  c #004C65",
"B  c #004E69",
"V  c #00516C",
"C  c #005471",
"Z  c #005977",
"A  c #005B7A",
"S  c #5F5C40",
"D  c #605E41",
"F  c #676345",
"G  c #696646",
"H  c #6D6A49",
"J  c #787550",
"K  c #7C7853",
"L  c #817D57",
"P  c #837F58",
"I  c #86825A",
"U  c #8A865D",
"Y  c #8C895E",
"T  c #938F63",
"R  c #969365",
"E  c #999467",
"W  c #9B9768",
"Q  c #9E996A",
"!  c #A19D6C",
"~  c #A5A16F",
"^  c #A6A170",
"/  c #ABA673",
"(  c #AFAA76",
")  c #B2AD77",
"_  c #B3AF79",
"`  c #B6B17B",
"'  c #B9B47D",
"]  c #006385",
"[  c #006689",
"{  c #00698D",
"}  c #006D93",
"|  c #007197",
" . c #00759C",
".. c #0077A0",
"X. c #007AA4",
"o. c #007EA9",
"O. c #0081AD",
"+. c #0085B2",
"@. c #0089B7",
"#. c #008CBB",
"$. c #008FC0",
"%. c #0092C3",
"&. c #BFB980",
"*. c #C2BC82",
"=. c #C6C185",
"-. c #CBC689",
";. c #CEC88A",
":. c #D3CD8E",
">. c #D7D191",
",. c #DAD493",
"<. c #DED896",
"1. c #E2DC98",
"2. c #E6E09B",
"3. c #EAE49E",
"4. c #EEE7A0",
"5. c #EFE9A1",
"6. c #F2ECA3",
"7. c #F7F0A6",
"8. c #F8F1A7",
"9. c #FDF6AA",
"0. c #FFF8AC",
"q. c None",
/* pixels */
"q.q.q.q.q.q.q.q.q.q.q.q.q.q.q.q.q.q.q.q.q.q.q.q.q.q.q.q.q.q.q.q.q.q.q.q.q.q.q.q.q.q.q.q.q.q.q.q.q.q.q.q.q.q.q.q.q.q.q.q.q.q.q.q.",
"q.q.q.q.%.%.%.%.%.%.%.%.%.%.%.%.%.%.%.%.%.%.%.%.%.%.%.%.%.%.%.%.%.%.%.%.%.%.%.%.%.%.%.%.%.%.%.%.%.%.%.%.%.%.%.%.%.%.%.%.q.q.q.q.",
"q.q.%.%.%.%.%.%.%.%.%.%.%.%.%.%.%.%.%.%.%.%.%.%.%.%.%.%.%.%.%.%.%.%.%.%.%.%.%.%.%.%.%.%.%.%.%.%.%.%.%.%.%.%.%.%.%.%.%.%.%.%.q.q.",
"q.q.%.%.%.%.%.%.%.%.%.%.%.%.%.%.%.%.%.%.%.%.%.%.%.%.%.%.%.%.%.%.%.%.%.%.%.%.%.%.%.%.%.%.%.%.%.%.%.%.%.%.%.%.%.%.%.%.%.%.%.%.q.q.",
"q.q.%.%.%.%.%.%.%.%.%.%.%.%.%.%.%.%.%.%.%.%.%.%.%.%.%.%.%.#.O.........O.#.%.%.%.%.%.%.%.%.%.%.%.%.%.%.%.%.%.%.%.%.%.%.%.%.%.%.q.",
"q.%.%.%.%.%.%.%.%.%.%.%.%.%.%.%.%.%.%.%.%.%.#.#.o.Z v q O . .   . . . .   & e m ] O.#.#.%.%.%.%.%.%.%.%.%.%.%.%.%.%.%.%.%.%.%.q.",
"q.%.%.%.%.%.%.%.%.%.%.%.%.%.%.%.%.%.%.#. .C c 0 8 j F L E / ` *.=.=.*.` / E K D g 4 e m ] O.%.%.%.%.%.%.%.%.%.%.%.%.%.%.%.%.%.q.",
"q.%.%.%.%.%.%.%.%.%.%.%.%.%.%.%.%.%. .u % 8 I -.1.5.8.9.0.0.0.0.0.0.0.0.9.0.0.8.3.,.' D * ; N @.%.%.%.%.%.%.%.%.%.%.%.%.%.%.%.q.",
"q.%.%.%.%.%.%.%.%.%.%.%.%.%.%.%...v > j *.9.0.0.0.0.0.0.0.0.0.0.0.0.0.0.0.0.0.0.0.0.0.0.3.U 8 = A @.%.%.%.%.%.%.%.%.%.%.%.%.%.q.",
"q.%.%.%.%.%.%.%.%.%.%.%.%.%.@.V : x &.7.0.0.0.0.0.0.0.0.0.0.0.0.0.0.0.0.0.0.0.0.0.0.0.0.0.0.1.R i c X.%.%.%.%.%.%.%.%.%.%.%.%.q.",
"q.%.%.%.%.%.%.%.%.%.%.%.%.#.c + ( 7.0.0.0.0.0.0.0.0.0.0.0.0.0.0.0.0.0.0.0.0.0.0.0.0.0.0.0.0.0.0.1.j O { %.%.%.%.%.%.%.%.%.%.%.q.",
"q.%.%.%.%.%.%.%.%.%.%.%.o.y d ;.0.0.0.0.0.0.0.0.0.0.0.0.0.0.0.0.0.0.0.0.0.0.0.0.0.0.0.0.0.0.0.0.0.5.H : ] %.%.%.%.%.%.%.%.%.%.q.",
"q.%.%.%.%.%.%.%.%.%.%.O.y g ,.9.0.0.0.0.0.0.0.0.0.0.0.0.0.0.0.0.0.0.0.0.0.0.0.0.0.0.0.0.0.0.0.0.0.0.8.Y : { %.%.%.%.%.%.%.%.%.q.",
"q.%.%.%.%.%.%.%.%.%.$.b a 8.0.0.0.0.0.0.0.0.0.0.0.0.0.0.0.0.0.0.0.0.0.0.0.0.0.0.0.0.0.0.0.0.0.0.0.0.0.9.H O X.%.%.%.%.%.%.%.%.q.",
"q.%.%.%.%.%.%.%.%.%.V 6 ;.0.0.0.0.0.0.0.0.0.0.0.0.0.0.0.0.0.0.0.0.0.0.0.0.0.0.0.0.0.0.0.0.0.0.0.0.0.0.0.5.j c #.%.%.%.%.%.%.%.q.",
"q.%.%.%.%.%.%.%.%.| O E 9.0.0.0.0.0.0.0.0.0.0.0.0.0.0.0.0.0.0.0.0.0.0.0.0.0.0.0.0.0.0.0.0.0.0.0.0.0.0.0.0.1.6 [ %.%.%.%.%.%.%.q.",
"q.%.%.%.%.%.%.%.#.c g 9.0.0.0.0.0.0.0.0.0.0.0.0.0.0.0.0.0.0.0.0.0.0.0.9.0.0.0.0.0.0.0.0.0.0.0.0.0.0.0.0.0.9.Y ; #.%.%.%.%.%.%.q.",
"q.%.%.%.%.%.%.%. .3 >.0.0.0.0.0.0.0.0.0.0.0.0.0.0.0.0.0.0.0.0.0.9.9.0.9.0.0.0.0.0.0.0.0.0.0.0.0.0.0.0.0.0.0.<.5 V %.%.%.%.%.%.q.",
"q.%.%.%.%.%.%.%.b G 8.0.0.0.0.0.0.0.0.0.0.0.0.0.0.0.0.0.9.W h , # @ > j _ 0.9.0.0.0.0.0.0.0.0.0.0.0.0.0.0.0.9.J 9 @.%.%.%.%.%.q.",
"q.%.%.%.%.%.%.+.# ) 0.0.0.0.0.0.0.0.0.0.0.0.0.0.0.0.7.^ i q c V A A B c 9 a ) 8.0.0.0.0.0.0.0.0.0.0.0.0.0.0.0.<.& } %.%.%.%.%.q.",
"q.%.%.%.%.%.%.V 6 3.0.0.0.0.0.0.0.0.0.0.0.0.0.0.9.7.G : Z O.%.%.%.%.%.$.o.C 2 R 0.0.0.0.0.0.0.0.0.0.0.0.0.0.0.9.d V $.%.%.%.%.q.",
"q.%.%.%.%.%.#.e H 0.0.0.0.0.0.0.0.0.0.0.0.0.0.0.9.R   } %.%.%.%.%.%.%.%.%.%.A o -.0.0.0.0.0.0.0.0.0.0.0.0.0.0.0.U c #.%.%.%.%.q.",
"q.%.%.%.%.%.X.= ' 0.0.0.0.0.0.0.0.0.0.0.0.0.0.0.1.i Z %.%.%.%.%.%.%.%.%.%.%.#.c d 4.0.0.0.0.0.0.0.0.0.0.0.0.0.0.*.e #.%.%.%.%.q.",
"q.%.%.%.%.%.[ O 7.0.0.0.0.0.0.0.0.0.0.0.0.0.0.0.R e #.%.%.%.%.%.%.%.%.%.%.%.%.O.$ ' 0.0.0.0.0.0.0.0.0.0.0.0.0.0.>.3 #.%.%.%.%.q.",
"q.%.%.%.%.%.C d 0.0.0.0.0.0.0.0.0.0.0.0.0.0.0.0.d V %.%.%.%.%.%.%.%.%.%.%.%.%.%.u Y 9.0.0.0.0.0.0.0.0.0.0.0.0.0.1.8 +.%.%.%.%.q.",
"q.%.%.%.%.%.m H 0.0.0.0.0.0.0.0.0.0.0.0.0.0.0.8.% { #.%.%.%.%.%.%.%.%.%.%.%.%.%.M S 8.0.0.0.0.0.0.0.0.0.0.0.0.0.1.a  .%.%.%.%.q.",
"q.%.%.%.%.#.u E 0.0.0.0.0.0.0.0.0.0.0.0.0.0.0.' &  .%.%.%.%.%.%.%.%.%.%.%.%.%.%.[ j 7.0.0.0.0.0.0.0.0.0.0.0.9.0.3.s [ %.%.%.%.q.",
"q.%.%.%.%.#.t ' 0.0.0.0.0.0.0.0.0.0.0.0.0.0.0.Q 9 #.%.%.%.%.%.%.%.%.%.%.%.%.%.%.} a / ( ( ( ( ( ( ( ( ( ( ( ( ) ! 8 } %.%.%.%.q.",
"q.%.%.%.%.#.9 ;.0.0.0.0.0.0.0.0.0.0.0.0.0.0.0.E 9 #.%.%.%.%.%.%.%.%.%.%.%.%.%.%.+.b c u u u u c c u u u u c u u u n @.%.%.%.%.q.",
"q.%.%.%.%.#.w :.0.0.0.0.0.0.0.0.0.0.0.0.0.0.0.E 9 #.%.%.%.%.%.%.%.%.%.%.%.%.%.%.%.%.%.%.%.%.%.%.%.%.%.%.%.%.%.%.%.%.%.%.%.%.%.q.",
"q.%.%.%.%.#.3 >.0.0.0.0.0.0.0.0.0.0.0.0.0.0.0.E 9 %.%.%.%.%.%.%.%.%.%.%.%.%.%.%.%.%.%.%.%.%.%.%.%.%.%.%.%.%.%.%.%.%.%.%.%.%.%.q.",
"q.%.%.%.%.#.3 >.0.0.0.0.0.0.0.0.0.0.0.0.0.0.0.E 9 %.%.%.%.%.%.%.%.%.%.%.%.%.%.%.%.%.%.%.%.%.%.%.%.%.%.%.%.%.%.%.%.%.%.%.%.%.%.q.",
"q.%.%.%.%.@.3 ,.0.0.0.0.0.0.0.0.0.0.0.0.0.0.0.E 9 $.%.%.%.%.%.%.%.%.%.%.%.%.%.%.%.%.%.%.%.%.%.%.%.%.%.%.%.%.%.%.%.%.%.%.%.%.%.q.",
"q.%.%.%.%.#.3 >.0.0.0.0.0.0.0.0.0.0.0.0.0.0.0.E 9 %.%.%.%.%.%.%.%.%.%.%.%.%.%.%.%.%.%.%.%.%.%.%.%.%.%.%.%.%.%.%.%.%.%.%.%.%.%.q.",
"q.%.%.%.%.#.w :.0.0.0.0.0.0.0.0.0.0.0.0.0.0.0.E 9 #.%.%.%.%.%.%.%.%.%.%.%.%.%.%.%.%.%.%.%.%.%.%.%.%.%.%.%.%.%.%.%.%.%.%.%.%.%.q.",
"q.%.%.%.%.#.9 -.0.0.0.0.0.0.0.0.0.0.0.0.0.0.9.W 9 $.%.%.%.%.%.%.%.%.%.%.%.%.%.%.%...[ [ ] [ ] ] ] ] ] [ ] [ ] [ ] { $.%.%.%.%.q.",
"q.%.%.%.%.#.y ' 0.0.0.0.0.0.0.0.0.0.0.0.0.0.0.! 9 @.%.%.%.%.%.%.%.%.%.%.%.%.%.%.+.y h z z z z z z z z z z z z z k 1 | %.%.%.%.q.",
"q.%.%.%.%.#.c E 0.0.0.0.0.0.0.0.0.0.0.0.0.0.0.' %  .%.%.%.%.%.%.%.%.%.%.%.%.%.%.+.q ,.9.0.0.0.0.0.9.0.0.0.0.0.0.3.d [ %.%.%.%.q.",
"q.%.%.%.%.#.m H 0.0.0.0.0.0.0.0.0.0.0.0.0.0.0.8.% { $.%.%.%.%.%.%.%.%.%.%.%.%.%.O.9 5.0.0.0.0.0.0.0.0.0.0.0.0.0.1.a } %.%.%.%.q.",
"q.%.%.%.%.%.C d 0.0.0.0.0.0.0.0.0.0.0.0.0.0.0.9.g B %.%.%.%.%.%.%.%.%.%.%.%.%.%...1 6.0.0.0.0.0.0.0.0.0.0.0.0.0.1.a O.%.%.%.%.q.",
"q.%.%.%.%.%.[ & 8.0.0.0.0.0.0.0.0.0.0.0.0.0.0.0.W e #.%.%.%.%.%.%.%.%.%.%.%.%.%.N l 8.0.0.0.0.0.0.0.0.0.0.0.0.0.<.4 @.%.%.%.%.q.",
"q.%.%.%.%.%.X.& ' 0.0.0.0.0.0.0.0.0.0.0.0.0.0.0.1.p C %.%.%.%.%.%.%.%.%.%.%.%.o.- Q 9.0.0.0.0.0.0.0.0.0.0.0.0.0.:.9 #.%.%.%.%.q.",
"q.%.%.%.%.%.%.q H 0.0.0.0.0.0.0.0.0.0.0.0.0.0.0.9.R   } %.%.%.%.%.%.%.%.%.%.#.e a 6.0.0.0.0.0.0.0.0.0.0.0.0.0.0.~ u #.%.%.%.%.q.",
"q.%.%.%.%.%.%.B 6 3.0.0.0.0.0.0.0.0.0.0.0.0.0.0.0.9.H : Z O.%.%.%.%.%.%.+.} y a <.0.0.0.0.0.0.0.0.0.0.0.0.0.0.0.x m #.%.%.%.%.q.",
"q.%.%.%.%.%.%.+.* ) 9.0.0.0.0.0.0.0.0.0.0.0.0.0.0.0.8.~ i 9 b C ] A C n e & H <.0.0.0.0.0.0.0.0.0.0.0.0.0.0.0.7.< ] %.%.%.%.%.q.",
"q.%.%.%.%.%.%.%.v G 9.9.0.0.0.0.0.0.0.0.0.0.0.0.0.0.0.0.9.R d $ # # $ a L 6.0.0.0.0.0.0.0.0.0.0.0.0.0.0.0.0.9.^ & X.%.%.%.%.%.q.",
"q.%.%.%.%.%.%.%. .3 >.0.0.0.0.0.0.0.0.0.0.0.0.0.0.0.0.0.9.0.0.0.9.9.0.0.0.0.0.0.0.0.0.0.0.0.0.0.0.0.0.0.0.0.6.f v $.%.%.%.%.%.q.",
"q.%.%.%.%.%.%.%.#.c h 9.0.0.0.0.0.0.0.0.0.0.0.0.0.0.0.0.0.0.0.0.0.0.0.0.0.0.0.0.0.0.0.0.0.0.0.0.0.0.0.0.0.9._ $ X.%.%.%.%.%.%.q.",
"q.%.%.%.%.%.%.%.%.| o Q 9.0.0.0.0.0.0.0.0.0.0.0.0.0.0.0.0.0.0.0.0.0.0.0.0.0.0.0.0.0.0.0.0.0.0.0.0.0.0.0.0.6.k n %.%.%.%.%.%.%.q.",
"q.%.%.%.%.%.%.%.%.%.V 6 ;.0.0.0.0.0.0.0.0.0.0.0.0.0.0.0.0.0.0.0.0.0.0.0.0.0.0.0.0.0.0.0.0.0.0.0.0.0.0.0.9.Y e X.%.%.%.%.%.%.%.q.",
"q.%.%.%.%.%.%.%.%.%.%.b a 9.0.0.0.0.0.0.0.0.0.0.0.0.0.0.0.0.0.0.0.0.0.0.0.0.0.0.0.0.0.0.0.0.0.0.0.0.0.0._ . A %.%.%.%.%.%.%.%.q.",
"q.%.%.%.%.%.%.%.%.%.%.O.t g ,.9.0.0.0.0.0.0.0.0.0.0.0.0.0.0.0.0.0.0.0.0.0.0.0.0.0.0.0.0.0.0.0.0.0.0.0.&.6 m $.%.%.%.%.%.%.%.%.q.",
"q.%.%.%.%.%.%.%.%.%.%.%.X.y d :.0.0.0.0.0.0.0.0.0.0.0.0.0.0.0.0.0.0.0.0.0.0.0.0.0.0.0.0.0.0.0.0.0.9._ 6 M #.%.%.%.%.%.%.%.%.%.q.",
"q.%.%.%.%.%.%.%.%.%.%.%.%.#.c $ _ 8.9.0.0.0.0.0.0.0.0.0.0.0.0.0.0.0.0.0.0.0.0.0.0.0.0.0.0.0.0.0.6.Y . m #.%.%.%.%.%.%.%.%.%.%.q.",
"q.%.%.%.%.%.%.%.%.%.%.%.%.%.+.N : D *.8.0.0.0.0.0.0.0.0.0.0.0.0.0.0.0.0.0.0.0.0.0.0.0.0.9.9.6.` k q A %.%.%.%.%.%.%.%.%.%.%.%.q.",
"q.%.%.%.%.%.%.%.%.%.%.%.%.%.%.%. .c > k =.9.0.9.0.0.0.0.0.0.0.0.0.0.0.0.0.0.0.0.0.0.0.0.9.' j $ n o.%.%.%.%.%.%.%.%.%.%.%.%.%.q.",
"q.%.%.%.%.%.%.%.%.%.%.%.%.%.%.%.%.%.} y % p U -.1.6.9.9.0.0.0.0.0.0.0.0.0.0.0.9.6.1.-.I 8 % c ..%.%.%.%.%.%.%.%.%.%.%.%.%.%.%.q.",
"q.%.%.%.%.%.%.%.%.%.%.%.%.%.%.%.%.%.%.#. .C c 0 p j G I Q ( ' *.-.-.=.' ( Q I G j p ; c C ..$.%.%.%.%.%.%.%.%.%.%.%.%.%.%.%.%.q.",
"q.%.%.%.%.%.%.%.%.%.%.%.%.%.%.%.%.%.%.%.%.%.#.#...C c ; O . . . . . . . . O 9 c C ..#.#.%.%.%.%.%.%.%.%.%.%.%.%.%.%.%.%.%.%.%.q.",
"q.q.%.%.%.%.%.%.%.%.%.%.%.%.%.%.%.%.%.%.%.%.%.%.%.%.%.%.%.#.X. . . . .X.@.%.%.%.%.%.%.%.%.%.%.%.%.%.%.%.%.%.%.%.%.%.%.%.%.%.q.q.",
"q.q.%.%.%.%.%.%.%.%.%.%.%.%.%.%.%.%.%.%.%.%.%.%.%.%.%.%.%.%.%.%.%.%.%.%.%.%.%.%.%.%.%.%.%.%.%.%.%.%.%.%.%.%.%.%.%.%.%.%.%.%.q.q.",
"q.q.q.%.%.%.%.%.%.%.%.%.%.%.%.%.%.%.%.%.%.%.%.%.%.%.%.%.%.%.%.%.%.%.%.%.%.%.%.%.%.%.%.%.%.%.%.%.%.%.%.%.%.%.%.%.%.%.%.%.%.q.q.q.",
"q.q.q.q.q.q.q.q.q.q.q.q.q.q.q.q.q.q.q.q.q.q.q.q.q.q.q.q.q.q.q.q.q.q.q.q.q.q.q.q.q.q.q.q.q.q.q.q.q.q.q.q.q.q.q.q.q.q.q.q.q.q.q.q.",
"q.q.q.q.q.q.q.q.q.q.q.q.q.q.q.q.q.q.q.q.q.q.q.q.q.q.q.q.q.q.q.q.q.q.q.q.q.q.q.q.q.q.q.q.q.q.q.q.q.q.q.q.q.q.q.q.q.q.q.q.q.q.q.q."
};
