/* XPM */
static char *radar_save[] = {
/* columns rows colors chars-per-pixel */
"64 64 78 1 ",
"  c black",
". c #000100",
"X c #000200",
"o c #000300",
"O c #000400",
"+ c #000500",
"@ c #000600",
"# c #000700",
"$ c #000701",
"% c #000900",
"& c #000901",
"* c #000A00",
"= c #000A01",
"- c #000B01",
"; c #000A02",
": c #000D01",
"> c #000E01",
", c #000D02",
"< c #000F02",
"1 c #001002",
"2 c #001102",
"3 c #001202",
"4 c #001302",
"5 c #001402",
"6 c #001503",
"7 c #001602",
"8 c #001803",
"9 c #001903",
"0 c #001A03",
"q c #001B03",
"w c #001C03",
"e c #001B04",
"r c #001C04",
"t c #001E04",
"y c #001E05",
"u c #001F05",
"i c #002004",
"p c #002005",
"a c #002105",
"s c #002205",
"d c #002006",
"f c #002206",
"g c #002505",
"h c #002906",
"j c #002A06",
"k c #002B07",
"l c #002C07",
"z c #002E07",
"x c #002F07",
"c c #002E08",
"v c #003007",
"b c #003008",
"n c #003108",
"m c #003009",
"M c #003208",
"N c #003308",
"B c #003209",
"V c #003309",
"C c #003408",
"Z c #003409",
"A c #003509",
"S c #003609",
"D c #00350A",
"F c #00360A",
"G c #00370A",
"H c #00360B",
"J c #00380A",
"K c #003A0A",
"L c #003B0B",
"P c #003C0B",
"I c #003D0B",
"U c #003E0B",
"Y c #003F0B",
"T c #003E0C",
"R c #003F0C",
"E c #00400C",
"W c #00400D",
"Q c None",
/* pixels */
"QQQQQQQQQQQQQQQQQQQQQQQQQQQQQQQQQQQQQQQQQQQQQQQQQQQQQQQQQQQQQQQQ",
"QQQQQQQQQQQQQQQQQQQQQQQQQQQQQQQ QQQQQQQQQQQQQQQQQQQQQQQQQQQQQQQQ",
"QQQQQQQQQQQQQQQQQQQQQQQQQQQQQ    QQQQQQQQQQQQQQQQQQQQQQQQQQQQQQQ",
"QQQQQQQQQQQQQQQQQQQQQQQQQQQQ   +  QQQQQQQQQQQQQQQQQQQQQQQQQQQQQQ",
"QQQQQQQQQQQQQQQQQQQQQQQQQQQQ  4c-  QQQQQQQQQQQQQQQQQQQQQQQQQQQQQ",
"QQQQQQQQQQQQQQQQQQQQQQQQQQQ  +HEz   QQQQQQQQQQQQQQQQQQQQQQQQQQQQ",
"QQQQQQQQQQQQQQQQQQQQQQQQQQ  -BTETd   QQQQQQQQQQQQQQQQQQQQQQQQQQQ",
"QQQQQQQQQQQQQQ             +kTEETYt   QQQQQQQQQQQQQQQQQQQQQQQQQQ",
"QQQQQQQQQQQQQ              dTWWWEEE6   QQQQQQQQQQQQQQQQQQQQQQQQQ",
"QQQQQQQQQQQQQ  effffffft  tLTWWWEEEH,  QQQQQQQQQQQQQQQQQQQQQQQQQ",
"QQQQQQQQQQQQQ  BETTEETET 6TTWWWWWWETZ   QQQQQQQQQQQQQQQQQQQQQQQQ",
"QQQQQQQQQQQQQ  BWWWWWWWT,ZEWWWWWWWWEEc+  QQQQQQQQQQQQQQQQQQQQQQQ",
"QQQQQQQQQQQQQ  BWWWWWWETZTEEWWWWWWWWWEg   QQQQQQQQQQQQQQQQQQQQQQ",
"QQQQQQQQQQQQQ  BWWWWWWWEEEEEWWWWWWWWWWTe   QQQQQQQQQQQQQQQQQQQQQ",
"QQQQQQQQQQQQQ  BWWWWWWWEEWEWWWWWWWWWWWWT7   QQQQQQQQQQQQQQQQQQQQ",
"QQQQQQQQQQQQQ  BWWWWWWWEEWWWWWWWWWWWWWWTK,  QQQQQQQQQQQQQQQQQQQQ",
"QQQQQQQQQQQQQ  BEEWWWWWEEWWWWWWWWWWWWWWWEB+  QQQQQQQQQQQQQQQQQQQ",
"QQQQQQQQQQQQQ  BEEWWWWWEEWWWWWWWWWWWWWWWETB+  QQQQQQQQQQQQQQQQQQ",
"QQQQQQQQQQQQQ  BEWWWWWWEEWWWWWWWWWWWWWWWEETk   QQQQQQQQQQQQQQQQQ",
"QQQQQQQQQQQQQ  BWWWWWWWEEWWWWWWWWWWWWWWWEETTt   QQQQQQQQQQQQQQQQ",
"QQQQQQQQQQQQQ  BWWWWWWWEEWWWWWWWWWWWWWWWWWWTLe   QQQQQQQQQQQQQQQ",
"QQQQQQQQQQQQQ  BWWWWWWWEEWWWWWWWWWWWWWWWWWWWET4  QQQQQQQQQQQQQQQ",
"QQQQQQQQQQQQ   BWWWWWWWEEWWWWWWWWWWWWWWWWWWWWTB-  QQQQQQQQQQQQQQ",
"QQQQQQQQQQQQ  4KWWWWWWWEEWWWWWWWWWWWWWWWWWWWWETB+  QQQQQQQQQQQQQ",
"QQQQQQQQQQQ  +ZEWWWWWWWEEWWWWWWWWWWWWWWWWWWWWWWTz   QQQQQQQQQQQQ",
"QQQQQQQQQQ  +BTEWWWWWWWEEWWWWWWWWWWWWWWWWWWWWWWWYd   QQQQQQQQQQQ",
"QQQQQQQQQ  +kTEEWWWWWWWEEWWWWWWWWWWWWWWWWWWWWWWWYY4   QQQQQQQQQQ",
"QQQQQQQQ   tTWWWWWWWWWWWWWWWWWWWWWWWWWWWWWWWWWWWTTY4  QQQQQQQQQQ",
"QQQQQQQ   eLTTWWWWWWWWWWWWWWWWWWWWWWWWWWWWWWWWWWEETH-  QQQQQQQQQ",
"QQQQQQQ  4TEEEWWWWWWWWWWWWWWWWWWWWWWWWWWWWWWWWWWEEETB   QQQQQQQQ",
"QQQQQQ  -BEEWWWWWWWWWWWWWWWWWWWWWWWWWWWWWWWWWWWWWWEWEj+  QQQQQQQ",
"QQQQQ   BYEEWWWWWWWWWWWWWWWWWWWWWWWWWWWWWWWWWWWWWWWWEEd   QQQQQQ",
"QQQQ   cWEEEEEWEEEWEEEWEEEWWWWWWWWEEWEEWEEWEEWEEWEWWEETe   QQQQQ",
"QQQQ  6BmZBZHTETETETETETETETETRRTETEETTEETTEETETTBBHZHBc-  QQQQQ",
"QQQQ   ++  + EEETETETETETETETERRETETTEETTEEETETEH-    +    QQQQQ",
"QQQQ         TWWWEWWWEWWWEWWWWWWEEWWWWEEWWWWEEWWH-        QQQQQQ",
"QQQQQQQQQQ   EWWWWWWWWWWWWWWWWWWWWWWWWWWWWWWWWWWH+  QQQQQQQQQQQQ",
"QQQQQQQQQQQ  EWWWWWWWWWWWWWWWWWWWWWWWWWWWWWWWWWWH+ QQQQQQQQQQQQQ",
"QQQQQQQQQQQ  EWWWWWWWWWWWWWWWWWWWWWWWWWWWWWWWWWWH$ QQQQQQQQQQQQQ",
"QQQQQQQQQQQ  EWWWWWWWWWWWWWWWWWWWWWWWWWWWWWWWWWWH$ QQQQQQQQQQQQQ",
"QQQQQQQQQQQ  EWWWWWWWWWWWWWWWWWWWWWWWWWWWWWWWWWWH- QQQQQQQQQQQQQ",
"QQQQQQQQQQQ  EWWWWWWWWWWWWWWWWWWWWWWWWWWWWWWWWWWH+ QQQQQQQQQQQQQ",
"QQQQQQQQQQQ  EWWWWWWWWWWWWWWWWWWWWWWWWWWWWWWWWWWH+ QQQQQQQQQQQQQ",
"QQQQQQQQQQQ  EWWWWWWWWWWWWWWWWWWWWWWWWWWWWWWWWWWH+ QQQQQQQQQQQQQ",
"QQQQQQQQQQQ  EWWWWWWWWWWWWWWWWWWWWWWWWWWWWWWWWWWH$ QQQQQQQQQQQQQ",
"QQQQQQQQQQQ  TWWWWWWWWWWWWWWWWWWWWWWWWWWWWWWWWWWH$ QQQQQQQQQQQQQ",
"QQQQQQQQQQQ  EWWWWWWWWWWWHmmmmmmmmmmHEWWWWWWWWWWH$ QQQQQQQQQQQQQ",
"QQQQQQQQQQQ  EWWWWWWWWWWWd,,,,,,,,,,dEWWWWWWWWWWH$ QQQQQQQQQQQQQ",
"QQQQQQQQQQQ  EEEWWWWWWWWTd;;;;;;;,$,uWWWWWWWWWWWH$ QQQQQQQQQQQQQ",
"QQQQQQQQQQQ  EWEWWWWWWWWTd;;;;;;;$,$uWWWWWWWWWWWH$ QQQQQQQQQQQQQ",
"QQQQQQQQQQQ  EWWWWWWWWWWWd;;;;;;;;$,uWWWWWWWWWWWH$ QQQQQQQQQQQQQ",
"QQQQQQQQQQQ  EWWWWWWWWWWRd;;;;;;;;,$uWWWWWWWWWWWH$ QQQQQQQQQQQQQ",
"QQQQQQQQQQQ  EWWWWWWWWWWRd;;;;;;;;;;uWWWWWWWWWWWH$ QQQQQQQQQQQQQ",
"QQQQQQQQQQQ  EWWWWWWWWWWRd;;;;;;;;;;uWWWWWWWWWWWH$ QQQQQQQQQQQQQ",
"QQQQQQQQQQQ  EWWWWWWWWWWRd;;;;;;;;;;uWWWWWWWWWWWH$ QQQQQQQQQQQQQ",
"QQQQQQQQQQQ  EWWWWWWWWWWRd;;;;;;;;;;uWWWWWWWWWWWH$ QQQQQQQQQQQQQ",
"QQQQQQQQQQQ  EEWRRRRRWTTRu;;;;;;;;;;uRRREWWWWWRWH$ QQQQQQQQQQQQQ",
"QQQQQQQQQQQ  TTTRRRRRRRRTu;;;;;;$$;;yTRRTTTTTTTTH$ QQQQQQQQQQQQQ",
"QQQQQQQQQQQ  ++ XXXXXXXXXXXXXXXXXXXXXXXX+ + + +++  QQQQQQQQQQQQQ",
"QQQQQQQQQQQ     XXXXXXXXXXXXXXXXXXXXXXXX           QQQQQQQQQQQQQ",
"QQQQQQQQQQQQQ   XXXXXXXXXXXXXXXXXXXXXXXX         QQQQQQQQQQQQQQQ",
"QQQQQQQQQQQQQQQQQQQQQQQQQQQQQQQQQQQQQQQQQQQQQQQQQQQQQQQQQQQQQQQQ",
"QQQQQQQQQQQQQQQQQQQQQQQQQQQQQQQQQQQQQQQQQQQQQQQQQQQQQQQQQQQQQQQQ",
"QQQQQQQQQQQQQQQQQQQQQQQQQQQQQQQQQQQQQQQQQQQQQQQQQQQQQQQQQQQQQQQQ"
};
