/* XPM */
static char *radar_ice[] = {
/* columns rows colors chars-per-pixel */
"64 64 50 1 ",
"  c #010101",
". c #0A0201",
"X c #0B0B0B",
"o c #130402",
"O c #1B0502",
"+ c #100F0F",
"@ c #131313",
"# c #181717",
"$ c #1C1B1B",
"% c #240501",
"& c #2E0600",
"* c #240804",
"= c #2F0904",
"- c #340700",
"; c #340A04",
": c #3D0B03",
"> c #222121",
", c #430C04",
"< c #4D0C03",
"1 c #550C02",
"2 c #5C0D02",
"3 c #501107",
"4 c #591005",
"5 c #660F02",
"6 c #6A0F02",
"7 c #710F02",
"8 c #671003",
"9 c #6A1104",
"0 c #721104",
"q c #791002",
"w c #811102",
"e c #8C1504",
"r c #931503",
"t c #9D1602",
"y c #9E1905",
"u c #AB1703",
"i c #A21805",
"p c #AC1A05",
"a c #B31B05",
"s c #BC1B04",
"d c #C41D05",
"f c #CC1E05",
"g c #D31F05",
"h c #DB1F04",
"j c #E01F04",
"k c #CA2007",
"l c #D62006",
"z c #DC2005",
"x c #E32105",
"c c None",
/* pixels */
"cccccccccccccccccccccccccccccccccccccccccccccccccccccccccccccccc",
"cccccccccccccccccccccccccccccccccccccccccccccccccccccccccccccccc",
"cccccc                                                   ccccccc",
"cccc                                                        cccc",
"ccc   &27qqqqqq7qqqqqqqqqqqq7qqqqqqqqqq7qqqqqqqqqqqq7qq72%  cccc",
"ccc  6xxxxxxxxxxxxxxxxxxxxxxxxxxxxxxxxxxxxjxxxxxxxxxxxxxjh<  ccc",
"cc  &jxxxxxxxxxxxxxxxxxxxxxxxxxxxxxxxxxxxxxxxxxxxxxxxxxxjjgo ccc",
"cc  5jxxxxxxxxxxxxxxxxxxxxxxxxxxxxxxxxxxxxxxxxxxxxxxxxxxxxj,  cc",
"cc  wxxxxxxxxxxxxxxxxxxxxxxxxxxxxxxxxxxxxxxxxxxxxxxxxxxxxxx5  cc",
"cc  rxxxxxxxxxxxxxxxxxxxxxxxxxxxxxxxxxxxxxxxxxxxxxxxxxxxxxxq  cc",
"cc  rxxxxxxxxxxgdzxxxxxxxxxxxxxxxxxxxxxxxxxxxxxxxxxxxxxxxxxq  cc",
"cc  txxxxxxxxf2. +,qalxxxxxxxxxxxxxxxxxxxxxxxxxxxxxxxxxxxxxq  cc",
"cc  txxxxxxxk;     XO,qfxxxxxxxxxxxxxxxxxxxxxxxxxxxxxxxxxxxw  cc",
"cc  txxxxxxl,          X9kzxxxxxxxxxxxxxxxxxxxxxxxxxxxxxxxxq  cc",
"cc  txxxxxl4.      XX    O9azxxxxxxxxxxxxxxxxxxxxxxxxxxxxxxw  cc",
"cc  yxxxxxw      X#$@XX++X O0zxxxxxxxxxxxxxxxxxxxxxxxxxxxxxw  cc",
"cc  txxxxzO      @#@XX XX    *pzxxxxxxxxxxxxxxxxxxxxxxxxxxxw  cc",
"cc  txxxxh:      X+X        X O0zxxxxxxxxxxxxxxxxxxxxxxxxxxw  cc",
"cc  txxxxxg&   .X X          X X,lxxxxxxxxxxxxxxxxxxxxxxxxxw  cc",
"cc  txxxxxxd<     .    9i0O      ,dxxxxxxxxxxxxxxxxxxxxxxxxw  cc",
"cc  txxxxxxxgr%       &fxjs&   X  ;dxxxxxxxxxxxxxxxxxxxxxxxw  cc",
"cc  txxxxxxxxxf1      :fxxxs%   X  =kxxxxxxxxxxxxxxxxxxxxxxw  cc",
"cc  txxxxxxxxxxxp2O  oyxxxxjs-   XX ,kxxxxxxxxxxxxxxxxxxxxxw  cc",
"cc  txxxxxxxxxxxjhde2ihxxxxjjd%  XXX ;kxxxxxxxxxxxxxxxxxxxxw  cc",
"cc  txxxxxxxxxxxxxxxxxxxxxxxxxt.  XX  <lxxxxxxxxxxxxxxxxxxxw  cc",
"cc  txxxxxxxxxxxxxxxxxxxxxxxxxh9   X@X 9xxxxxxxxxxxxxxxxxxjw  cc",
"cc  txxxxxxxxxxxxxxxxxxxxxxxxxxz3   @@ Xexxxxxxxxxxxxxxxxxxw  cc",
"cc  txxxxxxxxxxxxxxxxxxxxxxxxxjxk:   @@ Oaxxxxxxxxxxxxxxxxxw  cc",
"cc  txxxxxxxxxxxxxxxxxxxxxxxxxxxxd*  X#@ :zxxxxxxxxxxxxxxxxw  cc",
"cc  txxxxxxxxxxxxxxxxxxxxxxxxxxxxxfo  @#X 0xxxxxxxxxxxxxxxxw  cc",
"cc  txxxxxxxxxxxxxxxxxxxxxxxxxxxxxxyO  @#XXpxxxxxxxxxxxxxxxw  cc",
"cc  txxxxxxxxxxxxxxxxxxxxxxxxxxxxxxze   X+ ,gxxxxxxxxxxxxxxw  cc",
"cc  txxxxxxxxxxxxxxxxxxxxxxxxxxxxxxxx9. X@XXyxxxxxxxxxxxxxxw  cc",
"cc  txxxxxxxxxxxxxxxxxxxxxxxxxxxxxxxxz6   + :xxxxxxxxxxxxxxw  cc",
"cc  txxxxxxxxxxxxxxxxxxxxxxxxxxxxxxxxjj1  XX.yxxxxxxxxxxxxxw  cc",
"cc  txxxxxxxxxxxxxxxxxxxxxxxxxxxxxxxxxxh-    ;zxxxxxxxxxxxxw  cc",
"cc  txxxxxxxxxxxxxxxxxxxxxxxxxxxxxxxxxxxp. XX.pxxxxxxxxxxxxw  cc",
"cc  ixxxxxxxxxxxxxxxxxxxxxxxxxxxxxxxxxxxz1  @ 9xxxxxxxxxxxxw  cc",
"cc  ixxxxxxxxxxxxxxxxxxxxxxxxxxxxxxxxxxxx8 X@X:gxxxxxxxxxxxw  cc",
"cc  ixxxxxxxxxxxxxxxxxxxxxxxxxxxxxxxxxxxg,   .Xdxxxxxxxxxxxw  cc",
"cc  txxxxxxxxxxxxxxxxxxxxxxxxxxxxxxxzs4<o      exxxxxxxxxxxw  cc",
"cc  txxxxxxxxxxxxxxxxxxxxxxxxxxxxxxxtO      X  ,xxxxxxxxxxjw  cc",
"cc  txxxxxxxxxxxxxxxxxxxxxxxxxxxxxxx<      X   Xzxxxxxxxxxxw  cc",
"cc  txxxxxxxxxxxxxxxxxxxxxxxxxxxxxxx2    X  X   rxxxxxxxxxxw  cc",
"cc  txxxxxxxxxxxxxxxxxxxxxxxxxxxxxxxw      +@   <xxxxxxxxxxw  cc",
"cc  txxxxxxxxxxxxxxxxxxxxxxxxxxxxxxxs  X  @>#X  *fxxxxxxxxxw  cc",
"cc  txxxxxxxxxxxxxxxxxxxxxxxxxxxxxxxx*  @X@@X.  Opxxxxxxxxxw  cc",
"cc  txxxxxxxxxxxxxxxxxxxxxxxxxxxxxxxxe  @       oixxxxxxxxxw  cc",
"cc  txxxxxxxxxxxxxxxxxxxxxxxxxxxxxxxxg%         <lxxxxxxxxxw  cc",
"cc  txxxxxxxxxxxxxxxxxxxxxxxxxxxxxxxxz0       .5kxxxxxxxxxxw  cc",
"cc  txxxxxxxxxxxxxxxxxxxxxxxxxxxxxxxxxdO      8zxxxxxxxxxxxw  cc",
"cc  txxxxxxxxxxxxxxxxxxxxxxxxxxxxxxxxxxq.   .,dxxxxxxxxxxxxw  cc",
"cc  txxxxxxxxxxxxxxxxxxxxxxxxxxxxxxxxxxz9  .wlxxxxxxxxxxxxxq  cc",
"cc  rxxxxxxxxxxxxxxxxxxxxxxxxxxxxxxxxxxxziyzxxxxxxxxxxxxxxxq  cc",
"cc  exxxxxxxxxxxxxxxxxxxxxxxxxxxxxxxxxxxxxxxxxxxxxxxxxxxxxx7  cc",
"cc  qjxxxxxxxxxxxxxxxxxxxxxxxxxxxxxxxxxxxxxxxxxxxxxxxxxxxxx1  cc",
"cc  1jxxxxxxxxxxxxxxxxxxxxxxxxxxxxxxxxxxxxxxxxxxxxxxxxxxxxj-  cc",
"ccc Ogxjxxxxxxxxxxxxxxxxxxxxxxxxxxxxxxxxxxxxxxxxxxxxxxxxxxa. ccc",
"ccc  &sjxjxxxxxxxxxxxxxxxxxxxxxxxxxxxxxxxxxxxxxxxxxxxxxxjuO  ccc",
"cccc   O&-&&-&&&&&&&&&&&&&&&&&&&-&&&&&&&&&&&&&&&&&&&&&&&O   cccc",
"ccccc                                                      ccccc",
"cccccccccccccccccccccccccccccccccccccccccccccccccccccccccccccccc",
"cccccccccccccccccccccccccccccccccccccccccccccccccccccccccccccccc",
"cccccccccccccccccccccccccccccccccccccccccccccccccccccccccccccccc"
};
