/* XPM */
static char *radar_north[] = {
/* columns rows colors chars-per-pixel */
"64 64 68 1 ",
"  c black",
". c #010101",
"X c #020202",
"o c gray1",
"O c #070707",
"+ c gray3",
"@ c #090909",
"# c gray5",
"$ c #111111",
"% c gray8",
"& c gray11",
"* c #1D1D1D",
"= c #272727",
"- c gray17",
"; c #313131",
": c gray20",
"> c #343434",
", c gray22",
"< c #3C3C3C",
"1 c #444444",
"2 c #464646",
"3 c #484848",
"4 c #494949",
"5 c #505050",
"6 c #565656",
"7 c #5F5F5F",
"8 c #676767",
"9 c #686868",
"0 c #6D6D6D",
"q c #727272",
"w c #777777",
"e c gray48",
"r c #7B7B7B",
"t c #7C7C7C",
"y c gray49",
"u c gray54",
"i c gray56",
"p c #959595",
"a c #979797",
"s c #9B9B9B",
"d c gray61",
"f c #A4A4A4",
"g c #B4B4B4",
"h c #B7B7B7",
"j c gray74",
"k c gray75",
"l c #C1C1C1",
"z c #CBCBCB",
"x c gray80",
"c c #CDCDCD",
"v c gray83",
"b c gray85",
"n c #DFDFDF",
"m c #E6E6E6",
"M c gray92",
"N c gray93",
"B c #EFEFEF",
"V c #F1F1F1",
"C c gray95",
"Z c gray96",
"A c #F6F6F6",
"S c #F8F8F8",
"D c #F9F9F9",
"F c gray99",
"G c #FDFDFD",
"H c #FEFEFE",
"J c white",
"K c None",
/* pixels */
"KKKKKKKKKKKKKKKKKKKKKKKKKKKKKKKKKKKKKKKKKKKKKKKKKKKKKKKKKKKKKKKK",
"KKKKKKKKKKKKKKKKKKKKKKKKKKKKKKKKKKKKKKKKKKKKKKKKKKKKKKKKKKKKKKKK",
"KKKKKKKKKKKKKKKKKKKKKKKKKKKKKKKKKKKKKKKKKKKKKKKKKKKKKKKKKKKKKKKK",
"KKKKKKKKKKKKKKKKKKKKKKKKKKKKKKKKKKKKKKKKKKKKKKKKKKKKKKKKKKKKKKKK",
"KKKKKKKKKKKKKKKKKKKKKKKKKK           KKKKKKKKKKKKKKKKKKKKKKKKKKK",
"KKKKKKKKKKKKKKKKKKKKKK                   KKKKKKKKKKKKKKKKKKKKKKK",
"KKKKKKKKKKKKKKKKKKKK                       KKKKKKKKKKKKKKKKKKKKK",
"KKKKKKKKKKKKKKKKKK                           KKKKKKKKKKKKKKKKKKK",
"KKKKKKKKKKKKKKKK                               KKKKKKKKKKKKKKKKK",
"KKKKKKKKKKKKKKK                                 KKKKKKKKKKKKKKKK",
"KKKKKKKKKKKKKK                                   KKKKKKKKKKKKKKK",
"KKKKKKKKKKKK                                       KKKKKKKKKKKKK",
"KKKKKKKKKKK                                         KKKKKKKKKKKK",
"KKKKKKKKKKK                                         KKKKKKKKKKKK",
"KKKKKKKKKK                                           KKKKKKKKKKK",
"KKKKKKKKK                                             KKKKKKKKKK",
"KKKKKKKK       7yyyyyyyy=            yyyyyyyrr<        KKKKKKKKK",
"KKKKKKKK       lJJJJJJJJz-           JJJJJJJJJr        KKKKKKKKK",
"KKKKKKK        lJJJJJJJJJgO          JJJJJJJJDr         KKKKKKKK",
"KKKKKKK        lJJJJJJJJJJi#         JJJJJJJJJr          KKKKKKK",
"KKKKKK         lJJJJJJJJJJJu@        JJJJJJJJDr          KKKKKKK",
"KKKKKK         lJJJJJJJJJJJV5        JJJJJJJJJr          KKKKKKK",
"KKKKK          lJJJJJJJJJJJJm2       JJJJJJJJDr           KKKKKK",
"KKKKK          lJJJJJJJJJJJJJm,      JJJJJJJJJr           KKKKKK",
"KKKKK          lJJJJJJJJJJJJJJj&     JJJJJJJJJr           KKKKKK",
"KKKK           lJJJJJJJJJJJJJJJg$    JJJJJJJJDr            KKKKK",
"KKKK           lJJJJJJJJJJJJJJJJd    JJJJJJJJDr            KKKKK",
"KKKK           lJJJJJJJJJJJJJJJJAr   JJJJJJJJJr            KKKKK",
"KKKK           lJJJJJJJJJJJJJJJJJV6  JJJJJJJJDr            KKKKK",
"KKKK           lJJJJJJJJJJJJJJJJJJJ> JJJJJJJJJr            KKKKK",
"KKKK           lJJJJJJJJJJJJJJJJJJJb:JJJJJJJJJr            KKKKK",
"KKKK           lJJJJJJJJJJJJJJJJJJJJjJJJJJJJJDr             KKKK",
"KKKK           lJJJJJJJJMDJJJJJJJJJJJJJJJJJJJJr             KKKK",
"KKKK           lJJJJJJJJudDJJJJJJJJJJJJJJJJJJDr            KKKKK",
"KKKK           lJJJJJJJJyOzJJJJJJJJJJJJJJJJJJDr            KKKKK",
"KKKK           lJJJJJJJJy &xJJJJJJJJJJJJJJJJJJr            KKKKK",
"KKKK           lJJJJJJJJr  :vJJJJJJJJJJJJJJJJDr            KKKKK",
"KKKK           lJJJJJJJJy   4DJJJJJJJJJJJJJJJJr            KKKKK",
"KKKK           lJJJJJJJJy    9MJJJJJJJJJJJJJJJr            KKKKK",
"KKKKK          lJJJJJJJJr     0AJJJJJJJJJJJJJDr           KKKKKK",
"KKKKK          lJJJJJJJJr     @fJJJJJJJJJJJJJDr           KKKKKK",
"KKKKK          lJJJJJJJJy      $fJJJJJJJJJJJJJr           KKKKKK",
"KKKKKK         lJJJJJJJJr       %hJJJJJJJJJJJDr          KKKKKKK",
"KKKKKK         lJJJJJJJJy        ,nJJJJJJJJJJJr          KKKKKKK",
"KKKKKKK        lJJJJJJJJr         :nJJJJJJJJJJr         KKKKKKKK",
"KKKKKKK        lJJJJJJJJy          2BJJJJJJJJDy         KKKKKKKK",
"KKKKKKKK       lJJJJJJJJy          @wJJJJJJJJJr        KKKKKKKKK",
"KKKKKKKK       qsppsppsp4           O9pppspppp2        KKKKKKKKK",
"KKKKKKKKK                                             KKKKKKKKKK",
"KKKKKKKKKK                                           KKKKKKKKKKK",
"KKKKKKKKKKK                                         KKKKKKKKKKKK",
"KKKKKKKKKKKK                                       KKKKKKKKKKKKK",
"KKKKKKKKKKKKK                                     KKKKKKKKKKKKKK",
"KKKKKKKKKKKKKK                                   KKKKKKKKKKKKKKK",
"KKKKKKKKKKKKKKK                                 KKKKKKKKKKKKKKKK",
"KKKKKKKKKKKKKKKKK                             KKKKKKKKKKKKKKKKKK",
"KKKKKKKKKKKKKKKKKK                           KKKKKKKKKKKKKKKKKKK",
"KKKKKKKKKKKKKKKKKKKK                       KKKKKKKKKKKKKKKKKKKKK",
"KKKKKKKKKKKKKKKKKKKKKKK                 KKKKKKKKKKKKKKKKKKKKKKKK",
"KKKKKKKKKKKKKKKKKKKKKKKKKKK         KKKKKKKKKKKKKKKKKKKKKKKKKKKK",
"KKKKKKKKKKKKKKKKKKKKKKKKKKKKKKKKKKKKKKKKKKKKKKKKKKKKKKKKKKKKKKKK",
"KKKKKKKKKKKKKKKKKKKKKKKKKKKKKKKKKKKKKKKKKKKKKKKKKKKKKKKKKKKKKKKK",
"KKKKKKKKKKKKKKKKKKKKKKKKKKKKKKKKKKKKKKKKKKKKKKKKKKKKKKKKKKKKKKKK",
"KKKKKKKKKKKKKKKKKKKKKKKKKKKKKKKKKKKKKKKKKKKKKKKKKKKKKKKKKKKKKKKK"
};
