/* XPM */
static char *rocket[] = {
/* columns rows colors chars-per-pixel */
"128 128 70 1 ",
"  c #000000",
". c #080704",
"X c #0A0A06",
"o c #0D0E0B",
"O c #100F0A",
"+ c #0F100D",
"@ c #12120D",
"# c #18170C",
"$ c #1C1A0F",
"% c #151512",
"& c #181711",
"* c #171813",
"= c #1C1B14",
"- c #1F1E19",
"; c #201F13",
": c #201F19",
"> c #242215",
", c #2A2816",
"< c #24231A",
"1 c #28261A",
"2 c #2C2B1C",
"3 c #2E2D21",
"4 c #302E20",
"5 c #353324",
"6 c #383626",
"7 c #3A3927",
"8 c #373528",
"9 c #383628",
"0 c #3C3A2B",
"q c #413F2E",
"w c #403F31",
"e c #43412F",
"r c #454333",
"t c #484635",
"y c #4A4837",
"u c #464438",
"i c #484638",
"p c #4D4B3B",
"a c #514F3E",
"s c #53503F",
"d c #555342",
"f c #585645",
"g c #5B5947",
"h c #595648",
"j c #5D5B4A",
"k c #615E4D",
"l c #625F50",
"z c #63614F",
"x c #656352",
"c c #696655",
"v c #6C6956",
"b c #696758",
"n c #6A6959",
"m c #716E5D",
"M c #71705F",
"N c #767462",
"B c #797664",
"V c #7C7966",
"C c #7E7B69",
"Z c #817E6A",
"A c #85836E",
"S c #88856F",
"D c #878672",
"F c #888772",
"G c #8B8974",
"H c #8F8C78",
"J c #918E77",
"K c #918E79",
"L c #94917C",
"P c None",
/* pixels */
"PPPPPPPPPPPFFFZHGGFFDDDFFFFFDDDDFFFFDDDGDGSDDGDGDDGDDDGAFFDDFDDDDDDSFFFFDDDDGGDDFFFDDDGDDDDDFFDFFDDDDDDGDDFFFFFFFFSFZPPPPPPPPPPP",
"PPPPPPPPFZGFFFGGZGFFFFDFFFFFFFFFDDFFDFDDDDSGDDDDDGDDGDDGFFFFFGGDGDDGFDFFFFFDDDDGFDFGGDDDDGDGDDGDFFFFFGDDGDDFFFFFFFFFDGFDPPPPPPPP",
"PPPPPPPDZHFFFFFHHZFZFFFFFFDDDDFFDDDDDDDDDADDDDDDDDDDDDDDFDDDDDDDDDDDDDDDFFFFDDDDDDDDDDDDDDDDDDDDFFDFDDDDDDDDDDDGFFFFGGDFGPPPPPPP",
"PPPPPAFFGGFFGGGZCNmnbbbbbbbbbnbnbnnnnnbbnnnnbbbnnnnbbbnnbbbbbbnbnbnnbnbnbbbbbbnnbbnbnbbbbnnnbnnnbbbbbnnnbnnnvnMCFFFFZFGGGDAPPPPP",
"PPPPASFFFFFGHVjw3%+++++++++o++++oo+oo+o@++*%%++++o++++++o+++o+oo+++o+oo++oo+++++o+++o+oo++++o+ooo+oo++++oo+oo@&1wkBGFFFGGFSSPPPP",
"PPPPFFGFGGGBd1o.                      .XXX                                                                       O>aBGFFFFFFAPPP",
"PPPGFGFFGDj1.                       X<0adp0=X                                                                      X1gAFFDFFFPPP",
"PPZDGGGFZp@                        &dAKKKKGNd>.                                                                      OuZGFFFFSPP",
"PPFGFFGCwo     PPPPPPPPPPPPPPPPP  @jLKZBZJKGJBr%   PPPPPPPPPPPPPPPPPPPPPPPPPPPPPPPPPPPPPPPPPPPPPPPPPPPPPPPPPPPPPP     o0ZFGGFFPP",
"PGDGGGZdo   PPPPPPPPPPPPPPPPPPPP XpHBu>*5lFGGFFk-   PPPPPPPPPPPPPPPPPPPPPPPPPPPPPPPPPPPPPPPPPPPPPPPPPPPPPPPPPPPPPPPP   XwZKZZHFP",
"PFGGHHh%   PPPPPPPPPPPPPPPPPPPP  1Ac-.  .#aZFFGJb-   PPPPPPPPPPPPPPPPPPPPPPPPPPPPPPPPPPPPPPPPPPPPPPPPPPPPPPPPPPPPPPPPP  OdGGFFGP",
"SFFDFn-  PPPPPPPPPPPPPPPPPPPPPP @lx=      OaFGGGKM-   PPPPPPPPPPPPPPPPPPPPPPPPPPPPPPPPPPPPPPPPPPPPPPPPPPPPPPPPPPPPPPPPP  =nGDFFD",
"SDGGZw. PPPPPPPPPPPPPPPPPPPPPPP ,k,        &gGGFHKb=   PPPPPPPPPPPPPPPPPPPPPPPPPPPPPPPPPPPPPPPPPPPPPPPPPPPPPPPPPPPPPPPPP .0DFGFD",
"FDFGM: PPPPPPPPPPPPPPPPPPPPPPP X6q,.        *vJGHKKh@  PPPPPPPPPPPPPPPPPPPPPPPPPPPPPPPPPPPPPPPPPPPPPPPPPPPPPPPPPPPPPPPPPP OvFFFF",
"GFGKa. PPPPPPPPPPPPPPPPPPPPPPP  >erX        .4SLKKLJ0.  PPPPPPPPPPPPPPPPPPPPPPPPPPPPPPPPPPPPPPPPPPPPPPPPPPPPPPPPPPPPPPPPPP.uGGDF",
"SFGZ4.PPPPPPPPPPPPPPPPPPPPPPPP  >g5.         .5yiryd9.  PPPPPPPPPPPPPPPPPPPPPPPPPPPPPPPPPPPPPPPPPPPPPPPPPPPPPPPPPPPPPPPPPP.1ZGFF",
"SFGM*PPPPPPPPPPPPPPPPPPPPPPPPP .rc*           .XOXXoX    PPPPPPPPPPPPPPPPPPPPPPPPPPPPPPPPPPPPPPPPPPPPPPPPPPPPPPPPPPPPPPPPPP&nGGD",
"SGGv&PPPPPPPPPPPPPPPPPPPPPPPP  @xgO           @>,>$=*@   PPPPPPPPPPPPPPPPPPPPPPPPPPPPPPPPPPPPPPPPPPPPPPPPPPPPPPPPPPPPPPPPPP@xGGD",
"GSGc=PPPPPPPPPPPPPPPPPPPPPPPP  =V0.          XtAAMBBVm1  PPPPPPPPPPPPPPPPPPPPPPPPPPPPPPPPPPPPPPPPPPPPPPPPPPPPPPPPPPPPPPPPPPPxGGD",
"SGGc=PPPPPPPPPPPPPPPPPPPPPPPP .9C<           .7KJJGGJLaX PPPPPPPPPPPPPPPPPPPPPPPPPPPPPPPPPPPPPPPPPPPPPPPPPPPPPPPPPPPPPPPPPPPxFGD",
"SGJf@     PPPPPPPPPPPPPPPPPPP Xdm&      PPP   ,FLGJSGLc@  PPPPPPPPPPPPPPPPPPPPPPPPPPPPPPPPPPPPPPPPPPPPPPPPPPPPPPPPPPPPPPPPPPcGGS",
"SGGz2@oX.       PPPPPPPPPPPPP okx@      PPPP  opkasssdqX  PPPPPPPPPPPPPPPPPPPPPPPPPPPPPPPPPPPPPPPPPPPPPPPPPPPPPPPPPPPPPPPPPPvGGS",
"SGSABvkaq,=@X..       PPPPPPP @mgo      PPPP   XoXOoXX.   PPPPPPPPPPPPPPPPPPPPPPPPPPPPPPPPPPPPPPPPPPPPPPPPPPPPPPPPPPPPPPPPPPMGGS",
"SSSSSSGGGAVnky5$@@X.          @xrX      PPPPP             PPPPPPPPPPPPPPPPPPPPPPPPPPPPPPPPPPPPPPPPPPPPPPPPPPPPPPPPPPPPPPPPPPCSGS",
"SSGSSGSGGGGGGJFZvkaq2;OOX      =@       PPPPPP   X        PPPPPPPPPPPPPPPPPPPPPPPPPPPPPPPPPPPPPPPPPPPPPPPPPPPPPPPPPPPPPPPPPPSGDS",
"SSSSGSFFSFSFFJJSSGGGZBngp6>@@               P   Od>       PPPPPPPPPPPPPPPPPPPPPPPPPPPPPPPPPPPPPPPPPPPPPPPPPPPPPPPPPPPPPPPPPPDDGD",
"GSGGFFFFFFDDGGFZGSGGFFJGHFVNx=                  -Cr.      PPPPPPPPPPPPPPPPPPPPPPPPPPPPPPPPPPPPPPPPPPPPPPPPPPPPPPPPPPPPPPPPPPSDDS",
"SGSSSFFFGFFFcafZSFSGFGGJGGGKc@  +>;@+oo...      0Gr.      PPPPPPPPPPPPPPPPPPPPPPPPPPPPPPPPPPPPPPPPPPPPPPPPPPPPPPPPPPPPPPPPPPAGGS",
"FFSSFSFSFFJb-O6VFFSFSFzamFGB<  *xABnxkdpq6,;*++=xJ7X            PPPPPPPPPPPPPPPPPPPPPPPPPPPPPPPPPPPPPPPPPPPPPPPPPPPPPPPPPPPPAGGA",
"FSSAGSSGGJM< :NJFSFFGGt$tHHr. @jJGDGGGGJGGAVBvzzVSz7,>&@++oXX.              PPPPPPPPPPPPPPP        PPPPPPPPPPPPPPPPPPPPPPPPPDDGS",
"FGSxrfMSLA8.*cLGFSGSGS5X7Km& .rFGSAGSGGGGGSDGHGSSSSDZVNvxjdpe62;&%oXX. .                             PPPPPPPPPPPPPPPPPPPPPPPDDGD",
"SGJs@X*6duo.iKKGFSGSSAe2xG0. *NFDAGSGSDSGGSDDSGGSSDGGDGHGGGJGSZVNnjgpe752>@@+oo..         X+++@o+*+.   PPPPPPPPPPPPPPPPPPPPPDSGA",
"FGGsX  .X. XiBDGGFGFFFZZFm& .pGFFFSFFFFSFGGFFDSFFFSGSFFSGFGGGGGGGSGJJJGSZVMmzzfye62>;@@O@,djxvncvNf#     PPPPPPPPPPPPPPPPPPPDFGS",
"SGGso       o&4pzBFGFGFJHu. &NGFFSFFSFSGSAmNDFSFFFFSGSFSSGSSSSGSDDSGGGGGGSSGHGGHJGAVBBmlzVGGHLLDvd5X       PPPPPPPPPPPPPPPPPAFGS",
"SSGsX          X@>qgmDJKC- .0FFFSGFFFFFFSd=<cJFGFFDDSGFFSGGSSGSSDSGSFFSFSFSGSGGGGGGGGSGGFFGHLSk6*o          PPPPPPPPPPPPPPPPSGSD",
"FGJs+             .o#2pxaX OxJGFFSGSGFSFA3 OgKFZlkBDFSFSGDSGGDGGSGSGSFFFFFSGDSGSSSSGSFSFFGGAg2@.             PPPPPPPPPPPPPPPSDGS",
"SGJs#                 X@X  @MKGFGGSDDFFSDa,qMGGc:&hJGDFSDGSGDGGDGDSGFFFFFFFFSFSFSSGSSGSSGFv5O                 PPPPPPPPPPPPPPADGS",
"SSJM7O                     .,txBAHHGGSFSFSBZSSGv=#dJGSSFDSGDDSDSDGGDGFGSFFGFFSGSSGGGFDFGAd=                    PPPPPPPPPPPPPDDGS",
"GSSGSk4@.                   ..o*1pvCDFFFGGGSSDGZkgZGDSFDGSDGGSDGDGDGSFGFGFSFDGFGGSSSDGJZu@                      PPPPPPPPPPPPADGA",
"SSAMMGGx9@                     #===:6gNVkkSGFFSSSGSSFDFFDGGDDGGDSGSDGFSFFFSFSFSSDGDGDJZqX                       PPPPPPPPPPPPAGGS",
"SGJd>7cGLxo                   okZlt1===;O;lJGDFFGZGGGGGGFGFGFSGGGDGSGGGSFFZZVZFFGSDGHC7.                         PPPPPPPPPPPDGGS",
"SGLdX.@5xx%                   ozLHGZmh5$XX=9hvZGGGGZFDGGSSFFFGGZDGSSSSGSFJMqkDSFSGDGC0.                          PPPPPPPPPPPSGGS",
"SSGc&   o@  .X                ofLKGGSFSNkp2;==1tlBGZZGGZSFSFSGFGSGDGSSSGFZ4<vZGFSSGAro                            PPPPPPPPPPDDSD",
"SGFAPP     .0p-.              .rJLJGFFGSFJDMh8;;=;4dmZHGFGFSFSGGGSGDGDDGGp<cFFFFGGGf@                             PPPPPPPPPPAGGS",
"SSGSPPPP   XdLM0@              o8fmZJGGFGGHZDZZvp2;&;:wlBZGFGGGGSFDFSDDGc:iGGSGSFGm*                              PPPPPPPPPPASGD",
"GFDSPPPPPP XpHHDz4@             ..=4acZFGGGGFGGHHZNk0;=;;4amZGGZFFDFGDZN<:BGDFSFGA5.                              PPPPPPPPPPDGSD",
"SDDSPPPPPP XdLHGGAg,@               X@:wlZZGGHGGZHGGGVva2==;;wkNAGJFGB7$OaJGSFFDGxO                                PPPPPPPPPDFFF",
"GGDSPPPPPP .0FKGGGGAz6.               ..O;qkNZGHGGGZGGKGZNkq:;;;4avZJaX.;ZGSSFGFA9.                                PPPPPPPPPDFFF",
"SGAAPPPPPP  O0MHGGSGLB*                   .o*6dmAJJFFDFGGGGFZmd4$;$>0# .tHGSSDGHm@                                 PPPPPPPPPDDGS",
"SDGSPPPPPPPP .=dAGGGLgO                      .o@2pvZGJFFSDSGGFGZMzq>o  @vHGSSDGHpX                                 PPPPPPPPPSGGS",
"GGDAPPPPPPPPP  +4cGLB:                           X@,tlBFGDGFFSFGGFGZ1  ,AGGDDSGS4                          .=.     PPPPPPPPPAGSS",
"SDGAPPPPPPPPPP  .@rmpX                              .@;qkBFGFGGFDDGZ> .uGGSDGGGV*                          #ro     PPPPPPPPPAAGG",
"DGGDPPPPPPPPPP    .@X                                  .o*7dvSKKGGGm@ ojHDDDDSHv%                          =g%     PPPPPPPPPDGDD",
"SSDAPPPPPPPPPP                 PP                         .X&3avZGLb+ %vGGSDGGHzo                          ,m*     PPPPPPPPPAGGS",
"SGGAPPPPPPPPPPP               PPPPP                           X@3acso =VGSSGGGHdX                         .7B*     PPPPPPPPPDFSD",
"DGGSPPPPPPPPPPPPP           PPPPPPPPPP                           X+X  ,ZGSDSGGHtX                         XsA=     PPPPPPPPPDFFS",
"SGDAPPPPPPPPPPPPPP        PPPPPPPPPPPPPP                              @vGSDDDHLr.                         @xA=     PPPPPPPPPGGSS",
"SGGAPPPPPPPPPPPPPP       PPPPPPPPPPPPPPPP                             XaGGDSAGLt.                         *VB&     PPPPPPPPPAGGD",
"SGDAPPPPPPPPPPPPPP      PPPPPPPPPPPPPPPPPPP                           XsGGSSs6e>                          5HM@     PPPPPPPPPDFSF",
"GSDDPPPPPPPPPPPPPP  o.  PPPPPPPPPPPPPPPPPPPPP                         OgHGDDj2#                          ofLco    PPPPPPPPPPDFFF",
"SGGDPPPPPPPPPPPP   =z6. PPPPPPPPPPPPPPPPPPPPPPP                       .wGGSFGZj@                         =VLsX    PPPPPPPPPPDFFF",
"SDSDPPPPPPPPPPPP   5LtX PPPPPPPPPPPPPPPPPPPPPPPPP                      &cJFDFHG6.                       .rHH6X    PPPPPPPPPPASFF",
"SGGAPPPPPPPPPPPP   5Jp. PPPPPPPPPPPPPPPPPPPPPPPPPPPP                    5ZFGFGKaX                       *vLV*     PPPPPPPPPPFFFF",
"GSDAPPPPPPPPPPPP  .5Ks. PPPPPPPPPPPPPPPPPPPPPPPPPPPPPP                  OdJGGFGz@                      .rGHj+     PPPPPPPPPPAGSF",
"DGDSPPPPPPPPPPPP   ;a1  PPPPPPPPPPPPPPPPPPPPPPPPPPPPPPPP                 *bLHFGB=                      =NHD9     PPPPPPPPPPPFFFS",
"GDDSPPPPPPPPPPPP    X.  PPPPPPPPPPPPPPPPPPPPPPPPPPPPPPPPPP                :MJGGF6.                    @gKKc@     PPPPPPPPPPPDFGF",
"DGDSPPPPPPPPPPPP        PPPPPPPPPPPPPPPPPPPPPPPPPPPPPPPPPP                 <MKJGdX                   XuDLF9.    PPPPPPPPPPPPSGSS",
"GSDSPPPPPPPPPPPP        PPPPPPPPPPPPPPPPPPPPPPPPPPPPPPPP                    :MKHm&          .X*2>@. .5ZKKg@     PPPPPPPPPPPPSDGS",
"SSDSPPPPPPPPPPPP        PPPPPPPPPPPPPPPPPPPPPPPPPPPPPPP  XX                  3bHF<      .+*16pMDZc>O5ZLKm=      PPPPPPPPPPPPADGS",
"DGDSPPPPPPPPPPPP        PPPPPPPPPPPPPPPPPPPPPPPPPPPPPPP opp*.                 *dd@      >gVDHLKGBy,tZLLV4      PPPPPPPPPPPPPDDGS",
"SDDSPPPPPPPPPPPP       PPPPPPPPPPPPPPPPPPPPPPPPPPPPPPPP @nLMw&.                XX       .1dnCCzq15gSKKZ5.      PPPPPPPPPPPPPAGDS",
"GGDAPPPPPPPPPPPP      PPPPPPPPPPPPPPPPPPPPPPPPPPPPPPPPP OcLKFmw&.                         .@:,14aBGJJM4.      PPPPPPPPPPPPPPAGSG",
"SGGAPPPPPPPPPPPP      PPPPPPPPPPPPPPPPPPPPPPPPPPPPPPPPP OcHGGJDc9@.                          odFGJJFk<.      PPPPPPPPPPPPPPPDGSD",
"SGSSPPPPPPPPPPPP     PPPPPPPPPPPPPPPPPPPPPPPPPPPPPPPPPP OcFFDGGJSz5@.                        .6nABcw@       PPPPPPPPPPPPPPPPDGGS",
"DGDSPPPPPPPPPPPPPPPPPPPPPPPPPPPPPPPPPPPPPPPPPPPPPPPPPPP OlJFDDGFGGAz4@                        .@,;@.        PPPPPPPPPPPPPPPPADGS",
"SGGAPPPPPPPPPPPPPPPPPPPPPPPPPPPPPPPPPPPPPPPPPPPPPPPPPPP OcGFFFSSFFGGAk2@                                   PPPPPPPPPPPPPPPPPDGGS",
"GSGSPPPPPPPPPPPPPPPPPPPPPPPPPPPPPPPPPPPPPPPPPPPPPPPPPPP ObHFFDFFFGSGGLAf1X                                PPPPPPPPPPPPPPPPPPADGA",
"SGDSPPPPPPPPPPPPPPPPPPPPPPPPPPPPPPPPPPPPPPPPPPPPPPPPPPP @vKFDGFFFSGSSGGJCf<X                             PPPPPPPPPPPPPPPPPPPAGGG",
"SGDSPPPPPPPPPPPPPPPPPPPPPPPPPPPPPPPPPPPPPPPPPPPPPPPPPPP OkKHFFFFFDGSSGFGGHNp-X                          PPPPPPPPPPPPPPPPPPPPAGDD",
"SDGSPPPPPPPPPPPPPPPPPPPPPPPPPPPPPPPPPPPPPPPPPPPPPPPPPPP .:lZJGFFFGSGFSFFFGGGNp*                       PPPPPPPPPPPPPPPPPPPPPPDGSD",
"GSGAPPPPPPPPPPPPPPPPPPPPPPPPPPPPPPPPPPPPPPPPPPPPPPPPPPPoo.%uMHGFSFGFFGSDDGSGGGk+ X                   PPPPPPPPPPPPPPPPPPPPPPPGGGS",
"SGAGSPPPPPPPPPPPPPPPPPPPPPPPPPPPPPPPPPPPPPPPPPPPPPPPPPPPo...3lDGGSSGFSGGSSSGGGM%$p+                PPPPPPPPPPPPPPPPPPPPPPPPPDGGS",
"GSGDSPPPPPPPPPPPPPPPPPPPPPPPPPPPPPPPPPPPPPPPPPPPPPPPPPPPP    %wBGGFSSGSDDGSGGJM*>k*             PPPPPPPPPPPPPPPPPPPPPPPPPPPSGGDD",
"SSGGGPPPPPPPPPPPPPPPPPPPPPPPPPPPPPPPPPPPPPPPPPPPPPPPPPPPPPP   X3kAFFSDSGGDGSDKM@;j+         PPPPPPPPPPPPPPPPPPPPPPPPPPPPPPPGDGGS",
"SGGSDDPPPPPPPPPPPPPPPPPPPPPPPPPPPPPPPPPPPPPPPPPPPPPPPPPPPPPP    @rBGGSDFGSDDGJM*=h@  PPPPPPPPPPPPPPPPPPPPPPPPPPPPPPPPPPPPPADGDSG",
"DDDGSSAPPPPPPPPPPPPPPPPPPPPPPPPPPPPPPPPPPPPPPPPPPPPPPPPPPPPPPP   X1zDGFFSDGSGJM@$g%  PPPPPPPPPPPPPPPPPPPPPPPPPPPPPPPPPPPPPDGDGGA",
"SDGDGGDPPPPPPPPPPPPPPPPPPPPPPPPPPPPPPPPPPPPPPPPPPPPPPPPPPPPPPPP    @tBGGSGSDSKM@>z%  PPPPPPPPPPPPPPPPPPPPPPPPPPPPPPPPPPPPGDGGDDD",
"SGDGGSDDPPPPPPPPPPPPPPPPPPPPPPPPPPPPPPPPPPPPPPPPPPPPPPPPPPPPPPPP    X1zSGGDDSLM@=x&  PPPPPPPPPPPPPPPPPPPPPPPPPPPPPPPPPPPSGGGDGSS",
"DFFFFFFFSPPPPPPPPPPPPPPPPPPPPPPPPPPPPPPPPPPPPPPPPPPPPPPPPPPPPPPPPP    *pCHGFFKm@;x%  PPPPPPPPPPPPPPPPPPPPPPPPPPPPPPPPPPFDGFFFFFF",
"DFFGFFFHFDPPPPPPPPPPPPPPPPPPPPPPPPPPPPPPPPPPPPPPPPPPPPPPPPPPPPPPPPP    X2xFGGGm&;x%  PPPPPPPPPPPPPPPPPPPPPPPPPPPPPPPPPDFSGFFFFDG",
"DDFFHZGZGSSSPPPPPPPPPPPPPPPPPPPPPPPPPPPPPPPPPPPPPPPPPPPPPPPPPPPPPPPPP    &pVDGv%=x%  PPPPPPPPPPPPPPPPPPPPPPPPPPPPPPPDDFFGDFFGDDD",
"DDFFFHFGFFGSDAPPPPPPPPPPPPPPPPPPPPPPPPPPPPPPPPPPPPPPPPPPPPPPPPPPPPPPPP@XX.@3xGN=<x-.XPPPPPPPPPPPPPPPPPPPPPPPPPPPPPSSDDGFDDFFDDDG",
"DDFGFFFFFGFFFSFDSAPPPPPPPPPPPPSASAAADADAADDDDAAADDDDDDDDLLHDDDDDSSDDDAvpuueejSVsdNstavGSSADAAAAAAAPPPPPPPPPPPPAADSDGFFGFFDDFDDDG",
"DDFDFFFFFFFFFFGGFFDFGDGDGGSGDFDGDGGGDGDDDDDDFGDDHDDDDDDDLLDHDDDDGDGDDDGKJHHGSSSGDASHJGGGGGGFGGGGGGDDGDSGDSGSGDDDGDGDFFFFFFFFGDDD",
"DFDGFFFFFFGDFFDFFFDGDDGFDGGDGFFGFFDDGDGDGDDGDGGGDDDDDHDDDDDDDDDHDFFGGFFGGGGGSDGGFFFGGSGSDGDFDDGFDDFGGFDGDGDGDGDGDGDGFFFFDFDDFFDS",
"DFDDFFFFFFFFFFFFDDGDGGFDGDGDFFFFFGFDDGDGDGGDGFFDDHDDDDHDDDHDDHDDGDFFDFFFGSDSGSSSSFSFGSSGGDDFDGDFDGFFFFFDGDGDGDGDGDDDFFDFDFFFFFFF",
"AFDFFFFFDDDDDDDHDDHDHDDHDDHDDDHDDDHDDDDDDHDDDDHDHDDHDDDHDDDDDDDDDDDDDDDDDDDDHDDDDDDDHDDDDDDDDDDDGDFFFFFFDHDDDDDDDHDDDDDHDDDDDDDD",
"SFDGFFFFDHHDDDDDDDDDDDDDDDDDDDDDDDDDHDDHDDDDDDDDDDDDDDDDDDHDDHDDDDHDHDDHDDHDDDDDDDHDDDDDDDHDDDHDFDFFFFFFDDDDDHHDDDDDHDDDDDDDHDDD",
"SGSDFFFFDDDDHDDHDDDDDDDDDDDDDHHDDDDDDHDDDDDHDHDDDDDDDDDDHDDDDDDHHDHDDDDDDDDDDDDHHDHDDDDDDDHDDHDDFFFFFFFFDDDDDHDDDDDDDDDHHDDHDDDD",
"DDDDFFFFDHDDDDDDDDHDDHDDHDDDDDDDHDDHDDDDHDDDDDDDHDHDDHDDDDDDDHDDDDDDDDDDDDDDDHDDDDDDDDDHDHDDDDHDFFFFFFFFHDDDDDDDDDHDDDDDDDDDHDDD",
"FFFFFFFFDDDHDDDDDHDDHDDDDDDDDDDDDHDDDDHDDDDDHDDDDDDDDHDDDHDHDHDDHDDDDDHDDHDDDDDDDDFFDDDDDDHDDDHDDHDDFFFFDDDDDDDDHDDDDDDDHDHDDDHD",
"FFFFFFFFDHDDDHDDDDDDDDHDDDHDDDHDDDDDDDDDDDDDDDHDDHDDDDDDDDDDDDDHDDHDDDDDDDDDHDDDDDFFDDDDDDDDDDDDDDDDFFDHDHHDDDHDDDDHDHDDDDDDDDDD",
"FFFFFFFFDDDHDDDHDDDHDHDDDDDHHDDDDDDDHDDDHDHDDHDDDDDHDDDDHDDDDDDDDDDDDDDDDDDHDDDHFFFFDDDDDDDHDHHDDDHDDDDFDDDDDDDDDDDDDHDHDDDDDDDD",
"DFFFFFFFDDDDDDDDDHDDDDDDDHDDDDDDDDHDDDDHDDDDDDDDDDDDHDDHDDDHDDDDHDDDHDDDHDDDDDDDFFFFDHDHDDDDDDDDHDDDDHFFDHDDDHHDHDDDDDDDHDDHDDDD",
"DDDFFFFFFFFFDDDHDHDHHDDDDDDDDHDDHDDDHDDDDHDDDDDDHDDDDHDDDDDDHDDHDDHDDDDHDDDHDDDDFFDDDDDDDHDDDDHDDDDHFFFDHDDHDDHDHDDHHDDHDDDDDDDD",
"DDFDFFFFFFFFHDDDDDDDDDDHDDDHDDDDDDDDDDDDDDDDDDHDDDHDDDDDHDDDDDDDDDDDDDDDHDDDDDDDDHDHDHDDDDDDDHDDDDDDFFHDDDDDDDDDDDDDDDDDDDDHHDDD",
"DFFFFFFFFFFFDDDDDDDDDDDDDDDDHDDHDDDDDDDHDDDHDHHDDDDDHDDHDDHDDDDDDDDDDDDDDDDDDDDDDDHDDDDDDDHDDDHDDDDDFFFFDDDDDHDDDDDDDDDDDDDDDDDD",
"DFFFFFFFFFFFDHDDHDDDHDDDHDDDDDDDDDHDHDDDDHDDDDDDDDHDDDDDDHDDDHDDHDHDDHDDDHDDHDDHDDDDHDDHDDDDDDDDHDHDFFFFDDHDDDDHDDDDHDDDHDDDDHDD",
"DDGDDDFFFFFFFFDDDDDDDDDDDHDHDDDDDDHDDDHDDHDDHDDDHDDDDDDDHDDDDHDDDDDDDDHDDDHDDDHDDDDDDDDHDHDDDDHDDDDFFFDFDDDDHDDDHDDHDDDDDDDDDDDD",
"DDDDFDFFFFFFFFHDDDDHDDHDDDDDDHDDDHDDDDDDDDDDDDDDDDDDDHDDDDHDDDHDHDDDDDDDDDDDDDDDDDHDDDDDDDDDDDDDDDDDDFDDDDDDDDDDDDDDDDHDDDHDHDDD",
"GDDDFFFFFFFFHDDDHDDDDHHDDDDDDDDHDDDDDHDDDDHDDDDHDDDDDDDDDDDDDDDDDDDHDDHDHDDHDDDDDHDHDHDDDHHDDHDDDHDDHDDDDHDHHDDDDDDDHDHDDDDDDDDD",
"vGGDFFFFFFFFDHDDDDDDDDDDDHDHDDDDDDHDDDDDHDDDHDDDHDDDDHDDDDDDDHDDDDDDDHDDDDDDDDDDDDDDDDDDDDDDDDDDDDDDDDHDDDDDDDHDDDDHDDDDDHDDHDDM",
"uHFDFDFFDDDDHFDFDHDDDHDDDHDDDHDDFFHDDHDHDDHDDHDDFFSFGSDGDDDFFFFFHDDDDDDHDDDHDDDDDDDDDDDHDDDHDDDDDDDDDDDDFFFFDDHDHDDDDDDDDDDDHDHu",
"%NHDDDFFHDDDDFFDDDDDDDDDDDDHDDDDFDDDDDDDDDDDDDDDFFFDGDGSGGDFDFFFDDDDHDDDDDDDDDDHHDDHDDDDDDDDDHDHDHDDHDDHFFFFHDDDDDDHHDHDDDDDDDD3",
"ohHFFFDFDDHDDHFFDDDDDDDDDDDDHDDDHDFFDHDDDHDHDDDDFFSGDDGDDGFFFDFFDDDDDDDDHDDDHDDDDDFFHDDDDDDDDDDDDDDDDDDDFFFFDDHDDDDDDDDDDDDDDLb-",
".3DHDFDDDDDDDDFFDDDHDHDDDHDDDDDHFFFFDDDDDDDDHDDDFFSDDGDGGDFFFFFFDDDHDDHDDDHDDDDDDHFFDDDHHDDHDDDDHDHDDDDDFFFDDDFFDDHDDHDDHDHDHD3+",
"P+lHHDDDDFFFFFFFDDDDDDDDHDDHDHDDFFFFHFDFDDDDDDHDFFFFGDGDDGSGFFFDDDDDHDDDDDDDDDDDFFFFHDDDDDDDDDDDDDDDDDDDFFFFFFFFDDHDDDHDFFDDHb%P",
"P.-MHFDDFFFFFFFFDDDHDHHDDDDDDDDDFFFFDFFFDDHDHDDDFFFFDDDGDDDSFDFDHDDDDDDDDDDDDDDHDDFFDDDDDDHDDDDDDDDDDDHDFFFFFFFFHDDDHDDDFDDHN-oP",
"P .8CHFFFFFFFFHZDDDDDHDDDDDDDDDDDDDHDDDDDDDDDDHDFFDDDDDDGSDGFFDDDDDDDDDDDDDDDDDDDDDHDDDHDDDDHDDHHDHDHDDHDHHDFFFFDDDDDDHDFFHD8ooP",
"PP .uZHFDDFFFFGGDHDDDDDDDDHDDDDHDDDDDDDDHDDDDDDDFFFFFFFDDGDDDDDDDDDHDDHDDHHDDDHDDDDDDDDDHDDDDDDDDDDDDDDDDDDDFFFFDDHDDDDDFHCuooPP",
"PP  o8NKGDDFFFHGDDDHFFFFDDDDHDDDFFDFFFHDFFFFDDDDFFFFFFFFFFFFFFDHDFFDFFGDDDHDDDDDFFFFFHHDDHDDFFFFDDDDHDDDFFFFFFFFFGZFFFFGLB0o  PP",
"PPP  .3lDHFFDFZGFDDFFFFFHDDDDDDHFDFFFFFDFFFFDHDDFFDFDFFFFDFFHFDDFFFFFDDDHDDDDHDDDFFFDDDDDDDHFFFFHDDDDDHDFDFFFFFFZFHFFFHGb:X  PPP",
"PPPP   %0bCGGGFFDDDDDDFDDDDDDDDDDDFFFFFDDDDDDDDDDDDDDFFFDDFFDDDDDDDDDDDDDDDDDDDDDDFFDDDDDDDDDDFFDDDDDDDDDDDDFFFFHHHFGZb0%.. PPPP",
"PPPPP    +3ujMNNBNMMMMMMMMMMMMMMMMMNMMMMMMMMMMMMMMMMMMMMMMMNMMMMMMMMMNMMMMMMMMMMMMMMMMMMMMMMMMMMMMMMMMMMMMMNMMMBNNMlw3%.... PPPP",
"PPPPPP     .+**-***%*%%*%***8-%%%%%%%%%%%%%%&%%&&%&*****%%%%%%%%%%%%&%%%%&**<**%**%*%***%*%%**%*%***%%%%%%%%%%%-*-%oX     PPPPPP",
"PPPPPPP         .           %%+%                                            *+..                    o...                 PPPPPPP",
"PPPPPPPPP                   ..oo                                                                      .                PPPPPPPPP",
"PPPPPPPPPPPP                ...o                                                                                     PPPPPPPPPPP"
};
