/* XPM */
static char *shotgun[] = {
/* columns rows colors chars-per-pixel */
"128 128 73 1 ",
"  c #000000",
". c #080704",
"X c #070804",
"o c #0A0A05",
"O c #0D0D09",
"+ c #100F0A",
"@ c #0F100C",
"# c #13130C",
"$ c #18170D",
"% c #1A190F",
"& c #141411",
"* c #181711",
"= c #1A1A15",
"- c #1E1D18",
"; c #201F14",
": c #201F18",
"> c #222215",
", c #24231B",
"< c #28271C",
"1 c #2B2A1D",
"2 c #302E1F",
"3 c #33311F",
"4 c #282720",
"5 c #2D2C21",
"6 c #302F23",
"7 c #343225",
"8 c #383626",
"9 c #3B3827",
"0 c #363429",
"q c #39372A",
"w c #3D3B2C",
"e c #3F3E30",
"r c #403E2D",
"t c #413F30",
"y c #41402F",
"u c #444233",
"i c #484636",
"p c #4B4837",
"a c #474538",
"s c #494738",
"d c #4C4A3B",
"f c #514E3E",
"g c #52503E",
"h c #4F4E40",
"j c #514F40",
"k c #545342",
"l c #595645",
"z c #5B5947",
"x c #595748",
"c c #5D5B4B",
"v c #605E4D",
"b c #62614E",
"n c #666554",
"m c #696654",
"M c #6B6956",
"N c #6D6C5B",
"B c #716E5C",
"V c #74715E",
"C c #767461",
"Z c #797663",
"A c #7C7965",
"S c #7E7C69",
"D c #817E6A",
"F c #85836E",
"G c #88856F",
"H c #878672",
"J c #888772",
"K c #8B8974",
"L c #8F8C78",
"P c #908E77",
"I c #908D79",
"U c #93907C",
"Y c None",
/* pixels */
"YYYYYYYYYYYDKKJKDJJJJJHJJHHKKKHHHJJJHHHHHHHJHHKHJJHHJJJJHHHJJHHHHJJJHHKKHHHHKHHJHHHHHJJJHJHJHHHJHHHHJJJJHHHHHKJHJJJHJYYYYYYYYYYY",
"YYYYYYYYYDKKHKJJJJJJJJJJJJHHHHKHHHHJJHKHHJHJHHHHJHKHJJHHKHHHJJHKJJJJKHHHHHHKHHHKKHHHJHHHJJJJKHHJHKHJJHJJJHJJHHJJJJJJJDJDYYYYYYYY",
"YYYYYYYHDLDKKDKLLDDLJJJJHHHHHHHHKHHHHHHKHJHHKHHHHHHKHKHHKHHHHHHKHKHHKHHHHKHHKHHHKHHHHJJKHKHHKHHHHJHKHKHHKHHHHKHHJJJGJJJJKYYYYYYY",
"YYYYYYFJKKLLHKJDSNNnnnnnnnnnnnnnnnnnnnnnnnnnnnnnnnnnnnnnnnnnnnnnnnnnnnnnnnnnnnnnnnnnnnnnnnnnnnnnnnnnnnnnnnnnnnNADJJJJJJJKJFYYYYY",
"YYYYFJJJKJKDJZcu4-&&&&&&&&&&&&&&&&&&&&&&&&&&&&&&&&&&&&&&&&&&&&&&&&&&&&&&&&&&&&&&&&&&&&&&&&&&&&&&&&&&&&&&&&&&&&=1tcVJKJJJJJFGYYYY",
"YYYYGJKJJKKZj<OX                                                                                                 O>fCKKJJKJJYYYY",
"YYYKJKJJJDv6+                                                                                                      +1lDKJJJJJYYY",
"YYDJKJJJDd&                                                                                                          +aZJJJJJGYY",
"YYKKKJKAt@     YYYYYYYYYYYYYYYYYYYYYYYYYYYYYYYYYYYYYYYYYYYYYYYYYYYYYYYYYYYYYYYYYYYYYYYYYYYYYYYYYYYYYYYYYYYYYYYYYY     OqZKJJJDYY",
"YKGKJKDh@   YYYYYYYYYYYYYYYYYYYYYYYYYYYYYYYYYYYYYYYYYYYYYYYYYYYYYYYYYYYYYYYYYYYYYYYYYYYYYYYYYYYYYYYYYYYYYYYYYYYYYYYY   OtDLJJJKY",
"YGJKJIc&   YYYYYYYYYYYYYYYYYYYYYYYYYYYYYYYYYYYYYYYYYYYYYYYYYYYYYYYYYYYYYYYYYYYYYYYYYYYYYYYYYYYYYYYYYYYYYYYYYYYYYYYYYYY  +jKJJJJY",
"GJJJJV,  YYYYYYYYYYYYYYYYYYYYYYYYYYYYYYYYYYYYYYYYYYYYYYYYYYYYYYYYYYYYYYYYYYYYYYYYYYYYYYYYYYYYYYYYYYYYYYYYYYYYYYYYYYYYYY  -NJKJJG",
"GJJJDaO YYYYYYYYYYYYYYYYYYYYYYYYYYYYYYYYYYYYYYYYYYYYYYYYYYYYYYYYYYYYYYYYYYYYYYYYYYYYY          YYYYYYYYYYYYYYYYYYYYYYYYY &kJJGGG",
"GJJJB= YYYYYYYYYYYYYYYYYYYYYYYYYYYYYYYYYYYYYYYYYYYYYYYYYYYYYYYYYYYYYYYYYYYYYYYYY      . .XXX.        YYYYYYYYYYYYYYYYYYY  7SKGGG",
"JJKKjO YYYYYYYYYYYYYYYYYYYYYYYYYYYYYYYYYYYYYYYYYYYYYYYYYYYYYYYYYYYYYYYYYYY       Xo@%10radhdda92>#O.          YYYYYY    XO5CKJGG",
"GJKD7 YYYYYYYYYYYYYYYYYYYYYYYYYYYYYYYYYYYYYYYYYYYYYYYYYYYYYYYYYY              Xo=7ixMAFFFFHHGFFDZnfw>#o.             XO>ekmDGGGJ",
"JJJC,YYYYYYYYYYYYYYYYYYYYYYYYYYYYYYYYYYYYYYYYYYYYYYYYYYYYYY        X.XXooO#;1wdcVFGKJPPJJJKJKKIIKKKDZmj9-o       .X#6dbVGGJGGGJG",
"JJKn-YYYYYYYYYYYYYYYYYYYYYYYYYYYYYYYYYYYYYYYYYYYYYYYYY       XO@#><8wadkccmVVFGJJJKKGGGGGJJGJGGKJGKIIKJFVj#   o+<ulMZFGJKJJGJGKG",
"JKKm4YYYYYYYYYYYYYYYYYYYYYYYYYYYYYYYYYYYYYYYYYYYYYY      X.%7ukbNZDGKHFJKGGKPKJJGJGGGGGGGJJJJGGJJGKGKIIJJJi##1dnSJJJKKGKJGJGGGHH",
"GKKMYYYYYYYYYYYYYYYYYYYYYYYYYYYYYYYYYYYYYYYYYYYYY   .o@>wdbVSFGGJKLKKKJKKGJGGGJJJJJJKJJJJJGJJKJKKJDZmla66xBcnAFKLKJJJGJFJJJJJKGH",
"JKKBYYYYYYYYYYYYYYYYYYYYYYYYYYYYYYYYYYYYYYYYYY   .X#2icVFFGKLJJJJJGKGGGJJGKJKGKGJJJJGGJJJGJKIJDCmf8<=#o  ,NKGKKKGGFKGJGKHKHHKGGH",
"GKKBYYYYYYYYYYYYYYYYYYYYYYYYYYYYYYYYYYYYYYYY    #1fMFFFKLGGFGGJJGGJJKKGJJGGJFJGJJJJJGKKUIDCMlu5-+O.     .<CIJJGGFKKGKJJKHGGGFGHH",
"GKKVYYYYYYYYYYYYYYYYYYYYYYYYYYYYYYYYYYYYYYY  X*tbAFJJKGGGFKFJGJFJJGJJKKGJJGJJKJGKJJJDANzi7,-#o       .O=9nJJGGGJKKFKGJKFGKGGGGGH",
"GGGDYYYYYYYYYYYYYYYYYYYYYYYYYYYYYYYYYYYYY   OqnFGKJJGGKFKKFKJGJKJJKJGJGJGJJJKIKFAMzd91%#o         .O>9lNDJGJGJJJFKKFJGFKKPFAAGGH",
"KGGDYYYYYYYYYYYYYYYYYYYYYYYYYYYYYYYYYYY   .>kFKKJGGKFJGJFJGJJKKGJJJJGJJJLKSVmly1>=#o          oO=8dbVFGKKGGGGJJGGJGGKKHZmg70NJGG",
"GKGGYYYYYYYYYYYYYYYYYYYYYYYYYYYYYYYYYY   #uVGKKFJJFKKJJJKKKJKFGJJJKKKKSVbp7>=%#.             oecBDFFKLKGKGJKGJJKKKJDBxt1%@X:MLGG",
"GKKGYYYYYYYYYYYYYYYYYYYYYYYYYYYYYYYYY   %xFKGGFKGJJFJJJJKFKGGKHHKLGZbd2=#O.X$8yO             +bIKKKJGJGGGJJGJJIKDmf7=+. X  %mPJG",
"KGGGYYYYYYYYYYYYYYYYYYYYYYYYYYYYYYY   o5mKKKFKHJJJJKJKGJGKGGJFFAmf9,%#oO=0dcNFF3       .o#=%  0DGGGJJJGJKGKKGCvr1*O.       =nKJG",
"KGGFYYYYYYYYYYYYYYYYYYYYYYYYYYYYYY   @uVLKGGGJGGHKGKGJJGGGKKAbu1%+oO#1pbBSGJJPJyX   o@%1dnZm; #cKJJGJGJJKGZbi<#o           =mPGG",
"GKJGYYYYYYYYYYYYYYYYYYYYYYYYYYYY    #fDJKFFKJJKHKGJFJGKKKFNd1#oXX$7gmSKPKGJGJKKpOX$1pcNFJKIKfo 6DJJGJLIFmi<#.              =bKGG",
"GKKGYYYYYYYYYYYYYYYYYYYYYYYYYYY   o1cHLGJGGKJJJJGFKKKKSNd7>+o@<rkNSFGKKJGGGJGGFmdkMZFKKKKKGIZ< *BIIKFBf0=O                 =nPGJ",
"GJKGYYYYYYYYYYYYYYY     YYYYY    &uVKLJGGJGJKJGGJKKGZl8=OXO>rbVGGKGGGGGJGKKGJGFDFGKKKGFKJKKIDtoopDVl8;O                    >VPGG",
"JGJGYYYYYYYYYYYYYY          X X@7nFKJGGGJJJJJJJJPGMi;@OO>rbZGPJKJKJGJJJGGJJJJGGGKKJGJJJJIJNs<#  #6-O                      YYFJJF",
"KGJGYYYYYYYYYYYYY   o@+oX   o#7zAKKJJGJJJJGJJJJFbw;OO#7kNFKJPJGJGFJHGGJGJGKJGJJJGGJGJJJCcr=O                           YYYYYFHJK",
"GKJFYYYYYYYYYYY    &abnf3%%<ubDKKJJGGJJJKJJGKKVy$Xo,iNFGGKKGGGJJKFGKKJJKJJJKJJJJGKIIDma>+                           YYYYYYYYHJJG",
"KGJGYYYYYYYYYY    OkHHFFSVVAFFKKJJGJGJJJGGJPFc<O@3gVHJKGGGJGJJJJJKJJJJJJJJJGKJGKIDBf6*o                           YYYYYYYYYYHJJG",
"GGKFYYYYYYYYY    ouFLKGKKGJKKGGGJGJGJJGJJJLAp%O>kAGJKFJGJJJGJJJJKFKHJKGKJJJJGJGZv9;+                           YYYYYYYYYYYYYFHJH",
"JKKFYYYYYYYYY    *VKGGJGJGGJGJKGJJGKJJJJKJN7oowVJKGGGKFGGJJJJJJJHKHKJJJJJKKGJGKB*                           YYYYYYYYYYYYYYYYHJJH",
"GKGFYYYYYYYY    .tKKFGGKJJJGJJGKJJJJGJJKDx>o*gSGJGGGGKGKJJJGJJJJFKJKJKJJGGGJGKInO                        YYYYYYYYYYYYYYYYYYYHJJH",
"KGKFYYYYYYYY    ozGKFKJJJJJJJJKGJJJJJJKSa$X,nKJGGJGJJGJGJKJKJJJJKJKFJGKGKKJGGIIcO                     YYYYYYYYYYYYYYYYYYYYYYHJGH",
"KGKFYYYYYYY     +nGKGKKGJJJJJGJKJGJJKLV6o#wVKKGJGKGGJJJKGKGKJJJKJKJJGGJJJJKKDBk>                   YYYYYYYYYYYYYYYYYYYYYYYYYJKJJ",
"GKJFYYYYYY      #mJGGGJJKJKGJKJGJJKKFb4X#dDJJJGGGGJJKJJKJJJJKKGGKFJGJKGKGZmf7=#           YYY YYYYYYYYYYYYYYYYYYYYYYYYYYYYYYFJJJ",
"GKKFYYYYY    o. +bJGJJGJGGGKKGJJGKISa#X>vJKJJGJGGKKGJGKGKGGJGGJJGGJJKIDmi,#o           YYYYYYYYYYYYYYYYYYYYYYYYYYYYYYYYYYYYYHJJG",
"GGJFYYYYY  Xqcg71vGJGJJJKJJKGJJKKGm6O+0NJKGJGGGKJJJJJJJJJGKGJJJJJKJZvp1*o           YYYYYYYYYYYYYYYYYYYYYYYYYYYYYYYYYYYYYYYYHJJJ",
"KGKFYYYY   okHKFBZGJJKKGGGKGJKKJBi=o*fAJKGGGJKGKJKGJJJKJKGJKJJKJVvu<*o          YYYYYYYYYYYYYYYYYYYYYYYYYYYYYYYYYYYYYYYYYYYYHJJH",
"FKKFYYYY    %7pAKJGGGGGJJJGJKKZd;oo0MKKJGJGJKFJJJJKGJGGJGJIIKCvr;O.           YYYYYYYYYYYYYYYYYYYYYYYYYYYYYYYYYYYYYYYYYYYYYYFJJH",
"GJGFYYYY     .#wDIKKKGKJJKJZmd<#O<fZJKGJGJGJHHKFJJGJKKKKIDBvt:#o           YYYYYYYYYYYYYYYYYYYYYYYYYYYYYYYYYYYYYYYYYYYYYYYYYHJJH",
"KGKFYYYY       #MKIKDDZBmlr1%OO>fCGKJHGGGJKFKKGKGJJGKIJVl8=+.          YYYYYYYYYYYYYYYYYYYYYYYYYYYYYYYYYYYYYYYYYYYYYYYYYYYYYHJGH",
"GJGGYYY         19981>=*#+..#1gZKGJFJFJJJJGKGJJKGKIDBf7=O           YYYYYYYYYYYYYYYYYYYYYYYYYYYYYYYYYYYYYYYYYYYYYYYYYYYYYYYYJJJJ",
"GJGGYY    #*=#  ...o###+++>rvAFKKGFJGJJGJJGJKJJJZmf7;O.          YYYYYYYYYYYYYYYYYYYYYYYYYYYYYYYYYYYYYYYYYYYYYYYYYYYYYYYYYYYGJJG",
"JJJGYY   -xZZb5.   <bNzklnZJIKGHGGGFGJJGJGGKKDmp>#o           YYYYYYYYYYYYYYYYYYYYYYYYYYYYYYYYYYYYYYYYYYYYYYYYYYYYYYYYYYYYYYHJJJ",
"JJJGYY   <NKPPZ0. $nKLJGGJKJGGGGJJJJJJJJGJZnp1*o           YYYYYYYYYYYYYYYYYYYYYYYYYYYYYYYYYYYYYYYYYYYYYYYYYYYYYYYYYYYYYYYYYHJJG",
"GJKFY    o-kDIIC5>zFKGKKJJGGGGGJJJJKJJGCvi<#o           YYYYYYYYYYYYYYYYYYYYYYYYYYYYYYYYYYYYYYYYYYYYYYYYYYYYYYYYYYYYYYYYYYYYHHHH",
"JGKFY      #aDIKZCHKGGGGJJJJJJGGJIIKCvr;O.           YYYYYYYYYYYYYYYYYYYYYYYYYYYYYYYYYYYYYYYYYYYYYYYYYYYYYYYYYYYYYYYYYYYYYYYHHGH",
"GJJFYY      +dFKJJJFJGKFJGGJKKPKDVvr,#o   O>i<.    YYYYYYYYYYYYYYYYYYYYYYYYYYYYYYYYYYYYYYYYYYYYYYYYYYYYYYYYYYYYYYYYYYYYYYYYYHHKH",
"GJKGYY       +cKJGJJGKGJGJJKIKVl8;#.    #7lZUb&   YYYYYYYYYYYYYYYYYYYYYYYYYYYYYYYYYYYYYYYYYYYYYYYYYYYYYYYYYYYYYYYYYYYYYYYYYYHHJH",
"JJJGYY        uGKJJJJGKJKKDBg7=##>1O   >BPIFM9o   YYYYYYYYYYYYYYYYYYYYYYYYYYYYYYYYYYYYYYYYYYYYYYYYYYYYYYYYYYYYYYYYYYYYYYYYYYJJJJ",
"JJJGYYY       1DPJGJJJGZnf7=+O$6lZDg=  ;Mmp1#o    YYYYYYYYYYYYYYYYYYYYYYYYYYYYYYYYYYYYYYYYYYYYYYYYYYYYYYYYYYYYYYYYYYYYYYYYYYGJJG",
"JJJGYYY       1DIJKKFMd<#...$rmFKKKGn>. ++       YYYYYYYYYYYYYYYYYYYYYYYYYYYYYYYYYYYYYYYYYYYYYYYYYYYYYYYYYYYYYYYYYYYYYYYYYYYHHJH",
"JGGGYYYY      2FIZnp1#O .#1fNFKKGGGIPgO         YYYYYYYYYYYYYYYYYYYYYYYYYYYYYYYYYYYYYYYYYYYYYYYYYYYYYYYYYYYYYYYYYYYYYYYYYYYYHJJH",
"JJKGYYYY      #fd<#o   OqvDGGJJGGJGKJ9.         YYYYYYYYYYYYYYYYYYYYYYYYYYYYYYYYYYYYYYYYYYYYYYYYYYYYYYYYYYYYYYYYYYYYYYYYYYYYHHHH",
"GKGFYYY        X.     OdKPKJJGGGJGKKV;        YYYYYYYYYYYYYYYYYYYYYYYYYYYYYYYYYYYYYYYYYYYYYYYYYYYYYYYYYYYYYYYYYYYYYYYYYYYYYYHHGG",
"GKGGYYY               =VPKJGGGJJJJKIv+     YYYYYYYYYYYYYYYYYYYYYYYYYYYYYYYYYYYYYYYYYYYYYYYYYYYYYYYYYYYYYYYYYYYYYYYYYYYYYYYYYHHKH",
"GKJGYYYY             .wJKGGJJJGJKGGJt.  YYYYYYYYYYYYYYYYYYYYYYYYYYYYYYYYYYYYYYYYYYYYYYYYYYYYYYYYYYYYYYYYYYYYYYYYYYYYYYYYYYYYHHKH",
"JJKFYYYYYY           ObKJGGJKJJJKHHC4   YYYYYYYYYYYYYYYYYYYYYYYYYYYYYYYYYYYYYYYYYYYYYYYYYYYYYYYYYYYYYYYYYYYYYYYYYYYYYYYYYYYYHHKH",
"GKJFYYYYYYY          6ZKGGJJGJJJHHKv=   YYYYYYYYYYYYYYYYYYYYYYYYYYYYYYYYYYYYYYYYYYYYYYYYYYYYYYYYYYYYYYYYYYYYYYYYYYYYYYYYYYYYHKHK",
"KKKFYYYYYYYYY       OkFKGJKGKJKJJKUhO   YYYYYYYYYYYYYYYYYYYYYYYYYYYYYYYYYYYYYYYYYYYYYYYYYYYYYYYYYYYYYYYYYYYYYYYYYYYYYYYYYYYYHJKH",
"GGJFYYYYYYYYYYYY    >ZKGJJGJJJGKJJS6   YYYYYYYYYYYYYYYYYYYYYYYYYYYYYYYYYYYYYYYYYYYYYYYYYYYYYYYYYYYYYYYYYYYYYYYYYYYYYYYYYYYYYHJHH",
"GJKFYYYYYYYYYYYY   oiKLKGGKJJJJJJKN=XXXYYYYYYYYYYYYYYYYYYYYYYYYYYYYYYYYYYYYYYYYYYYYYYYYYYYYYYYYYYYYYYYYYYYYYYYYYYYYYYYYYYYYYFHJH",
"KGKGYYYYYYYYYYYY   #nJFGJJGJJJKGJKk+XX YYYYYYYYYYYYYYYYYYYYYYYYYYYYYYYYYYYYYYYYYYYYYYYYYYYYYYYYYYYYYYYYYYYYYYYYYYYYYYYYYYYYYHHJJ",
"GJJFYYYYYYYYYYY    0SJGGGJKHKJJJKJ7.@XYYYYYYYYYYYYYYYYYYYYYYYYYYYYYYYYYYYYYYYYYYYYYYYYYYYYYYYYYYYYYYYYYYYYYYYYYYYYYYYYYYYYYYHJJH",
"JGKFYYYYYYYYYYY   oxJKGJJKFKJGKJKB* @&YYYYYYYYYYYYYYYYYYYYYYYYYYYYYYYYYYYYYYYYYYYYYYYYYYYYYYYYYYYYYYYYYYYYYYYYYYYYYYYYYYYYYYHJHH",
"JJJGYYYYYYYYYYY   >VKGJJJJJJJJJJIlO   YYYYYYYYYYYYYYYYYYYYYYYYYYYYYYYYYYYYYYYYYYYYYYYYYYYYYYYYYYYYYYYYYYYYYYYYYYYYYYYYYYYYYYHJJJ",
"JJGGYYYYYYYYYY   odFKJKGJJJKKGGKJt.  YYYYYYYYYYYYYYYYYYYYYYYYYYYYYYYYYYYYYYYYYYYYYYYYYYYYYYYYYYYYYYYYYYYYYYYYYYYYYYYYYYYYYYYFKJG",
"JKJGYYYYYYYYYY   *VKJGGKJJJGJKGJZ,   YYYYYYYYYYYYYYYYYYYYYYYYYYYYYYYYYYYYYYYYYYYYYYYYYYYYYYYYYYYYYYYYYYYYYYYYYYYYYYYYYYYYYYYHJJH",
"JKJGYYYYYYYYY   .wHKJGKFGKJKJGKKv&   YYYYYYYYYYYYYYYYYYYYYYYYYYYYYYYYYYYYYYYYYYYYYYYYYYYYYYYYYYYYYYYYYYYYYYYYYYYYYYYYYYYYYYYHJJH",
"JJJFYYYYYYYYY   @cPJFJJGJJKJKJKKto  YYYYYYYYYYYYYYYYYYYYYYYYYYYYYYYYYYYYYYYYYYYYYYYYYYYYYYYYYYYYYYYYYYYYYYYYYYYYYYYYYYYYYYYYFHJH",
"JGJHYYYYYYYY    2AJJKGKJGKJJGGJA,   YYYYYYYYYYYYYYYYYYYYYYYYYYYYYYYYYYYYYYYYYYYYYYYYYYYYYYYYYYYYYYYYYYYYYYYYYYYYYYYYYYYYYYYYFJGH",
"GJGGYYYYYYYY   ogHJGGJJJJJJKJGJm&   YYYYYYYYYYYYYYYYYYYYYYYYYYYYYYYYYYYYYYYYYYYYYYYYYYYYYYYYYYYYYYYYYYYYYYYYYYYYYYYYYYYYYYYYGJJG",
"JJKJYYYYYYYY   %VJGJJJGJJJJJGKKB<.  YYYYYYYYYYYYYYYYYYYYYYYYYYYYYYYYYYYYYYYYYYYYYYYYYYYYYYYYYYYYYYYYYYYYYYYYYYYYYYYYYYYYYYYYGJJH",
"GJJGYYYYYYY   otFKJJGJJJKJKJGJJKN4  YYYYYYYYYYYYYYYYYYYYYYYYYYYYYYYYYYYYYYYYYYYYYYYYYYYYYYYYYYYYYYYYYYYYYYYYYYYYYYYYYYYYYYYYKJKG",
"KGJGFYYYYYY   &nKGGJGJKGFKGJJJGKKb@ YYYYYYYYYYYYYYYYYYYYYYYYYYYYYYYYYYYYYYYYYYYYYYYYYYYYYYYYYYYYYYYYYYYYYYYYYYYYYYYYYYYYYYYYJJGG",
"GGJJHYYYYY    0SKJGJJKJJKKKJKGJHJN=  YYYYYYYYYYYYYYYYYYYYYYYYYYYYYYYYYYYYYYYYYYYYYYYYYYYYYYYYYYYYYYYYYYYYYYYYYYYYYYYYYYYYYYGJJJJ",
"GKGKKYYYYY   ozKJJJJJGGKFGKFJGJHKV=  YYYYYYYYYYYYYYYYYYYYYYYYYYYYYYYYYYYYYYYYYYYYYYYYYYYYYYYYYYYYYYYYYYYYYYYYYYYYYYYYYYYYYYJJJJG",
"JKGKHHYYYY   %VPKGGGJHKHJJGJJGHKIV&  YYYYYYYYYYYYYYYYYYYYYYYYYYYYYYYYYYYYYYYYYYYYYYYYYYYYYYYYYYYYYYYYYYYYYYYYYYYYYYYYYYYYYHJJJJG",
"GGHKGGHYY    OdDIKJJJHHJJGJJJJKKDdo  YYYYYYYYYYYYYYYYYYYYYYYYYYYYYYYYYYYYYYYYYYYYYYYYYYYYYYYYYYYYYYYYYYYYYYYYYYYYYYYYYYYYYGJJJGK",
"GKGGKGHYYY    +0nFKKJKKJKKJKJJJM0#   YYYYYYYYYYYYYYYYYYYYYYYYYYYYYYYYYYYYYYYYYYYYYYYYYYYYYYYYYYYYYYYYYYYYYYYYYYYYYYYYYYYYGHJJJJH",
"GKKGGKGHYY     .&uxcccvbvvvvbnf;     YYYYYYYYYYYYYYYYYYYYYYYYYYYYYYYYYYYYYYYYYYYYYYYYYYYYYYYYYYYYYYYYYYYYYYYYYYYYYYYYYYYGJJKJJGH",
"HJJJJJJJJZ+      XoOoOooOOoOoOo     YYYYYYYYYYYYYYYYYYYYYYYYYYYYYYYYYYYYYYYYYYYYYYYYYYYYYYYYYYYYYYYYYYYYYYYYYYYYYYYYYYYHJJHHHHHH",
"HJJJJJJJJKg$                        YYYYYYYYYYYYYYYYYYYYYYYYYYYYYYYYYYYYYYYYYYYYYYYYYYYYYYYYYYYYYYYYYYYYYYYYYYYYYYYYYYHJGKKHHHHH",
"HJJJJJJJJKGv4O.                     YYYYYYYYYYYYYYYYYYYYYYYYYYYYYYYYYYYYYYYYYYYYYYYYYYYYYYYYYYYYYYYYYYYYYYYYYYYYYYYYHHJJJKJHHHHJ",
"FHJJJJJJJJJKAc9;#@ooXoo..XoXXoXX.o@YYYYYYYYYYYYYYYYYYYYYYYYYYYYYYYYYYYYYYYYYYYYYYYYYYYYYYYYYYYYYYYYYYYYYYYYYYYYYYYDHHHJJJJHKJHHJ",
"JGJJHHJJJJJKKKFVbguywywyryrryyyywizZHFFFFFHHHFHFHHHSHHHHUHHHHHHHFFHDHFFFHFHFFFHFHHHFHDFFHFFFFFFFFFYYYYYYYYYYYYFHHFJJJHLHHHHHJHJH",
"FJGGJJHHJJJFJJJKLPPPLPPPLLLLPPKPPPLGHHHHHHHHHHHHHHHHHHHHUUHHHHHHJJKHHHHHJJHHHHHHJJHKJJHHJJHHHHHHFHJHJGGJHFJGJHHJHJJJHHJHHHHHKHKF",
"GGKGJJHHJJJJKFJJKJKKJJKKKKKKJKKJKKKGKHHHJJKHJJJKLHHHHHHHHHHHLHHHKKHHHHKKKHKHHKHHKHKHJHJKJHKKKHKKKJKJJKKKKKJKJJJJJJJJJHJHHHKHJGFJ",
"GGGJJJHHJHHKFJJGJGJJJJJJGKGKGKKGJKFKHHKKHKJJJHHHHHHHHHHHLHLHHHHLHJHKHKHHHKHHHHHKHHHHJKKHJKHHHHHHHHJHHHHHJJHJJJJJJJJJHHHHHHJKJJJG",
"GJGJKKHGHHHKGJGJGGJJJJJJJJJJGJJPHHHHLHHLHHHHHHHHHHHLHHHHHHHHHHHHHHHHHHHLHHHHHHHLHHHHHHHHHHHHHHHHHHHJHJHJHLHHHHHHHHHHHHHHHLHHHHHH",
"GGGJJGKGHHHGJJKJJKJGGKJJGJGGJJGGHHHHHHHHHHHLHHLHHLHHHHHLHHHLLHHHLHHHHHHHHHHHHHHHHHLHHLHHHLHHHHHHHKKHJJHHHHHHHLHHHHHHHHHHHHHLLHHH",
"HGGJHKHHHGGGJKJJJJJJGJGJJJJPJJJJHHHHHLHHHHHHHHLHHHLHHHHHHHHHHHHHHHHLLHHHLHHLHLHHHLHHHHHHHLHHHLHLKKHHHHHHHHHHHHHLLHHLHHLHHLHHHHHH",
"HGGJKGHKHKHKJJJJKJKJKJKJJJJJPJJJLHHHHHHHHHHHHHHHHHHHHHLHHLHHHHHLHHHHHHHLHHHHHHHHHHHHLHHLHHHHHHHHHHHKHHLHLHHLHHHHHHHHHHHHHHHHHHHH",
"GJJGHHJJHKGHGKHGGJJKGKJJJJGPGJJJHHHHHHHLLHHHHHHHHHHHHHHHLHHLHLHHHHHHHLHHHHHHLHHLHHHHLHHHHHHHHHHHHHHHLHHLHHHHHHHHHHHHHLHHHHLHLHHH",
"GGGHGKHKKJHKHHKKJJJKJJJJJJGJGJJJLHHHHHHHHHHHHHHHHHLHLHLHHHHHHHHHHLHHHHHHHLHHHHHHHLLHHHHHHLHHHLLHHHLHHHHHLHHHHHHHHHHHHHHHHHHHHHHH",
"GJJKKGGKGJHKKHKHJJJGJJJKJJJJJJJJHHHHHHHHHHHLHHHHHHHHLHHHHHHHHHLHLHHLHHHHHHLHLHHHHHHHLHHLHHHHHHHHHHHHHHHHHHHHHHJHLHHLHHHLHLHHHHHH",
"GGHKGHKHKJHHGKHKKJJJJJKGPJJJJJGPHHHHHLHHHLHHHLHHHHHHHHHHLHHHLHHHHHHHLHHHLHHHHHHHLHHHHHHHHHHLHLHHHLLHHHLHHHLHHHJJHHHHHLHHHHHLHHHH",
"JHHHKGGKGKGKGKGGGGHKKGGKGGJGJGGJHHHHHHHHLHHHHLHHHHHHHHHHHHHHHHLHHHHHHHLHHHHHLHHLHHHHHHHHHHHLHHHLHHLHHHLHHHHHHHHLHLHHHHLHHHHHHHHH",
"GHHHJGKGKGKGHGKGKKGGGKGGJGJJJKPGLHLHHHHHHHHHHHHHHLHHHLHLHHHHHHHHHHHHHHHHHHHHHHHHHHHHLHHHHHHHHHHHHHHHHHHHHHHHJHHHHHHHHHHHHHHLHHLH",
"JGGKGKJJKGGKGKHGHHGKKGHGGJJGGKGGHHHHHHHHHHLHHHHLHHHLHHHHHHHLHHLHHHHHHHHHHLHHHLHHHHHHHHHLHHLHHHHHHLHHHHHHHHHHJHHHHHHHHHHHHHHHHHHH",
"GHGGJJJJGKHGKHKKHHHKGKHKJJPGKGJGHHHHLHHHHHHHHHHHHHHHHHHHHHHHHHHHLHHLHHLHHHHLHHHHHLHHHHHHHHHHHLHHHHHHLHHHHLHHHHLHHHLHHHHHLHHHHHHH",
"GJHHJJJJHKHKGHKGPKGKKHGKHKHHGKGKHHHLHHHLLHHHHHHHHHHHHHHHHLHHHHHHHLHHHHHHLHHHHHHHHHHHHHHHHHHHHHHLHHHHHLHHHHJJHHHHHLHHLHHHHHHHHHHH",
"JGHHJGGHHHKHHKHHGGKHGHKGHKGKKGHHHHHHHHHHHHHLLHHHHLHLHHLHHHLHHHHHHHHHLHHHHHHHHHLHLHHHLHHHHHHLLHHHHHHHHHHLHHJJHHHHHHHHHHHHLHKHLHHH",
"GGHHJHHHHHGGKHKKGKHGKHHKKHGKKGHHHHHHLLHHHLHHHHHHHHHHLHLHHLHHLHHLHHHLLHLHHHLHHLHHHHHLHHHHHLHLHHHHLHHLHHHHHHHLHHJHLHHLHHHHHHHKJJHD",
"MGHHHHHHKHHKGKGHHHHKKGHKGHHHKHHHLHHHHHHHHHHHHHLHHHHHHHHHHHHHHHHHHHHHHHHHHHHHHHLHHHHHHLHHHHHHHHHHHHHHHLHHHHHHHHJJHHHHHLHHLHHKJJJN",
"aDLHHHHHHHHJJHHHKHKHGHHGGHHPGHHHLHHHHHHHHHHHLHHHHHHHHLHHHHHHHHHHLHHHHHHHHHHHHHHHHLHHHHHLHHLHHHHLHHHLHKHHHHHHDLHHHHHHHHLHHHHHHHHa",
"-NLHHHHHJHHHHJHLGKKGGPHPHHHHGHHHHHHHHLHHHLHHHHHHHHLHHHHHHHHLHHLHHHLHLHHLHHHHHLLHHHHHHLHHHHHHHLHHHHHHHHHHJLHHLHHLHLHHHHHHHHLHHLZ4",
"OxLHHHHHHHHHHKLDGKHKHHPHPKGHHGHPHHHHHHHLHHHLHHHHHHHHHHHLHLHHHHHHHHHHHHHHLHHLHLHHLHHLHHHHHHHHHHLHLHHHHLHHHHHHHHHHHHHHHHHHLHHHHUn&",
".0HLHHHHHHHHHHHHHGHHHGGHGGKHHHHHHLHHHLHHHHHHLHHHLHHHHHHHHHHHHLLHHLHHHHLHHHHHHHHHHHHHHHHLHHHLHHHHHHHHHHHHJKHHHHHHHHHLLHHHHHHHLH0O",
"Y&cLJHHHHHLHHHHHHGHKHGGHHGHHHHHHHHHHHHLHLHHLHHHHHHHHHHLHHHHHHLHHHHHHLHHHHLHHHHHHHHLHHLHHLHHLHHHHHHHHLHHHJJHJHHHHHHHHHHLHHHHHLv&Y",
"Y -NLJHHLDHHHLLDHHHKKGGPHGPGHGHHLHLHHHHHHHHHHHHLHHHHHHLHHLLHHHHHHLHHHHHLHHHHHHHHHHHHHHHHHHHHHHHHHLLHHHHHJHHJHHLHHHHHHLHHHLHHC4OY",
"Y  qZLJHHHHHLDJJHHHHHGHHHPPGHHHKHHHHHLHHHHLHLHHHHHHHHHHHHHHHHHHHHHHHHHHHHHHLHHLHHHLHHLLHHHLHHLHLHHHHHHHHHHJHHHHKLHHHHHHHHHLSeXXY",
"YY @eSLHHHHLDLJJKHHHHHHHGGHHHHHKHLHHHHHLHHHHHHHHHHHLHHHHHLHHHLHHHHHLHLHHHHHHLHHHHHHHHHHHHHHHHHHHHLHHHLHHHHJJHLHHHHLHHHHHHLHa&XYY",
"YY  O0VKKJJJJJJJKHKHJHJHHHHGHHHKHHHHLHHHHHHHHHHHHHLHHHHHJHHHHHHHHHHHHHHHLHHHHHHHHHHHHHHHHLHHHHHHHHHHHHHHKHJJJJHJJJJJKHJKLCeO  YY",
"YYY  X4cDJJJJHJDHHHJJJJJHHHHKHHHHJHHHHHHLHHHHHHHHHHHHHLHJJHHLHHHHHLHHHHHHHHHLHHHJHHHHLHHHHHHHHHHHLHHLHHLHJJJJJHHDJJDHHKDn4O  YYY",
"YYYY   &wnDJKKKKHHHHHHHHHHHHHHHHHHHJHHHHHHHHHHHHHHHHHHHHHHHHHHHHHHHHHHHHHHHHHHHHHHHJHHHHHHHHHHHHHHHHHHHHHHHHHHHHLJJLJDMt&X  YYYY",
"YYYYY   .&5axNVBCNNNNNNNVMVMNNMVNNNNNNNNNNNNNVNNNNNNNNNNNNNNNNNNNNNNNVNNNNNNNNNNNNNNNNNNNNNNNVNNNNNNNNNNNNNNNNNCCCNch6&OXX YYYYY",
"YYYYYY     o&=----==========%;%=-==-=----=-=--=------&-&-==-=---------=-----44---==-=------=--=-----=--&==-==------&@     YYYYYY",
"YYYYYYY                     @XXX                    @@XO                    4-&-                    X                    YYYYYYY",
"YYYYYYYYY                     XX                      XX                  X XX&&                                       YYYYYYYYY",
"YYYYYYYYYYYY                                          XX                  XXXO@@                                    YYYYYYYYYYYY"
};
