/* XPM */
static char *sniper[] = {
/* columns rows colors chars-per-pixel */
"128 128 73 1 ",
"  c #000000",
". c #080705",
"X c #0A0A05",
"o c #0E0E0B",
"O c #100F06",
"+ c #100F0B",
"@ c #0F100C",
"# c #13130D",
"$ c #18170E",
"% c #1B1A0F",
"& c #151512",
"* c #181711",
"= c #1C1B14",
"- c #1E1E19",
"; c #201F15",
": c #201F19",
"> c #232216",
", c #282716",
"< c #24231A",
"1 c #28271B",
"2 c #2C2B1C",
"3 c #302E1E",
"4 c #292721",
"5 c #2D2B21",
"6 c #302E21",
"7 c #343324",
"8 c #383626",
"9 c #393826",
"0 c #373628",
"q c #393728",
"w c #3C3B2B",
"e c #403F2E",
"r c #403E31",
"t c #44412F",
"y c #454334",
"u c #484635",
"i c #4A4834",
"p c #464438",
"a c #484638",
"s c #4C4B3B",
"d c #504E3E",
"f c #52503F",
"g c #504F40",
"h c #555343",
"j c #595646",
"k c #5B5846",
"l c #5A5749",
"z c #5D5B4A",
"x c #615E4D",
"c c #615F50",
"v c #62604E",
"b c #656352",
"n c #696655",
"m c #6C6956",
"M c #6A6959",
"N c #716E5D",
"B c #72705F",
"V c #757361",
"C c #797664",
"Z c #7C7A66",
"A c #7E7C69",
"S c #817E6A",
"D c #85836E",
"F c #88846F",
"G c #878671",
"H c #888772",
"J c #8B8974",
"K c #8F8C78",
"L c #908C77",
"P c #918E7A",
"I c #95917D",
"U c #999581",
"Y c None",
/* pixels */
"YYYYYYYYYYYGGHHHHHHHGHHHGGHGGHHGHHGGHHGGHGGGHHHHHGGHHHGHHGHHHHGHGGHHGHGHGHGGHHGHHHHGHHGHGHGHGHGHHGGGHHGHGHHHHGHHHHHHSYYYYYYYYYYY",
"YYYYYYYYSHKHHGJSHHHGGGHHHHGGHHHHGGHJHHGGHHJGGGHHHHGGGHHHGGHGHHHGHHGHHHHHHHGGGHHHGGHHHHGHHHHHHHHHHHGGGHHHHGHGHHHHHHHHHHJSYYYYYYYY",
"YYYYYYYGHHJHHHHUJHSHGGGHHGGGGGGGGGGGGGGGGGGGGGGGHGGGGGGGGGHJGGGGGGGGGGHHGGGGGGGGGGGGGGGGGGGGGGHHGGGGGGGGGGGGHGHHJHHHKHHHJYYYYYYY",
"YYYYYDHHJKSHJHJSACMMMMMMMMMMMMMMMMMMMMMMMMMMMMMMMMMMMMMMMMMMMMMMMMMMMMMMMMMMMMMMMMMMMMMMMMMMMMMMMMMMMMMMMMMMMMBAHJHHSHHHJHGYYYYY",
"YYYYDGHHHHHJJZzr4&ooo@ooooooo@@ooooooooo@@ooo@ooooooo@@ooooo&oooooooo&ooooooo&oooooooooooo@o@oooooooo&ooooooo##1rzCJJHHHHHHDYYYY",
"YYYYGHHHHKKVg1o.                                                                                                 o>dVJJHHHHHDYYY",
"YYYJHHJHHHx1X                                                                                                      X<kFJHHHHHYYY",
"YYSHJHHJAs#                                                                                                          #ySJHHHHFYY",
"YYHJHHJSro     YYYYYYYYYYYYYYYYYYYYYYYYYYYYYYYYYYYYYYYYYYYYYYYYYYYYYYYYYYYYYYYYYYYYYYYYYYYYYYYYYYYYYYYYYYYYYYYYYY     owSHSKHHYY",
"YHHJHKSgo   YYYYYYYYYYYYYYYYYYYYYYYYYYYYYYYYYYYYYYYYYYYYYYYYYYYYYYYYYYYYYYYYYYYYYYYYYYYYYYYYYYYYYYYYYYYYYYYYYYYYYYYY   XrSKHHHHY",
"YHJJJKl&   YYYYYYYYYYYYYYYYYYYYYYYYYYYYYYYYYYYYYYYYYYYYYYYYYYYYYYYYYYYYYYYYYYYYYYYYYYYYYYYYYYYYYYYYYYYYYYYYYYYYYYYYYYY  +hKHHHHY",
"FHHHHN=  YYYYYYYYYYYYYYYYYYYYYYYYYYYYYYYYYYYYYYYYYYYYYYYYYYYYYYYYYYYYYYYYYYYYYYYYYYYYYYYYYYYYYYYYYYYYYYYYYYYYYYYYYYYYYY  =MHHGHH",
"FHJJSr. YYYYYYYYYYYYYYYYYYYYYYYYYYYYYYYYYYYYYYYYYYYYYYYYYYYYYYYYYYYYYYYYYYYYYYYYY     YYYYYYYYYYYYYYYYYYYYY oX YYYYYYYYY .wGJGGH",
"HHJJN: YYYYYYYYYYYYYYYYYYYYYYYYYYYYYYYYYYYYYYYYYYYYYYYYYYYYYYYYYYYYYYYYYYYYYYY .X#,>@  YYYYYYYYYYYYYYYYYY.#6kh# YYYYYYYYY +mJHHH",
"HHJPg. YYYYYYYYYYYYYYYYYYYYYYYYYYYYYYYYYYYYYYYYYYYYYYYYYYYYYYYYYYYYYYYYYYYY  .&7fmSDx,. YYYYYYYYYYYYYY X#8vDIPa.YYYYYYYYYY.sJJHH",
"FHJS6.YYYYYYYYYYYYYYYYYYYYYYYYYYYYYYYYYYYYYYYYYYYYYYYYYYYYYYYYYYYYYYYYYYY  .-anGLHHJLB2  YYYYYYYYYYY o<amGJJPIxo YYYYYYYYY 1SJHF",
"HHJV-YYYYYYYYYYYYYYYYYYYYYYYYYYYYYYYYYYYYYYYYYYYYYYYYYYYYYYYYYYYYYYYYYYY  X8CHLLHJFHJLm%  YYYYYYYYXO3fBHLJHHIGyX YYYYYYYYYY#MJHH",
"HHJM&YYYYYYYYYYYYYYYYYYYYYYYYYYYYYYYYYYYYYYYYYYYYYYYYYYYYYYYYYYYYYYYY    XwSLLHHHFHHFLJy. YYYYYY.$qxSLLLJHLDv7@ YYYYYYYYYYY#nJHH",
"FHJn-YYYYYYYYYYYYYYYYYYYYYYYYYYYYYYYYYYYYYYYYYYYYYYYYYYYYYYYYYYYYY      OwSLHFHFHHHHHHLn+ YYY X=rmDFFHHHPSv9#.  YYYYYYYYYYYYbJHH",
"FJJnYYYYYYYYYYYYYYYYYYYYYYYYYYYYYYYYYYYYYYYYYYYYYYYYYYYYYYYYYYY       .%fSHHHHHHHHHHHHHB*  .+,dBHLLLFHJCk3#     YYYYYYYYYYYYnHHH",
"FFLmYYYYYYYYYYYYYYYYYYYYYYYYYYYYYYYYYYYYYYYYYYYYY       YYYYY      XoX.wLLFHFHHHHHHHJFJB%.+8kCJHHHJLHCs1+     YYYYYYYYYYYYYYnHLJ",
"HLLmYYYYYYYYYYYYYYYYYYYYYYYYYYYYYYYYYYYYYYYYY                  .o&7hmj&-mHHHHHFHHHHHJJJB3qbSJJJHHLFNy-X      YYYYYYYYYYYYYYYmHJF",
"FFFBYYYYYYYYYYYYYYYYYYYYYYYYYYYYYYYYYYYYYYY      X@%,3,%@..   *wzBGJIKa#eHLHHHGHHHHHJFJDNSJJHJHKDc8;X      YYYYYYYYYYYYYYYYYNHHF",
"JJFSYYYYYYYYYYYYYYYYYYYYYYYYYYYYYYYYYYYYY     .$9hnVAFFCnf82++cJJHJJJPn#;SHFHFGGHFHJFFFFHHHGHLSc6;;6o    YYYYYYYYYYYYYYYYYYYDFHH",
"JFHDYYYYYYYYYYYYYYYYYYYYYYYYYYYYYYYYYYY       %nJJJJJJJJLHJFd#pLLHHHJIN#&BSACVVAFHHHFHFFHHHJZj4-;sVS>   YYYYYYYYYYYYYYYYYYYYFHHG",
"FJFDYYYYYYYYYYYYYYYYYYYYYYYYYYYYYYYYYY        .6NIJHHHHHFLLLA;=VJHHLIPxo.26;=*4zFFFHHHHHLHBd<*:gVLUA;  YYYYYYYYYYYYYYYYYYYYYGHHG",
"JJFFYYYYYYYYYYYYYYYYYYYYYYYYYYYYYYYYYY       . .<VJHHHHHHFFJKe*bPLDmhw*  >h=O;imFHHFHHJFmy;=1hALPUV6.  YYYYYYYYYYYYYYYYYYYYYHHHG",
"FJJFYYYYYYYYYYYYYYYYYYYYYYYYYYYYYYYYY       .6+  6SJHHHHHFHJPh*snt2$X.  XyPxkZHFFFHHHHmw==3xAKKLHc-    YYYYYYYYYYYYYYYYYYYYYDHHH",
"HHHDYYYYYYYYYYYYYYYYYYYYYYYYYYYYYYYYY       -CaX OzJHFHHHHHJS8.+;$     .otIJHHHFFFJDv7==8nSJJLLSs&    YYYYYYYYYYYYYYYYYYYYYYFHHG",
"HHHGYYYYYYYYYYYYYYYYYYYYYYYYYYYYYYYYY    Xo*hPC* .9HJHHHGHHS7X %xho  o,dsxHHHFHFPBj2==tmHHHHJPVqo   YYYYYYYYYYYYYYYYYYYYYYYYFHHG",
"HHHGYYYYYYYYYYYYYYYYYYYYYYYYYYYYYYYYY   XsnNGLKw. ;ZHHHFHJJdX .eUN&+7xZLFFFHFHHBf>#=pBHHHHHJJc:.   YYYYYYYYYYYYYYYYYYYYYYYYYHHHF",
"FHHGYYYYYYYYYYYYYYYYYYYYYYYYYYYYYYYYY   &MUPHJIkX #NJHFHGPZ;  .eLBuxDHHHFJHHHBp;$%fBHHHFFHLSg*.   YYYYYYYYYYYYYYYYYYYYYYYYYYFHJF",
"HJHFYYYYYYYYYYYYYYYYYYYYYYYYYYYYYYYYY   #nIJHJIko #mKHHHJLp.. X9JLHJJHGHHJHnw=$<kAHHHHHHJJCe#   YYYYYYYYYYYYYYYYYYYYYYYYYYYYGHHF",
"JFHFYYYYYYYYYYYYYYYYYYYYYYYYYYYYYYYYY   XaJKHJPy. &VJJHJDg# O:exSSJHGGJJDx6=$6bSHHFFFFHJJm1X   YYYYYYYYYYYYYYYYYYYYYYYYYYYYYDHHH",
"HHHFYYYYYYYYYYYYYYYYYYYYYYYYYYYYYYYYY    &cJPPV=  3HIKSb6$$7xSLJJJHGHLSz2**wnDHGGGHFFHPGj=    YYYYYYYYYYYYYYYYYYYYYYYYYYYYYYHHHH",
"FHHFYYYYYYYYYYYYYYYYYYYYYYYYYYYYYYYYY     *gNc2   ,fhe<-;enFJJJSJSHJCh<**yNHHHGFGDFHHLAy#    YYYYYYYYYYYYYYYYYYYYYYYYYYYYYYYDHHH",
"FHHFYYYYYYYYYYYYYYYYYYYYYYYYYYYYYYYYYY     X#+    .X+#:sVGJJHHSLLLVd;*=gVHGGDGDGDHFHJn5X   YYYYYYYYYYYYYYYYYYYYYYYYYYYYYYYYYFHHH",
"HHHFYYYYYYYYYYYYYYYYYYYYYYYYYYYYYYYYYYY           .#8xSJHJHHHHLSNr;*>gAJGGDGGFGGHHHHz=    YYYYYYYYYYYYYYYYYYYYYYYYYYYYYYYYYYFHHF",
"FHHDYYYYYYYYYYYYYYYYYYYYYYYYYYYYYYYYYYYY        .=emSJJJGHHHJSNe:;3xSHHHGDGDGFHGHLSp#    YYYYYYYYYYYYYYYYYYYYYYYYYYYYYYYYYYYHHHF",
"HHHHYYYYYYYYYYYYYYYYYYYYYYYYYYYYYYYYYYYY      o>sNHLJJHHHHJFce%;0mSSHHFHDDGGHFHJPB7X   YYYYYYYYYYYYYYYYYYYYYYYYYYYYYYYYYYYYYFHHH",
"HHHGYYYYYYYYYYYYYYYYYYYYYYYYYYYYYYYYYYY    .#7kZLHHHFHHHJSx7#X-bSLHFHFFHHHHHFHJHx:.   YYYYYYYYYYYYYYYYYYYYYYYYYYYYYYYYYYYYYYGJHH",
"FHGDYYYYYYYYYYYYYYYYYYYYYYYYYYYYYYYYY    .&wnDJHHHHHJJJZk2#. 1MJJHFFFHHFHHFHJLSd*    YYYYYYYYYYYYYYYYYYYYYYYYYYYYYYYYYYYYYYYGHHG",
"FHHGYYYYYYYYYYYYYYYYYYYYYYYYYYYYYYYY    =amHLLHHHHJJJVd<O   okPJHHHHHFHFJHHJLB8O   YYYYYYYYYYYYYYYYYYYYYYYYYYYYYYYYYYYYYYYYYFHHH",
"HHJGYYYYYYYYYYYYYYYYYYYYYYYYYYYYYYY    +nJKJHHHHJJHNu;.   &3#kJJHHFHHLSSSHJHc:.   YYYYYYYYYYYYYYYYYYYYYYYYYYYYYYYYYYYYYYYYYYHHFH",
"FHHFYYYYYYYYYYYYYYYYYYYYYYYYYYYYYY     #CJHDSDDFFmy=X   .>mn<hJGHHHHPN8eSPGg&    YYYYYYYYYYYYYYYYYYYYYYYYYYYYYYYYYYYYYYYYYYYFHHH",
"JHFFYYYYYYYYYYYYYYYYYYYYYYYYYYYYY      =ALLB93232&X    o9BIn*yJHHJLHx<=dJAwo   YYYYYYYYYYYYYYYYYYYYYYYYYYYYYYYYYYYYYYYYYYYYYFHHH",
"HHJHYYYYYYYYYYYYYYYYYYYYYYYYYYYY       ,FIUV=  .      #sSPPn#-VHJPVr:4mLM2.   YYYYYYYYYYYYYYYYYYYYYYYYYYYYYYYYYYYYYYYYYYYYYYFHHH",
"HHHDYYYYYYYYYYYYYYYYYYYYYYYYYYY        $dxksX        *zHJJJb+.yKHc1:sSJl*    YYYYYYYYYYYYYYYYYYYYYYYYYYYYYYYYYYYYYYYYYYYYYYYFHHH",
"HFHDYYYYYYYYYYYYYYYYYYYYYYYYYY        ..%%OOXXXX..XX2mJJHHJbo #hr:4NKNq+   YYYYYYYYYYYYYYYYYYYYYYYYYYYYYYYYYYYYYYYYYYYYYYYYYHHHH",
"HHHFYYYYYYYYYYYYYYYYYYYYYYYYYY       &8999997799779iBJJHFHJn+  o:gSKl*    YYYYYYYYYYYYYYYYYYYYYYYYYYYYYYYYYYYYYYYYYYYYYYYYYYGJHH",
"FHHFYYYYYYYYYYYYYYYYYYYYYYYYY       =nJJJJJJHJJJJJJJHHHHHHJbo .1MUA0o     YYYYYYYYYYYYYYYYYYYYYYYYYYYYYYYYYYYYYYYYYYYYYYYYYYFHHH",
"HHHFYYYYYYYYYYYYYYYYYYYYYYYY       *bKIJJJJJJJJLJJJJHHHHHHKn#XwSPb-.  #>. YYYYYYYYYYYYYYYYYYYYYYYYYYYYYYYYYYYYYYYYYYYYYYYYYYFHHH",
"HHGGYYYYYYYYYYYYYYYYYYYYYYY       =nKJHHDHHHHHFFDHHHHHDHHHJb*wJKg*   +kb# YYYYYYYYYYYYYYYYYYYYYYYYYYYYYYYYYYYYYYYYYYYYYYYYYYFHHH",
"HHHGYYYYYYYYYYYYYYYYYYYYYY       &zJJHHHHHHFHHJHFHHHHHHHHHJb<vDw&+   -GN# YYYYYYYYYYYYYYYYYYYYYYYYYYYYYYYYYYYYYYYYYYYYYYYYYYDHHH",
"HHHGYYYYYYYYYYYYYYYYYYYYY       &zHLHHFHHHDJHHHHFJHHHHHHHHJb=0>$wx=  &AN# YYYYYYYYYYYYYYYYYYYYYYYYYYYYYYYYYYYYYYYYYYYYYYYYYYDHHH",
"FHJHYYYYYYYYYYYYYYYYYYYY       #hHJHFHGHHHJHHHHJHJHHHHHHHHKn#.=dSUh+ &NM& YYYYYYYYYYYYYYYYYYYYYYYYYYYYYYYYYYYYYYYYYYYYYYYYYYFHHH",
"HHHFYYYYYYYYYYYYYYYYYYY       #hHJHHHHHHHHFJFJHFHHFJHHHHFFZt..pJLLS6.*VV& YYYYYYYYYYYYYYYYYYYYYYYYYYYYYYYYYYYYYYYYYYYYYYYYYYHHHH",
"FHHFYYYYYYYYYYYYYYYYYY       +sHJHFHFHHHHHHHHHHHHHHHHHHHJDeO  1BLHLn5uSV& YYYYYYYYYYYYYYYYYYYYYYYYYYYYYYYYYYYYYYYYYYYYYYYYYYHHHH",
"HHHDYYYYYYYYYYYYYYYYY       +sFHFHHHFHHHHFHHFJJFFHHHHHHHJV%   .7SHHDAHPV# YYYYYYYYYYYYYYYYYYYYYYYYYYYYYYYYYYYYYYYYYYYYYYYYYYFHHH",
"HHHDYYYYYYYYYYYYYYYY       oiDLJFHFHHJHFHJHHJJFJJHJFFHFHIB#    XpFJJJPVr. YYYYYYYYYYYYYYYYYYYYYYYYYYYYYYYYYYYYYYYYYYYYYYYYYYHHHH",
"FHHDYYYYYYYYYYYYYYYY      XyDJFHHHHHHHHJJFHHFFHFHHHHDSHHPN&     #kJPSk-.  YYYYYYYYYYYYYYYYYYYYYYYYYYYYYYYYYYYYYYYYYYYYYYYYYYDHHH",
"FFJFYYYYYYYYYYYYYYY      XySJHHHHHHJJFHHHJHHJJJFJFHSiiGJLM#      =bm7o    YYYYYYYYYYYYYYYYYYYYYYYYYYYYYYYYYYYYYYYYYYYYYYYYYYFHHH",
"FFJDYYYYYYYYYYYYYY.     XwAJHHFFHHHHHJFJHHHJHHFJHJDsO2GJJn@       ++.   YYYYYYYYYYYYYYYYYYYYYYYYYYYYYYYYYYYYYYYYYYYYYYYYYYYYHHHH",
"FJJDYYYYYYYYYYYYYX     X9AJHFHHHHHHHFHHFHHHFHHHFLSiOX3HPLn&           YYYYYYYYYYYYYYYYYYYYYYYYYYYYYYYYYYYYYYYYYYYYYYYYYYYYYYFHHH",
"GJGFYYYYYYYYYYYY      X3ZPFFFHHHHHHFHHHHHHFHHHHLAwX  7JKJb# Y       YYYYYYYYYYYYYYYYYYYYYYYYYYYYYYYYYYYYYYYYYYYYYYYYYYYYYYYYHHHH",
"HGHFYYYYYYYYYYY      X3ZPHHHHFHHHJHJJHHHHHHHHHLA7XX0O,GLJb# YY    YYYYYYYYYYYYYYYYYYYYYYYYYYYYYYYYYYYYYYYYYYYYYYYYYYYYYYYYYYHHHH",
"HHHGYYYYYYYYYY      .2ZLHHHHFJJFHJHJFHHHHJHHHLC3  0S%>GLJb# YYYYYYYYYYYYYYYYYYYYYYYYYYYYYYYYYYYYYYYYYYYYYYYYYYYYYYYYYYYYYYYYGHJH",
"HHHGYYYYYYYYY       ,NLJHHHJFHHHHFHHHHHHJFHLPN1 XXuK%%GPJk@ YYYYYYYYYYYYYYYYYYYYYYYYYYYYYYYYYYYYYYYYYYYYYYYYYYYYYYYYYYYYYYYYFHHH",
"FHLFYYYYYYYY       1NJFFHHHHFHHHHHHHHHHHFFLLM: &yXeH&%GLJz# YYYYYYYYYYYYYYYYYYYYYYYYYYYYYYYYYYYYYYYYYYYYYYYYYYYYYYYYYYYYYYYYDHHF",
"FJPbYY            -MLFFJFHHHJHJFHJJHHHFFFHHv= *nC#wH$;GJJk@ YYYYYYYYYYYYYYYYYYYYYYYYYYYYYYYYYYYYYYYYYYYYYYYYYYYYYYYYYYYYYYYYHHHH",
"FJPk$ .        . =MPJFHHHHHHHHJHHHFHHHFGHHz= #bPC&wH#%HJJko YYYYYYYYYYYYYYYYYYYYYYYYYYYYYYYYYYYYYYYYYYYYYYYYYYYYYYYYYYYYYYYYFHHH",
"FFLNt332,>=;&$&%<nJJHHFHHHHHHHHFHHJHHFGHFd;#.=AUB*wH==HPJko YYYYYYYYYYYYYYYYYYYYYYYYYYYYYYYYYYYYYYYYYYYYYYYYYYYYYYYYYYYYYYYYFHHH",
"FJFFFDDZDZZZBBBBVGHHHFHHHJHHJFHHHHHHFHJDi%8Cq#sUC&wG&%HPLf@YYYYYYYYYYYYYYYYYYYYYYYYYYYYYYYYYYYYYYYYYYYYYYYYYYYYYYYYYYYYYYYYYHJHH",
"JFJFJJJJHJHHFFFLHHHHFHHHHFHHHHHJJFHFHHDt=wSUdX*VA%rG-=GPJfXYYYYYYYYYYYYYYYYYYYYYYYYYYYYYYYYYYYYYYYYYYYYYYYYYYYYYYYYYYYYYYYYYHHHH",
"FFJFFHDJFFFJJHFFHHGHHHHHHJJJHHHHFHFJLAe%ySIN= .rV-tD-;GPId@YYYYYYYYYYYYYYYYYYYYYYYYYYYYYYYYYYYYYYYYYYYYYYYYYYYYYYYYYYYYYYYYYHHHH",
"FFFJHHJDHJFFJHFFGHHHHFJHHHFHHHHHHFHLA9>sDPD3.  &g=tD-;GIIfXYYYYYYYYYYYYYYYYYYYYYYYYYYYYYYYYYYYYYYYYYYYYYYYYYYYYYYYYYYYYYYYYYHHHH",
"FHFHJHHHHHJHHHFHJHHJJHHHHHHHHHGGGHHN2-hHPJao    $XyG->JUIsXYYYYYYYYYYYYYYYYYYYYYYYYYYYYYYYYYYYYYYYYYYYYYYYYYYYYYYYYYYYYYYYYYDHHH",
"HFJJHHJFFJFJHHHFFHHHHHHHHHHHHHFGJKM4-zJPIz&      XdJ<>ANs% YYYYYYYYYYYYYYYYYYYYYYYYYYYYYYYYYYYYYYYYYYYYYYYYYYYYYYYYYYYYYYYYYDHHH",
"DHFHHHHHHHHJJHHJHHHHHHHHHHHHFFGJKM4-cJKPB-       XfA>X1&X  YYYYYYYYYYYYYYYYYYYYYYYYYYYYYYYYYYYYYYYYYYYYYYYYYYYYYYYYYYYYYYYYYFHHH",
"FHFJHFJHHHHFHHHHHJHHHHHHHHHHFHHKM-:nPKJD8.        %1X     YYYYYYYYYYYYYYYYYYYYYYYYYYYYYYYYYYYYYYYYYYYYYYYYYYYYYYYYYYYYYYYYYYHHHH",
"HFJHDJJJDJJJDDJJFHHJHHHHHJHFHHHx=-NUKKHgX       XX.    YYYYYYYYYYYYYYYYYYYYYYYYYYYYYYYYYYYYYYYYYYYYYYYYYYYYYYYYYYYYYYYYYYYYYJJGH",
"FFHJJJDJDJDJJJJDJHHHFHHJHFFHJJk#-NKGJPM&  YYY   OO YYYYYYYYYYYYYYYYYYYYYYYYYYYYYYYYYYYYYYYYYYYYYYYYYYYYYYYYYYYYYYYYYYYYYYYYYHJHH",
"FHHHJDDJJJDDDJDJFHHHJHJHHHHJHh$,VKGGPA1  YYYYYYYYYYYYYYYYYYYYYYYYYYYYYYYYYYYYYYYYYYYYYYYYYYYYYYYYYYYYYYYYYYYYYYYYYYYYYYYYYYHHHHH",
"FFHHDJJJDJJJJJDJJHHJHFHFHHHFd=3ZKHGJHw. YYYYYYYYYYYYYYYYYYYYYYYYYYYYYYYYYYYYYYYYYYYYYYYYYYYYYYYYYYYYYYYYYYYYYYYYYYYYYYYYYYYJHHHH",
"HFJJDJJDHHJJDDJJHHHHHHHGHJDt%9ALHHHKj+ YYYYYYYYYYYYYYYYYYYYYYYYYYYYYYYYYYYYYYYYYYYYYYYYYYYYYYYYYYYYYYYYYYYYYYYYYYYYYYYYYYYHHJHHH",
"HFDJJDDJHJDDJJJDHJHHGHHHJDe=tDHFHHKm; YYYYYYYYYYYYYYYYYYYYYYYYYYYYYYYYYYYYYYYYYYYYYYYYYYYYYYYYYYYYYYYYYYYYYYYYYYYYYYYYYYYYHJHHHH",
"FJFDJDJJHHDJDJJDHHHHGGJKB9%aDHFHSJS4 YYYYYYYYYYYYYYYYYYYYYYYYYYYYYYYYYYYYYYYYYYYYYYYYYYYYYYYYYYYYYYYYYYYYYYYYYYYYYYYYYYYYJFJHHFJ",
"FHJJDJJDHHJHJJDJHHHGGJJB3=fHHFHFKHrX YYYYYYYYYYYYYYYYYYYYYYYYYYYYYYYYYYYYYYYYYYYYYYYYYYYYYYYYYYYYYYYYYYYYYYYYYYYYYYYYYYYGGHJHHHH",
"HDHHDJJDHHJHJHHHHHHFJLN:%kJFFFFLKz# YYYYYYYYYYYYYYYYYYYYYYYYYYYYYYYYYYYYYYYYYYYYYYYYYYYYYYYYYYYYYYYYYYYYYYYYYYYYYYYYYYYGGJJGHHGH",
"DHHHJJDJHHDJDJHHHHFJIN<=xJJHFJFPB- YYYYYYYYYYYYYYYYYYYYYYYYYYYYYYYYYYYYYYYYYYYYYYYYYYYYYYYYYYYYYYYYYYYYYYYYYYYYYYYYYYYGHHJHHHHHH",
"DJHHHJDJHHHHJHJFHHHHm:-nKHHHHFFB5.YYYYYYYYYYYYYYYYYYYYYYYYYYYYYYYYYYYYYYYYYYYYYYYYYYYYYYYYYYYYYYYYYYYYYYYYYYYYYYYYYYHHHHHHHHHHHH",
"FFHHJDJJHJHHFHHHHFHv,>MIJGFFHHDi##YYYYYYYYYYYYYYYYYYYYYYYYYYYYYYYYYYYYYYYYYYYYYYYYYYYYYYYYYYYYYYYYYYYYYYYYYYYYYYYYDGHHJHHHGHHHHH",
"FFJFFJJDFJJHHFHHHFFxsmFHGFFHFJDfsmHDGGGDDGGGGGDFGGGGDDGGIHGDGGGGGGGGGDGGGFGDDDGGHDGDDGDDHGGDDDDDDDYYYYYYYYYYYYDFGGHHJJHHHGHHHHHH",
"JFJJHHFJJHFHHJHJHHFFJHHHGGHHHHDDJLHHHHGGGHGGHHGGHHGGHHHJPHHHHHGGHHHHGGJJHGHHJHHJJHHJHHHJHHJJJGHHHHHGHHHHHHHHHGGHHHHHHHHHHGHHHHGG",
"JDDJFJHHHHJFHHHFHHHHHFFFHHHHJFHFJHHHHJJHHJHJJHJGHJHHHHHHHJHHHJHHJHHGHHHHHHJHHHHHHHHHHHHHJHHHHHHHHHHHGJGJHHHJGHHHHJHHHHHHGHGJHGHH",
"DJDJJJFHHHHHHHJHHHHFHHHHHHHHHHFHHHHHHHHHHHGJGHHHHHHHHHHHHHHHJHHHGHHJHHHHHHGJHHHHHHHHHHHJHHHHHHHJHJHHJHGHHJHHHHHJGHHHHHGHGGGHHHHG",
"DJJFJFFJJDJDJDJDJHHHDJDDJJJDJJJDHHHHHHHHHHHHHHHHHHHHHHHHHHHHHHHHGKGGGGGGGGGGGKGGGGGGKGGGGGKGGGKGHJGJGGGJGGKGKGGGKGGGGGGGGGKGGGGK",
"JDDJFJJFJDHJJJHJHHHHDJJJJDHJJDDJHHHHHHHHHHHDFHHHHHHHHHHHHHHHHHHHGGGKGGKGGGKGGGGGGKGKGGGKKGGGGGGGJGGJGJGGGKGGGGGGGGKGGGGKGGGGGGGG",
"DDJJJJFJJJDJDDJDJDJDDJJJJJDDJJJJHHDJHHHHDHHDHHHDHHHHHHHHHJHHHHHHGKGGGKGKGGKGGGKGGGGGGGGGGGKGGKGGGHHHHHHHGGGGGGGGGGGGGGGKGGGGGGGG",
"JDJDJJFJDJJDJJHJHJHJJJDDDJJHDDJDHHHDHHHHJHJJHHHHHDHHHHHHHHHHHHHHGGGGGGGGGKGGGKGGGKGGKGGGGGGGGGKGHHHHHHHHGGKGGKGKGGKGKGGGKGKGKGGG",
"JDDJDDJJHJDJDJHJJDDJHJDJJJDJJJJDJDJJHHHHHJJJDJHHHHHHHHHGHHHHHHHHGGGGGGGGGGKGGGKGGGGKKGGGGGGGGGKGGGGGHHHHGGKGGGGGGKGGKGGGGGGGGGKG",
"DDDJJJJDJDJHJDJDDJJHJDJJDDJJJDJJDJJDJFHHJDDJDJHHHHHHHHHHHHHHHHHHGKGGKGGKGGGGGKGGGGGGGGGKGKGGGKGGGGKGHHHHGGGGGGKGGGGKGGGKGKGGGGGG",
"DJJDDJJDHJJJJDHJJJHJHJDDJJJDJDDJJHJDHHHHHJDDJDJHHHHHHHGHHHHHHHHHKGGKGGKGGKKGGGGGKGGKGGGKGGKGGGKGGKGGGKKGKGKGGKKGGGKGGGGGKGGKKGGG",
"JDDJJJDJHJDDJJJDJDJDDJJJJDJDJJJDDJHJHHHHJDJJHJHHHHHHHGHHHHHHHHHHGGGGGGGGGGGGGKGGGGGGKGGGGKGGGGGGGGKGGGGGGGGGGGGGGGGGKGGGGGGGGGGG",
"JDJJJDJJDDJJDJJJJJDJJJDJJDJDJJDJHHFJFJJJHHGJHHHHHHHHFHHHHHHJHHHHGGGGKGGKGGGGGKKGGGGGKGGGGGKGKGGGGGGGGKGGGGGGGGGGGGGGGKGGGGGGGKGG",
"JDDDJDDJJJJDJDDJDDJJDDJJJJJDJDDJHHFJFHFFHHHGHHHHHHHHJFFHHHHHJJHHGKGGGGGGGKKGGGGGKGGGGGGKGGGGGGGGGKGKGGGGKGKGKGGKGKGGGGGGGKGGGGGG",
"JDJJJJHHDJJDJJDJJJJDJDJDDJJJJJJJHHHJJHFHHHJJHHGHHHHHHHHHHHHHJDJDGGGKGGGGGGGGGKGGGGGGGGGGGKGGGGGKGGGGGGGKGGGGGGGKKGKGGKKGGKGKGGGG",
"DDJDDHHHJJDJDJJJJDJDJJJDJDDJDDJDHHHHHHJHHHHHHHGKHJHHHHFHHDHHHHDJGGGGGGGGGGKGGGGGGGKGKGKGGGGKKGGGGGKGKGGGGKGGGGGGGGGGGGGGGGGGGKGG",
"JDDJDJHHJDJDJJJDDDJJJDJJDJJDJJJDHHHHJGJGHHHHHHHHHJHHHHJHHHJJDJJDGGKGKGGKGKGGGGGGGGGGGGKGGGKGGGKGGGKGGGGGGKGGGKGGGGGGGGGGGGGGGGGG",
"JDJJDJHHDJDJJDDJJJJDJDDJJDJJJDDJHHHHGJGJHHHHHHHHHHHHHHHHHHHHJDDJGGGGGGGGGGGGGKGKKGKGGGGGGKGGKGGGGKGGKGGKGGGKGGGGKGKGGGKGGKGGKGGG",
"JDJDDDHHJJJJJDJJDJJDJJJJJDDJJDJJHHHJHHHHHJHHHHGGHHHHJHHHHHHHJDJJGKGGGGGGGGGGGGGGGGKGGGGGGGGKGGKGGGGGGKGGGGGGKGGGGKGGKGGKGKGKKGGG",
"mJJDJJHHDDDDDJJDJJDJDJDDJJJDJJJDHHHHHHHHHHHHHHHGHHHHHHJHHHHHDJJDGGKGGGGKGKGGGKGGKGGGGGKGGGGGGGGGGGKGGGGGKGGGGGGKGGGGGGGGGGGGGGGB",
"rKGGGGGKHGUGGGGJJJDJHHHHHHHHHHHHKGGGGGGHHHHHGGGKHHHHHHHGGJGGGUGGGGGGGKGGGKGGGKGGKGGKGGGKGGGKGGGGGGGGKGGGKGGGGGDUGGGKKGGGGGGGGKKg",
"-AGGGGGGUGAHGJGGDJJDHHHHHHHHHHHHGGGGKGGGHHHHGGGGHHHHHHHGHGJGGGGGGKGKGGGGGGGKGGKGGGGGKGGGGGGGGGKGGKGKGGGGGGGKGGGGKGGGGGGGKGGGKGA0",
"olKGGKGGAGHGJGGGJJJDHHHHHHHHHDHHGGGGGGGGGHHHGGGGHHGHHHGGGJGGGGKGGGGGGGGGGKGGGGGGGGGGGGKGGKGKGKGGGGGGGGGKGGGGGGGGGGGGKGKGGGKKGKc-",
" 4GKGGGGGGHHGJGJDDJJHHHHHHHHHHHHKGGGGGKGHHHGKGGGHHHHGHGKJGGGGGGGGGKGGKGGGGGGGGKGGGKGGGGGGGGGGGKGGKGGKGGGKGGKGGGGGGKGGGGGGGGGGG0&",
"Y&lUAGGAGGGUGGGGJDHHHHHHHHHHHHHHGGGGKGKGHGGGGKGKHGKGKGGGGGGHGGKGGGGGGGGGGGGGKGGGGGGGKGGGGGGKGGKGGGKGGGGGGKGGGGGGGGGGGGGGUSGAIc&Y",
"Y -BUGGUGGGAKGGJDDHHHHHHHHHHHHHHKGKGGGGGKHGKGGGGHHGGGGGGGJHHGKGGKGGGGGGGGKGGGGGGKGGKGGGGKGGGKGGGGGGGKGGKGGGGAUUAGGGKGGGKAAUUC4oY",
"Y  7AUUGGGGGGGHHJHHHHHHHHHHHHHHHGGGGGGGGGGKGGGGGKGGKKGHHHHHHGGGGGGGKGGGGGGGGGKKGGGGGGGDGGGGGGGKGGKGKGGGGGGKGGGGJKGKGKGGGUAUA0..Y",
"YY .wAGGGGGKJHHHJDHHHHJHHHHHHHHHGKGKGGAUGGGGGKGKGGGGHHHGHHHHGGGGGKGGGKGKGKKGGGGGGKGGKGUGGGGKGGGGGGGGKGGGKGGGAUGGGGGGGGKGAUApo.YY",
"YY  o0VKHHHHHHHHHHGHHJHHHHGGHHHHUAGAGGGGAUGGAUAUGGGGKGGKGGUGGGDGGGGAHHHHGGKGGGGGUAGUAGGGGGUGHGHHGGKGGGKGHHHHJHGJHHHHHGHJUVwo  YY",
"YYY  .4cGKHHHHHHJHHGHHHHHHHHHGHHHHGUGGGGGGGGGGGHGGGKGGGGAUAGGGUGGGGUHHHJGGGGGKKGHHGGGGGGGGAGHAUGGKGGGGGGHGHHJHGJSHHHHHKJc4.  YYY",
"YYYY   &wbAJKKHHGGGGHGHGHGGGGGHHGGGJGGGGGGGGGGGGGGGGGGGGGGGJGGGGGGGGGGHGGKGGGGGGGGGJGGGGGGGGGGJGGGGGGGGGGGGGGGGGKJKHKAnw&   YYYY",
"YYYYY    &4plNVVCBBBBBMVBBBBBBBBBBBVBBBBBBBBBBVVBBBBBBBBBBBVBBBBBBBBBBBVBBBBBBBBBBBVBBBBBBBBBBBVBBBBBBBBBBBVBBBCCCNcp4&.   YYYYY",
"YYYYYY     .o&&-&&&&&&&&&*&*,%%%&&&&&&&&&&&&&&&&&&&&&&&&&&&&&&&&&&&&&&&&&&&&r--&&&&&&&&&&&&&&&&&&&&&-&&&&&&&&&&-&=&+.     YYYYYY",
"YYYYYYY                     >%OO        .           o           .           -&.o        ..          o...                 YYYYYYY",
"YYYYYYYYY                     XX                                                                      ..               YYYYYYYYY",
"YYYYYYYYYYYY                   .                                                                       .            YYYYYYYYYYYY"
};
