/* XPM */
static char *uzi[] = {
/* columns rows colors chars-per-pixel */
"128 128 73 1 ",
"  c #000000",
". c #080704",
"X c #0A0A06",
"o c #0E0E0C",
"O c #100F0B",
"+ c #0F100B",
"@ c #12120D",
"# c #19180D",
"$ c #151512",
"% c #181711",
"& c #171812",
"* c #1B1B14",
"= c #1E1E19",
"- c #201F12",
"; c #201F19",
": c #252316",
"> c #24231B",
", c #28271A",
"< c #2B2A1C",
"1 c #302F1F",
"2 c #31301F",
"3 c #2E2C20",
"4 c #312F21",
"5 c #343223",
"6 c #393726",
"7 c #3B3827",
"8 c #373628",
"9 c #393729",
"0 c #3C3A2B",
"q c #403E2E",
"w c #403F32",
"e c #43412F",
"r c #454333",
"t c #484636",
"y c #4D4A37",
"u c #464438",
"i c #494638",
"p c #4D4C3B",
"a c #514E3E",
"s c #53513F",
"d c #514F40",
"f c #555343",
"g c #595647",
"h c #5B5947",
"j c #595748",
"k c #5D5B4B",
"l c #605E4E",
"z c #625F50",
"x c #62604E",
"c c #656353",
"v c #696656",
"b c #6C6956",
"n c #6A6758",
"m c #6B6959",
"M c #716E5D",
"N c #72705F",
"B c #767361",
"V c #797663",
"C c #7D7A66",
"Z c #7F7C69",
"A c #817E6A",
"S c #85846F",
"D c #88846F",
"F c #878672",
"G c #888772",
"H c #8B8974",
"J c #8F8C78",
"K c #908D77",
"L c #918E79",
"P c #95927D",
"I c #979480",
"U c #999682",
"Y c None",
/* pixels */
"YYYYYYYYYYYFFFFFFAJFFGGGGGFFFFFFGGGGGFFFFFHGFFFFHFFFFFFFFFFFFHFFHDHFFGFFFHFFFFFFFGGFGFFFFHFFFGFGGFFFFFFFFGFGSHFGGGDGFYYYYYYYYYYY",
"YYYYYYYYFAHHGFJAFHHFFFGGGGFFFFFHFFGGGGFFFFGGFFHFFFFFFHFHFFHFFFFFFFHFFFGGGFFFFGFHFFGGFHFFFFHFFFGGGGFFGFGHGFGGFHGGGGGGHAGFYYYYYYYY",
"YYYYYYYFJHHJHFFIGFAJFFFGFFFFFFFFFFFFFFFFFSGGFFFFFFFFFFFFFFFFFFFSFSFFFFFFGFFFFFFFFFFFFFFFFFFFFFFFGFFFFFFFFFFFFFFHHHGGGHGGGYYYYYYY",
"YYYYYSGGAHHAJFJAZBnnnmnmmmmmmmmmmvmmmmmmmmvmmnmmmmmmmmmbnmnnmmmmmmmmmnmmmmmmmmmmmnmmmmmmmmmmmnmmmmmmmmmmmnmmbmNZGHGGGGGGGGSYYYYY",
"YYYYSFFGHGHHHClw3$oooooooooo+o+ooooooooo++oooooooooo+++o@$o$+@oo++ooo+oooooo+oo+oooooooo+oooo+oooooo+oo+ooooo@%>qkVHHHGGGGGSYYYY",
"YYYYFGGGGHHVd>o.                                                                                                .X>pBHHHGGGGSYYY",
"YYYHJAHHHFk,X                              X                                                                       X>gSHGGGGFYYY",
"YYAHHHHHAp@                               $u,.   .    o.   .                                                         @rZHGGGGDYY",
"YYGGHHHZwo     YYYYYYYYYYYYYYYYYYYYYYY   &hPN:  :8$  @c>  @8@  YYYYYYYYYYYYYYYYYYYYYYYYYYYYYYYYYYYYYYYYYYYYYYYYYY     o0AGHHGGYY",
"YGHGHHAdo   YYYYYYYYYYYYYYYYYYYYYYYYYY  &xHPK0+1BJg$ =Z7.+fHk@ YYYYYYYYYYYYYYYYYYYYYYYYYYYYYYYYYYYYYYYYYYYYYYYYYYYYY   XwALAAJHY",
"YFGHHJj$   YYYYYYYYYYYYYYYYYYYYYYYYY   $cJKSy-2AKKHk*,Cy:uSPS< YYYYYYYYYYYYYYYYYYYYYYYYYYYYYYYYYYYYYYYYYYYYYYYYYYYYYYY  OfJHGGGY",
"DHHGHm=  YYYYYYYYYYYYYYYYYYYYYYYYYYY  .0HPAt#6CKHGHHvhSNbAHSfO YYYYYYYYYYYYYYYYYYYYYYYYYYYYYYYYYYYYYYYYYYYYYYYYYYYYYYYY .$nHFFGF",
"DGHHAw. YYYYYYYYYYYYYYYYYYYYYYYYYYYY   %lCq*qCKDGGDHHSSSGHGh#   YYYYYYYYYYYYYYYYYYYYYYYYYYYYYYYYYYYYYYYYYYYYYYYYYYYYYYYY .0AHFFF",
"HFHHM; YYYYYYYYYYYYYYYYYYYYYYYYYYYYY    @::tSHDHGGGDDGGGSGDx*.   YYYYYYYYYYYYYYYYYYYYYYYYYYYYYYYYYYYYYYYYYYYYYYYYYYYYYYYY $mHHDH",
"DFHHdX YYYYYYYYYYYYYYYYYYYYYYYYYYYYY     XpSHHGSGGDGDHSHGGGHM4X   YYYYYYYYYYYYYYYYYYYYYYYYYYYYYYYYYYYYYYYYYYYYYYYYYYYYYYYY.uHHFH",
"HFHD3.YYYYYYYYYYYYYYYYYYYYYYYYYYYYYY     #CHDSGGGGGGHDHDGDDHHAr@   YYYYYYYYYYYYYYYYYYYYYYYYYYYYYYYYYYYYYYYYYYYYYYYYYYYYYYY.<AHFD",
"GGHB*YYYYYYYYYYYYYYYYYYYYYYYYYYYYYYY     @NJSDHGHGGGGGGGHHHSHKSh=    YYYYYYYYYYYYYYYYYYYYYYYYYYYYYYYYYYYYYYYYYYYYYYYYYYYYYY@MHGG",
"FHHb$YYYYYYYYYYYYYYYYYYYYYYYYYYYYYYY     oxHGGGGHGGDSGACCSSHSSHKv>.   YYYYYYYYYYYYYYYYYYYYYYYYYYYYYYYYYYYYYYYYYYYYYYYYYYYYY@cHGF",
"DGHv=YYYYYYYYYYYYYYYYYYYYYYYYYYYYYYYY    XaHHGGGDHHHDCr:7VHSHSHHJN0o   YYYYYYYYYYYYYYYYYYYYYYYYYYYYYYYYYYYYYYYYYYYYYYYYYYYYYxHHF",
"DHHvYYYYYYYYYYYYYYYYYYYYYYYYYYYYYYYYYY   .eJDGGHHDDGGh+.#hKHSHSSHJAa$   YYYYYYYYYYYYYYYYYYYYYYYYYYYYYYYYYYYYYYYYYYYYYYYYYYYYcHHF",
"DGKbYYYYYYYYYYYYYYYYYYYYYYYYYYYYYYYYYYY  .5GHDDHGDHHKs+ XyKGSHHHDHHHl;   YYYYYYYYYYYYYYYYYYYYYYYYYYYYYYYYYYYYYYYYYYYYYYYYYYYbHHD",
"DKKbYYYYYYYYYYYYYYYYYYYYYYYYYYYYYYYYYYYY  :CHDHDDGDGGN2#<bGGHSSHHDGHKN5X   YYYYYYYYYYYYYYYYYYYYYYYYYYYYYYYYYYYYYYYYYYYYYYYYYbHHD",
"DHDNYYYYYYYYYYYYYYYYYYYYYYYYYYYYYYYYYYYYY $MDDHSDNtexGCbCDGGSHSHHDHDHKCr@   YYYYYYYYYYYYYYYYYYYYYYYYYYYYYYYYYYYYYYYYYYYYYYYYNGHD",
"DHDAYYYYYYYYYYYYYYYYYYYYYYYYYYYYYYYYYYYYYY@cHHGHHrX.-VKHGGSGSHHSDHDGGGHSg*   YYYYYYYYYYYYYYYYYYYYYYYYYYYYYYYYYYYYYYYYYYYYYYYSFDH",
"HHDSYYYYYYYYYYYYYYYYYYYYYYYYYYYYYYYYYYYYYY+hHDHGH<  &NKDHSSHSHHHHHFDGGDHHb:.  YYYYYYYYYYYYYYYYYYYYYYYYYYYYYYYYYYYYYYYYYYYYYYSGHS",
"DDHDYYYYYYYYYYYYYYYYYYYYYYYYYYYYYYYYYYYYYYXpKGGDGh*@rAHDSHHSSHSHHDHHHDDHHKN0+   YYYYYYYYYYYYYYYYYYYYYYYYYYYYYYYYYYYYYYYYYYYYFGHF",
"HDDDYYYYYYYYYYYYYYYYYYYYYYYYYYYYYYYYYYYYYYXeKHHGDSbcCSDDHSSGHSHHHFGGGGDHHHKSa&.  YYYYYYYYYYYYYYYYYYYYYYYYYYYYYYYYYYYYYYYYYYYGDDF",
"DHHDYYYYYYYYYYYYYYYYYYYYYYYYYYYYYYYYYYYYYY 5FJDDHDHHDGFHSGHGHHHSGHDGGHHHSSGHGl=.  YYYYYYYYYYYYYYYYYYYYYYYYYYYYYYYYYYYYYYYYYYSGHG",
"SGGGYYYYYYYYYYYYYYYYYYYYYYYYYYYYYYYYYYYYYY &MJDHFDGHHHDHHGGGHGHDDHGDHFDGHDGDHKN2X  YYYYYYYYYYYYYYYYYYYYYYYYYYYYYYYYYYYYYYYYYGHFG",
"HGGSYYYYYYYYYYYYYYYYYYYYYYYYYYYYYYYYYYYYYY  ,NJDDGDDDDGGGGGGDGGGGGHFGHHGGHGHHHKCr@   YYYYYYYYYYYYYYYYYYYYYYYYYYYYYYYYYYYYYYYSDGG",
"SHGGYYYYYYYYYYYYYYYYYYYYYYYYYYYYYYYYYYYYYYY .,NKGHDHDSCCHDDGGGGGDHGHGGGGHGDDDHDHSg&.  YYYYYYYYYYYYYYYYYYYYYYYYYYYYYYYYYYYYYYSGGG",
"SHGGYYYYYYYYYYYYYYYYYYYYYYYYYYYYYYYYYYYYYYY  .<NGHDHSs<2bKGDHDGGHFGDDGGGGGHGHDHGHHv>.  YYYYY   YYYYYYYYYYYYYYYYYYYYYYYYYYYYYSGHS",
"DDHSYYYYYYYYYYYYYYYYYYYYYYYYYYYYYYYYYYYYYY     <mJHJM* .0GHDGSGGGGHDGHHHHGSHHSSHHHHN7+   YY     YYYYYYYYYYYYYYYYYYYYYYYYYYYYFGGD",
"HHHSYYYYYYYYYYYYYYYYYYYYYYYYYYYYYYYYYYYYY    @@X3MJJn$ .<GHDGGGGGGHHSHSSSGHGHHHSDDHJSp&.    .o   YYYYYYYYYYYYYYYYYYYYYYYYYYYSGDH",
"GGGSYYYYYYYYYYYYYYYYYYYYYYYYYYYYYYYYYYYY   .>vM>.;MIAu$;lHGDGGHSDHGSHHHGHDSHSHHGHDDHHGx-   .6l<X  YYYYYYYYYYYYYYYYYYYYYYYYYYGHHG",
"DHGSYYYYYYYYYYYYYYYYYYYYYYYYYYYYYYYYYYY   X5MJKM=.>NIAmMSHDDGGDHGHHHSGHSHHHHSHHDHHGGHHKM<X.1CPN2.   YYYYYYYYYYYYYYYYYYYYYYYYSDGG",
"DHGGYYYYYYYYYYYYYYYYYYYYYYYYYYYYYYYYYY   @yAJGHLz=.;MILJDDSDDGGGSGSHGDHGGSHHGGHGDGDDGDHKC72NKHPc+   YYYYYYYYYYYYYYYYYYYYYYYYSHDG",
"GHGSYYYYYYYYYYYYYYYYYYYYYYYYYYYYYYYY    *gDHFGGHIn* =MLHHDGGGGGHHHGHGHHGGGSGHSSHHHGGDGHGDCAHHDSrX   YYYYYYYYYYYYYYYYYYYYYYYYSDGG",
"GHHSYYYYYYYYYYYYYYYYYYYYYYYYYYYYYYY   .,bHHDGDGGHJz* ;MJHDHGGGHGHHSHHSSHGHHHHHSHGGGGGGGGGDDDHSs@    YYYYYYYYYYYYYYYYYYYYYYYYGDGG",
"SDGSYYYYYYYYYYYYYYYYYYYYYYYYYYYYYY   o0VKHGGDGGGFHHk$.;mPHSHGGGGGSGHGGHHDHSGSHHHHGGGGHGGHDHGDSy@         YYYYYYYYYYYYYYYYYYYSGGG",
"GHGSYYYYYYYYYYYYYYYYYYYYYYYYYYYYY  .#sSKGGHDHGGGGDKHh@.=vKHGGDGGSHHHSSHHGGDGGGHSHDDHGHGGFHGGGSCg=.     .   YYYYYYYYYYYYYYYYYFGGH",
"GHDSYYYYYYYYYYYYYYYYYYYYYYYYYYYY  .-xGDHGGDHFHGGDHDHGgO.=vPHDGGDSHSHHHHSGGHHGGHSGGGHGDGHDGGGDDGKN9oXX#<6-   YYYYYYYYYYYYYYYYGGHG",
"SHGGYYYYYYYYYYYYYYYYYYYYYYYYYY   X2NKHGDGHDDDHDDGDGGHHa$ ;vKJDGGHSHHSHHSHGHDDSHHHHHDGDGGHGDSHHDHJAfykMSHN7@   YYYYYYYYYYYYYYSGGG",
"DDGGYYYYYYYYYYYYYYYYYYYYYYYYY   @tCKHGDDDGHGHGGGDKDDGKKiX =vKJGGDHHSHHSHHDHGHHSHHDGGDGHDDHHHHDHGDHHHDGDGJSh=   YYYYYYYYYYYYYSGGG",
"HHGSYYYYYYYYYYYYYYYYYYYYYYYY   *hDHGGGSGGGDDHGGGGGDGHJV9.  =vLHGHHSHSHHSGGHGGGHGGGGGHHHGDHSFGGDDHDHGHDDHGJPho  YYYYYYYYYYYYYSHDD",
"DHGSYYYYYYYYYYYYYYYYYYYYYYY  .<bHGDHSGGGGHHGGGHDGDGHJm>.    =vLJSSHHHSSHHDDHHGGDHGGGGDGGHGHHDGHHDHDDDHHDHKC5.  YYYYYYYYYYYYYSHHG",
"GGGSYYYYYYYYYYYYYYYYYYYYY   +0NKDGHGGGGGGGGGSHGGFHHHl*       =vJKSHSHHHHGGDGDGGHGGGGGGGGHGHDHHGGDDHDACDJKC8.   YYYYYYYYYYYYYSGGG",
"GHGSYYYYYYYYYYYYYYYYYYYY   $ySKHDGGGGGGGHDGGHGHDGGFf$         =vKHSHSHSSHGHGDHGDHGGGGGHDSHGHHDGGHHJN7eCPC5.    YYYYYYYYYYYYYSGGG",
"DHGSYYYYYYYYYYYYYYYYYYY ..*lFGDGDGGGGSHGGGGHGDGHKAt@           *xHHGGDGHDHGGGGGGHGGGDHFHGHFHGGGGHHV5XX5l5.     YYYYYYYYYYYYYGGHG",
"GGGGYYYYYYYYYYYYYYYYYY  X2NKGGGGHGGGGHSHGGGDDHGHVqX ..          #xHHGGGGDDHFGGHDGGGGHDHDGDGGGGGGHM<.   o      YYYYYYYYYYYYYYGGGG",
"DGGSYYYYYYYYYYYYYYYYY  @tCKDHSHSGGGGGGGGGGGFGHLM<. oqio         .&xKHGGGHHDDDHGGGDGGDHDDGGDGGGHHM>           YYYYYYYYYYYYYYYSGGG",
"DHGSYYYYYYYYYYYYYYY   *hGHDGGGGGGGHGDGGHGGGFKHc;. .uPZ$    .*<X  .#xHHDGHDHGDSGHGDGGHDHHGGDHHHLv;           YYYYYYYYYYYYYYYYGGGG",
"HSHSYYYYYYYYYYYYYY  .>mHHDHGGGGGGGGHHDHGGGFHGj&   XaPB$   .5CA>    *cHHGFFHHGKGGGGHKGGGGGGDGHPm=           YYYYYYYYYYYYYYYYYSHDG",
"GHGSYYYYYYYYYYYYYY  @MPHDGGGGHGGGGGHGGDGGHKAp@    XpPN@   >VPKfX    &kHJHHHHKGGSVVMMDGDGHHDGJc=            YYYYYYYYYYYYYYYYYSDGG",
"GGHSYYYYYYYYYYYYYY  +kPHGDGGGGGGGGGDHDDHHJC0X     XpJM$  XdKHLB@     $fvxhsye62<-$@*gGHGGDHHx*            YYYYYYYYYYYYYYYYYYGGGG",
"GGHGYYYYYYYYYYYYYY   ;VHGSGGGGGGGGGGHHDHPm,.      XpPB@  OcKKViX      XO+XX...      %kGHGHHh&             YYYYYYYYYYYYYYYYYYSHDG",
"GGGSYYYYYYYYYYYYYY   .rHHGGDDHHFGGGGGGHHv=        XpLN$  *BJN<XYYY                   $gGKGg$              YYYYYYYYYYYYYYYYYYGGHG",
"GGDSYYYYYYYYYYYYYY    $vKGGGHDGDGGHHGHGg*         XpIB@ @fJS3  YYYY                   $gSf@               YYYYYYYYYYYYYYYYYYGGHG",
"GGHSYYYYYYYYYYYYYY    .<AHDGHDGGGGSDKAp@          XpIZ;.0KUjo YYYYYY o&.               @,o                YYYYYYYYYYYYYYYYYYSGGG",
"SGGGYYYYYYYYYYYYYY     XaHGGDGGHDGDKC7o           XuLLl*=gf$  YYYYY =lZ9.                           .X    YYYYYYYYYYYYYYYYYYGGGS",
"DGSSYYYYYYYYYYYYY  .:-  &MKGGGHDHHGM1.             %cKLj&oX YYYYYY >mUUlo                          $0f*   YYYYYYYYYYYYYYYYYYSGGG",
"DGHSYYYYYYYYYYYY  X6Av@ .6AHGGDGHKm>                *zPJa@  YYYYY.<NUPm>                          ;cHLv=  YYYYYYYYYYYYYYYYYYSGGG",
"GHHSYYYYYYYYYYY  orAPH7. OgKGGDGDk*              YYY =cLHp@..XX+@5BPJz=                          >NLJHLm;  YYYYYYYYYYYYYYYYYGHHG",
"HHHSYYYYYYYYYY  $fSHDKN&  =NKGKAy#             YYYYYY =cPHs07rpslCKFf%  Y                       @cLHGGHJM,..YYYYYYYYYYYYYYYYSHDG",
"GGHSYYYYYYYY   =lDHGDGHiX .0GPCro             YYYYYYYY ;mPJKJJJIKKAt@  YYYY                    .9GKDGGDHKN1..YYYYYYYYYYYYYYYGGGG",
"DHFSYYYYYYY   >bKKDGGHKA>  @cB5X             YYYYYYYYYY =mPPJFFFDM9X  YYYYYY                   olPHGGDDGHKA5X YYYYYYYYYYYYYYSGHD",
"GHFSYYYYYY  X1MHHGGDDGGLkO  #:.            YYYYYYYYYYYY  &wr8<33,@.  YYYYYYYY  YYY             .0AHGHDHDDHKA0O YYYYYYYYYYYYYSGDH",
"SHHSYYYYY  X0CKHGDDGGGDKS5.               YYYYYYYYYYYYYYY ... oo   YYYYYYYYYYYYYYYY             o0AKHHDHDHGLSw. YYYYYYYYYYYYSHDG",
"DDHSYYYY  @aALGHGSHHGDGGPco              YYYYYYYYYYYYYYYYYYYYYYYYYYYYYYYYYYYYYYYYYYY             X0AKHSHGDGHPlO YYYYYYYYYYYYSHGG",
"HHGGYY   &gHKGDDDHFFFFGKCq.             YYYYYYYYYYYYYYYYYYYYYYYYYYYYYYYYYYYYYYYYYYYYYY            X0AKHDGGGKF5. YYYYYYYYYYYYDHGG",
"DDGSY   =lHHGDGDSHHDGHHv<X            YYYYYYYYYYYYYYYYYYYYYYYYYYYYYYYYYYYYYYYYYYYYYYYYY.           X0AKHFFHKkO YYYYYYYYYYYYYSHDG",
"DGSSo .>bKHGDGGGHHDGHGk*.            YYYYYYYYYYYYYYYYYYYYYYYYYYYYYYYYYYYYYYYYYYYYYYYYYYYYYYY        X0AKHJLv*  YYYYYYYYYYYYYSGGG",
"HHDxXX2NHGGGDGGGDHHHAp@             YYYYYYYYYYYYYYYYYYYYYYYYYYYYYYYYYYYYYYYYYYYYYYYYYYYYYYYYYYYYYYY  X0APKm=  YYYYYYYYYYYYYYFHGG",
"DSDa-eAKDHGGGGGDDHJM5X          YYYYYYYYYYYYYYYYYYYYYYYYYYYYYYYYYYYYYYYYYYYYYYYYYYYYYYYYYYYYYYYYYYYY  X0Cl=   YYYYYYYYYYYYYYFHGG",
"HHShsCHHDGDFGGDDHGl=.       YYYYYYYYYYYYYYYYYYYYYYYYYYYYYYYYYYYYYYYYYYYYYYYYYYYYYYYYYYYYYYYYYYYYYYYYY  X&o   YYYYYYYYYYYYYYYSHGG",
"DDSCSDGGFGFHDGKKAp$        YYYYYYYYYYYYYYYYYYYYYYYYYYYYYYYYYYYYYYYYYYYYYYYYYYYYYYYYYYYYYYYYYYYYYYYYYYY      YYYYYYYYYYYYYYYYGGHS",
"DHDGGDDDFHDDGHKN9o       YYYYYYYYYYYYYYYYYYYYYYYYYYYYYYYYYYYYYYYYYYYYYYYYYYYYYYYYYYYYYYYYYYYYYYYYYYYYYY   YYYYYYYYYYYYYYYYYYSDGG",
"DDGGGSGHHFFHHHv>.       YYYYYYYYYYYYYYYYYYYYYYYYYYYYYYYYYYYYYYYYYYYYYYYYYYYYYYYYYYYYYYYYYYYYYYYYYYYYYYYYYYYYYYYYYYYYYYYYYYYYSDHG",
"HHGGGGGGHDFKDf&        YYYYYYYYYYYYYYYYYYYYYYYYYYYYYYYYYYYYYYYYYYYYYYYYYYYYYYYYYYYYYYYYYYYYYYYYYYYYYYYYYYYYYYYYYYYYYYYYYYYYYSGGG",
"SSGGGGGDHHHAwO        YYYYYYYYYYYYYYYYYYYYYYYYYYYYYYYYYYYYYYYYYYYYYYYYYYYYYYYYYYYYYYYYYYYYYYYYYYYYYYYYYYYYYYYYYYYYYYYYYYYYYYGHGG",
"HSHHHGGGHHm,.       YYYYYYYYYYYYYYYYYYYYYYYYYYYYYYYYYYYYYYYYYYYYYYYYYYYYYYYYYYYYYYYYYYYYYYYYYYYYYYYYYYYYYYYYYYYYYYYYYYYYYYYYHHGG",
"SHHSGHGHSf*        YYYYYYYYYYYYYYYYYYYYYYYYYYYYYYYYYYYYYYYYYYYYYYYYYYYYYYYYYYYYYYYYYYYYYYYYYYYYYYYYYYYYYYYYYYYYYYYYYYYYYYYYYHHGG",
"HSHDGSKCr#        YYYYYYYYYYYYYYYYYYYYYYYYYYYYYYYYYYYYYYYYYYYYYYYYYYYYYYYYYYYYYYYYYYYYYYYYYYYYYYYYYYYYYYYYYYYYYYYYYYYYYYYYYFGGGG",
"DDDHGSN6X        YYYYYYYYYYYYYYYYYYYYYYYYYYYYYYYYYYYYYYYYYYYYYYYYYYYYYYYYYYYYYYYYYYYYYYYYYYYYYYYYYYYYYYYYYYYYYYYYYYYYYYYYYYGHDSG",
"SHHSHM<X        YYYYYYYYYYYYYYYYYYYYYYYYYYYYYYYYYYYYYYYYYYYYYYYYYYYYYYYYYYYYYYYYYYYYYYYYYYYYYYYYYYYYYYYYYYYYYYYYYYYYYYYYYYSHGHHH",
"HSHSHV:X      YYYYYYYYYYYYYYYYYYYYYYYYYYYYYYYYYYYYYYYYYYYYYYYYYYYYYYYYYYYYYYYYYYYYYYYYYYYYYYYYYYYYYYYYYYYYYYYYYYYYYYYYYYYYGDGGSG",
"SHSHHHb-     YYYYYYYYYYYYYYYYYYYYYYYYYYYYYYYYYYYYYYYYYYYYYYYYYYYYYYYYYYYYYYYYYYYYYYYYYYYYYYYYYYYYYYYYYYYYYYYYYYYYYYYYYYYYHGHGGHG",
"HSHSHSSb=   YYYYYYYYYYYYYYYYYYYYYYYYYYYYYYYYYYYYYYYYYYYYYYYYYYYYYYYYYYYYYYYYYYYYYYYYYYYYYYYYYYYYYYYYYYYYYYYYYYYYYYYYYYYYGFGHGGGG",
"DDGGFHFFv=.YYYYYYYYYYYYYYYYYYYYYYYYYYYYYYYYYYYYYYYYYYYYYYYYYYYYYYYYYYYYYYYYYYYYYYYYYYYYYYYYYYYYYYYYYYYYYYYYYYYYYYYYYYYYFGDHGGGFG",
"HDGGGFHHFCYYYYYYYYYYYYYYYYYYYYYYYYYYYYYYYYYYYYYYYYYYYYYYYYYYYYYYYYYYYYYYYYYYYYYYYYYYYYYYYYYYYYYYYYYYYYYYYYYYYYYYYYYYYYGFGGGGGGGG",
"DDGGGHHHGGDSYYYYYYYYYYYYYYYYYYYYYYYYYYYYYYYYYYYYYYYYYYYYYYYYYYYYYYYYYYYYYYYYYYYYYYYYYYYYYYYYYYYYYYYYYYYYYYYYYYYYYYYYFFGGGGHGFGGG",
"DDFGFGFGGGHDFSYYYYYYYYYYYYYYYYYYYYYYYYYYYYYYYYYYYYYYYYYYYYYYYYYYYYYYYYYYYYYYYYYYYYYYYYYYYYYYYYYYYYYYYYYYYYYYYYYYYYSSFFGJGGGHFGGG",
"HGHGFHFHGHGHGDGFSSYYYYYYYYYYYYSSSGSSFSSFSFSFSSSSFFFFFFFFUJFFFFFFSSFSSFFFGFGFFSSSGSSSSSSSHSSSSSSSSSYYYYYYYYYYYYSSHSHSFHHFGGFFGGFG",
"GDHSFGFGFGGFGGDHGGGGHFHFHFGGFFFHHFFFFHFFFFFHHHFFFFFFFFFFUUFFFJFFHHFFGFGGGGGGHSHHHHHHGGGGHHHGGGGHFHFFHFGHHGHSGFFGGFHHFJFFGFGHGGGG",
"HSGGFGFHFGFHGGHHGGGGFFHHGGGGHFHFHFHFHFHFHFHFHFHFJFFJFFFJFJFJFFFFFHFHFHFGFGGGGGGGGGGGGGGHGGGHGGHGFGFHHHFHGGGGGGGGGHFHFFFGGGFFSHSG",
"SGGGFHFFGGHGGGGFGGGFHHHGHGGGHFFHFHFHFHFHFHFHFHFHFFFFFFFFFFFFFJFFHFFGGGHGGGGGFGGGGGGGGHGGGGGGGGGGGGHFFFFFGGGGHGGHFFFFFFFGFFFGHSHG",
"HSGSHHSGHFHHFFHFFHFFFFJFFFFFJFFJFFJFFJFFFFFFFFFFFFJFFFFJFFFFFFFJFFFJFFFFJFFFFFJFFJFFFFFJFFFJFFFFGGFGGGGGJFFFJFJFFFFFFFFFFFFJFFFF",
"SHHHSHGGFFFFHFFFFFFHFFFFFFFFFFFFFFFFFFFFJFFJFFJFFFFFFFFFFFJFFFFFJFFFFFJFFFFFJFFFFFFFFFFFJFFFJFFJFHFHGGGGFFFFFFFFFFFFFFFJFJFFFFFF",
"HDDDGSGGHFHFFFHHFHFHJFFFJFFJFFFFFJFJFFJFFFFFJFFFJFFFJFFFJFFFJFFFFFFFFJJFFFFJFFFFFFJFJFFFFFFFFFFFHGGFGGGGJFFJFJFFJFFJFFFFFFJFFFFF",
"SDDHGGGSFFFFHFFFHFFFFFFJFFFFFJFFFFFFFFFFFJFFFFFFFFJFFFFJFFFFFFJFFFFFFFFFFFFFFFJFFJFFFFFFFFFJFFFFGGGGGGGGFFFFFFFFFFFFJFFFFFFFFJFF",
"HSHHGHHSFFHHFHHFHFFFFFFFFFFFFFFFFFFFFFFFFFFFFFFFJFFFFFJFFFFJFJFFJFFFFFFFFFFFFFJFFJFFFJFJFFFFFFFFFFFFGIFFJFFFFFFFFFFJFFFFFJFFFFFF",
"SSHSGGHHHHFFFFFHHFJFFFFJFFJFFFFJFFFFFFFJFJFFFJJFFFFFFFFFJFFFFFFFFFFJFJJFJFFFFFFFFFFFFFFFFFJFJFFJFFFFGGFFFFFFFJFFFFFFFFJFFFFJJFFF",
"SHSHGSSHFFFFFHFFFFFFFFFFFJJFFJFFFJJFFJFFFFFJFJFFFFJFFFFFFFFFFFJFFFFFFFFFJFFJFFFFJFFJJFFJFFFFFFFFFFIFFFFFFFJFJFFJJFFFFFJFFFFFFJFF",
"SHHHGHSHFFFFFHHFHFHFJFFFFFFFFFFFFFFFFFFFFJFFFFFFFFFFFFJFFJFFJFFFFFJFFFJFFFFFJFFFFFFFFFFFFJFFFJFFFJFFFFFFFFFFFFFFFFJFFFFFFJFFFFFF",
"HSHHGGGGGGGGFHFFJFFJJFFJFFFJFFJFJFFJFFFJFFFJFFFFJFFJFFFFFJFFFFJFFFFFFJFFFFFFFFFJFFFJFFFJFFFJFFFFFFFJFFFFFFFJFJFFFFFFFFFFFFFFFFFF",
"SSHSGGGGGGGGFFFHFFFFFFFFFFFFFFFFFFFFFFFFJFFFFFJFFFFFFFFJFFFFFFFFFFFFFFFFFJFJFFFFJFFFFFFFFJFFFFJFFFFFFFFJFFFFFFFFFFJFFFFJFFFFJFFF",
"SHSHGGGGGGGGFHGGFFFFFFFFJFFFFFFFFFFFJFFFFFFFFFFFFFFFFJFFJFJFFJJFFFFJJFFJFFFJJFFFFFFFFJFFFFJFFFFFFFFFFJFFFFFFFFFFFJJFJFFFJFFFFFFF",
"HSHSGGGGGGGGHGGGFFFJFFFFFFFJFFJFFJFFFFFJFFFFFJJFFFFJFFFJFFFFFFFFFJFFFFFFFFFFFFFJFFFJFFFFFFFFFJFFFFJFFFFFFFJFFJFFFFFFFFFFFFFJFFJF",
"DDSHHHGGGGGGGGGGFFFFFFFFFFJFFFFFFFFFFFFFFFFFFJFFFFFFFJFFFFFFFFFFFJFFFJFFFFFFFFFFFFFFFFJFFFJFJFFJJFJFFFFJJFFFFFFFFFFFFFJFFFJFJFFF",
"SHHSGGGGGGGGGGGGJFFFFFFJJFFFJFFFFJFFFJFFFJFFFFFFFJFJFFFFFFFJFJFFFFFJFFFFJFFFFFJFFFJFFFFFFFFFFFFFFFFFJFFFFFFJFJJFFJFFFFFFFFFFFFFF",
"HDDHGGGGGGGGGGGGJFFJFJFFFFFFFFFJFFFFFFFJJFJFJFFJFJFFFFFFJFFFFFFJFFFFJFFFFFFJJFFFJFFFFFFFFJFFFFFFFJFFFFFFFFFFFFJFFFFJJFFJJFFFFFFF",
"bHHSGGGGGGGGGGGGFFFFFFFJFFFJFFFFFFJFFJFFFFFFFFFFFFFFFFJFFFFFFFFFFFFFFFFFFFFFFFJFFFJFFJFFFFFFJFFFFFFFFFFJFJFFFFFFFFFFFFFFFFFJFFFN",
"uFFFFFFFFFFFIFFFFFJFFFFFFFFFJFFFFFFFFFJFFJFFFJFFGGFFFFGGGFGGGGGGFFJFFFFFFFJFFFJFFFJFFFFJFJFFJFFFGGGGGGGGGGGGGGGGJFFFFFFFFFJFFJJp",
"$BFFFFFFFJFFZFFFFFFFFFFJJFFFFFJFFFJFFJFFFFJFFFFFGFFJFGGGFGGGGGGGFFFFFFJFFFFFFFFFFFFFFFFFFFFFFFFFGGGGGHSGGDSGGHSHFFFFFFJFFJFFFFZ=",
"ozIFJFJFFFFZFFIZJFFFJFFFFFJFFJFFFJFJFJFFFJFFJFFFJFFFFFGGFFGGGGGGFFFFFFFJFFJFFFFJFJJFJFFFFFFFFFFFGGSGGSGHGGGGGGGSFFJFFFFFFFJFFLc&",
" 3FJFFFFFJIFFFFFFFFFFFFJFFFFFFFFFFFFFFFFFFFFFFFJFFFFFJGGHFGGGGGFFFJFJFFFFFFFFFFFFFFFFFFJFFFJJFFFGGHSHHGGGGHDGGGGFFFFFFFFFFFFHF5X",
"Y$kIFFFFFJFFIZFZFFFFFJFFJFFJFJFFFJFFFFFFFFFFFFFFFGFGFGGGFFGGFFFFFJFFFJFFJFFFJFFJFFFFFFIFFJFFFFFJGGGGGGGGGGHDGHHHJFFFFFFJGGGHLx&Y",
"Y =NJFFFFFFFGGFIFFFJFFFFFFFFFFFFFFFFFFFIFFFJJFFFFFJGGGGGFFGFFFFFFFFFFFFFFFFFFFFFFFFFFFFFFFJFFJFFGGGHHDDHGGHGGGGGFFFFFFFFGGGJC>XY",
"Y  5ZIJFFFFFZFGAFFFFFFFFFFFFFFJFJFFJFFFFFFFFFFFJJFFFGGGHGGGGFFFFFFFFFFFFFFFJFFFFFFFFFFFFFFJFFFJFGGGGGGDGGGGGDGHHFFFJFFFFFJKA8..Y",
"YY XwZJFFFFJIGGIFJFFFJFFFFFFJFFFFFFFFFFFJFFFFFFFFFGFGFGFGGGGFIFFFFJFFFFJFFFFFJFFIFFFFFFZFFFFFFFFGGGGDGHDHGHDGHDGJFFFJFJFFJSrX.YY",
"YY  o8BJHFFFHAHAFFFFIGIGFFFJFFJFZFFFFIFFFFIFGGGGFFFFFFFFIZFZFFZFIFFFIGZIFFFFJFFFGGGIZFFIGGGFGGGGGGFFFFGGSHDHFHGGGGGGFFHHJV0o  YY",
"YYY  .3zFJHFFJFFFZIFZFZFFFFFFFFFIGIZFZFFFFZFGZIGFFJFFJJFGGGIFFIFFFFFZGFGFJFFFFFJGGGGGFFFGGGGGGGFGGFFFFFGHHHDDGDHGFGGHHJHc3.  YYY",
"YYYY   $0cZJJJHHFFFFFFGFFFFJFFFFFFFGFFFFFFFFFFGFFFFFFFFFFFFGFFFFZFFFFFGFFFFFFFFFFFFGFFFFGGFFGFFHFFFFGFGFGDSHFGGDDGHHHAv0$   YYYY",
"YYYYY    o3ukmBBVNNNNNNBNNNNNNNNNNNBNNNNNNNNNNNBNNNNNNNNNNNBNNNNNNNNNNNBNNNNNNNNNNNBNNNNNNNNNNmBNNNNNmNNNmMmMMMNNVMku,@.   YYYYY",
"YYYYYY     Xo$$=$=$$$$$$$*$*3=$$$$$$$*$*$$$$$$$$$$$*$$$$$$$$$*$*$$$$$$$$$$$*>=$$$$$$$$$$$$$$$$$$$$$&++$$$@$$$$$$%%$O.     YYYYYY",
"YYYYYYY                     =o o                    .                       =o o                    X.          .        YYYYYYY",
"YYYYYYYYY                                                                                                              YYYYYYYYY",
"YYYYYYYYYYYY                                                                                                        YYYYYYYYYYYY"
};
