/* XPM */
static char * door_xpm[] = {
"64 64 266 2",
"  	c #BE754D",
". 	c #BE744B",
"+ 	c #BD744B",
"@ 	c #C0764C",
"# 	c #C3774D",
"$ 	c #C57950",
"% 	c #BE754E",
"& 	c #BD734B",
"* 	c #B97149",
"= 	c #B77048",
"- 	c #B76F48",
"; 	c #B87048",
"> 	c #BC724A",
", 	c #C1764D",
"' 	c #C47950",
") 	c #BE754F",
"! 	c #B76F4A",
"~ 	c #A56340",
"{ 	c #965838",
"] 	c #945737",
"^ 	c #965939",
"/ 	c #975A39",
"( 	c #975938",
"_ 	c #A86441",
": 	c #BC724B",
"< 	c #C47951",
"[ 	c #BE764F",
"} 	c #B7704A",
"| 	c #9C5C3B",
"1 	c #A96542",
"2 	c #B76F49",
"3 	c #BA714A",
"4 	c #BA7149",
"5 	c #BB7149",
"6 	c #BB714A",
"7 	c #BD724B",
"8 	c #BB7049",
"9 	c #AC6642",
"0 	c #9E5C3B",
"a 	c #BC714B",
"b 	c #C47851",
"c 	c #A66441",
"d 	c #9E5F3C",
"e 	c #AD6944",
"f 	c #BC744B",
"g 	c #BF764C",
"h 	c #BF754B",
"i 	c #BF764B",
"j 	c #C0754C",
"k 	c #C2764D",
"l 	c #B26B45",
"m 	c #A2603E",
"n 	c #AB6642",
"o 	c #BC724C",
"p 	c #B7714A",
"q 	c #A66541",
"r 	c #AC6943",
"s 	c #BA734A",
"t 	c #BD754B",
"u 	c #BD744A",
"v 	c #BA7349",
"w 	c #B77148",
"x 	c #B67047",
"y 	c #B56F47",
"z 	c #B56E46",
"A 	c #B46E46",
"B 	c #B46F46",
"C 	c #B87149",
"D 	c #BB734A",
"E 	c #BC744A",
"F 	c #BD734A",
"G 	c #B06A44",
"H 	c #A3613E",
"I 	c #AC6643",
"J 	c #BD724C",
"K 	c #BD764F",
"L 	c #9E603C",
"M 	c #AC6A43",
"N 	c #BE754B",
"O 	c #B46D46",
"P 	c #B36D46",
"Q 	c #B66E47",
"R 	c #B76F47",
"S 	c #B66F47",
"T 	c #BC734A",
"U 	c #AF6A44",
"V 	c #AC6743",
"W 	c #BF754C",
"X 	c #C0754B",
"Y 	c #B46C45",
"Z 	c #BD7249",
"` 	c #BA7048",
" .	c #B87047",
"..	c #BA7249",
"+.	c #B56D46",
"@.	c #BC7149",
"#.	c #BB6F48",
"$.	c #B86F47",
"%.	c #B56C45",
"&.	c #BD7149",
"*.	c #BB7048",
"=.	c #BB7148",
"-.	c #B36B44",
";.	c #B06943",
">.	c #B26B44",
",.	c #B36C45",
"'.	c #B46D45",
").	c #B46B44",
"!.	c #B46B45",
"~.	c #B77047",
"{.	c #BE754C",
"].	c #B66E46",
"^.	c #B46C46",
"/.	c #B97249",
"(.	c #BF764D",
"_.	c #BC734B",
":.	c #BA7049",
"<.	c #B97048",
"[.	c #B97049",
"}.	c #B87049",
"|.	c #B36B45",
"1.	c #B76E47",
"2.	c #B96F47",
"3.	c #B87148",
"4.	c #BC7249",
"5.	c #AB6942",
"6.	c #B97248",
"7.	c #BC7349",
"8.	c #BE744A",
"9.	c #A66540",
"0.	c #A16443",
"a.	c #B87958",
"b.	c #CC8B68",
"c.	c #D49270",
"d.	c #D59371",
"e.	c #D18C69",
"f.	c #CA825C",
"g.	c #C07750",
"h.	c #B66D47",
"i.	c #B77049",
"j.	c #A6643F",
"k.	c #A66A4B",
"l.	c #C78C6E",
"m.	c #DFA384",
"n.	c #DFA588",
"o.	c #D69F82",
"p.	c #CD9477",
"q.	c #C28668",
"r.	c #B77B5C",
"s.	c #AE7253",
"t.	c #AD7051",
"u.	c #B17352",
"v.	c #B57451",
"w.	c #B9744E",
"x.	c #B67049",
"y.	c #A5633F",
"z.	c #A66B4D",
"A.	c #CA9174",
"B.	c #E0A689",
"C.	c #D29D82",
"D.	c #B98A72",
"E.	c #AD8069",
"F.	c #A87C64",
"G.	c #A47760",
"H.	c #A0745D",
"I.	c #9F735C",
"J.	c #A1745C",
"K.	c #A97459",
"L.	c #B47451",
"M.	c #BB734C",
"N.	c #A76B4C",
"O.	c #CA9073",
"P.	c #E5A98B",
"Q.	c #E7AC8F",
"R.	c #DFA68A",
"S.	c #D4997C",
"T.	c #C58868",
"U.	c #AD6E4D",
"V.	c #AA6B49",
"W.	c #AF6E4C",
"X.	c #B4714D",
"Y.	c #B9734C",
"Z.	c #BC744C",
"`.	c #A5633E",
" +	c #A76B4D",
".+	c #CB9174",
"++	c #E9AD8F",
"@+	c #F4B89B",
"#+	c #E9AB8C",
"$+	c #D59472",
"%+	c #C4805C",
"&+	c #B6714B",
"*+	c #BB744B",
"=+	c #EAAD8F",
"-+	c #F6BA9C",
";+	c #F8BB9D",
">+	c #ECAD8E",
",+	c #D89673",
"'+	c #C6825C",
")+	c #B8714B",
"!+	c #A5643F",
"~+	c #A46747",
"{+	c #C18466",
"]+	c #DA9B7C",
"^+	c #E3A486",
"/+	c #E4A587",
"(+	c #DC9B7B",
"_+	c #CF8B67",
":+	c #C27C56",
"<+	c #B66F49",
"[+	c #A06240",
"}+	c #B37350",
"|+	c #C4815D",
"1+	c #C98662",
"2+	c #C8835E",
"3+	c #C57C56",
"4+	c #BD744E",
"5+	c #AC6942",
"6+	c #B97349",
"7+	c #BC754A",
"8+	c #BC7449",
"9+	c #B97148",
"0+	c #BB7249",
"a+	c #B97047",
"b+	c #B56E45",
"c+	c #B56F46",
"d+	c #B66F46",
"e+	c #B66E45",
"f+	c #B56D45",
"g+	c #BE734A",
"h+	c #BA724A",
"i+	c #BD7349",
"j+	c #BB724A",
"k+	c #B16A43",
"l+	c #B06A43",
"m+	c #BE734B",
"n+	c #B77147",
"o+	c #BC7049",
"p+	c #BA6F48",
"q+	c #B56C46",
"r+	c #B66C46",
"s+	c #B56B45",
"t+	c #B16B44",
"u+	c #B36C44",
"v+	c #BD754A",
"w+	c #B6714A",
"x+	c #A56540",
"y+	c #9D5E3B",
"z+	c #AA6841",
"A+	c #BB7349",
"B+	c #AD6842",
"C+	c #A1603C",
"D+	c #B57049",
"E+	c #A1613D",
"F+	c #925635",
"G+	c #985B38",
"H+	c #A3623E",
"I+	c #A2623E",
"J+	c #995B38",
"K+	c #945635",
"L+	c #A5623F",
"M+	c #BE764E",
"N+	c #A3613C",
"O+	c #A6633E",
"P+	c #A4613C",
"Q+	c #A4613D",
"  . . + . . . . . . . . . . . . . . . . . . . . . . . . . . . . . . . . . . . . . . . . . . . . . . . . . . . . . . . . . @ # $ ",
"% & * = - - - - - - - - - - - - - - - - - - - - - - - - - - - - - - - - - - - - - - - - - - - - - - - - - - - - - - - - ; > , ' ",
") ! ~ { ] ^ / ( ( ( ( ( ( ( ( ( ( ( ( ( ( ( ( ( ( ( ( ( ( ( ( ( ( ( ( ( ( ( ( ( ( ( ( ( ( ( ( ( ( ( ( ( ( ( ( ( ( ( ( ] { _ : < ",
"[ } ~ | 1 2 3 4 5 5 5 5 4 4 4 4 4 4 4 4 4 4 4 4 4 4 4 4 4 4 4 4 4 4 4 4 4 4 4 4 4 4 4 4 4 4 4 4 4 4 4 4 5 5 5 5 6 7 8 9 0 _ a b ",
"[ } c d e f g h h h i i i i i i i i i i i i i i i i i i i i i i i i i i i i i i i i i i i i i i i i i i i i h h j k j l m n o b ",
"[ p q d r s t + + u v w x y z z z z z z z z z z z z z z z z z z z z z z z z z z z z z z z z z z z A A B y C D E + h F G H I J b ",
"K p q L M s t + N . 4 O P Q = ; ; ; ; ; ; ; ; ; ; ; ; ; ; ; ; ; ; ; ; ; ; ; ; ; ; ; ; ; ; ; ; ; ; ; R z O S * D + . T U H V J b ",
"K p q L M s t + W X 5 Y z T g @ @ @ @ @ @ @ @ @ @ @ @ @ @ @ @ @ @ @ @ @ @ @ @ @ @ @ @ @ @ @ @ @ @ @ h Z `  .w ..+ N T U H V J b ",
"K p q L M s t + W X 5 Y +...+ + + + + + + + + + + + + + + + + + + + + + + + + + + + + + + + + + + + F @.#.$.w ..+ N T U H V J b ",
"K p q L M s t + W X 5 Y +...+ + + + + + + + + + + + + + + + + + + + + + + + + + + + + + + + + + + + F @.#.$.w ..+ N T U H V J b ",
"K p q L M s t + W X 5 Y +...+ + + + + + + + + + + + + + + + + + + + + + + + + + + + + + + + + + + + F @.#.$.w ..+ N T U H V J b ",
"K p q L M s t + W X 5 Y +...+ + + + + + + + + + + + + + + + + + + + + + + + + + + + + + + + + + + + F @.#.$.w ..+ N T U H V J b ",
"K p q L M s t + W X 5 Y +...+ + + + + + + + + + + + + + + + + + + + + + + + + + + + + + + + + + + + F @.#.$.w ..+ N T U H V J b ",
"K p q L M s t + W X 5 Y +...+ + + + + + + + + + + + + + + + + + + + + + + + + + + + + + + + + + + + F @.#.$.w ..+ N T U H V J b ",
"K p q L M s t + W X 5 Y +...+ + + + + + + + + + + + + + + + + + + + + + + + + + + + + + + + + + + + F @.#.$.w ..+ N T U H V J b ",
"K p q L M s t + W X 5 Y +...+ + + + + + + + + + + + + + + + + + + + + + + + + + + + + + + + + + + + F @.#.$.w ..+ N T U H V J b ",
"K p q L M s t + W X 5 Y +...+ + + + + + + + + + + + + + + + + + + + + + + + + + + + + + + + + + + + F @.#.$.w ..+ N T U H V J b ",
"K p q L M s t + W X 5 Y +...+ + + + + + + + + + + + + + + + + + + + + + + + + + + + + + + + + + + + F @.#.$.w ..+ N T U H V J b ",
"K p q L M s t + W X 5 Y +...+ + + + + + + + + + + + + + + + + + + + + + + + + + + + + + + + + + + + F @.#.$.w ..+ N T U H V J b ",
"K p q L M s t + W X 5 Y %.4 + + + + + + + + + + + + + + + + + + + + + + + + + + + + + + + + + + + + F &.*. .w ..+ N T U H V J b ",
"K p q L M s t + W X =.-.;.>.,.Y Y Y Y Y Y Y Y Y Y Y Y Y Y Y Y Y Y Y Y Y Y Y Y Y Y Y Y Y Y Y Y Y Y '.Y ).!.+.~...+ N T U H V J b ",
"K p q L M s t + {.W T $.].+.+.+.+.+.+.+.+.+.+.+.+.+.+.+.+.+.+.+.+.+.+.+.+.+.+.+.+.+.+.+.+.+.+.+.+.+.+.^.+.- /.D + . T U H V J b ",
"K p q L M s t + + {.{.W g g (.(.(.(.(.(.(.(.(.(.(.(.(.(.(.(.(.(.(.(.(.(.(.(.(.(.(.(.(.(.(.(.(.(.(.(.W {.{.+ f + + . T U H V J b ",
"K p q L M s t + + + + & _._._._._._._._._._._._._._._._._._._._._._._._._._._._._._._._._._._._._._._._._.+ + + + . T U H V J b ",
"K p q L M s t + + + > :.<.<.<.[.[.[.[.[.[.[.[.[.[.[.[.[.[.[.[.[.[.[.[.[.[.[.[.[.[.[.[.[.[.[.[.[.[.[.}.; ; ..E f + . T U H V J b ",
"K p q L M s t + {.W 4 |.|.1.<.` ` ` ` ` ` ` ` ` ` ` ` ` ` ` ` ` ` ` ` ` ` ` ` ` ` ` ` ` ` ` ` ` ` ` 2.%.,.z 3.s + N T U H V J b ",
"K p q L M s t + W j 4 |.Y [.T T T T T T T T T T T T T T T T T T T T T T T T T T T T T T T T T T T T 4.` $.R = ..+ N T U H V J b ",
"K p q d 5.6.E 7.8.h =.Y +...+ + + + + + + + + + + + + + + + + + + + + + + + + + + + + + + + + + + + F 4.=. .w ..+ N T U H V J b ",
"K p 9.0.a.b.c.d.e.f.g.h.%.5 + + + + + + + + + + + + + + + + + + + + + + + + + + + + + + + + + + + + F @.*. .w ..+ N T U H V J b ",
"K i.j.k.l.m.n.o.p.q.r.s.t.u.v.w.f + + + + + + + + + + + + + + + + + + + + + + + + + + + + + + + + + F @.#.$.w ..+ N T U H V J b ",
"K x.y.z.A.B.C.D.E.F.G.H.I.J.K.L.M.+ + + + + + + + + + + + + + + + + + + + + + + + + + + + + + + + + F @.#.$.w ..+ N T U H V J b ",
"K x.y.N.O.P.Q.R.S.T.a.U.V.W.X.Y.Z.+ + + + + + + + + + + + + + + + + + + + + + + + + + + + + + + + + F @.#.$.w ..+ N T U H V J b ",
"K x.`. +.+++@+@+#+$+%+&+,.3.*+f + + + + + + + + + + + + + + + + + + + + + + + + + + + + + + + + + + F @.#.$.w ..+ N T U H V J b ",
"K x.`. +.+=+-+;+>+,+'+)+%.4 + + + + + + + + + + + + + + + + + + + + + + + + + + + + + + + + + + + + F @.#.$.w ..+ N T U H V J b ",
"K x.!+~+{+]+^+/+(+_+:+<+%.4 + + + + + + + + + + + + + + + + + + + + + + + + + + + + + + + + + + + + F @.#.$.w ..+ N T U H V J b ",
"K p 9.[+}+|+1+1+2+3+4++.+...+ + + + + + + + + + + + + + + + + + + + + + + + + + + + + + + + + + + + F @.#.$.w ..+ N T U H V J b ",
"K p q d 5+6+7+8+N j 5 Y +...+ + + + + + + + + + + + + + + + + + + + + + + + + + + + + + + + + + + + F @.#.$.w ..+ N T U H V J b ",
"K p q L M s t + W X 5 Y +...+ + + + + + + + + + + + + + + + + + + + + + + + + + + + + + + + + + + + F @.*. .w ..+ N T U H V J b ",
"K p q L M s t + W X 5 Y Y 9+D D T T T T T T T T T T T T T T T T T T T T T T T T T T T T T T T T T T 0+=.a+~.w ..+ N T U H V J b ",
"K p q L M s t + W X 5 %.-.'.b+c+c+c+c+c+c+c+c+c+c+c+c+c+c+c+c+c+c+c+c+c+c+c+c+c+c+c+c+c+c+c+c+c+c+d+e+f+f+d+w ..+ N T U H V J b ",
"K p q L M s t + h h g+@.`  .~.~.~.~.~.~.~.~.~.~.~.~.~.~.~.~.~.~.~.~.~.~.~.~.~.~.~.~.~.~.~.~.~.~.~. .R 1.R <.h+T + . T U H V J b ",
"K p q L M s t + + . 8.u i+7.7.7.7.7.7.7.7.7.7.7.7.7.7.7.7.7.7.7.7.7.7.7.7.7.7.7.7.7.7.7.7.7.7.7.7.7.7.0+7.T _.+ + . T U H V J b ",
"K p q L M s t + + + u 8.8.t t + + + + + + + + + + + + + + + + + + + + + + + + + + + + + + + + + + + + + + + + + + . T U H V J b ",
"K p q L M s t + . + j+ .R R ~.- - - - - - - - - - - - - - - - - - - - - - - - - - - - - - - - - - R S z z ; D f + . T U H V J b ",
"K p q L M s t + W h <.>.;.-.Y %.Y Y Y Y Y Y Y Y Y Y Y Y Y Y Y Y Y Y Y Y Y Y Y Y Y Y Y Y Y Y Y Y %.f+,.k+l+'.3.D + N T U H V J b ",
"K p q L M s t + W X 5 Y %.5 g+m+m+m+m+m+m+m+m+m+m+m+m+m+m+m+m+m+m+m+m+m+m+m+m+m+m+m+m+m+m+m+m+m+m+. g+Z *. .n+..+ N T U H V J b ",
"K p q L M s t + W X 5 Y +...+ + + + + + + + + + + + + + + + + + + + + + + + + + + + + + + + + + + + F @.#. .w ..+ N T U H V J b ",
"K p q L M s t + W X 5 Y +...+ + + + + + + + + + + + + + + + + + + + + + + + + + + + + + + + + + + + F @.#.$.w ..+ N T U H V J b ",
"K p q L M s t + W X 5 Y +...+ + + + + + + + + + + + + + + + + + + + + + + + + + + + + + + + + + + + F @.#.$.w ..+ N T U H V J b ",
"K p q L M s t + W X 5 Y +...+ + + + + + + + + + + + + + + + + + + + + + + + + + + + + + + + + + + + F @.#.$.w ..+ N T U H V J b ",
"K p q L M s t + W X 5 Y +...+ + + + + + + + + + + + + + + + + + + + + + + + + + + + + + + + + + + + F @.#.$.w ..+ N T U H V J b ",
"K p q L M s t + W X 5 Y +...+ + + + + + + + + + + + + + + + + + + + + + + + + + + + + + + + + + + + F @.#.$.w ..+ N T U H V J b ",
"K p q L M s t + W X 5 Y +...+ + + + + + + + + + + + + + + + + + + + + + + + + + + + + + + + + + + + F @.#.$.w ..+ N T U H V J b ",
"K p q L M s t + W X 5 Y +...+ + + + + + + + + + + + + + + + + + + + + + + + + + + + + + + + + + + + F @.#.$.w ..+ N T U H V J b ",
"K p q L M s t + W X 5 Y +...+ + + + + + + + + + + + + + + + + + + + + + + + + + + + + + + + + + + + F @.#.$.w ..+ N T U H V J b ",
"K p q L M s t + W X 5 Y +...+ + + + + + + + + + + + + + + + + + + + + + + + + + + + + + + + + + + + F @.#.$.w ..+ N T U H V J b ",
"K p q L M s t + W X 5 Y +...+ + + + + + + + + + + + + + + + + + + + + + + + + + + + + + + + + + + + F @.#.$.w ..+ N T U H V J b ",
"K p q L M s t + W j 5 Y Y <.> & & & & & & & & & & & & & & & & & & & & & & & & & & & & & & & & & & & > o+p+$.= ..+ N T U H V J b ",
"K p q L M s t + h X 0+q+|.!.q+h.h.h.h.h.h.h.h.h.h.h.h.h.h.h.h.h.h.h.h.h.h.h.h.h.h.h.h.h.h.h.h.h.h.h.r+s+!.].= ..+ N T U H V J b ",
"K p q L M s t + N h T <.].Y >.l l l l l l l l l l l l l l l l l l l l l l l l l l l l l l l l l l l >.t+u+S 4 T + . T U H V J b ",
"K p q L M s t + + u u N v+v+v+v+t t t t t t t t t t t t t t t t t t t t t t t t t t t t t t t t t t u u u u + + + N T U H V J b ",
"K w+x+y+z+3.A+....................................................................................................A+9+B+C+n : b ",
"[ D+E+F+G+E+H+I+I+I+I+I+I+I+I+I+I+I+I+I+I+I+I+I+I+I+I+I+I+I+I+I+I+I+I+I+I+I+I+I+I+I+I+I+I+I+I+I+I+I+I+I+I+I+I+I+I+H+E+J+K+L+6 < ",
"M+* B+N+N+O+O+O+O+O+O+O+O+O+O+O+O+O+O+O+O+O+O+O+O+O+O+O+O+O+O+O+O+O+O+O+O+O+O+O+O+O+O+O+O+O+O+O+O+O+O+O+O+O+O+O+O+O+O+P+Q+;.m+$ "};
