/* XPM */
static char * bowser_xpm[] = {
"28 28 48 1",
" 	c None",
".	c #C3171D",
"+	c #C5181D",
"@	c #C41D22",
"#	c #C5181F",
"$	c #C41A21",
"%	c #C5151C",
"&	c #C4181F",
"*	c #C4171E",
"=	c #C4161D",
"-	c #C3181F",
";	c #C4171F",
">	c #C5161C",
",	c #C5161D",
"'	c #C41920",
")	c #C4161C",
"!	c #C5171D",
"~	c #C4171D",
"{	c #C41A20",
"]	c #C5151D",
"^	c #C5171E",
"/	c #C51C22",
"(	c #C51A21",
"_	c #C5181E",
":	c #C4181E",
"<	c #C4151D",
"[	c #C4161E",
"}	c #C4151C",
"|	c #C4191F",
"1	c #C51E23",
"2	c #C51A20",
"3	c #C3171F",
"4	c #C51920",
"5	c #C52025",
"6	c #C41C22",
"7	c #C51E24",
"8	c #C31A20",
"9	c #C51C23",
"0	c #C51B21",
"a	c #C3181E",
"b	c #C41C21",
"c	c #C51A1F",
"d	c #C5161E",
"e	c #C41B21",
"f	c #C3171E",
"g	c #C41F24",
"h	c #C61D22",
"i	c #C41A1F",
"             .+             ",
"         @#$$%%&*=-         ",
"        ;>%%%%%%,%,'        ",
"   ,)   ,%%%%%%%%%%!   ,,   ",
"  !%~  {,%%%%%%%%%%%]  ^%,  ",
"  ,%!/{^%%%%%%%%%%%%%.(^%_  ",
"  :=%,,%<%%%%%%%%%%=%%%%,*  ",
"   =%%>~ %%%%%%%%,# *%%%,   ",
"    >%%>   ,,%%%=   [%%,    ",
"    ,%%=    #%%*    =%%,    ",
"  &^%%%%=} =,%%^= %%%%%>_|  ",
" *%%%%%%%%%%%%%%%%%%%%%%%%* ",
"/,%%%%%%%%%%%%%%%%%%%%%%%%,1",
"^%%>!**%%%%%%%%%%%%%>&:,%%%^",
"%%%,2  *%%%%%%%%%%%,3  *%%%%",
"=%%_    =%,'&  |4,,4    ^%%~",
" >%^5    ,!      ,#     _%, ",
" 2,%!    {*      '6    *%%& ",
"  7!>&                #,,'  ",
"   2,,'               ,,8   ",
"    &,,              =,|    ",
"     %!6         9  0,^     ",
"     a,, bc      _* d,e     ",
"      f,{^_g    h!%=%*      ",
"      a%%%%,_,,!>%%%%|      ",
"      i%%%%%%%%%%%%%%#      ",
"       %%%%%%%%>%%%>%       ",
"        {=%}*-8',%*e        "};
