/* XPM */
static char * minimap_money_xpm[] = {
"28 22 191 2",
"  	c None",
". 	c #507546",
"+ 	c #496A3F",
"@ 	c #47673E",
"# 	c #496A40",
"$ 	c #47673F",
"% 	c #47653D",
"& 	c #49673B",
"* 	c #46643D",
"= 	c #47643C",
"- 	c #425834",
"; 	c #41542F",
"> 	c #3F5430",
", 	c #3F502F",
"' 	c #455B37",
") 	c #475F3E",
"! 	c #47603E",
"~ 	c #455D3D",
"{ 	c #455C3C",
"] 	c #48603F",
"^ 	c #475E3E",
"/ 	c #495F3F",
"( 	c #4A6041",
"_ 	c #46673D",
": 	c #374E2E",
"< 	c #3D5832",
"[ 	c #3F5C35",
"} 	c #3C5832",
"| 	c #3A5330",
"1 	c #446137",
"2 	c #3E5832",
"3 	c #3B522F",
"4 	c #3B4F2D",
"5 	c #3E532E",
"6 	c #3F542E",
"7 	c #3E532F",
"8 	c #3C5230",
"9 	c #435A35",
"0 	c #445C37",
"a 	c #3C5131",
"b 	c #3B5031",
"c 	c #415736",
"d 	c #3C5033",
"e 	c #37482F",
"f 	c #3F5234",
"g 	c #405D37",
"h 	c #2E4328",
"i 	c #476739",
"j 	c #4F733F",
"k 	c #48693B",
"l 	c #405B35",
"m 	c #48673A",
"n 	c #4F713E",
"o 	c #456235",
"p 	c #3D532D",
"q 	c #3E542D",
"r 	c #3D522C",
"s 	c #435B32",
"t 	c #527140",
"u 	c #4E6B3E",
"v 	c #4F6B3E",
"w 	c #516D3E",
"x 	c #516D3F",
"y 	c #506C3F",
"z 	c #425736",
"A 	c #2B3827",
"B 	c #3E5234",
"C 	c #2F3F2C",
"D 	c #385130",
"E 	c #31472A",
"F 	c #527740",
"G 	c #537841",
"H 	c #436136",
"I 	c #405B34",
"J 	c #537540",
"K 	c #445D33",
"L 	c #3F5531",
"M 	c #516F3F",
"N 	c #49643B",
"O 	c #3E5533",
"P 	c #3A4E30",
"Q 	c #506B3F",
"R 	c #3D5233",
"S 	c #2C3A26",
"T 	c #3D5435",
"U 	c #2D402C",
"V 	c #4F7445",
"W 	c #32472A",
"X 	c #374F2D",
"Y 	c #4D723D",
"Z 	c #50753F",
"` 	c #50743F",
" .	c #50733F",
"..	c #496839",
"+.	c #3B512E",
"@.	c #3E552F",
"#.	c #3C522E",
"$.	c #3B4F2E",
"%.	c #4B663B",
"&.	c #445E39",
"*.	c #455E39",
"=.	c #4D683D",
"-.	c #4F693F",
";.	c #394A2F",
">.	c #303F2A",
",.	c #3C5134",
"'.	c #2E412B",
").	c #486C3E",
"!.	c #344D2D",
"~.	c #354F2E",
"{.	c #3E5C33",
"].	c #3F5C34",
"^.	c #3D5933",
"/.	c #415C35",
"(.	c #3B5632",
"_.	c #3A5230",
":.	c #3C532F",
"<.	c #3F562F",
"[.	c #3E562F",
"}.	c #3B502C",
"|.	c #374A2B",
"1.	c #3B4F31",
"2.	c #405533",
"3.	c #455C37",
"4.	c #445B37",
"5.	c #3E5334",
"6.	c #32422B",
"7.	c #38492E",
"8.	c #364B31",
"9.	c #2E402C",
"0.	c #45673C",
"a.	c #3D5B36",
"b.	c #3C5936",
"c.	c #3C5935",
"d.	c #3E5A37",
"e.	c #3C5635",
"f.	c #3F5A36",
"g.	c #364F31",
"h.	c #394F2F",
"i.	c #394F2C",
"j.	c #3D542E",
"k.	c #41552E",
"l.	c #3D512D",
"m.	c #394E30",
"n.	c #3E5534",
"o.	c #3C5233",
"p.	c #3B5033",
"q.	c #415636",
"r.	c #3F5536",
"s.	c #435937",
"t.	c #2F432D",
"u.	c #2E402B",
"v.	c #2E412C",
"w.	c #2F412C",
"x.	c #2F422C",
"y.	c #30422B",
"z.	c #36462A",
"A.	c #394829",
"B.	c #3A4929",
"C.	c #38472A",
"D.	c #33452C",
"E.	c #31442E",
"F.	c #31452F",
"G.	c #32462F",
"H.	c #324630",
"I.	c #314630",
"J.	c #324730",
"K.	c #334730",
"L.	c #31432E",
"M.	c #2F402C",
"N.	c #2D412B",
"O.	c #2D412C",
"P.	c #36482D",
"Q.	c #3D4C2C",
"R.	c #3F4F2D",
"S.	c #32452D",
"T.	c #2D402B",
"U.	c #30442C",
"V.	c #3D4D2D",
"W.	c #3F4E2D",
"X.	c #3F4D2D",
"Y.	c #37492D",
"Z.	c #2E422C",
"`.	c #2E422B",
" +	c #2F412D",
".+	c #38482A",
"++	c #3C4B2B",
"@+	c #3C4C2C",
"#+	c #3A4A2C",
"$+	c #2E412A",
"%+	c #2F412B",
"                                                        ",
"                                                        ",
"                                                        ",
"                                                        ",
"                                                        ",
"      . + @ # $ % & * = - ; > , ' ) ! ~ { ] ^ / (       ",
"      _ : < [ } | 1 2 3 4 5 6 7 8 9 0 a b c d e f       ",
"      g h i j k l m n o p q r s t u v w x y z A B C     ",
"      D E F G H I n J K q q 5 L M N O P 0 Q R S T U     ",
"    V W X Y Z ` `  ...+.q @.#.$.%.u &.*.=.-.;.>.,.'.    ",
"    ).!.~.{.].^./.(._.:.<.[.}.|.1.9 2.3.4.5.6.7.8.9.    ",
"    0.a.b.c.d.e.f.g.h.i.j.k.l.P m.n.o.p.q.r.,.s.t.9.    ",
"    u.'.'.v.v.w.x.x.y.z.A.B.C.D.E.F.F.G.H.I.J.K.'.L.    ",
"    M.'.'.'.'.'.'.N.O.P.Q.R.R.S.T.N.N.'.T.N.N.'.v.      ",
"      '.'.'.N.T.'.'.'.U.V.W.X.Y.Z.`.N.'.'.'.N.`.'.      ",
"       +'.'.x.'.'.'.'.`..+++@+#+$+N.'.'.'.N.'.'.%+      ",
"                                                        ",
"                                                        ",
"                                                        ",
"                                                        ",
"                                                        ",
"                                                        "};
