/* XPM */
static char * minimap_north_indication_xpm[] = {
"41 41 66 1",
" 	c None",
".	c #000000",
"+	c #A5A5A5",
"@	c #FFFFFF",
"#	c #E8E8E8",
"$	c #0D0D0D",
"%	c #BCBCBC",
"&	c #3D3D3D",
"*	c #9D9D9D",
"=	c #EEEEEE",
"-	c #222222",
";	c #A9A9A9",
">	c #F5F5F5",
",	c #F3F3F3",
"'	c #323232",
")	c #AEAEAE",
"!	c #B4B4B4",
"~	c #737373",
"{	c #DDDDDD",
"]	c #F7F7F7",
"^	c #454545",
"/	c #7A7A7A",
"(	c #BEBEBE",
"_	c #D5D5D5",
":	c #FAFAFA",
"<	c #535353",
"[	c #6C6C6C",
"}	c #FDFDFD",
"|	c #C7C7C7",
"1	c #CDCDCD",
"2	c #FCFCFC",
"3	c #636363",
"4	c #5D5D5D",
"5	c #FBFBFB",
"6	c #D0D0D0",
"7	c #C4C4C4",
"8	c #FEFEFE",
"9	c #727272",
"0	c #4D4D4D",
"a	c #F9F9F9",
"b	c #D8D8D8",
"c	c #BABABA",
"d	c #808080",
"e	c #E0E0E0",
"f	c #AFAFAF",
"g	c #8F8F8F",
"h	c #2A2A2A",
"i	c #F1F1F1",
"j	c #E7E7E7",
"k	c #A4A4A4",
"l	c #9C9C9C",
"m	c #161616",
"n	c #ECECEC",
"o	c #EDEDED",
"p	c #1C1C1C",
"q	c #999999",
"r	c #A8A8A8",
"s	c #E5E5E5",
"t	c #F2F2F2",
"u	c #C1C1C1",
"v	c #8A8A8A",
"w	c #F4F4F4",
"x	c #DEDEDE",
"y	c #7D7D7D",
"z	c #D6D6D6",
"A	c #6D6D6D",
"                .........                ",
"             ...............             ",
"           ...................           ",
"         .......................         ",
"        .........................        ",
"       ...........................       ",
"      .............................      ",
"     .....+@@@@#$..........%@@@&....     ",
"    ......+@@@@@*..........%@@@&.....    ",
"   .......+@@@@@=-.........%@@@&......   ",
"   .......+@@@@@@;.........%@@@&......   ",
"  ........+@@@>@@,'........%@@@&.......  ",
"  ........+@@@)@@@!........%@@@&.......  ",
" .........+@@@~{@@]^.......%@@@&........ ",
" .........+@@@~/@@@(.......%@@@&........ ",
" .........+@@@~._@@:<......%@@@&........ ",
"..........+@@@~.[}@@|......%@@@&.........",
"..........+@@@~..1@@23.....%@@@&.........",
"..........+@@@~..45@@6.....%@@@&.........",
"..........+@@@~...7@@89....%@@@&.........",
"..........+@@@~...0a@@b....%@@@&.........",
"..........+@@@~....c@@@d...%@@@&.........",
"..........+@@@~....&>@@e...%@@@&.........",
"..........+@@@~.....f@@@g..%@@@&.........",
"..........+@@@~.....hi@@j$.%@@@&.........",
" .........+@@@~......k@@@l.%@@@&........ ",
" .........+@@@~......mn@@op%@@@&........ ",
" .........+@@@~.......q@@@r%@@@&........ ",
"  ........+@@@~........s@@tu@@@&.......  ",
"  ........+@@@~........v@@@w@@@&.......  ",
"   .......+@@@~.........x@@@@@@&......   ",
"   .......+@@@~.........y@@@@@@&......   ",
"    ......+@@@~..........z@@@@@&.....    ",
"     .....+@@@~..........A8@@@@&....     ",
"      .............................      ",
"       ...........................       ",
"        .........................        ",
"         .......................         ",
"           ...................           ",
"             ...............             ",
"                .........                "};
