/* XPM */
static char * minimap_player_xpm[] = {
"19 35 3 1",
" 	c None",
".	c #000000",
"+	c #FFFFFF",
"         .         ",
"        ...        ",
"       ..+..       ",
"       ..+..       ",
"      ..+++..      ",
"     ..+++++..     ",
"     ..+++++..     ",
"    ..+++++++..    ",
"    ..+++++++..    ",
"    ..+++++++..    ",
"   ..+++++++++..   ",
"   ..+++++++++..   ",
"   ..+++++++++..   ",
"  ..+++++++++++..  ",
"  ..+++++++++++..  ",
" ..+++++++++++++.. ",
" ..+++++++++++++.. ",
" ..+++++++++++++.. ",
" ..+++++++++++++.. ",
"..+++++++++++++++..",
"..+++++++++++++++..",
"..+++++++++++++++..",
"..+++++++++++++++..",
"..+++++++++++++++..",
"..+++++++++++++++..",
"..+++++++++++++++..",
"..+++++++++++++++..",
"..+++++++++++++++..",
"..+++++++++++++++..",
" ..+++++++++++++.. ",
"  ..+++++++++++..  ",
"   ..+++++++++..   ",
"    ...+++++...    ",
"     .........     ",
"       .....       "};
