/* XPM */
static char * minimap_door_xpm[] = {
"28 28 71 1",
" 	c None",
".	c #C17A53",
"+	c #C37A54",
"@	c #BC734B",
"#	c #B66F47",
"$	c #C1764C",
"%	c #B66F49",
"&	c #AE6A44",
"*	c #B46D46",
"=	c #B46E46",
"-	c #B56D46",
";	c #B26A45",
">	c #BA714B",
",	c #B67049",
"'	c #B67148",
")	c #BE744B",
"!	c #B56E46",
"~	c #B87048",
"{	c #B56F47",
"]	c #BB734A",
"^	c #B97149",
"/	c #BC714B",
"(	c #C0754C",
"_	c #B46C45",
":	c #BE754B",
"<	c #BC7149",
"[	c #B97249",
"}	c #B97048",
"|	c #BD744B",
"1	c #BC7049",
"2	c #BF754C",
"3	c #B66E47",
"4	c #B66D46",
"5	c #BA7249",
"6	c #B36B45",
"7	c #BB7149",
"8	c #B76E47",
"9	c #C58461",
"0	c #CC8662",
"a	c #B56F48",
"b	c #DDA285",
"c	c #BD896F",
"d	c #A57055",
"e	c #B9744D",
"f	c #E0A487",
"g	c #E5A686",
"h	c #B57049",
"i	c #BF7D58",
"j	c #C7815B",
"k	c #B36C45",
"l	c #BA7048",
"m	c #BF754B",
"n	c #B87047",
"o	c #B86F47",
"p	c #B97148",
"q	c #B77047",
"r	c #BC744B",
"s	c #BC724A",
"t	c #BA6F47",
"u	c #B97049",
"v	c #B86D47",
"w	c #B77148",
"x	c #BB7349",
"y	c #B67048",
"z	c #A4633E",
"A	c #A7653F",
"B	c #A5633E",
"C	c #BB714A",
"D	c #BC7650",
"E	c #B8734C",
"F	c #C07852",
"     .++++++++++++++++      ",
"     @################$     ",
"     %&*============-;>     ",
"     ,')!~~~~~~~~~~{]^/     ",
"     ,'(_::::::::::<[}/     ",
"     ,'(_||||||||||1[}/     ",
"     ,'(_||||||||||1[}/     ",
"     ,'(_||||||||||1[}/     ",
"     ,'(_||||||||||1[}/     ",
"     ,'2_333333333345}/     ",
"     ,'||||||||||||@|}/     ",
"     ,'26777777777785}/     ",
"     ,90_||||||||||<[}/     ",
"     abcde|||||||||1[}/     ",
"     afg_||||||||||1[}/     ",
"     hij_||||||||||1[}/     ",
"     ,'(k]]]]]]]]]]l[}/     ",
"     ,'m}nnnnnnnnnno]}/     ",
"     ,'|p^^^^^^^^^^qr}/     ",
"     ,'26sssssssssst[}/     ",
"     ,'(_||||||||||1[}/     ",
"     ,'(_||||||||||1[}/     ",
"     ,'(_||||||||||1[}/     ",
"     ,'(_||||||||||1[}/     ",
"     ,'26uuuuuuuuuuv[}/     ",
"     ,w)x5555555555p|p/     ",
"     yzAAAAAAAAAAAAAABC     ",
"     DEEEEEEEEEEEEEEEEF     "};
