/* XPM */
static char * minimap_house_xpm[] = {
"32 32 49 1",
" 	c None",
".	c #FFFFFF",
"+	c #800080",
"@	c #7D007D",
"#	c #A458A4",
"$	c #7B007B",
"%	c #A66EA6",
"&	c #780078",
"*	c #B681B6",
"=	c #933093",
"-	c #9B439B",
";	c #FCF7FC",
">	c #820082",
",	c #760076",
"'	c #8B2A8B",
")	c #FBF8FB",
"!	c #FFFDFF",
"~	c #F6EDF6",
"{	c #E6D2E6",
"]	c #D2B0D2",
"^	c #F2E7F2",
"/	c #E9D7E9",
"(	c #BE8DBE",
"_	c #860F86",
":	c #A865A8",
"<	c #EEDFEE",
"[	c #D8B9D8",
"}	c #DBBFDB",
"|	c #933693",
"1	c #DFC6DF",
"2	c #C59CC5",
"3	c #B47BB4",
"4	c #F1E5F1",
"5	c #AF72AF",
"6	c #CBA4CB",
"7	c #A45CA4",
"8	c #C9A1C9",
"9	c #9C4B9C",
"0	c #933A93",
"a	c #BF90BF",
"b	c #A65BA6",
"c	c #9B4E9B",
"d	c #C4A0C4",
"e	c #8B2C8B",
"f	c #B174B1",
"g	c #8B1D8B",
"h	c #E3CBE3",
"i	c #9C479C",
"j	c #AB68AB",
"                                ",
"                                ",
"                                ",
"               ++     +++++     ",
"              ++++    +++++     ",
"             ++++++   +++++     ",
"           ++++++++++ +++++     ",
"          @++++  ++++++++++     ",
"         +++++    +++++++++     ",
"        +++++  ++  ++++++++     ",
"       ++++$  ++++  @++++++     ",
"     +++++  ++++++++  +++++     ",
"    @++++  @+++++++++  +++++    ",
"   +++++  ++++++++++++  +++++   ",
"  +++++  ++++++++++++++  +++++  ",
" ++++,  ++++++++++++++++  ,++++ ",
"++++  ++++++++++++++++++++  ++++",
" ++  ++++++++++++++++++++++  ++ ",
"     ++++++++++++++++++++++     ",
"     ++++++++++++++++++++++     ",
"     ++++++++++++++++++++++     ",
"     +++++++++    +++++++++     ",
"     +++++++++    +++++++++     ",
"     +++++++++    +++++++++     ",
"     +++++++++    +++++++++     ",
"     +++++++++    +++++++++     ",
"     +++++++++    +++++++++     ",
"     +++++++++    +++++++++     ",
"     $@@@@@@@+    +@@@@@@@@     ",
"                                ",
"                                ",
"                                "};
